ISO-10303-21;
HEADER;
FILE_DESCRIPTION (( 'STEP AP203' ),
    '1' );
FILE_NAME ('Captured Pulley V5.STEP',
    '2026-05-30T22:51:33',
    ( '' ),
    ( '' ),
    'SwSTEP 2.0',
    'SolidWorks 2024',
    '' );
FILE_SCHEMA (( 'CONFIG_CONTROL_DESIGN' ));
ENDSEC;

DATA;
#1 = CALENDAR_DATE ( 2026, 30, 5 ) ;
#2 = DIRECTION ( 'NONE',  ( -1.000000000000000000, 0.000000000000000000, 0.000000000000000000 ) ) ;
#3 = ORIENTED_EDGE ( 'NONE', *, *, #992, .F. ) ;
#4 = CARTESIAN_POINT ( 'NONE',  ( 8.406278307320304677, 3.481994483974816479, -15.15000000000000036 ) ) ;
#5 = COORDINATED_UNIVERSAL_TIME_OFFSET ( 8, 0, .BEHIND. ) ;
#6 = CARTESIAN_POINT ( 'NONE',  ( 5.405548355509151470, -1.452700758194004349, -10.14999999999999858 ) ) ;
#7 = ORIENTED_EDGE ( 'NONE', *, *, #764, .F. ) ;
#8 = CARTESIAN_POINT ( 'NONE',  ( -7.014466094067262958, 9.215718466126787689E-16, -14.79154040081958321 ) ) ;
#9 = CARTESIAN_POINT ( 'NONE',  ( 2.924479849548078322E-15, 6.062280815761625696, -13.68553390593273988 ) ) ;
#10 = CARTESIAN_POINT ( 'NONE',  ( -5.549999999999999822, -0.7264933011426412124, -10.14999999999999858 ) ) ;
#11 = ORIENTED_EDGE ( 'NONE', *, *, #19, .F. ) ;
#12 = CARTESIAN_POINT ( 'NONE',  ( 1.212246188430520191E-14, -6.062280815761631025, -13.68553390593273633 ) ) ;
#13 = DIRECTION ( 'NONE',  ( -1.000000000000000000, 0.000000000000000000, 0.000000000000000000 ) ) ;
#14 = CARTESIAN_POINT ( 'NONE',  ( -2.179186617653235736, -5.261021887280344700, -11.83198051533946860 ) ) ;
#15 = CIRCLE ( 'NONE', #712, 12.00000000000000000 ) ;
#16 = ORIENTED_EDGE ( 'NONE', *, *, #730, .F. ) ;
#17 = CARTESIAN_POINT ( 'NONE',  ( -8.868019484660536023, 1.301042606982605321E-15, -15.14999999999999858 ) ) ;
#18 = CARTESIAN_POINT ( 'NONE',  ( 11.99999999999999467, 24.00000000000000000, 25.45000000000000284 ) ) ;
#19 = EDGE_CURVE ( 'NONE', #897, #843, #873, .T. ) ;
#20 = CIRCLE ( 'NONE', #409, 2.475000000000000089 ) ;
#21 = CARTESIAN_POINT ( 'NONE',  ( -4.026611827144605193, -4.026611827144623845, -11.83198051533945971 ) ) ;
#22 = CARTESIAN_POINT ( 'NONE',  ( 0.000000000000000000, 0.000000000000000000, -7.449999999999998401 ) ) ;
#23 = ORIENTED_EDGE ( 'NONE', *, *, #453, .F. ) ;
#24 = CARTESIAN_POINT ( 'NONE',  ( 0.000000000000000000, 0.000000000000000000, 4.550000000000001599 ) ) ;
#25 = CARTESIAN_POINT ( 'NONE',  ( 12.00000000000000000, 2.939152317953647894E-15, 25.44999999999999929 ) ) ;
#26 = EDGE_CURVE ( 'NONE', #254, #64, #281, .T. ) ;
#27 = CARTESIAN_POINT ( 'NONE',  ( 0.7264933011426391030, 5.549999999999999822, -10.14999999999999858 ) ) ;
#28 = DIRECTION ( 'NONE',  ( -1.000000000000000000, 0.000000000000000000, 0.000000000000000000 ) ) ;
#29 = ORIENTED_EDGE ( 'NONE', *, *, #219, .T. ) ;
#30 = CARTESIAN_POINT ( 'NONE',  ( -5.549999999999998934, 7.589415207398531038E-16, -10.14999999999999858 ) ) ;
#31 = CARTESIAN_POINT ( 'NONE',  ( 5.261021887280351805, 2.179186617653218416, -10.14999999999999858 ) ) ;
#32 = FACE_OUTER_BOUND ( 'NONE', #616, .T. ) ;
#33 = VERTEX_POINT ( 'NONE', #341 ) ;
#34 = CIRCLE ( 'NONE', #393, 14.99000000000000021 ) ;
#35 = CARTESIAN_POINT ( 'NONE',  ( -5.261021887280359799, -2.179186617653201985, -10.99099025766973448 ) ) ;
#36 = ORIENTED_EDGE ( 'NONE', *, *, #992, .T. ) ;
#37 = CARTESIAN_POINT ( 'NONE',  ( -4.142417804728223629, -10.00068124519056667, -15.15000000000000213 ) ) ;
#38 = CARTESIAN_POINT ( 'NONE',  ( -9.482894382799260669, -4.674839742446988744, -15.14999999999999858 ) ) ;
#39 = PERSON ( 'UNSPECIFIED', 'UNSPECIFIED', 'UNSPECIFIED', ('UNSPECIFIED'), ('UNSPECIFIED'), ('UNSPECIFIED') ) ;
#40 = AXIS2_PLACEMENT_3D ( 'NONE', #863, #298, #944 ) ;
#41 = CARTESIAN_POINT ( 'NONE',  ( -2.475000000000000089, 0.000000000000000000, 9.850000000000003197 ) ) ;
#42 = ORIENTED_EDGE ( 'NONE', *, *, #244, .F. ) ;
#43 = CARTESIAN_POINT ( 'NONE',  ( 4.026611827144616740, 4.026611827144614963, -10.15000000000000036 ) ) ;
#44 = DIRECTION ( 'NONE',  ( -1.000000000000000000, 0.000000000000000000, 0.000000000000000000 ) ) ;
#45 = CARTESIAN_POINT ( 'NONE',  ( -6.972068310850308315, -7.947935326972771719, -15.15000000000000213 ) ) ;
#46 = CARTESIAN_POINT ( 'NONE',  ( -5.549999999999998934, 0.7264933011426397691, -10.14999999999999680 ) ) ;
#47 = LINE ( 'NONE', #593, #819 ) ;
#48 = CARTESIAN_POINT ( 'NONE',  ( -5.550000000000000711, -0.7263955392177389170, -10.14999999999999680 ) ) ;
#49 = CARTESIAN_POINT ( 'NONE',  ( 6.433886872123069978, 6.433886872123065537, -15.15000000000000568 ) ) ;
#50 = DIRECTION ( 'NONE',  ( 0.000000000000000000, 0.000000000000000000, -1.000000000000000000 ) ) ;
#51 = CARTESIAN_POINT ( 'NONE',  ( -5.549999999999998934, 0.7263955392177404713, -10.99099025766973092 ) ) ;
#52 = DIRECTION ( 'NONE',  ( -0.000000000000000000, -0.000000000000000000, -1.000000000000000000 ) ) ;
#53 = DIRECTION ( 'NONE',  ( -0.000000000000000000, -0.000000000000000000, -1.000000000000000000 ) ) ;
#54 = CARTESIAN_POINT ( 'NONE',  ( -10.54999999999999538, 1.380805934909398847, -15.14999999999999858 ) ) ;
#55 = CARTESIAN_POINT ( 'NONE',  ( -8.868019484660539575, -1.160664827991604531, -15.14999999999999858 ) ) ;
#56 = CARTESIAN_POINT ( 'NONE',  ( -7.947884772185836333, -6.972017756063394245, -15.15000000000000391 ) ) ;
#57 = APPROVAL ( #789, 'UNSPECIFIED' ) ;
#58 = LINE ( 'NONE', #1033, #747 ) ;
#59 = B_SPLINE_CURVE_WITH_KNOTS ( 'NONE', 3,
 ( #151, #799, #6, #242, #815, #1048, #490, #500, #155, #338, #804, #404, #963, #161, #86, #894, #10, #333 ),
 .UNSPECIFIED., .F., .F.,
 ( 4, 2, 2, 2, 2, 2, 2, 2, 4 ),
 ( 0.5000000000000000000, 0.5625000000000000000, 0.6250000000000000000, 0.6875000000000000000, 0.7500000000000000000, 0.8125000000000000000, 0.8750000000000000000, 0.9375000000000000000, 1.000000000000000000 ),
 .UNSPECIFIED. ) ;
#60 = CARTESIAN_POINT ( 'NONE',  ( 2.475000000000000089, 3.031000827889699256E-16, 9.850000000000003197 ) ) ;
#61 = CARTESIAN_POINT ( 'NONE',  ( -9.709009742330263038, 1.270735381450502910, -15.14999999999999858 ) ) ;
#62 = ADVANCED_FACE ( 'NONE', ( #179 ), #632, .F. ) ;
#63 = CARTESIAN_POINT ( 'NONE',  ( 0.000000000000000000, 0.000000000000000000, 4.550000000000001599 ) ) ;
#64 = VERTEX_POINT ( 'NONE', #347 ) ;
#65 = DIRECTION ( 'NONE',  ( -1.000000000000000000, 0.000000000000000000, 0.000000000000000000 ) ) ;
#66 = CARTESIAN_POINT ( 'NONE',  ( -6.649235972697987940, -2.754203719310539977, -14.79154040081958676 ) ) ;
#67 = DIRECTION ( 'NONE',  ( -0.000000000000000000, -0.000000000000000000, -1.000000000000000000 ) ) ;
#68 = EDGE_LOOP ( 'NONE', ( #202, #852, #589, #405 ) ) ;
#69 = CARTESIAN_POINT ( 'NONE',  ( 5.908459599180416966, -5.421010862427522170E-17, -13.68553390593274166 ) ) ;
#70 = CARTESIAN_POINT ( 'NONE',  ( 2.179186617653215308, -5.261021887280347364, -10.99099025766973270 ) ) ;
#71 = AXIS2_PLACEMENT_3D ( 'NONE', #509, #834, #932 ) ;
#72 = CARTESIAN_POINT ( 'NONE',  ( 12.00000000000000000, -23.99999999999999289, 25.45000000000000284 ) ) ;
#73 = CARTESIAN_POINT ( 'NONE',  ( 4.286679874282167901, -4.286679874282161684, -13.68553390593274344 ) ) ;
#74 = CARTESIAN_POINT ( 'NONE',  ( -3.812206144351503845, 9.203479776255443667, -15.15000000000000213 ) ) ;
#75 = LINE ( 'NONE', #572, #428 ) ;
#76 = CARTESIAN_POINT ( 'NONE',  ( -14.99000000000000021, 0.000000000000000000, -15.14999999999999858 ) ) ;
#77 = CARTESIAN_POINT ( 'NONE',  ( -7.014466094067262958, 9.215718466126787689E-16, -14.79154040081958321 ) ) ;
#78 = CARTESIAN_POINT ( 'NONE',  ( 9.098890073330649031, -2.591699778419198603E-16, -15.15000000000000391 ) ) ;
#79 = ORIENTED_EDGE ( 'NONE', *, *, #841, .T. ) ;
#80 = CC_DESIGN_SECURITY_CLASSIFICATION ( #913, ( #597 ) ) ;
#81 = DATE_AND_TIME ( #1047, #896 ) ;
#82 = CARTESIAN_POINT ( 'NONE',  ( 5.549999999999999822, 6.796789735267810781E-16, 4.550000000000001599 ) ) ;
#83 = CARTESIAN_POINT ( 'NONE',  ( -2.319934430536715553, -5.600817166017989734, -13.68553390593274344 ) ) ;
#84 = FACE_OUTER_BOUND ( 'NONE', #880, .T. ) ;
#85 = CC_DESIGN_DATE_AND_TIME_ASSIGNMENT ( #719, #154, ( #1042 ) ) ;
#86 = CARTESIAN_POINT ( 'NONE',  ( -4.849514455366128907, -2.795085341058495043, -10.14999999999999858 ) ) ;
#87 = ORIENTED_EDGE ( 'NONE', *, *, #730, .T. ) ;
#88 = B_SPLINE_CURVE_WITH_KNOTS ( 'NONE', 5,
 ( #207, #265, #524, #923, #356, #604, #772, #530 ),
 .UNSPECIFIED., .F., .F.,
 ( 6, 2, 6 ),
 ( 0.000000000000000000, 0.5000000000000000000, 1.000000000000000000 ),
 .UNSPECIFIED. ) ;
#89 = CARTESIAN_POINT ( 'NONE',  ( 3.481994483974812926, -8.406278307320311782, -15.14999999999999858 ) ) ;
#90 = AXIS2_PLACEMENT_3D ( 'NONE', #125, #363, #675 ) ;
#91 = CALENDAR_DATE ( 2026, 30, 5 ) ;
#92 = EDGE_CURVE ( 'NONE', #525, #587, #664, .T. ) ;
#93 = CARTESIAN_POINT ( 'NONE',  ( -7.014466094067264734, -0.9180679064368533204, -14.79154040081958321 ) ) ;
#94 = CARTESIAN_POINT ( 'NONE',  ( -2.739353671734170437, -10.21106722996640670, -15.14999999999999858 ) ) ;
#95 = CARTESIAN_POINT ( 'NONE',  ( 2.754203719310557297, 6.649235972697979058, -14.79154040081957966 ) ) ;
#96 = DIRECTION ( 'NONE',  ( -0.000000000000000000, -0.000000000000000000, -1.000000000000000000 ) ) ;
#97 = ORIENTED_EDGE ( 'NONE', *, *, #92, .F. ) ;
#98 = CARTESIAN_POINT ( 'NONE',  ( -5.089104889274983279, 5.089104889274969068, -14.79154040081957611 ) ) ;
#99 = CARTESIAN_POINT ( 'NONE',  ( -6.057028237014331573, -7.417720242804737085E-16, 24.10674524897901350 ) ) ;
#100 = CARTESIAN_POINT ( 'NONE',  ( -5.908459599180415189, 0.7733114768455668919, -13.68553390593273811 ) ) ;
#101 = CARTESIAN_POINT ( 'NONE',  ( 10.01096375318290121, 3.399780680462553661, -15.14999999999999680 ) ) ;
#102 = ORIENTED_EDGE ( 'NONE', *, *, #510, .F. ) ;
#103 = CARTESIAN_POINT ( 'NONE',  ( -5.261021887280350917, 2.179186617653235292, -10.99099025766973448 ) ) ;
#104 = EDGE_CURVE ( 'NONE', #676, #513, #15, .T. ) ;
#105 = VERTEX_POINT ( 'NONE', #268 ) ;
#106 = CARTESIAN_POINT ( 'NONE',  ( 1.452700758194005237, 5.405548355509151470, -10.14999999999999858 ) ) ;
#107 = CARTESIAN_POINT ( 'NONE',  ( 0.6900421846481290533, 10.54996425236845070, -15.14999999999999503 ) ) ;
#108 = EDGE_LOOP ( 'NONE', ( #113, #29 ) ) ;
#109 = CARTESIAN_POINT ( 'NONE',  ( 2.179186617653215308, 5.261021887280355358, -10.14999999999999680 ) ) ;
#110 = ORIENTED_EDGE ( 'NONE', *, *, #665, .F. ) ;
#111 = CARTESIAN_POINT ( 'NONE',  ( 5.261021887280351805, -2.179186617653217084, -10.14999999999999680 ) ) ;
#112 = CARTESIAN_POINT ( 'NONE',  ( 6.972068310844744765, 7.947935326978339710, -15.14999999999999858 ) ) ;
#113 = ORIENTED_EDGE ( 'NONE', *, *, #92, .T. ) ;
#114 = CARTESIAN_POINT ( 'NONE',  ( -5.261021887280351805, 2.179186617653235292, -11.83198051533947037 ) ) ;
#115 = CARTESIAN_POINT ( 'NONE',  ( -10.55000000000000071, 1.517883041479706208E-15, -15.14999999999999858 ) ) ;
#116 = CARTESIAN_POINT ( 'NONE',  ( 1.376773466056737893, -10.48210128442358524, -15.15000000000000036 ) ) ;
#117 = AXIS2_PLACEMENT_3D ( 'NONE', #631, #374, #460 ) ;
#118 = CARTESIAN_POINT ( 'NONE',  ( -4.849514455366130683, 2.795085341058491046, -10.14999999999999680 ) ) ;
#119 = LINE ( 'NONE', #831, #482 ) ;
#120 = VERTEX_POINT ( 'NONE', #607 ) ;
#121 = CARTESIAN_POINT ( 'NONE',  ( 2.179186617653215308, 5.261021887280355358, -10.99099025766973092 ) ) ;
#122 = VERTEX_POINT ( 'NONE', #755 ) ;
#123 = CARTESIAN_POINT ( 'NONE',  ( 4.142417804728185438, -10.00068124519057911, -15.14999999999999858 ) ) ;
#124 = CONICAL_SURFACE ( 'NONE', #496, 14.99000000000000021, 0.5199534337697291342 ) ;
#125 = CARTESIAN_POINT ( 'NONE',  ( 0.000000000000000000, 0.000000000000000000, 7.449999999999994849 ) ) ;
#126 = CARTESIAN_POINT ( 'NONE',  ( 4.026611827144621181, -4.026611827144613187, -10.15000000000000213 ) ) ;
#127 = CARTESIAN_POINT ( 'NONE',  ( -3.481994483974815147, 8.406278307320308230, -15.15000000000000213 ) ) ;
#128 = CARTESIAN_POINT ( 'NONE',  ( -0.6900421846526272329, -10.54996425236844715, -15.15000000000000036 ) ) ;
#129 = CARTESIAN_POINT ( 'NONE',  ( 0.000000000000000000, 0.000000000000000000, 25.44999999999999574 ) ) ;
#130 = CARTESIAN_POINT ( 'NONE',  ( -2.475000000000000089, 0.000000000000000000, 4.550000000000001599 ) ) ;
#131 = ORIENTED_EDGE ( 'NONE', *, *, #764, .T. ) ;
#132 = CARTESIAN_POINT ( 'NONE',  ( 0.000000000000000000, 0.000000000000000000, 25.44999999999999574 ) ) ;
#133 = CARTESIAN_POINT ( 'NONE',  ( 10.82465937740471240, -2.456506794072402857E-16, -15.15000000000000391 ) ) ;
#134 = CARTESIAN_POINT ( 'NONE',  ( 10.54996425236734403, -0.6900421846363357092, -15.15000000000000213 ) ) ;
#135 = EDGE_CURVE ( 'NONE', #680, #541, #34, .T. ) ;
#136 = CARTESIAN_POINT ( 'NONE',  ( 0.000000000000000000, 0.000000000000000000, -30.52475137813475214 ) ) ;
#137 = EDGE_LOOP ( 'NONE', ( #339, #732, #190, #1016 ) ) ;
#138 = CARTESIAN_POINT ( 'NONE',  ( 12.00000000000000000, 0.000000000000000000, 25.44999999999999574 ) ) ;
#139 = CARTESIAN_POINT ( 'NONE',  ( -3.812206144351534043, -9.203479776255434786, -15.15000000000000213 ) ) ;
#140 = ADVANCED_FACE ( 'NONE', ( #845 ), #321, .T. ) ;
#141 = DIRECTION ( 'NONE',  ( 0.000000000000000000, 0.000000000000000000, -1.000000000000000000 ) ) ;
#142 = CONICAL_SURFACE ( 'NONE', #240, 14.99000000000000021, 0.5199534337697291342 ) ;
#143 = CARTESIAN_POINT ( 'NONE',  ( 9.709009742330268367, 0.000000000000000000, -15.15000000000000213 ) ) ;
#144 = CARTESIAN_POINT ( 'NONE',  ( 2.149687523091911054E-14, -10.82465937740471595, -15.15000000000000391 ) ) ;
#145 = DESIGN_CONTEXT ( 'detailed design', #895, 'design' ) ;
#146 = CYLINDRICAL_SURFACE ( 'NONE', #728, 5.549999999999999822 ) ;
#147 = ORIENTED_EDGE ( 'NONE', *, *, #386, .T. ) ;
#148 = DIRECTION ( 'NONE',  ( -1.000000000000000000, 0.000000000000000000, -0.000000000000000000 ) ) ;
#149 = CARTESIAN_POINT ( 'NONE',  ( 2.754203719310559073, -6.649235972697975505, -14.79154040081959209 ) ) ;
#150 = DIRECTION ( 'NONE',  ( -0.000000000000000000, -0.000000000000000000, -1.000000000000000000 ) ) ;
#151 = CARTESIAN_POINT ( 'NONE',  ( 5.549999999999999822, 2.856293781391153173E-16, -10.14999999999999858 ) ) ;
#152 = CARTESIAN_POINT ( 'NONE',  ( -5.550000000000000711, -0.7263955392177389170, -10.99099025766973092 ) ) ;
#153 = CARTESIAN_POINT ( 'NONE',  ( 3.812206144351499848, -9.203479776255443667, -15.14999999999999858 ) ) ;
#154 = DATE_TIME_ROLE ( 'creation_date' ) ;
#155 = CARTESIAN_POINT ( 'NONE',  ( 0.7264933011426411014, -5.550000000000000711, -10.15000000000000036 ) ) ;
#156 = CARTESIAN_POINT ( 'NONE',  ( 1.212246188430520191E-14, -6.062280815761631025, -13.68553390593273633 ) ) ;
#157 = ORIENTED_EDGE ( 'NONE', *, *, #996, .F. ) ;
#158 = CARTESIAN_POINT ( 'NONE',  ( -10.55000000000000071, 1.517883041479706208E-15, -15.14999999999999858 ) ) ;
#159 = VECTOR ( 'NONE', #600, 1000.000000000000000 ) ;
#160 = PERSON_AND_ORGANIZATION_ROLE ( 'design_supplier' ) ;
#161 = CARTESIAN_POINT ( 'NONE',  ( -4.438150975309897994, -3.410734295860779142, -10.14999999999999680 ) ) ;
#162 = ORIENTED_EDGE ( 'NONE', *, *, #183, .T. ) ;
#163 = CARTESIAN_POINT ( 'NONE',  ( -4.286679874282164349, 4.286679874282151026, -13.68553390593272212 ) ) ;
#164 = EDGE_CURVE ( 'NONE', #605, #440, #903, .T. ) ;
#165 = AXIS2_PLACEMENT_3D ( 'NONE', #970, #579, #2 ) ;
#166 = CC_DESIGN_APPROVAL ( #878, ( #597 ) ) ;
#167 = CARTESIAN_POINT ( 'NONE',  ( 0.000000000000000000, 0.000000000000000000, 4.550000000000001599 ) ) ;
#168 = CARTESIAN_POINT ( 'NONE',  ( -5.908459599180415189, 7.589415207398531038E-16, -13.68553390593273811 ) ) ;
#169 = EDGE_CURVE ( 'NONE', #513, #676, #621, .T. ) ;
#170 = AXIS2_PLACEMENT_3D ( 'NONE', #439, #762, #640 ) ;
#171 = APPROVAL_DATE_TIME ( #329, #274 ) ;
#172 = CARTESIAN_POINT ( 'NONE',  ( -10.55000000000000071, 1.409462824231155764E-15, -15.14999999999999680 ) ) ;
#173 = CARTESIAN_POINT ( 'NONE',  ( 2.754203719310559073, -6.649235972697975505, -14.79154040081959209 ) ) ;
#174 = AXIS2_PLACEMENT_3D ( 'NONE', #167, #573, #821 ) ;
#175 =( NAMED_UNIT ( * ) SI_UNIT ( $, .STERADIAN. ) SOLID_ANGLE_UNIT ( ) );
#176 = CARTESIAN_POINT ( 'NONE',  ( 2.539373254820924127E-15, 5.694489056359823387, -11.83198051533946327 ) ) ;
#177 = ORIENTED_EDGE ( 'NONE', *, *, #435, .T. ) ;
#178 = CARTESIAN_POINT ( 'NONE',  ( 2.754203719310557297, 6.649235972697979058, -14.79154040081957966 ) ) ;
#179 = FACE_OUTER_BOUND ( 'NONE', #907, .T. ) ;
#180 = CARTESIAN_POINT ( 'NONE',  ( -4.674812382387088405, -9.482828329792223343, -15.15000000000000036 ) ) ;
#181 = CARTESIAN_POINT ( 'NONE',  ( -5.261021887280359799, -2.179186617653201985, -10.99099025766973448 ) ) ;
#182 = APPROVAL_PERSON_ORGANIZATION ( #465, #57, #576 ) ;
#183 = EDGE_CURVE ( 'NONE', #560, #812, #206, .T. ) ;
#184 = CARTESIAN_POINT ( 'NONE',  ( 0.000000000000000000, 0.000000000000000000, 9.850000000000003197 ) ) ;
#185 = ORIENTED_EDGE ( 'NONE', *, *, #544, .F. ) ;
#186 = CARTESIAN_POINT ( 'NONE',  ( 6.433886872123072642, -6.433886872123058431, -15.15000000000000391 ) ) ;
#187 = ORIENTED_EDGE ( 'NONE', *, *, #104, .F. ) ;
#188 = CARTESIAN_POINT ( 'NONE',  ( -2.319934430536698233, 5.600817166017995952, -13.68553390593274521 ) ) ;
#189 = LINE ( 'NONE', #445, #311 ) ;
#190 = ORIENTED_EDGE ( 'NONE', *, *, #510, .T. ) ;
#191 = CARTESIAN_POINT ( 'NONE',  ( -5.261021887280359799, -2.179186617653201985, -10.15000000000000213 ) ) ;
#192 = CARTESIAN_POINT ( 'NONE',  ( 14.99000000000000021, 1.835745551921882411E-15, -30.52475137813475214 ) ) ;
#193 = B_SPLINE_CURVE_WITH_KNOTS ( 'NONE', 3,
 ( #991, #997, #848, #512, #101, #689, #746, #842, #836, #112, #684, #1009, #615, #452, #1003, #283, #107, #437, #277, #609, #929, #201, #376, #779, #224, #626, #287, #475, #698, #293, #642, #1021, #798, #369 ),
 .UNSPECIFIED., .F., .F.,
 ( 4, 2, 2, 2, 2, 2, 2, 2, 2, 2, 2, 2, 2, 2, 2, 2, 4 ),
 ( 0.5000000000000000000, 0.5312500000000000000, 0.5625000000000000000, 0.5937500000000000000, 0.6250000000000000000, 0.6562500000000000000, 0.6875000000000000000, 0.7187500000000000000, 0.7500000000000000000, 0.7812500000000000000, 0.8125000000000000000, 0.8437500000000000000, 0.8750000000000000000, 0.9062500000000000000, 0.9375000000000000000, 0.9687500000000000000, 1.000000000000000000 ),
 .UNSPECIFIED. ) ;
#194 = CARTESIAN_POINT ( 'NONE',  ( -0.7264933011426402132, 5.549999999999999822, -10.14999999999999858 ) ) ;
#195 = CARTESIAN_POINT ( 'NONE',  ( 14.99000000000000021, 1.835745551921882411E-15, -15.14999999999999858 ) ) ;
#196 = ORIENTED_EDGE ( 'NONE', *, *, #26, .T. ) ;
#197 = CARTESIAN_POINT ( 'NONE',  ( -4.026611827144605193, -4.026611827144623845, -10.99099025766972915 ) ) ;
#198 = DIRECTION ( 'NONE',  ( -0.000000000000000000, -0.000000000000000000, -1.000000000000000000 ) ) ;
#199 = CC_DESIGN_DATE_AND_TIME_ASSIGNMENT ( #413, #905, ( #913 ) ) ;
#200 = CARTESIAN_POINT ( 'NONE',  ( -5.405548355509151470, 1.452700758194006125, -10.15000000000000036 ) ) ;
#201 = CARTESIAN_POINT ( 'NONE',  ( -4.674839742447966628, 9.482894382800848732, -15.14999999999999858 ) ) ;
#202 = ORIENTED_EDGE ( 'NONE', *, *, #841, .F. ) ;
#203 = LOCAL_TIME ( 15, 51, 33.00000000000000000, #5 ) ;
#204 = CARTESIAN_POINT ( 'NONE',  ( -2.179186617653235736, -5.261021887280344700, -10.15000000000000036 ) ) ;
#205 = ORIENTED_EDGE ( 'NONE', *, *, #386, .F. ) ;
#206 = B_SPLINE_CURVE_WITH_KNOTS ( 'NONE', 3,
 ( #1020, #995, #269, #290, #603, #38, #362, #614, #56, #45, #775, #784, #180, #223, #94, #829, #128, #1026, #116, #538, #613, #867, #442, #1007, #533, #297, #367, #861, #770, #948, #700, #456, #134, #504 ),
 .UNSPECIFIED., .F., .F.,
 ( 4, 2, 2, 2, 2, 2, 2, 2, 2, 2, 2, 2, 2, 2, 2, 2, 4 ),
 ( 0.000000000000000000, 0.03125000000000004163, 0.06250000000000006939, 0.09375000000000009714, 0.1250000000000001110, 0.1562500000000001110, 0.1875000000000001388, 0.2187500000000001110, 0.2500000000000001110, 0.2812500000000001110, 0.3125000000000000555, 0.3437500000000000555, 0.3750000000000000555, 0.4062500000000000555, 0.4375000000000000000, 0.4687500000000000000, 0.5000000000000000000 ),
 .UNSPECIFIED. ) ;
#207 = CARTESIAN_POINT ( 'NONE',  ( -10.55000000000000071, 1.409462824231155764E-15, -15.14999999999999680 ) ) ;
#208 = CLOSED_SHELL ( 'NONE', ( #399, #140, #515, #864, #373, #809, #599, #1046, #318, #258, #62, #549, #939, #701, #926, #846, #403, #957, #308, #355, #962, #783 ) ) ;
#209 = FACE_OUTER_BOUND ( 'NONE', #299, .T. ) ;
#210 = CARTESIAN_POINT ( 'NONE',  ( -3.481994483974844456, -8.406278307320301124, -15.15000000000000213 ) ) ;
#211 = CARTESIAN_POINT ( 'NONE',  ( 2.795085341058491046, 4.849514455366130683, -10.14999999999999858 ) ) ;
#212 = AXIS2_PLACEMENT_3D ( 'NONE', #706, #711, #1039 ) ;
#213 = CARTESIAN_POINT ( 'NONE',  ( 2.000000000000000000, 0.000000000000000000, -15.14999999999999858 ) ) ;
#214 = CARTESIAN_POINT ( 'NONE',  ( 12.00000000000000000, 0.000000000000000000, 25.44999999999999929 ) ) ;
#215 = CARTESIAN_POINT ( 'NONE',  ( -8.406278307320301124, 3.481994483974840460, -15.15000000000000568 ) ) ;
#216 = CARTESIAN_POINT ( 'NONE',  ( -5.549999999999998934, 0.7263955392177404713, -10.14999999999999858 ) ) ;
#217 = CYLINDRICAL_SURFACE ( 'NONE', #625, 2.475000000000000089 ) ;
#218 = ORIENTED_EDGE ( 'NONE', *, *, #280, .F. ) ;
#219 = EDGE_CURVE ( 'NONE', #587, #525, #938, .T. ) ;
#220 = CARTESIAN_POINT ( 'NONE',  ( 6.057028237014331573, 0.000000000000000000, 24.10674524897901350 ) ) ;
#221 = CARTESIAN_POINT ( 'NONE',  ( -9.709009742330271919, -1.270735381450500467, -15.14999999999999858 ) ) ;
#222 = CARTESIAN_POINT ( 'NONE',  ( 7.044038460960249104, 7.044038460960244663, -15.15000000000000568 ) ) ;
#223 = CARTESIAN_POINT ( 'NONE',  ( -3.399808040516338004, -10.01102980619591776, -15.15000000000000036 ) ) ;
#224 = CARTESIAN_POINT ( 'NONE',  ( -6.972017756055533866, 7.947884772194244718, -15.15000000000000213 ) ) ;
#225 = DIRECTION ( 'NONE',  ( -0.000000000000000000, -0.000000000000000000, -1.000000000000000000 ) ) ;
#226 = CARTESIAN_POINT ( 'NONE',  ( -8.406278307320320664, -3.481994483974793830, -15.15000000000000568 ) ) ;
#227 = FACE_OUTER_BOUND ( 'NONE', #1028, .T. ) ;
#228 = CARTESIAN_POINT ( 'NONE',  ( -6.057028237014331573, -7.417720242804737085E-16, 24.10674524897901350 ) ) ;
#229 = CARTESIAN_POINT ( 'NONE',  ( 9.961774725367680716, -7.810500055730856207E-17, -15.15000000000000391 ) ) ;
#230 = DIRECTION ( 'NONE',  ( -1.000000000000000000, 0.000000000000000000, 0.000000000000000000 ) ) ;
#231 = CARTESIAN_POINT ( 'NONE',  ( -12.00000000000000000, -1.469576158976823947E-15, 25.44999999999999929 ) ) ;
#232 = CARTESIAN_POINT ( 'NONE',  ( 5.261021887280351805, 2.179186617653218416, -11.83198051533946504 ) ) ;
#233 = CARTESIAN_POINT ( 'NONE',  ( -9.709009742330268367, 1.301042606982605321E-15, -15.14999999999999858 ) ) ;
#234 = APPROVAL_STATUS ( 'not_yet_approved' ) ;
#235 = CYLINDRICAL_SURFACE ( 'NONE', #1038, 2.475000000000000089 ) ;
#236 = CARTESIAN_POINT ( 'NONE',  ( 6.649235972697979058, 2.754203719310559073, -14.79154040081958321 ) ) ;
#237 = DIRECTION ( 'NONE',  ( 1.000000000000000000, 0.000000000000000000, 0.000000000000000000 ) ) ;
#238 = CARTESIAN_POINT ( 'NONE',  ( 5.549999999999999822, 6.796789735267810781E-16, 4.550000000000001599 ) ) ;
#239 = CC_DESIGN_PERSON_AND_ORGANIZATION_ASSIGNMENT ( #889, #160, ( #597 ) ) ;
#240 = AXIS2_PLACEMENT_3D ( 'NONE', #407, #498, #237 ) ;
#241 = CARTESIAN_POINT ( 'NONE',  ( 5.089104889274983279, 5.089104889274983279, -14.79154040081958676 ) ) ;
#242 = CARTESIAN_POINT ( 'NONE',  ( 4.849514455366133348, -2.795085341058491046, -10.14999999999999858 ) ) ;
#243 = VERTEX_POINT ( 'NONE', #823 ) ;
#244 = EDGE_CURVE ( 'NONE', #105, #320, #546, .T. ) ;
#245 = CARTESIAN_POINT ( 'NONE',  ( -5.600817166017995952, 2.319934430536716441, -13.68553390593274166 ) ) ;
#246 = CARTESIAN_POINT ( 'NONE',  ( 0.000000000000000000, 0.000000000000000000, 0.000000000000000000 ) ) ;
#247 = CARTESIAN_POINT ( 'NONE',  ( -12.69999999999999929, 1.695523493419510619E-15, 7.449999999999994849 ) ) ;
#248 = CARTESIAN_POINT ( 'NONE',  ( -3.481994483974815147, 8.406278307320308230, -15.15000000000000213 ) ) ;
#249 = CIRCLE ( 'NONE', #816, 14.99000000000000021 ) ;
#250 = CIRCLE ( 'NONE', #307, 14.99000000000000021 ) ;
#251 = APPLICATION_PROTOCOL_DEFINITION ( 'international standard', 'config_control_design', 1994, #895 ) ;
#252 = CARTESIAN_POINT ( 'NONE',  ( -6.649235972697976393, 2.754203719310585274, -14.79154040081958676 ) ) ;
#253 = CARTESIAN_POINT ( 'NONE',  ( -5.549999999999999822, 0.000000000000000000, 4.550000000000001599 ) ) ;
#254 = VERTEX_POINT ( 'NONE', #380 ) ;
#255 = CARTESIAN_POINT ( 'NONE',  ( 5.694489056359824275, -4.443867601347024375E-16, -11.83198051533946682 ) ) ;
#256 = ORIENTED_EDGE ( 'NONE', *, *, #435, .F. ) ;
#257 = CIRCLE ( 'NONE', #174, 2.475000000000000089 ) ;
#258 = ADVANCED_FACE ( 'NONE', ( #1019 ), #807, .T. ) ;
#259 = CARTESIAN_POINT ( 'NONE',  ( 7.654190049797423789, 7.654190049797423789, -15.15000000000000568 ) ) ;
#260 = CARTESIAN_POINT ( 'NONE',  ( 2.190759918182479995E-15, 5.694489056359823387, -10.99099025766973448 ) ) ;
#261 = DIRECTION ( 'NONE',  ( -1.000000000000000000, 0.000000000000000000, 0.000000000000000000 ) ) ;
#262 = ORIENTED_EDGE ( 'NONE', *, *, #135, .T. ) ;
#263 = CARTESIAN_POINT ( 'NONE',  ( -5.908459599180415189, 7.589415207398531038E-16, -13.68553390593273811 ) ) ;
#264 = CARTESIAN_POINT ( 'NONE',  ( -5.908459599180415189, 7.589415207398531038E-16, -13.68553390593273811 ) ) ;
#265 = CARTESIAN_POINT ( 'NONE',  ( -9.709009742330268367, 1.301042606982605321E-15, -15.14999999999999858 ) ) ;
#266 = VERTEX_POINT ( 'NONE', #749 ) ;
#267 = CARTESIAN_POINT ( 'NONE',  ( 2.539373254820924127E-15, 5.694489056359823387, -11.83198051533946327 ) ) ;
#268 = CARTESIAN_POINT ( 'NONE',  ( -12.69999999999999929, 0.000000000000000000, -7.449999999999998401 ) ) ;
#269 = CARTESIAN_POINT ( 'NONE',  ( -10.48210128442687861, -1.376773466040173810, -15.14999999999999858 ) ) ;
#270 = DIRECTION ( 'NONE',  ( -0.000000000000000000, -0.000000000000000000, -1.000000000000000000 ) ) ;
#271 = ORIENTED_EDGE ( 'NONE', *, *, #657, .T. ) ;
#272 = FACE_OUTER_BOUND ( 'NONE', #278, .T. ) ;
#273 = CARTESIAN_POINT ( 'NONE',  ( -12.00000000000000000, -1.469576158976823947E-15, 25.44999999999999929 ) ) ;
#274 = APPROVAL ( #234, 'UNSPECIFIED' ) ;
#275 = AXIS2_PLACEMENT_3D ( 'NONE', #136, #794, #958 ) ;
#276 = CARTESIAN_POINT ( 'NONE',  ( -4.438150975309901547, 3.410734295860778253, -10.14999999999999858 ) ) ;
#277 = CARTESIAN_POINT ( 'NONE',  ( -1.376773466053578421, 10.48210128442332056, -15.15000000000000036 ) ) ;
#278 = EDGE_LOOP ( 'NONE', ( #596, #196, #930, #748 ) ) ;
#279 = CARTESIAN_POINT ( 'NONE',  ( -4.026611827144617628, 4.026611827144606970, -11.83198051533945261 ) ) ;
#280 = EDGE_CURVE ( 'NONE', #33, #676, #1010, .T. ) ;
#281 = LINE ( 'NONE', #192, #1036 ) ;
#282 = CARTESIAN_POINT ( 'NONE',  ( 3.410734295860777809, 4.438150975309900659, -10.14999999999999858 ) ) ;
#283 = CARTESIAN_POINT ( 'NONE',  ( 1.376787234675188820, 10.48217050397857797, -15.14999999999999680 ) ) ;
#284 = CARTESIAN_POINT ( 'NONE',  ( 5.261021887280351805, -2.179186617653217084, -10.14999999999999680 ) ) ;
#285 = CARTESIAN_POINT ( 'NONE',  ( 7.654190049797423789, 7.654190049797423789, -15.15000000000000568 ) ) ;
#286 = CARTESIAN_POINT ( 'NONE',  ( -4.142417804728191655, 10.00068124519058266, -15.15000000000000213 ) ) ;
#287 = CARTESIAN_POINT ( 'NONE',  ( -8.385490753304603473, 6.438439045296269647, -15.15000000000000036 ) ) ;
#288 = CARTESIAN_POINT ( 'NONE',  ( 5.261021887280351805, -2.179186617653217084, -10.99099025766973448 ) ) ;
#289 = CARTESIAN_POINT ( 'NONE',  ( 3.812206144351499848, -9.203479776255443667, -15.14999999999999858 ) ) ;
#290 = CARTESIAN_POINT ( 'NONE',  ( -10.21113644951811672, -2.739367440368881912, -15.14999999999999858 ) ) ;
#291 = EDGE_CURVE ( 'NONE', #254, #120, #683, .T. ) ;
#292 = VECTOR ( 'NONE', #879, 1000.000000000000000 ) ;
#293 = CARTESIAN_POINT ( 'NONE',  ( -10.01102980619456950, 3.399808040522813268, -15.15000000000000213 ) ) ;
#294 = CARTESIAN_POINT ( 'NONE',  ( -14.99000000000000021, 1.835745551921882411E-15, 11.44999999999999751 ) ) ;
#295 = CARTESIAN_POINT ( 'NONE',  ( -9.203479776255434786, 3.812206144351531822, -15.15000000000000568 ) ) ;
#296 = CARTESIAN_POINT ( 'NONE',  ( 9.961774725367680716, -7.810500055730856207E-17, -15.15000000000000391 ) ) ;
#297 = CARTESIAN_POINT ( 'NONE',  ( 7.947935326977224157, -6.972068310846409211, -15.14999999999999858 ) ) ;
#298 = DIRECTION ( 'NONE',  ( -0.000000000000000000, -0.000000000000000000, -1.000000000000000000 ) ) ;
#299 = EDGE_LOOP ( 'NONE', ( #185, #97, #750, #359 ) ) ;
#300 = FACE_BOUND ( 'NONE', #707, .T. ) ;
#301 = CARTESIAN_POINT ( 'NONE',  ( -8.868019484660532470, 1.160664827991607195, -15.14999999999999858 ) ) ;
#302 = LOCAL_TIME ( 15, 51, 33.00000000000000000, #559 ) ;
#303 = CARTESIAN_POINT ( 'NONE',  ( -9.203479776255457878, -3.812206144351477199, -15.15000000000000568 ) ) ;
#304 = CARTESIAN_POINT ( 'NONE',  ( 0.000000000000000000, 0.000000000000000000, 9.850000000000003197 ) ) ;
#305 = FACE_OUTER_BOUND ( 'NONE', #108, .T. ) ;
#306 = CARTESIAN_POINT ( 'NONE',  ( 3.013393406861504681E-15, 9.098890073330649031, -15.15000000000000568 ) ) ;
#307 = AXIS2_PLACEMENT_3D ( 'NONE', #472, #781, #556 ) ;
#308 = ADVANCED_FACE ( 'NONE', ( #209 ), #508, .F. ) ;
#309 = CIRCLE ( 'NONE', #165, 14.99000000000000021 ) ;
#310 = DIRECTION ( 'NONE',  ( -1.000000000000000000, 0.000000000000000000, 0.000000000000000000 ) ) ;
#311 = VECTOR ( 'NONE', #349, 1000.000000000000000 ) ;
#312 = FACE_OUTER_BOUND ( 'NONE', #975, .T. ) ;
#313 = CARTESIAN_POINT ( 'NONE',  ( -5.908459599180416078, -0.7733114768455653376, -13.68553390593273811 ) ) ;
#314 = CARTESIAN_POINT ( 'NONE',  ( 0.000000000000000000, 0.000000000000000000, 23.75000000000000355 ) ) ;
#315 = CARTESIAN_POINT ( 'NONE',  ( -4.286679874282152802, -4.286679874282170566, -13.68553390593273100 ) ) ;
#316 = CC_DESIGN_APPROVAL ( #57, ( #913 ) ) ;
#317 = APPROVAL_ROLE ( '' ) ;
#318 = ADVANCED_FACE ( 'NONE', ( #272 ), #844, .T. ) ;
#319 = DIRECTION ( 'NONE',  ( -0.000000000000000000, 0.000000000000000000, -1.000000000000000000 ) ) ;
#320 = VERTEX_POINT ( 'NONE', #870 ) ;
#321 = B_SPLINE_SURFACE_WITH_KNOTS ( 'NONE', 5, 3, ( 
 ( #115, #532, #1018, #372, #469, #144, #1012, #709, #792, #133, #866, #285, #871, #955, #618, #696, #459, #54, #782 ),
 ( #537, #221, #860, #877, #139, #1024, #289, #387, #455, #229, #774, #947, #378, #788, #463, #699, #295, #61, #637 ),
 ( #937, #366, #226, #383, #210, #624, #704, #1037, #1031, #629, #543, #49, #942, #306, #127, #473, #215, #301, #797 ),
 ( #951, #548, #66, #641, #554, #882, #149, #692, #674, #717, #236, #644, #95, #667, #910, #990, #252, #499, #77 ),
 ( #264, #313, #964, #315, #887, #156, #830, #73, #564, #824, #598, #332, #418, #9, #188, #916, #739, #100, #800 ),
 ( #1045, #397, #584, #21, #14, #906, #505, #1041, #714, #511, #232, #592, #392, #176, #885, #557, #660, #647, #337 ),
 ( #423, #152, #181, #985, #485, #414, #70, #745, #960, #805, #477, #978, #735, #260, #343, #862, #778, #51, #517 ),
 ( #529, #855, #934, #375, #620, #451, #847, #771, #111, #922, #31, #751, #943, #436, #757, #697, #354, #216, #835 ) ),
 .UNSPECIFIED., .F., .T., .F.,
 ( 6, 2, 6 ),
 ( 4, 1, 1, 1, 1, 1, 1, 1, 1, 1, 1, 1, 1, 1, 1, 1, 4 ),
 ( 0.000000000000000000, 0.5000000000000000000, 1.000000000000000000 ),
 ( -3.141592653589793116, -2.748893571891068976, -2.356194490192345281, -1.963495408493620475, -1.570796326794896558, -1.178097245096172418, -0.7853981633974482790, -0.3926990816987241395, 0.000000000000000000, 0.3926990816987241395, 0.7853981633974482790, 1.178097245096172418, 1.570796326794896558, 1.963495408493620475, 2.356194490192344393, 2.748893571891068976, 3.141592653589793116 ),
 .UNSPECIFIED. ) ;
#322 = CARTESIAN_POINT ( 'NONE',  ( -4.286679874282152802, -4.286679874282170566, -13.68553390593273100 ) ) ;
#323 = PERSON_AND_ORGANIZATION_ROLE ( 'classification_officer' ) ;
#324 = EDGE_CURVE ( 'NONE', #120, #924, #458, .T. ) ;
#325 = FACE_OUTER_BOUND ( 'NONE', #685, .T. ) ;
#326 = ORIENTED_EDGE ( 'NONE', *, *, #324, .T. ) ;
#327 = CARTESIAN_POINT ( 'NONE',  ( 2.924479849548078322E-15, 6.062280815761625696, -13.68553390593273988 ) ) ;
#328 = ADVANCED_BREP_SHAPE_REPRESENTATION ( 'Captured Pulley V5', ( #590, #721 ), #795 ) ;
#329 = DATE_AND_TIME ( #1, #203 ) ;
#330 = DIRECTION ( 'NONE',  ( -0.000000000000000000, -0.000000000000000000, -1.000000000000000000 ) ) ;
#331 = CARTESIAN_POINT ( 'NONE',  ( 3.481994483974810706, 8.406278307320313559, -15.14999999999999325 ) ) ;
#332 = CARTESIAN_POINT ( 'NONE',  ( 4.286679874282163460, 4.286679874282162572, -13.68553390593274166 ) ) ;
#333 = CARTESIAN_POINT ( 'NONE',  ( -5.549999999999998934, 3.523657060577889411E-16, -10.14999999999999858 ) ) ;
#334 = CARTESIAN_POINT ( 'NONE',  ( 4.026611827144621181, -4.026611827144613187, -11.83198051533946682 ) ) ;
#335 = AXIS2_PLACEMENT_3D ( 'NONE', #129, #678, #928 ) ;
#336 = CARTESIAN_POINT ( 'NONE',  ( -10.00068124519059687, -4.142417804728159680, -15.15000000000000568 ) ) ;
#337 = CARTESIAN_POINT ( 'NONE',  ( -5.549999999999999822, 7.589415207398531038E-16, -11.83198051533946504 ) ) ;
#338 = CARTESIAN_POINT ( 'NONE',  ( -0.7264933011426392140, -5.549999999999999822, -10.14999999999999680 ) ) ;
#339 = ORIENTED_EDGE ( 'NONE', *, *, #219, .F. ) ;
#340 = CARTESIAN_POINT ( 'NONE',  ( -7.014466094067262958, 9.215718466126787689E-16, -14.79154040081958321 ) ) ;
#341 = CARTESIAN_POINT ( 'NONE',  ( 0.000000000000000000, 0.000000000000000000, 23.75000000000000355 ) ) ;
#342 = CONICAL_SURFACE ( 'NONE', #956, 12.69999999999999929, 0.5199534337697294673 ) ;
#343 = CARTESIAN_POINT ( 'NONE',  ( -2.179186617653218860, 5.261021887280353582, -10.99099025766973448 ) ) ;
#344 = PLANE ( 'NONE',  #859 ) ;
#345 = ORIENTED_EDGE ( 'NONE', *, *, #952, .T. ) ;
#346 = DIRECTION ( 'NONE',  ( -1.000000000000000000, 0.000000000000000000, 0.000000000000000000 ) ) ;
#347 = CARTESIAN_POINT ( 'NONE',  ( 14.99000000000000021, 1.835745551921882411E-15, 11.44999999999999751 ) ) ;
#348 = CARTESIAN_POINT ( 'NONE',  ( 4.438150975309900659, 3.410734295860778698, -10.14999999999999858 ) ) ;
#349 = DIRECTION ( 'NONE',  ( -0.000000000000000000, -0.000000000000000000, -1.000000000000000000 ) ) ;
#350 = EDGE_CURVE ( 'NONE', #33, #513, #539, .T. ) ;
#351 = EDGE_LOOP ( 'NONE', ( #832, #920, #741, #102 ) ) ;
#352 = CARTESIAN_POINT ( 'NONE',  ( -12.00000000000000000, -1.469576158976823947E-15, 25.44999999999999574 ) ) ;
#353 = DIRECTION ( 'NONE',  ( -0.000000000000000000, -0.000000000000000000, -1.000000000000000000 ) ) ;
#354 = CARTESIAN_POINT ( 'NONE',  ( -5.261021887280350917, 2.179186617653235292, -10.15000000000000746 ) ) ;
#355 = ADVANCED_FACE ( 'NONE', ( #300, #305 ), #946, .T. ) ;
#356 = CARTESIAN_POINT ( 'NONE',  ( -5.908459599180415189, 7.589415207398531038E-16, -13.68553390593273811 ) ) ;
#357 = ORIENTED_EDGE ( 'NONE', *, *, #635, .T. ) ;
#358 = CARTESIAN_POINT ( 'NONE',  ( 2.179186617653215308, 5.261021887280355358, -11.83198051533946327 ) ) ;
#359 = ORIENTED_EDGE ( 'NONE', *, *, #164, .T. ) ;
#360 = CARTESIAN_POINT ( 'NONE',  ( -7.654190049797429118, 7.654190049797406026, -15.14999999999998970 ) ) ;
#361 = AXIS2_PLACEMENT_3D ( 'NONE', #917, #431, #28 ) ;
#362 = CARTESIAN_POINT ( 'NONE',  ( -9.157330438810582507, -5.283299324112932460, -15.14999999999999680 ) ) ;
#363 = DIRECTION ( 'NONE',  ( -0.000000000000000000, -0.000000000000000000, -1.000000000000000000 ) ) ;
#364 = ORIENTED_EDGE ( 'NONE', *, *, #1034, .T. ) ;
#365 = CARTESIAN_POINT ( 'NONE',  ( -6.057028237014331573, -7.417720242804737085E-16, 24.10674524897901350 ) ) ;
#366 = CARTESIAN_POINT ( 'NONE',  ( -8.868019484660539575, -1.160664827991604531, -15.14999999999999858 ) ) ;
#367 = CARTESIAN_POINT ( 'NONE',  ( 8.385490753298491029, -6.438439045304841457, -15.15000000000000036 ) ) ;
#368 = CARTESIAN_POINT ( 'NONE',  ( -2.795085341058492379, 4.849514455366131571, -10.14999999999999858 ) ) ;
#369 = CARTESIAN_POINT ( 'NONE',  ( -10.55000000000000071, 1.409462824231155764E-15, -15.14999999999999680 ) ) ;
#370 = ORIENTED_EDGE ( 'NONE', *, *, #657, .F. ) ;
#371 = CARTESIAN_POINT ( 'NONE',  ( -5.549999999999998934, 7.589415207398531038E-16, -10.99099025766973092 ) ) ;
#372 = CARTESIAN_POINT ( 'NONE',  ( -7.654190049797400697, -7.654190049797439777, -15.14999999999999325 ) ) ;
#373 = ADVANCED_FACE ( 'NONE', ( #312 ), #536, .T. ) ;
#374 = DIRECTION ( 'NONE',  ( -0.000000000000000000, -0.000000000000000000, -1.000000000000000000 ) ) ;
#375 = CARTESIAN_POINT ( 'NONE',  ( -4.026611827144605193, -4.026611827144623845, -10.14999999999999147 ) ) ;
#376 = CARTESIAN_POINT ( 'NONE',  ( -5.283299324104559602, 9.157330438818419793, -15.15000000000000036 ) ) ;
#377 = DIRECTION ( 'NONE',  ( -0.000000000000000000, -0.000000000000000000, -1.000000000000000000 ) ) ;
#378 = CARTESIAN_POINT ( 'NONE',  ( 3.812206144351497183, 9.203479776255447220, -15.14999999999999325 ) ) ;
#379 = CARTESIAN_POINT ( 'NONE',  ( 3.901793612146400577E-15, 9.961774725367678940, -15.15000000000000568 ) ) ;
#380 = CARTESIAN_POINT ( 'NONE',  ( 14.99000000000000021, 1.835745551921882411E-15, 25.44999999999999574 ) ) ;
#381 = CARTESIAN_POINT ( 'NONE',  ( 0.000000000000000000, 0.000000000000000000, -7.449999999999998401 ) ) ;
#382 = CARTESIAN_POINT ( 'NONE',  ( 0.000000000000000000, 0.000000000000000000, 11.44999999999999751 ) ) ;
#383 = CARTESIAN_POINT ( 'NONE',  ( -6.433886872123046885, -6.433886872123076195, -15.14999999999999325 ) ) ;
#384 = CARTESIAN_POINT ( 'NONE',  ( 0.000000000000000000, 0.000000000000000000, -7.449999999999998401 ) ) ;
#385 = CARTESIAN_POINT ( 'NONE',  ( 8.868019484660536023, -1.084202172485504434E-16, -15.15000000000000213 ) ) ;
#386 = EDGE_CURVE ( 'NONE', #897, #122, #643, .T. ) ;
#387 = CARTESIAN_POINT ( 'NONE',  ( 7.044038460960253545, -7.044038460960237558, -15.15000000000000391 ) ) ;
#388 = VECTOR ( 'NONE', #563, 1000.000000000000000 ) ;
#389 = FACE_OUTER_BOUND ( 'NONE', #427, .T. ) ;
#390 = EDGE_CURVE ( 'NONE', #64, #924, #249, .T. ) ;
#391 = CARTESIAN_POINT ( 'NONE',  ( 5.550000000000000711, -1.626303258728256651E-16, -11.83198051533946504 ) ) ;
#392 = CARTESIAN_POINT ( 'NONE',  ( 2.179186617653215308, 5.261021887280355358, -11.83198051533946327 ) ) ;
#393 = AXIS2_PLACEMENT_3D ( 'NONE', #927, #198, #521 ) ;
#394 = MECHANICAL_CONTEXT ( 'NONE', #484, 'mechanical' ) ;
#395 = CIRCLE ( 'NONE', #90, 12.69999999999999929 ) ;
#396 = CARTESIAN_POINT ( 'NONE',  ( -14.99000000000000021, 0.000000000000000000, -30.52475137813475214 ) ) ;
#397 = CARTESIAN_POINT ( 'NONE',  ( -5.550000000000000711, -0.7263955392177389170, -11.83198051533946504 ) ) ;
#398 = CARTESIAN_POINT ( 'NONE',  ( -9.709009742330263038, 1.270735381450502910, -15.14999999999999858 ) ) ;
#399 = ADVANCED_FACE ( 'NONE', ( #636 ), #780, .F. ) ;
#400 = DIRECTION ( 'NONE',  ( -1.000000000000000000, 0.000000000000000000, 0.000000000000000000 ) ) ;
#401 = ORIENTED_EDGE ( 'NONE', *, *, #350, .T. ) ;
#402 = CARTESIAN_POINT ( 'NONE',  ( 6.649235972697979058, 2.754203719310559073, -14.79154040081958321 ) ) ;
#403 = ADVANCED_FACE ( 'NONE', ( #1040 ), #553, .T. ) ;
#404 = CARTESIAN_POINT ( 'NONE',  ( -2.795085341058493267, -4.849514455366132459, -10.14999999999999858 ) ) ;
#405 = ORIENTED_EDGE ( 'NONE', *, *, #673, .F. ) ;
#406 = CARTESIAN_POINT ( 'NONE',  ( 6.649235972697978170, -2.754203719310560849, -14.79154040081958854 ) ) ;
#407 = CARTESIAN_POINT ( 'NONE',  ( 0.000000000000000000, 0.000000000000000000, 11.44999999999999751 ) ) ;
#408 = CARTESIAN_POINT ( 'NONE',  ( 0.000000000000000000, 0.000000000000000000, 9.850000000000003197 ) ) ;
#409 = AXIS2_PLACEMENT_3D ( 'NONE', #868, #141, #785 ) ;
#410 = ORIENTED_EDGE ( 'NONE', *, *, #470, .T. ) ;
#411 = CARTESIAN_POINT ( 'NONE',  ( -5.261021887280359799, -2.179186617653201985, -11.83198051533947037 ) ) ;
#412 = DATE_AND_TIME ( #727, #302 ) ;
#413 = DATE_AND_TIME ( #91, #523 ) ;
#414 = CARTESIAN_POINT ( 'NONE',  ( 1.134080684930282243E-14, -5.694489056359827828, -10.99099025766973448 ) ) ;
#415 = CARTESIAN_POINT ( 'NONE',  ( 0.000000000000000000, 0.000000000000000000, -15.14999999999999858 ) ) ;
#416 = CARTESIAN_POINT ( 'NONE',  ( -6.649235972697987940, -2.754203719310539977, -14.79154040081958676 ) ) ;
#417 = CARTESIAN_POINT ( 'NONE',  ( -10.55000000000000426, -1.380805934909395738, -15.14999999999999858 ) ) ;
#418 = CARTESIAN_POINT ( 'NONE',  ( 2.319934430536692016, 5.600817166017999504, -13.68553390593273100 ) ) ;
#419 = CARTESIAN_POINT ( 'NONE',  ( 0.000000000000000000, 0.000000000000000000, -30.52475137813475214 ) ) ;
#420 = EDGE_LOOP ( 'NONE', ( #110, #672, #670, #552 ) ) ;
#421 = CARTESIAN_POINT ( 'NONE',  ( -2.754203719310584830, -6.649235972697971953, -14.79154040081958676 ) ) ;
#422 = EDGE_LOOP ( 'NONE', ( #357, #570 ) ) ;
#423 = CARTESIAN_POINT ( 'NONE',  ( -5.549999999999998934, 7.589415207398531038E-16, -10.99099025766973092 ) ) ;
#424 = CARTESIAN_POINT ( 'NONE',  ( -12.00000000000000000, -1.469576158976823947E-15, 25.44999999999999574 ) ) ;
#425 = ORIENTED_EDGE ( 'NONE', *, *, #26, .F. ) ;
#426 = CARTESIAN_POINT ( 'NONE',  ( -4.026611827144619404, 4.026611827144606970, -10.14999999999999325 ) ) ;
#427 = EDGE_LOOP ( 'NONE', ( #425, #488, #326, #869 ) ) ;
#428 = VECTOR ( 'NONE', #810, 999.9999999999998863 ) ;
#429 = CC_DESIGN_PERSON_AND_ORGANIZATION_ASSIGNMENT ( #567, #583, ( #597 ) ) ;
#430 = CARTESIAN_POINT ( 'NONE',  ( 5.549999999999998934, 0.7264933011426404352, -10.14999999999999858 ) ) ;
#431 = DIRECTION ( 'NONE',  ( -0.000000000000000000, -0.000000000000000000, -1.000000000000000000 ) ) ;
#432 = ORIENTED_EDGE ( 'NONE', *, *, #952, .F. ) ;
#433 = CARTESIAN_POINT ( 'NONE',  ( 5.694489056359824275, -4.443867601347024375E-16, -10.99099025766973270 ) ) ;
#434 = CARTESIAN_POINT ( 'NONE',  ( 0.000000000000000000, 0.000000000000000000, 25.44999999999999574 ) ) ;
#435 = EDGE_CURVE ( 'NONE', #266, #243, #250, .T. ) ;
#436 = CARTESIAN_POINT ( 'NONE',  ( 2.190759918182479995E-15, 5.694489056359823387, -10.15000000000000036 ) ) ;
#437 = CARTESIAN_POINT ( 'NONE',  ( -0.6900421846481252786, 10.55003574763155250, -15.14999999999999858 ) ) ;
#438 = ORIENTED_EDGE ( 'NONE', *, *, #104, .T. ) ;
#439 = CARTESIAN_POINT ( 'NONE',  ( 0.000000000000000000, 0.000000000000000000, -30.52475137813475214 ) ) ;
#440 = VERTEX_POINT ( 'NONE', #1035 ) ;
#441 = AXIS2_PLACEMENT_3D ( 'NONE', #1044, #787, #716 ) ;
#442 = CARTESIAN_POINT ( 'NONE',  ( 5.283299324113483131, -9.157330438810607376, -15.15000000000000036 ) ) ;
#443 = CARTESIAN_POINT ( 'NONE',  ( 5.405548355509150582, 1.452700758194005459, -10.14999999999999858 ) ) ;
#444 = VECTOR ( 'NONE', #462, 1000.000000000000000 ) ;
#445 = CARTESIAN_POINT ( 'NONE',  ( -14.99000000000000021, 0.000000000000000000, -30.52475137813475214 ) ) ;
#446 = ORIENTED_EDGE ( 'NONE', *, *, #1034, .F. ) ;
#447 = CARTESIAN_POINT ( 'NONE',  ( 5.694489056359824275, -4.443867601347024375E-16, -10.15000000000000213 ) ) ;
#448 = CARTESIAN_POINT ( 'NONE',  ( 0.000000000000000000, 0.000000000000000000, 23.75000000000000355 ) ) ;
#449 = CARTESIAN_POINT ( 'NONE',  ( 10.82465937740471240, -2.456506794072402857E-16, -15.15000000000000391 ) ) ;
#450 = CIRCLE ( 'NONE', #212, 14.99000000000000021 ) ;
#451 = CARTESIAN_POINT ( 'NONE',  ( 1.134080684930282243E-14, -5.694489056359827828, -10.14999999999999858 ) ) ;
#452 = CARTESIAN_POINT ( 'NONE',  ( 3.399808040521723917, 10.01102980619479510, -15.15000000000000213 ) ) ;
#453 = EDGE_CURVE ( 'NONE', #120, #254, #478, .T. ) ;
#454 = CARTESIAN_POINT ( 'NONE',  ( -5.549999999999998934, 7.589415207398531038E-16, -10.14999999999999858 ) ) ;
#455 = CARTESIAN_POINT ( 'NONE',  ( 9.203479776255445444, -3.812206144351502068, -15.14999999999999858 ) ) ;
#456 = CARTESIAN_POINT ( 'NONE',  ( 10.48217050397746952, -1.376787234681305927, -15.15000000000000213 ) ) ;
#457 = CYLINDRICAL_SURFACE ( 'NONE', #40, 14.99000000000000021 ) ;
#458 = LINE ( 'NONE', #396, #444 ) ;
#459 = CARTESIAN_POINT ( 'NONE',  ( -10.00068124519057022, 4.142417804728221853, -15.15000000000000568 ) ) ;
#460 = DIRECTION ( 'NONE',  ( -1.000000000000000000, 0.000000000000000000, 0.000000000000000000 ) ) ;
#461 = DIRECTION ( 'NONE',  ( 1.000000000000000000, 0.000000000000000000, -0.000000000000000000 ) ) ;
#462 = DIRECTION ( 'NONE',  ( -0.000000000000000000, -0.000000000000000000, -1.000000000000000000 ) ) ;
#463 = CARTESIAN_POINT ( 'NONE',  ( -3.812206144351503845, 9.203479776255443667, -15.15000000000000213 ) ) ;
#464 = CARTESIAN_POINT ( 'NONE',  ( -9.203479776255434786, 3.812206144351531822, -15.15000000000000568 ) ) ;
#465 = PERSON_AND_ORGANIZATION ( #39, #933 ) ;
#466 = CC_DESIGN_PERSON_AND_ORGANIZATION_ASSIGNMENT ( #734, #961, ( #966 ) ) ;
#467 = CARTESIAN_POINT ( 'NONE',  ( -2.475000000000000089, 0.000000000000000000, 9.850000000000003197 ) ) ;
#468 = DIRECTION ( 'NONE',  ( 0.000000000000000000, 0.000000000000000000, -1.000000000000000000 ) ) ;
#469 = CARTESIAN_POINT ( 'NONE',  ( -4.142417804728223629, -10.00068124519056667, -15.15000000000000213 ) ) ;
#470 = EDGE_CURVE ( 'NONE', #594, #924, #1022, .T. ) ;
#471 = CYLINDRICAL_SURFACE ( 'NONE', #275, 12.69999999999999929 ) ;
#472 = CARTESIAN_POINT ( 'NONE',  ( 0.000000000000000000, 0.000000000000000000, -11.44999999999999751 ) ) ;
#473 = CARTESIAN_POINT ( 'NONE',  ( -6.433886872123076195, 6.433886872123053102, -15.14999999999998970 ) ) ;
#474 = LOCAL_TIME ( 15, 51, 33.00000000000000000, #820 ) ;
#475 = CARTESIAN_POINT ( 'NONE',  ( -9.157389120314439523, 5.283338533840389317, -15.15000000000000213 ) ) ;
#476 = CARTESIAN_POINT ( 'NONE',  ( 0.000000000000000000, 0.000000000000000000, 4.550000000000001599 ) ) ;
#477 = CARTESIAN_POINT ( 'NONE',  ( 5.261021887280351805, 2.179186617653218416, -10.99099025766973270 ) ) ;
#478 = CIRCLE ( 'NONE', #902, 14.99000000000000021 ) ;
#479 = CARTESIAN_POINT ( 'NONE',  ( 7.044038460960253545, -7.044038460960237558, -15.15000000000000391 ) ) ;
#480 = APPROVAL_DATE_TIME ( #412, #57 ) ;
#481 = APPLICATION_PROTOCOL_DEFINITION ( 'international standard', 'config_control_design', 1994, #484 ) ;
#482 = VECTOR ( 'NONE', #270, 1000.000000000000000 ) ;
#483 = PLANE ( 'NONE',  #980 ) ;
#484 = APPLICATION_CONTEXT ( 'configuration controlled 3d designs of mechanical parts and assemblies' ) ;
#485 = CARTESIAN_POINT ( 'NONE',  ( -2.179186617653235736, -5.261021887280344700, -10.99099025766973270 ) ) ;
#486 = ORIENTED_EDGE ( 'NONE', *, *, #1030, .T. ) ;
#487 = EDGE_CURVE ( 'NONE', #812, #440, #967, .T. ) ;
#488 = ORIENTED_EDGE ( 'NONE', *, *, #291, .T. ) ;
#489 = SECURITY_CLASSIFICATION_LEVEL ( 'unclassified' ) ;
#490 = CARTESIAN_POINT ( 'NONE',  ( 2.795085341058495043, -4.849514455366129795, -10.14999999999999858 ) ) ;
#491 = EDGE_LOOP ( 'NONE', ( #690, #945, #1004 ) ) ;
#492 = CARTESIAN_POINT ( 'NONE',  ( 1.783235659121283099E-14, -9.098890073330650807, -15.15000000000000391 ) ) ;
#493 = DIRECTION ( 'NONE',  ( -1.000000000000000000, 0.000000000000000000, 0.000000000000000000 ) ) ;
#494 = CARTESIAN_POINT ( 'NONE',  ( -5.549999999999999822, 7.589415207398531038E-16, -11.83198051533946504 ) ) ;
#495 = CARTESIAN_POINT ( 'NONE',  ( 12.69999999999999929, 0.000000000000000000, 7.449999999999994849 ) ) ;
#496 = AXIS2_PLACEMENT_3D ( 'NONE', #911, #856, #518 ) ;
#497 = CARTESIAN_POINT ( 'NONE',  ( -3.481994483974844456, -8.406278307320301124, -15.15000000000000213 ) ) ;
#498 = DIRECTION ( 'NONE',  ( 0.000000000000000000, 0.000000000000000000, 1.000000000000000000 ) ) ;
#499 = CARTESIAN_POINT ( 'NONE',  ( -7.014466094067261182, 0.9180679064368552078, -14.79154040081958321 ) ) ;
#500 = CARTESIAN_POINT ( 'NONE',  ( 1.452700758194008124, -5.405548355509152358, -10.14999999999999680 ) ) ;
#501 = ORIENTED_EDGE ( 'NONE', *, *, #135, .F. ) ;
#502 = CARTESIAN_POINT ( 'NONE',  ( -8.406278307320301124, 3.481994483974840460, -15.15000000000000568 ) ) ;
#503 = CARTESIAN_POINT ( 'NONE',  ( 0.000000000000000000, 0.000000000000000000, 23.75000000000000355 ) ) ;
#504 = CARTESIAN_POINT ( 'NONE',  ( 10.55000000000000071, -5.421010862427522170E-17, -15.15000000000000036 ) ) ;
#505 = CARTESIAN_POINT ( 'NONE',  ( 2.179186617653215308, -5.261021887280347364, -11.83198051533946327 ) ) ;
#506 = DIRECTION ( 'NONE',  ( -0.000000000000000000, -0.000000000000000000, -1.000000000000000000 ) ) ;
#507 = ORIENTED_EDGE ( 'NONE', *, *, #582, .T. ) ;
#508 = CYLINDRICAL_SURFACE ( 'NONE', #639, 5.549999999999999822 ) ;
#509 = CARTESIAN_POINT ( 'NONE',  ( 0.000000000000000000, 0.000000000000000000, 9.850000000000003197 ) ) ;
#510 = EDGE_CURVE ( 'NONE', #440, #605, #59, .T. ) ;
#511 = CARTESIAN_POINT ( 'NONE',  ( 5.694489056359824275, -4.443867601347024375E-16, -11.83198051533946682 ) ) ;
#512 = CARTESIAN_POINT ( 'NONE',  ( 10.21113644952539090, 2.739367440343007942, -15.14999999999999858 ) ) ;
#513 = VERTEX_POINT ( 'NONE', #811 ) ;
#514 = CARTESIAN_POINT ( 'NONE',  ( -5.549999999999998934, 0.7263955392177404713, -10.14999999999999858 ) ) ;
#515 = ADVANCED_FACE ( 'NONE', ( #725 ), #235, .F. ) ;
#516 = CARTESIAN_POINT ( 'NONE',  ( 0.000000000000000000, 0.000000000000000000, 23.75000000000000355 ) ) ;
#517 = CARTESIAN_POINT ( 'NONE',  ( -5.549999999999998934, 7.589415207398531038E-16, -10.99099025766973092 ) ) ;
#518 = DIRECTION ( 'NONE',  ( 1.000000000000000000, 0.000000000000000000, 0.000000000000000000 ) ) ;
#519 = ORIENTED_EDGE ( 'NONE', *, *, #969, .T. ) ;
#520 = CARTESIAN_POINT ( 'NONE',  ( 5.261021887280351805, 2.179186617653218416, -10.14999999999999858 ) ) ;
#521 = DIRECTION ( 'NONE',  ( -1.000000000000000000, 0.000000000000000000, 0.000000000000000000 ) ) ;
#522 = CARTESIAN_POINT ( 'NONE',  ( -3.410734295860778698, 4.438150975309900659, -10.14999999999999858 ) ) ;
#523 = LOCAL_TIME ( 15, 51, 33.00000000000000000, #651 ) ;
#524 = CARTESIAN_POINT ( 'NONE',  ( -8.868019484660536023, 1.301042606982605321E-15, -15.14999999999999858 ) ) ;
#525 = VERTEX_POINT ( 'NONE', #253 ) ;
#526 = CARTESIAN_POINT ( 'NONE',  ( 1.134080684930282243E-14, -5.694489056359827828, -10.14999999999999858 ) ) ;
#527 = CARTESIAN_POINT ( 'NONE',  ( 6.057028237014329797, 12.11405647402866137, 24.10674524897901350 ) ) ;
#528 = CARTESIAN_POINT ( 'NONE',  ( -7.654190049797400697, -7.654190049797439777, -15.14999999999999325 ) ) ;
#529 = CARTESIAN_POINT ( 'NONE',  ( -5.549999999999998934, 7.589415207398531038E-16, -10.14999999999999858 ) ) ;
#530 = CARTESIAN_POINT ( 'NONE',  ( -5.549999999999998934, 3.523657060577889411E-16, -10.14999999999999858 ) ) ;
#531 = CARTESIAN_POINT ( 'NONE',  ( -5.549999999999999822, 7.589415207398531038E-16, -11.83198051533946504 ) ) ;
#532 = CARTESIAN_POINT ( 'NONE',  ( -10.55000000000000426, -1.380805934909395738, -15.14999999999999858 ) ) ;
#533 = CARTESIAN_POINT ( 'NONE',  ( 6.972017756058939142, -7.947884772189734548, -15.15000000000000036 ) ) ;
#534 = CIRCLE ( 'NONE', #715, 12.69999999999999929 ) ;
#535 = FACE_OUTER_BOUND ( 'NONE', #989, .T. ) ;
#536 = CYLINDRICAL_SURFACE ( 'NONE', #441, 14.99000000000000021 ) ;
#537 = CARTESIAN_POINT ( 'NONE',  ( -9.709009742330268367, 1.301042606982605321E-15, -15.14999999999999858 ) ) ;
#538 = CARTESIAN_POINT ( 'NONE',  ( 2.739367440352344030, -10.21113644952140298, -15.14999999999999858 ) ) ;
#539 = B_SPLINE_CURVE_WITH_KNOTS ( 'NONE', 2,
 ( #314, #220, #138 ),
 .UNSPECIFIED., .F., .F.,
 ( 3, 3 ),
 ( 0.000000000000000000, 1.000000000000000000 ),
 .UNSPECIFIED. ) ;
#540 = DIRECTION ( 'NONE',  ( -1.000000000000000000, 0.000000000000000000, 0.000000000000000000 ) ) ;
#541 = VERTEX_POINT ( 'NONE', #76 ) ;
#542 = DIRECTION ( 'NONE',  ( -0.000000000000000000, -0.000000000000000000, -1.000000000000000000 ) ) ;
#543 = CARTESIAN_POINT ( 'NONE',  ( 8.406278307320304677, 3.481994483974816479, -15.15000000000000036 ) ) ;
#544 = EDGE_CURVE ( 'NONE', #587, #440, #736, .T. ) ;
#545 = DIRECTION ( 'NONE',  ( -0.000000000000000000, -0.000000000000000000, -1.000000000000000000 ) ) ;
#546 = CIRCLE ( 'NONE', #117, 12.69999999999999929 ) ;
#547 = DIRECTION ( 'NONE',  ( -1.000000000000000000, 0.000000000000000000, 0.000000000000000000 ) ) ;
#548 = CARTESIAN_POINT ( 'NONE',  ( -7.014466094067264734, -0.9180679064368533204, -14.79154040081958321 ) ) ;
#549 = ADVANCED_FACE ( 'NONE', ( #656, #569 ), #483, .F. ) ;
#550 = AXIS2_PLACEMENT_3D ( 'NONE', #740, #652, #493 ) ;
#551 = CARTESIAN_POINT ( 'NONE',  ( 14.99000000000000021, 1.835745551921882411E-15, -30.52475137813475214 ) ) ;
#552 = ORIENTED_EDGE ( 'NONE', *, *, #891, .F. ) ;
#553 = CYLINDRICAL_SURFACE ( 'NONE', #854, 14.99000000000000021 ) ;
#554 = CARTESIAN_POINT ( 'NONE',  ( -2.754203719310584830, -6.649235972697971953, -14.79154040081958676 ) ) ;
#555 = FACE_BOUND ( 'NONE', #875, .T. ) ;
#556 = DIRECTION ( 'NONE',  ( -1.000000000000000000, 0.000000000000000000, 0.000000000000000000 ) ) ;
#557 = CARTESIAN_POINT ( 'NONE',  ( -4.026611827144617628, 4.026611827144606970, -11.83198051533945261 ) ) ;
#558 = CARTESIAN_POINT ( 'NONE',  ( -7.044038460960225123, -7.044038460960257098, -15.14999999999999325 ) ) ;
#559 = COORDINATED_UNIVERSAL_TIME_OFFSET ( 8, 0, .BEHIND. ) ;
#560 = VERTEX_POINT ( 'NONE', #172 ) ;
#561 = PERSON_AND_ORGANIZATION_ROLE ( 'creator' ) ;
#562 = EDGE_CURVE ( 'NONE', #525, #605, #901, .T. ) ;
#563 = DIRECTION ( 'NONE',  ( -0.000000000000000000, -0.000000000000000000, -1.000000000000000000 ) ) ;
#564 = CARTESIAN_POINT ( 'NONE',  ( 5.600817166017995063, -2.319934430536694236, -13.68553390593273456 ) ) ;
#565 = CARTESIAN_POINT ( 'NONE',  ( -10.54999999999999538, 1.380805934909398847, -15.14999999999999858 ) ) ;
#566 = CARTESIAN_POINT ( 'NONE',  ( 9.203479776255441891, 3.812206144351502957, -15.15000000000000036 ) ) ;
#567 = PERSON_AND_ORGANIZATION ( #39, #933 ) ;
#568 = CIRCLE ( 'NONE', #669, 14.99000000000000021 ) ;
#569 = FACE_BOUND ( 'NONE', #574, .T. ) ;
#570 = ORIENTED_EDGE ( 'NONE', *, *, #19, .T. ) ;
#571 = CARTESIAN_POINT ( 'NONE',  ( 2.319934430536692016, 5.600817166017999504, -13.68553390593273100 ) ) ;
#572 = CARTESIAN_POINT ( 'NONE',  ( -12.69999999999999929, 0.000000000000000000, -7.449999999999998401 ) ) ;
#573 = DIRECTION ( 'NONE',  ( 0.000000000000000000, 0.000000000000000000, -1.000000000000000000 ) ) ;
#574 = EDGE_LOOP ( 'NONE', ( #915, #438 ) ) ;
#575 = CARTESIAN_POINT ( 'NONE',  ( 6.062280815761628361, -7.857151343266617238E-16, -13.68553390593274166 ) ) ;
#576 = APPROVAL_ROLE ( '' ) ;
#577 = PERSON_AND_ORGANIZATION ( #39, #933 ) ;
#578 = VECTOR ( 'NONE', #377, 1000.000000000000000 ) ;
#579 = DIRECTION ( 'NONE',  ( -0.000000000000000000, -0.000000000000000000, -1.000000000000000000 ) ) ;
#580 = CARTESIAN_POINT ( 'NONE',  ( -4.026611827144605193, -4.026611827144623845, -11.83198051533945971 ) ) ;
#581 = AXIS2_PLACEMENT_3D ( 'NONE', #984, #50, #13 ) ;
#582 = EDGE_CURVE ( 'NONE', #924, #64, #309, .T. ) ;
#583 = PERSON_AND_ORGANIZATION_ROLE ( 'creator' ) ;
#584 = CARTESIAN_POINT ( 'NONE',  ( -5.261021887280359799, -2.179186617653201985, -11.83198051533947037 ) ) ;
#585 = DIRECTION ( 'NONE',  ( -1.000000000000000000, 0.000000000000000000, 0.000000000000000000 ) ) ;
#586 = AXIS2_PLACEMENT_3D ( 'NONE', #213, #883, #461 ) ;
#587 = VERTEX_POINT ( 'NONE', #238 ) ;
#588 = CARTESIAN_POINT ( 'NONE',  ( -6.433886872123046885, -6.433886872123076195, -15.14999999999999325 ) ) ;
#589 = ORIENTED_EDGE ( 'NONE', *, *, #164, .F. ) ;
#590 = MANIFOLD_SOLID_BREP ( 'Fillet1', #208 ) ;
#591 = CARTESIAN_POINT ( 'NONE',  ( 4.441580543129770720E-15, 10.82465937740471240, -15.15000000000000568 ) ) ;
#592 = CARTESIAN_POINT ( 'NONE',  ( 4.026611827144616740, 4.026611827144614963, -11.83198051533946682 ) ) ;
#593 = CARTESIAN_POINT ( 'NONE',  ( 14.99000000000000021, 0.000000000000000000, 11.44999999999999751 ) ) ;
#594 = VERTEX_POINT ( 'NONE', #247 ) ;
#595 = CARTESIAN_POINT ( 'NONE',  ( 2.319934430536693792, -5.600817166017992399, -13.68553390593273633 ) ) ;
#596 = ORIENTED_EDGE ( 'NONE', *, *, #453, .T. ) ;
#597 = PRODUCT_DEFINITION_FORMATION_WITH_SPECIFIED_SOURCE ( 'ANY', '', #966, .NOT_KNOWN. ) ;
#598 = CARTESIAN_POINT ( 'NONE',  ( 5.600817166017994175, 2.319934430536696901, -13.68553390593274344 ) ) ;
#599 = ADVANCED_FACE ( 'NONE', ( #325 ), #661, .T. ) ;
#600 = DIRECTION ( 'NONE',  ( -0.000000000000000000, -0.000000000000000000, -1.000000000000000000 ) ) ;
#601 = ORIENTED_EDGE ( 'NONE', *, *, #244, .T. ) ;
#602 = CARTESIAN_POINT ( 'NONE',  ( 2.190759918182479995E-15, 5.694489056359823387, -10.15000000000000036 ) ) ;
#603 = CARTESIAN_POINT ( 'NONE',  ( -10.01096375318889997, -3.399780680456376825, -15.15000000000000213 ) ) ;
#604 = CARTESIAN_POINT ( 'NONE',  ( -5.549999999999999822, 7.589415207398531038E-16, -11.83198051533946504 ) ) ;
#605 = VERTEX_POINT ( 'NONE', #890 ) ;
#606 = CARTESIAN_POINT ( 'NONE',  ( 2.179186617653215308, -5.261021887280347364, -10.99099025766973270 ) ) ;
#607 = CARTESIAN_POINT ( 'NONE',  ( -14.99000000000000021, 0.000000000000000000, 25.44999999999999574 ) ) ;
#608 = CARTESIAN_POINT ( 'NONE',  ( 5.549999999999999822, 2.856293781391153173E-16, -10.14999999999999858 ) ) ;
#609 = CARTESIAN_POINT ( 'NONE',  ( -2.739367440355487737, 10.21113644952166766, -15.14999999999999858 ) ) ;
#610 = VERTEX_POINT ( 'NONE', #495 ) ;
#611 = CARTESIAN_POINT ( 'NONE',  ( -2.179186617653218860, 5.261021887280353582, -10.99099025766973448 ) ) ;
#612 = CARTESIAN_POINT ( 'NONE',  ( -6.057028237014333349, 12.11405647402866137, 24.10674524897901350 ) ) ;
#613 = CARTESIAN_POINT ( 'NONE',  ( 3.399780680468894367, -10.01096375318015497, -15.14999999999999858 ) ) ;
#614 = CARTESIAN_POINT ( 'NONE',  ( -8.385549434808448055, -6.438478255023703412, -15.15000000000000036 ) ) ;
#615 = CARTESIAN_POINT ( 'NONE',  ( 4.674812382381664300, 9.482828329793360211, -15.14999999999999503 ) ) ;
#616 = EDGE_LOOP ( 'NONE', ( #601, #36, #256, #446 ) ) ;
#617 = CARTESIAN_POINT ( 'NONE',  ( 0.000000000000000000, 0.000000000000000000, 23.75000000000000355 ) ) ;
#618 = CARTESIAN_POINT ( 'NONE',  ( -4.142417804728191655, 10.00068124519058266, -15.15000000000000213 ) ) ;
#619 = CARTESIAN_POINT ( 'NONE',  ( -10.00068124519057022, 4.142417804728221853, -15.15000000000000568 ) ) ;
#620 = CARTESIAN_POINT ( 'NONE',  ( -2.179186617653235736, -5.261021887280344700, -10.15000000000000036 ) ) ;
#621 = CIRCLE ( 'NONE', #335, 12.00000000000000000 ) ;
#622 = FACE_OUTER_BOUND ( 'NONE', #420, .T. ) ;
#623 = CARTESIAN_POINT ( 'NONE',  ( 5.261021887280351805, 2.179186617653218416, -11.83198051533946504 ) ) ;
#624 = CARTESIAN_POINT ( 'NONE',  ( 1.783235659121283099E-14, -9.098890073330650807, -15.15000000000000391 ) ) ;
#625 = AXIS2_PLACEMENT_3D ( 'NONE', #304, #150, #540 ) ;
#626 = CARTESIAN_POINT ( 'NONE',  ( -7.947935326980629434, 6.972068310841896377, -15.15000000000000391 ) ) ;
#627 = ORIENTED_EDGE ( 'NONE', *, *, #653, .T. ) ;
#628 = DIRECTION ( 'NONE',  ( -0.4968397262372760692, 6.084531804257273513E-17, 0.8678423165716618870 ) ) ;
#629 = CARTESIAN_POINT ( 'NONE',  ( 9.098890073330649031, -2.591699778419198603E-16, -15.15000000000000391 ) ) ;
#630 = CARTESIAN_POINT ( 'NONE',  ( -8.406278307320320664, -3.481994483974793830, -15.15000000000000568 ) ) ;
#631 = CARTESIAN_POINT ( 'NONE',  ( 0.000000000000000000, 0.000000000000000000, -7.449999999999998401 ) ) ;
#632 =( BOUNDED_SURFACE ( )  B_SPLINE_SURFACE ( 2, 3, ( 
 ( #1000, #503, #448, #516 ),
 ( #99, #612, #527, #688 ),
 ( #273, #682, #18, #25 ) ),
 .UNSPECIFIED., .F., .F., .F. ) 
 B_SPLINE_SURFACE_WITH_KNOTS ( ( 3, 3 ),
 ( 4, 4 ),
 ( 0.000000000000000000, 1.000000000000000000 ),
 ( 0.000000000000000000, 1.000000000000000000 ),
 .UNSPECIFIED. ) 
 GEOMETRIC_REPRESENTATION_ITEM ( )  RATIONAL_B_SPLINE_SURFACE ( (
 ( 1.000000000000000000, 0.3333333333333334259, 0.3333333333333334259, 1.000000000000000000),
 ( 1.000000000000000000, 0.3333333333333334259, 0.3333333333333334259, 1.000000000000000000),
 ( 1.000000000000000000, 0.3333333333333334259, 0.3333333333333334259, 1.000000000000000000) ) ) 
 REPRESENTATION_ITEM ( '' )  SURFACE ( )  );
#633 = DIRECTION ( 'NONE',  ( 0.4968397262372764578, 6.084531804257279676E-17, -0.8678423165716617760 ) ) ;
#634 = ORIENTED_EDGE ( 'NONE', *, *, #665, .T. ) ;
#635 = EDGE_CURVE ( 'NONE', #843, #897, #687, .T. ) ;
#636 = FACE_OUTER_BOUND ( 'NONE', #491, .T. ) ;
#637 = CARTESIAN_POINT ( 'NONE',  ( -9.709009742330268367, 1.301042606982605321E-15, -15.14999999999999858 ) ) ;
#638 = LINE ( 'NONE', #790, #1023 ) ;
#639 = AXIS2_PLACEMENT_3D ( 'NONE', #24, #999, #346 ) ;
#640 = DIRECTION ( 'NONE',  ( -1.000000000000000000, 0.000000000000000000, 0.000000000000000000 ) ) ;
#641 = CARTESIAN_POINT ( 'NONE',  ( -5.089104889274965515, -5.089104889274991272, -14.79154040081957788 ) ) ;
#642 = CARTESIAN_POINT ( 'NONE',  ( -10.21103144495414661, 2.739533527387896683, -15.15000000000000036 ) ) ;
#643 = LINE ( 'NONE', #60, #578 ) ;
#644 = CARTESIAN_POINT ( 'NONE',  ( 5.089104889274983279, 5.089104889274983279, -14.79154040081958676 ) ) ;
#645 = DIRECTION ( 'NONE',  ( 1.000000000000000000, 0.000000000000000000, 0.000000000000000000 ) ) ;
#646 = CARTESIAN_POINT ( 'NONE',  ( 6.057028237014332461, -12.11405647402866137, 24.10674524897901350 ) ) ;
#647 = CARTESIAN_POINT ( 'NONE',  ( -5.549999999999998934, 0.7263955392177404713, -11.83198051533946327 ) ) ;
#648 = PRODUCT_DEFINITION_SHAPE ( 'NONE', 'NONE',  #1042 ) ;
#649 = DIRECTION ( 'NONE',  ( -1.000000000000000000, 0.000000000000000000, 0.000000000000000000 ) ) ;
#650 = CARTESIAN_POINT ( 'NONE',  ( 3.013393406861504681E-15, 9.098890073330649031, -15.15000000000000568 ) ) ;
#651 = COORDINATED_UNIVERSAL_TIME_OFFSET ( 8, 0, .BEHIND. ) ;
#652 = DIRECTION ( 'NONE',  ( 0.000000000000000000, 0.000000000000000000, -1.000000000000000000 ) ) ;
#653 = EDGE_CURVE ( 'NONE', #912, #122, #257, .T. ) ;
#654 = CARTESIAN_POINT ( 'NONE',  ( -2.319934430536698233, 5.600817166017995952, -13.68553390593274521 ) ) ;
#655 = APPROVAL_STATUS ( 'not_yet_approved' ) ;
#656 = FACE_OUTER_BOUND ( 'NONE', #828, .T. ) ;
#657 = EDGE_CURVE ( 'NONE', #541, #680, #568, .T. ) ;
#658 = CARTESIAN_POINT ( 'NONE',  ( 1.134080684930282243E-14, -5.694489056359827828, -11.83198051533946504 ) ) ;
#659 = CALENDAR_DATE ( 2026, 30, 5 ) ;
#660 = CARTESIAN_POINT ( 'NONE',  ( -5.261021887280351805, 2.179186617653235292, -11.83198051533947037 ) ) ;
#661 = CYLINDRICAL_SURFACE ( 'NONE', #802, 12.69999999999999929 ) ;
#662 = CARTESIAN_POINT ( 'NONE',  ( 7.197081154751908905, 5.252179619305603168E-16, -14.79154040081958499 ) ) ;
#663 = DIRECTION ( 'NONE',  ( -0.000000000000000000, -0.000000000000000000, -1.000000000000000000 ) ) ;
#664 = CIRCLE ( 'NONE', #710, 5.549999999999999822 ) ;
#665 = EDGE_CURVE ( 'NONE', #610, #320, #119, .T. ) ;
#666 = CARTESIAN_POINT ( 'NONE',  ( 10.00068124519057911, 4.142417804728189878, -15.15000000000000036 ) ) ;
#667 = CARTESIAN_POINT ( 'NONE',  ( 3.198690894693573838E-15, 7.197081154751905352, -14.79154040081958321 ) ) ;
#668 = DIRECTION ( 'NONE',  ( 0.4968397262372760692, 0.000000000000000000, 0.8678423165716618870 ) ) ;
#669 = AXIS2_PLACEMENT_3D ( 'NONE', #415, #979, #585 ) ;
#670 = ORIENTED_EDGE ( 'NONE', *, *, #996, .T. ) ;
#671 = CARTESIAN_POINT ( 'NONE',  ( 3.198690894693573838E-15, 7.197081154751905352, -14.79154040081958321 ) ) ;
#672 = ORIENTED_EDGE ( 'NONE', *, *, #743, .T. ) ;
#673 = EDGE_CURVE ( 'NONE', #560, #605, #88, .T. ) ;
#674 = CARTESIAN_POINT ( 'NONE',  ( 6.649235972697978170, -2.754203719310560849, -14.79154040081958854 ) ) ;
#675 = DIRECTION ( 'NONE',  ( -1.000000000000000000, 0.000000000000000000, 0.000000000000000000 ) ) ;
#676 = VERTEX_POINT ( 'NONE', #424 ) ;
#677 = CARTESIAN_POINT ( 'NONE',  ( -4.026611827144619404, 4.026611827144606970, -10.99099025766972382 ) ) ;
#678 = DIRECTION ( 'NONE',  ( -0.000000000000000000, -0.000000000000000000, -1.000000000000000000 ) ) ;
#679 = FACE_OUTER_BOUND ( 'NONE', #422, .T. ) ;
#680 = VERTEX_POINT ( 'NONE', #195 ) ;
#681 = CARTESIAN_POINT ( 'NONE',  ( 4.026611827144616740, 4.026611827144614963, -11.83198051533946682 ) ) ;
#682 = CARTESIAN_POINT ( 'NONE',  ( -12.00000000000000533, 23.99999999999999289, 25.45000000000000284 ) ) ;
#683 = CIRCLE ( 'NONE', #761, 14.99000000000000021 ) ;
#684 = CARTESIAN_POINT ( 'NONE',  ( 6.438439045295662133, 8.385490753304623013, -15.14999999999999858 ) ) ;
#685 = EDGE_LOOP ( 'NONE', ( #131, #634, #42, #157 ) ) ;
#686 = CARTESIAN_POINT ( 'NONE',  ( -5.549999999999998934, 7.589415207398531038E-16, -10.99099025766973092 ) ) ;
#687 = CIRCLE ( 'NONE', #550, 2.475000000000000089 ) ;
#688 = CARTESIAN_POINT ( 'NONE',  ( 6.057028237014331573, 1.483544048560947417E-15, 24.10674524897901350 ) ) ;
#689 = CARTESIAN_POINT ( 'NONE',  ( 9.482894382805257649, 4.674839742440841661, -15.15000000000000036 ) ) ;
#690 = ORIENTED_EDGE ( 'NONE', *, *, #350, .F. ) ;
#691 = CARTESIAN_POINT ( 'NONE',  ( 0.000000000000000000, 0.000000000000000000, 25.44999999999999574 ) ) ;
#692 = CARTESIAN_POINT ( 'NONE',  ( 5.089104889274987720, -5.089104889274976173, -14.79154040081957966 ) ) ;
#693 = CARTESIAN_POINT ( 'NONE',  ( -10.55000000000000071, 1.517883041479706208E-15, -15.14999999999999858 ) ) ;
#694 = FACE_OUTER_BOUND ( 'NONE', #137, .T. ) ;
#695 = CARTESIAN_POINT ( 'NONE',  ( 5.261021887280351805, 2.179186617653218416, -10.99099025766973270 ) ) ;
#696 = CARTESIAN_POINT ( 'NONE',  ( -7.654190049797429118, 7.654190049797406026, -15.14999999999998970 ) ) ;
#697 = CARTESIAN_POINT ( 'NONE',  ( -4.026611827144619404, 4.026611827144606970, -10.14999999999999325 ) ) ;
#698 = CARTESIAN_POINT ( 'NONE',  ( -9.482828329793569822, 4.674812382380611808, -15.15000000000000036 ) ) ;
#699 = CARTESIAN_POINT ( 'NONE',  ( -7.044038460960252657, 7.044038460960229564, -15.14999999999998970 ) ) ;
#700 = CARTESIAN_POINT ( 'NONE',  ( 10.21106722996752403, -2.739353671727759565, -15.15000000000000036 ) ) ;
#701 = ADVANCED_FACE ( 'NONE', ( #752 ), #124, .T. ) ;
#702 = FACE_OUTER_BOUND ( 'NONE', #918, .T. ) ;
#703 = CARTESIAN_POINT ( 'NONE',  ( 0.000000000000000000, 0.000000000000000000, 23.75000000000000355 ) ) ;
#704 = CARTESIAN_POINT ( 'NONE',  ( 3.481994483974812926, -8.406278307320311782, -15.14999999999999858 ) ) ;
#705 = CARTESIAN_POINT ( 'NONE',  ( -9.709009742330271919, -1.270735381450500467, -15.14999999999999858 ) ) ;
#706 = CARTESIAN_POINT ( 'NONE',  ( 0.000000000000000000, 0.000000000000000000, -11.44999999999999751 ) ) ;
#707 = EDGE_LOOP ( 'NONE', ( #998, #817 ) ) ;
#708 = DIRECTION ( 'NONE',  ( -1.000000000000000000, 0.000000000000000000, 0.000000000000000000 ) ) ;
#709 = CARTESIAN_POINT ( 'NONE',  ( 7.654190049797431783, -7.654190049797415796, -15.15000000000000391 ) ) ;
#710 = AXIS2_PLACEMENT_3D ( 'NONE', #840, #769, #44 ) ;
#711 = DIRECTION ( 'NONE',  ( -0.000000000000000000, -0.000000000000000000, -1.000000000000000000 ) ) ;
#712 = AXIS2_PLACEMENT_3D ( 'NONE', #434, #663, #994 ) ;
#713 = CARTESIAN_POINT ( 'NONE',  ( 5.550000000000000711, -1.626303258728256651E-16, -10.99099025766973270 ) ) ;
#714 = CARTESIAN_POINT ( 'NONE',  ( 5.261021887280351805, -2.179186617653217084, -11.83198051533946327 ) ) ;
#715 = AXIS2_PLACEMENT_3D ( 'NONE', #384, #67, #310 ) ;
#716 = DIRECTION ( 'NONE',  ( -1.000000000000000000, 0.000000000000000000, 0.000000000000000000 ) ) ;
#717 = CARTESIAN_POINT ( 'NONE',  ( 7.197081154751908905, 5.252179619305603168E-16, -14.79154040081958499 ) ) ;
#718 = CARTESIAN_POINT ( 'NONE',  ( -9.709009742330268367, 1.301042606982605321E-15, -15.14999999999999858 ) ) ;
#719 = DATE_AND_TIME ( #659, #474 ) ;
#720 = DIRECTION ( 'NONE',  ( -0.000000000000000000, -0.000000000000000000, -1.000000000000000000 ) ) ;
#721 = AXIS2_PLACEMENT_3D ( 'NONE', #246, #893, #645 ) ;
#722 = CARTESIAN_POINT ( 'NONE',  ( -2.754203719310563958, 6.649235972697983499, -14.79154040081958499 ) ) ;
#723 = SHAPE_DEFINITION_REPRESENTATION ( #648, #328 ) ;
#724 = PERSON_AND_ORGANIZATION ( #39, #933 ) ;
#725 = FACE_OUTER_BOUND ( 'NONE', #826, .T. ) ;
#726 = CARTESIAN_POINT ( 'NONE',  ( 4.286679874282167901, -4.286679874282161684, -13.68553390593274344 ) ) ;
#727 = CALENDAR_DATE ( 2026, 30, 5 ) ;
#728 = AXIS2_PLACEMENT_3D ( 'NONE', #63, #52, #1027 ) ;
#729 = PERSON_AND_ORGANIZATION ( #39, #933 ) ;
#730 = EDGE_CURVE ( 'NONE', #610, #64, #47, .T. ) ;
#731 = CARTESIAN_POINT ( 'NONE',  ( 14.99000000000000021, 0.000000000000000000, 25.44999999999999929 ) ) ;
#732 = ORIENTED_EDGE ( 'NONE', *, *, #544, .T. ) ;
#733 = CARTESIAN_POINT ( 'NONE',  ( -2.179186617653235736, -5.261021887280344700, -11.83198051533946860 ) ) ;
#734 = PERSON_AND_ORGANIZATION ( #39, #933 ) ;
#735 = CARTESIAN_POINT ( 'NONE',  ( 2.179186617653215308, 5.261021887280355358, -10.99099025766973092 ) ) ;
#736 = LINE ( 'NONE', #82, #388 ) ;
#737 = CARTESIAN_POINT ( 'NONE',  ( 5.089104889274987720, -5.089104889274976173, -14.79154040081957966 ) ) ;
#738 = CARTESIAN_POINT ( 'NONE',  ( 7.654190049797431783, -7.654190049797415796, -15.15000000000000391 ) ) ;
#739 = CARTESIAN_POINT ( 'NONE',  ( -5.600817166017995952, 2.319934430536716441, -13.68553390593274166 ) ) ;
#740 = CARTESIAN_POINT ( 'NONE',  ( 0.000000000000000000, 0.000000000000000000, 9.850000000000003197 ) ) ;
#741 = ORIENTED_EDGE ( 'NONE', *, *, #673, .T. ) ;
#742 = CARTESIAN_POINT ( 'NONE',  ( -8.868019484660532470, 1.160664827991607195, -15.14999999999999858 ) ) ;
#743 = EDGE_CURVE ( 'NONE', #610, #594, #768, .T. ) ;
#744 = ORIENTED_EDGE ( 'NONE', *, *, #776, .T. ) ;
#745 = CARTESIAN_POINT ( 'NONE',  ( 4.026611827144621181, -4.026611827144613187, -10.99099025766973448 ) ) ;
#746 = CARTESIAN_POINT ( 'NONE',  ( 9.157330438816218887, 5.283299324107318284, -15.15000000000000036 ) ) ;
#747 = VECTOR ( 'NONE', #633, 999.9999999999998863 ) ;
#748 = ORIENTED_EDGE ( 'NONE', *, *, #324, .F. ) ;
#749 = CARTESIAN_POINT ( 'NONE',  ( -14.99000000000000021, 0.000000000000000000, -11.44999999999999751 ) ) ;
#750 = ORIENTED_EDGE ( 'NONE', *, *, #562, .T. ) ;
#751 = CARTESIAN_POINT ( 'NONE',  ( 4.026611827144616740, 4.026611827144614963, -10.15000000000000036 ) ) ;
#752 = FACE_OUTER_BOUND ( 'NONE', #909, .T. ) ;
#753 = ORIENTED_EDGE ( 'NONE', *, *, #814, .T. ) ;
#754 = CARTESIAN_POINT ( 'NONE',  ( -2.179186617653218860, 5.261021887280353582, -10.14999999999999858 ) ) ;
#755 = CARTESIAN_POINT ( 'NONE',  ( 2.475000000000000089, 3.031000827889699256E-16, 4.550000000000001599 ) ) ;
#756 = APPROVAL_PERSON_ORGANIZATION ( #900, #878, #977 ) ;
#757 = CARTESIAN_POINT ( 'NONE',  ( -2.179186617653218860, 5.261021887280353582, -10.14999999999999858 ) ) ;
#758 = LINE ( 'NONE', #41, #159 ) ;
#759 = CC_DESIGN_PERSON_AND_ORGANIZATION_ASSIGNMENT ( #724, #323, ( #913 ) ) ;
#760 = ORIENTED_EDGE ( 'NONE', *, *, #1030, .F. ) ;
#761 = AXIS2_PLACEMENT_3D ( 'NONE', #691, #936, #925 ) ;
#762 = DIRECTION ( 'NONE',  ( -0.000000000000000000, -0.000000000000000000, -1.000000000000000000 ) ) ;
#763 = CARTESIAN_POINT ( 'NONE',  ( 10.00068124519058266, -4.142417804728188102, -15.14999999999999858 ) ) ;
#764 = EDGE_CURVE ( 'NONE', #594, #610, #395, .T. ) ;
#765 = DIRECTION ( 'NONE',  ( 0.000000000000000000, 0.000000000000000000, -1.000000000000000000 ) ) ;
#766 = ORIENTED_EDGE ( 'NONE', *, *, #635, .F. ) ;
#767 = CARTESIAN_POINT ( 'NONE',  ( 4.026611827144616740, 4.026611827144614963, -10.99099025766973448 ) ) ;
#768 = CIRCLE ( 'NONE', #361, 12.69999999999999929 ) ;
#769 = DIRECTION ( 'NONE',  ( 0.000000000000000000, 0.000000000000000000, -1.000000000000000000 ) ) ;
#770 = CARTESIAN_POINT ( 'NONE',  ( 9.482828329791413324, -4.674812382391991150, -15.14999999999999858 ) ) ;
#771 = CARTESIAN_POINT ( 'NONE',  ( 4.026611827144621181, -4.026611827144613187, -10.15000000000000213 ) ) ;
#772 = CARTESIAN_POINT ( 'NONE',  ( -5.549999999999998934, 7.589415207398531038E-16, -10.99099025766973092 ) ) ;
#773 = CARTESIAN_POINT ( 'NONE',  ( -5.549999999999998934, 0.7263955392177404713, -10.99099025766973092 ) ) ;
#774 = CARTESIAN_POINT ( 'NONE',  ( 9.203479776255441891, 3.812206144351502957, -15.15000000000000036 ) ) ;
#775 = CARTESIAN_POINT ( 'NONE',  ( -6.438439045292737362, -8.385490753304731371, -15.15000000000000036 ) ) ;
#776 = EDGE_CURVE ( 'NONE', #266, #541, #189, .T. ) ;
#777 = APPROVAL_PERSON_ORGANIZATION ( #729, #274, #317 ) ;
#778 = CARTESIAN_POINT ( 'NONE',  ( -5.261021887280350917, 2.179186617653235292, -10.99099025766973448 ) ) ;
#779 = CARTESIAN_POINT ( 'NONE',  ( -6.438478255032102027, 8.385549434800605439, -15.14999999999999858 ) ) ;
#780 =( BOUNDED_SURFACE ( )  B_SPLINE_SURFACE ( 2, 3, ( 
 ( #1029, #950, #959, #703 ),
 ( #954, #646, #791, #228 ),
 ( #214, #72, #881, #231 ) ),
 .UNSPECIFIED., .F., .F., .T. ) 
 B_SPLINE_SURFACE_WITH_KNOTS ( ( 3, 3 ),
 ( 4, 4 ),
 ( 0.000000000000000000, 1.000000000000000000 ),
 ( 0.000000000000000000, 1.000000000000000000 ),
 .UNSPECIFIED. ) 
 GEOMETRIC_REPRESENTATION_ITEM ( )  RATIONAL_B_SPLINE_SURFACE ( (
 ( 1.000000000000000000, 0.3333333333333334259, 0.3333333333333334259, 1.000000000000000000),
 ( 1.000000000000000000, 0.3333333333333334259, 0.3333333333333334259, 1.000000000000000000),
 ( 1.000000000000000000, 0.3333333333333334259, 0.3333333333333334259, 1.000000000000000000) ) ) 
 REPRESENTATION_ITEM ( '' )  SURFACE ( )  );
#781 = DIRECTION ( 'NONE',  ( -0.000000000000000000, -0.000000000000000000, -1.000000000000000000 ) ) ;
#782 = CARTESIAN_POINT ( 'NONE',  ( -10.55000000000000071, 1.517883041479706208E-15, -15.14999999999999858 ) ) ;
#783 = ADVANCED_FACE ( 'NONE', ( #679 ), #344, .T. ) ;
#784 = CARTESIAN_POINT ( 'NONE',  ( -5.283338533843923379, -9.157389120314316955, -15.14999999999999858 ) ) ;
#785 = DIRECTION ( 'NONE',  ( -1.000000000000000000, 0.000000000000000000, 0.000000000000000000 ) ) ;
#786 = ORIENTED_EDGE ( 'NONE', *, *, #291, .F. ) ;
#787 = DIRECTION ( 'NONE',  ( -0.000000000000000000, -0.000000000000000000, -1.000000000000000000 ) ) ;
#788 = CARTESIAN_POINT ( 'NONE',  ( 3.901793612146400577E-15, 9.961774725367678940, -15.15000000000000568 ) ) ;
#789 = APPROVAL_STATUS ( 'not_yet_approved' ) ;
#790 = CARTESIAN_POINT ( 'NONE',  ( -12.69999999999999929, 0.000000000000000000, -30.52475137813475214 ) ) ;
#791 = CARTESIAN_POINT ( 'NONE',  ( -6.057028237014330685, -12.11405647402866137, 24.10674524897901350 ) ) ;
#792 = CARTESIAN_POINT ( 'NONE',  ( 10.00068124519058266, -4.142417804728188102, -15.14999999999999858 ) ) ;
#793 = UNCERTAINTY_MEASURE_WITH_UNIT (LENGTH_MEASURE( 1.000000000000000082E-05 ), #972, 'distance_accuracy_value', 'NONE');
#794 = DIRECTION ( 'NONE',  ( -0.000000000000000000, -0.000000000000000000, -1.000000000000000000 ) ) ;
#795 =( GEOMETRIC_REPRESENTATION_CONTEXT ( 3 ) GLOBAL_UNCERTAINTY_ASSIGNED_CONTEXT ( ( #793 ) ) GLOBAL_UNIT_ASSIGNED_CONTEXT ( ( #972, #1043, #175 ) ) REPRESENTATION_CONTEXT ( 'NONE', 'WORKASPACE' ) );
#796 = CARTESIAN_POINT ( 'NONE',  ( 7.014466094067265622, -5.421010862427522170E-17, -14.79154040081958499 ) ) ;
#797 = CARTESIAN_POINT ( 'NONE',  ( -8.868019484660536023, 1.301042606982605321E-15, -15.14999999999999858 ) ) ;
#798 = CARTESIAN_POINT ( 'NONE',  ( -10.54999999999999893, 0.6905838946196761752, -15.14999999999999503 ) ) ;
#799 = CARTESIAN_POINT ( 'NONE',  ( 5.550000000000002487, -0.7264933011426388809, -10.14999999999999858 ) ) ;
#800 = CARTESIAN_POINT ( 'NONE',  ( -5.908459599180415189, 7.589415207398531038E-16, -13.68553390593273811 ) ) ;
#801 = CARTESIAN_POINT ( 'NONE',  ( 3.812206144351497183, 9.203479776255447220, -15.14999999999999325 ) ) ;
#802 = AXIS2_PLACEMENT_3D ( 'NONE', #419, #330, #974 ) ;
#803 = COORDINATED_UNIVERSAL_TIME_OFFSET ( 8, 0, .BEHIND. ) ;
#804 = CARTESIAN_POINT ( 'NONE',  ( -1.452700758194005237, -5.405548355509150582, -10.14999999999999680 ) ) ;
#805 = CARTESIAN_POINT ( 'NONE',  ( 5.694489056359824275, -4.443867601347024375E-16, -10.99099025766973270 ) ) ;
#806 = ORIENTED_EDGE ( 'NONE', *, *, #891, .T. ) ;
#807 = B_SPLINE_SURFACE_WITH_KNOTS ( 'NONE', 5, 3, ( 
 ( #693, #417, #336, #528, #37, #853, #123, #738, #763, #449, #666, #259, #1013, #591, #286, #360, #619, #565, #158 ),
 ( #233, #705, #303, #558, #965, #886, #153, #479, #1025, #296, #566, #222, #801, #379, #74, #872, #464, #398, #718 ),
 ( #888, #55, #630, #588, #497, #492, #89, #186, #827, #78, #4, #808, #331, #650, #248, #822, #502, #742, #17 ),
 ( #340, #93, #416, #904, #421, #908, #173, #737, #406, #662, #402, #241, #178, #671, #722, #98, #813, #988, #8 ),
 ( #263, #892, #1049, #322, #83, #12, #595, #726, #914, #575, #971, #973, #571, #327, #654, #163, #245, #898, #168 ),
 ( #494, #818, #411, #580, #733, #658, #976, #334, #981, #255, #623, #681, #358, #267, #1011, #279, #114, #839, #531 ),
 ( #371, #919, #35, #197, #931, #1005, #606, #833, #288, #433, #695, #767, #121, #857, #611, #677, #103, #773, #686 ),
 ( #454, #48, #191, #1017, #204, #526, #851, #126, #284, #447, #520, #43, #109, #602, #754, #426, #941, #514, #30 ) ),
 .UNSPECIFIED., .F., .T., .F.,
 ( 6, 2, 6 ),
 ( 4, 1, 1, 1, 1, 1, 1, 1, 1, 1, 1, 1, 1, 1, 1, 1, 4 ),
 ( 0.000000000000000000, 0.5000000000000000000, 1.000000000000000000 ),
 ( -3.141592653589793116, -2.748893571891068976, -2.356194490192345281, -1.963495408493620475, -1.570796326794896558, -1.178097245096172418, -0.7853981633974482790, -0.3926990816987241395, 0.000000000000000000, 0.3926990816987241395, 0.7853981633974482790, 1.178097245096172418, 1.570796326794896558, 1.963495408493620475, 2.356194490192344393, 2.748893571891068976, 3.141592653589793116 ),
 .UNSPECIFIED. ) ;
#808 = CARTESIAN_POINT ( 'NONE',  ( 6.433886872123069978, 6.433886872123065537, -15.15000000000000568 ) ) ;
#809 = ADVANCED_FACE ( 'NONE', ( #32 ), #342, .T. ) ;
#810 = DIRECTION ( 'NONE',  ( -0.4968397262372764578, 0.000000000000000000, -0.8678423165716617760 ) ) ;
#811 = CARTESIAN_POINT ( 'NONE',  ( 12.00000000000000000, 0.000000000000000000, 25.44999999999999574 ) ) ;
#812 = VERTEX_POINT ( 'NONE', #935 ) ;
#813 = CARTESIAN_POINT ( 'NONE',  ( -6.649235972697976393, 2.754203719310585274, -14.79154040081958676 ) ) ;
#814 = EDGE_CURVE ( 'NONE', #843, #912, #758, .T. ) ;
#815 = CARTESIAN_POINT ( 'NONE',  ( 4.438150975309901547, -3.410734295860778253, -10.15000000000000036 ) ) ;
#816 = AXIS2_PLACEMENT_3D ( 'NONE', #382, #542, #708 ) ;
#817 = ORIENTED_EDGE ( 'NONE', *, *, #969, .F. ) ;
#818 = CARTESIAN_POINT ( 'NONE',  ( -5.550000000000000711, -0.7263955392177389170, -11.83198051533946504 ) ) ;
#819 = VECTOR ( 'NONE', #668, 1000.000000000000000 ) ;
#820 = COORDINATED_UNIVERSAL_TIME_OFFSET ( 8, 0, .BEHIND. ) ;
#821 = DIRECTION ( 'NONE',  ( -1.000000000000000000, 0.000000000000000000, 0.000000000000000000 ) ) ;
#822 = CARTESIAN_POINT ( 'NONE',  ( -6.433886872123076195, 6.433886872123053102, -15.14999999999998970 ) ) ;
#823 = CARTESIAN_POINT ( 'NONE',  ( 14.99000000000000021, 1.835745551921882411E-15, -11.44999999999999751 ) ) ;
#824 = CARTESIAN_POINT ( 'NONE',  ( 6.062280815761628361, -7.857151343266617238E-16, -13.68553390593274166 ) ) ;
#825 = CARTESIAN_POINT ( 'NONE',  ( -5.549999999999999822, 0.000000000000000000, 4.550000000000001599 ) ) ;
#826 = EDGE_LOOP ( 'NONE', ( #11, #147, #519, #1006 ) ) ;
#827 = CARTESIAN_POINT ( 'NONE',  ( 8.406278307320311782, -3.481994483974815591, -15.14999999999999858 ) ) ;
#828 = EDGE_LOOP ( 'NONE', ( #23, #786 ) ) ;
#829 = CARTESIAN_POINT ( 'NONE',  ( -1.376787234674906157, -10.48217050397857442, -15.15000000000000213 ) ) ;
#830 = CARTESIAN_POINT ( 'NONE',  ( 2.319934430536693792, -5.600817166017992399, -13.68553390593273633 ) ) ;
#831 = CARTESIAN_POINT ( 'NONE',  ( 12.69999999999999929, 1.555301434917138433E-15, -30.52475137813475214 ) ) ;
#832 = ORIENTED_EDGE ( 'NONE', *, *, #487, .F. ) ;
#833 = CARTESIAN_POINT ( 'NONE',  ( 4.026611827144621181, -4.026611827144613187, -10.99099025766973448 ) ) ;
#834 = DIRECTION ( 'NONE',  ( 0.000000000000000000, 0.000000000000000000, -1.000000000000000000 ) ) ;
#835 = CARTESIAN_POINT ( 'NONE',  ( -5.549999999999998934, 7.589415207398531038E-16, -10.14999999999999858 ) ) ;
#836 = CARTESIAN_POINT ( 'NONE',  ( 7.947884772191406988, 6.972017756057819149, -15.14999999999999858 ) ) ;
#837 = AXIS2_PLACEMENT_3D ( 'NONE', #381, #545, #230 ) ;
#838 = EDGE_LOOP ( 'NONE', ( #760, #345, #744, #501 ) ) ;
#839 = CARTESIAN_POINT ( 'NONE',  ( -5.549999999999998934, 0.7263955392177404713, -11.83198051533946327 ) ) ;
#840 = CARTESIAN_POINT ( 'NONE',  ( 0.000000000000000000, 0.000000000000000000, 4.550000000000001599 ) ) ;
#841 = EDGE_CURVE ( 'NONE', #812, #560, #193, .T. ) ;
#842 = CARTESIAN_POINT ( 'NONE',  ( 8.385549434802818780, 6.438478255029338015, -15.15000000000000213 ) ) ;
#843 = VERTEX_POINT ( 'NONE', #467 ) ;
#844 = CYLINDRICAL_SURFACE ( 'NONE', #170, 14.99000000000000021 ) ;
#845 = FACE_OUTER_BOUND ( 'NONE', #68, .T. ) ;
#846 = ADVANCED_FACE ( 'NONE', ( #702 ), #983, .T. ) ;
#847 = CARTESIAN_POINT ( 'NONE',  ( 2.179186617653215308, -5.261021887280347364, -10.14999999999999680 ) ) ;
#848 = CARTESIAN_POINT ( 'NONE',  ( 10.48210128441960087, 1.376773466066059548, -15.15000000000000036 ) ) ;
#849 = ORIENTED_EDGE ( 'NONE', *, *, #390, .T. ) ;
#850 = VECTOR ( 'NONE', #628, 1000.000000000000000 ) ;
#851 = CARTESIAN_POINT ( 'NONE',  ( 2.179186617653215308, -5.261021887280347364, -10.14999999999999680 ) ) ;
#852 = ORIENTED_EDGE ( 'NONE', *, *, #487, .T. ) ;
#853 = CARTESIAN_POINT ( 'NONE',  ( 2.149687523091911054E-14, -10.82465937740471595, -15.15000000000000391 ) ) ;
#854 = AXIS2_PLACEMENT_3D ( 'NONE', #865, #225, #547 ) ;
#855 = CARTESIAN_POINT ( 'NONE',  ( -5.550000000000000711, -0.7263955392177389170, -10.14999999999999680 ) ) ;
#856 = DIRECTION ( 'NONE',  ( 0.000000000000000000, 0.000000000000000000, 1.000000000000000000 ) ) ;
#857 = CARTESIAN_POINT ( 'NONE',  ( 2.190759918182479995E-15, 5.694489056359823387, -10.99099025766973448 ) ) ;
#858 = CC_DESIGN_PERSON_AND_ORGANIZATION_ASSIGNMENT ( #577, #561, ( #1042 ) ) ;
#859 = AXIS2_PLACEMENT_3D ( 'NONE', #184, #765, #986 ) ;
#860 = CARTESIAN_POINT ( 'NONE',  ( -9.203479776255457878, -3.812206144351477199, -15.15000000000000568 ) ) ;
#861 = CARTESIAN_POINT ( 'NONE',  ( 9.157389120320557296, -5.283338533831801520, -15.14999999999999858 ) ) ;
#862 = CARTESIAN_POINT ( 'NONE',  ( -4.026611827144619404, 4.026611827144606970, -10.99099025766972382 ) ) ;
#863 = CARTESIAN_POINT ( 'NONE',  ( 0.000000000000000000, 0.000000000000000000, -30.52475137813475214 ) ) ;
#864 = ADVANCED_FACE ( 'NONE', ( #694 ), #146, .F. ) ;
#865 = CARTESIAN_POINT ( 'NONE',  ( 0.000000000000000000, 0.000000000000000000, -30.52475137813475214 ) ) ;
#866 = CARTESIAN_POINT ( 'NONE',  ( 10.00068124519057911, 4.142417804728189878, -15.15000000000000036 ) ) ;
#867 = CARTESIAN_POINT ( 'NONE',  ( 4.674839742434506284, -9.482894382807996791, -15.15000000000000391 ) ) ;
#868 = CARTESIAN_POINT ( 'NONE',  ( 0.000000000000000000, 0.000000000000000000, 4.550000000000001599 ) ) ;
#869 = ORIENTED_EDGE ( 'NONE', *, *, #390, .F. ) ;
#870 = CARTESIAN_POINT ( 'NONE',  ( 12.69999999999999929, 1.555301434917138433E-15, -7.449999999999998401 ) ) ;
#871 = CARTESIAN_POINT ( 'NONE',  ( 4.142417804728182773, 10.00068124519058088, -15.14999999999999325 ) ) ;
#872 = CARTESIAN_POINT ( 'NONE',  ( -7.044038460960252657, 7.044038460960229564, -15.14999999999998970 ) ) ;
#873 = CIRCLE ( 'NONE', #71, 2.475000000000000089 ) ;
#874 = CARTESIAN_POINT ( 'NONE',  ( -14.99000000000000021, 0.000000000000000000, 11.44999999999999751 ) ) ;
#875 = EDGE_LOOP ( 'NONE', ( #162, #79 ) ) ;
#876 = CARTESIAN_POINT ( 'NONE',  ( 10.55000000000000071, -5.421010862427522170E-17, -15.15000000000000036 ) ) ;
#877 = CARTESIAN_POINT ( 'NONE',  ( -7.044038460960225123, -7.044038460960257098, -15.14999999999999325 ) ) ;
#878 = APPROVAL ( #655, 'UNSPECIFIED' ) ;
#879 = DIRECTION ( 'NONE',  ( -0.000000000000000000, -0.000000000000000000, -1.000000000000000000 ) ) ;
#880 = EDGE_LOOP ( 'NONE', ( #7, #410, #507, #16 ) ) ;
#881 = CARTESIAN_POINT ( 'NONE',  ( -11.99999999999999645, -23.99999999999999289, 25.45000000000000284 ) ) ;
#882 = CARTESIAN_POINT ( 'NONE',  ( 1.425362935778730093E-14, -7.197081154751909793, -14.79154040081958144 ) ) ;
#883 = DIRECTION ( 'NONE',  ( 0.000000000000000000, 0.000000000000000000, 1.000000000000000000 ) ) ;
#884 = CARTESIAN_POINT ( 'NONE',  ( 5.549999999999999822, 2.856293781391153173E-16, -10.14999999999999858 ) ) ;
#885 = CARTESIAN_POINT ( 'NONE',  ( -2.179186617653220193, 5.261021887280353582, -11.83198051533947037 ) ) ;
#886 = CARTESIAN_POINT ( 'NONE',  ( 1.940383727133956773E-14, -9.961774725367682493, -15.15000000000000391 ) ) ;
#887 = CARTESIAN_POINT ( 'NONE',  ( -2.319934430536715553, -5.600817166017989734, -13.68553390593274344 ) ) ;
#888 = CARTESIAN_POINT ( 'NONE',  ( -8.868019484660536023, 1.301042606982605321E-15, -15.14999999999999858 ) ) ;
#889 = PERSON_AND_ORGANIZATION ( #39, #933 ) ;
#890 = CARTESIAN_POINT ( 'NONE',  ( -5.549999999999998934, 3.523657060577889411E-16, -10.14999999999999858 ) ) ;
#891 = EDGE_CURVE ( 'NONE', #320, #105, #534, .T. ) ;
#892 = CARTESIAN_POINT ( 'NONE',  ( -5.908459599180416078, -0.7733114768455653376, -13.68553390593273811 ) ) ;
#893 = DIRECTION ( 'NONE',  ( 0.000000000000000000, 0.000000000000000000, 1.000000000000000000 ) ) ;
#894 = CARTESIAN_POINT ( 'NONE',  ( -5.405548355509152358, -1.452700758194008568, -10.14999999999999503 ) ) ;
#895 = APPLICATION_CONTEXT ( 'configuration controlled 3d designs of mechanical parts and assemblies' ) ;
#896 = LOCAL_TIME ( 15, 51, 33.00000000000000000, #803 ) ;
#897 = VERTEX_POINT ( 'NONE', #1015 ) ;
#898 = CARTESIAN_POINT ( 'NONE',  ( -5.908459599180415189, 0.7733114768455668919, -13.68553390593273811 ) ) ;
#899 = AXIS2_PLACEMENT_3D ( 'NONE', #476, #468, #148 ) ;
#900 = PERSON_AND_ORGANIZATION ( #39, #933 ) ;
#901 = LINE ( 'NONE', #825, #1001 ) ;
#902 = AXIS2_PLACEMENT_3D ( 'NONE', #132, #53, #65 ) ;
#903 = B_SPLINE_CURVE_WITH_KNOTS ( 'NONE', 3,
 ( #1008, #46, #200, #118, #276, #522, #368, #1014, #194, #27, #106, #211, #282, #348, #1002, #443, #430, #608 ),
 .UNSPECIFIED., .F., .F.,
 ( 4, 2, 2, 2, 2, 2, 2, 2, 4 ),
 ( 0.000000000000000000, 0.06250000000000000000, 0.1250000000000000000, 0.1875000000000000000, 0.2500000000000000000, 0.3125000000000000000, 0.3750000000000000000, 0.4375000000000000000, 0.5000000000000000000 ),
 .UNSPECIFIED. ) ;
#904 = CARTESIAN_POINT ( 'NONE',  ( -5.089104889274965515, -5.089104889274991272, -14.79154040081957788 ) ) ;
#905 = DATE_TIME_ROLE ( 'classification_date' ) ;
#906 = CARTESIAN_POINT ( 'NONE',  ( 1.134080684930282243E-14, -5.694489056359827828, -11.83198051533946504 ) ) ;
#907 = EDGE_LOOP ( 'NONE', ( #218, #401, #187 ) ) ;
#908 = CARTESIAN_POINT ( 'NONE',  ( 1.425362935778730093E-14, -7.197081154751909793, -14.79154040081958144 ) ) ;
#909 = EDGE_LOOP ( 'NONE', ( #982, #993, #87, #849 ) ) ;
#910 = CARTESIAN_POINT ( 'NONE',  ( -2.754203719310563958, 6.649235972697983499, -14.79154040081958499 ) ) ;
#911 = CARTESIAN_POINT ( 'NONE',  ( 0.000000000000000000, 0.000000000000000000, 11.44999999999999751 ) ) ;
#912 = VERTEX_POINT ( 'NONE', #130 ) ;
#913 = SECURITY_CLASSIFICATION ( '', '', #489 ) ;
#914 = CARTESIAN_POINT ( 'NONE',  ( 5.600817166017995063, -2.319934430536694236, -13.68553390593273456 ) ) ;
#915 = ORIENTED_EDGE ( 'NONE', *, *, #169, .T. ) ;
#916 = CARTESIAN_POINT ( 'NONE',  ( -4.286679874282164349, 4.286679874282151026, -13.68553390593272212 ) ) ;
#917 = CARTESIAN_POINT ( 'NONE',  ( 0.000000000000000000, 0.000000000000000000, 7.449999999999994849 ) ) ;
#918 = EDGE_LOOP ( 'NONE', ( #3, #806, #364, #432 ) ) ;
#919 = CARTESIAN_POINT ( 'NONE',  ( -5.550000000000000711, -0.7263955392177389170, -10.99099025766973092 ) ) ;
#920 = ORIENTED_EDGE ( 'NONE', *, *, #183, .F. ) ;
#921 = PRODUCT_RELATED_PRODUCT_CATEGORY ( 'detail', '', ( #966 ) ) ;
#922 = CARTESIAN_POINT ( 'NONE',  ( 5.694489056359824275, -4.443867601347024375E-16, -10.15000000000000213 ) ) ;
#923 = CARTESIAN_POINT ( 'NONE',  ( -7.014466094067262958, 9.215718466126787689E-16, -14.79154040081958321 ) ) ;
#924 = VERTEX_POINT ( 'NONE', #874 ) ;
#925 = DIRECTION ( 'NONE',  ( -1.000000000000000000, 0.000000000000000000, 0.000000000000000000 ) ) ;
#926 = ADVANCED_FACE ( 'NONE', ( #622 ), #471, .T. ) ;
#927 = CARTESIAN_POINT ( 'NONE',  ( 0.000000000000000000, 0.000000000000000000, -15.14999999999999858 ) ) ;
#928 = DIRECTION ( 'NONE',  ( -1.000000000000000000, 0.000000000000000000, 0.000000000000000000 ) ) ;
#929 = CARTESIAN_POINT ( 'NONE',  ( -3.399780680455433135, 10.01096375318729947, -15.15000000000000036 ) ) ;
#930 = ORIENTED_EDGE ( 'NONE', *, *, #582, .F. ) ;
#931 = CARTESIAN_POINT ( 'NONE',  ( -2.179186617653235736, -5.261021887280344700, -10.99099025766973270 ) ) ;
#932 = DIRECTION ( 'NONE',  ( -1.000000000000000000, 0.000000000000000000, 0.000000000000000000 ) ) ;
#933 = ORGANIZATION ( 'UNSPECIFIED', 'UNSPECIFIED', '' ) ;
#934 = CARTESIAN_POINT ( 'NONE',  ( -5.261021887280359799, -2.179186617653201985, -10.15000000000000213 ) ) ;
#935 = CARTESIAN_POINT ( 'NONE',  ( 10.55000000000000071, -5.421010862427522170E-17, -15.15000000000000036 ) ) ;
#936 = DIRECTION ( 'NONE',  ( -0.000000000000000000, -0.000000000000000000, -1.000000000000000000 ) ) ;
#937 = CARTESIAN_POINT ( 'NONE',  ( -8.868019484660536023, 1.301042606982605321E-15, -15.14999999999999858 ) ) ;
#938 = CIRCLE ( 'NONE', #581, 5.549999999999999822 ) ;
#939 = ADVANCED_FACE ( 'NONE', ( #389 ), #457, .T. ) ;
#940 = PLANE ( 'NONE',  #586 ) ;
#941 = CARTESIAN_POINT ( 'NONE',  ( -5.261021887280350917, 2.179186617653235292, -10.15000000000000746 ) ) ;
#942 = CARTESIAN_POINT ( 'NONE',  ( 3.481994483974810706, 8.406278307320313559, -15.14999999999999325 ) ) ;
#943 = CARTESIAN_POINT ( 'NONE',  ( 2.179186617653215308, 5.261021887280355358, -10.14999999999999680 ) ) ;
#944 = DIRECTION ( 'NONE',  ( -1.000000000000000000, 0.000000000000000000, 0.000000000000000000 ) ) ;
#945 = ORIENTED_EDGE ( 'NONE', *, *, #280, .T. ) ;
#946 = PLANE ( 'NONE',  #899 ) ;
#947 = CARTESIAN_POINT ( 'NONE',  ( 7.044038460960249104, 7.044038460960244663, -15.15000000000000568 ) ) ;
#948 = CARTESIAN_POINT ( 'NONE',  ( 10.01102980619674199, -3.399808040511398399, -15.15000000000000391 ) ) ;
#949 = DIRECTION ( 'NONE',  ( -0.000000000000000000, -0.000000000000000000, -1.000000000000000000 ) ) ;
#950 = CARTESIAN_POINT ( 'NONE',  ( 0.000000000000000000, 0.000000000000000000, 23.75000000000000355 ) ) ;
#951 = CARTESIAN_POINT ( 'NONE',  ( -7.014466094067262958, 9.215718466126787689E-16, -14.79154040081958321 ) ) ;
#952 = EDGE_CURVE ( 'NONE', #243, #266, #450, .T. ) ;
#953 = LINE ( 'NONE', #551, #292 ) ;
#954 = CARTESIAN_POINT ( 'NONE',  ( 6.057028237014331573, 0.000000000000000000, 24.10674524897901350 ) ) ;
#955 = CARTESIAN_POINT ( 'NONE',  ( 4.441580543129770720E-15, 10.82465937740471240, -15.15000000000000568 ) ) ;
#956 = AXIS2_PLACEMENT_3D ( 'NONE', #22, #506, #261 ) ;
#957 = ADVANCED_FACE ( 'NONE', ( #555, #227 ), #940, .F. ) ;
#958 = DIRECTION ( 'NONE',  ( -1.000000000000000000, 0.000000000000000000, 0.000000000000000000 ) ) ;
#959 = CARTESIAN_POINT ( 'NONE',  ( 0.000000000000000000, 0.000000000000000000, 23.75000000000000355 ) ) ;
#960 = CARTESIAN_POINT ( 'NONE',  ( 5.261021887280351805, -2.179186617653217084, -10.99099025766973448 ) ) ;
#961 = PERSON_AND_ORGANIZATION_ROLE ( 'design_owner' ) ;
#962 = ADVANCED_FACE ( 'NONE', ( #535 ), #217, .F. ) ;
#963 = CARTESIAN_POINT ( 'NONE',  ( -3.410734295860777809, -4.438150975309900659, -10.14999999999999858 ) ) ;
#964 = CARTESIAN_POINT ( 'NONE',  ( -5.600817166018000393, -2.319934430536679582, -13.68553390593274521 ) ) ;
#965 = CARTESIAN_POINT ( 'NONE',  ( -3.812206144351534043, -9.203479776255434786, -15.15000000000000213 ) ) ;
#966 = PRODUCT ( 'Captured Pulley V5', 'Captured Pulley V5', '', ( #394 ) ) ;
#967 = B_SPLINE_CURVE_WITH_KNOTS ( 'NONE', 5,
 ( #876, #143, #385, #796, #69, #391, #713, #884 ),
 .UNSPECIFIED., .F., .F.,
 ( 6, 2, 6 ),
 ( 0.000000000000000000, 0.5000000000000000000, 1.000000000000000000 ),
 .UNSPECIFIED. ) ;
#968 = APPROVAL_DATE_TIME ( #81, #878 ) ;
#969 = EDGE_CURVE ( 'NONE', #122, #912, #20, .T. ) ;
#970 = CARTESIAN_POINT ( 'NONE',  ( 0.000000000000000000, 0.000000000000000000, 11.44999999999999751 ) ) ;
#971 = CARTESIAN_POINT ( 'NONE',  ( 5.600817166017994175, 2.319934430536696901, -13.68553390593274344 ) ) ;
#972 =( LENGTH_UNIT ( ) NAMED_UNIT ( * ) SI_UNIT ( .MILLI., .METRE. ) );
#973 = CARTESIAN_POINT ( 'NONE',  ( 4.286679874282163460, 4.286679874282162572, -13.68553390593274166 ) ) ;
#974 = DIRECTION ( 'NONE',  ( -1.000000000000000000, 0.000000000000000000, 0.000000000000000000 ) ) ;
#975 = EDGE_LOOP ( 'NONE', ( #177, #486, #370, #987 ) ) ;
#976 = CARTESIAN_POINT ( 'NONE',  ( 2.179186617653215308, -5.261021887280347364, -11.83198051533946327 ) ) ;
#977 = APPROVAL_ROLE ( '' ) ;
#978 = CARTESIAN_POINT ( 'NONE',  ( 4.026611827144616740, 4.026611827144614963, -10.99099025766973448 ) ) ;
#979 = DIRECTION ( 'NONE',  ( -0.000000000000000000, -0.000000000000000000, -1.000000000000000000 ) ) ;
#980 = AXIS2_PLACEMENT_3D ( 'NONE', #731, #319, #649 ) ;
#981 = CARTESIAN_POINT ( 'NONE',  ( 5.261021887280351805, -2.179186617653217084, -11.83198051533946327 ) ) ;
#982 = ORIENTED_EDGE ( 'NONE', *, *, #470, .F. ) ;
#983 = CONICAL_SURFACE ( 'NONE', #837, 12.69999999999999929, 0.5199534337697294673 ) ;
#984 = CARTESIAN_POINT ( 'NONE',  ( 0.000000000000000000, 0.000000000000000000, 4.550000000000001599 ) ) ;
#985 = CARTESIAN_POINT ( 'NONE',  ( -4.026611827144605193, -4.026611827144623845, -10.99099025766972915 ) ) ;
#986 = DIRECTION ( 'NONE',  ( -1.000000000000000000, 0.000000000000000000, -0.000000000000000000 ) ) ;
#987 = ORIENTED_EDGE ( 'NONE', *, *, #776, .F. ) ;
#988 = CARTESIAN_POINT ( 'NONE',  ( -7.014466094067261182, 0.9180679064368552078, -14.79154040081958321 ) ) ;
#989 = EDGE_LOOP ( 'NONE', ( #205, #766, #753, #627 ) ) ;
#990 = CARTESIAN_POINT ( 'NONE',  ( -5.089104889274983279, 5.089104889274969068, -14.79154040081957611 ) ) ;
#991 = CARTESIAN_POINT ( 'NONE',  ( 10.55000000000000071, -5.421010862427522170E-17, -15.15000000000000036 ) ) ;
#992 = EDGE_CURVE ( 'NONE', #320, #243, #58, .T. ) ;
#993 = ORIENTED_EDGE ( 'NONE', *, *, #743, .F. ) ;
#994 = DIRECTION ( 'NONE',  ( -1.000000000000000000, 0.000000000000000000, 0.000000000000000000 ) ) ;
#995 = CARTESIAN_POINT ( 'NONE',  ( -10.54999999999999538, -0.6902219478583095924, -15.14999999999999680 ) ) ;
#996 = EDGE_CURVE ( 'NONE', #594, #105, #638, .T. ) ;
#997 = CARTESIAN_POINT ( 'NONE',  ( 10.55003574763266272, 0.6900421846363352651, -15.15000000000000213 ) ) ;
#998 = ORIENTED_EDGE ( 'NONE', *, *, #653, .F. ) ;
#999 = DIRECTION ( 'NONE',  ( -0.000000000000000000, -0.000000000000000000, -1.000000000000000000 ) ) ;
#1000 = CARTESIAN_POINT ( 'NONE',  ( 0.000000000000000000, 0.000000000000000000, 23.75000000000000355 ) ) ;
#1001 = VECTOR ( 'NONE', #96, 1000.000000000000000 ) ;
#1002 = CARTESIAN_POINT ( 'NONE',  ( 4.849514455366132459, 2.795085341058492379, -10.14999999999999858 ) ) ;
#1003 = CARTESIAN_POINT ( 'NONE',  ( 2.739353671733874229, 10.21106722996641381, -15.14999999999999858 ) ) ;
#1004 = ORIENTED_EDGE ( 'NONE', *, *, #169, .F. ) ;
#1005 = CARTESIAN_POINT ( 'NONE',  ( 1.134080684930282243E-14, -5.694489056359827828, -10.99099025766973448 ) ) ;
#1006 = ORIENTED_EDGE ( 'NONE', *, *, #814, .F. ) ;
#1007 = CARTESIAN_POINT ( 'NONE',  ( 6.438478255023175834, -8.385549434808426739, -15.15000000000000213 ) ) ;
#1008 = CARTESIAN_POINT ( 'NONE',  ( -5.549999999999998934, 3.523657060577889411E-16, -10.14999999999999858 ) ) ;
#1009 = CARTESIAN_POINT ( 'NONE',  ( 5.283338533840984397, 9.157389120314423536, -15.14999999999999858 ) ) ;
#1010 = B_SPLINE_CURVE_WITH_KNOTS ( 'NONE', 2,
 ( #617, #365, #352 ),
 .UNSPECIFIED., .F., .F.,
 ( 3, 3 ),
 ( 0.000000000000000000, 1.000000000000000000 ),
 .UNSPECIFIED. ) ;
#1011 = CARTESIAN_POINT ( 'NONE',  ( -2.179186617653220193, 5.261021887280353582, -11.83198051533947037 ) ) ;
#1012 = CARTESIAN_POINT ( 'NONE',  ( 4.142417804728185438, -10.00068124519057911, -15.14999999999999858 ) ) ;
#1013 = CARTESIAN_POINT ( 'NONE',  ( 4.142417804728182773, 10.00068124519058088, -15.14999999999999325 ) ) ;
#1014 = CARTESIAN_POINT ( 'NONE',  ( -1.452700758194005459, 5.405548355509152358, -10.14999999999999858 ) ) ;
#1015 = CARTESIAN_POINT ( 'NONE',  ( 2.475000000000000089, 3.031000827889699256E-16, 9.850000000000003197 ) ) ;
#1016 = ORIENTED_EDGE ( 'NONE', *, *, #562, .F. ) ;
#1017 = CARTESIAN_POINT ( 'NONE',  ( -4.026611827144605193, -4.026611827144623845, -10.14999999999999147 ) ) ;
#1018 = CARTESIAN_POINT ( 'NONE',  ( -10.00068124519059687, -4.142417804728159680, -15.15000000000000568 ) ) ;
#1019 = FACE_OUTER_BOUND ( 'NONE', #351, .T. ) ;
#1020 = CARTESIAN_POINT ( 'NONE',  ( -10.55000000000000071, 1.409462824231155764E-15, -15.14999999999999680 ) ) ;
#1021 = CARTESIAN_POINT ( 'NONE',  ( -10.48220628899083096, 1.376607379021192790, -15.15000000000000391 ) ) ;
#1022 = LINE ( 'NONE', #294, #850 ) ;
#1023 = VECTOR ( 'NONE', #949, 1000.000000000000000 ) ;
#1024 = CARTESIAN_POINT ( 'NONE',  ( 1.940383727133956773E-14, -9.961774725367682493, -15.15000000000000391 ) ) ;
#1025 = CARTESIAN_POINT ( 'NONE',  ( 9.203479776255445444, -3.812206144351502068, -15.14999999999999858 ) ) ;
#1026 = CARTESIAN_POINT ( 'NONE',  ( 0.6900421846526409997, -10.55003574763155072, -15.14999999999999858 ) ) ;
#1027 = DIRECTION ( 'NONE',  ( -1.000000000000000000, 0.000000000000000000, 0.000000000000000000 ) ) ;
#1028 = EDGE_LOOP ( 'NONE', ( #271, #262 ) ) ;
#1029 = CARTESIAN_POINT ( 'NONE',  ( 0.000000000000000000, 0.000000000000000000, 23.75000000000000355 ) ) ;
#1030 = EDGE_CURVE ( 'NONE', #243, #680, #953, .T. ) ;
#1031 = CARTESIAN_POINT ( 'NONE',  ( 8.406278307320311782, -3.481994483974815591, -15.14999999999999858 ) ) ;
#1032 = CC_DESIGN_APPROVAL ( #274, ( #1042 ) ) ;
#1033 = CARTESIAN_POINT ( 'NONE',  ( 12.69999999999999929, 1.555301434917138433E-15, -7.449999999999998401 ) ) ;
#1034 = EDGE_CURVE ( 'NONE', #105, #266, #75, .T. ) ;
#1035 = CARTESIAN_POINT ( 'NONE',  ( 5.549999999999999822, 2.856293781391153173E-16, -10.14999999999999858 ) ) ;
#1036 = VECTOR ( 'NONE', #353, 1000.000000000000000 ) ;
#1037 = CARTESIAN_POINT ( 'NONE',  ( 6.433886872123072642, -6.433886872123058431, -15.15000000000000391 ) ) ;
#1038 = AXIS2_PLACEMENT_3D ( 'NONE', #408, #720, #400 ) ;
#1039 = DIRECTION ( 'NONE',  ( -1.000000000000000000, 0.000000000000000000, 0.000000000000000000 ) ) ;
#1040 = FACE_OUTER_BOUND ( 'NONE', #838, .T. ) ;
#1041 = CARTESIAN_POINT ( 'NONE',  ( 4.026611827144621181, -4.026611827144613187, -11.83198051533946682 ) ) ;
#1042 = PRODUCT_DEFINITION ( 'UNKNOWN', '', #597, #145 ) ;
#1043 =( NAMED_UNIT ( * ) PLANE_ANGLE_UNIT ( ) SI_UNIT ( $, .RADIAN. ) );
#1044 = CARTESIAN_POINT ( 'NONE',  ( 0.000000000000000000, 0.000000000000000000, -30.52475137813475214 ) ) ;
#1045 = CARTESIAN_POINT ( 'NONE',  ( -5.549999999999999822, 7.589415207398531038E-16, -11.83198051533946504 ) ) ;
#1046 = ADVANCED_FACE ( 'NONE', ( #84 ), #142, .T. ) ;
#1047 = CALENDAR_DATE ( 2026, 30, 5 ) ;
#1048 = CARTESIAN_POINT ( 'NONE',  ( 3.410734295860779142, -4.438150975309901547, -10.15000000000000213 ) ) ;
#1049 = CARTESIAN_POINT ( 'NONE',  ( -5.600817166018000393, -2.319934430536679582, -13.68553390593274521 ) ) ;
ENDSEC;
END-ISO-10303-21;
