ISO-10303-21;
HEADER;
FILE_DESCRIPTION (( 'STEP AP203' ),
    '1' );
FILE_NAME ('EDM Driver Pulley V3 or V4.STEP',
    '2026-05-30T22:54:48',
    ( '' ),
    ( '' ),
    'SwSTEP 2.0',
    'SolidWorks 2024',
    '' );
FILE_SCHEMA (( 'CONFIG_CONTROL_DESIGN' ));
ENDSEC;

DATA;
#1 = CARTESIAN_POINT ( 'NONE',  ( 0.000000000000000000, 0.000000000000000000, 45.00000000000000000 ) ) ;
#2 = CARTESIAN_POINT ( 'NONE',  ( -26.49999999999999645, 0.000000000000000000, 46.00000000000000000 ) ) ;
#3 = AXIS2_PLACEMENT_3D ( 'NONE', #456, #585, #267 ) ;
#4 = CARTESIAN_POINT ( 'NONE',  ( 0.000000000000000000, 0.000000000000000000, 43.00000000000000000 ) ) ;
#5 = AXIS2_PLACEMENT_3D ( 'NONE', #307, #540, #45 ) ;
#6 = DIRECTION ( 'NONE',  ( 1.000000000000000000, 0.000000000000000000, 0.000000000000000000 ) ) ;
#7 = CARTESIAN_POINT ( 'NONE',  ( 19.05000000000000071, 2.332952152375708043E-15, 43.00000000000000000 ) ) ;
#8 = DIRECTION ( 'NONE',  ( 0.000000000000000000, 0.000000000000000000, 1.000000000000000000 ) ) ;
#9 = ORIENTED_EDGE ( 'NONE', *, *, #572, .T. ) ;
#10 = SHAPE_DEFINITION_REPRESENTATION ( #434, #107 ) ;
#11 = CARTESIAN_POINT ( 'NONE',  ( -7.550000000000000711, 9.246083333562516702E-16, 31.00000000000000000 ) ) ;
#12 = AXIS2_PLACEMENT_3D ( 'NONE', #254, #27, #166 ) ;
#13 = VECTOR ( 'NONE', #103, 1000.000000000000000 ) ;
#14 = ORIENTED_EDGE ( 'NONE', *, *, #308, .F. ) ;
#15 = EDGE_CURVE ( 'NONE', #309, #542, #482, .T. ) ;
#16 = ORIENTED_EDGE ( 'NONE', *, *, #429, .T. ) ;
#17 = ORIENTED_EDGE ( 'NONE', *, *, #312, .T. ) ;
#18 = PERSON_AND_ORGANIZATION_ROLE ( 'design_owner' ) ;
#19 = CARTESIAN_POINT ( 'NONE',  ( -4.139999999999999680, 0.000000000000000000, 31.00000000000000000 ) ) ;
#20 = CC_DESIGN_APPROVAL ( #577, ( #334 ) ) ;
#21 = CIRCLE ( 'NONE', #279, 7.550000000000000711 ) ;
#22 = ORIENTED_EDGE ( 'NONE', *, *, #349, .T. ) ;
#23 = EDGE_CURVE ( 'NONE', #491, #116, #539, .T. ) ;
#24 = DIRECTION ( 'NONE',  ( -0.000000000000000000, -0.000000000000000000, -1.000000000000000000 ) ) ;
#25 = CARTESIAN_POINT ( 'NONE',  ( 0.000000000000000000, 0.000000000000000000, 45.00000000000000000 ) ) ;
#26 = ORIENTED_EDGE ( 'NONE', *, *, #266, .F. ) ;
#27 = DIRECTION ( 'NONE',  ( 0.000000000000000000, 0.000000000000000000, -1.000000000000000000 ) ) ;
#28 = ORIENTED_EDGE ( 'NONE', *, *, #219, .T. ) ;
#29 = PERSON_AND_ORGANIZATION ( #261, #587 ) ;
#30 = CARTESIAN_POINT ( 'NONE',  ( 0.000000000000000000, 0.000000000000000000, 46.00000000000000000 ) ) ;
#31 = CIRCLE ( 'NONE', #129, 21.50000000000000355 ) ;
#32 = EDGE_CURVE ( 'NONE', #118, #529, #485, .T. ) ;
#33 = ORIENTED_EDGE ( 'NONE', *, *, #429, .F. ) ;
#34 = COORDINATED_UNIVERSAL_TIME_OFFSET ( 8, 0, .BEHIND. ) ;
#35 = DIRECTION ( 'NONE',  ( -1.000000000000000000, 0.000000000000000000, -0.000000000000000000 ) ) ;
#36 = EDGE_LOOP ( 'NONE', ( #163, #194, #343, #431 ) ) ;
#37 = EDGE_CURVE ( 'NONE', #171, #315, #53, .T. ) ;
#38 = CARTESIAN_POINT ( 'NONE',  ( -4.139999999999999680, 0.000000000000000000, -3.000000000000000000 ) ) ;
#39 = DIRECTION ( 'NONE',  ( 0.000000000000000000, -1.000000000000000000, 0.000000000000000000 ) ) ;
#40 = CALENDAR_DATE ( 2026, 30, 5 ) ;
#41 = CARTESIAN_POINT ( 'NONE',  ( 0.000000000000000000, 0.000000000000000000, 31.00000000000000000 ) ) ;
#42 = FACE_OUTER_BOUND ( 'NONE', #489, .T. ) ;
#43 = CIRCLE ( 'NONE', #402, 24.49999999999999289 ) ;
#44 =( GEOMETRIC_REPRESENTATION_CONTEXT ( 3 ) GLOBAL_UNCERTAINTY_ASSIGNED_CONTEXT ( ( #387 ) ) GLOBAL_UNIT_ASSIGNED_CONTEXT ( ( #330, #106, #398 ) ) REPRESENTATION_CONTEXT ( 'NONE', 'WORKASPACE' ) );
#45 = DIRECTION ( 'NONE',  ( -1.000000000000000000, 0.000000000000000000, 0.000000000000000000 ) ) ;
#46 = CARTESIAN_POINT ( 'NONE',  ( 0.000000000000000000, 0.000000000000000000, -2.000000000000000000 ) ) ;
#47 = DIRECTION ( 'NONE',  ( -0.000000000000000000, -0.000000000000000000, -1.000000000000000000 ) ) ;
#48 = CYLINDRICAL_SURFACE ( 'NONE', #432, 21.50000000000000355 ) ;
#49 = MANIFOLD_SOLID_BREP ( 'Fillet2', #149 ) ;
#50 = DIRECTION ( 'NONE',  ( 1.000000000000000000, 0.000000000000000000, 0.000000000000000000 ) ) ;
#51 = DIRECTION ( 'NONE',  ( 0.000000000000000000, 0.000000000000000000, 1.000000000000000000 ) ) ;
#52 = AXIS2_PLACEMENT_3D ( 'NONE', #114, #66, #433 ) ;
#53 = CIRCLE ( 'NONE', #393, 2.000000000000001776 ) ;
#54 = CARTESIAN_POINT ( 'NONE',  ( 0.000000000000000000, 0.000000000000000000, 46.00000000000000000 ) ) ;
#55 = CARTESIAN_POINT ( 'NONE',  ( 26.49999999999999645, 3.245314017740485370E-15, 46.00000000000000000 ) ) ;
#56 = EDGE_CURVE ( 'NONE', #315, #340, #430, .T. ) ;
#57 = CALENDAR_DATE ( 2026, 30, 5 ) ;
#58 = CARTESIAN_POINT ( 'NONE',  ( 0.000000000000000000, 0.000000000000000000, 43.00000000000000000 ) ) ;
#59 = FACE_OUTER_BOUND ( 'NONE', #520, .T. ) ;
#60 = EDGE_LOOP ( 'NONE', ( #390, #536 ) ) ;
#61 = ORIENTED_EDGE ( 'NONE', *, *, #589, .T. ) ;
#62 = VECTOR ( 'NONE', #97, 1000.000000000000000 ) ;
#63 = AXIS2_PLACEMENT_3D ( 'NONE', #443, #115, #292 ) ;
#64 = ORIENTED_EDGE ( 'NONE', *, *, #56, .T. ) ;
#65 = ORIENTED_EDGE ( 'NONE', *, *, #323, .T. ) ;
#66 = DIRECTION ( 'NONE',  ( 0.000000000000000000, 0.000000000000000000, 1.000000000000000000 ) ) ;
#67 = DIRECTION ( 'NONE',  ( 0.000000000000000000, 0.000000000000000000, -1.000000000000000000 ) ) ;
#68 = EDGE_LOOP ( 'NONE', ( #283, #22, #64, #401 ) ) ;
#69 = ADVANCED_FACE ( 'NONE', ( #143 ), #278, .T. ) ;
#70 = CARTESIAN_POINT ( 'NONE',  ( -4.139999999999999680, 0.000000000000000000, 43.00000000000000000 ) ) ;
#71 = LOCAL_TIME ( 15, 54, 48.00000000000000000, #306 ) ;
#72 = TOROIDAL_SURFACE ( 'NONE', #517, 24.49999999999999289, 2.000000000000000000 ) ;
#73 = DIRECTION ( 'NONE',  ( 0.000000000000000000, 0.000000000000000000, -1.000000000000000000 ) ) ;
#74 = ORIENTED_EDGE ( 'NONE', *, *, #37, .T. ) ;
#75 = DIRECTION ( 'NONE',  ( 1.000000000000000000, 0.000000000000000000, 0.000000000000000000 ) ) ;
#76 = ORIENTED_EDGE ( 'NONE', *, *, #424, .F. ) ;
#77 = VERTEX_POINT ( 'NONE', #55 ) ;
#78 = CARTESIAN_POINT ( 'NONE',  ( -7.550000000000000711, 9.246083333562516702E-16, 31.00000000000000000 ) ) ;
#79 = ORIENTED_EDGE ( 'NONE', *, *, #244, .F. ) ;
#80 = APPROVAL_DATE_TIME ( #548, #577 ) ;
#81 = DIRECTION ( 'NONE',  ( 1.000000000000000000, 0.000000000000000000, 0.000000000000000000 ) ) ;
#82 = CC_DESIGN_APPROVAL ( #318, ( #102 ) ) ;
#83 = AXIS2_PLACEMENT_3D ( 'NONE', #467, #464, #547 ) ;
#84 = DIRECTION ( 'NONE',  ( -0.000000000000000000, -0.000000000000000000, 1.000000000000000000 ) ) ;
#85 = COORDINATED_UNIVERSAL_TIME_OFFSET ( 8, 0, .BEHIND. ) ;
#86 = DIRECTION ( 'NONE',  ( -0.000000000000000000, -0.000000000000000000, -1.000000000000000000 ) ) ;
#87 = DIRECTION ( 'NONE',  ( -0.000000000000000000, -0.000000000000000000, -1.000000000000000000 ) ) ;
#88 = LINE ( 'NONE', #492, #313 ) ;
#89 = CYLINDRICAL_SURFACE ( 'NONE', #454, 4.139999999999999680 ) ;
#90 = DATE_AND_TIME ( #582, #157 ) ;
#91 = DIRECTION ( 'NONE',  ( -0.000000000000000000, -0.000000000000000000, -1.000000000000000000 ) ) ;
#92 = DIRECTION ( 'NONE',  ( 1.000000000000000000, 0.000000000000000000, 0.000000000000000000 ) ) ;
#93 = CIRCLE ( 'NONE', #12, 21.50000000000000355 ) ;
#94 = AXIS2_PLACEMENT_3D ( 'NONE', #133, #276, #319 ) ;
#95 = CARTESIAN_POINT ( 'NONE',  ( 0.000000000000000000, 0.000000000000000000, -3.000000000000000000 ) ) ;
#96 = CIRCLE ( 'NONE', #224, 7.550000000000000711 ) ;
#97 = DIRECTION ( 'NONE',  ( -0.000000000000000000, -0.000000000000000000, -1.000000000000000000 ) ) ;
#98 = DIRECTION ( 'NONE',  ( 1.000000000000000000, 0.000000000000000000, 0.000000000000000000 ) ) ;
#99 = CARTESIAN_POINT ( 'NONE',  ( 0.000000000000000000, 0.000000000000000000, 43.00000000000000000 ) ) ;
#100 = PRODUCT_DEFINITION ( 'UNKNOWN', '', #334, #506 ) ;
#101 = DIRECTION ( 'NONE',  ( -0.000000000000000000, -0.000000000000000000, -1.000000000000000000 ) ) ;
#102 = SECURITY_CLASSIFICATION ( '', '', #537 ) ;
#103 = DIRECTION ( 'NONE',  ( -0.000000000000000000, -0.000000000000000000, 1.000000000000000000 ) ) ;
#104 = CIRCLE ( 'NONE', #335, 2.000000000000000000 ) ;
#105 = EDGE_LOOP ( 'NONE', ( #245, #566 ) ) ;
#106 =( NAMED_UNIT ( * ) PLANE_ANGLE_UNIT ( ) SI_UNIT ( $, .RADIAN. ) );
#107 = ADVANCED_BREP_SHAPE_REPRESENTATION ( 'EDM Driver Pulley V3 or V4', ( #49, #52 ), #44 ) ;
#108 = ORIENTED_EDGE ( 'NONE', *, *, #219, .F. ) ;
#109 = ADVANCED_FACE ( 'NONE', ( #419, #593 ), #268, .F. ) ;
#110 = CARTESIAN_POINT ( 'NONE',  ( 0.000000000000000000, 0.000000000000000000, -2.000000000000000000 ) ) ;
#111 = EDGE_LOOP ( 'NONE', ( #394, #152, #473, #584 ) ) ;
#112 = VECTOR ( 'NONE', #273, 1000.000000000000000 ) ;
#113 = VERTEX_POINT ( 'NONE', #426 ) ;
#114 = CARTESIAN_POINT ( 'NONE',  ( 0.000000000000000000, 0.000000000000000000, 0.000000000000000000 ) ) ;
#115 = DIRECTION ( 'NONE',  ( 0.000000000000000000, 0.000000000000000000, 1.000000000000000000 ) ) ;
#116 = VERTEX_POINT ( 'NONE', #512 ) ;
#117 = VERTEX_POINT ( 'NONE', #502 ) ;
#118 = VERTEX_POINT ( 'NONE', #140 ) ;
#119 = AXIS2_PLACEMENT_3D ( 'NONE', #25, #120, #514 ) ;
#120 = DIRECTION ( 'NONE',  ( 0.000000000000000000, 0.000000000000000000, 1.000000000000000000 ) ) ;
#121 = EDGE_LOOP ( 'NONE', ( #61, #154 ) ) ;
#122 = ORIENTED_EDGE ( 'NONE', *, *, #32, .T. ) ;
#123 = PERSON_AND_ORGANIZATION_ROLE ( 'design_supplier' ) ;
#124 = EDGE_CURVE ( 'NONE', #207, #449, #211, .T. ) ;
#125 = CARTESIAN_POINT ( 'NONE',  ( 21.50000000000000355, 0.000000000000000000, -3.000000000000000000 ) ) ;
#126 = ORIENTED_EDGE ( 'NONE', *, *, #424, .T. ) ;
#127 = CC_DESIGN_PERSON_AND_ORGANIZATION_ASSIGNMENT ( #218, #503, ( #102 ) ) ;
#128 = APPROVAL_PERSON_ORGANIZATION ( #355, #479, #535 ) ;
#129 = AXIS2_PLACEMENT_3D ( 'NONE', #304, #382, #395 ) ;
#130 = ORIENTED_EDGE ( 'NONE', *, *, #592, .F. ) ;
#131 = PERSON_AND_ORGANIZATION ( #261, #587 ) ;
#132 = FACE_BOUND ( 'NONE', #60, .T. ) ;
#133 = CARTESIAN_POINT ( 'NONE',  ( 0.000000000000000000, 0.000000000000000000, -3.000000000000000000 ) ) ;
#134 = PERSON_AND_ORGANIZATION ( #261, #587 ) ;
#135 = CARTESIAN_POINT ( 'NONE',  ( 0.000000000000000000, 0.000000000000000000, 0.000000000000000000 ) ) ;
#136 = CARTESIAN_POINT ( 'NONE',  ( 0.000000000000000000, 0.000000000000000000, 43.00000000000000000 ) ) ;
#137 = CC_DESIGN_PERSON_AND_ORGANIZATION_ASSIGNMENT ( #403, #123, ( #334 ) ) ;
#138 = APPROVAL_DATE_TIME ( #284, #318 ) ;
#139 = FACE_OUTER_BOUND ( 'NONE', #36, .T. ) ;
#140 = CARTESIAN_POINT ( 'NONE',  ( -21.50000000000000355, 2.632990618166810024E-15, -3.000000000000000000 ) ) ;
#141 = AXIS2_PLACEMENT_3D ( 'NONE', #164, #67, #300 ) ;
#142 = CARTESIAN_POINT ( 'NONE',  ( 0.000000000000000000, 0.000000000000000000, 0.000000000000000000 ) ) ;
#143 = FACE_OUTER_BOUND ( 'NONE', #411, .T. ) ;
#144 = DIRECTION ( 'NONE',  ( 0.000000000000000000, 0.000000000000000000, -1.000000000000000000 ) ) ;
#145 = EDGE_CURVE ( 'NONE', #113, #338, #21, .T. ) ;
#146 = CARTESIAN_POINT ( 'NONE',  ( 4.139999999999999680, 5.070037748470042391E-16, -3.000000000000000000 ) ) ;
#147 = FACE_OUTER_BOUND ( 'NONE', #347, .T. ) ;
#148 = CARTESIAN_POINT ( 'NONE',  ( 0.000000000000000000, 0.000000000000000000, -3.000000000000000000 ) ) ;
#149 = CLOSED_SHELL ( 'NONE', ( #388, #176, #408, #450, #567, #290, #297, #235, #518, #192, #69, #363, #477, #109, #341, #471, #203, #523, #546 ) ) ;
#150 = DIRECTION ( 'NONE',  ( -1.000000000000000000, 0.000000000000000000, 0.000000000000000000 ) ) ;
#151 = EDGE_CURVE ( 'NONE', #491, #445, #167, .T. ) ;
#152 = ORIENTED_EDGE ( 'NONE', *, *, #228, .T. ) ;
#153 = DIRECTION ( 'NONE',  ( 1.000000000000000000, 0.000000000000000000, 0.000000000000000000 ) ) ;
#154 = ORIENTED_EDGE ( 'NONE', *, *, #244, .T. ) ;
#155 = PERSON_AND_ORGANIZATION ( #261, #587 ) ;
#156 = ORIENTED_EDGE ( 'NONE', *, *, #463, .F. ) ;
#157 = LOCAL_TIME ( 15, 54, 48.00000000000000000, #34 ) ;
#158 = VECTOR ( 'NONE', #101, 1000.000000000000000 ) ;
#159 = CIRCLE ( 'NONE', #496, 2.000000000000001776 ) ;
#160 = VERTEX_POINT ( 'NONE', #374 ) ;
#161 = VERTEX_POINT ( 'NONE', #461 ) ;
#162 = LINE ( 'NONE', #484, #200 ) ;
#163 = ORIENTED_EDGE ( 'NONE', *, *, #151, .F. ) ;
#164 = CARTESIAN_POINT ( 'NONE',  ( 0.000000000000000000, 0.000000000000000000, -2.000000000000000000 ) ) ;
#165 = ORIENTED_EDGE ( 'NONE', *, *, #32, .F. ) ;
#166 = DIRECTION ( 'NONE',  ( -1.000000000000000000, 0.000000000000000000, 0.000000000000000000 ) ) ;
#167 = CIRCLE ( 'NONE', #421, 19.05000000000000071 ) ;
#168 = AXIS2_PLACEMENT_3D ( 'NONE', #181, #51, #92 ) ;
#169 = ORIENTED_EDGE ( 'NONE', *, *, #572, .F. ) ;
#170 = EDGE_CURVE ( 'NONE', #160, #340, #505, .T. ) ;
#171 = VERTEX_POINT ( 'NONE', #186 ) ;
#172 = APPROVAL_STATUS ( 'not_yet_approved' ) ;
#173 = DIRECTION ( 'NONE',  ( 1.000000000000000000, 0.000000000000000000, 0.000000000000000000 ) ) ;
#174 = ORIENTED_EDGE ( 'NONE', *, *, #575, .T. ) ;
#175 = CYLINDRICAL_SURFACE ( 'NONE', #507, 26.49999999999999645 ) ;
#176 = ADVANCED_FACE ( 'NONE', ( #550 ), #48, .T. ) ;
#177 = APPROVAL_PERSON_ORGANIZATION ( #29, #577, #490 ) ;
#178 = ORIENTED_EDGE ( 'NONE', *, *, #312, .F. ) ;
#179 = AXIS2_PLACEMENT_3D ( 'NONE', #135, #446, #35 ) ;
#180 = DIRECTION ( 'NONE',  ( -0.000000000000000000, -0.000000000000000000, 1.000000000000000000 ) ) ;
#181 = CARTESIAN_POINT ( 'NONE',  ( 0.000000000000000000, 0.000000000000000000, 46.00000000000000000 ) ) ;
#182 = DATE_AND_TIME ( #441, #248 ) ;
#183 = DIRECTION ( 'NONE',  ( 0.000000000000000000, 0.000000000000000000, -1.000000000000000000 ) ) ;
#184 = CARTESIAN_POINT ( 'NONE',  ( 19.50000000000000355, 2.510525938252074481E-15, 0.000000000000000000 ) ) ;
#185 = FACE_OUTER_BOUND ( 'NONE', #586, .T. ) ;
#186 = CARTESIAN_POINT ( 'NONE',  ( 24.49999999999999289, 0.000000000000000000, 43.00000000000000000 ) ) ;
#187 = PLANE ( 'NONE',  #556 ) ;
#188 = LINE ( 'NONE', #379, #158 ) ;
#189 = DIRECTION ( 'NONE',  ( 0.000000000000000000, 0.000000000000000000, 1.000000000000000000 ) ) ;
#190 = FACE_BOUND ( 'NONE', #289, .T. ) ;
#191 = DIRECTION ( 'NONE',  ( -1.000000000000000000, 1.224646799147351482E-16, 0.000000000000000000 ) ) ;
#192 = ADVANCED_FACE ( 'NONE', ( #42 ), #89, .F. ) ;
#193 = CIRCLE ( 'NONE', #168, 26.49999999999999645 ) ;
#194 = ORIENTED_EDGE ( 'NONE', *, *, #23, .T. ) ;
#195 = FACE_OUTER_BOUND ( 'NONE', #111, .T. ) ;
#196 = EDGE_LOOP ( 'NONE', ( #79, #581, #480, #385 ) ) ;
#197 = ORIENTED_EDGE ( 'NONE', *, *, #463, .T. ) ;
#198 = CC_DESIGN_PERSON_AND_ORGANIZATION_ASSIGNMENT ( #155, #18, ( #391 ) ) ;
#199 = CC_DESIGN_SECURITY_CLASSIFICATION ( #102, ( #334 ) ) ;
#200 = VECTOR ( 'NONE', #488, 1000.000000000000000 ) ;
#201 = ORIENTED_EDGE ( 'NONE', *, *, #498, .T. ) ;
#202 = DIRECTION ( 'NONE',  ( -1.000000000000000000, 0.000000000000000000, 0.000000000000000000 ) ) ;
#203 = ADVANCED_FACE ( 'NONE', ( #557 ), #590, .T. ) ;
#204 = EDGE_LOOP ( 'NONE', ( #303, #252, #209, #533 ) ) ;
#205 = CARTESIAN_POINT ( 'NONE',  ( -26.49999999999999645, 3.245314017740484976E-15, 45.00000000000000000 ) ) ;
#206 = EDGE_CURVE ( 'NONE', #77, #160, #193, .T. ) ;
#207 = VERTEX_POINT ( 'NONE', #372 ) ;
#208 = APPROVAL_STATUS ( 'not_yet_approved' ) ;
#209 = ORIENTED_EDGE ( 'NONE', *, *, #170, .T. ) ;
#210 = CYLINDRICAL_SURFACE ( 'NONE', #299, 19.05000000000000071 ) ;
#211 = CIRCLE ( 'NONE', #358, 7.550000000000000711 ) ;
#212 = CIRCLE ( 'NONE', #356, 4.139999999999999680 ) ;
#213 = EDGE_LOOP ( 'NONE', ( #130, #359, #440, #156 ) ) ;
#214 = PLANE ( 'NONE',  #544 ) ;
#215 = ORIENTED_EDGE ( 'NONE', *, *, #534, .F. ) ;
#216 = DIRECTION ( 'NONE',  ( -1.000000000000000000, 0.000000000000000000, 0.000000000000000000 ) ) ;
#217 = ORIENTED_EDGE ( 'NONE', *, *, #400, .F. ) ;
#218 = PERSON_AND_ORGANIZATION ( #261, #587 ) ;
#219 = EDGE_CURVE ( 'NONE', #449, #207, #327, .T. ) ;
#220 = CARTESIAN_POINT ( 'NONE',  ( 0.000000000000000000, 0.000000000000000000, 31.00000000000000000 ) ) ;
#221 = AXIS2_PLACEMENT_3D ( 'NONE', #571, #357, #202 ) ;
#222 = DIRECTION ( 'NONE',  ( -0.000000000000000000, -0.000000000000000000, -1.000000000000000000 ) ) ;
#223 = DATE_TIME_ROLE ( 'classification_date' ) ;
#224 = AXIS2_PLACEMENT_3D ( 'NONE', #236, #230, #50 ) ;
#225 = FACE_BOUND ( 'NONE', #470, .T. ) ;
#226 = DIRECTION ( 'NONE',  ( 0.000000000000000000, 0.000000000000000000, -1.000000000000000000 ) ) ;
#227 = CARTESIAN_POINT ( 'NONE',  ( -21.50000000000000355, 0.000000000000000000, -2.000000000000000000 ) ) ;
#228 = EDGE_CURVE ( 'NONE', #542, #243, #188, .T. ) ;
#229 = DIRECTION ( 'NONE',  ( 0.000000000000000000, 0.000000000000000000, 1.000000000000000000 ) ) ;
#230 = DIRECTION ( 'NONE',  ( 0.000000000000000000, 0.000000000000000000, 1.000000000000000000 ) ) ;
#231 = DIRECTION ( 'NONE',  ( -1.000000000000000000, 0.000000000000000000, 0.000000000000000000 ) ) ;
#232 = CIRCLE ( 'NONE', #311, 4.139999999999999680 ) ;
#233 = DIRECTION ( 'NONE',  ( 1.000000000000000000, 0.000000000000000000, -0.000000000000000000 ) ) ;
#234 = DIRECTION ( 'NONE',  ( 1.000000000000000000, 0.000000000000000000, 0.000000000000000000 ) ) ;
#235 = ADVANCED_FACE ( 'NONE', ( #326 ), #242, .T. ) ;
#236 = CARTESIAN_POINT ( 'NONE',  ( 0.000000000000000000, 0.000000000000000000, 31.00000000000000000 ) ) ;
#237 = CARTESIAN_POINT ( 'NONE',  ( 0.000000000000000000, 0.000000000000000000, 43.00000000000000000 ) ) ;
#238 = ORIENTED_EDGE ( 'NONE', *, *, #346, .T. ) ;
#239 = DIRECTION ( 'NONE',  ( 0.000000000000000000, 0.000000000000000000, 1.000000000000000000 ) ) ;
#240 = VECTOR ( 'NONE', #87, 1000.000000000000000 ) ;
#241 = VERTEX_POINT ( 'NONE', #184 ) ;
#242 = TOROIDAL_SURFACE ( 'NONE', #342, 19.50000000000000355, 2.000000000000000000 ) ;
#243 = VERTEX_POINT ( 'NONE', #146 ) ;
#244 = EDGE_CURVE ( 'NONE', #255, #171, #43, .T. ) ;
#245 = ORIENTED_EDGE ( 'NONE', *, *, #534, .T. ) ;
#246 = DIRECTION ( 'NONE',  ( 0.000000000000000000, 0.000000000000000000, -1.000000000000000000 ) ) ;
#247 = ORIENTED_EDGE ( 'NONE', *, *, #400, .T. ) ;
#248 = LOCAL_TIME ( 15, 54, 48.00000000000000000, #287 ) ;
#249 = APPROVAL_STATUS ( 'not_yet_approved' ) ;
#250 = CARTESIAN_POINT ( 'NONE',  ( 0.000000000000000000, 0.000000000000000000, -3.000000000000000000 ) ) ;
#251 = CIRCLE ( 'NONE', #336, 19.05000000000000071 ) ;
#252 = ORIENTED_EDGE ( 'NONE', *, *, #384, .F. ) ;
#253 = EDGE_CURVE ( 'NONE', #309, #350, #348, .T. ) ;
#254 = CARTESIAN_POINT ( 'NONE',  ( 0.000000000000000000, 0.000000000000000000, -3.000000000000000000 ) ) ;
#255 = VERTEX_POINT ( 'NONE', #282 ) ;
#256 = DIRECTION ( 'NONE',  ( -0.000000000000000000, -0.000000000000000000, -1.000000000000000000 ) ) ;
#257 = ORIENTED_EDGE ( 'NONE', *, *, #124, .F. ) ;
#258 = PERSON_AND_ORGANIZATION_ROLE ( 'creator' ) ;
#259 = FACE_OUTER_BOUND ( 'NONE', #68, .T. ) ;
#260 = AXIS2_PLACEMENT_3D ( 'NONE', #220, #412, #81 ) ;
#261 = PERSON ( 'UNSPECIFIED', 'UNSPECIFIED', 'UNSPECIFIED', ('UNSPECIFIED'), ('UNSPECIFIED'), ('UNSPECIFIED') ) ;
#262 = CIRCLE ( 'NONE', #314, 21.50000000000000355 ) ;
#263 = ORIENTED_EDGE ( 'NONE', *, *, #145, .T. ) ;
#264 = DIRECTION ( 'NONE',  ( -1.000000000000000000, 0.000000000000000000, -0.000000000000000000 ) ) ;
#265 = ORIENTED_EDGE ( 'NONE', *, *, #206, .T. ) ;
#266 = EDGE_CURVE ( 'NONE', #529, #478, #579, .T. ) ;
#267 = DIRECTION ( 'NONE',  ( -1.000000000000000000, 0.000000000000000000, 0.000000000000000000 ) ) ;
#268 = PLANE ( 'NONE',  #474 ) ;
#269 = PERSON_AND_ORGANIZATION ( #261, #587 ) ;
#270 = DIRECTION ( 'NONE',  ( 0.000000000000000000, 0.000000000000000000, -1.000000000000000000 ) ) ;
#271 = DIRECTION ( 'NONE',  ( 1.000000000000000000, 0.000000000000000000, 0.000000000000000000 ) ) ;
#272 = CIRCLE ( 'NONE', #468, 24.49999999999999289 ) ;
#273 = DIRECTION ( 'NONE',  ( -0.000000000000000000, -0.000000000000000000, -1.000000000000000000 ) ) ;
#274 = DIRECTION ( 'NONE',  ( 0.000000000000000000, 0.000000000000000000, 1.000000000000000000 ) ) ;
#275 = DIRECTION ( 'NONE',  ( 0.000000000000000000, 0.000000000000000000, 1.000000000000000000 ) ) ;
#276 = DIRECTION ( 'NONE',  ( -0.000000000000000000, -0.000000000000000000, 1.000000000000000000 ) ) ;
#277 = CARTESIAN_POINT ( 'NONE',  ( -24.49999999999999289, 3.000384657911014680E-15, 45.00000000000000000 ) ) ;
#278 = CYLINDRICAL_SURFACE ( 'NONE', #83, 19.05000000000000071 ) ;
#279 = AXIS2_PLACEMENT_3D ( 'NONE', #510, #274, #331 ) ;
#280 = CIRCLE ( 'NONE', #368, 2.000000000000001776 ) ;
#281 = CYLINDRICAL_SURFACE ( 'NONE', #563, 7.550000000000000711 ) ;
#282 = CARTESIAN_POINT ( 'NONE',  ( -24.49999999999999289, 3.122849337825749828E-15, 43.00000000000000000 ) ) ;
#283 = ORIENTED_EDGE ( 'NONE', *, *, #206, .F. ) ;
#284 = DATE_AND_TIME ( #57, #71 ) ;
#285 = APPLICATION_CONTEXT ( 'configuration controlled 3d designs of mechanical parts and assemblies' ) ;
#286 = ORIENTED_EDGE ( 'NONE', *, *, #487, .F. ) ;
#287 = COORDINATED_UNIVERSAL_TIME_OFFSET ( 8, 0, .BEHIND. ) ;
#288 = TOROIDAL_SURFACE ( 'NONE', #63, 24.49999999999999289, 2.000000000000000000 ) ;
#289 = EDGE_LOOP ( 'NONE', ( #573, #14 ) ) ;
#290 = ADVANCED_FACE ( 'NONE', ( #392 ), #288, .T. ) ;
#291 = APPLICATION_PROTOCOL_DEFINITION ( 'international standard', 'config_control_design', 1994, #452 ) ;
#292 = DIRECTION ( 'NONE',  ( 1.000000000000000000, 0.000000000000000000, 0.000000000000000000 ) ) ;
#293 = EDGE_CURVE ( 'NONE', #340, #315, #406, .T. ) ;
#294 = ORIENTED_EDGE ( 'NONE', *, *, #145, .F. ) ;
#295 = ORIENTED_EDGE ( 'NONE', *, *, #589, .F. ) ;
#296 = ORIENTED_EDGE ( 'NONE', *, *, #592, .T. ) ;
#297 = ADVANCED_FACE ( 'NONE', ( #59 ), #569, .T. ) ;
#298 = AXIS2_PLACEMENT_3D ( 'NONE', #148, #183, #264 ) ;
#299 = AXIS2_PLACEMENT_3D ( 'NONE', #405, #91, #501 ) ;
#300 = DIRECTION ( 'NONE',  ( -1.000000000000000000, 0.000000000000000000, 0.000000000000000000 ) ) ;
#301 = ORIENTED_EDGE ( 'NONE', *, *, #228, .F. ) ;
#302 = CC_DESIGN_PERSON_AND_ORGANIZATION_ASSIGNMENT ( #134, #320, ( #334 ) ) ;
#303 = ORIENTED_EDGE ( 'NONE', *, *, #349, .F. ) ;
#304 = CARTESIAN_POINT ( 'NONE',  ( 0.000000000000000000, 0.000000000000000000, -3.000000000000000000 ) ) ;
#305 = ORIENTED_EDGE ( 'NONE', *, *, #333, .F. ) ;
#306 = COORDINATED_UNIVERSAL_TIME_OFFSET ( 8, 0, .BEHIND. ) ;
#307 = CARTESIAN_POINT ( 'NONE',  ( 0.000000000000000000, 0.000000000000000000, 0.000000000000000000 ) ) ;
#308 = EDGE_CURVE ( 'NONE', #243, #350, #232, .T. ) ;
#309 = VERTEX_POINT ( 'NONE', #19 ) ;
#310 = CARTESIAN_POINT ( 'NONE',  ( -19.05000000000000071, 0.000000000000000000, 43.00000000000000000 ) ) ;
#311 = AXIS2_PLACEMENT_3D ( 'NONE', #250, #246, #352 ) ;
#312 = EDGE_CURVE ( 'NONE', #118, #161, #31, .T. ) ;
#313 = VECTOR ( 'NONE', #180, 1000.000000000000000 ) ;
#314 = AXIS2_PLACEMENT_3D ( 'NONE', #110, #144, #469 ) ;
#315 = VERTEX_POINT ( 'NONE', #530 ) ;
#316 = CALENDAR_DATE ( 2026, 30, 5 ) ;
#317 = CYLINDRICAL_SURFACE ( 'NONE', #260, 7.550000000000000711 ) ;
#318 = APPROVAL ( #172, 'UNSPECIFIED' ) ;
#319 = DIRECTION ( 'NONE',  ( 1.000000000000000000, 0.000000000000000000, 0.000000000000000000 ) ) ;
#320 = PERSON_AND_ORGANIZATION_ROLE ( 'creator' ) ;
#321 = FACE_OUTER_BOUND ( 'NONE', #204, .T. ) ;
#322 = DIRECTION ( 'NONE',  ( -0.000000000000000000, -0.000000000000000000, 1.000000000000000000 ) ) ;
#323 = EDGE_CURVE ( 'NONE', #445, #117, #162, .T. ) ;
#324 = FACE_OUTER_BOUND ( 'NONE', #389, .T. ) ;
#325 = AXIS2_PLACEMENT_3D ( 'NONE', #591, #373, #549 ) ;
#326 = FACE_OUTER_BOUND ( 'NONE', #499, .T. ) ;
#327 = CIRCLE ( 'NONE', #509, 7.550000000000000711 ) ;
#328 = DIRECTION ( 'NONE',  ( 1.000000000000000000, 0.000000000000000000, -0.000000000000000000 ) ) ;
#329 = DIRECTION ( 'NONE',  ( 0.000000000000000000, 0.000000000000000000, 1.000000000000000000 ) ) ;
#330 =( LENGTH_UNIT ( ) NAMED_UNIT ( * ) SI_UNIT ( .MILLI., .METRE. ) );
#331 = DIRECTION ( 'NONE',  ( 1.000000000000000000, 0.000000000000000000, 0.000000000000000000 ) ) ;
#332 = DIRECTION ( 'NONE',  ( 0.000000000000000000, 0.000000000000000000, 1.000000000000000000 ) ) ;
#333 = EDGE_CURVE ( 'NONE', #161, #118, #93, .T. ) ;
#334 = PRODUCT_DEFINITION_FORMATION_WITH_SPECIFIED_SOURCE ( 'ANY', '', #391, .NOT_KNOWN. ) ;
#335 = AXIS2_PLACEMENT_3D ( 'NONE', #465, #459, #558 ) ;
#336 = AXIS2_PLACEMENT_3D ( 'NONE', #142, #519, #420 ) ;
#337 = CARTESIAN_POINT ( 'NONE',  ( 0.000000000000000000, 0.000000000000000000, 43.00000000000000000 ) ) ;
#338 = VERTEX_POINT ( 'NONE', #78 ) ;
#339 = CARTESIAN_POINT ( 'NONE',  ( 4.139999999999999680, 5.070037748470042391E-16, 31.00000000000000000 ) ) ;
#340 = VERTEX_POINT ( 'NONE', #205 ) ;
#341 = ADVANCED_FACE ( 'NONE', ( #399, #190 ), #559, .T. ) ;
#342 = AXIS2_PLACEMENT_3D ( 'NONE', #46, #226, #552 ) ;
#343 = ORIENTED_EDGE ( 'NONE', *, *, #541, .T. ) ;
#344 = AXIS2_PLACEMENT_3D ( 'NONE', #4, #462, #150 ) ;
#345 = DIRECTION ( 'NONE',  ( 1.000000000000000000, 0.000000000000000000, 0.000000000000000000 ) ) ;
#346 = EDGE_CURVE ( 'NONE', #350, #243, #376, .T. ) ;
#347 = EDGE_LOOP ( 'NONE', ( #286, #295, #74, #522 ) ) ;
#348 = LINE ( 'NONE', #70, #495 ) ;
#349 = EDGE_CURVE ( 'NONE', #77, #315, #451, .T. ) ;
#350 = VERTEX_POINT ( 'NONE', #38 ) ;
#351 = MECHANICAL_CONTEXT ( 'NONE', #452, 'mechanical' ) ;
#352 = DIRECTION ( 'NONE',  ( -1.000000000000000000, 0.000000000000000000, 0.000000000000000000 ) ) ;
#353 = CARTESIAN_POINT ( 'NONE',  ( 24.49999999999999289, 0.000000000000000000, 45.00000000000000000 ) ) ;
#354 = CIRCLE ( 'NONE', #325, 26.49999999999999645 ) ;
#355 = PERSON_AND_ORGANIZATION ( #261, #587 ) ;
#356 = AXIS2_PLACEMENT_3D ( 'NONE', #41, #551, #173 ) ;
#357 = DIRECTION ( 'NONE',  ( 0.000000000000000000, 0.000000000000000000, -1.000000000000000000 ) ) ;
#358 = AXIS2_PLACEMENT_3D ( 'NONE', #453, #229, #234 ) ;
#359 = ORIENTED_EDGE ( 'NONE', *, *, #553, .T. ) ;
#360 = COORDINATED_UNIVERSAL_TIME_OFFSET ( 8, 0, .BEHIND. ) ;
#361 = FACE_OUTER_BOUND ( 'NONE', #213, .T. ) ;
#362 = DIRECTION ( 'NONE',  ( 0.000000000000000000, 0.000000000000000000, 1.000000000000000000 ) ) ;
#363 = ADVANCED_FACE ( 'NONE', ( #321 ), #175, .T. ) ;
#364 = CARTESIAN_POINT ( 'NONE',  ( 19.50000000000000355, 2.388061258337339333E-15, -2.000000000000000000 ) ) ;
#365 = ORIENTED_EDGE ( 'NONE', *, *, #23, .F. ) ;
#366 = DIRECTION ( 'NONE',  ( -1.000000000000000000, 0.000000000000000000, 0.000000000000000000 ) ) ;
#367 = VECTOR ( 'NONE', #84, 1000.000000000000000 ) ;
#368 = AXIS2_PLACEMENT_3D ( 'NONE', #277, #380, #191 ) ;
#369 = AXIS2_PLACEMENT_3D ( 'NONE', #337, #239, #153 ) ;
#370 = CARTESIAN_POINT ( 'NONE',  ( 0.000000000000000000, 0.000000000000000000, -3.000000000000000000 ) ) ;
#371 = PLANE ( 'NONE',  #179 ) ;
#372 = CARTESIAN_POINT ( 'NONE',  ( -7.550000000000000711, 9.246083333562516702E-16, 46.00000000000000000 ) ) ;
#373 = DIRECTION ( 'NONE',  ( 0.000000000000000000, 0.000000000000000000, 1.000000000000000000 ) ) ;
#374 = CARTESIAN_POINT ( 'NONE',  ( -26.49999999999999645, 0.000000000000000000, 46.00000000000000000 ) ) ;
#375 = DIRECTION ( 'NONE',  ( 1.000000000000000000, 0.000000000000000000, 0.000000000000000000 ) ) ;
#376 = CIRCLE ( 'NONE', #531, 4.139999999999999680 ) ;
#377 = CARTESIAN_POINT ( 'NONE',  ( 0.000000000000000000, 0.000000000000000000, 43.00000000000000000 ) ) ;
#378 = AXIS2_PLACEMENT_3D ( 'NONE', #513, #332, #375 ) ;
#379 = CARTESIAN_POINT ( 'NONE',  ( 4.139999999999999680, 5.070037748470042391E-16, 43.00000000000000000 ) ) ;
#380 = DIRECTION ( 'NONE',  ( 1.224646799147353207E-16, 1.000000000000000000, -0.000000000000000000 ) ) ;
#381 = CC_DESIGN_PERSON_AND_ORGANIZATION_ASSIGNMENT ( #131, #258, ( #100 ) ) ;
#382 = DIRECTION ( 'NONE',  ( 0.000000000000000000, 0.000000000000000000, -1.000000000000000000 ) ) ;
#383 = DIRECTION ( 'NONE',  ( -0.000000000000000000, -0.000000000000000000, 1.000000000000000000 ) ) ;
#384 = EDGE_CURVE ( 'NONE', #160, #77, #354, .T. ) ;
#385 = ORIENTED_EDGE ( 'NONE', *, *, #37, .F. ) ;
#386 = FACE_OUTER_BOUND ( 'NONE', #413, .T. ) ;
#387 = UNCERTAINTY_MEASURE_WITH_UNIT (LENGTH_MEASURE( 1.000000000000000082E-05 ), #330, 'distance_accuracy_value', 'NONE');
#388 = ADVANCED_FACE ( 'NONE', ( #361 ), #317, .F. ) ;
#389 = EDGE_LOOP ( 'NONE', ( #527, #265 ) ) ;
#390 = ORIENTED_EDGE ( 'NONE', *, *, #575, .F. ) ;
#391 = PRODUCT ( 'EDM Driver Pulley V3 or V4', 'EDM Driver Pulley V3 or V4', '', ( #351 ) ) ;
#392 = FACE_OUTER_BOUND ( 'NONE', #196, .T. ) ;
#393 = AXIS2_PLACEMENT_3D ( 'NONE', #353, #39, #73 ) ;
#394 = ORIENTED_EDGE ( 'NONE', *, *, #15, .T. ) ;
#395 = DIRECTION ( 'NONE',  ( -1.000000000000000000, 0.000000000000000000, 0.000000000000000000 ) ) ;
#396 = ORIENTED_EDGE ( 'NONE', *, *, #444, .F. ) ;
#397 = DIRECTION ( 'NONE',  ( 1.000000000000000000, 0.000000000000000000, 0.000000000000000000 ) ) ;
#398 =( NAMED_UNIT ( * ) SI_UNIT ( $, .STERADIAN. ) SOLID_ANGLE_UNIT ( ) );
#399 = FACE_OUTER_BOUND ( 'NONE', #427, .T. ) ;
#400 = EDGE_CURVE ( 'NONE', #241, #564, #524, .T. ) ;
#401 = ORIENTED_EDGE ( 'NONE', *, *, #170, .F. ) ;
#402 = AXIS2_PLACEMENT_3D ( 'NONE', #237, #24, #345 ) ;
#403 = PERSON_AND_ORGANIZATION ( #261, #587 ) ;
#404 = ORIENTED_EDGE ( 'NONE', *, *, #553, .F. ) ;
#405 = CARTESIAN_POINT ( 'NONE',  ( 0.000000000000000000, 0.000000000000000000, 43.00000000000000000 ) ) ;
#406 = CIRCLE ( 'NONE', #561, 26.49999999999999645 ) ;
#407 = ORIENTED_EDGE ( 'NONE', *, *, #266, .T. ) ;
#408 = ADVANCED_FACE ( 'NONE', ( #259 ), #410, .T. ) ;
#409 = DATE_TIME_ROLE ( 'creation_date' ) ;
#410 = CYLINDRICAL_SURFACE ( 'NONE', #422, 26.49999999999999645 ) ;
#411 = EDGE_LOOP ( 'NONE', ( #365, #215, #65, #174 ) ) ;
#412 = DIRECTION ( 'NONE',  ( -0.000000000000000000, -0.000000000000000000, 1.000000000000000000 ) ) ;
#413 = EDGE_LOOP ( 'NONE', ( #404, #294, #197, #28 ) ) ;
#414 = DIRECTION ( 'NONE',  ( 1.000000000000000000, 0.000000000000000000, 0.000000000000000000 ) ) ;
#415 = APPROVAL_ROLE ( '' ) ;
#416 = DIRECTION ( 'NONE',  ( -0.000000000000000000, -0.000000000000000000, -1.000000000000000000 ) ) ;
#417 = DIRECTION ( 'NONE',  ( 1.000000000000000000, 0.000000000000000000, -0.000000000000000000 ) ) ;
#418 = CARTESIAN_POINT ( 'NONE',  ( -19.50000000000000355, 0.000000000000000000, 0.000000000000000000 ) ) ;
#419 = FACE_OUTER_BOUND ( 'NONE', #121, .T. ) ;
#420 = DIRECTION ( 'NONE',  ( 1.000000000000000000, 0.000000000000000000, 0.000000000000000000 ) ) ;
#421 = AXIS2_PLACEMENT_3D ( 'NONE', #99, #8, #271 ) ;
#422 = AXIS2_PLACEMENT_3D ( 'NONE', #588, #86, #366 ) ;
#423 = CARTESIAN_POINT ( 'NONE',  ( 0.000000000000000000, 0.000000000000000000, 46.00000000000000000 ) ) ;
#424 = EDGE_CURVE ( 'NONE', #161, #478, #538, .T. ) ;
#425 = CARTESIAN_POINT ( 'NONE',  ( 21.50000000000000355, 2.632990618166810024E-15, -2.000000000000000000 ) ) ;
#426 = CARTESIAN_POINT ( 'NONE',  ( 7.550000000000000711, 0.000000000000000000, 31.00000000000000000 ) ) ;
#427 = EDGE_LOOP ( 'NONE', ( #525, #17 ) ) ;
#428 = DIRECTION ( 'NONE',  ( 0.000000000000000000, 0.000000000000000000, 1.000000000000000000 ) ) ;
#429 = EDGE_CURVE ( 'NONE', #542, #309, #212, .T. ) ;
#430 = CIRCLE ( 'NONE', #119, 26.49999999999999645 ) ;
#431 = ORIENTED_EDGE ( 'NONE', *, *, #323, .F. ) ;
#432 = AXIS2_PLACEMENT_3D ( 'NONE', #370, #322, #414 ) ;
#433 = DIRECTION ( 'NONE',  ( 1.000000000000000000, 0.000000000000000000, 0.000000000000000000 ) ) ;
#434 = PRODUCT_DEFINITION_SHAPE ( 'NONE', 'NONE',  #100 ) ;
#435 = ORIENTED_EDGE ( 'NONE', *, *, #253, .T. ) ;
#436 = ORIENTED_EDGE ( 'NONE', *, *, #498, .F. ) ;
#437 = EDGE_LOOP ( 'NONE', ( #178, #122, #407, #76 ) ) ;
#438 = CC_DESIGN_DATE_AND_TIME_ASSIGNMENT ( #500, #409, ( #100 ) ) ;
#439 = CIRCLE ( 'NONE', #378, 19.05000000000000071 ) ;
#440 = ORIENTED_EDGE ( 'NONE', *, *, #124, .T. ) ;
#441 = CALENDAR_DATE ( 2026, 30, 5 ) ;
#442 = EDGE_LOOP ( 'NONE', ( #165, #305, #126, #9 ) ) ;
#443 = CARTESIAN_POINT ( 'NONE',  ( 0.000000000000000000, 0.000000000000000000, 45.00000000000000000 ) ) ;
#444 = EDGE_CURVE ( 'NONE', #564, #241, #555, .T. ) ;
#445 = VERTEX_POINT ( 'NONE', #310 ) ;
#446 = DIRECTION ( 'NONE',  ( 0.000000000000000000, 0.000000000000000000, -1.000000000000000000 ) ) ;
#447 = CARTESIAN_POINT ( 'NONE',  ( 0.000000000000000000, 0.000000000000000000, 31.00000000000000000 ) ) ;
#448 = DIRECTION ( 'NONE',  ( -1.000000000000000000, 0.000000000000000000, 0.000000000000000000 ) ) ;
#449 = VERTEX_POINT ( 'NONE', #583 ) ;
#450 = ADVANCED_FACE ( 'NONE', ( #139 ), #210, .T. ) ;
#451 = LINE ( 'NONE', #508, #112 ) ;
#452 = APPLICATION_CONTEXT ( 'configuration controlled 3d designs of mechanical parts and assemblies' ) ;
#453 = CARTESIAN_POINT ( 'NONE',  ( 0.000000000000000000, 0.000000000000000000, 46.00000000000000000 ) ) ;
#454 = AXIS2_PLACEMENT_3D ( 'NONE', #377, #222, #231 ) ;
#455 = CC_DESIGN_DATE_AND_TIME_ASSIGNMENT ( #90, #223, ( #102 ) ) ;
#456 = CARTESIAN_POINT ( 'NONE',  ( 0.000000000000000000, 0.000000000000000000, 0.000000000000000000 ) ) ;
#457 = CIRCLE ( 'NONE', #369, 19.05000000000000071 ) ;
#458 = DIRECTION ( 'NONE',  ( 0.000000000000000000, 0.000000000000000000, 1.000000000000000000 ) ) ;
#459 = DIRECTION ( 'NONE',  ( -0.000000000000000000, -1.000000000000000000, -0.000000000000000000 ) ) ;
#460 = EDGE_CURVE ( 'NONE', #241, #478, #159, .T. ) ;
#461 = CARTESIAN_POINT ( 'NONE',  ( 21.50000000000000355, 0.000000000000000000, -3.000000000000000000 ) ) ;
#462 = DIRECTION ( 'NONE',  ( -0.000000000000000000, -0.000000000000000000, -1.000000000000000000 ) ) ;
#463 = EDGE_CURVE ( 'NONE', #113, #449, #88, .T. ) ;
#464 = DIRECTION ( 'NONE',  ( -0.000000000000000000, -0.000000000000000000, -1.000000000000000000 ) ) ;
#465 = CARTESIAN_POINT ( 'NONE',  ( -19.50000000000000355, 0.000000000000000000, -2.000000000000000000 ) ) ;
#466 = AXIS2_PLACEMENT_3D ( 'NONE', #447, #362, #397 ) ;
#467 = CARTESIAN_POINT ( 'NONE',  ( 0.000000000000000000, 0.000000000000000000, 43.00000000000000000 ) ) ;
#468 = AXIS2_PLACEMENT_3D ( 'NONE', #58, #47, #98 ) ;
#469 = DIRECTION ( 'NONE',  ( -1.000000000000000000, 0.000000000000000000, 0.000000000000000000 ) ) ;
#470 = EDGE_LOOP ( 'NONE', ( #108, #257 ) ) ;
#471 = ADVANCED_FACE ( 'NONE', ( #545, #132 ), #371, .F. ) ;
#472 = FACE_BOUND ( 'NONE', #486, .T. ) ;
#473 = ORIENTED_EDGE ( 'NONE', *, *, #308, .T. ) ;
#474 = AXIS2_PLACEMENT_3D ( 'NONE', #136, #329, #417 ) ;
#475 = VECTOR ( 'NONE', #504, 1000.000000000000000 ) ;
#476 = EDGE_LOOP ( 'NONE', ( #576, #247 ) ) ;
#477 = ADVANCED_FACE ( 'NONE', ( #225, #324 ), #214, .T. ) ;
#478 = VERTEX_POINT ( 'NONE', #425 ) ;
#479 = APPROVAL ( #249, 'UNSPECIFIED' ) ;
#480 = ORIENTED_EDGE ( 'NONE', *, *, #56, .F. ) ;
#481 = APPLICATION_PROTOCOL_DEFINITION ( 'international standard', 'config_control_design', 1994, #285 ) ;
#482 = CIRCLE ( 'NONE', #466, 4.139999999999999680 ) ;
#483 = CARTESIAN_POINT ( 'NONE',  ( 19.05000000000000071, 2.332952152375708043E-15, 43.00000000000000000 ) ) ;
#484 = CARTESIAN_POINT ( 'NONE',  ( -19.05000000000000071, 0.000000000000000000, 43.00000000000000000 ) ) ;
#485 = LINE ( 'NONE', #493, #367 ) ;
#486 = EDGE_LOOP ( 'NONE', ( #578, #33 ) ) ;
#487 = EDGE_CURVE ( 'NONE', #255, #340, #280, .T. ) ;
#488 = DIRECTION ( 'NONE',  ( -0.000000000000000000, -0.000000000000000000, -1.000000000000000000 ) ) ;
#489 = EDGE_LOOP ( 'NONE', ( #301, #16, #435, #238 ) ) ;
#490 = APPROVAL_ROLE ( '' ) ;
#491 = VERTEX_POINT ( 'NONE', #7 ) ;
#492 = CARTESIAN_POINT ( 'NONE',  ( 7.550000000000000711, 0.000000000000000000, 31.00000000000000000 ) ) ;
#493 = CARTESIAN_POINT ( 'NONE',  ( -21.50000000000000355, 2.632990618166810024E-15, -3.000000000000000000 ) ) ;
#494 = LOCAL_TIME ( 15, 54, 48.00000000000000000, #85 ) ;
#495 = VECTOR ( 'NONE', #256, 1000.000000000000000 ) ;
#496 = AXIS2_PLACEMENT_3D ( 'NONE', #364, #497, #580 ) ;
#497 = DIRECTION ( 'NONE',  ( -1.224646799147353207E-16, 1.000000000000000000, 0.000000000000000000 ) ) ;
#498 = EDGE_CURVE ( 'NONE', #564, #529, #104, .T. ) ;
#499 = EDGE_LOOP ( 'NONE', ( #570, #396, #201, #169 ) ) ;
#500 = DATE_AND_TIME ( #316, #494 ) ;
#501 = DIRECTION ( 'NONE',  ( -1.000000000000000000, 0.000000000000000000, 0.000000000000000000 ) ) ;
#502 = CARTESIAN_POINT ( 'NONE',  ( -19.05000000000000071, 0.000000000000000000, 0.000000000000000000 ) ) ;
#503 = PERSON_AND_ORGANIZATION_ROLE ( 'classification_officer' ) ;
#504 = DIRECTION ( 'NONE',  ( -0.000000000000000000, -0.000000000000000000, 1.000000000000000000 ) ) ;
#505 = LINE ( 'NONE', #2, #62 ) ;
#506 = DESIGN_CONTEXT ( 'detailed design', #285, 'design' ) ;
#507 = AXIS2_PLACEMENT_3D ( 'NONE', #30, #416, #216 ) ;
#508 = CARTESIAN_POINT ( 'NONE',  ( 26.49999999999999645, 3.245314017740485370E-15, 46.00000000000000000 ) ) ;
#509 = AXIS2_PLACEMENT_3D ( 'NONE', #423, #458, #6 ) ;
#510 = CARTESIAN_POINT ( 'NONE',  ( 0.000000000000000000, 0.000000000000000000, 31.00000000000000000 ) ) ;
#511 = DIRECTION ( 'NONE',  ( 1.000000000000000000, 0.000000000000000000, 0.000000000000000000 ) ) ;
#512 = CARTESIAN_POINT ( 'NONE',  ( 19.05000000000000071, 2.332952152375708043E-15, 0.000000000000000000 ) ) ;
#513 = CARTESIAN_POINT ( 'NONE',  ( 0.000000000000000000, 0.000000000000000000, 0.000000000000000000 ) ) ;
#514 = DIRECTION ( 'NONE',  ( 1.000000000000000000, 0.000000000000000000, 0.000000000000000000 ) ) ;
#515 = DIRECTION ( 'NONE',  ( 1.000000000000000000, 0.000000000000000000, 0.000000000000000000 ) ) ;
#516 = CC_DESIGN_APPROVAL ( #479, ( #100 ) ) ;
#517 = AXIS2_PLACEMENT_3D ( 'NONE', #1, #275, #515 ) ;
#518 = ADVANCED_FACE ( 'NONE', ( #147 ), #72, .T. ) ;
#519 = DIRECTION ( 'NONE',  ( 0.000000000000000000, 0.000000000000000000, 1.000000000000000000 ) ) ;
#520 = EDGE_LOOP ( 'NONE', ( #217, #568, #26, #436 ) ) ;
#521 = LINE ( 'NONE', #11, #13 ) ;
#522 = ORIENTED_EDGE ( 'NONE', *, *, #293, .F. ) ;
#523 = ADVANCED_FACE ( 'NONE', ( #386 ), #281, .F. ) ;
#524 = CIRCLE ( 'NONE', #3, 19.50000000000000355 ) ;
#525 = ORIENTED_EDGE ( 'NONE', *, *, #333, .T. ) ;
#526 = DIRECTION ( 'NONE',  ( 0.000000000000000000, 0.000000000000000000, 1.000000000000000000 ) ) ;
#527 = ORIENTED_EDGE ( 'NONE', *, *, #384, .T. ) ;
#528 = PRODUCT_RELATED_PRODUCT_CATEGORY ( 'detail', '', ( #391 ) ) ;
#529 = VERTEX_POINT ( 'NONE', #227 ) ;
#530 = CARTESIAN_POINT ( 'NONE',  ( 26.49999999999999645, 0.000000000000000000, 45.00000000000000000 ) ) ;
#531 = AXIS2_PLACEMENT_3D ( 'NONE', #95, #270, #448 ) ;
#532 = LOCAL_TIME ( 15, 54, 48.00000000000000000, #360 ) ;
#533 = ORIENTED_EDGE ( 'NONE', *, *, #293, .T. ) ;
#534 = EDGE_CURVE ( 'NONE', #445, #491, #457, .T. ) ;
#535 = APPROVAL_ROLE ( '' ) ;
#536 = ORIENTED_EDGE ( 'NONE', *, *, #541, .F. ) ;
#537 = SECURITY_CLASSIFICATION_LEVEL ( 'unclassified' ) ;
#538 = LINE ( 'NONE', #125, #475 ) ;
#539 = LINE ( 'NONE', #483, #240 ) ;
#540 = DIRECTION ( 'NONE',  ( -0.000000000000000000, -0.000000000000000000, 1.000000000000000000 ) ) ;
#541 = EDGE_CURVE ( 'NONE', #116, #117, #439, .T. ) ;
#542 = VERTEX_POINT ( 'NONE', #339 ) ;
#543 = APPROVAL_DATE_TIME ( #182, #479 ) ;
#544 = AXIS2_PLACEMENT_3D ( 'NONE', #54, #189, #233 ) ;
#545 = FACE_OUTER_BOUND ( 'NONE', #476, .T. ) ;
#546 = ADVANCED_FACE ( 'NONE', ( #472, #185 ), #187, .T. ) ;
#547 = DIRECTION ( 'NONE',  ( -1.000000000000000000, 0.000000000000000000, 0.000000000000000000 ) ) ;
#548 = DATE_AND_TIME ( #40, #532 ) ;
#549 = DIRECTION ( 'NONE',  ( 1.000000000000000000, 0.000000000000000000, 0.000000000000000000 ) ) ;
#550 = FACE_OUTER_BOUND ( 'NONE', #437, .T. ) ;
#551 = DIRECTION ( 'NONE',  ( 0.000000000000000000, 0.000000000000000000, 1.000000000000000000 ) ) ;
#552 = DIRECTION ( 'NONE',  ( -1.000000000000000000, 0.000000000000000000, 0.000000000000000000 ) ) ;
#553 = EDGE_CURVE ( 'NONE', #338, #207, #521, .T. ) ;
#554 = CYLINDRICAL_SURFACE ( 'NONE', #344, 4.139999999999999680 ) ;
#555 = CIRCLE ( 'NONE', #5, 19.50000000000000355 ) ;
#556 = AXIS2_PLACEMENT_3D ( 'NONE', #565, #428, #328 ) ;
#557 = FACE_OUTER_BOUND ( 'NONE', #442, .T. ) ;
#558 = DIRECTION ( 'NONE',  ( 0.000000000000000000, 0.000000000000000000, -1.000000000000000000 ) ) ;
#559 = PLANE ( 'NONE',  #298 ) ;
#560 = CARTESIAN_POINT ( 'NONE',  ( 0.000000000000000000, 0.000000000000000000, 31.00000000000000000 ) ) ;
#561 = AXIS2_PLACEMENT_3D ( 'NONE', #574, #526, #75 ) ;
#562 = APPROVAL_PERSON_ORGANIZATION ( #269, #318, #415 ) ;
#563 = AXIS2_PLACEMENT_3D ( 'NONE', #560, #383, #511 ) ;
#564 = VERTEX_POINT ( 'NONE', #418 ) ;
#565 = CARTESIAN_POINT ( 'NONE',  ( 0.000000000000000000, 0.000000000000000000, 31.00000000000000000 ) ) ;
#566 = ORIENTED_EDGE ( 'NONE', *, *, #151, .T. ) ;
#567 = ADVANCED_FACE ( 'NONE', ( #195 ), #554, .F. ) ;
#568 = ORIENTED_EDGE ( 'NONE', *, *, #460, .T. ) ;
#569 = TOROIDAL_SURFACE ( 'NONE', #141, 19.50000000000000355, 2.000000000000000000 ) ;
#570 = ORIENTED_EDGE ( 'NONE', *, *, #460, .F. ) ;
#571 = CARTESIAN_POINT ( 'NONE',  ( 0.000000000000000000, 0.000000000000000000, -2.000000000000000000 ) ) ;
#572 = EDGE_CURVE ( 'NONE', #478, #529, #262, .T. ) ;
#573 = ORIENTED_EDGE ( 'NONE', *, *, #346, .F. ) ;
#574 = CARTESIAN_POINT ( 'NONE',  ( 0.000000000000000000, 0.000000000000000000, 45.00000000000000000 ) ) ;
#575 = EDGE_CURVE ( 'NONE', #117, #116, #251, .T. ) ;
#576 = ORIENTED_EDGE ( 'NONE', *, *, #444, .T. ) ;
#577 = APPROVAL ( #208, 'UNSPECIFIED' ) ;
#578 = ORIENTED_EDGE ( 'NONE', *, *, #15, .F. ) ;
#579 = CIRCLE ( 'NONE', #221, 21.50000000000000355 ) ;
#580 = DIRECTION ( 'NONE',  ( -1.000000000000000000, -1.224646799147351482E-16, 0.000000000000000000 ) ) ;
#581 = ORIENTED_EDGE ( 'NONE', *, *, #487, .T. ) ;
#582 = CALENDAR_DATE ( 2026, 30, 5 ) ;
#583 = CARTESIAN_POINT ( 'NONE',  ( 7.550000000000000711, 0.000000000000000000, 46.00000000000000000 ) ) ;
#584 = ORIENTED_EDGE ( 'NONE', *, *, #253, .F. ) ;
#585 = DIRECTION ( 'NONE',  ( -0.000000000000000000, -0.000000000000000000, 1.000000000000000000 ) ) ;
#586 = EDGE_LOOP ( 'NONE', ( #263, #296 ) ) ;
#587 = ORGANIZATION ( 'UNSPECIFIED', 'UNSPECIFIED', '' ) ;
#588 = CARTESIAN_POINT ( 'NONE',  ( 0.000000000000000000, 0.000000000000000000, 46.00000000000000000 ) ) ;
#589 = EDGE_CURVE ( 'NONE', #171, #255, #272, .T. ) ;
#590 = CYLINDRICAL_SURFACE ( 'NONE', #94, 21.50000000000000355 ) ;
#591 = CARTESIAN_POINT ( 'NONE',  ( 0.000000000000000000, 0.000000000000000000, 46.00000000000000000 ) ) ;
#592 = EDGE_CURVE ( 'NONE', #338, #113, #96, .T. ) ;
#593 = FACE_BOUND ( 'NONE', #105, .T. ) ;
ENDSEC;
END-ISO-10303-21;
