ISO-10303-21;
HEADER;
FILE_DESCRIPTION (( 'STEP AP203' ),
    '1' );
FILE_NAME ('EDM Receiver Pulley.STEP',
    '2026-05-30T22:34:15',
    ( '' ),
    ( '' ),
    'SwSTEP 2.0',
    'SolidWorks 2024',
    '' );
FILE_SCHEMA (( 'CONFIG_CONTROL_DESIGN' ));
ENDSEC;

DATA;
#1 = DIRECTION ( 'NONE',  ( -1.000000000000000000, 0.000000000000000000, 0.000000000000000000 ) ) ;
#2 = ORIENTED_EDGE ( 'NONE', *, *, #16, .F. ) ;
#3 = AXIS2_PLACEMENT_3D ( 'NONE', #441, #125, #278 ) ;
#4 = DIRECTION ( 'NONE',  ( 0.000000000000000000, 0.000000000000000000, -1.000000000000000000 ) ) ;
#5 = ORIENTED_EDGE ( 'NONE', *, *, #578, .F. ) ;
#6 = CARTESIAN_POINT ( 'NONE',  ( 0.000000000000000000, 0.000000000000000000, 23.59999999999999787 ) ) ;
#7 = ORIENTED_EDGE ( 'NONE', *, *, #500, .F. ) ;
#8 = EDGE_CURVE ( 'NONE', #448, #651, #227, .T. ) ;
#9 = CARTESIAN_POINT ( 'NONE',  ( 0.000000000000000000, 0.000000000000000000, 26.10000000000000142 ) ) ;
#10 = CARTESIAN_POINT ( 'NONE',  ( 14.47500000000000142, 0.000000000000000000, 26.10000000000000142 ) ) ;
#11 = CIRCLE ( 'NONE', #37, 14.97500000000000142 ) ;
#12 = TOROIDAL_SURFACE ( 'NONE', #39, 14.47500000000000142, 0.5000000000000000000 ) ;
#13 = DIRECTION ( 'NONE',  ( 1.000000000000000000, 0.000000000000000000, 0.000000000000000000 ) ) ;
#14 = ORIENTED_EDGE ( 'NONE', *, *, #124, .F. ) ;
#15 = PLANE ( 'NONE',  #696 ) ;
#16 = EDGE_CURVE ( 'NONE', #156, #184, #490, .T. ) ;
#17 = DIRECTION ( 'NONE',  ( -0.000000000000000000, -0.000000000000000000, 1.000000000000000000 ) ) ;
#18 = DATE_AND_TIME ( #28, #493 ) ;
#19 = CARTESIAN_POINT ( 'NONE',  ( 14.47500000000000142, 0.000000000000000000, 25.60000000000000142 ) ) ;
#20 = FACE_OUTER_BOUND ( 'NONE', #175, .T. ) ;
#21 = EDGE_CURVE ( 'NONE', #426, #365, #66, .T. ) ;
#22 = ORIENTED_EDGE ( 'NONE', *, *, #665, .F. ) ;
#23 = COORDINATED_UNIVERSAL_TIME_OFFSET ( 8, 0, .BEHIND. ) ;
#24 = DIRECTION ( 'NONE',  ( 0.000000000000000000, -1.000000000000000000, 0.000000000000000000 ) ) ;
#25 = CIRCLE ( 'NONE', #457, 14.97499999999999964 ) ;
#26 = DIRECTION ( 'NONE',  ( 0.000000000000000000, 0.000000000000000000, 1.000000000000000000 ) ) ;
#27 = EDGE_LOOP ( 'NONE', ( #7, #391, #487, #53 ) ) ;
#28 = CALENDAR_DATE ( 2026, 30, 5 ) ;
#29 = CARTESIAN_POINT ( 'NONE',  ( 0.000000000000000000, 0.000000000000000000, -23.59999999999999787 ) ) ;
#30 = DIRECTION ( 'NONE',  ( 0.000000000000000000, 0.000000000000000000, -1.000000000000000000 ) ) ;
#31 = CALENDAR_DATE ( 2026, 30, 5 ) ;
#32 = CARTESIAN_POINT ( 'NONE',  ( 0.000000000000000000, 0.000000000000000000, -25.60000000000000142 ) ) ;
#33 = DIRECTION ( 'NONE',  ( 1.000000000000000000, 0.000000000000000000, 0.000000000000000000 ) ) ;
#34 = ORIENTED_EDGE ( 'NONE', *, *, #8, .F. ) ;
#35 = DATE_TIME_ROLE ( 'classification_date' ) ;
#36 = PERSON_AND_ORGANIZATION_ROLE ( 'design_owner' ) ;
#37 = AXIS2_PLACEMENT_3D ( 'NONE', #607, #666, #57 ) ;
#38 = FACE_OUTER_BOUND ( 'NONE', #638, .T. ) ;
#39 = AXIS2_PLACEMENT_3D ( 'NONE', #9, #336, #496 ) ;
#40 = ORIENTED_EDGE ( 'NONE', *, *, #186, .T. ) ;
#41 = CARTESIAN_POINT ( 'NONE',  ( -14.00000000000000000, 0.000000000000000000, 25.60000000000000142 ) ) ;
#42 = DIRECTION ( 'NONE',  ( -0.000000000000000000, -0.000000000000000000, 1.000000000000000000 ) ) ;
#43 = EDGE_CURVE ( 'NONE', #461, #555, #11, .T. ) ;
#44 = ORIENTED_EDGE ( 'NONE', *, *, #376, .F. ) ;
#45 = CARTESIAN_POINT ( 'NONE',  ( 0.000000000000000000, 0.000000000000000000, -23.59999999999999787 ) ) ;
#46 = ORIENTED_EDGE ( 'NONE', *, *, #500, .T. ) ;
#47 = DIRECTION ( 'NONE',  ( 1.000000000000000000, 0.000000000000000000, 0.000000000000000000 ) ) ;
#48 = ORIENTED_EDGE ( 'NONE', *, *, #8, .T. ) ;
#49 = AXIS2_PLACEMENT_3D ( 'NONE', #369, #258, #699 ) ;
#50 = AXIS2_PLACEMENT_3D ( 'NONE', #223, #654, #171 ) ;
#51 = ADVANCED_FACE ( 'NONE', ( #63, #286 ), #224, .F. ) ;
#52 = FACE_OUTER_BOUND ( 'NONE', #370, .T. ) ;
#53 = ORIENTED_EDGE ( 'NONE', *, *, #68, .F. ) ;
#54 = FACE_OUTER_BOUND ( 'NONE', #339, .T. ) ;
#55 = VERTEX_POINT ( 'NONE', #507 ) ;
#56 = DIRECTION ( 'NONE',  ( 1.000000000000000000, 0.000000000000000000, 0.000000000000000000 ) ) ;
#57 = DIRECTION ( 'NONE',  ( 1.000000000000000000, 0.000000000000000000, 0.000000000000000000 ) ) ;
#58 = CIRCLE ( 'NONE', #455, 14.97499999999999964 ) ;
#59 = TOROIDAL_SURFACE ( 'NONE', #396, 14.47499999999999964, 0.5000000000000000000 ) ;
#60 = ORIENTED_EDGE ( 'NONE', *, *, #342, .F. ) ;
#61 = EDGE_CURVE ( 'NONE', #55, #279, #656, .T. ) ;
#62 = DIRECTION ( 'NONE',  ( 0.000000000000000000, 0.000000000000000000, -1.000000000000000000 ) ) ;
#63 = FACE_OUTER_BOUND ( 'NONE', #351, .T. ) ;
#64 = CC_DESIGN_PERSON_AND_ORGANIZATION_ASSIGNMENT ( #403, #524, ( #399 ) ) ;
#65 = CARTESIAN_POINT ( 'NONE',  ( -14.47500000000000142, 1.772676241765793873E-15, 23.59999999999999787 ) ) ;
#66 = LINE ( 'NONE', #70, #513 ) ;
#67 = AXIS2_PLACEMENT_3D ( 'NONE', #178, #88, #675 ) ;
#68 = EDGE_CURVE ( 'NONE', #619, #461, #639, .T. ) ;
#69 = AXIS2_PLACEMENT_3D ( 'NONE', #95, #427, #591 ) ;
#70 = CARTESIAN_POINT ( 'NONE',  ( 14.97499999999999964, 0.000000000000000000, -28.20000000000000284 ) ) ;
#71 = FACE_OUTER_BOUND ( 'NONE', #553, .T. ) ;
#72 = CARTESIAN_POINT ( 'NONE',  ( -14.97500000000000142, 0.000000000000000000, 28.20000000000000284 ) ) ;
#73 = ORIENTED_EDGE ( 'NONE', *, *, #692, .T. ) ;
#74 = PERSON_AND_ORGANIZATION ( #452, #139 ) ;
#75 = CARTESIAN_POINT ( 'NONE',  ( 0.000000000000000000, 0.000000000000000000, 28.20000000000000284 ) ) ;
#76 = DIRECTION ( 'NONE',  ( 0.000000000000000000, 0.000000000000000000, 1.000000000000000000 ) ) ;
#77 = ORIENTED_EDGE ( 'NONE', *, *, #289, .T. ) ;
#78 = DIRECTION ( 'NONE',  ( -0.000000000000000000, -0.000000000000000000, -1.000000000000000000 ) ) ;
#79 = AXIS2_PLACEMENT_3D ( 'NONE', #232, #349, #569 ) ;
#80 = DIRECTION ( 'NONE',  ( 0.000000000000000000, 0.000000000000000000, 1.000000000000000000 ) ) ;
#81 = ORIENTED_EDGE ( 'NONE', *, *, #514, .T. ) ;
#82 = PRODUCT ( 'EDM Receiver Pulley', 'EDM Receiver Pulley', '', ( #479 ) ) ;
#83 = CARTESIAN_POINT ( 'NONE',  ( -14.00000000000000000, 1.714505518806294638E-15, -25.60000000000000142 ) ) ;
#84 = FACE_BOUND ( 'NONE', #406, .T. ) ;
#85 = ORIENTED_EDGE ( 'NONE', *, *, #589, .T. ) ;
#86 = CC_DESIGN_PERSON_AND_ORGANIZATION_ASSIGNMENT ( #526, #36, ( #82 ) ) ;
#87 = APPROVAL_ROLE ( '' ) ;
#88 = DIRECTION ( 'NONE',  ( 1.224646799147353207E-16, 1.000000000000000000, -0.000000000000000000 ) ) ;
#89 = ORIENTED_EDGE ( 'NONE', *, *, #514, .F. ) ;
#90 = SHAPE_DEFINITION_REPRESENTATION ( #679, #291 ) ;
#91 = EDGE_CURVE ( 'NONE', #448, #461, #226, .T. ) ;
#92 = ADVANCED_FACE ( 'NONE', ( #20 ), #409, .T. ) ;
#93 = CARTESIAN_POINT ( 'NONE',  ( -14.47500000000000142, 1.803292411744477660E-15, 24.10000000000000142 ) ) ;
#94 = AXIS2_PLACEMENT_3D ( 'NONE', #290, #76, #415 ) ;
#95 = CARTESIAN_POINT ( 'NONE',  ( 0.000000000000000000, 0.000000000000000000, 24.10000000000000142 ) ) ;
#96 = AXIS2_PLACEMENT_3D ( 'NONE', #128, #354, #400 ) ;
#97 = ORIENTED_EDGE ( 'NONE', *, *, #236, .F. ) ;
#98 = LOCAL_TIME ( 15, 34, 15.00000000000000000, #23 ) ;
#99 = APPROVAL ( #462, 'UNSPECIFIED' ) ;
#100 = CARTESIAN_POINT ( 'NONE',  ( 14.97500000000000142, 0.000000000000000000, -24.10000000000000142 ) ) ;
#101 = ORIENTED_EDGE ( 'NONE', *, *, #589, .F. ) ;
#102 = DIRECTION ( 'NONE',  ( -0.000000000000000000, -0.000000000000000000, -1.000000000000000000 ) ) ;
#103 = EDGE_LOOP ( 'NONE', ( #481, #318 ) ) ;
#104 = DIRECTION ( 'NONE',  ( -1.000000000000000000, 0.000000000000000000, 0.000000000000000000 ) ) ;
#105 = ORIENTED_EDGE ( 'NONE', *, *, #665, .T. ) ;
#106 = AXIS2_PLACEMENT_3D ( 'NONE', #188, #344, #671 ) ;
#107 = CC_DESIGN_PERSON_AND_ORGANIZATION_ASSIGNMENT ( #179, #634, ( #698 ) ) ;
#108 = AXIS2_PLACEMENT_3D ( 'NONE', #333, #4, #492 ) ;
#109 = LOCAL_TIME ( 15, 34, 15.00000000000000000, #520 ) ;
#110 = DIRECTION ( 'NONE',  ( 0.000000000000000000, 0.000000000000000000, -1.000000000000000000 ) ) ;
#111 = EDGE_LOOP ( 'NONE', ( #194, #628, #348, #533 ) ) ;
#112 = CARTESIAN_POINT ( 'NONE',  ( 14.97500000000000142, 1.833908581723161841E-15, 26.10000000000000142 ) ) ;
#113 = EDGE_LOOP ( 'NONE', ( #466, #5, #694, #676 ) ) ;
#114 = EDGE_CURVE ( 'NONE', #555, #461, #319, .T. ) ;
#115 = CARTESIAN_POINT ( 'NONE',  ( 0.000000000000000000, 0.000000000000000000, -28.20000000000000284 ) ) ;
#116 = DIRECTION ( 'NONE',  ( -0.000000000000000000, -0.000000000000000000, 1.000000000000000000 ) ) ;
#117 = CIRCLE ( 'NONE', #264, 14.97499999999999964 ) ;
#118 = AXIS2_PLACEMENT_3D ( 'NONE', #435, #165, #174 ) ;
#119 = CARTESIAN_POINT ( 'NONE',  ( 14.00000000000000000, 0.000000000000000000, -25.60000000000000142 ) ) ;
#120 = ADVANCED_FACE ( 'NONE', ( #460, #241 ), #678, .T. ) ;
#121 = ORIENTED_EDGE ( 'NONE', *, *, #633, .F. ) ;
#122 = CARTESIAN_POINT ( 'NONE',  ( -14.47500000000000142, 1.803292411744477660E-15, -24.10000000000000142 ) ) ;
#123 = DIRECTION ( 'NONE',  ( 0.000000000000000000, 0.000000000000000000, -1.000000000000000000 ) ) ;
#124 = EDGE_CURVE ( 'NONE', #651, #555, #622, .T. ) ;
#125 = DIRECTION ( 'NONE',  ( 0.000000000000000000, 0.000000000000000000, 1.000000000000000000 ) ) ;
#126 = EDGE_LOOP ( 'NONE', ( #503, #292, #647, #214 ) ) ;
#127 = AXIS2_PLACEMENT_3D ( 'NONE', #506, #393, #453 ) ;
#128 = CARTESIAN_POINT ( 'NONE',  ( 0.000000000000000000, 0.000000000000000000, -24.10000000000000142 ) ) ;
#129 = CARTESIAN_POINT ( 'NONE',  ( -14.97499999999999964, 1.833908581723161447E-15, -28.20000000000000284 ) ) ;
#130 = DIRECTION ( 'NONE',  ( 1.000000000000000000, 0.000000000000000000, 0.000000000000000000 ) ) ;
#131 = CARTESIAN_POINT ( 'NONE',  ( 0.000000000000000000, 0.000000000000000000, -24.10000000000000142 ) ) ;
#132 = EDGE_LOOP ( 'NONE', ( #73, #46 ) ) ;
#133 = EDGE_CURVE ( 'NONE', #434, #259, #355, .T. ) ;
#134 = CARTESIAN_POINT ( 'NONE',  ( 14.97500000000000142, 0.000000000000000000, 23.59999999999999787 ) ) ;
#135 = CARTESIAN_POINT ( 'NONE',  ( 0.000000000000000000, 0.000000000000000000, -26.10000000000000142 ) ) ;
#136 = AXIS2_PLACEMENT_3D ( 'NONE', #559, #334, #123 ) ;
#137 = CIRCLE ( 'NONE', #50, 14.97499999999999964 ) ;
#138 = CARTESIAN_POINT ( 'NONE',  ( 0.000000000000000000, 0.000000000000000000, -28.20000000000000284 ) ) ;
#139 = ORGANIZATION ( 'UNSPECIFIED', 'UNSPECIFIED', '' ) ;
#140 = EDGE_LOOP ( 'NONE', ( #381, #653, #105, #523 ) ) ;
#141 = CALENDAR_DATE ( 2026, 30, 5 ) ;
#142 = CARTESIAN_POINT ( 'NONE',  ( -14.97500000000000142, 0.000000000000000000, 28.20000000000000284 ) ) ;
#143 = PLANE ( 'NONE',  #275 ) ;
#144 = ORIENTED_EDGE ( 'NONE', *, *, #243, .T. ) ;
#145 = EDGE_CURVE ( 'NONE', #443, #555, #669, .T. ) ;
#146 =( LENGTH_UNIT ( ) NAMED_UNIT ( * ) SI_UNIT ( .MILLI., .METRE. ) );
#147 = DIRECTION ( 'NONE',  ( -0.000000000000000000, -0.000000000000000000, -1.000000000000000000 ) ) ;
#148 = DIRECTION ( 'NONE',  ( 1.000000000000000000, 0.000000000000000000, 0.000000000000000000 ) ) ;
#149 = AXIS2_PLACEMENT_3D ( 'NONE', #360, #642, #150 ) ;
#150 = DIRECTION ( 'NONE',  ( 1.000000000000000000, 0.000000000000000000, 0.000000000000000000 ) ) ;
#151 = CIRCLE ( 'NONE', #504, 14.47500000000000142 ) ;
#152 = ORIENTED_EDGE ( 'NONE', *, *, #271, .F. ) ;
#153 = VERTEX_POINT ( 'NONE', #632 ) ;
#154 = DIRECTION ( 'NONE',  ( 0.000000000000000000, 0.000000000000000000, 1.000000000000000000 ) ) ;
#155 = APPROVAL ( #516, 'UNSPECIFIED' ) ;
#156 = VERTEX_POINT ( 'NONE', #134 ) ;
#157 = CARTESIAN_POINT ( 'NONE',  ( 14.97499999999999964, 0.000000000000000000, -26.10000000000000142 ) ) ;
#158 = CIRCLE ( 'NONE', #482, 14.00000000000000000 ) ;
#159 = ORIENTED_EDGE ( 'NONE', *, *, #662, .T. ) ;
#160 = TOROIDAL_SURFACE ( 'NONE', #558, 14.47500000000000142, 0.5000000000000000000 ) ;
#161 = AXIS2_PLACEMENT_3D ( 'NONE', #652, #661, #438 ) ;
#162 = FACE_OUTER_BOUND ( 'NONE', #368, .T. ) ;
#163 = ORIENTED_EDGE ( 'NONE', *, *, #315, .F. ) ;
#164 = ADVANCED_FACE ( 'NONE', ( #38 ), #512, .T. ) ;
#165 = DIRECTION ( 'NONE',  ( 0.000000000000000000, 0.000000000000000000, 1.000000000000000000 ) ) ;
#166 = ORIENTED_EDGE ( 'NONE', *, *, #626, .T. ) ;
#167 = DIRECTION ( 'NONE',  ( -1.000000000000000000, 0.000000000000000000, 0.000000000000000000 ) ) ;
#168 = ORIENTED_EDGE ( 'NONE', *, *, #418, .T. ) ;
#169 = CIRCLE ( 'NONE', #69, 14.00000000000000000 ) ;
#170 = CIRCLE ( 'NONE', #573, 14.47500000000000142 ) ;
#171 = DIRECTION ( 'NONE',  ( -1.000000000000000000, 0.000000000000000000, 0.000000000000000000 ) ) ;
#172 = ADVANCED_FACE ( 'NONE', ( #474 ), #235, .T. ) ;
#173 = ORIENTED_EDGE ( 'NONE', *, *, #392, .F. ) ;
#174 = DIRECTION ( 'NONE',  ( 1.000000000000000000, 0.000000000000000000, 0.000000000000000000 ) ) ;
#175 = EDGE_LOOP ( 'NONE', ( #276, #256, #389, #144 ) ) ;
#176 = APPROVAL ( #677, 'UNSPECIFIED' ) ;
#177 = CARTESIAN_POINT ( 'NONE',  ( 14.47500000000000142, 0.000000000000000000, -23.59999999999999787 ) ) ;
#178 = CARTESIAN_POINT ( 'NONE',  ( -14.47500000000000142, 1.772676241765793873E-15, 26.10000000000000142 ) ) ;
#179 = PERSON_AND_ORGANIZATION ( #452, #139 ) ;
#180 = VECTOR ( 'NONE', #567, 1000.000000000000000 ) ;
#181 = CIRCLE ( 'NONE', #127, 14.47499999999999964 ) ;
#182 = FACE_OUTER_BOUND ( 'NONE', #296, .T. ) ;
#183 = CARTESIAN_POINT ( 'NONE',  ( 0.000000000000000000, 0.000000000000000000, 25.60000000000000142 ) ) ;
#184 = VERTEX_POINT ( 'NONE', #401 ) ;
#185 = SECURITY_CLASSIFICATION_LEVEL ( 'unclassified' ) ;
#186 = EDGE_CURVE ( 'NONE', #212, #308, #350, .T. ) ;
#187 = DIRECTION ( 'NONE',  ( 0.000000000000000000, 0.000000000000000000, 1.000000000000000000 ) ) ;
#188 = CARTESIAN_POINT ( 'NONE',  ( 0.000000000000000000, 0.000000000000000000, -24.10000000000000142 ) ) ;
#189 = VERTEX_POINT ( 'NONE', #618 ) ;
#190 = DATE_AND_TIME ( #293, #387 ) ;
#191 = CC_DESIGN_PERSON_AND_ORGANIZATION_ASSIGNMENT ( #302, #673, ( #571 ) ) ;
#192 = DIRECTION ( 'NONE',  ( -1.000000000000000000, 0.000000000000000000, 0.000000000000000000 ) ) ;
#193 = DIRECTION ( 'NONE',  ( -0.000000000000000000, -0.000000000000000000, 1.000000000000000000 ) ) ;
#194 = ORIENTED_EDGE ( 'NONE', *, *, #186, .F. ) ;
#195 = APPROVAL_ROLE ( '' ) ;
#196 = DIRECTION ( 'NONE',  ( -1.224646799147353207E-16, 1.000000000000000000, 0.000000000000000000 ) ) ;
#197 = AXIS2_PLACEMENT_3D ( 'NONE', #213, #417, #532 ) ;
#198 = CIRCLE ( 'NONE', #3, 14.97500000000000142 ) ;
#199 = CARTESIAN_POINT ( 'NONE',  ( 0.000000000000000000, 0.000000000000000000, -28.20000000000000284 ) ) ;
#200 = ADVANCED_FACE ( 'NONE', ( #307, #84 ), #143, .F. ) ;
#201 = VERTEX_POINT ( 'NONE', #570 ) ;
#202 =( NAMED_UNIT ( * ) PLANE_ANGLE_UNIT ( ) SI_UNIT ( $, .RADIAN. ) );
#203 = CARTESIAN_POINT ( 'NONE',  ( 14.47499999999999964, 1.803292411744477660E-15, -25.60000000000000142 ) ) ;
#204 = FACE_OUTER_BOUND ( 'NONE', #419, .T. ) ;
#205 = ORIENTED_EDGE ( 'NONE', *, *, #598, .T. ) ;
#206 = CIRCLE ( 'NONE', #395, 14.00000000000000000 ) ;
#207 = CARTESIAN_POINT ( 'NONE',  ( 0.000000000000000000, 0.000000000000000000, 25.60000000000000142 ) ) ;
#208 = CIRCLE ( 'NONE', #299, 14.00000000000000000 ) ;
#209 = ORIENTED_EDGE ( 'NONE', *, *, #114, .F. ) ;
#210 = ADVANCED_FACE ( 'NONE', ( #405 ), #625, .T. ) ;
#211 = CARTESIAN_POINT ( 'NONE',  ( 0.000000000000000000, 0.000000000000000000, 24.10000000000000142 ) ) ;
#212 = VERTEX_POINT ( 'NONE', #518 ) ;
#213 = CARTESIAN_POINT ( 'NONE',  ( 0.000000000000000000, 0.000000000000000000, 25.60000000000000142 ) ) ;
#214 = ORIENTED_EDGE ( 'NONE', *, *, #215, .F. ) ;
#215 = EDGE_CURVE ( 'NONE', #365, #643, #117, .T. ) ;
#216 = CIRCLE ( 'NONE', #572, 14.00000000000000000 ) ;
#217 = ORIENTED_EDGE ( 'NONE', *, *, #633, .T. ) ;
#218 = EDGE_CURVE ( 'NONE', #643, #365, #58, .T. ) ;
#219 = CIRCLE ( 'NONE', #374, 0.5000000000000004441 ) ;
#220 = DIRECTION ( 'NONE',  ( -0.000000000000000000, -0.000000000000000000, -1.000000000000000000 ) ) ;
#221 = ORIENTED_EDGE ( 'NONE', *, *, #133, .F. ) ;
#222 = EDGE_CURVE ( 'NONE', #153, #643, #522, .T. ) ;
#223 = CARTESIAN_POINT ( 'NONE',  ( 0.000000000000000000, 0.000000000000000000, -28.20000000000000284 ) ) ;
#224 = PLANE ( 'NONE',  #353 ) ;
#225 = DIRECTION ( 'NONE',  ( 0.000000000000000000, 0.000000000000000000, 1.000000000000000000 ) ) ;
#226 = LINE ( 'NONE', #347, #180 ) ;
#227 = CIRCLE ( 'NONE', #238, 14.97500000000000142 ) ;
#228 = AXIS2_PLACEMENT_3D ( 'NONE', #177, #24, #234 ) ;
#229 = EDGE_CURVE ( 'NONE', #592, #587, #216, .T. ) ;
#230 = CARTESIAN_POINT ( 'NONE',  ( 0.000000000000000000, 0.000000000000000000, -26.10000000000000142 ) ) ;
#231 = EDGE_LOOP ( 'NONE', ( #691, #663 ) ) ;
#232 = CARTESIAN_POINT ( 'NONE',  ( 0.000000000000000000, 0.000000000000000000, -24.10000000000000142 ) ) ;
#233 = CARTESIAN_POINT ( 'NONE',  ( 0.000000000000000000, 0.000000000000000000, 28.20000000000000284 ) ) ;
#234 = DIRECTION ( 'NONE',  ( 0.000000000000000000, 0.000000000000000000, -1.000000000000000000 ) ) ;
#235 = CYLINDRICAL_SURFACE ( 'NONE', #106, 14.97500000000000142 ) ;
#236 = EDGE_CURVE ( 'NONE', #156, #308, #330, .T. ) ;
#237 = DATE_AND_TIME ( #31, #109 ) ;
#238 = AXIS2_PLACEMENT_3D ( 'NONE', #233, #609, #547 ) ;
#239 = VECTOR ( 'NONE', #261, 1000.000000000000000 ) ;
#240 = FACE_OUTER_BOUND ( 'NONE', #132, .T. ) ;
#241 = FACE_BOUND ( 'NONE', #456, .T. ) ;
#242 = ORIENTED_EDGE ( 'NONE', *, *, #626, .F. ) ;
#243 = EDGE_CURVE ( 'NONE', #189, #485, #206, .T. ) ;
#244 = APPROVAL_DATE_TIME ( #458, #155 ) ;
#245 = LINE ( 'NONE', #41, #560 ) ;
#246 = CARTESIAN_POINT ( 'NONE',  ( -14.97500000000000142, 1.833908581723161841E-15, -24.10000000000000142 ) ) ;
#247 = ADVANCED_FACE ( 'NONE', ( #54 ), #605, .T. ) ;
#248 = DIRECTION ( 'NONE',  ( 1.000000000000000000, 0.000000000000000000, -0.000000000000000000 ) ) ;
#249 = DIRECTION ( 'NONE',  ( 0.000000000000000000, 0.000000000000000000, 1.000000000000000000 ) ) ;
#250 = ORIENTED_EDGE ( 'NONE', *, *, #21, .T. ) ;
#251 = AXIS2_PLACEMENT_3D ( 'NONE', #317, #536, #104 ) ;
#252 = APPLICATION_PROTOCOL_DEFINITION ( 'international standard', 'config_control_design', 1994, #597 ) ;
#253 = AXIS2_PLACEMENT_3D ( 'NONE', #429, #102, #646 ) ;
#254 = DIRECTION ( 'NONE',  ( -0.000000000000000000, -0.000000000000000000, 1.000000000000000000 ) ) ;
#255 = CC_DESIGN_APPROVAL ( #155, ( #571 ) ) ;
#256 = ORIENTED_EDGE ( 'NONE', *, *, #229, .F. ) ;
#257 = DIRECTION ( 'NONE',  ( 1.000000000000000000, 0.000000000000000000, 0.000000000000000000 ) ) ;
#258 = DIRECTION ( 'NONE',  ( -0.000000000000000000, -0.000000000000000000, -1.000000000000000000 ) ) ;
#259 = VERTEX_POINT ( 'NONE', #702 ) ;
#260 = FACE_OUTER_BOUND ( 'NONE', #685, .T. ) ;
#261 = DIRECTION ( 'NONE',  ( 0.000000000000000000, 0.000000000000000000, 1.000000000000000000 ) ) ;
#262 = ORIENTED_EDGE ( 'NONE', *, *, #287, .T. ) ;
#263 = EDGE_CURVE ( 'NONE', #270, #402, #548, .T. ) ;
#264 = AXIS2_PLACEMENT_3D ( 'NONE', #394, #30, #527 ) ;
#265 = DIRECTION ( 'NONE',  ( -0.000000000000000000, -0.000000000000000000, -1.000000000000000000 ) ) ;
#266 = AXIS2_PLACEMENT_3D ( 'NONE', #135, #562, #192 ) ;
#267 = ORIENTED_EDGE ( 'NONE', *, *, #566, .F. ) ;
#268 = AXIS2_PLACEMENT_3D ( 'NONE', #359, #636, #148 ) ;
#269 = CARTESIAN_POINT ( 'NONE',  ( 0.000000000000000000, 0.000000000000000000, 25.60000000000000142 ) ) ;
#270 = VERTEX_POINT ( 'NONE', #540 ) ;
#271 = EDGE_CURVE ( 'NONE', #308, #156, #695, .T. ) ;
#272 = DIRECTION ( 'NONE',  ( 1.000000000000000000, 0.000000000000000000, 0.000000000000000000 ) ) ;
#273 = ORIENTED_EDGE ( 'NONE', *, *, #447, .T. ) ;
#274 = CYLINDRICAL_SURFACE ( 'NONE', #118, 14.97500000000000142 ) ;
#275 = AXIS2_PLACEMENT_3D ( 'NONE', #131, #26, #358 ) ;
#276 = ORIENTED_EDGE ( 'NONE', *, *, #289, .F. ) ;
#277 = CIRCLE ( 'NONE', #472, 14.47500000000000142 ) ;
#278 = DIRECTION ( 'NONE',  ( 1.000000000000000000, 0.000000000000000000, 0.000000000000000000 ) ) ;
#279 = VERTEX_POINT ( 'NONE', #203 ) ;
#280 = CARTESIAN_POINT ( 'NONE',  ( 0.000000000000000000, 0.000000000000000000, -24.10000000000000142 ) ) ;
#281 = DIRECTION ( 'NONE',  ( -1.000000000000000000, 0.000000000000000000, 0.000000000000000000 ) ) ;
#282 = FACE_OUTER_BOUND ( 'NONE', #111, .T. ) ;
#283 = DIRECTION ( 'NONE',  ( -1.000000000000000000, 0.000000000000000000, -0.000000000000000000 ) ) ;
#284 = CIRCLE ( 'NONE', #444, 0.5000000000000004441 ) ;
#285 = LINE ( 'NONE', #83, #491 ) ;
#286 = FACE_BOUND ( 'NONE', #103, .T. ) ;
#287 = EDGE_CURVE ( 'NONE', #587, #592, #384, .T. ) ;
#288 = CARTESIAN_POINT ( 'NONE',  ( -14.47500000000000142, 1.772676241765793873E-15, -23.59999999999999787 ) ) ;
#289 = EDGE_CURVE ( 'NONE', #587, #485, #425, .T. ) ;
#290 = CARTESIAN_POINT ( 'NONE',  ( 0.000000000000000000, 0.000000000000000000, 26.10000000000000142 ) ) ;
#291 = ADVANCED_BREP_SHAPE_REPRESENTATION ( 'EDM Receiver Pulley', ( #601, #268 ), #323 ) ;
#292 = ORIENTED_EDGE ( 'NONE', *, *, #61, .F. ) ;
#293 = CALENDAR_DATE ( 2026, 30, 5 ) ;
#294 = DIRECTION ( 'NONE',  ( 0.000000000000000000, 0.000000000000000000, -1.000000000000000000 ) ) ;
#295 = DIRECTION ( 'NONE',  ( 1.000000000000000000, 0.000000000000000000, -0.000000000000000000 ) ) ;
#296 = EDGE_LOOP ( 'NONE', ( #163, #205, #166, #221 ) ) ;
#297 = DATE_TIME_ROLE ( 'creation_date' ) ;
#298 = AXIS2_PLACEMENT_3D ( 'NONE', #689, #265, #484 ) ;
#299 = AXIS2_PLACEMENT_3D ( 'NONE', #631, #294, #303 ) ;
#300 = CYLINDRICAL_SURFACE ( 'NONE', #529, 14.00000000000000000 ) ;
#301 = DIRECTION ( 'NONE',  ( -0.000000000000000000, -0.000000000000000000, 1.000000000000000000 ) ) ;
#302 = PERSON_AND_ORGANIZATION ( #452, #139 ) ;
#303 = DIRECTION ( 'NONE',  ( -1.000000000000000000, 0.000000000000000000, 0.000000000000000000 ) ) ;
#304 = DIRECTION ( 'NONE',  ( -1.000000000000000000, 0.000000000000000000, 0.000000000000000000 ) ) ;
#305 = ORIENTED_EDGE ( 'NONE', *, *, #697, .F. ) ;
#306 = PERSON_AND_ORGANIZATION_ROLE ( 'design_supplier' ) ;
#307 = FACE_OUTER_BOUND ( 'NONE', #231, .T. ) ;
#308 = VERTEX_POINT ( 'NONE', #644 ) ;
#309 = COORDINATED_UNIVERSAL_TIME_OFFSET ( 8, 0, .BEHIND. ) ;
#310 = AXIS2_PLACEMENT_3D ( 'NONE', #509, #249, #295 ) ;
#311 = AXIS2_PLACEMENT_3D ( 'NONE', #546, #220, #56 ) ;
#312 = CYLINDRICAL_SURFACE ( 'NONE', #251, 14.97500000000000142 ) ;
#313 = ORIENTED_EDGE ( 'NONE', *, *, #218, .T. ) ;
#314 = CARTESIAN_POINT ( 'NONE',  ( 0.000000000000000000, 0.000000000000000000, -25.60000000000000142 ) ) ;
#315 = EDGE_CURVE ( 'NONE', #581, #434, #158, .T. ) ;
#316 = ORIENTED_EDGE ( 'NONE', *, *, #371, .F. ) ;
#317 = CARTESIAN_POINT ( 'NONE',  ( 0.000000000000000000, 0.000000000000000000, 28.20000000000000284 ) ) ;
#318 = ORIENTED_EDGE ( 'NONE', *, *, #315, .T. ) ;
#319 = CIRCLE ( 'NONE', #94, 14.97500000000000142 ) ;
#320 = DIRECTION ( 'NONE',  ( 1.000000000000000000, 0.000000000000000000, 0.000000000000000000 ) ) ;
#321 = AXIS2_PLACEMENT_3D ( 'NONE', #6, #378, #446 ) ;
#322 = ORIENTED_EDGE ( 'NONE', *, *, #91, .F. ) ;
#323 =( GEOMETRIC_REPRESENTATION_CONTEXT ( 3 ) GLOBAL_UNCERTAINTY_ASSIGNED_CONTEXT ( ( #467 ) ) GLOBAL_UNIT_ASSIGNED_CONTEXT ( ( #146, #202, #530 ) ) REPRESENTATION_CONTEXT ( 'NONE', 'WORKASPACE' ) );
#324 = EDGE_CURVE ( 'NONE', #485, #189, #169, .T. ) ;
#325 = DIRECTION ( 'NONE',  ( 1.000000000000000000, 0.000000000000000000, 0.000000000000000000 ) ) ;
#326 = EDGE_LOOP ( 'NONE', ( #273, #81 ) ) ;
#327 = CARTESIAN_POINT ( 'NONE',  ( 0.000000000000000000, 0.000000000000000000, 23.59999999999999787 ) ) ;
#328 = DIRECTION ( 'NONE',  ( 0.000000000000000000, -1.000000000000000000, 0.000000000000000000 ) ) ;
#329 = DIRECTION ( 'NONE',  ( -1.000000000000000000, 0.000000000000000000, 0.000000000000000000 ) ) ;
#330 = CIRCLE ( 'NONE', #149, 14.97500000000000142 ) ;
#331 = ORIENTED_EDGE ( 'NONE', *, *, #68, .T. ) ;
#332 = CIRCLE ( 'NONE', #311, 14.47500000000000142 ) ;
#333 = CARTESIAN_POINT ( 'NONE',  ( 0.000000000000000000, 0.000000000000000000, -28.20000000000000284 ) ) ;
#334 = DIRECTION ( 'NONE',  ( 0.000000000000000000, -1.000000000000000000, 0.000000000000000000 ) ) ;
#335 = ADVANCED_FACE ( 'NONE', ( #52 ), #312, .T. ) ;
#336 = DIRECTION ( 'NONE',  ( 0.000000000000000000, 0.000000000000000000, 1.000000000000000000 ) ) ;
#337 = ORIENTED_EDGE ( 'NONE', *, *, #91, .T. ) ;
#338 = DIRECTION ( 'NONE',  ( 1.224646799147353207E-16, 1.000000000000000000, -0.000000000000000000 ) ) ;
#339 = EDGE_LOOP ( 'NONE', ( #267, #159, #60, #22 ) ) ;
#340 = AXIS2_PLACEMENT_3D ( 'NONE', #10, #328, #494 ) ;
#341 = APPROVAL_PERSON_ORGANIZATION ( #74, #99, #195 ) ;
#342 = EDGE_CURVE ( 'NONE', #416, #212, #557, .T. ) ;
#343 = FACE_OUTER_BOUND ( 'NONE', #537, .T. ) ;
#344 = DIRECTION ( 'NONE',  ( 0.000000000000000000, 0.000000000000000000, 1.000000000000000000 ) ) ;
#345 = APPROVAL_DATE_TIME ( #237, #99 ) ;
#346 = CARTESIAN_POINT ( 'NONE',  ( 0.000000000000000000, 0.000000000000000000, 25.60000000000000142 ) ) ;
#347 = CARTESIAN_POINT ( 'NONE',  ( 14.97500000000000142, 1.833908581723161841E-15, 28.20000000000000284 ) ) ;
#348 = ORIENTED_EDGE ( 'NONE', *, *, #376, .T. ) ;
#349 = DIRECTION ( 'NONE',  ( 0.000000000000000000, 0.000000000000000000, -1.000000000000000000 ) ) ;
#350 = LINE ( 'NONE', #246, #684 ) ;
#351 = EDGE_LOOP ( 'NONE', ( #489, #85 ) ) ;
#352 = COORDINATED_UNIVERSAL_TIME_OFFSET ( 8, 0, .BEHIND. ) ;
#353 = AXIS2_PLACEMENT_3D ( 'NONE', #439, #379, #283 ) ;
#354 = DIRECTION ( 'NONE',  ( -0.000000000000000000, -0.000000000000000000, -1.000000000000000000 ) ) ;
#355 = LINE ( 'NONE', #614, #411 ) ;
#356 = ORIENTED_EDGE ( 'NONE', *, *, #21, .F. ) ;
#357 = CARTESIAN_POINT ( 'NONE',  ( 14.00000000000000000, 1.714505518806294638E-15, 25.60000000000000142 ) ) ;
#358 = DIRECTION ( 'NONE',  ( 1.000000000000000000, 0.000000000000000000, -0.000000000000000000 ) ) ;
#359 = CARTESIAN_POINT ( 'NONE',  ( 0.000000000000000000, 0.000000000000000000, 0.000000000000000000 ) ) ;
#360 = CARTESIAN_POINT ( 'NONE',  ( 0.000000000000000000, 0.000000000000000000, 23.59999999999999787 ) ) ;
#361 = ADVANCED_FACE ( 'NONE', ( #204 ), #477, .T. ) ;
#362 = APPLICATION_PROTOCOL_DEFINITION ( 'international standard', 'config_control_design', 1994, #561 ) ;
#363 = AXIS2_PLACEMENT_3D ( 'NONE', #207, #552, #1 ) ;
#364 = FACE_OUTER_BOUND ( 'NONE', #113, .T. ) ;
#365 = VERTEX_POINT ( 'NONE', #157 ) ;
#366 = ADVANCED_FACE ( 'NONE', ( #364 ), #373, .T. ) ;
#367 = DIRECTION ( 'NONE',  ( -1.000000000000000000, 0.000000000000000000, 0.000000000000000000 ) ) ;
#368 = EDGE_LOOP ( 'NONE', ( #528, #97, #645, #316 ) ) ;
#369 = CARTESIAN_POINT ( 'NONE',  ( 0.000000000000000000, 0.000000000000000000, 23.59999999999999787 ) ) ;
#370 = EDGE_LOOP ( 'NONE', ( #34, #337, #478, #14 ) ) ;
#371 = EDGE_CURVE ( 'NONE', #703, #184, #151, .T. ) ;
#372 = VECTOR ( 'NONE', #147, 1000.000000000000000 ) ;
#373 = CYLINDRICAL_SURFACE ( 'NONE', #412, 14.00000000000000000 ) ;
#374 = AXIS2_PLACEMENT_3D ( 'NONE', #65, #338, #433 ) ;
#375 = ORIENTED_EDGE ( 'NONE', *, *, #287, .F. ) ;
#376 = EDGE_CURVE ( 'NONE', #416, #156, #586, .T. ) ;
#377 = DESIGN_CONTEXT ( 'detailed design', #597, 'design' ) ;
#378 = DIRECTION ( 'NONE',  ( 0.000000000000000000, 0.000000000000000000, 1.000000000000000000 ) ) ;
#379 = DIRECTION ( 'NONE',  ( 0.000000000000000000, 0.000000000000000000, -1.000000000000000000 ) ) ;
#380 = CARTESIAN_POINT ( 'NONE',  ( -14.47500000000000142, 1.803292411744477660E-15, 25.60000000000000142 ) ) ;
#381 = ORIENTED_EDGE ( 'NONE', *, *, #662, .F. ) ;
#382 = ADVANCED_FACE ( 'NONE', ( #480 ), #693, .T. ) ;
#383 = CARTESIAN_POINT ( 'NONE',  ( 14.97500000000000142, 0.000000000000000000, -23.59999999999999787 ) ) ;
#384 = CIRCLE ( 'NONE', #197, 14.00000000000000000 ) ;
#385 = ORIENTED_EDGE ( 'NONE', *, *, #271, .T. ) ;
#386 = AXIS2_PLACEMENT_3D ( 'NONE', #404, #196, #464 ) ;
#387 = LOCAL_TIME ( 15, 34, 15.00000000000000000, #620 ) ;
#388 = CARTESIAN_POINT ( 'NONE',  ( 14.00000000000000000, 1.714505518806294638E-15, 24.10000000000000142 ) ) ;
#389 = ORIENTED_EDGE ( 'NONE', *, *, #697, .T. ) ;
#390 = DIRECTION ( 'NONE',  ( 0.000000000000000000, 0.000000000000000000, 1.000000000000000000 ) ) ;
#391 = ORIENTED_EDGE ( 'NONE', *, *, #145, .T. ) ;
#392 = EDGE_CURVE ( 'NONE', #55, #643, #424, .T. ) ;
#393 = DIRECTION ( 'NONE',  ( -0.000000000000000000, -0.000000000000000000, 1.000000000000000000 ) ) ;
#394 = CARTESIAN_POINT ( 'NONE',  ( 0.000000000000000000, 0.000000000000000000, -26.10000000000000142 ) ) ;
#395 = AXIS2_PLACEMENT_3D ( 'NONE', #211, #486, #690 ) ;
#396 = AXIS2_PLACEMENT_3D ( 'NONE', #230, #488, #167 ) ;
#397 = PRODUCT_RELATED_PRODUCT_CATEGORY ( 'detail', '', ( #82 ) ) ;
#398 = CALENDAR_DATE ( 2026, 30, 5 ) ;
#399 = SECURITY_CLASSIFICATION ( '', '', #185 ) ;
#400 = DIRECTION ( 'NONE',  ( 1.000000000000000000, 0.000000000000000000, 0.000000000000000000 ) ) ;
#401 = CARTESIAN_POINT ( 'NONE',  ( 14.47500000000000142, 0.000000000000000000, 24.10000000000000142 ) ) ;
#402 = VERTEX_POINT ( 'NONE', #122 ) ;
#403 = PERSON_AND_ORGANIZATION ( #452, #139 ) ;
#404 = CARTESIAN_POINT ( 'NONE',  ( 14.47499999999999964, 1.772676241765793873E-15, -26.10000000000000142 ) ) ;
#405 = FACE_OUTER_BOUND ( 'NONE', #470, .T. ) ;
#406 = EDGE_LOOP ( 'NONE', ( #510, #242 ) ) ;
#407 = APPROVAL_DATE_TIME ( #190, #176 ) ;
#408 = DIRECTION ( 'NONE',  ( 0.000000000000000000, 0.000000000000000000, 1.000000000000000000 ) ) ;
#409 = CYLINDRICAL_SURFACE ( 'NONE', #423, 14.00000000000000000 ) ;
#410 = PERSON_AND_ORGANIZATION ( #452, #139 ) ;
#411 = VECTOR ( 'NONE', #193, 1000.000000000000000 ) ;
#412 = AXIS2_PLACEMENT_3D ( 'NONE', #314, #42, #325 ) ;
#413 = LOCAL_TIME ( 15, 34, 15.00000000000000000, #309 ) ;
#414 = DIRECTION ( 'NONE',  ( 1.000000000000000000, 0.000000000000000000, 0.000000000000000000 ) ) ;
#415 = DIRECTION ( 'NONE',  ( 1.000000000000000000, 0.000000000000000000, 0.000000000000000000 ) ) ;
#416 = VERTEX_POINT ( 'NONE', #383 ) ;
#417 = DIRECTION ( 'NONE',  ( 0.000000000000000000, 0.000000000000000000, 1.000000000000000000 ) ) ;
#418 = EDGE_CURVE ( 'NONE', #651, #448, #629, .T. ) ;
#419 = EDGE_LOOP ( 'NONE', ( #322, #476, #543, #450 ) ) ;
#420 = ADVANCED_FACE ( 'NONE', ( #162 ), #657, .T. ) ;
#421 = CARTESIAN_POINT ( 'NONE',  ( 0.000000000000000000, 0.000000000000000000, 24.10000000000000142 ) ) ;
#422 = ORIENTED_EDGE ( 'NONE', *, *, #145, .F. ) ;
#423 = AXIS2_PLACEMENT_3D ( 'NONE', #183, #454, #469 ) ;
#424 = CIRCLE ( 'NONE', #161, 0.5000000000000004441 ) ;
#425 = LINE ( 'NONE', #635, #372 ) ;
#426 = VERTEX_POINT ( 'NONE', #610 ) ;
#427 = DIRECTION ( 'NONE',  ( 0.000000000000000000, 0.000000000000000000, 1.000000000000000000 ) ) ;
#428 = ORIENTED_EDGE ( 'NONE', *, *, #342, .T. ) ;
#429 = CARTESIAN_POINT ( 'NONE',  ( 0.000000000000000000, 0.000000000000000000, 28.20000000000000284 ) ) ;
#430 = EDGE_LOOP ( 'NONE', ( #217, #596 ) ) ;
#431 = AXIS2_PLACEMENT_3D ( 'NONE', #45, #588, #320 ) ;
#432 = AXIS2_PLACEMENT_3D ( 'NONE', #29, #521, #414 ) ;
#433 = DIRECTION ( 'NONE',  ( -1.000000000000000000, 1.224646799147349509E-16, 0.000000000000000000 ) ) ;
#434 = VERTEX_POINT ( 'NONE', #119 ) ;
#435 = CARTESIAN_POINT ( 'NONE',  ( 0.000000000000000000, 0.000000000000000000, -24.10000000000000142 ) ) ;
#436 = ORIENTED_EDGE ( 'NONE', *, *, #215, .T. ) ;
#437 = EDGE_CURVE ( 'NONE', #308, #703, #219, .T. ) ;
#438 = DIRECTION ( 'NONE',  ( 0.000000000000000000, 0.000000000000000000, -1.000000000000000000 ) ) ;
#439 = CARTESIAN_POINT ( 'NONE',  ( 0.000000000000000000, 0.000000000000000000, -25.60000000000000142 ) ) ;
#440 = CC_DESIGN_PERSON_AND_ORGANIZATION_ASSIGNMENT ( #623, #306, ( #698 ) ) ;
#441 = CARTESIAN_POINT ( 'NONE',  ( 0.000000000000000000, 0.000000000000000000, -23.59999999999999787 ) ) ;
#442 = AXIS2_PLACEMENT_3D ( 'NONE', #595, #154, #272 ) ;
#443 = VERTEX_POINT ( 'NONE', #380 ) ;
#444 = AXIS2_PLACEMENT_3D ( 'NONE', #288, #449, #664 ) ;
#445 = CC_DESIGN_APPROVAL ( #176, ( #399 ) ) ;
#446 = DIRECTION ( 'NONE',  ( 1.000000000000000000, 0.000000000000000000, 0.000000000000000000 ) ) ;
#447 = EDGE_CURVE ( 'NONE', #426, #153, #137, .T. ) ;
#448 = VERTEX_POINT ( 'NONE', #650 ) ;
#449 = DIRECTION ( 'NONE',  ( 1.224646799147353207E-16, 1.000000000000000000, -0.000000000000000000 ) ) ;
#450 = ORIENTED_EDGE ( 'NONE', *, *, #114, .T. ) ;
#451 = APPROVAL_ROLE ( '' ) ;
#452 = PERSON ( 'UNSPECIFIED', 'UNSPECIFIED', 'UNSPECIFIED', ('UNSPECIFIED'), ('UNSPECIFIED'), ('UNSPECIFIED') ) ;
#453 = DIRECTION ( 'NONE',  ( -1.000000000000000000, 0.000000000000000000, 0.000000000000000000 ) ) ;
#454 = DIRECTION ( 'NONE',  ( -0.000000000000000000, -0.000000000000000000, -1.000000000000000000 ) ) ;
#455 = AXIS2_PLACEMENT_3D ( 'NONE', #580, #465, #304 ) ;
#456 = EDGE_LOOP ( 'NONE', ( #499, #672 ) ) ;
#457 = AXIS2_PLACEMENT_3D ( 'NONE', #115, #62, #329 ) ;
#458 = DATE_AND_TIME ( #141, #98 ) ;
#459 = DIRECTION ( 'NONE',  ( 0.000000000000000000, 0.000000000000000000, 1.000000000000000000 ) ) ;
#460 = FACE_OUTER_BOUND ( 'NONE', #430, .T. ) ;
#461 = VERTEX_POINT ( 'NONE', #112 ) ;
#462 = APPROVAL_STATUS ( 'not_yet_approved' ) ;
#463 = ADVANCED_FACE ( 'NONE', ( #554 ), #59, .T. ) ;
#464 = DIRECTION ( 'NONE',  ( -1.000000000000000000, -1.224646799147353454E-16, 0.000000000000000000 ) ) ;
#465 = DIRECTION ( 'NONE',  ( 0.000000000000000000, 0.000000000000000000, -1.000000000000000000 ) ) ;
#466 = ORIENTED_EDGE ( 'NONE', *, *, #598, .F. ) ;
#467 = UNCERTAINTY_MEASURE_WITH_UNIT (LENGTH_MEASURE( 1.000000000000000082E-05 ), #146, 'distance_accuracy_value', 'NONE');
#468 = CARTESIAN_POINT ( 'NONE',  ( 0.000000000000000000, 0.000000000000000000, 25.60000000000000142 ) ) ;
#469 = DIRECTION ( 'NONE',  ( -1.000000000000000000, 0.000000000000000000, 0.000000000000000000 ) ) ;
#470 = EDGE_LOOP ( 'NONE', ( #655, #535, #250, #436 ) ) ;
#471 = VECTOR ( 'NONE', #563, 1000.000000000000000 ) ;
#472 = AXIS2_PLACEMENT_3D ( 'NONE', #468, #78, #681 ) ;
#473 = DIRECTION ( 'NONE',  ( -0.000000000000000000, -0.000000000000000000, -1.000000000000000000 ) ) ;
#474 = FACE_OUTER_BOUND ( 'NONE', #611, .T. ) ;
#475 = ADVANCED_FACE ( 'NONE', ( #501 ), #160, .T. ) ;
#476 = ORIENTED_EDGE ( 'NONE', *, *, #418, .F. ) ;
#477 = CYLINDRICAL_SURFACE ( 'NONE', #253, 14.97500000000000142 ) ;
#478 = ORIENTED_EDGE ( 'NONE', *, *, #43, .T. ) ;
#479 = MECHANICAL_CONTEXT ( 'NONE', #561, 'mechanical' ) ;
#480 = FACE_OUTER_BOUND ( 'NONE', #660, .T. ) ;
#481 = ORIENTED_EDGE ( 'NONE', *, *, #578, .T. ) ;
#482 = AXIS2_PLACEMENT_3D ( 'NONE', #582, #110, #367 ) ;
#483 = CIRCLE ( 'NONE', #96, 14.47500000000000142 ) ;
#484 = DIRECTION ( 'NONE',  ( 1.000000000000000000, 0.000000000000000000, 0.000000000000000000 ) ) ;
#485 = VERTEX_POINT ( 'NONE', #388 ) ;
#486 = DIRECTION ( 'NONE',  ( 0.000000000000000000, 0.000000000000000000, 1.000000000000000000 ) ) ;
#487 = ORIENTED_EDGE ( 'NONE', *, *, #43, .F. ) ;
#488 = DIRECTION ( 'NONE',  ( 0.000000000000000000, 0.000000000000000000, -1.000000000000000000 ) ) ;
#489 = ORIENTED_EDGE ( 'NONE', *, *, #61, .T. ) ;
#490 = CIRCLE ( 'NONE', #136, 0.5000000000000004441 ) ;
#491 = VECTOR ( 'NONE', #565, 1000.000000000000000 ) ;
#492 = DIRECTION ( 'NONE',  ( -1.000000000000000000, 0.000000000000000000, -0.000000000000000000 ) ) ;
#493 = LOCAL_TIME ( 15, 34, 15.00000000000000000, #352 ) ;
#494 = DIRECTION ( 'NONE',  ( 0.000000000000000000, 0.000000000000000000, -1.000000000000000000 ) ) ;
#495 = ADVANCED_FACE ( 'NONE', ( #599 ), #550, .T. ) ;
#496 = DIRECTION ( 'NONE',  ( 1.000000000000000000, 0.000000000000000000, 0.000000000000000000 ) ) ;
#497 = CC_DESIGN_DATE_AND_TIME_ASSIGNMENT ( #564, #297, ( #571 ) ) ;
#498 = DIRECTION ( 'NONE',  ( -1.000000000000000000, 0.000000000000000000, 0.000000000000000000 ) ) ;
#499 = ORIENTED_EDGE ( 'NONE', *, *, #243, .F. ) ;
#500 = EDGE_CURVE ( 'NONE', #443, #619, #332, .T. ) ;
#501 = FACE_OUTER_BOUND ( 'NONE', #577, .T. ) ;
#502 = AXIS2_PLACEMENT_3D ( 'NONE', #138, #301, #683 ) ;
#503 = ORIENTED_EDGE ( 'NONE', *, *, #616, .F. ) ;
#504 = AXIS2_PLACEMENT_3D ( 'NONE', #421, #637, #534 ) ;
#505 = ADVANCED_FACE ( 'NONE', ( #282 ), #274, .T. ) ;
#506 = CARTESIAN_POINT ( 'NONE',  ( 0.000000000000000000, 0.000000000000000000, -25.60000000000000142 ) ) ;
#507 = CARTESIAN_POINT ( 'NONE',  ( -14.47499999999999964, 0.000000000000000000, -25.60000000000000142 ) ) ;
#508 = DIRECTION ( 'NONE',  ( 1.000000000000000000, 0.000000000000000000, -0.000000000000000000 ) ) ;
#509 = CARTESIAN_POINT ( 'NONE',  ( 0.000000000000000000, 0.000000000000000000, 24.10000000000000142 ) ) ;
#510 = ORIENTED_EDGE ( 'NONE', *, *, #525, .F. ) ;
#511 = CARTESIAN_POINT ( 'NONE',  ( 0.000000000000000000, 0.000000000000000000, 24.10000000000000142 ) ) ;
#512 = CYLINDRICAL_SURFACE ( 'NONE', #649, 14.97499999999999964 ) ;
#513 = VECTOR ( 'NONE', #116, 1000.000000000000000 ) ;
#514 = EDGE_CURVE ( 'NONE', #153, #426, #25, .T. ) ;
#515 = AXIS2_PLACEMENT_3D ( 'NONE', #346, #459, #508 ) ;
#516 = APPROVAL_STATUS ( 'not_yet_approved' ) ;
#517 = PLANE ( 'NONE',  #515 ) ;
#518 = CARTESIAN_POINT ( 'NONE',  ( -14.97500000000000142, 1.833908581723161841E-15, -23.59999999999999787 ) ) ;
#519 = ORIENTED_EDGE ( 'NONE', *, *, #229, .T. ) ;
#520 = COORDINATED_UNIVERSAL_TIME_OFFSET ( 8, 0, .BEHIND. ) ;
#521 = DIRECTION ( 'NONE',  ( 0.000000000000000000, 0.000000000000000000, 1.000000000000000000 ) ) ;
#522 = LINE ( 'NONE', #129, #471 ) ;
#523 = ORIENTED_EDGE ( 'NONE', *, *, #544, .F. ) ;
#524 = PERSON_AND_ORGANIZATION_ROLE ( 'classification_officer' ) ;
#525 = EDGE_CURVE ( 'NONE', #259, #201, #606, .T. ) ;
#526 = PERSON_AND_ORGANIZATION ( #452, #139 ) ;
#527 = DIRECTION ( 'NONE',  ( -1.000000000000000000, 0.000000000000000000, 0.000000000000000000 ) ) ;
#528 = ORIENTED_EDGE ( 'NONE', *, *, #437, .F. ) ;
#529 = AXIS2_PLACEMENT_3D ( 'NONE', #32, #617, #130 ) ;
#530 =( NAMED_UNIT ( * ) SI_UNIT ( $, .STERADIAN. ) SOLID_ANGLE_UNIT ( ) );
#531 = ADVANCED_FACE ( 'NONE', ( #608 ), #12, .T. ) ;
#532 = DIRECTION ( 'NONE',  ( 1.000000000000000000, 0.000000000000000000, 0.000000000000000000 ) ) ;
#533 = ORIENTED_EDGE ( 'NONE', *, *, #236, .T. ) ;
#534 = DIRECTION ( 'NONE',  ( 1.000000000000000000, 0.000000000000000000, 0.000000000000000000 ) ) ;
#535 = ORIENTED_EDGE ( 'NONE', *, *, #447, .F. ) ;
#536 = DIRECTION ( 'NONE',  ( -0.000000000000000000, -0.000000000000000000, -1.000000000000000000 ) ) ;
#537 = EDGE_LOOP ( 'NONE', ( #101, #700, #541, #173 ) ) ;
#538 = CLOSED_SHELL ( 'NONE', ( #475, #247, #648, #531, #164, #667, #335, #382, #172, #505, #200, #120, #92, #361, #602, #545, #366, #210, #495, #51, #701, #463, #641, #420 ) ) ;
#539 = TOROIDAL_SURFACE ( 'NONE', #432, 14.47500000000000142, 0.5000000000000000000 ) ;
#540 = CARTESIAN_POINT ( 'NONE',  ( 14.47500000000000142, 0.000000000000000000, -24.10000000000000142 ) ) ;
#541 = ORIENTED_EDGE ( 'NONE', *, *, #218, .F. ) ;
#542 = DIRECTION ( 'NONE',  ( 0.000000000000000000, 0.000000000000000000, 1.000000000000000000 ) ) ;
#543 = ORIENTED_EDGE ( 'NONE', *, *, #124, .T. ) ;
#544 = EDGE_CURVE ( 'NONE', #212, #416, #198, .T. ) ;
#545 = ADVANCED_FACE ( 'NONE', ( #240, #575 ), #517, .F. ) ;
#546 = CARTESIAN_POINT ( 'NONE',  ( 0.000000000000000000, 0.000000000000000000, 25.60000000000000142 ) ) ;
#547 = DIRECTION ( 'NONE',  ( 1.000000000000000000, 0.000000000000000000, 0.000000000000000000 ) ) ;
#548 = CIRCLE ( 'NONE', #298, 14.47500000000000142 ) ;
#549 = TOROIDAL_SURFACE ( 'NONE', #266, 14.47499999999999964, 0.5000000000000000000 ) ;
#550 = PLANE ( 'NONE',  #108 ) ;
#551 = ORIENTED_EDGE ( 'NONE', *, *, #222, .T. ) ;
#552 = DIRECTION ( 'NONE',  ( -0.000000000000000000, -0.000000000000000000, -1.000000000000000000 ) ) ;
#553 = EDGE_LOOP ( 'NONE', ( #168, #48 ) ) ;
#554 = FACE_OUTER_BOUND ( 'NONE', #126, .T. ) ;
#555 = VERTEX_POINT ( 'NONE', #612 ) ;
#556 = DIRECTION ( 'NONE',  ( 1.000000000000000000, 0.000000000000000000, 0.000000000000000000 ) ) ;
#557 = CIRCLE ( 'NONE', #431, 14.97500000000000142 ) ;
#558 = AXIS2_PLACEMENT_3D ( 'NONE', #327, #225, #13 ) ;
#559 = CARTESIAN_POINT ( 'NONE',  ( 14.47500000000000142, 0.000000000000000000, 23.59999999999999787 ) ) ;
#560 = VECTOR ( 'NONE', #473, 1000.000000000000000 ) ;
#561 = APPLICATION_CONTEXT ( 'configuration controlled 3d designs of mechanical parts and assemblies' ) ;
#562 = DIRECTION ( 'NONE',  ( 0.000000000000000000, 0.000000000000000000, -1.000000000000000000 ) ) ;
#563 = DIRECTION ( 'NONE',  ( -0.000000000000000000, -0.000000000000000000, 1.000000000000000000 ) ) ;
#564 = DATE_AND_TIME ( #398, #413 ) ;
#565 = DIRECTION ( 'NONE',  ( -0.000000000000000000, -0.000000000000000000, 1.000000000000000000 ) ) ;
#566 = EDGE_CURVE ( 'NONE', #402, #270, #483, .T. ) ;
#567 = DIRECTION ( 'NONE',  ( -0.000000000000000000, -0.000000000000000000, -1.000000000000000000 ) ) ;
#568 = EDGE_LOOP ( 'NONE', ( #519, #262 ) ) ;
#569 = DIRECTION ( 'NONE',  ( -1.000000000000000000, 0.000000000000000000, 0.000000000000000000 ) ) ;
#570 = CARTESIAN_POINT ( 'NONE',  ( -14.00000000000000000, 1.714505518806294638E-15, -24.10000000000000142 ) ) ;
#571 = PRODUCT_DEFINITION ( 'UNKNOWN', '', #698, #377 ) ;
#572 = AXIS2_PLACEMENT_3D ( 'NONE', #269, #542, #47 ) ;
#573 = AXIS2_PLACEMENT_3D ( 'NONE', #511, #408, #668 ) ;
#574 = CC_DESIGN_SECURITY_CLASSIFICATION ( #399, ( #698 ) ) ;
#575 = FACE_BOUND ( 'NONE', #568, .T. ) ;
#576 = DIRECTION ( 'NONE',  ( -0.000000000000000000, -0.000000000000000000, -1.000000000000000000 ) ) ;
#577 = EDGE_LOOP ( 'NONE', ( #152, #590, #121, #2 ) ) ;
#578 = EDGE_CURVE ( 'NONE', #434, #581, #208, .T. ) ;
#579 = CARTESIAN_POINT ( 'NONE',  ( -14.00000000000000000, 0.000000000000000000, 25.60000000000000142 ) ) ;
#580 = CARTESIAN_POINT ( 'NONE',  ( 0.000000000000000000, 0.000000000000000000, -26.10000000000000142 ) ) ;
#581 = VERTEX_POINT ( 'NONE', #674 ) ;
#582 = CARTESIAN_POINT ( 'NONE',  ( 0.000000000000000000, 0.000000000000000000, -25.60000000000000142 ) ) ;
#583 = ORIENTED_EDGE ( 'NONE', *, *, #692, .F. ) ;
#584 = CIRCLE ( 'NONE', #79, 14.00000000000000000 ) ;
#585 = DIRECTION ( 'NONE',  ( 0.000000000000000000, 0.000000000000000000, 1.000000000000000000 ) ) ;
#586 = LINE ( 'NONE', #100, #239 ) ;
#587 = VERTEX_POINT ( 'NONE', #357 ) ;
#588 = DIRECTION ( 'NONE',  ( 0.000000000000000000, 0.000000000000000000, 1.000000000000000000 ) ) ;
#589 = EDGE_CURVE ( 'NONE', #279, #55, #181, .T. ) ;
#590 = ORIENTED_EDGE ( 'NONE', *, *, #437, .T. ) ;
#591 = DIRECTION ( 'NONE',  ( 1.000000000000000000, 0.000000000000000000, 0.000000000000000000 ) ) ;
#592 = VERTEX_POINT ( 'NONE', #579 ) ;
#593 = VECTOR ( 'NONE', #576, 1000.000000000000000 ) ;
#594 = CIRCLE ( 'NONE', #386, 0.5000000000000004441 ) ;
#595 = CARTESIAN_POINT ( 'NONE',  ( 0.000000000000000000, 0.000000000000000000, -23.59999999999999787 ) ) ;
#596 = ORIENTED_EDGE ( 'NONE', *, *, #371, .T. ) ;
#597 = APPLICATION_CONTEXT ( 'configuration controlled 3d designs of mechanical parts and assemblies' ) ;
#598 = EDGE_CURVE ( 'NONE', #581, #201, #285, .T. ) ;
#599 = FACE_OUTER_BOUND ( 'NONE', #326, .T. ) ;
#600 = CARTESIAN_POINT ( 'NONE',  ( 0.000000000000000000, 0.000000000000000000, -25.60000000000000142 ) ) ;
#601 = MANIFOLD_SOLID_BREP ( 'Fillet3', #538 ) ;
#602 = ADVANCED_FACE ( 'NONE', ( #71 ), #15, .T. ) ;
#603 = CARTESIAN_POINT ( 'NONE',  ( 0.000000000000000000, 0.000000000000000000, 28.20000000000000284 ) ) ;
#604 = ORIENTED_EDGE ( 'NONE', *, *, #324, .T. ) ;
#605 = TOROIDAL_SURFACE ( 'NONE', #442, 14.47500000000000142, 0.5000000000000000000 ) ;
#606 = CIRCLE ( 'NONE', #613, 14.00000000000000000 ) ;
#607 = CARTESIAN_POINT ( 'NONE',  ( 0.000000000000000000, 0.000000000000000000, 26.10000000000000142 ) ) ;
#608 = FACE_OUTER_BOUND ( 'NONE', #27, .T. ) ;
#609 = DIRECTION ( 'NONE',  ( 0.000000000000000000, 0.000000000000000000, 1.000000000000000000 ) ) ;
#610 = CARTESIAN_POINT ( 'NONE',  ( 14.97499999999999964, 0.000000000000000000, -28.20000000000000284 ) ) ;
#611 = EDGE_LOOP ( 'NONE', ( #428, #40, #385, #44 ) ) ;
#612 = CARTESIAN_POINT ( 'NONE',  ( -14.97500000000000142, 0.000000000000000000, 26.10000000000000142 ) ) ;
#613 = AXIS2_PLACEMENT_3D ( 'NONE', #280, #658, #498 ) ;
#614 = CARTESIAN_POINT ( 'NONE',  ( 14.00000000000000000, 0.000000000000000000, -25.60000000000000142 ) ) ;
#615 = CC_DESIGN_APPROVAL ( #99, ( #698 ) ) ;
#616 = EDGE_CURVE ( 'NONE', #279, #365, #594, .T. ) ;
#617 = DIRECTION ( 'NONE',  ( -0.000000000000000000, -0.000000000000000000, 1.000000000000000000 ) ) ;
#618 = CARTESIAN_POINT ( 'NONE',  ( -14.00000000000000000, 0.000000000000000000, 24.10000000000000142 ) ) ;
#619 = VERTEX_POINT ( 'NONE', #19 ) ;
#620 = COORDINATED_UNIVERSAL_TIME_OFFSET ( 8, 0, .BEHIND. ) ;
#621 = FACE_OUTER_BOUND ( 'NONE', #140, .T. ) ;
#622 = LINE ( 'NONE', #72, #593 ) ;
#623 = PERSON_AND_ORGANIZATION ( #452, #139 ) ;
#624 = CARTESIAN_POINT ( 'NONE',  ( -14.97499999999999964, 1.833908581723161447E-15, -26.10000000000000142 ) ) ;
#625 = CYLINDRICAL_SURFACE ( 'NONE', #502, 14.97499999999999964 ) ;
#626 = EDGE_CURVE ( 'NONE', #201, #259, #584, .T. ) ;
#627 = AXIS2_PLACEMENT_3D ( 'NONE', #600, #17, #281 ) ;
#628 = ORIENTED_EDGE ( 'NONE', *, *, #544, .T. ) ;
#629 = CIRCLE ( 'NONE', #640, 14.97500000000000142 ) ;
#630 = APPROVAL_PERSON_ORGANIZATION ( #680, #155, #87 ) ;
#631 = CARTESIAN_POINT ( 'NONE',  ( 0.000000000000000000, 0.000000000000000000, -25.60000000000000142 ) ) ;
#632 = CARTESIAN_POINT ( 'NONE',  ( -14.97499999999999964, 1.833908581723161447E-15, -28.20000000000000284 ) ) ;
#633 = EDGE_CURVE ( 'NONE', #184, #703, #170, .T. ) ;
#634 = PERSON_AND_ORGANIZATION_ROLE ( 'creator' ) ;
#635 = CARTESIAN_POINT ( 'NONE',  ( 14.00000000000000000, 1.714505518806294638E-15, 25.60000000000000142 ) ) ;
#636 = DIRECTION ( 'NONE',  ( 0.000000000000000000, 0.000000000000000000, 1.000000000000000000 ) ) ;
#637 = DIRECTION ( 'NONE',  ( 0.000000000000000000, 0.000000000000000000, 1.000000000000000000 ) ) ;
#638 = EDGE_LOOP ( 'NONE', ( #89, #551, #313, #356 ) ) ;
#639 = CIRCLE ( 'NONE', #340, 0.5000000000000004441 ) ;
#640 = AXIS2_PLACEMENT_3D ( 'NONE', #603, #390, #556 ) ;
#641 = ADVANCED_FACE ( 'NONE', ( #621 ), #539, .T. ) ;
#642 = DIRECTION ( 'NONE',  ( -0.000000000000000000, -0.000000000000000000, -1.000000000000000000 ) ) ;
#643 = VERTEX_POINT ( 'NONE', #624 ) ;
#644 = CARTESIAN_POINT ( 'NONE',  ( -14.97500000000000142, 1.833908581723161841E-15, 23.59999999999999787 ) ) ;
#645 = ORIENTED_EDGE ( 'NONE', *, *, #16, .T. ) ;
#646 = DIRECTION ( 'NONE',  ( -1.000000000000000000, 0.000000000000000000, 0.000000000000000000 ) ) ;
#647 = ORIENTED_EDGE ( 'NONE', *, *, #392, .T. ) ;
#648 = ADVANCED_FACE ( 'NONE', ( #343 ), #549, .T. ) ;
#649 = AXIS2_PLACEMENT_3D ( 'NONE', #199, #254, #33 ) ;
#650 = CARTESIAN_POINT ( 'NONE',  ( 14.97500000000000142, 1.833908581723161841E-15, 28.20000000000000284 ) ) ;
#651 = VERTEX_POINT ( 'NONE', #142 ) ;
#652 = CARTESIAN_POINT ( 'NONE',  ( -14.47499999999999964, 0.000000000000000000, -26.10000000000000142 ) ) ;
#653 = ORIENTED_EDGE ( 'NONE', *, *, #263, .F. ) ;
#654 = DIRECTION ( 'NONE',  ( 0.000000000000000000, 0.000000000000000000, -1.000000000000000000 ) ) ;
#655 = ORIENTED_EDGE ( 'NONE', *, *, #222, .F. ) ;
#656 = CIRCLE ( 'NONE', #627, 14.47499999999999964 ) ;
#657 = TOROIDAL_SURFACE ( 'NONE', #321, 14.47500000000000142, 0.5000000000000000000 ) ;
#658 = DIRECTION ( 'NONE',  ( 0.000000000000000000, 0.000000000000000000, -1.000000000000000000 ) ) ;
#659 = APPROVAL_PERSON_ORGANIZATION ( #410, #176, #451 ) ;
#660 = EDGE_LOOP ( 'NONE', ( #375, #77, #604, #305 ) ) ;
#661 = DIRECTION ( 'NONE',  ( -0.000000000000000000, -1.000000000000000000, -0.000000000000000000 ) ) ;
#662 = EDGE_CURVE ( 'NONE', #402, #212, #284, .T. ) ;
#663 = ORIENTED_EDGE ( 'NONE', *, *, #566, .T. ) ;
#664 = DIRECTION ( 'NONE',  ( -1.000000000000000000, 1.224646799147349509E-16, 0.000000000000000000 ) ) ;
#665 = EDGE_CURVE ( 'NONE', #270, #416, #686, .T. ) ;
#666 = DIRECTION ( 'NONE',  ( 0.000000000000000000, 0.000000000000000000, 1.000000000000000000 ) ) ;
#667 = ADVANCED_FACE ( 'NONE', ( #182 ), #300, .T. ) ;
#668 = DIRECTION ( 'NONE',  ( 1.000000000000000000, 0.000000000000000000, 0.000000000000000000 ) ) ;
#669 = CIRCLE ( 'NONE', #67, 0.5000000000000004441 ) ;
#670 = TOROIDAL_SURFACE ( 'NONE', #687, 14.47500000000000142, 0.5000000000000000000 ) ;
#671 = DIRECTION ( 'NONE',  ( 1.000000000000000000, 0.000000000000000000, 0.000000000000000000 ) ) ;
#672 = ORIENTED_EDGE ( 'NONE', *, *, #324, .F. ) ;
#673 = PERSON_AND_ORGANIZATION_ROLE ( 'creator' ) ;
#674 = CARTESIAN_POINT ( 'NONE',  ( -14.00000000000000000, 1.714505518806294638E-15, -25.60000000000000142 ) ) ;
#675 = DIRECTION ( 'NONE',  ( -1.000000000000000000, 1.224646799147349509E-16, 0.000000000000000000 ) ) ;
#676 = ORIENTED_EDGE ( 'NONE', *, *, #525, .T. ) ;
#677 = APPROVAL_STATUS ( 'not_yet_approved' ) ;
#678 = PLANE ( 'NONE',  #310 ) ;
#679 = PRODUCT_DEFINITION_SHAPE ( 'NONE', 'NONE',  #571 ) ;
#680 = PERSON_AND_ORGANIZATION ( #452, #139 ) ;
#681 = DIRECTION ( 'NONE',  ( 1.000000000000000000, 0.000000000000000000, 0.000000000000000000 ) ) ;
#682 = CC_DESIGN_DATE_AND_TIME_ASSIGNMENT ( #18, #35, ( #399 ) ) ;
#683 = DIRECTION ( 'NONE',  ( 1.000000000000000000, 0.000000000000000000, 0.000000000000000000 ) ) ;
#684 = VECTOR ( 'NONE', #80, 1000.000000000000000 ) ;
#685 = EDGE_LOOP ( 'NONE', ( #422, #583, #331, #209 ) ) ;
#686 = CIRCLE ( 'NONE', #228, 0.5000000000000004441 ) ;
#687 = AXIS2_PLACEMENT_3D ( 'NONE', #688, #585, #257 ) ;
#688 = CARTESIAN_POINT ( 'NONE',  ( 0.000000000000000000, 0.000000000000000000, 26.10000000000000142 ) ) ;
#689 = CARTESIAN_POINT ( 'NONE',  ( 0.000000000000000000, 0.000000000000000000, -24.10000000000000142 ) ) ;
#690 = DIRECTION ( 'NONE',  ( 1.000000000000000000, 0.000000000000000000, 0.000000000000000000 ) ) ;
#691 = ORIENTED_EDGE ( 'NONE', *, *, #263, .T. ) ;
#692 = EDGE_CURVE ( 'NONE', #619, #443, #277, .T. ) ;
#693 = CYLINDRICAL_SURFACE ( 'NONE', #363, 14.00000000000000000 ) ;
#694 = ORIENTED_EDGE ( 'NONE', *, *, #133, .T. ) ;
#695 = CIRCLE ( 'NONE', #49, 14.97500000000000142 ) ;
#696 = AXIS2_PLACEMENT_3D ( 'NONE', #75, #187, #248 ) ;
#697 = EDGE_CURVE ( 'NONE', #592, #189, #245, .T. ) ;
#698 = PRODUCT_DEFINITION_FORMATION_WITH_SPECIFIED_SOURCE ( 'ANY', '', #82, .NOT_KNOWN. ) ;
#699 = DIRECTION ( 'NONE',  ( 1.000000000000000000, 0.000000000000000000, 0.000000000000000000 ) ) ;
#700 = ORIENTED_EDGE ( 'NONE', *, *, #616, .T. ) ;
#701 = ADVANCED_FACE ( 'NONE', ( #260 ), #670, .T. ) ;
#702 = CARTESIAN_POINT ( 'NONE',  ( 14.00000000000000000, 0.000000000000000000, -24.10000000000000142 ) ) ;
#703 = VERTEX_POINT ( 'NONE', #93 ) ;
ENDSEC;
END-ISO-10303-21;
