ISO-10303-21;
HEADER;
FILE_DESCRIPTION (( 'STEP AP203' ),
    '1' );
FILE_NAME ('Captured Pulley V5.STEP',
    '2026-04-21T16:19:15',
    ( '' ),
    ( '' ),
    'SwSTEP 2.0',
    'SolidWorks 2024',
    '' );
FILE_SCHEMA (( 'CONFIG_CONTROL_DESIGN' ));
ENDSEC;

DATA;
#1 = VERTEX_POINT ( 'NONE', #378 ) ;
#2 = CYLINDRICAL_SURFACE ( 'NONE', #523, 2.399999999999999911 ) ;
#3 = APPLICATION_CONTEXT ( 'configuration controlled 3d designs of mechanical parts and assemblies' ) ;
#4 = CIRCLE ( 'NONE', #375, 14.99000000000000021 ) ;
#5 = VECTOR ( 'NONE', #263, 1000.000000000000000 ) ;
#6 = ORIENTED_EDGE ( 'NONE', *, *, #437, .T. ) ;
#7 = PERSON_AND_ORGANIZATION ( #51, #337 ) ;
#8 = DIRECTION ( 'NONE',  ( 0.4968397262372760692, 0.000000000000000000, 0.8678423165716618870 ) ) ;
#9 = EDGE_CURVE ( 'NONE', #169, #226, #429, .T. ) ;
#10 = DIRECTION ( 'NONE',  ( -1.000000000000000000, 0.000000000000000000, 0.000000000000000000 ) ) ;
#11 = FACE_OUTER_BOUND ( 'NONE', #478, .T. ) ;
#12 = ORIENTED_EDGE ( 'NONE', *, *, #177, .F. ) ;
#13 = MECHANICAL_CONTEXT ( 'NONE', #3, 'mechanical' ) ;
#14 = DIRECTION ( 'NONE',  ( 1.000000000000000000, 0.000000000000000000, 0.000000000000000000 ) ) ;
#15 = AXIS2_PLACEMENT_3D ( 'NONE', #558, #48, #510 ) ;
#16 = AXIS2_PLACEMENT_3D ( 'NONE', #290, #21, #442 ) ;
#17 = FACE_OUTER_BOUND ( 'NONE', #74, .T. ) ;
#18 = CARTESIAN_POINT ( 'NONE',  ( 0.000000000000000000, 0.000000000000000000, 9.850000000000003197 ) ) ;
#19 = CC_DESIGN_APPROVAL ( #184, ( #205 ) ) ;
#20 = EDGE_LOOP ( 'NONE', ( #505, #436, #395, #451 ) ) ;
#21 = DIRECTION ( 'NONE',  ( -0.000000000000000000, -0.000000000000000000, -1.000000000000000000 ) ) ;
#22 = EDGE_CURVE ( 'NONE', #328, #1, #363, .T. ) ;
#23 = ORIENTED_EDGE ( 'NONE', *, *, #311, .T. ) ;
#24 = CARTESIAN_POINT ( 'NONE',  ( 6.057028237014331573, 1.483544048560947417E-15, 24.10674524897901350 ) ) ;
#25 = ADVANCED_FACE ( 'NONE', ( #410 ), #53, .F. ) ;
#26 = ORIENTED_EDGE ( 'NONE', *, *, #9, .T. ) ;
#27 = CARTESIAN_POINT ( 'NONE',  ( 0.000000000000000000, 0.000000000000000000, 23.75000000000000355 ) ) ;
#28 = ORIENTED_EDGE ( 'NONE', *, *, #22, .T. ) ;
#29 = SECURITY_CLASSIFICATION_LEVEL ( 'unclassified' ) ;
#30 = DIRECTION ( 'NONE',  ( -0.000000000000000000, -0.000000000000000000, -1.000000000000000000 ) ) ;
#31 = PERSON_AND_ORGANIZATION_ROLE ( 'classification_officer' ) ;
#32 = CYLINDRICAL_SURFACE ( 'NONE', #63, 14.99000000000000021 ) ;
#33 = ORIENTED_EDGE ( 'NONE', *, *, #196, .F. ) ;
#34 = VECTOR ( 'NONE', #323, 1000.000000000000000 ) ;
#35 = PERSON_AND_ORGANIZATION ( #51, #337 ) ;
#36 = AXIS2_PLACEMENT_3D ( 'NONE', #326, #509, #374 ) ;
#37 = CARTESIAN_POINT ( 'NONE',  ( 0.000000000000000000, 0.000000000000000000, -30.52475137813475214 ) ) ;
#38 = ORIENTED_EDGE ( 'NONE', *, *, #180, .T. ) ;
#39 = DIRECTION ( 'NONE',  ( -1.000000000000000000, 0.000000000000000000, 0.000000000000000000 ) ) ;
#40 = ORIENTED_EDGE ( 'NONE', *, *, #431, .F. ) ;
#41 = DIRECTION ( 'NONE',  ( -1.000000000000000000, 0.000000000000000000, 0.000000000000000000 ) ) ;
#42 = ORIENTED_EDGE ( 'NONE', *, *, #331, .T. ) ;
#43 = CARTESIAN_POINT ( 'NONE',  ( 0.000000000000000000, 0.000000000000000000, -15.15000000000000036 ) ) ;
#44 = VECTOR ( 'NONE', #277, 1000.000000000000000 ) ;
#45 = CIRCLE ( 'NONE', #124, 5.549999999999999822 ) ;
#46 = DIRECTION ( 'NONE',  ( -0.000000000000000000, -0.000000000000000000, -1.000000000000000000 ) ) ;
#47 = EDGE_CURVE ( 'NONE', #576, #584, #103, .T. ) ;
#48 = DIRECTION ( 'NONE',  ( -0.000000000000000000, -0.000000000000000000, -1.000000000000000000 ) ) ;
#49 = EDGE_CURVE ( 'NONE', #230, #528, #468, .T. ) ;
#50 = EDGE_LOOP ( 'NONE', ( #525, #42, #355, #343 ) ) ;
#51 = PERSON ( 'UNSPECIFIED', 'UNSPECIFIED', 'UNSPECIFIED', ('UNSPECIFIED'), ('UNSPECIFIED'), ('UNSPECIFIED') ) ;
#52 = FACE_OUTER_BOUND ( 'NONE', #158, .T. ) ;
#53 =( BOUNDED_SURFACE ( )  B_SPLINE_SURFACE ( 2, 3, ( 
 ( #87, #321, #126, #273 ),
 ( #557, #464, #182, #596 ),
 ( #372, #81, #460, #332 ) ),
 .UNSPECIFIED., .F., .F., .F. ) 
 B_SPLINE_SURFACE_WITH_KNOTS ( ( 3, 3 ),
 ( 4, 4 ),
 ( 0.000000000000000000, 1.000000000000000000 ),
 ( 0.000000000000000000, 1.000000000000000000 ),
 .UNSPECIFIED. ) 
 GEOMETRIC_REPRESENTATION_ITEM ( )  RATIONAL_B_SPLINE_SURFACE ( (
 ( 1.000000000000000000, 0.3333333333333334259, 0.3333333333333334259, 1.000000000000000000),
 ( 1.000000000000000000, 0.3333333333333334259, 0.3333333333333334259, 1.000000000000000000),
 ( 1.000000000000000000, 0.3333333333333334259, 0.3333333333333334259, 1.000000000000000000) ) ) 
 REPRESENTATION_ITEM ( '' )  SURFACE ( )  );
#54 = CARTESIAN_POINT ( 'NONE',  ( 14.99000000000000021, 1.835745551921882411E-15, -11.44999999999999751 ) ) ;
#55 = B_SPLINE_CURVE_WITH_KNOTS ( 'NONE', 2,
 ( #482, #56, #430 ),
 .UNSPECIFIED., .F., .F.,
 ( 3, 3 ),
 ( 0.000000000000000000, 1.000000000000000000 ),
 .UNSPECIFIED. ) ;
#56 = CARTESIAN_POINT ( 'NONE',  ( 6.057028237014331573, 0.000000000000000000, 24.10674524897901350 ) ) ;
#57 = EDGE_CURVE ( 'NONE', #78, #110, #392, .T. ) ;
#58 = DIRECTION ( 'NONE',  ( -0.000000000000000000, -0.000000000000000000, -1.000000000000000000 ) ) ;
#59 = CARTESIAN_POINT ( 'NONE',  ( 0.000000000000000000, 0.000000000000000000, -11.44999999999999751 ) ) ;
#60 = ADVANCED_FACE ( 'NONE', ( #83, #591 ), #271, .F. ) ;
#61 = CALENDAR_DATE ( 2026, 21, 4 ) ;
#62 = DIRECTION ( 'NONE',  ( -0.000000000000000000, -0.000000000000000000, -1.000000000000000000 ) ) ;
#63 = AXIS2_PLACEMENT_3D ( 'NONE', #82, #268, #456 ) ;
#64 = AXIS2_PLACEMENT_3D ( 'NONE', #301, #159, #168 ) ;
#65 = AXIS2_PLACEMENT_3D ( 'NONE', #254, #62, #572 ) ;
#66 = VERTEX_POINT ( 'NONE', #172 ) ;
#67 = DIRECTION ( 'NONE',  ( -1.000000000000000000, 0.000000000000000000, 0.000000000000000000 ) ) ;
#68 = CARTESIAN_POINT ( 'NONE',  ( -12.69999999999999929, 0.000000000000000000, -7.449999999999998401 ) ) ;
#69 = ORIENTED_EDGE ( 'NONE', *, *, #445, .F. ) ;
#70 = DATE_AND_TIME ( #304, #154 ) ;
#71 = CYLINDRICAL_SURFACE ( 'NONE', #84, 5.549999999999999822 ) ;
#72 = ORIENTED_EDGE ( 'NONE', *, *, #599, .F. ) ;
#73 = DIRECTION ( 'NONE',  ( 0.000000000000000000, 0.000000000000000000, -1.000000000000000000 ) ) ;
#74 = EDGE_LOOP ( 'NONE', ( #426, #33, #348, #12 ) ) ;
#75 = PRODUCT_RELATED_PRODUCT_CATEGORY ( 'detail', '', ( #470 ) ) ;
#76 = CIRCLE ( 'NONE', #149, 2.399999999999999911 ) ;
#77 = LINE ( 'NONE', #454, #34 ) ;
#78 = VERTEX_POINT ( 'NONE', #394 ) ;
#79 = CC_DESIGN_APPROVAL ( #305, ( #503 ) ) ;
#80 = CARTESIAN_POINT ( 'NONE',  ( 14.99000000000000021, 1.835745551921882411E-15, -30.52475137813475214 ) ) ;
#81 = CARTESIAN_POINT ( 'NONE',  ( 12.00000000000000000, -23.99999999999999289, 25.45000000000000284 ) ) ;
#82 = CARTESIAN_POINT ( 'NONE',  ( 0.000000000000000000, 0.000000000000000000, -30.52475137813475214 ) ) ;
#83 = FACE_OUTER_BOUND ( 'NONE', #122, .T. ) ;
#84 = AXIS2_PLACEMENT_3D ( 'NONE', #211, #469, #423 ) ;
#85 = CARTESIAN_POINT ( 'NONE',  ( 0.000000000000000000, 0.000000000000000000, -7.449999999999998401 ) ) ;
#86 = EDGE_CURVE ( 'NONE', #328, #112, #55, .T. ) ;
#87 = CARTESIAN_POINT ( 'NONE',  ( 0.000000000000000000, 0.000000000000000000, 23.75000000000000355 ) ) ;
#88 = DIRECTION ( 'NONE',  ( -0.000000000000000000, -0.000000000000000000, -1.000000000000000000 ) ) ;
#89 = ORIENTED_EDGE ( 'NONE', *, *, #401, .T. ) ;
#90 = DIRECTION ( 'NONE',  ( -0.000000000000000000, -0.000000000000000000, -1.000000000000000000 ) ) ;
#91 = ORIENTED_EDGE ( 'NONE', *, *, #457, .T. ) ;
#92 = CC_DESIGN_DATE_AND_TIME_ASSIGNMENT ( #574, #529, ( #503 ) ) ;
#93 = DIRECTION ( 'NONE',  ( -1.000000000000000000, 0.000000000000000000, 0.000000000000000000 ) ) ;
#94 = AXIS2_PLACEMENT_3D ( 'NONE', #465, #58, #207 ) ;
#95 = CARTESIAN_POINT ( 'NONE',  ( 0.000000000000000000, 0.000000000000000000, 4.550000000000001599 ) ) ;
#96 = CC_DESIGN_SECURITY_CLASSIFICATION ( #205, ( #329 ) ) ;
#97 = MANIFOLD_SOLID_BREP ( 'Cut-Extrude2', #173 ) ;
#98 = APPLICATION_PROTOCOL_DEFINITION ( 'international standard', 'config_control_design', 1994, #3 ) ;
#99 = ORIENTED_EDGE ( 'NONE', *, *, #171, .T. ) ;
#100 = FACE_OUTER_BOUND ( 'NONE', #185, .T. ) ;
#101 = DIRECTION ( 'NONE',  ( -1.000000000000000000, 0.000000000000000000, 0.000000000000000000 ) ) ;
#102 = EDGE_CURVE ( 'NONE', #169, #362, #524, .T. ) ;
#103 = CIRCLE ( 'NONE', #191, 14.99000000000000021 ) ;
#104 =( LENGTH_UNIT ( ) NAMED_UNIT ( * ) SI_UNIT ( .MILLI., .METRE. ) );
#105 = CARTESIAN_POINT ( 'NONE',  ( 12.69999999999999929, 0.000000000000000000, 7.449999999999994849 ) ) ;
#106 = EDGE_CURVE ( 'NONE', #584, #576, #251, .T. ) ;
#107 = ORIENTED_EDGE ( 'NONE', *, *, #57, .F. ) ;
#108 = DIRECTION ( 'NONE',  ( -0.000000000000000000, -0.000000000000000000, -1.000000000000000000 ) ) ;
#109 = DIRECTION ( 'NONE',  ( -0.000000000000000000, -0.000000000000000000, -1.000000000000000000 ) ) ;
#110 = VERTEX_POINT ( 'NONE', #387 ) ;
#111 = DIRECTION ( 'NONE',  ( -1.000000000000000000, 0.000000000000000000, 0.000000000000000000 ) ) ;
#112 = VERTEX_POINT ( 'NONE', #467 ) ;
#113 = ADVANCED_FACE ( 'NONE', ( #11 ), #569, .T. ) ;
#114 = FACE_OUTER_BOUND ( 'NONE', #137, .T. ) ;
#115 = AXIS2_PLACEMENT_3D ( 'NONE', #479, #147, #386 ) ;
#116 = ORIENTED_EDGE ( 'NONE', *, *, #393, .T. ) ;
#117 = COORDINATED_UNIVERSAL_TIME_OFFSET ( 8, 0, .BEHIND. ) ;
#118 = LINE ( 'NONE', #411, #364 ) ;
#119 = EDGE_CURVE ( 'NONE', #226, #169, #315, .T. ) ;
#120 = ORIENTED_EDGE ( 'NONE', *, *, #431, .T. ) ;
#121 = CARTESIAN_POINT ( 'NONE',  ( 0.000000000000000000, 0.000000000000000000, 9.850000000000003197 ) ) ;
#122 = EDGE_LOOP ( 'NONE', ( #539, #69 ) ) ;
#123 = VECTOR ( 'NONE', #597, 1000.000000000000000 ) ;
#124 = AXIS2_PLACEMENT_3D ( 'NONE', #350, #250, #14 ) ;
#125 = CARTESIAN_POINT ( 'NONE',  ( 0.000000000000000000, 0.000000000000000000, 23.75000000000000355 ) ) ;
#126 = CARTESIAN_POINT ( 'NONE',  ( 0.000000000000000000, 0.000000000000000000, 23.75000000000000355 ) ) ;
#127 = CARTESIAN_POINT ( 'NONE',  ( 0.000000000000000000, 0.000000000000000000, -30.52475137813475214 ) ) ;
#128 = DIRECTION ( 'NONE',  ( -1.000000000000000000, 0.000000000000000000, 0.000000000000000000 ) ) ;
#129 = DIRECTION ( 'NONE',  ( 0.000000000000000000, 0.000000000000000000, -1.000000000000000000 ) ) ;
#130 = DIRECTION ( 'NONE',  ( -1.000000000000000000, 0.000000000000000000, 0.000000000000000000 ) ) ;
#131 = FACE_OUTER_BOUND ( 'NONE', #499, .T. ) ;
#132 = CARTESIAN_POINT ( 'NONE',  ( 0.000000000000000000, 0.000000000000000000, 7.449999999999994849 ) ) ;
#133 = APPROVAL_PERSON_ORGANIZATION ( #586, #494, #368 ) ;
#134 = CARTESIAN_POINT ( 'NONE',  ( 12.69999999999999929, 1.555301434917138433E-15, -30.52475137813475214 ) ) ;
#135 = ORIENTED_EDGE ( 'NONE', *, *, #338, .T. ) ;
#136 = LINE ( 'NONE', #134, #44 ) ;
#137 = EDGE_LOOP ( 'NONE', ( #23, #209 ) ) ;
#138 = CARTESIAN_POINT ( 'NONE',  ( 0.000000000000000000, 0.000000000000000000, 4.550000000000001599 ) ) ;
#139 = CIRCLE ( 'NONE', #224, 12.00000000000000000 ) ;
#140 = AXIS2_PLACEMENT_3D ( 'NONE', #121, #583, #538 ) ;
#141 = ORIENTED_EDGE ( 'NONE', *, *, #245, .F. ) ;
#142 = DIRECTION ( 'NONE',  ( -0.000000000000000000, -0.000000000000000000, -1.000000000000000000 ) ) ;
#143 = ORIENTED_EDGE ( 'NONE', *, *, #545, .T. ) ;
#144 = UNCERTAINTY_MEASURE_WITH_UNIT (LENGTH_MEASURE( 1.000000000000000082E-05 ), #104, 'distance_accuracy_value', 'NONE');
#145 = EDGE_CURVE ( 'NONE', #553, #576, #527, .T. ) ;
#146 = DIRECTION ( 'NONE',  ( -0.000000000000000000, -0.000000000000000000, -1.000000000000000000 ) ) ;
#147 = DIRECTION ( 'NONE',  ( -0.000000000000000000, -0.000000000000000000, -1.000000000000000000 ) ) ;
#148 = EDGE_CURVE ( 'NONE', #453, #282, #4, .T. ) ;
#149 = AXIS2_PLACEMENT_3D ( 'NONE', #138, #129, #281 ) ;
#150 = DIRECTION ( 'NONE',  ( 0.000000000000000000, 0.000000000000000000, -1.000000000000000000 ) ) ;
#151 = AXIS2_PLACEMENT_3D ( 'NONE', #480, #477, #444 ) ;
#152 = COORDINATED_UNIVERSAL_TIME_OFFSET ( 8, 0, .BEHIND. ) ;
#153 = CARTESIAN_POINT ( 'NONE',  ( 14.99000000000000021, 0.000000000000000000, 11.44999999999999751 ) ) ;
#154 = LOCAL_TIME ( 9, 19, 15.00000000000000000, #117 ) ;
#155 = ADVANCED_FACE ( 'NONE', ( #567 ), #458, .T. ) ;
#156 = VERTEX_POINT ( 'NONE', #68 ) ;
#157 = LINE ( 'NONE', #578, #414 ) ;
#158 = EDGE_LOOP ( 'NONE', ( #495, #292 ) ) ;
#159 = DIRECTION ( 'NONE',  ( 0.000000000000000000, 0.000000000000000000, 1.000000000000000000 ) ) ;
#160 = AXIS2_PLACEMENT_3D ( 'NONE', #592, #73, #498 ) ;
#161 = AXIS2_PLACEMENT_3D ( 'NONE', #306, #266, #259 ) ;
#162 = AXIS2_PLACEMENT_3D ( 'NONE', #420, #515, #598 ) ;
#163 = EDGE_LOOP ( 'NONE', ( #535, #228, #89, #446 ) ) ;
#164 = CARTESIAN_POINT ( 'NONE',  ( -12.00000000000000533, 23.99999999999999289, 25.45000000000000284 ) ) ;
#165 = AXIS2_PLACEMENT_3D ( 'NONE', #568, #199, #238 ) ;
#166 = ORIENTED_EDGE ( 'NONE', *, *, #562, .F. ) ;
#167 = SHAPE_DEFINITION_REPRESENTATION ( #380, #192 ) ;
#168 = DIRECTION ( 'NONE',  ( 1.000000000000000000, 0.000000000000000000, -0.000000000000000000 ) ) ;
#169 = VERTEX_POINT ( 'NONE', #105 ) ;
#170 = CARTESIAN_POINT ( 'NONE',  ( 0.000000000000000000, 0.000000000000000000, 23.75000000000000355 ) ) ;
#171 = EDGE_CURVE ( 'NONE', #226, #156, #293, .T. ) ;
#172 = CARTESIAN_POINT ( 'NONE',  ( -2.399999999999999911, 0.000000000000000000, 4.550000000000001599 ) ) ;
#173 = CLOSED_SHELL ( 'NONE', ( #25, #235, #377, #356, #519, #587, #155, #361, #260, #60, #279, #352, #113, #549, #581, #241, #604, #537, #474, #214 ) ) ;
#174 = APPLICATION_CONTEXT ( 'configuration controlled 3d designs of mechanical parts and assemblies' ) ;
#175 = CARTESIAN_POINT ( 'NONE',  ( -14.99000000000000021, 0.000000000000000000, 11.44999999999999751 ) ) ;
#176 = ORIENTED_EDGE ( 'NONE', *, *, #47, .F. ) ;
#177 = EDGE_CURVE ( 'NONE', #267, #448, #45, .T. ) ;
#178 = DIRECTION ( 'NONE',  ( -0.4968397262372764578, 0.000000000000000000, -0.8678423165716617760 ) ) ;
#179 = CARTESIAN_POINT ( 'NONE',  ( -6.057028237014331573, -7.417720242804737085E-16, 24.10674524897901350 ) ) ;
#180 = EDGE_CURVE ( 'NONE', #584, #282, #157, .T. ) ;
#181 = LINE ( 'NONE', #425, #270 ) ;
#182 = CARTESIAN_POINT ( 'NONE',  ( -6.057028237014330685, -12.11405647402866137, 24.10674524897901350 ) ) ;
#183 = CARTESIAN_POINT ( 'NONE',  ( 14.99000000000000021, 1.835745551921882411E-15, -15.14999999999999858 ) ) ;
#184 = APPROVAL ( #322, 'UNSPECIFIED' ) ;
#185 = EDGE_LOOP ( 'NONE', ( #589, #570, #38, #455 ) ) ;
#186 = LOCAL_TIME ( 9, 19, 15.00000000000000000, #318 ) ;
#187 = CARTESIAN_POINT ( 'NONE',  ( 14.99000000000000021, 1.835745551921882411E-15, 25.44999999999999574 ) ) ;
#188 = CARTESIAN_POINT ( 'NONE',  ( 0.000000000000000000, 0.000000000000000000, 11.44999999999999751 ) ) ;
#189 = AXIS2_PLACEMENT_3D ( 'NONE', #188, #46, #274 ) ;
#190 = LINE ( 'NONE', #384, #580 ) ;
#191 = AXIS2_PLACEMENT_3D ( 'NONE', #551, #548, #128 ) ;
#192 = ADVANCED_BREP_SHAPE_REPRESENTATION ( 'Captured Pulley V5', ( #97, #165 ), #358 ) ;
#193 = EDGE_LOOP ( 'NONE', ( #579, #28, #141 ) ) ;
#194 = PERSON_AND_ORGANIZATION_ROLE ( 'design_owner' ) ;
#195 = DIRECTION ( 'NONE',  ( -0.000000000000000000, -0.000000000000000000, -1.000000000000000000 ) ) ;
#196 = EDGE_CURVE ( 'NONE', #110, #78, #201, .T. ) ;
#197 = CARTESIAN_POINT ( 'NONE',  ( 0.000000000000000000, 0.000000000000000000, 7.449999999999994849 ) ) ;
#198 = ORIENTED_EDGE ( 'NONE', *, *, #269, .F. ) ;
#199 = DIRECTION ( 'NONE',  ( 0.000000000000000000, 0.000000000000000000, 1.000000000000000000 ) ) ;
#200 = DIRECTION ( 'NONE',  ( -0.000000000000000000, -0.000000000000000000, -1.000000000000000000 ) ) ;
#201 = CIRCLE ( 'NONE', #383, 5.549999999999999822 ) ;
#202 = ORIENTED_EDGE ( 'NONE', *, *, #486, .F. ) ;
#203 = DIRECTION ( 'NONE',  ( -0.000000000000000000, -0.000000000000000000, -1.000000000000000000 ) ) ;
#204 = FACE_OUTER_BOUND ( 'NONE', #213, .T. ) ;
#205 = SECURITY_CLASSIFICATION ( '', '', #29 ) ;
#206 = ORIENTED_EDGE ( 'NONE', *, *, #382, .T. ) ;
#207 = DIRECTION ( 'NONE',  ( -1.000000000000000000, 0.000000000000000000, 0.000000000000000000 ) ) ;
#208 = CYLINDRICAL_SURFACE ( 'NONE', #413, 2.399999999999999911 ) ;
#209 = ORIENTED_EDGE ( 'NONE', *, *, #486, .T. ) ;
#210 = PERSON_AND_ORGANIZATION_ROLE ( 'creator' ) ;
#211 = CARTESIAN_POINT ( 'NONE',  ( 0.000000000000000000, 0.000000000000000000, 4.550000000000001599 ) ) ;
#212 = VECTOR ( 'NONE', #8, 1000.000000000000000 ) ;
#213 = EDGE_LOOP ( 'NONE', ( #202, #143, #565, #602 ) ) ;
#214 = ADVANCED_FACE ( 'NONE', ( #114 ), #354, .T. ) ;
#215 = COORDINATED_UNIVERSAL_TIME_OFFSET ( 8, 0, .BEHIND. ) ;
#216 = CARTESIAN_POINT ( 'NONE',  ( -6.057028237014331573, -7.417720242804737085E-16, 24.10674524897901350 ) ) ;
#217 = CC_DESIGN_APPROVAL ( #494, ( #329 ) ) ;
#218 = EDGE_LOOP ( 'NONE', ( #541, #501, #6, #166 ) ) ;
#219 = FACE_OUTER_BOUND ( 'NONE', #286, .T. ) ;
#220 = ORIENTED_EDGE ( 'NONE', *, *, #145, .T. ) ;
#221 = CARTESIAN_POINT ( 'NONE',  ( -14.99000000000000021, 0.000000000000000000, -15.14999999999999858 ) ) ;
#222 = EDGE_CURVE ( 'NONE', #156, #553, #280, .T. ) ;
#223 = ORIENTED_EDGE ( 'NONE', *, *, #177, .T. ) ;
#224 = AXIS2_PLACEMENT_3D ( 'NONE', #590, #313, #310 ) ;
#225 = DIRECTION ( 'NONE',  ( -0.000000000000000000, -0.000000000000000000, -1.000000000000000000 ) ) ;
#226 = VERTEX_POINT ( 'NONE', #534 ) ;
#227 = PLANE ( 'NONE',  #391 ) ;
#228 = ORIENTED_EDGE ( 'NONE', *, *, #311, .F. ) ;
#229 = DIRECTION ( 'NONE',  ( 0.000000000000000000, 0.000000000000000000, -1.000000000000000000 ) ) ;
#230 = VERTEX_POINT ( 'NONE', #244 ) ;
#231 = DIRECTION ( 'NONE',  ( -1.000000000000000000, 0.000000000000000000, 0.000000000000000000 ) ) ;
#232 = FACE_OUTER_BOUND ( 'NONE', #163, .T. ) ;
#233 = ORIENTED_EDGE ( 'NONE', *, *, #507, .F. ) ;
#234 = DIRECTION ( 'NONE',  ( 1.000000000000000000, 0.000000000000000000, 0.000000000000000000 ) ) ;
#235 = ADVANCED_FACE ( 'NONE', ( #204 ), #208, .F. ) ;
#236 = ORIENTED_EDGE ( 'NONE', *, *, #562, .T. ) ;
#237 = AXIS2_PLACEMENT_3D ( 'NONE', #381, #325, #93 ) ;
#238 = DIRECTION ( 'NONE',  ( 1.000000000000000000, 0.000000000000000000, 0.000000000000000000 ) ) ;
#239 = AXIS2_PLACEMENT_3D ( 'NONE', #422, #462, #130 ) ;
#240 = PLANE ( 'NONE',  #64 ) ;
#241 = ADVANCED_FACE ( 'NONE', ( #400, #52 ), #240, .F. ) ;
#242 = CARTESIAN_POINT ( 'NONE',  ( 0.000000000000000000, 0.000000000000000000, 4.550000000000001599 ) ) ;
#243 = AXIS2_PLACEMENT_3D ( 'NONE', #485, #142, #67 ) ;
#244 = CARTESIAN_POINT ( 'NONE',  ( -14.99000000000000021, 0.000000000000000000, 25.44999999999999574 ) ) ;
#245 = EDGE_CURVE ( 'NONE', #112, #1, #139, .T. ) ;
#246 = CARTESIAN_POINT ( 'NONE',  ( -14.99000000000000021, 0.000000000000000000, -11.44999999999999751 ) ) ;
#247 = DIRECTION ( 'NONE',  ( 0.4968397262372764578, 6.084531804257279676E-17, -0.8678423165716617760 ) ) ;
#248 = PERSON_AND_ORGANIZATION_ROLE ( 'creator' ) ;
#249 = CIRCLE ( 'NONE', #542, 12.69999999999999929 ) ;
#250 = DIRECTION ( 'NONE',  ( 0.000000000000000000, 0.000000000000000000, 1.000000000000000000 ) ) ;
#251 = CIRCLE ( 'NONE', #289, 14.99000000000000021 ) ;
#252 = EDGE_LOOP ( 'NONE', ( #340, #91, #206, #594 ) ) ;
#253 = CARTESIAN_POINT ( 'NONE',  ( 0.000000000000000000, 0.000000000000000000, 25.44999999999999574 ) ) ;
#254 = CARTESIAN_POINT ( 'NONE',  ( 0.000000000000000000, 0.000000000000000000, -30.52475137813475214 ) ) ;
#255 = EDGE_LOOP ( 'NONE', ( #107, #573, #324, #483 ) ) ;
#256 = FACE_OUTER_BOUND ( 'NONE', #405, .T. ) ;
#257 = EDGE_LOOP ( 'NONE', ( #233, #198 ) ) ;
#258 = APPROVAL_ROLE ( '' ) ;
#259 = DIRECTION ( 'NONE',  ( 1.000000000000000000, 0.000000000000000000, 0.000000000000000000 ) ) ;
#260 = ADVANCED_FACE ( 'NONE', ( #256 ), #412, .F. ) ;
#261 = ORIENTED_EDGE ( 'NONE', *, *, #222, .T. ) ;
#262 = DATE_TIME_ROLE ( 'classification_date' ) ;
#263 = DIRECTION ( 'NONE',  ( -0.000000000000000000, -0.000000000000000000, -1.000000000000000000 ) ) ;
#264 = ORIENTED_EDGE ( 'NONE', *, *, #180, .F. ) ;
#265 = APPROVAL_DATE_TIME ( #497, #494 ) ;
#266 = DIRECTION ( 'NONE',  ( 0.000000000000000000, 0.000000000000000000, 1.000000000000000000 ) ) ;
#267 = VERTEX_POINT ( 'NONE', #493 ) ;
#268 = DIRECTION ( 'NONE',  ( -0.000000000000000000, -0.000000000000000000, -1.000000000000000000 ) ) ;
#269 = EDGE_CURVE ( 'NONE', #520, #66, #300, .T. ) ;
#270 = VECTOR ( 'NONE', #376, 1000.000000000000000 ) ;
#271 = PLANE ( 'NONE',  #36 ) ;
#272 = DIRECTION ( 'NONE',  ( -0.4968397262372760692, 6.084531804257273513E-17, 0.8678423165716618870 ) ) ;
#273 = CARTESIAN_POINT ( 'NONE',  ( 0.000000000000000000, 0.000000000000000000, 23.75000000000000355 ) ) ;
#274 = DIRECTION ( 'NONE',  ( -1.000000000000000000, 0.000000000000000000, 0.000000000000000000 ) ) ;
#275 = ORIENTED_EDGE ( 'NONE', *, *, #106, .T. ) ;
#276 = CC_DESIGN_PERSON_AND_ORGANIZATION_ASSIGNMENT ( #582, #31, ( #205 ) ) ;
#277 = DIRECTION ( 'NONE',  ( -0.000000000000000000, -0.000000000000000000, -1.000000000000000000 ) ) ;
#278 = DIRECTION ( 'NONE',  ( -1.000000000000000000, 0.000000000000000000, 0.000000000000000000 ) ) ;
#279 = ADVANCED_FACE ( 'NONE', ( #319 ), #540, .T. ) ;
#280 = CIRCLE ( 'NONE', #16, 12.69999999999999929 ) ;
#281 = DIRECTION ( 'NONE',  ( -1.000000000000000000, 0.000000000000000000, 0.000000000000000000 ) ) ;
#282 = VERTEX_POINT ( 'NONE', #221 ) ;
#283 = APPROVAL_PERSON_ORGANIZATION ( #35, #184, #258 ) ;
#284 = LINE ( 'NONE', #472, #123 ) ;
#285 = EDGE_CURVE ( 'NONE', #110, #448, #77, .T. ) ;
#286 = EDGE_LOOP ( 'NONE', ( #275, #135, #72, #264 ) ) ;
#287 = FACE_OUTER_BOUND ( 'NONE', #20, .T. ) ;
#288 = EDGE_CURVE ( 'NONE', #156, #584, #500, .T. ) ;
#289 = AXIS2_PLACEMENT_3D ( 'NONE', #59, #195, #345 ) ;
#290 = CARTESIAN_POINT ( 'NONE',  ( 0.000000000000000000, 0.000000000000000000, -7.449999999999998401 ) ) ;
#291 = CC_DESIGN_PERSON_AND_ORGANIZATION_ASSIGNMENT ( #489, #408, ( #329 ) ) ;
#292 = ORIENTED_EDGE ( 'NONE', *, *, #148, .T. ) ;
#293 = LINE ( 'NONE', #439, #449 ) ;
#294 = VERTEX_POINT ( 'NONE', #175 ) ;
#295 = DESIGN_CONTEXT ( 'detailed design', #174, 'design' ) ;
#296 = DIRECTION ( 'NONE',  ( -1.000000000000000000, 0.000000000000000000, 0.000000000000000000 ) ) ;
#297 = DIRECTION ( 'NONE',  ( -1.000000000000000000, 0.000000000000000000, 0.000000000000000000 ) ) ;
#298 = EDGE_LOOP ( 'NONE', ( #316, #563 ) ) ;
#299 = DATE_AND_TIME ( #61, #433 ) ;
#300 = CIRCLE ( 'NONE', #160, 2.399999999999999911 ) ;
#301 = CARTESIAN_POINT ( 'NONE',  ( 2.000000000000000000, 0.000000000000000000, -15.14999999999999858 ) ) ;
#302 = AXIS2_PLACEMENT_3D ( 'NONE', #127, #588, #369 ) ;
#303 = VERTEX_POINT ( 'NONE', #547 ) ;
#304 = CALENDAR_DATE ( 2026, 21, 4 ) ;
#305 = APPROVAL ( #571, 'UNSPECIFIED' ) ;
#306 = CARTESIAN_POINT ( 'NONE',  ( 0.000000000000000000, 0.000000000000000000, 11.44999999999999751 ) ) ;
#307 = AXIS2_PLACEMENT_3D ( 'NONE', #242, #203, #296 ) ;
#308 = ORIENTED_EDGE ( 'NONE', *, *, #245, .T. ) ;
#309 = APPROVAL_DATE_TIME ( #70, #184 ) ;
#310 = DIRECTION ( 'NONE',  ( -1.000000000000000000, 0.000000000000000000, 0.000000000000000000 ) ) ;
#311 = EDGE_CURVE ( 'NONE', #415, #303, #496, .T. ) ;
#312 = ORIENTED_EDGE ( 'NONE', *, *, #22, .F. ) ;
#313 = DIRECTION ( 'NONE',  ( -0.000000000000000000, -0.000000000000000000, -1.000000000000000000 ) ) ;
#314 = CONICAL_SURFACE ( 'NONE', #366, 12.69999999999999929, 0.5199534337697294673 ) ;
#315 = CIRCLE ( 'NONE', #441, 12.69999999999999929 ) ;
#316 = ORIENTED_EDGE ( 'NONE', *, *, #196, .T. ) ;
#317 = CC_DESIGN_PERSON_AND_ORGANIZATION_ASSIGNMENT ( #526, #248, ( #503 ) ) ;
#318 = COORDINATED_UNIVERSAL_TIME_OFFSET ( 8, 0, .BEHIND. ) ;
#319 = FACE_OUTER_BOUND ( 'NONE', #218, .T. ) ;
#320 = AXIS2_PLACEMENT_3D ( 'NONE', #344, #108, #438 ) ;
#321 = CARTESIAN_POINT ( 'NONE',  ( 0.000000000000000000, 0.000000000000000000, 23.75000000000000355 ) ) ;
#322 = APPROVAL_STATUS ( 'not_yet_approved' ) ;
#323 = DIRECTION ( 'NONE',  ( -0.000000000000000000, -0.000000000000000000, -1.000000000000000000 ) ) ;
#324 = ORIENTED_EDGE ( 'NONE', *, *, #393, .F. ) ;
#325 = DIRECTION ( 'NONE',  ( -0.000000000000000000, -0.000000000000000000, -1.000000000000000000 ) ) ;
#326 = CARTESIAN_POINT ( 'NONE',  ( 14.99000000000000021, 0.000000000000000000, 25.44999999999999929 ) ) ;
#327 = DIRECTION ( 'NONE',  ( -1.000000000000000000, 0.000000000000000000, 0.000000000000000000 ) ) ;
#328 = VERTEX_POINT ( 'NONE', #170 ) ;
#329 = PRODUCT_DEFINITION_FORMATION_WITH_SPECIFIED_SOURCE ( 'ANY', '', #470, .NOT_KNOWN. ) ;
#330 = DIRECTION ( 'NONE',  ( 0.000000000000000000, 0.000000000000000000, -1.000000000000000000 ) ) ;
#331 = EDGE_CURVE ( 'NONE', #528, #362, #452, .T. ) ;
#332 = CARTESIAN_POINT ( 'NONE',  ( -12.00000000000000000, -1.469576158976823947E-15, 25.44999999999999929 ) ) ;
#333 = DIRECTION ( 'NONE',  ( -0.000000000000000000, -0.000000000000000000, -1.000000000000000000 ) ) ;
#334 = VECTOR ( 'NONE', #247, 999.9999999999998863 ) ;
#335 = CARTESIAN_POINT ( 'NONE',  ( -5.549999999999999822, 0.000000000000000000, -15.15000000000000036 ) ) ;
#336 = ORIENTED_EDGE ( 'NONE', *, *, #593, .T. ) ;
#337 = ORGANIZATION ( 'UNSPECIFIED', 'UNSPECIFIED', '' ) ;
#338 = EDGE_CURVE ( 'NONE', #576, #453, #118, .T. ) ;
#339 =( NAMED_UNIT ( * ) PLANE_ANGLE_UNIT ( ) SI_UNIT ( $, .RADIAN. ) );
#340 = ORIENTED_EDGE ( 'NONE', *, *, #119, .F. ) ;
#341 = CALENDAR_DATE ( 2026, 21, 4 ) ;
#342 = CARTESIAN_POINT ( 'NONE',  ( 0.000000000000000000, 0.000000000000000000, 4.550000000000001599 ) ) ;
#343 = ORIENTED_EDGE ( 'NONE', *, *, #437, .F. ) ;
#344 = CARTESIAN_POINT ( 'NONE',  ( 0.000000000000000000, 0.000000000000000000, -15.14999999999999858 ) ) ;
#345 = DIRECTION ( 'NONE',  ( -1.000000000000000000, 0.000000000000000000, 0.000000000000000000 ) ) ;
#346 = APPROVAL_DATE_TIME ( #299, #305 ) ;
#347 = DIRECTION ( 'NONE',  ( -1.000000000000000000, 0.000000000000000000, 0.000000000000000000 ) ) ;
#348 = ORIENTED_EDGE ( 'NONE', *, *, #285, .T. ) ;
#349 = APPLICATION_PROTOCOL_DEFINITION ( 'international standard', 'config_control_design', 1994, #174 ) ;
#350 = CARTESIAN_POINT ( 'NONE',  ( 0.000000000000000000, 0.000000000000000000, -15.15000000000000036 ) ) ;
#351 = ORIENTED_EDGE ( 'NONE', *, *, #145, .F. ) ;
#352 = ADVANCED_FACE ( 'NONE', ( #504 ), #560, .T. ) ;
#353 = PERSON_AND_ORGANIZATION ( #51, #337 ) ;
#354 = PLANE ( 'NONE',  #533 ) ;
#355 = ORIENTED_EDGE ( 'NONE', *, *, #382, .F. ) ;
#356 = ADVANCED_FACE ( 'NONE', ( #219 ), #32, .T. ) ;
#357 = CARTESIAN_POINT ( 'NONE',  ( 12.00000000000000000, 2.939152317953647894E-15, 25.44999999999999929 ) ) ;
#358 =( GEOMETRIC_REPRESENTATION_CONTEXT ( 3 ) GLOBAL_UNCERTAINTY_ASSIGNED_CONTEXT ( ( #144 ) ) GLOBAL_UNIT_ASSIGNED_CONTEXT ( ( #104, #339, #473 ) ) REPRESENTATION_CONTEXT ( 'NONE', 'WORKASPACE' ) );
#359 = ORIENTED_EDGE ( 'NONE', *, *, #288, .F. ) ;
#360 = CARTESIAN_POINT ( 'NONE',  ( 6.057028237014329797, 12.11405647402866137, 24.10674524897901350 ) ) ;
#361 = ADVANCED_FACE ( 'NONE', ( #416 ), #409, .T. ) ;
#362 = VERTEX_POINT ( 'NONE', #371 ) ;
#363 = B_SPLINE_CURVE_WITH_KNOTS ( 'NONE', 2,
 ( #367, #179, #544 ),
 .UNSPECIFIED., .F., .F.,
 ( 3, 3 ),
 ( 0.000000000000000000, 1.000000000000000000 ),
 .UNSPECIFIED. ) ;
#364 = VECTOR ( 'NONE', #30, 1000.000000000000000 ) ;
#365 = CARTESIAN_POINT ( 'NONE',  ( -12.00000000000000000, -1.469576158976823947E-15, 25.44999999999999929 ) ) ;
#366 = AXIS2_PLACEMENT_3D ( 'NONE', #85, #90, #39 ) ;
#367 = CARTESIAN_POINT ( 'NONE',  ( 0.000000000000000000, 0.000000000000000000, 23.75000000000000355 ) ) ;
#368 = APPROVAL_ROLE ( '' ) ;
#369 = DIRECTION ( 'NONE',  ( -1.000000000000000000, 0.000000000000000000, 0.000000000000000000 ) ) ;
#370 = DIRECTION ( 'NONE',  ( -0.000000000000000000, -0.000000000000000000, -1.000000000000000000 ) ) ;
#371 = CARTESIAN_POINT ( 'NONE',  ( 14.99000000000000021, 1.835745551921882411E-15, 11.44999999999999751 ) ) ;
#372 = CARTESIAN_POINT ( 'NONE',  ( 12.00000000000000000, 0.000000000000000000, 25.44999999999999929 ) ) ;
#373 = CARTESIAN_POINT ( 'NONE',  ( -2.399999999999999911, 0.000000000000000000, 9.850000000000003197 ) ) ;
#374 = DIRECTION ( 'NONE',  ( -1.000000000000000000, 0.000000000000000000, 0.000000000000000000 ) ) ;
#375 = AXIS2_PLACEMENT_3D ( 'NONE', #487, #389, #297 ) ;
#376 = DIRECTION ( 'NONE',  ( -0.000000000000000000, -0.000000000000000000, -1.000000000000000000 ) ) ;
#377 = ADVANCED_FACE ( 'NONE', ( #490 ), #71, .F. ) ;
#378 = CARTESIAN_POINT ( 'NONE',  ( -12.00000000000000000, -1.469576158976823947E-15, 25.44999999999999574 ) ) ;
#379 = CARTESIAN_POINT ( 'NONE',  ( 2.399999999999999911, 2.939152317953647106E-16, 4.550000000000001599 ) ) ;
#380 = PRODUCT_DEFINITION_SHAPE ( 'NONE', 'NONE',  #503 ) ;
#381 = CARTESIAN_POINT ( 'NONE',  ( 0.000000000000000000, 0.000000000000000000, 25.44999999999999574 ) ) ;
#382 = EDGE_CURVE ( 'NONE', #294, #362, #561, .T. ) ;
#383 = AXIS2_PLACEMENT_3D ( 'NONE', #342, #150, #101 ) ;
#384 = CARTESIAN_POINT ( 'NONE',  ( -14.99000000000000021, 1.835745551921882411E-15, 11.44999999999999751 ) ) ;
#385 = EDGE_LOOP ( 'NONE', ( #308, #336 ) ) ;
#386 = DIRECTION ( 'NONE',  ( -1.000000000000000000, 0.000000000000000000, 0.000000000000000000 ) ) ;
#387 = CARTESIAN_POINT ( 'NONE',  ( -5.549999999999999822, 0.000000000000000000, 4.550000000000001599 ) ) ;
#388 = CC_DESIGN_PERSON_AND_ORGANIZATION_ASSIGNMENT ( #353, #210, ( #329 ) ) ;
#389 = DIRECTION ( 'NONE',  ( -0.000000000000000000, -0.000000000000000000, -1.000000000000000000 ) ) ;
#390 = AXIS2_PLACEMENT_3D ( 'NONE', #43, #518, #234 ) ;
#391 = AXIS2_PLACEMENT_3D ( 'NONE', #95, #330, #600 ) ;
#392 = CIRCLE ( 'NONE', #162, 5.549999999999999822 ) ;
#393 = EDGE_CURVE ( 'NONE', #448, #267, #532, .T. ) ;
#394 = CARTESIAN_POINT ( 'NONE',  ( 5.549999999999999822, 6.796789735267810781E-16, 4.550000000000001599 ) ) ;
#395 = ORIENTED_EDGE ( 'NONE', *, *, #222, .F. ) ;
#396 = CYLINDRICAL_SURFACE ( 'NONE', #307, 5.549999999999999822 ) ;
#397 = AXIS2_PLACEMENT_3D ( 'NONE', #253, #434, #10 ) ;
#398 = DIRECTION ( 'NONE',  ( -1.000000000000000000, 0.000000000000000000, -0.000000000000000000 ) ) ;
#399 = ORIENTED_EDGE ( 'NONE', *, *, #288, .T. ) ;
#400 = FACE_BOUND ( 'NONE', #443, .T. ) ;
#401 = EDGE_CURVE ( 'NONE', #415, #66, #559, .T. ) ;
#402 = ORIENTED_EDGE ( 'NONE', *, *, #9, .F. ) ;
#403 = APPROVAL_STATUS ( 'not_yet_approved' ) ;
#404 = CARTESIAN_POINT ( 'NONE',  ( 0.000000000000000000, 0.000000000000000000, 23.75000000000000355 ) ) ;
#405 = EDGE_LOOP ( 'NONE', ( #312, #488, #491 ) ) ;
#406 = CARTESIAN_POINT ( 'NONE',  ( 11.99999999999999467, 24.00000000000000000, 25.45000000000000284 ) ) ;
#407 = ORIENTED_EDGE ( 'NONE', *, *, #555, .F. ) ;
#408 = PERSON_AND_ORGANIZATION_ROLE ( 'design_supplier' ) ;
#409 = CYLINDRICAL_SURFACE ( 'NONE', #484, 14.99000000000000021 ) ;
#410 = FACE_OUTER_BOUND ( 'NONE', #193, .T. ) ;
#411 = CARTESIAN_POINT ( 'NONE',  ( 14.99000000000000021, 1.835745551921882411E-15, -30.52475137813475214 ) ) ;
#412 =( BOUNDED_SURFACE ( )  B_SPLINE_SURFACE ( 2, 3, ( 
 ( #125, #404, #450, #27 ),
 ( #216, #550, #360, #24 ),
 ( #365, #164, #406, #357 ) ),
 .UNSPECIFIED., .F., .F., .F. ) 
 B_SPLINE_SURFACE_WITH_KNOTS ( ( 3, 3 ),
 ( 4, 4 ),
 ( 0.000000000000000000, 1.000000000000000000 ),
 ( 0.000000000000000000, 1.000000000000000000 ),
 .UNSPECIFIED. ) 
 GEOMETRIC_REPRESENTATION_ITEM ( )  RATIONAL_B_SPLINE_SURFACE ( (
 ( 1.000000000000000000, 0.3333333333333334259, 0.3333333333333334259, 1.000000000000000000),
 ( 1.000000000000000000, 0.3333333333333334259, 0.3333333333333334259, 1.000000000000000000),
 ( 1.000000000000000000, 0.3333333333333334259, 0.3333333333333334259, 1.000000000000000000) ) ) 
 REPRESENTATION_ITEM ( '' )  SURFACE ( )  );
#413 = AXIS2_PLACEMENT_3D ( 'NONE', #18, #435, #111 ) ;
#414 = VECTOR ( 'NONE', #200, 1000.000000000000000 ) ;
#415 = VERTEX_POINT ( 'NONE', #516 ) ;
#416 = FACE_OUTER_BOUND ( 'NONE', #50, .T. ) ;
#417 = EDGE_LOOP ( 'NONE', ( #261, #220, #432, #359 ) ) ;
#418 = CC_DESIGN_PERSON_AND_ORGANIZATION_ASSIGNMENT ( #7, #194, ( #470 ) ) ;
#419 = FACE_BOUND ( 'NONE', #257, .T. ) ;
#420 = CARTESIAN_POINT ( 'NONE',  ( 0.000000000000000000, 0.000000000000000000, 4.550000000000001599 ) ) ;
#421 = FACE_OUTER_BOUND ( 'NONE', #298, .T. ) ;
#422 = CARTESIAN_POINT ( 'NONE',  ( 0.000000000000000000, 0.000000000000000000, 25.44999999999999574 ) ) ;
#423 = DIRECTION ( 'NONE',  ( -1.000000000000000000, 0.000000000000000000, 0.000000000000000000 ) ) ;
#424 = EDGE_CURVE ( 'NONE', #78, #267, #181, .T. ) ;
#425 = CARTESIAN_POINT ( 'NONE',  ( 5.549999999999999822, 6.796789735267810781E-16, 4.550000000000001599 ) ) ;
#426 = ORIENTED_EDGE ( 'NONE', *, *, #424, .F. ) ;
#427 = CARTESIAN_POINT ( 'NONE',  ( -14.99000000000000021, 0.000000000000000000, -30.52475137813475214 ) ) ;
#428 = VECTOR ( 'NONE', #88, 1000.000000000000000 ) ;
#429 = CIRCLE ( 'NONE', #476, 12.69999999999999929 ) ;
#430 = CARTESIAN_POINT ( 'NONE',  ( 12.00000000000000000, 0.000000000000000000, 25.44999999999999574 ) ) ;
#431 = EDGE_CURVE ( 'NONE', #553, #156, #249, .T. ) ;
#432 = ORIENTED_EDGE ( 'NONE', *, *, #106, .F. ) ;
#433 = LOCAL_TIME ( 9, 19, 15.00000000000000000, #152 ) ;
#434 = DIRECTION ( 'NONE',  ( -0.000000000000000000, -0.000000000000000000, -1.000000000000000000 ) ) ;
#435 = DIRECTION ( 'NONE',  ( -0.000000000000000000, -0.000000000000000000, -1.000000000000000000 ) ) ;
#436 = ORIENTED_EDGE ( 'NONE', *, *, #555, .T. ) ;
#437 = EDGE_CURVE ( 'NONE', #230, #294, #461, .T. ) ;
#438 = DIRECTION ( 'NONE',  ( -1.000000000000000000, 0.000000000000000000, 0.000000000000000000 ) ) ;
#439 = CARTESIAN_POINT ( 'NONE',  ( -12.69999999999999929, 0.000000000000000000, -30.52475137813475214 ) ) ;
#440 = CYLINDRICAL_SURFACE ( 'NONE', #115, 12.69999999999999929 ) ;
#441 = AXIS2_PLACEMENT_3D ( 'NONE', #197, #109, #347 ) ;
#442 = DIRECTION ( 'NONE',  ( -1.000000000000000000, 0.000000000000000000, 0.000000000000000000 ) ) ;
#443 = EDGE_LOOP ( 'NONE', ( #116, #223 ) ) ;
#444 = DIRECTION ( 'NONE',  ( 1.000000000000000000, 0.000000000000000000, 0.000000000000000000 ) ) ;
#445 = EDGE_CURVE ( 'NONE', #528, #230, #508, .T. ) ;
#446 = ORIENTED_EDGE ( 'NONE', *, *, #507, .T. ) ;
#447 = CARTESIAN_POINT ( 'NONE',  ( -12.69999999999999929, 0.000000000000000000, -7.449999999999998401 ) ) ;
#448 = VERTEX_POINT ( 'NONE', #335 ) ;
#449 = VECTOR ( 'NONE', #146, 1000.000000000000000 ) ;
#450 = CARTESIAN_POINT ( 'NONE',  ( 0.000000000000000000, 0.000000000000000000, 23.75000000000000355 ) ) ;
#451 = ORIENTED_EDGE ( 'NONE', *, *, #171, .F. ) ;
#452 = LINE ( 'NONE', #80, #5 ) ;
#453 = VERTEX_POINT ( 'NONE', #183 ) ;
#454 = CARTESIAN_POINT ( 'NONE',  ( -5.549999999999999822, 0.000000000000000000, 4.550000000000001599 ) ) ;
#455 = ORIENTED_EDGE ( 'NONE', *, *, #148, .F. ) ;
#456 = DIRECTION ( 'NONE',  ( -1.000000000000000000, 0.000000000000000000, 0.000000000000000000 ) ) ;
#457 = EDGE_CURVE ( 'NONE', #226, #294, #190, .T. ) ;
#458 = CONICAL_SURFACE ( 'NONE', #151, 14.99000000000000021, 0.5199534337697291342 ) ;
#459 = VECTOR ( 'NONE', #178, 999.9999999999998863 ) ;
#460 = CARTESIAN_POINT ( 'NONE',  ( -11.99999999999999645, -23.99999999999999289, 25.45000000000000284 ) ) ;
#461 = LINE ( 'NONE', #427, #428 ) ;
#462 = DIRECTION ( 'NONE',  ( -0.000000000000000000, -0.000000000000000000, -1.000000000000000000 ) ) ;
#463 = CARTESIAN_POINT ( 'NONE',  ( 0.000000000000000000, 0.000000000000000000, -7.449999999999998401 ) ) ;
#464 = CARTESIAN_POINT ( 'NONE',  ( 6.057028237014332461, -12.11405647402866137, 24.10674524897901350 ) ) ;
#465 = CARTESIAN_POINT ( 'NONE',  ( 0.000000000000000000, 0.000000000000000000, 11.44999999999999751 ) ) ;
#466 = CIRCLE ( 'NONE', #94, 14.99000000000000021 ) ;
#467 = CARTESIAN_POINT ( 'NONE',  ( 12.00000000000000000, 0.000000000000000000, 25.44999999999999574 ) ) ;
#468 = CIRCLE ( 'NONE', #239, 14.99000000000000021 ) ;
#469 = DIRECTION ( 'NONE',  ( -0.000000000000000000, -0.000000000000000000, -1.000000000000000000 ) ) ;
#470 = PRODUCT ( 'Captured Pulley V5', 'Captured Pulley V5', '', ( #13 ) ) ;
#471 = ORIENTED_EDGE ( 'NONE', *, *, #102, .T. ) ;
#472 = CARTESIAN_POINT ( 'NONE',  ( 2.399999999999999911, 2.939152317953647106E-16, 9.850000000000003197 ) ) ;
#473 =( NAMED_UNIT ( * ) SI_UNIT ( $, .STERADIAN. ) SOLID_ANGLE_UNIT ( ) );
#474 = ADVANCED_FACE ( 'NONE', ( #232 ), #2, .F. ) ;
#475 = CIRCLE ( 'NONE', #601, 2.399999999999999911 ) ;
#476 = AXIS2_PLACEMENT_3D ( 'NONE', #132, #370, #278 ) ;
#477 = DIRECTION ( 'NONE',  ( 0.000000000000000000, 0.000000000000000000, 1.000000000000000000 ) ) ;
#478 = EDGE_LOOP ( 'NONE', ( #407, #26, #99, #40 ) ) ;
#479 = CARTESIAN_POINT ( 'NONE',  ( 0.000000000000000000, 0.000000000000000000, -30.52475137813475214 ) ) ;
#480 = CARTESIAN_POINT ( 'NONE',  ( 0.000000000000000000, 0.000000000000000000, 11.44999999999999751 ) ) ;
#481 = PERSON_AND_ORGANIZATION ( #51, #337 ) ;
#482 = CARTESIAN_POINT ( 'NONE',  ( 0.000000000000000000, 0.000000000000000000, 23.75000000000000355 ) ) ;
#483 = ORIENTED_EDGE ( 'NONE', *, *, #285, .F. ) ;
#484 = AXIS2_PLACEMENT_3D ( 'NONE', #37, #225, #595 ) ;
#485 = CARTESIAN_POINT ( 'NONE',  ( 0.000000000000000000, 0.000000000000000000, -30.52475137813475214 ) ) ;
#486 = EDGE_CURVE ( 'NONE', #303, #415, #475, .T. ) ;
#487 = CARTESIAN_POINT ( 'NONE',  ( 0.000000000000000000, 0.000000000000000000, -15.14999999999999858 ) ) ;
#488 = ORIENTED_EDGE ( 'NONE', *, *, #86, .T. ) ;
#489 = PERSON_AND_ORGANIZATION ( #51, #337 ) ;
#490 = FACE_OUTER_BOUND ( 'NONE', #255, .T. ) ;
#491 = ORIENTED_EDGE ( 'NONE', *, *, #593, .F. ) ;
#492 = CALENDAR_DATE ( 2026, 21, 4 ) ;
#493 = CARTESIAN_POINT ( 'NONE',  ( 5.549999999999999822, 6.796789735267810781E-16, -15.15000000000000036 ) ) ;
#494 = APPROVAL ( #403, 'UNSPECIFIED' ) ;
#495 = ORIENTED_EDGE ( 'NONE', *, *, #599, .T. ) ;
#496 = CIRCLE ( 'NONE', #140, 2.399999999999999911 ) ;
#497 = DATE_AND_TIME ( #492, #186 ) ;
#498 = DIRECTION ( 'NONE',  ( -1.000000000000000000, 0.000000000000000000, 0.000000000000000000 ) ) ;
#499 = EDGE_LOOP ( 'NONE', ( #351, #120, #399, #176 ) ) ;
#500 = LINE ( 'NONE', #447, #459 ) ;
#501 = ORIENTED_EDGE ( 'NONE', *, *, #445, .T. ) ;
#502 = CALENDAR_DATE ( 2026, 21, 4 ) ;
#503 = PRODUCT_DEFINITION ( 'UNKNOWN', '', #329, #295 ) ;
#504 = FACE_OUTER_BOUND ( 'NONE', #531, .T. ) ;
#505 = ORIENTED_EDGE ( 'NONE', *, *, #119, .T. ) ;
#506 = FACE_OUTER_BOUND ( 'NONE', #417, .T. ) ;
#507 = EDGE_CURVE ( 'NONE', #66, #520, #76, .T. ) ;
#508 = CIRCLE ( 'NONE', #237, 14.99000000000000021 ) ;
#509 = DIRECTION ( 'NONE',  ( -0.000000000000000000, 0.000000000000000000, -1.000000000000000000 ) ) ;
#510 = DIRECTION ( 'NONE',  ( -1.000000000000000000, 0.000000000000000000, 0.000000000000000000 ) ) ;
#511 = LOCAL_TIME ( 9, 19, 15.00000000000000000, #566 ) ;
#512 = CC_DESIGN_DATE_AND_TIME_ASSIGNMENT ( #577, #262, ( #205 ) ) ;
#513 = ORIENTED_EDGE ( 'NONE', *, *, #457, .F. ) ;
#514 = CARTESIAN_POINT ( 'NONE',  ( 0.000000000000000000, 0.000000000000000000, 9.850000000000003197 ) ) ;
#515 = DIRECTION ( 'NONE',  ( 0.000000000000000000, 0.000000000000000000, -1.000000000000000000 ) ) ;
#516 = CARTESIAN_POINT ( 'NONE',  ( -2.399999999999999911, 0.000000000000000000, 9.850000000000003197 ) ) ;
#517 = VECTOR ( 'NONE', #333, 1000.000000000000000 ) ;
#518 = DIRECTION ( 'NONE',  ( 0.000000000000000000, 0.000000000000000000, 1.000000000000000000 ) ) ;
#519 = ADVANCED_FACE ( 'NONE', ( #506 ), #314, .T. ) ;
#520 = VERTEX_POINT ( 'NONE', #379 ) ;
#521 = APPROVAL_ROLE ( '' ) ;
#522 = CARTESIAN_POINT ( 'NONE',  ( 12.69999999999999929, 1.555301434917138433E-15, -7.449999999999998401 ) ) ;
#523 = AXIS2_PLACEMENT_3D ( 'NONE', #603, #605, #327 ) ;
#524 = LINE ( 'NONE', #153, #212 ) ;
#525 = ORIENTED_EDGE ( 'NONE', *, *, #49, .T. ) ;
#526 = PERSON_AND_ORGANIZATION ( #51, #337 ) ;
#527 = LINE ( 'NONE', #522, #334 ) ;
#528 = VERTEX_POINT ( 'NONE', #187 ) ;
#529 = DATE_TIME_ROLE ( 'creation_date' ) ;
#530 = DIRECTION ( 'NONE',  ( 0.000000000000000000, 0.000000000000000000, -1.000000000000000000 ) ) ;
#531 = EDGE_LOOP ( 'NONE', ( #513, #402, #471, #236 ) ) ;
#532 = CIRCLE ( 'NONE', #390, 5.549999999999999822 ) ;
#533 = AXIS2_PLACEMENT_3D ( 'NONE', #575, #530, #398 ) ;
#534 = CARTESIAN_POINT ( 'NONE',  ( -12.69999999999999929, 1.695523493419510619E-15, 7.449999999999994849 ) ) ;
#535 = ORIENTED_EDGE ( 'NONE', *, *, #545, .F. ) ;
#536 = CIRCLE ( 'NONE', #320, 14.99000000000000021 ) ;
#537 = ADVANCED_FACE ( 'NONE', ( #419, #421 ), #227, .T. ) ;
#538 = DIRECTION ( 'NONE',  ( -1.000000000000000000, 0.000000000000000000, 0.000000000000000000 ) ) ;
#539 = ORIENTED_EDGE ( 'NONE', *, *, #49, .F. ) ;
#540 = CYLINDRICAL_SURFACE ( 'NONE', #302, 14.99000000000000021 ) ;
#541 = ORIENTED_EDGE ( 'NONE', *, *, #331, .F. ) ;
#542 = AXIS2_PLACEMENT_3D ( 'NONE', #463, #552, #41 ) ;
#543 = CONICAL_SURFACE ( 'NONE', #15, 12.69999999999999929, 0.5199534337697294673 ) ;
#544 = CARTESIAN_POINT ( 'NONE',  ( -12.00000000000000000, -1.469576158976823947E-15, 25.44999999999999574 ) ) ;
#545 = EDGE_CURVE ( 'NONE', #303, #520, #284, .T. ) ;
#546 = CIRCLE ( 'NONE', #397, 12.00000000000000000 ) ;
#547 = CARTESIAN_POINT ( 'NONE',  ( 2.399999999999999911, 2.939152317953647106E-16, 9.850000000000003197 ) ) ;
#548 = DIRECTION ( 'NONE',  ( -0.000000000000000000, -0.000000000000000000, -1.000000000000000000 ) ) ;
#549 = ADVANCED_FACE ( 'NONE', ( #131 ), #543, .T. ) ;
#550 = CARTESIAN_POINT ( 'NONE',  ( -6.057028237014333349, 12.11405647402866137, 24.10674524897901350 ) ) ;
#551 = CARTESIAN_POINT ( 'NONE',  ( 0.000000000000000000, 0.000000000000000000, -11.44999999999999751 ) ) ;
#552 = DIRECTION ( 'NONE',  ( -0.000000000000000000, -0.000000000000000000, -1.000000000000000000 ) ) ;
#553 = VERTEX_POINT ( 'NONE', #554 ) ;
#554 = CARTESIAN_POINT ( 'NONE',  ( 12.69999999999999929, 1.555301434917138433E-15, -7.449999999999998401 ) ) ;
#555 = EDGE_CURVE ( 'NONE', #169, #553, #136, .T. ) ;
#556 = LOCAL_TIME ( 9, 19, 15.00000000000000000, #215 ) ;
#557 = CARTESIAN_POINT ( 'NONE',  ( 6.057028237014331573, 0.000000000000000000, 24.10674524897901350 ) ) ;
#558 = CARTESIAN_POINT ( 'NONE',  ( 0.000000000000000000, 0.000000000000000000, -7.449999999999998401 ) ) ;
#559 = LINE ( 'NONE', #373, #517 ) ;
#560 = CONICAL_SURFACE ( 'NONE', #161, 14.99000000000000021, 0.5199534337697291342 ) ;
#561 = CIRCLE ( 'NONE', #189, 14.99000000000000021 ) ;
#562 = EDGE_CURVE ( 'NONE', #362, #294, #466, .T. ) ;
#563 = ORIENTED_EDGE ( 'NONE', *, *, #57, .T. ) ;
#564 = CYLINDRICAL_SURFACE ( 'NONE', #243, 14.99000000000000021 ) ;
#565 = ORIENTED_EDGE ( 'NONE', *, *, #269, .T. ) ;
#566 = COORDINATED_UNIVERSAL_TIME_OFFSET ( 8, 0, .BEHIND. ) ;
#567 = FACE_OUTER_BOUND ( 'NONE', #252, .T. ) ;
#568 = CARTESIAN_POINT ( 'NONE',  ( 0.000000000000000000, 0.000000000000000000, 0.000000000000000000 ) ) ;
#569 = CYLINDRICAL_SURFACE ( 'NONE', #65, 12.69999999999999929 ) ;
#570 = ORIENTED_EDGE ( 'NONE', *, *, #47, .T. ) ;
#571 = APPROVAL_STATUS ( 'not_yet_approved' ) ;
#572 = DIRECTION ( 'NONE',  ( -1.000000000000000000, 0.000000000000000000, 0.000000000000000000 ) ) ;
#573 = ORIENTED_EDGE ( 'NONE', *, *, #424, .T. ) ;
#574 = DATE_AND_TIME ( #341, #511 ) ;
#575 = CARTESIAN_POINT ( 'NONE',  ( 0.000000000000000000, 0.000000000000000000, 9.850000000000003197 ) ) ;
#576 = VERTEX_POINT ( 'NONE', #54 ) ;
#577 = DATE_AND_TIME ( #502, #556 ) ;
#578 = CARTESIAN_POINT ( 'NONE',  ( -14.99000000000000021, 0.000000000000000000, -30.52475137813475214 ) ) ;
#579 = ORIENTED_EDGE ( 'NONE', *, *, #86, .F. ) ;
#580 = VECTOR ( 'NONE', #272, 1000.000000000000000 ) ;
#581 = ADVANCED_FACE ( 'NONE', ( #100 ), #564, .T. ) ;
#582 = PERSON_AND_ORGANIZATION ( #51, #337 ) ;
#583 = DIRECTION ( 'NONE',  ( 0.000000000000000000, 0.000000000000000000, -1.000000000000000000 ) ) ;
#584 = VERTEX_POINT ( 'NONE', #246 ) ;
#585 = APPROVAL_PERSON_ORGANIZATION ( #481, #305, #521 ) ;
#586 = PERSON_AND_ORGANIZATION ( #51, #337 ) ;
#587 = ADVANCED_FACE ( 'NONE', ( #287 ), #440, .T. ) ;
#588 = DIRECTION ( 'NONE',  ( -0.000000000000000000, -0.000000000000000000, -1.000000000000000000 ) ) ;
#589 = ORIENTED_EDGE ( 'NONE', *, *, #338, .F. ) ;
#590 = CARTESIAN_POINT ( 'NONE',  ( 0.000000000000000000, 0.000000000000000000, 25.44999999999999574 ) ) ;
#591 = FACE_BOUND ( 'NONE', #385, .T. ) ;
#592 = CARTESIAN_POINT ( 'NONE',  ( 0.000000000000000000, 0.000000000000000000, 4.550000000000001599 ) ) ;
#593 = EDGE_CURVE ( 'NONE', #1, #112, #546, .T. ) ;
#594 = ORIENTED_EDGE ( 'NONE', *, *, #102, .F. ) ;
#595 = DIRECTION ( 'NONE',  ( -1.000000000000000000, 0.000000000000000000, 0.000000000000000000 ) ) ;
#596 = CARTESIAN_POINT ( 'NONE',  ( -6.057028237014331573, -7.417720242804737085E-16, 24.10674524897901350 ) ) ;
#597 = DIRECTION ( 'NONE',  ( -0.000000000000000000, -0.000000000000000000, -1.000000000000000000 ) ) ;
#598 = DIRECTION ( 'NONE',  ( -1.000000000000000000, 0.000000000000000000, 0.000000000000000000 ) ) ;
#599 = EDGE_CURVE ( 'NONE', #282, #453, #536, .T. ) ;
#600 = DIRECTION ( 'NONE',  ( -1.000000000000000000, 0.000000000000000000, -0.000000000000000000 ) ) ;
#601 = AXIS2_PLACEMENT_3D ( 'NONE', #514, #229, #231 ) ;
#602 = ORIENTED_EDGE ( 'NONE', *, *, #401, .F. ) ;
#603 = CARTESIAN_POINT ( 'NONE',  ( 0.000000000000000000, 0.000000000000000000, 9.850000000000003197 ) ) ;
#604 = ADVANCED_FACE ( 'NONE', ( #17 ), #396, .F. ) ;
#605 = DIRECTION ( 'NONE',  ( -0.000000000000000000, -0.000000000000000000, -1.000000000000000000 ) ) ;
ENDSEC;
END-ISO-10303-21;
