ISO-10303-21;
HEADER;
FILE_DESCRIPTION (( 'STEP AP203' ),
    '1' );
FILE_NAME ('Captured Pulley.STEP',
    '2026-04-18T22:25:35',
    ( '' ),
    ( '' ),
    'SwSTEP 2.0',
    'SolidWorks 2024',
    '' );
FILE_SCHEMA (( 'CONFIG_CONTROL_DESIGN' ));
ENDSEC;

DATA;
#1 = COORDINATED_UNIVERSAL_TIME_OFFSET ( 8, 0, .BEHIND. ) ;
#2 = CC_DESIGN_PERSON_AND_ORGANIZATION_ASSIGNMENT ( #493, #213, ( #23 ) ) ;
#3 = CARTESIAN_POINT ( 'NONE',  ( 0.000000000000000000, 0.000000000000000000, 15.14999999999999858 ) ) ;
#4 = EDGE_LOOP ( 'NONE', ( #195, #502, #157, #25 ) ) ;
#5 = EDGE_CURVE ( 'NONE', #138, #50, #364, .T. ) ;
#6 = CIRCLE ( 'NONE', #182, 14.99000000000000021 ) ;
#7 = CIRCLE ( 'NONE', #255, 2.000000000000000000 ) ;
#8 = DIRECTION ( 'NONE',  ( -0.000000000000000000, -0.000000000000000000, 1.000000000000000000 ) ) ;
#9 = DIRECTION ( 'NONE',  ( 0.4968397262372764578, 0.000000000000000000, 0.8678423165716617760 ) ) ;
#10 = ORIENTED_EDGE ( 'NONE', *, *, #99, .F. ) ;
#11 = EDGE_CURVE ( 'NONE', #277, #312, #226, .T. ) ;
#12 = CC_DESIGN_APPROVAL ( #108, ( #23 ) ) ;
#13 = DIRECTION ( 'NONE',  ( 1.000000000000000000, 0.000000000000000000, 0.000000000000000000 ) ) ;
#14 = EDGE_LOOP ( 'NONE', ( #467, #248 ) ) ;
#15 = CONICAL_SURFACE ( 'NONE', #192, 12.69999999999999929, 0.5199534337697294673 ) ;
#16 = DIRECTION ( 'NONE',  ( 0.000000000000000000, 0.000000000000000000, -1.000000000000000000 ) ) ;
#17 = CIRCLE ( 'NONE', #211, 2.000000000000000000 ) ;
#18 = ORIENTED_EDGE ( 'NONE', *, *, #342, .T. ) ;
#19 = FACE_OUTER_BOUND ( 'NONE', #179, .T. ) ;
#20 = VERTEX_POINT ( 'NONE', #206 ) ;
#21 = APPLICATION_CONTEXT ( 'configuration controlled 3d designs of mechanical parts and assemblies' ) ;
#22 = ADVANCED_FACE ( 'NONE', ( #490 ), #208, .T. ) ;
#23 = PRODUCT_DEFINITION ( 'UNKNOWN', '', #85, #300 ) ;
#24 = CARTESIAN_POINT ( 'NONE',  ( 0.000000000000000000, 0.000000000000000000, 7.449999999999998401 ) ) ;
#25 = ORIENTED_EDGE ( 'NONE', *, *, #404, .F. ) ;
#26 = DIRECTION ( 'NONE',  ( 1.000000000000000000, 0.000000000000000000, 0.000000000000000000 ) ) ;
#27 = EDGE_LOOP ( 'NONE', ( #53, #391, #403, #141 ) ) ;
#28 = CARTESIAN_POINT ( 'NONE',  ( 0.000000000000000000, 0.000000000000000000, -15.14999999999999680 ) ) ;
#29 = ORIENTED_EDGE ( 'NONE', *, *, #324, .T. ) ;
#30 = EDGE_CURVE ( 'NONE', #441, #304, #531, .T. ) ;
#31 = FACE_OUTER_BOUND ( 'NONE', #469, .T. ) ;
#32 = ORIENTED_EDGE ( 'NONE', *, *, #448, .F. ) ;
#33 = DIRECTION ( 'NONE',  ( -0.000000000000000000, -0.000000000000000000, 1.000000000000000000 ) ) ;
#34 = DIRECTION ( 'NONE',  ( 1.000000000000000000, 0.000000000000000000, 0.000000000000000000 ) ) ;
#35 = CIRCLE ( 'NONE', #336, 14.99000000000000021 ) ;
#36 = CARTESIAN_POINT ( 'NONE',  ( 0.000000000000000000, 0.000000000000000000, 0.000000000000000000 ) ) ;
#37 = CC_DESIGN_DATE_AND_TIME_ASSIGNMENT ( #506, #51, ( #223 ) ) ;
#38 = DIRECTION ( 'NONE',  ( -0.000000000000000000, -0.000000000000000000, 1.000000000000000000 ) ) ;
#39 = ADVANCED_FACE ( 'NONE', ( #375, #408 ), #117, .T. ) ;
#40 = PERSON_AND_ORGANIZATION ( #232, #110 ) ;
#41 = ORIENTED_EDGE ( 'NONE', *, *, #259, .F. ) ;
#42 = ADVANCED_FACE ( 'NONE', ( #454 ), #451, .T. ) ;
#43 =( LENGTH_UNIT ( ) NAMED_UNIT ( * ) SI_UNIT ( .MILLI., .METRE. ) );
#44 = ORIENTED_EDGE ( 'NONE', *, *, #430, .T. ) ;
#45 = AXIS2_PLACEMENT_3D ( 'NONE', #123, #83, #161 ) ;
#46 = COORDINATED_UNIVERSAL_TIME_OFFSET ( 8, 0, .BEHIND. ) ;
#47 = CARTESIAN_POINT ( 'NONE',  ( 14.99000000000000021, 0.000000000000000000, 15.44999999999999929 ) ) ;
#48 = EDGE_CURVE ( 'NONE', #312, #277, #532, .T. ) ;
#49 = CARTESIAN_POINT ( 'NONE',  ( 2.000000000000000000, 0.000000000000000000, 15.44999999999999929 ) ) ;
#50 = VERTEX_POINT ( 'NONE', #446 ) ;
#51 = DATE_TIME_ROLE ( 'classification_date' ) ;
#52 = CYLINDRICAL_SURFACE ( 'NONE', #365, 14.99000000000000021 ) ;
#53 = ORIENTED_EDGE ( 'NONE', *, *, #224, .T. ) ;
#54 = VECTOR ( 'NONE', #266, 999.9999999999998863 ) ;
#55 = CARTESIAN_POINT ( 'NONE',  ( 14.99000000000000021, 0.000000000000000000, 11.44999999999999751 ) ) ;
#56 = ORIENTED_EDGE ( 'NONE', *, *, #30, .F. ) ;
#57 = PLANE ( 'NONE',  #294 ) ;
#58 = VERTEX_POINT ( 'NONE', #291 ) ;
#59 = DIRECTION ( 'NONE',  ( -0.000000000000000000, -0.000000000000000000, 1.000000000000000000 ) ) ;
#60 = APPROVAL_DATE_TIME ( #332, #108 ) ;
#61 = FACE_OUTER_BOUND ( 'NONE', #187, .T. ) ;
#62 = AXIS2_PLACEMENT_3D ( 'NONE', #189, #16, #303 ) ;
#63 = ORIENTED_EDGE ( 'NONE', *, *, #167, .T. ) ;
#64 = PERSON_AND_ORGANIZATION ( #232, #110 ) ;
#65 = CARTESIAN_POINT ( 'NONE',  ( -12.69999999999999929, 0.000000000000000000, -7.449999999999998401 ) ) ;
#66 = ADVANCED_FACE ( 'NONE', ( #409 ), #15, .T. ) ;
#67 = ORIENTED_EDGE ( 'NONE', *, *, #342, .F. ) ;
#68 = DIRECTION ( 'NONE',  ( -0.000000000000000000, -0.000000000000000000, 1.000000000000000000 ) ) ;
#69 = APPROVAL_PERSON_ORGANIZATION ( #185, #298, #395 ) ;
#70 = VERTEX_POINT ( 'NONE', #159 ) ;
#71 = CARTESIAN_POINT ( 'NONE',  ( -2.000000000000000000, 2.449293598294706414E-16, 15.44999999999999929 ) ) ;
#72 = EDGE_LOOP ( 'NONE', ( #155, #272 ) ) ;
#73 = ADVANCED_FACE ( 'NONE', ( #331 ), #199, .T. ) ;
#74 =( NAMED_UNIT ( * ) PLANE_ANGLE_UNIT ( ) SI_UNIT ( $, .RADIAN. ) );
#75 = EDGE_LOOP ( 'NONE', ( #269, #252, #275, #361 ) ) ;
#76 = ORIENTED_EDGE ( 'NONE', *, *, #154, .F. ) ;
#77 = ADVANCED_FACE ( 'NONE', ( #115 ), #146, .T. ) ;
#78 = CARTESIAN_POINT ( 'NONE',  ( 0.000000000000000000, 0.000000000000000000, 15.44999999999999929 ) ) ;
#79 = AXIS2_PLACEMENT_3D ( 'NONE', #264, #499, #338 ) ;
#80 = APPLICATION_PROTOCOL_DEFINITION ( 'international standard', 'config_control_design', 1994, #21 ) ;
#81 = ORIENTED_EDGE ( 'NONE', *, *, #310, .T. ) ;
#82 = EDGE_CURVE ( 'NONE', #386, #190, #482, .T. ) ;
#83 = DIRECTION ( 'NONE',  ( -0.000000000000000000, -0.000000000000000000, 1.000000000000000000 ) ) ;
#84 = DIRECTION ( 'NONE',  ( -0.000000000000000000, -0.000000000000000000, 1.000000000000000000 ) ) ;
#85 = PRODUCT_DEFINITION_FORMATION_WITH_SPECIFIED_SOURCE ( 'ANY', '', #461, .NOT_KNOWN. ) ;
#86 = PRODUCT_DEFINITION_SHAPE ( 'NONE', 'NONE',  #23 ) ;
#87 = COORDINATED_UNIVERSAL_TIME_OFFSET ( 8, 0, .BEHIND. ) ;
#88 = DIRECTION ( 'NONE',  ( -0.000000000000000000, -0.000000000000000000, 1.000000000000000000 ) ) ;
#89 = AXIS2_PLACEMENT_3D ( 'NONE', #147, #144, #392 ) ;
#90 = ADVANCED_FACE ( 'NONE', ( #411 ), #262, .T. ) ;
#91 = LINE ( 'NONE', #214, #346 ) ;
#92 = ORIENTED_EDGE ( 'NONE', *, *, #126, .T. ) ;
#93 = CARTESIAN_POINT ( 'NONE',  ( 0.000000000000000000, 0.000000000000000000, 15.44999999999999929 ) ) ;
#94 = ORIENTED_EDGE ( 'NONE', *, *, #501, .T. ) ;
#95 = APPROVAL_PERSON_ORGANIZATION ( #40, #108, #328 ) ;
#96 = CARTESIAN_POINT ( 'NONE',  ( 0.000000000000000000, 0.000000000000000000, 15.44999999999999929 ) ) ;
#97 = EDGE_CURVE ( 'NONE', #70, #277, #495, .T. ) ;
#98 = CARTESIAN_POINT ( 'NONE',  ( -14.99000000000000021, 1.835745551921882411E-15, -15.14999999999999680 ) ) ;
#99 = EDGE_CURVE ( 'NONE', #145, #449, #122, .T. ) ;
#100 = LINE ( 'NONE', #438, #355 ) ;
#101 = DIRECTION ( 'NONE',  ( -0.000000000000000000, -0.000000000000000000, 1.000000000000000000 ) ) ;
#102 = EDGE_LOOP ( 'NONE', ( #125, #44 ) ) ;
#103 = CARTESIAN_POINT ( 'NONE',  ( -2.000000000000000000, 2.449293598294706414E-16, -15.14999999999999680 ) ) ;
#104 = AXIS2_PLACEMENT_3D ( 'NONE', #274, #183, #435 ) ;
#105 = ORIENTED_EDGE ( 'NONE', *, *, #359, .F. ) ;
#106 = CARTESIAN_POINT ( 'NONE',  ( 2.000000000000000000, 0.000000000000000000, -15.14999999999999680 ) ) ;
#107 = EDGE_LOOP ( 'NONE', ( #337, #281 ) ) ;
#108 = APPROVAL ( #207, 'UNSPECIFIED' ) ;
#109 = DIRECTION ( 'NONE',  ( -0.000000000000000000, -0.000000000000000000, 1.000000000000000000 ) ) ;
#110 = ORGANIZATION ( 'UNSPECIFIED', 'UNSPECIFIED', '' ) ;
#111 = ORIENTED_EDGE ( 'NONE', *, *, #133, .T. ) ;
#112 = CYLINDRICAL_SURFACE ( 'NONE', #413, 14.99000000000000021 ) ;
#113 = ORIENTED_EDGE ( 'NONE', *, *, #430, .F. ) ;
#114 = CARTESIAN_POINT ( 'NONE',  ( -12.69999999999999929, 0.000000000000000000, -7.449999999999998401 ) ) ;
#115 = FACE_OUTER_BOUND ( 'NONE', #393, .T. ) ;
#116 = EDGE_CURVE ( 'NONE', #304, #441, #201, .T. ) ;
#117 = PLANE ( 'NONE',  #237 ) ;
#118 = CC_DESIGN_PERSON_AND_ORGANIZATION_ASSIGNMENT ( #450, #407, ( #461 ) ) ;
#119 = EDGE_CURVE ( 'NONE', #145, #304, #387, .T. ) ;
#120 = FACE_BOUND ( 'NONE', #14, .T. ) ;
#121 = DIRECTION ( 'NONE',  ( 1.000000000000000000, 0.000000000000000000, 0.000000000000000000 ) ) ;
#122 = CIRCLE ( 'NONE', #373, 14.99000000000000021 ) ;
#123 = CARTESIAN_POINT ( 'NONE',  ( 0.000000000000000000, 0.000000000000000000, -11.44999999999999751 ) ) ;
#124 = DIRECTION ( 'NONE',  ( 1.000000000000000000, 0.000000000000000000, 0.000000000000000000 ) ) ;
#125 = ORIENTED_EDGE ( 'NONE', *, *, #282, .T. ) ;
#126 = EDGE_CURVE ( 'NONE', #401, #70, #244, .T. ) ;
#127 = LOCAL_TIME ( 15, 25, 35.00000000000000000, #1 ) ;
#128 = DIRECTION ( 'NONE',  ( -0.000000000000000000, -0.000000000000000000, 1.000000000000000000 ) ) ;
#129 = ORIENTED_EDGE ( 'NONE', *, *, #116, .F. ) ;
#130 = AXIS2_PLACEMENT_3D ( 'NONE', #306, #402, #431 ) ;
#131 = DIRECTION ( 'NONE',  ( -0.000000000000000000, -0.000000000000000000, 1.000000000000000000 ) ) ;
#132 = ORIENTED_EDGE ( 'NONE', *, *, #174, .T. ) ;
#133 = EDGE_CURVE ( 'NONE', #511, #297, #422, .T. ) ;
#134 = FACE_OUTER_BOUND ( 'NONE', #349, .T. ) ;
#135 = VERTEX_POINT ( 'NONE', #256 ) ;
#136 = DIRECTION ( 'NONE',  ( 1.000000000000000000, 0.000000000000000000, 0.000000000000000000 ) ) ;
#137 = CARTESIAN_POINT ( 'NONE',  ( 0.000000000000000000, 0.000000000000000000, -11.44999999999999751 ) ) ;
#138 = VERTEX_POINT ( 'NONE', #98 ) ;
#139 = APPROVAL_ROLE ( '' ) ;
#140 = LINE ( 'NONE', #152, #54 ) ;
#141 = ORIENTED_EDGE ( 'NONE', *, *, #82, .F. ) ;
#142 = APPROVAL_STATUS ( 'not_yet_approved' ) ;
#143 = LOCAL_TIME ( 15, 25, 35.00000000000000000, #46 ) ;
#144 = DIRECTION ( 'NONE',  ( -0.000000000000000000, -0.000000000000000000, 1.000000000000000000 ) ) ;
#145 = VERTEX_POINT ( 'NONE', #55 ) ;
#146 = CONICAL_SURFACE ( 'NONE', #512, 14.99000000000000021, 0.5199534337697294673 ) ;
#147 = CARTESIAN_POINT ( 'NONE',  ( 0.000000000000000000, 0.000000000000000000, -7.449999999999998401 ) ) ;
#148 = AXIS2_PLACEMENT_3D ( 'NONE', #507, #504, #26 ) ;
#149 = ORIENTED_EDGE ( 'NONE', *, *, #376, .F. ) ;
#150 = CARTESIAN_POINT ( 'NONE',  ( 12.69999999999999929, 0.000000000000000000, 15.44999999999999929 ) ) ;
#151 = ORIENTED_EDGE ( 'NONE', *, *, #397, .F. ) ;
#152 = CARTESIAN_POINT ( 'NONE',  ( -14.99000000000000021, 1.835745551921882411E-15, 11.44999999999999751 ) ) ;
#153 = CC_DESIGN_APPROVAL ( #447, ( #223 ) ) ;
#154 = EDGE_CURVE ( 'NONE', #58, #145, #383, .T. ) ;
#155 = ORIENTED_EDGE ( 'NONE', *, *, #116, .T. ) ;
#156 = PLANE ( 'NONE',  #390 ) ;
#157 = ORIENTED_EDGE ( 'NONE', *, *, #324, .F. ) ;
#158 = CIRCLE ( 'NONE', #319, 12.69999999999999929 ) ;
#159 = CARTESIAN_POINT ( 'NONE',  ( 2.000000000000000000, 0.000000000000000000, -15.44999999999999929 ) ) ;
#160 = ADVANCED_FACE ( 'NONE', ( #344 ), #296, .T. ) ;
#161 = DIRECTION ( 'NONE',  ( 1.000000000000000000, 0.000000000000000000, 0.000000000000000000 ) ) ;
#162 = CARTESIAN_POINT ( 'NONE',  ( 2.000000000000000000, 0.000000000000000000, -15.14999999999999858 ) ) ;
#163 = LOCAL_TIME ( 15, 25, 35.00000000000000000, #87 ) ;
#164 = DIRECTION ( 'NONE',  ( 0.000000000000000000, -0.000000000000000000, 1.000000000000000000 ) ) ;
#165 = DIRECTION ( 'NONE',  ( 0.000000000000000000, 0.000000000000000000, -1.000000000000000000 ) ) ;
#166 = CALENDAR_DATE ( 2026, 18, 4 ) ;
#167 = EDGE_CURVE ( 'NONE', #297, #314, #6, .T. ) ;
#168 = DIRECTION ( 'NONE',  ( -1.000000000000000000, 0.000000000000000000, -0.000000000000000000 ) ) ;
#169 = CARTESIAN_POINT ( 'NONE',  ( -14.99000000000000021, 1.835745551921882411E-15, 15.44999999999999929 ) ) ;
#170 = DATE_AND_TIME ( #302, #143 ) ;
#171 = DIRECTION ( 'NONE',  ( -0.000000000000000000, -0.000000000000000000, 1.000000000000000000 ) ) ;
#172 = UNCERTAINTY_MEASURE_WITH_UNIT (LENGTH_MEASURE( 1.000000000000000082E-05 ), #43, 'distance_accuracy_value', 'NONE');
#173 = EDGE_LOOP ( 'NONE', ( #381, #132, #231, #41 ) ) ;
#174 = EDGE_CURVE ( 'NONE', #138, #314, #177, .T. ) ;
#175 = CIRCLE ( 'NONE', #89, 12.69999999999999929 ) ;
#176 = DIRECTION ( 'NONE',  ( 1.000000000000000000, 0.000000000000000000, 0.000000000000000000 ) ) ;
#177 = LINE ( 'NONE', #169, #410 ) ;
#178 = DIRECTION ( 'NONE',  ( 0.4968397262372764578, 6.084531804257279676E-17, -0.8678423165716617760 ) ) ;
#179 = EDGE_LOOP ( 'NONE', ( #406, #317, #505, #515 ) ) ;
#180 = DATE_AND_TIME ( #465, #326 ) ;
#181 = CC_DESIGN_PERSON_AND_ORGANIZATION_ASSIGNMENT ( #64, #503, ( #223 ) ) ;
#182 = AXIS2_PLACEMENT_3D ( 'NONE', #137, #491, #217 ) ;
#183 = DIRECTION ( 'NONE',  ( -0.000000000000000000, -0.000000000000000000, 1.000000000000000000 ) ) ;
#184 = ORIENTED_EDGE ( 'NONE', *, *, #154, .T. ) ;
#185 = PERSON_AND_ORGANIZATION ( #232, #110 ) ;
#186 = CARTESIAN_POINT ( 'NONE',  ( 0.000000000000000000, 0.000000000000000000, 15.44999999999999929 ) ) ;
#187 = EDGE_LOOP ( 'NONE', ( #484, #105, #222, #94 ) ) ;
#188 = ADVANCED_BREP_SHAPE_REPRESENTATION ( 'Captured Pulley', ( #485, #251 ), #233 ) ;
#189 = CARTESIAN_POINT ( 'NONE',  ( 0.000000000000000000, 0.000000000000000000, -7.449999999999998401 ) ) ;
#190 = VERTEX_POINT ( 'NONE', #49 ) ;
#191 = ADVANCED_FACE ( 'NONE', ( #333 ), #460, .T. ) ;
#192 = AXIS2_PLACEMENT_3D ( 'NONE', #370, #165, #330 ) ;
#193 = DIRECTION ( 'NONE',  ( -0.000000000000000000, -0.000000000000000000, 1.000000000000000000 ) ) ;
#194 = VECTOR ( 'NONE', #59, 1000.000000000000000 ) ;
#195 = ORIENTED_EDGE ( 'NONE', *, *, #318, .T. ) ;
#196 = CARTESIAN_POINT ( 'NONE',  ( -2.000000000000000000, 2.449293598294706414E-16, -15.44999999999999929 ) ) ;
#197 = ORIENTED_EDGE ( 'NONE', *, *, #310, .F. ) ;
#198 = FACE_OUTER_BOUND ( 'NONE', #27, .T. ) ;
#199 = CYLINDRICAL_SURFACE ( 'NONE', #455, 12.69999999999999929 ) ;
#200 = DIRECTION ( 'NONE',  ( 1.000000000000000000, 0.000000000000000000, 0.000000000000000000 ) ) ;
#201 = CIRCLE ( 'NONE', #442, 14.99000000000000021 ) ;
#202 = ORIENTED_EDGE ( 'NONE', *, *, #5, .F. ) ;
#203 = CIRCLE ( 'NONE', #486, 2.000000000000000000 ) ;
#204 = ADVANCED_FACE ( 'NONE', ( #462 ), #57, .T. ) ;
#205 = DIRECTION ( 'NONE',  ( -0.000000000000000000, -0.000000000000000000, 1.000000000000000000 ) ) ;
#206 = CARTESIAN_POINT ( 'NONE',  ( -12.69999999999999929, 1.555301434917138433E-15, 7.449999999999998401 ) ) ;
#207 = APPROVAL_STATUS ( 'not_yet_approved' ) ;
#208 = CYLINDRICAL_SURFACE ( 'NONE', #477, 12.69999999999999929 ) ;
#209 = DIRECTION ( 'NONE',  ( 1.000000000000000000, 0.000000000000000000, 0.000000000000000000 ) ) ;
#210 = DIRECTION ( 'NONE',  ( 1.000000000000000000, 0.000000000000000000, 0.000000000000000000 ) ) ;
#211 = AXIS2_PLACEMENT_3D ( 'NONE', #514, #516, #348 ) ;
#212 = CARTESIAN_POINT ( 'NONE',  ( -12.69999999999999929, 1.555301434917138433E-15, 15.44999999999999929 ) ) ;
#213 = PERSON_AND_ORGANIZATION_ROLE ( 'creator' ) ;
#214 = CARTESIAN_POINT ( 'NONE',  ( 14.99000000000000021, 0.000000000000000000, 15.44999999999999929 ) ) ;
#215 = EDGE_CURVE ( 'NONE', #517, #20, #496, .T. ) ;
#216 = PERSON_AND_ORGANIZATION ( #232, #110 ) ;
#217 = DIRECTION ( 'NONE',  ( 1.000000000000000000, 0.000000000000000000, 0.000000000000000000 ) ) ;
#218 = EDGE_LOOP ( 'NONE', ( #197, #220, #184, #508 ) ) ;
#219 = DIRECTION ( 'NONE',  ( -1.000000000000000000, 0.000000000000000000, -0.000000000000000000 ) ) ;
#220 = ORIENTED_EDGE ( 'NONE', *, *, #397, .T. ) ;
#221 = CARTESIAN_POINT ( 'NONE',  ( 0.000000000000000000, 0.000000000000000000, 15.44999999999999929 ) ) ;
#222 = ORIENTED_EDGE ( 'NONE', *, *, #448, .T. ) ;
#223 = SECURITY_CLASSIFICATION ( '', '', #350 ) ;
#224 = EDGE_CURVE ( 'NONE', #386, #388, #7, .T. ) ;
#225 = FACE_OUTER_BOUND ( 'NONE', #218, .T. ) ;
#226 = CIRCLE ( 'NONE', #343, 2.000000000000000000 ) ;
#227 = VECTOR ( 'NONE', #101, 1000.000000000000000 ) ;
#228 = LINE ( 'NONE', #150, #394 ) ;
#229 = ORIENTED_EDGE ( 'NONE', *, *, #126, .F. ) ;
#230 = CYLINDRICAL_SURFACE ( 'NONE', #500, 2.000000000000000000 ) ;
#231 = ORIENTED_EDGE ( 'NONE', *, *, #167, .F. ) ;
#232 = PERSON ( 'UNSPECIFIED', 'UNSPECIFIED', 'UNSPECIFIED', ('UNSPECIFIED'), ('UNSPECIFIED'), ('UNSPECIFIED') ) ;
#233 =( GEOMETRIC_REPRESENTATION_CONTEXT ( 3 ) GLOBAL_UNCERTAINTY_ASSIGNED_CONTEXT ( ( #172 ) ) GLOBAL_UNIT_ASSIGNED_CONTEXT ( ( #43, #74, #476 ) ) REPRESENTATION_CONTEXT ( 'NONE', 'WORKASPACE' ) );
#234 = CARTESIAN_POINT ( 'NONE',  ( 14.99000000000000021, 0.000000000000000000, 15.14999999999999858 ) ) ;
#235 = ORIENTED_EDGE ( 'NONE', *, *, #340, .F. ) ;
#236 = AXIS2_PLACEMENT_3D ( 'NONE', #520, #38, #34 ) ;
#237 = AXIS2_PLACEMENT_3D ( 'NONE', #162, #525, #168 ) ;
#238 = DIRECTION ( 'NONE',  ( -0.4968397262372764578, 0.000000000000000000, -0.8678423165716617760 ) ) ;
#239 = ORIENTED_EDGE ( 'NONE', *, *, #99, .T. ) ;
#240 = DIRECTION ( 'NONE',  ( 1.000000000000000000, 0.000000000000000000, 0.000000000000000000 ) ) ;
#241 = DIRECTION ( 'NONE',  ( 1.000000000000000000, 0.000000000000000000, 0.000000000000000000 ) ) ;
#242 = DIRECTION ( 'NONE',  ( 1.000000000000000000, 0.000000000000000000, 0.000000000000000000 ) ) ;
#243 = AXIS2_PLACEMENT_3D ( 'NONE', #527, #327, #240 ) ;
#244 = CIRCLE ( 'NONE', #279, 2.000000000000000000 ) ;
#245 = CARTESIAN_POINT ( 'NONE',  ( 2.000000000000000000, 0.000000000000000000, 15.44999999999999929 ) ) ;
#246 = CIRCLE ( 'NONE', #148, 14.99000000000000021 ) ;
#247 = CARTESIAN_POINT ( 'NONE',  ( 0.000000000000000000, 0.000000000000000000, 15.44999999999999929 ) ) ;
#248 = ORIENTED_EDGE ( 'NONE', *, *, #521, .F. ) ;
#249 = ADVANCED_FACE ( 'NONE', ( #134 ), #52, .T. ) ;
#250 = CARTESIAN_POINT ( 'NONE',  ( 12.69999999999999929, 1.695523493419510619E-15, -7.449999999999998401 ) ) ;
#251 = AXIS2_PLACEMENT_3D ( 'NONE', #36, #444, #526 ) ;
#252 = ORIENTED_EDGE ( 'NONE', *, *, #5, .T. ) ;
#253 = COORDINATED_UNIVERSAL_TIME_OFFSET ( 8, 0, .BEHIND. ) ;
#254 = CARTESIAN_POINT ( 'NONE',  ( 14.99000000000000021, 0.000000000000000000, 11.44999999999999751 ) ) ;
#255 = AXIS2_PLACEMENT_3D ( 'NONE', #3, #131, #377 ) ;
#256 = CARTESIAN_POINT ( 'NONE',  ( -2.000000000000000000, 2.449293598294706414E-16, 15.44999999999999929 ) ) ;
#257 = ORIENTED_EDGE ( 'NONE', *, *, #215, .F. ) ;
#258 = PERSON_AND_ORGANIZATION ( #232, #110 ) ;
#259 = EDGE_CURVE ( 'NONE', #50, #297, #91, .T. ) ;
#260 = CARTESIAN_POINT ( 'NONE',  ( 0.000000000000000000, 0.000000000000000000, -15.44999999999999929 ) ) ;
#261 = ORIENTED_EDGE ( 'NONE', *, *, #521, .T. ) ;
#262 = CYLINDRICAL_SURFACE ( 'NONE', #287, 14.99000000000000021 ) ;
#263 = CIRCLE ( 'NONE', #513, 2.000000000000000000 ) ;
#264 = CARTESIAN_POINT ( 'NONE',  ( 0.000000000000000000, 0.000000000000000000, 15.44999999999999929 ) ) ;
#265 = EDGE_CURVE ( 'NONE', #449, #145, #246, .T. ) ;
#266 = DIRECTION ( 'NONE',  ( -0.4968397262372764578, 6.084531804257279676E-17, 0.8678423165716617760 ) ) ;
#267 = LOCAL_TIME ( 15, 25, 35.00000000000000000, #487 ) ;
#268 = CARTESIAN_POINT ( 'NONE',  ( -2.000000000000000000, 2.449293598294706414E-16, 15.14999999999999858 ) ) ;
#269 = ORIENTED_EDGE ( 'NONE', *, *, #174, .F. ) ;
#270 = VECTOR ( 'NONE', #9, 999.9999999999998863 ) ;
#271 = DIRECTION ( 'NONE',  ( 1.000000000000000000, 0.000000000000000000, 0.000000000000000000 ) ) ;
#272 = ORIENTED_EDGE ( 'NONE', *, *, #30, .T. ) ;
#273 = CC_DESIGN_DATE_AND_TIME_ASSIGNMENT ( #305, #399, ( #23 ) ) ;
#274 = CARTESIAN_POINT ( 'NONE',  ( 0.000000000000000000, 0.000000000000000000, -7.449999999999998401 ) ) ;
#275 = ORIENTED_EDGE ( 'NONE', *, *, #259, .T. ) ;
#276 = LINE ( 'NONE', #466, #227 ) ;
#277 = VERTEX_POINT ( 'NONE', #106 ) ;
#278 = CLOSED_SHELL ( 'NONE', ( #473, #249, #77, #22, #66, #90, #416, #204, #464, #39, #160, #368, #73, #423, #509, #528, #42, #191 ) ) ;
#279 = AXIS2_PLACEMENT_3D ( 'NONE', #260, #335, #459 ) ;
#280 = CIRCLE ( 'NONE', #45, 14.99000000000000021 ) ;
#281 = ORIENTED_EDGE ( 'NONE', *, *, #48, .T. ) ;
#282 = EDGE_CURVE ( 'NONE', #190, #135, #17, .T. ) ;
#283 = CARTESIAN_POINT ( 'NONE',  ( 2.000000000000000000, 0.000000000000000000, 15.14999999999999858 ) ) ;
#284 = CARTESIAN_POINT ( 'NONE',  ( 0.000000000000000000, 0.000000000000000000, 11.44999999999999751 ) ) ;
#285 = CARTESIAN_POINT ( 'NONE',  ( 0.000000000000000000, 0.000000000000000000, 15.44999999999999929 ) ) ;
#286 = DIRECTION ( 'NONE',  ( 1.000000000000000000, 0.000000000000000000, 0.000000000000000000 ) ) ;
#287 = AXIS2_PLACEMENT_3D ( 'NONE', #221, #88, #136 ) ;
#288 = DIRECTION ( 'NONE',  ( -0.000000000000000000, -0.000000000000000000, 1.000000000000000000 ) ) ;
#289 = AXIS2_PLACEMENT_3D ( 'NONE', #247, #320, #241 ) ;
#290 = FACE_OUTER_BOUND ( 'NONE', #345, .T. ) ;
#291 = CARTESIAN_POINT ( 'NONE',  ( 12.69999999999999929, 0.000000000000000000, 7.449999999999998401 ) ) ;
#292 = ORIENTED_EDGE ( 'NONE', *, *, #265, .T. ) ;
#293 = CARTESIAN_POINT ( 'NONE',  ( 12.69999999999999929, 1.555301434917138433E-15, -7.449999999999998401 ) ) ;
#294 = AXIS2_PLACEMENT_3D ( 'NONE', #341, #301, #219 ) ;
#295 = CARTESIAN_POINT ( 'NONE',  ( 0.000000000000000000, 0.000000000000000000, 15.14999999999999858 ) ) ;
#296 = CYLINDRICAL_SURFACE ( 'NONE', #479, 14.99000000000000021 ) ;
#297 = VERTEX_POINT ( 'NONE', #463 ) ;
#298 = APPROVAL ( #334, 'UNSPECIFIED' ) ;
#299 = DIRECTION ( 'NONE',  ( 1.000000000000000000, 0.000000000000000000, 0.000000000000000000 ) ) ;
#300 = DESIGN_CONTEXT ( 'detailed design', #21, 'design' ) ;
#301 = DIRECTION ( 'NONE',  ( 0.000000000000000000, 0.000000000000000000, -1.000000000000000000 ) ) ;
#302 = CALENDAR_DATE ( 2026, 18, 4 ) ;
#303 = DIRECTION ( 'NONE',  ( -1.000000000000000000, 0.000000000000000000, 0.000000000000000000 ) ) ;
#304 = VERTEX_POINT ( 'NONE', #234 ) ;
#305 = DATE_AND_TIME ( #166, #163 ) ;
#306 = CARTESIAN_POINT ( 'NONE',  ( 0.000000000000000000, 0.000000000000000000, 7.449999999999998401 ) ) ;
#307 = ORIENTED_EDGE ( 'NONE', *, *, #82, .T. ) ;
#308 = CC_DESIGN_PERSON_AND_ORGANIZATION_ASSIGNMENT ( #429, #378, ( #85 ) ) ;
#309 = CIRCLE ( 'NONE', #130, 12.69999999999999929 ) ;
#310 = EDGE_CURVE ( 'NONE', #20, #449, #140, .T. ) ;
#311 = DIRECTION ( 'NONE',  ( -0.000000000000000000, -0.000000000000000000, 1.000000000000000000 ) ) ;
#312 = VERTEX_POINT ( 'NONE', #103 ) ;
#313 = CARTESIAN_POINT ( 'NONE',  ( 0.000000000000000000, 0.000000000000000000, 15.44999999999999929 ) ) ;
#314 = VERTEX_POINT ( 'NONE', #470 ) ;
#315 = CC_DESIGN_APPROVAL ( #298, ( #85 ) ) ;
#316 = DIRECTION ( 'NONE',  ( -0.000000000000000000, -0.000000000000000000, 1.000000000000000000 ) ) ;
#317 = ORIENTED_EDGE ( 'NONE', *, *, #340, .T. ) ;
#318 = EDGE_CURVE ( 'NONE', #511, #517, #418, .T. ) ;
#319 = AXIS2_PLACEMENT_3D ( 'NONE', #24, #109, #510 ) ;
#320 = DIRECTION ( 'NONE',  ( -0.000000000000000000, -0.000000000000000000, 1.000000000000000000 ) ) ;
#321 = DIRECTION ( 'NONE',  ( -0.000000000000000000, -0.000000000000000000, 1.000000000000000000 ) ) ;
#322 = FACE_OUTER_BOUND ( 'NONE', #72, .T. ) ;
#323 = DIRECTION ( 'NONE',  ( 1.000000000000000000, 0.000000000000000000, 0.000000000000000000 ) ) ;
#324 = EDGE_CURVE ( 'NONE', #58, #20, #158, .T. ) ;
#325 = APPLICATION_PROTOCOL_DEFINITION ( 'international standard', 'config_control_design', 1994, #437 ) ;
#326 = LOCAL_TIME ( 15, 25, 35.00000000000000000, #253 ) ;
#327 = DIRECTION ( 'NONE',  ( -0.000000000000000000, -0.000000000000000000, 1.000000000000000000 ) ) ;
#328 = APPROVAL_ROLE ( '' ) ;
#329 = AXIS2_PLACEMENT_3D ( 'NONE', #372, #84, #124 ) ;
#330 = DIRECTION ( 'NONE',  ( -1.000000000000000000, 0.000000000000000000, 0.000000000000000000 ) ) ;
#331 = FACE_OUTER_BOUND ( 'NONE', #354, .T. ) ;
#332 = DATE_AND_TIME ( #414, #267 ) ;
#333 = FACE_OUTER_BOUND ( 'NONE', #102, .T. ) ;
#334 = APPROVAL_STATUS ( 'not_yet_approved' ) ;
#335 = DIRECTION ( 'NONE',  ( -0.000000000000000000, -0.000000000000000000, 1.000000000000000000 ) ) ;
#336 = AXIS2_PLACEMENT_3D ( 'NONE', #28, #360, #366 ) ;
#337 = ORIENTED_EDGE ( 'NONE', *, *, #11, .T. ) ;
#338 = DIRECTION ( 'NONE',  ( 1.000000000000000000, 0.000000000000000000, 0.000000000000000000 ) ) ;
#339 = PRODUCT_RELATED_PRODUCT_CATEGORY ( 'detail', '', ( #461 ) ) ;
#340 = EDGE_CURVE ( 'NONE', #401, #312, #100, .T. ) ;
#341 = CARTESIAN_POINT ( 'NONE',  ( 0.000000000000000000, 0.000000000000000000, -15.44999999999999929 ) ) ;
#342 = EDGE_CURVE ( 'NONE', #449, #441, #276, .T. ) ;
#343 = AXIS2_PLACEMENT_3D ( 'NONE', #412, #489, #210 ) ;
#344 = FACE_OUTER_BOUND ( 'NONE', #75, .T. ) ;
#345 = EDGE_LOOP ( 'NONE', ( #67, #292, #474, #56 ) ) ;
#346 = VECTOR ( 'NONE', #171, 1000.000000000000000 ) ;
#347 = APPROVAL_DATE_TIME ( #180, #298 ) ;
#348 = DIRECTION ( 'NONE',  ( 1.000000000000000000, 0.000000000000000000, 0.000000000000000000 ) ) ;
#349 = EDGE_LOOP ( 'NONE', ( #239, #18, #129, #478 ) ) ;
#350 = SECURITY_CLASSIFICATION_LEVEL ( 'unclassified' ) ;
#351 = CARTESIAN_POINT ( 'NONE',  ( 0.000000000000000000, 0.000000000000000000, 11.44999999999999751 ) ) ;
#352 = ORIENTED_EDGE ( 'NONE', *, *, #48, .F. ) ;
#353 = DIRECTION ( 'NONE',  ( 1.000000000000000000, 0.000000000000000000, 0.000000000000000000 ) ) ;
#354 = EDGE_LOOP ( 'NONE', ( #257, #534, #357, #151 ) ) ;
#355 = VECTOR ( 'NONE', #68, 1000.000000000000000 ) ;
#356 = DIRECTION ( 'NONE',  ( 1.000000000000000000, 0.000000000000000000, 0.000000000000000000 ) ) ;
#357 = ORIENTED_EDGE ( 'NONE', *, *, #404, .T. ) ;
#358 = CC_DESIGN_PERSON_AND_ORGANIZATION_ASSIGNMENT ( #258, #457, ( #85 ) ) ;
#359 = EDGE_CURVE ( 'NONE', #517, #511, #175, .T. ) ;
#360 = DIRECTION ( 'NONE',  ( -0.000000000000000000, -0.000000000000000000, 1.000000000000000000 ) ) ;
#361 = ORIENTED_EDGE ( 'NONE', *, *, #501, .F. ) ;
#362 = CYLINDRICAL_SURFACE ( 'NONE', #426, 2.000000000000000000 ) ;
#363 = DIRECTION ( 'NONE',  ( -0.000000000000000000, -0.000000000000000000, 1.000000000000000000 ) ) ;
#364 = CIRCLE ( 'NONE', #236, 14.99000000000000021 ) ;
#365 = AXIS2_PLACEMENT_3D ( 'NONE', #96, #456, #497 ) ;
#366 = DIRECTION ( 'NONE',  ( 1.000000000000000000, 0.000000000000000000, 0.000000000000000000 ) ) ;
#367 = DIRECTION ( 'NONE',  ( -0.000000000000000000, -0.000000000000000000, 1.000000000000000000 ) ) ;
#368 = ADVANCED_FACE ( 'NONE', ( #61 ), #443, .T. ) ;
#369 = DIRECTION ( 'NONE',  ( 1.000000000000000000, 0.000000000000000000, 0.000000000000000000 ) ) ;
#370 = CARTESIAN_POINT ( 'NONE',  ( 0.000000000000000000, 0.000000000000000000, -7.449999999999998401 ) ) ;
#371 = CARTESIAN_POINT ( 'NONE',  ( 0.000000000000000000, 0.000000000000000000, 15.44999999999999929 ) ) ;
#372 = CARTESIAN_POINT ( 'NONE',  ( 0.000000000000000000, 0.000000000000000000, -15.14999999999999680 ) ) ;
#373 = AXIS2_PLACEMENT_3D ( 'NONE', #535, #419, #176 ) ;
#374 = DIRECTION ( 'NONE',  ( 1.000000000000000000, 0.000000000000000000, 0.000000000000000000 ) ) ;
#375 = FACE_BOUND ( 'NONE', #107, .T. ) ;
#376 = EDGE_CURVE ( 'NONE', #388, #135, #428, .T. ) ;
#377 = DIRECTION ( 'NONE',  ( 1.000000000000000000, 0.000000000000000000, 0.000000000000000000 ) ) ;
#378 = PERSON_AND_ORGANIZATION_ROLE ( 'design_supplier' ) ;
#379 = APPROVAL_PERSON_ORGANIZATION ( #216, #447, #139 ) ;
#380 = DIRECTION ( 'NONE',  ( -0.000000000000000000, -0.000000000000000000, 1.000000000000000000 ) ) ;
#381 = ORIENTED_EDGE ( 'NONE', *, *, #458, .T. ) ;
#382 = SHAPE_DEFINITION_REPRESENTATION ( #86, #188 ) ;
#383 = LINE ( 'NONE', #254, #270 ) ;
#384 = AXIS2_PLACEMENT_3D ( 'NONE', #78, #321, #121 ) ;
#385 = VECTOR ( 'NONE', #128, 1000.000000000000000 ) ;
#386 = VERTEX_POINT ( 'NONE', #396 ) ;
#387 = LINE ( 'NONE', #47, #498 ) ;
#388 = VERTEX_POINT ( 'NONE', #268 ) ;
#389 = CARTESIAN_POINT ( 'NONE',  ( 2.000000000000000000, 0.000000000000000000, 15.44999999999999929 ) ) ;
#390 = AXIS2_PLACEMENT_3D ( 'NONE', #283, #164, #533 ) ;
#391 = ORIENTED_EDGE ( 'NONE', *, *, #376, .T. ) ;
#392 = DIRECTION ( 'NONE',  ( 1.000000000000000000, 0.000000000000000000, 0.000000000000000000 ) ) ;
#393 = EDGE_LOOP ( 'NONE', ( #29, #81, #10, #76 ) ) ;
#394 = VECTOR ( 'NONE', #400, 1000.000000000000000 ) ;
#395 = APPROVAL_ROLE ( '' ) ;
#396 = CARTESIAN_POINT ( 'NONE',  ( 2.000000000000000000, 0.000000000000000000, 15.14999999999999858 ) ) ;
#397 = EDGE_CURVE ( 'NONE', #20, #58, #309, .T. ) ;
#398 = ORIENTED_EDGE ( 'NONE', *, *, #488, .F. ) ;
#399 = DATE_TIME_ROLE ( 'creation_date' ) ;
#400 = DIRECTION ( 'NONE',  ( -0.000000000000000000, -0.000000000000000000, 1.000000000000000000 ) ) ;
#401 = VERTEX_POINT ( 'NONE', #196 ) ;
#402 = DIRECTION ( 'NONE',  ( -0.000000000000000000, -0.000000000000000000, 1.000000000000000000 ) ) ;
#403 = ORIENTED_EDGE ( 'NONE', *, *, #282, .F. ) ;
#404 = EDGE_CURVE ( 'NONE', #511, #58, #228, .T. ) ;
#405 = CARTESIAN_POINT ( 'NONE',  ( -14.99000000000000021, 1.835745551921882411E-15, 11.44999999999999751 ) ) ;
#406 = ORIENTED_EDGE ( 'NONE', *, *, #488, .T. ) ;
#407 = PERSON_AND_ORGANIZATION_ROLE ( 'design_owner' ) ;
#408 = FACE_OUTER_BOUND ( 'NONE', #415, .T. ) ;
#409 = FACE_OUTER_BOUND ( 'NONE', #471, .T. ) ;
#410 = VECTOR ( 'NONE', #8, 1000.000000000000000 ) ;
#411 = FACE_OUTER_BOUND ( 'NONE', #173, .T. ) ;
#412 = CARTESIAN_POINT ( 'NONE',  ( 0.000000000000000000, 0.000000000000000000, -15.14999999999999680 ) ) ;
#413 = AXIS2_PLACEMENT_3D ( 'NONE', #371, #519, #200 ) ;
#414 = CALENDAR_DATE ( 2026, 18, 4 ) ;
#415 = EDGE_LOOP ( 'NONE', ( #432, #202 ) ) ;
#416 = ADVANCED_FACE ( 'NONE', ( #19 ), #230, .T. ) ;
#417 = APPROVAL_DATE_TIME ( #170, #447 ) ;
#418 = CIRCLE ( 'NONE', #104, 12.69999999999999929 ) ;
#419 = DIRECTION ( 'NONE',  ( -0.000000000000000000, -0.000000000000000000, 1.000000000000000000 ) ) ;
#420 = CALENDAR_DATE ( 2026, 18, 4 ) ;
#421 = DIRECTION ( 'NONE',  ( -0.000000000000000000, -0.000000000000000000, 1.000000000000000000 ) ) ;
#422 = LINE ( 'NONE', #293, #492 ) ;
#423 = ADVANCED_FACE ( 'NONE', ( #225 ), #434, .T. ) ;
#424 = EDGE_LOOP ( 'NONE', ( #149, #261, #307, #113 ) ) ;
#425 = DIRECTION ( 'NONE',  ( -0.000000000000000000, -0.000000000000000000, 1.000000000000000000 ) ) ;
#426 = AXIS2_PLACEMENT_3D ( 'NONE', #285, #316, #209 ) ;
#427 = DIRECTION ( 'NONE',  ( -0.000000000000000000, -0.000000000000000000, 1.000000000000000000 ) ) ;
#428 = LINE ( 'NONE', #71, #194 ) ;
#429 = PERSON_AND_ORGANIZATION ( #232, #110 ) ;
#430 = EDGE_CURVE ( 'NONE', #135, #190, #203, .T. ) ;
#431 = DIRECTION ( 'NONE',  ( 1.000000000000000000, 0.000000000000000000, 0.000000000000000000 ) ) ;
#432 = ORIENTED_EDGE ( 'NONE', *, *, #458, .F. ) ;
#433 = VECTOR ( 'NONE', #380, 1000.000000000000000 ) ;
#434 = CONICAL_SURFACE ( 'NONE', #523, 14.99000000000000021, 0.5199534337697294673 ) ;
#435 = DIRECTION ( 'NONE',  ( 1.000000000000000000, 0.000000000000000000, 0.000000000000000000 ) ) ;
#436 = EDGE_LOOP ( 'NONE', ( #398, #229 ) ) ;
#437 = APPLICATION_CONTEXT ( 'configuration controlled 3d designs of mechanical parts and assemblies' ) ;
#438 = CARTESIAN_POINT ( 'NONE',  ( -2.000000000000000000, 2.449293598294706414E-16, 15.44999999999999929 ) ) ;
#439 = ORIENTED_EDGE ( 'NONE', *, *, #318, .F. ) ;
#440 = LINE ( 'NONE', #65, #494 ) ;
#441 = VERTEX_POINT ( 'NONE', #472 ) ;
#442 = AXIS2_PLACEMENT_3D ( 'NONE', #295, #427, #13 ) ;
#443 = CONICAL_SURFACE ( 'NONE', #62, 12.69999999999999929, 0.5199534337697294673 ) ;
#444 = DIRECTION ( 'NONE',  ( 0.000000000000000000, 0.000000000000000000, 1.000000000000000000 ) ) ;
#445 = ORIENTED_EDGE ( 'NONE', *, *, #97, .T. ) ;
#446 = CARTESIAN_POINT ( 'NONE',  ( 14.99000000000000021, 0.000000000000000000, -15.14999999999999680 ) ) ;
#447 = APPROVAL ( #142, 'UNSPECIFIED' ) ;
#448 = EDGE_CURVE ( 'NONE', #517, #314, #440, .T. ) ;
#449 = VERTEX_POINT ( 'NONE', #405 ) ;
#450 = PERSON_AND_ORGANIZATION ( #232, #110 ) ;
#451 = CYLINDRICAL_SURFACE ( 'NONE', #384, 2.000000000000000000 ) ;
#452 = CARTESIAN_POINT ( 'NONE',  ( 0.000000000000000000, 0.000000000000000000, 15.44999999999999929 ) ) ;
#453 = CC_DESIGN_SECURITY_CLASSIFICATION ( #223, ( #85 ) ) ;
#454 = FACE_OUTER_BOUND ( 'NONE', #424, .T. ) ;
#455 = AXIS2_PLACEMENT_3D ( 'NONE', #452, #481, #286 ) ;
#456 = DIRECTION ( 'NONE',  ( -0.000000000000000000, -0.000000000000000000, 1.000000000000000000 ) ) ;
#457 = PERSON_AND_ORGANIZATION_ROLE ( 'creator' ) ;
#458 = EDGE_CURVE ( 'NONE', #50, #138, #35, .T. ) ;
#459 = DIRECTION ( 'NONE',  ( 1.000000000000000000, 0.000000000000000000, 0.000000000000000000 ) ) ;
#460 = PLANE ( 'NONE',  #79 ) ;
#461 = PRODUCT ( 'Captured Pulley', 'Captured Pulley', '', ( #483 ) ) ;
#462 = FACE_OUTER_BOUND ( 'NONE', #436, .T. ) ;
#463 = CARTESIAN_POINT ( 'NONE',  ( 14.99000000000000021, 0.000000000000000000, -11.44999999999999751 ) ) ;
#464 = ADVANCED_FACE ( 'NONE', ( #31 ), #480, .T. ) ;
#465 = CALENDAR_DATE ( 2026, 18, 4 ) ;
#466 = CARTESIAN_POINT ( 'NONE',  ( -14.99000000000000021, 1.835745551921882411E-15, 15.44999999999999929 ) ) ;
#467 = ORIENTED_EDGE ( 'NONE', *, *, #224, .F. ) ;
#468 = DIRECTION ( 'NONE',  ( -0.000000000000000000, -0.000000000000000000, 1.000000000000000000 ) ) ;
#469 = EDGE_LOOP ( 'NONE', ( #235, #92, #445, #352 ) ) ;
#470 = CARTESIAN_POINT ( 'NONE',  ( -14.99000000000000021, 1.835745551921882411E-15, -11.44999999999999751 ) ) ;
#471 = EDGE_LOOP ( 'NONE', ( #439, #111, #63, #32 ) ) ;
#472 = CARTESIAN_POINT ( 'NONE',  ( -14.99000000000000021, 1.835745551921882411E-15, 15.14999999999999858 ) ) ;
#473 = ADVANCED_FACE ( 'NONE', ( #198 ), #362, .T. ) ;
#474 = ORIENTED_EDGE ( 'NONE', *, *, #119, .T. ) ;
#475 = CIRCLE ( 'NONE', #518, 2.000000000000000000 ) ;
#476 =( NAMED_UNIT ( * ) SI_UNIT ( $, .STERADIAN. ) SOLID_ANGLE_UNIT ( ) );
#477 = AXIS2_PLACEMENT_3D ( 'NONE', #530, #363, #242 ) ;
#478 = ORIENTED_EDGE ( 'NONE', *, *, #119, .F. ) ;
#479 = AXIS2_PLACEMENT_3D ( 'NONE', #93, #421, #299 ) ;
#480 = CYLINDRICAL_SURFACE ( 'NONE', #289, 2.000000000000000000 ) ;
#481 = DIRECTION ( 'NONE',  ( -0.000000000000000000, -0.000000000000000000, 1.000000000000000000 ) ) ;
#482 = LINE ( 'NONE', #245, #522 ) ;
#483 = MECHANICAL_CONTEXT ( 'NONE', #437, 'mechanical' ) ;
#484 = ORIENTED_EDGE ( 'NONE', *, *, #133, .F. ) ;
#485 = MANIFOLD_SOLID_BREP ( 'Revolve1', #278 ) ;
#486 = AXIS2_PLACEMENT_3D ( 'NONE', #313, #468, #356 ) ;
#487 = COORDINATED_UNIVERSAL_TIME_OFFSET ( 8, 0, .BEHIND. ) ;
#488 = EDGE_CURVE ( 'NONE', #70, #401, #263, .T. ) ;
#489 = DIRECTION ( 'NONE',  ( -0.000000000000000000, -0.000000000000000000, 1.000000000000000000 ) ) ;
#490 = FACE_OUTER_BOUND ( 'NONE', #4, .T. ) ;
#491 = DIRECTION ( 'NONE',  ( -0.000000000000000000, -0.000000000000000000, 1.000000000000000000 ) ) ;
#492 = VECTOR ( 'NONE', #178, 999.9999999999998863 ) ;
#493 = PERSON_AND_ORGANIZATION ( #232, #110 ) ;
#494 = VECTOR ( 'NONE', #238, 999.9999999999998863 ) ;
#495 = LINE ( 'NONE', #389, #433 ) ;
#496 = LINE ( 'NONE', #212, #385 ) ;
#497 = DIRECTION ( 'NONE',  ( 1.000000000000000000, 0.000000000000000000, 0.000000000000000000 ) ) ;
#498 = VECTOR ( 'NONE', #425, 1000.000000000000000 ) ;
#499 = DIRECTION ( 'NONE',  ( 0.000000000000000000, -0.000000000000000000, 1.000000000000000000 ) ) ;
#500 = AXIS2_PLACEMENT_3D ( 'NONE', #186, #193, #353 ) ;
#501 = EDGE_CURVE ( 'NONE', #314, #297, #280, .T. ) ;
#502 = ORIENTED_EDGE ( 'NONE', *, *, #215, .T. ) ;
#503 = PERSON_AND_ORGANIZATION_ROLE ( 'classification_officer' ) ;
#504 = DIRECTION ( 'NONE',  ( -0.000000000000000000, -0.000000000000000000, 1.000000000000000000 ) ) ;
#505 = ORIENTED_EDGE ( 'NONE', *, *, #11, .F. ) ;
#506 = DATE_AND_TIME ( #420, #127 ) ;
#507 = CARTESIAN_POINT ( 'NONE',  ( 0.000000000000000000, 0.000000000000000000, 11.44999999999999751 ) ) ;
#508 = ORIENTED_EDGE ( 'NONE', *, *, #265, .F. ) ;
#509 = ADVANCED_FACE ( 'NONE', ( #290 ), #112, .T. ) ;
#510 = DIRECTION ( 'NONE',  ( 1.000000000000000000, 0.000000000000000000, 0.000000000000000000 ) ) ;
#511 = VERTEX_POINT ( 'NONE', #250 ) ;
#512 = AXIS2_PLACEMENT_3D ( 'NONE', #284, #367, #323 ) ;
#513 = AXIS2_PLACEMENT_3D ( 'NONE', #529, #205, #374 ) ;
#514 = CARTESIAN_POINT ( 'NONE',  ( 0.000000000000000000, 0.000000000000000000, 15.44999999999999929 ) ) ;
#515 = ORIENTED_EDGE ( 'NONE', *, *, #97, .F. ) ;
#516 = DIRECTION ( 'NONE',  ( -0.000000000000000000, -0.000000000000000000, 1.000000000000000000 ) ) ;
#517 = VERTEX_POINT ( 'NONE', #114 ) ;
#518 = AXIS2_PLACEMENT_3D ( 'NONE', #524, #33, #369 ) ;
#519 = DIRECTION ( 'NONE',  ( -0.000000000000000000, -0.000000000000000000, 1.000000000000000000 ) ) ;
#520 = CARTESIAN_POINT ( 'NONE',  ( 0.000000000000000000, 0.000000000000000000, -15.14999999999999680 ) ) ;
#521 = EDGE_CURVE ( 'NONE', #388, #386, #475, .T. ) ;
#522 = VECTOR ( 'NONE', #288, 1000.000000000000000 ) ;
#523 = AXIS2_PLACEMENT_3D ( 'NONE', #351, #311, #271 ) ;
#524 = CARTESIAN_POINT ( 'NONE',  ( 0.000000000000000000, 0.000000000000000000, 15.14999999999999858 ) ) ;
#525 = DIRECTION ( 'NONE',  ( 0.000000000000000000, 0.000000000000000000, -1.000000000000000000 ) ) ;
#526 = DIRECTION ( 'NONE',  ( 1.000000000000000000, 0.000000000000000000, 0.000000000000000000 ) ) ;
#527 = CARTESIAN_POINT ( 'NONE',  ( 0.000000000000000000, 0.000000000000000000, 15.14999999999999858 ) ) ;
#528 = ADVANCED_FACE ( 'NONE', ( #322, #120 ), #156, .T. ) ;
#529 = CARTESIAN_POINT ( 'NONE',  ( 0.000000000000000000, 0.000000000000000000, -15.44999999999999929 ) ) ;
#530 = CARTESIAN_POINT ( 'NONE',  ( 0.000000000000000000, 0.000000000000000000, 15.44999999999999929 ) ) ;
#531 = CIRCLE ( 'NONE', #243, 14.99000000000000021 ) ;
#532 = CIRCLE ( 'NONE', #329, 2.000000000000000000 ) ;
#533 = DIRECTION ( 'NONE',  ( 1.000000000000000000, 0.000000000000000000, 0.000000000000000000 ) ) ;
#534 = ORIENTED_EDGE ( 'NONE', *, *, #359, .T. ) ;
#535 = CARTESIAN_POINT ( 'NONE',  ( 0.000000000000000000, 0.000000000000000000, 11.44999999999999751 ) ) ;
ENDSEC;
END-ISO-10303-21;
