ISO-10303-21;
HEADER;
FILE_DESCRIPTION (( 'STEP AP203' ),
    '1' );
FILE_NAME ('EDM Spool B-half.STEP',
    '2026-04-28T07:56:16',
    ( '' ),
    ( '' ),
    'SwSTEP 2.0',
    'SolidWorks 2024',
    '' );
FILE_SCHEMA (( 'CONFIG_CONTROL_DESIGN' ));
ENDSEC;

DATA;
#1 = EDGE_LOOP ( 'NONE', ( #442, #376 ) ) ;
#2 = CARTESIAN_POINT ( 'NONE',  ( -60.00000000000000000, 0.000000000000000000, 119.5000000000000000 ) ) ;
#3 = EDGE_CURVE ( 'NONE', #409, #406, #163, .T. ) ;
#4 = FACE_OUTER_BOUND ( 'NONE', #16, .T. ) ;
#5 = EDGE_CURVE ( 'NONE', #406, #451, #471, .T. ) ;
#6 = AXIS2_PLACEMENT_3D ( 'NONE', #408, #434, #293 ) ;
#7 =( GEOMETRIC_REPRESENTATION_CONTEXT ( 3 ) GLOBAL_UNCERTAINTY_ASSIGNED_CONTEXT ( ( #220 ) ) GLOBAL_UNIT_ASSIGNED_CONTEXT ( ( #388, #236, #486 ) ) REPRESENTATION_CONTEXT ( 'NONE', 'WORKASPACE' ) );
#8 = CIRCLE ( 'NONE', #433, 20.30000000000000426 ) ;
#9 = PERSON_AND_ORGANIZATION_ROLE ( 'creator' ) ;
#10 = ORIENTED_EDGE ( 'NONE', *, *, #276, .T. ) ;
#11 = DATE_AND_TIME ( #127, #474 ) ;
#12 = DIRECTION ( 'NONE',  ( 1.000000000000000000, 0.000000000000000000, 0.000000000000000000 ) ) ;
#13 = EDGE_CURVE ( 'NONE', #418, #340, #306, .T. ) ;
#14 = DIRECTION ( 'NONE',  ( 1.000000000000000000, 0.000000000000000000, 0.000000000000000000 ) ) ;
#15 = APPROVAL_ROLE ( '' ) ;
#16 = EDGE_LOOP ( 'NONE', ( #271, #223, #36, #485 ) ) ;
#17 = DIRECTION ( 'NONE',  ( 1.000000000000000000, 0.000000000000000000, 0.000000000000000000 ) ) ;
#18 = VERTEX_POINT ( 'NONE', #325 ) ;
#19 = PLANE ( 'NONE',  #269 ) ;
#20 = ORIENTED_EDGE ( 'NONE', *, *, #154, .T. ) ;
#21 = CC_DESIGN_APPROVAL ( #221, ( #321 ) ) ;
#22 = VECTOR ( 'NONE', #254, 1000.000000000000000 ) ;
#23 = ADVANCED_FACE ( 'NONE', ( #327, #206 ), #130, .F. ) ;
#24 = CYLINDRICAL_SURFACE ( 'NONE', #394, 21.64999999999999503 ) ;
#25 = CARTESIAN_POINT ( 'NONE',  ( 60.00000000000000000, 7.347880794884118356E-15, 129.5000000000000000 ) ) ;
#26 = VERTEX_POINT ( 'NONE', #90 ) ;
#27 = AXIS2_PLACEMENT_3D ( 'NONE', #387, #48, #50 ) ;
#28 = CARTESIAN_POINT ( 'NONE',  ( -21.64999999999999503, 2.651360320154018876E-15, 119.5000000000000000 ) ) ;
#29 = VERTEX_POINT ( 'NONE', #174 ) ;
#30 = DIRECTION ( 'NONE',  ( 1.000000000000000000, 0.000000000000000000, 0.000000000000000000 ) ) ;
#31 = LINE ( 'NONE', #25, #126 ) ;
#32 = ORIENTED_EDGE ( 'NONE', *, *, #363, .F. ) ;
#33 = AXIS2_PLACEMENT_3D ( 'NONE', #222, #180, #298 ) ;
#34 = DIRECTION ( 'NONE',  ( -1.000000000000000000, 0.000000000000000000, 0.000000000000000000 ) ) ;
#35 = DIRECTION ( 'NONE',  ( 1.000000000000000000, 0.000000000000000000, 0.000000000000000000 ) ) ;
#36 = ORIENTED_EDGE ( 'NONE', *, *, #44, .T. ) ;
#37 = FACE_OUTER_BOUND ( 'NONE', #309, .T. ) ;
#38 = AXIS2_PLACEMENT_3D ( 'NONE', #181, #475, #368 ) ;
#39 = AXIS2_PLACEMENT_3D ( 'NONE', #196, #270, #34 ) ;
#40 = CARTESIAN_POINT ( 'NONE',  ( 8.400000000000000355, 1.028703311283776783E-15, 129.5000000000000000 ) ) ;
#41 = DIRECTION ( 'NONE',  ( -1.000000000000000000, 0.000000000000000000, 0.000000000000000000 ) ) ;
#42 = EDGE_CURVE ( 'NONE', #418, #52, #162, .T. ) ;
#43 = DIRECTION ( 'NONE',  ( 1.000000000000000000, 0.000000000000000000, 0.000000000000000000 ) ) ;
#44 = EDGE_CURVE ( 'NONE', #52, #63, #152, .T. ) ;
#45 = COORDINATED_UNIVERSAL_TIME_OFFSET ( 8, 0, .BEHIND. ) ;
#46 = CARTESIAN_POINT ( 'NONE',  ( 0.000000000000000000, 0.000000000000000000, 0.000000000000000000 ) ) ;
#47 = AXIS2_PLACEMENT_3D ( 'NONE', #347, #155, #201 ) ;
#48 = DIRECTION ( 'NONE',  ( 0.000000000000000000, 0.000000000000000000, 1.000000000000000000 ) ) ;
#49 = CARTESIAN_POINT ( 'NONE',  ( 24.14999999999999858, 2.957522019940857141E-15, 119.5000000000000000 ) ) ;
#50 = DIRECTION ( 'NONE',  ( 1.000000000000000000, 0.000000000000000000, 0.000000000000000000 ) ) ;
#51 = AXIS2_PLACEMENT_3D ( 'NONE', #137, #94, #481 ) ;
#52 = VERTEX_POINT ( 'NONE', #397 ) ;
#53 = ORIENTED_EDGE ( 'NONE', *, *, #77, .F. ) ;
#54 = ADVANCED_FACE ( 'NONE', ( #392, #472 ), #19, .T. ) ;
#55 = CIRCLE ( 'NONE', #33, 24.14999999999999858 ) ;
#56 = CARTESIAN_POINT ( 'NONE',  ( 0.000000000000000000, 0.000000000000000000, 129.5000000000000000 ) ) ;
#57 = EDGE_LOOP ( 'NONE', ( #488, #288 ) ) ;
#58 = DIRECTION ( 'NONE',  ( 1.000000000000000000, 0.000000000000000000, 0.000000000000000000 ) ) ;
#59 = ORIENTED_EDGE ( 'NONE', *, *, #241, .F. ) ;
#60 = CIRCLE ( 'NONE', #343, 20.30000000000000426 ) ;
#61 = ADVANCED_FACE ( 'NONE', ( #425 ), #93, .T. ) ;
#62 = CARTESIAN_POINT ( 'NONE',  ( 0.000000000000000000, 0.000000000000000000, 129.5000000000000000 ) ) ;
#63 = VERTEX_POINT ( 'NONE', #123 ) ;
#64 = DIRECTION ( 'NONE',  ( -0.000000000000000000, -0.000000000000000000, -1.000000000000000000 ) ) ;
#65 = EDGE_LOOP ( 'NONE', ( #398, #182 ) ) ;
#66 = APPROVAL_DATE_TIME ( #395, #221 ) ;
#67 = DIRECTION ( 'NONE',  ( -0.000000000000000000, -0.000000000000000000, -1.000000000000000000 ) ) ;
#68 = AXIS2_PLACEMENT_3D ( 'NONE', #209, #361, #12 ) ;
#69 = CARTESIAN_POINT ( 'NONE',  ( 0.000000000000000000, 0.000000000000000000, 116.2999999999999972 ) ) ;
#70 = ORIENTED_EDGE ( 'NONE', *, *, #313, .F. ) ;
#71 = CYLINDRICAL_SURFACE ( 'NONE', #286, 60.00000000000000000 ) ;
#72 = DIRECTION ( 'NONE',  ( -0.000000000000000000, -0.000000000000000000, -1.000000000000000000 ) ) ;
#73 = ORIENTED_EDGE ( 'NONE', *, *, #282, .F. ) ;
#74 = CARTESIAN_POINT ( 'NONE',  ( -8.400000000000000355, 0.000000000000000000, 119.5000000000000000 ) ) ;
#75 = CARTESIAN_POINT ( 'NONE',  ( 21.64999999999999503, 0.000000000000000000, 116.2999999999999972 ) ) ;
#76 = LOCAL_TIME ( 0, 56, 16.00000000000000000, #122 ) ;
#77 = EDGE_CURVE ( 'NONE', #175, #366, #285, .T. ) ;
#78 = CARTESIAN_POINT ( 'NONE',  ( 20.30000000000000426, 2.486033002269127373E-15, 119.5000000000000000 ) ) ;
#79 = CARTESIAN_POINT ( 'NONE',  ( 0.000000000000000000, 0.000000000000000000, 119.5000000000000000 ) ) ;
#80 = APPROVAL_STATUS ( 'not_yet_approved' ) ;
#81 = PERSON_AND_ORGANIZATION ( #265, #116 ) ;
#82 = EDGE_LOOP ( 'NONE', ( #303, #10 ) ) ;
#83 = AXIS2_PLACEMENT_3D ( 'NONE', #322, #461, #216 ) ;
#84 = VECTOR ( 'NONE', #250, 1000.000000000000000 ) ;
#85 = APPROVAL_ROLE ( '' ) ;
#86 = CARTESIAN_POINT ( 'NONE',  ( 0.000000000000000000, 0.000000000000000000, 129.5000000000000000 ) ) ;
#87 = CIRCLE ( 'NONE', #371, 60.00000000000000000 ) ;
#88 = EDGE_CURVE ( 'NONE', #148, #120, #358, .T. ) ;
#89 = DIRECTION ( 'NONE',  ( -0.000000000000000000, -0.000000000000000000, -1.000000000000000000 ) ) ;
#90 = CARTESIAN_POINT ( 'NONE',  ( -60.00000000000000000, 0.000000000000000000, 129.5000000000000000 ) ) ;
#91 = ORIENTED_EDGE ( 'NONE', *, *, #363, .T. ) ;
#92 = ADVANCED_FACE ( 'NONE', ( #247, #139 ), #218, .F. ) ;
#93 = CYLINDRICAL_SURFACE ( 'NONE', #258, 60.00000000000000000 ) ;
#94 = DIRECTION ( 'NONE',  ( -0.000000000000000000, 0.000000000000000000, 1.000000000000000000 ) ) ;
#95 = ORIENTED_EDGE ( 'NONE', *, *, #192, .F. ) ;
#96 = DIRECTION ( 'NONE',  ( -0.000000000000000000, -0.000000000000000000, -1.000000000000000000 ) ) ;
#97 = PLANE ( 'NONE',  #278 ) ;
#98 = APPROVAL_PERSON_ORGANIZATION ( #284, #221, #85 ) ;
#99 = FACE_OUTER_BOUND ( 'NONE', #480, .T. ) ;
#100 = CARTESIAN_POINT ( 'NONE',  ( 0.000000000000000000, 0.000000000000000000, 129.5000000000000000 ) ) ;
#101 = CARTESIAN_POINT ( 'NONE',  ( 20.30000000000000426, 2.486033002269127373E-15, 116.2999999999999972 ) ) ;
#102 = EDGE_LOOP ( 'NONE', ( #219, #283, #91, #362 ) ) ;
#103 = PLANE ( 'NONE',  #6 ) ;
#104 = VERTEX_POINT ( 'NONE', #404 ) ;
#105 = SHAPE_DEFINITION_REPRESENTATION ( #430, #454 ) ;
#106 = AXIS2_PLACEMENT_3D ( 'NONE', #400, #245, #14 ) ;
#107 = LINE ( 'NONE', #274, #136 ) ;
#108 = ORIENTED_EDGE ( 'NONE', *, *, #42, .F. ) ;
#109 = ORIENTED_EDGE ( 'NONE', *, *, #372, .T. ) ;
#110 = CYLINDRICAL_SURFACE ( 'NONE', #39, 24.14999999999999858 ) ;
#111 = ORIENTED_EDGE ( 'NONE', *, *, #313, .T. ) ;
#112 = AXIS2_PLACEMENT_3D ( 'NONE', #79, #72, #41 ) ;
#113 = DIRECTION ( 'NONE',  ( -1.000000000000000000, 0.000000000000000000, 0.000000000000000000 ) ) ;
#114 = DIRECTION ( 'NONE',  ( 0.000000000000000000, 0.000000000000000000, 1.000000000000000000 ) ) ;
#115 = CYLINDRICAL_SURFACE ( 'NONE', #164, 21.64999999999999503 ) ;
#116 = ORGANIZATION ( 'UNSPECIFIED', 'UNSPECIFIED', '' ) ;
#117 = CIRCLE ( 'NONE', #183, 21.64999999999999503 ) ;
#118 = ADVANCED_FACE ( 'NONE', ( #227, #445 ), #103, .T. ) ;
#119 = FACE_OUTER_BOUND ( 'NONE', #102, .T. ) ;
#120 = VERTEX_POINT ( 'NONE', #28 ) ;
#121 = CIRCLE ( 'NONE', #47, 8.400000000000000355 ) ;
#122 = COORDINATED_UNIVERSAL_TIME_OFFSET ( 8, 0, .BEHIND. ) ;
#123 = CARTESIAN_POINT ( 'NONE',  ( -24.14999999999999858, 0.000000000000000000, 0.000000000000000000 ) ) ;
#124 = DATE_TIME_ROLE ( 'classification_date' ) ;
#125 = DIRECTION ( 'NONE',  ( 0.000000000000000000, 0.000000000000000000, 1.000000000000000000 ) ) ;
#126 = VECTOR ( 'NONE', #441, 1000.000000000000000 ) ;
#127 = CALENDAR_DATE ( 2026, 28, 4 ) ;
#128 = DIRECTION ( 'NONE',  ( -0.000000000000000000, 0.000000000000000000, 1.000000000000000000 ) ) ;
#129 = AXIS2_PLACEMENT_3D ( 'NONE', #301, #334, #173 ) ;
#130 = PLANE ( 'NONE',  #412 ) ;
#131 = EDGE_LOOP ( 'NONE', ( #267, #342 ) ) ;
#132 = CC_DESIGN_PERSON_AND_ORGANIZATION_ASSIGNMENT ( #158, #426, ( #268 ) ) ;
#133 = EDGE_LOOP ( 'NONE', ( #95, #275, #235, #411 ) ) ;
#134 = APPROVAL_PERSON_ORGANIZATION ( #396, #310, #15 ) ;
#135 = AXIS2_PLACEMENT_3D ( 'NONE', #359, #128, #213 ) ;
#136 = VECTOR ( 'NONE', #456, 1000.000000000000000 ) ;
#137 = CARTESIAN_POINT ( 'NONE',  ( 0.000000000000000000, 0.000000000000000000, 0.000000000000000000 ) ) ;
#138 = DIRECTION ( 'NONE',  ( -0.000000000000000000, -0.000000000000000000, 1.000000000000000000 ) ) ;
#139 = FACE_OUTER_BOUND ( 'NONE', #57, .T. ) ;
#140 = PRODUCT ( 'EDM Spool B-half', 'EDM Spool B-half', '', ( #166 ) ) ;
#141 = ORIENTED_EDGE ( 'NONE', *, *, #154, .F. ) ;
#142 = DIRECTION ( 'NONE',  ( 1.000000000000000000, 0.000000000000000000, 0.000000000000000000 ) ) ;
#143 = CC_DESIGN_PERSON_AND_ORGANIZATION_ASSIGNMENT ( #248, #356, ( #140 ) ) ;
#144 = CIRCLE ( 'NONE', #51, 24.14999999999999858 ) ;
#145 = CYLINDRICAL_SURFACE ( 'NONE', #299, 20.30000000000000426 ) ;
#146 = EDGE_LOOP ( 'NONE', ( #448, #336 ) ) ;
#147 = CARTESIAN_POINT ( 'NONE',  ( -24.14999999999999858, 0.000000000000000000, 119.5000000000000000 ) ) ;
#148 = VERTEX_POINT ( 'NONE', #437 ) ;
#149 = ADVANCED_FACE ( 'NONE', ( #401, #373 ), #97, .F. ) ;
#150 = ORIENTED_EDGE ( 'NONE', *, *, #88, .T. ) ;
#151 = DIRECTION ( 'NONE',  ( 1.000000000000000000, 0.000000000000000000, 0.000000000000000000 ) ) ;
#152 = CIRCLE ( 'NONE', #203, 24.14999999999999858 ) ;
#153 = ORIENTED_EDGE ( 'NONE', *, *, #360, .T. ) ;
#154 = EDGE_CURVE ( 'NONE', #228, #178, #60, .T. ) ;
#155 = DIRECTION ( 'NONE',  ( 0.000000000000000000, 0.000000000000000000, 1.000000000000000000 ) ) ;
#156 = CARTESIAN_POINT ( 'NONE',  ( 8.400000000000000355, 1.028703311283776783E-15, 129.5000000000000000 ) ) ;
#157 = CIRCLE ( 'NONE', #239, 60.00000000000000000 ) ;
#158 = PERSON_AND_ORGANIZATION ( #265, #116 ) ;
#159 = APPROVAL_DATE_TIME ( #287, #314 ) ;
#160 = DIRECTION ( 'NONE',  ( -0.000000000000000000, -0.000000000000000000, -1.000000000000000000 ) ) ;
#161 = APPROVAL_STATUS ( 'not_yet_approved' ) ;
#162 = LINE ( 'NONE', #49, #84 ) ;
#163 = CIRCLE ( 'NONE', #68, 8.400000000000000355 ) ;
#164 = AXIS2_PLACEMENT_3D ( 'NONE', #341, #240, #413 ) ;
#165 = EDGE_CURVE ( 'NONE', #18, #291, #31, .T. ) ;
#166 = MECHANICAL_CONTEXT ( 'NONE', #431, 'mechanical' ) ;
#167 = ORIENTED_EDGE ( 'NONE', *, *, #386, .F. ) ;
#168 = ORIENTED_EDGE ( 'NONE', *, *, #165, .F. ) ;
#169 = PERSON_AND_ORGANIZATION ( #265, #116 ) ;
#170 = DIRECTION ( 'NONE',  ( -0.000000000000000000, 0.000000000000000000, 1.000000000000000000 ) ) ;
#171 = ORIENTED_EDGE ( 'NONE', *, *, #360, .F. ) ;
#172 = EDGE_CURVE ( 'NONE', #178, #228, #465, .T. ) ;
#173 = DIRECTION ( 'NONE',  ( 1.000000000000000000, 0.000000000000000000, 0.000000000000000000 ) ) ;
#174 = CARTESIAN_POINT ( 'NONE',  ( -21.64999999999999503, 2.651360320154018876E-15, 116.2999999999999972 ) ) ;
#175 = VERTEX_POINT ( 'NONE', #177 ) ;
#176 = LOCAL_TIME ( 0, 56, 16.00000000000000000, #45 ) ;
#177 = CARTESIAN_POINT ( 'NONE',  ( -20.30000000000000426, 0.000000000000000000, 0.000000000000000000 ) ) ;
#178 = VERTEX_POINT ( 'NONE', #263 ) ;
#179 = CC_DESIGN_DATE_AND_TIME_ASSIGNMENT ( #11, #212, ( #381 ) ) ;
#180 = DIRECTION ( 'NONE',  ( -0.000000000000000000, 0.000000000000000000, 1.000000000000000000 ) ) ;
#181 = CARTESIAN_POINT ( 'NONE',  ( 0.000000000000000000, 0.000000000000000000, 116.2999999999999972 ) ) ;
#182 = ORIENTED_EDGE ( 'NONE', *, *, #13, .T. ) ;
#183 = AXIS2_PLACEMENT_3D ( 'NONE', #255, #330, #58 ) ;
#184 = EDGE_CURVE ( 'NONE', #63, #52, #144, .T. ) ;
#185 = DIRECTION ( 'NONE',  ( -1.000000000000000000, 0.000000000000000000, 0.000000000000000000 ) ) ;
#186 = VECTOR ( 'NONE', #67, 1000.000000000000000 ) ;
#187 = ORIENTED_EDGE ( 'NONE', *, *, #416, .T. ) ;
#188 = CARTESIAN_POINT ( 'NONE',  ( 0.000000000000000000, 0.000000000000000000, 129.5000000000000000 ) ) ;
#189 = ORIENTED_EDGE ( 'NONE', *, *, #5, .F. ) ;
#190 = CARTESIAN_POINT ( 'NONE',  ( 0.000000000000000000, 0.000000000000000000, 116.2999999999999972 ) ) ;
#191 = EDGE_LOOP ( 'NONE', ( #365, #20 ) ) ;
#192 = EDGE_CURVE ( 'NONE', #29, #104, #117, .T. ) ;
#193 = CC_DESIGN_APPROVAL ( #310, ( #381 ) ) ;
#194 = FACE_OUTER_BOUND ( 'NONE', #133, .T. ) ;
#195 = CARTESIAN_POINT ( 'NONE',  ( -21.64999999999999503, 2.651360320154018876E-15, 116.2999999999999972 ) ) ;
#196 = CARTESIAN_POINT ( 'NONE',  ( 0.000000000000000000, 0.000000000000000000, 119.5000000000000000 ) ) ;
#197 = DIRECTION ( 'NONE',  ( 0.000000000000000000, 0.000000000000000000, 1.000000000000000000 ) ) ;
#198 = CC_DESIGN_PERSON_AND_ORGANIZATION_ASSIGNMENT ( #81, #204, ( #381 ) ) ;
#199 = EDGE_LOOP ( 'NONE', ( #414, #328 ) ) ;
#200 = CARTESIAN_POINT ( 'NONE',  ( 0.000000000000000000, 0.000000000000000000, 129.5000000000000000 ) ) ;
#201 = DIRECTION ( 'NONE',  ( 1.000000000000000000, 0.000000000000000000, 0.000000000000000000 ) ) ;
#202 = CALENDAR_DATE ( 2026, 28, 4 ) ;
#203 = AXIS2_PLACEMENT_3D ( 'NONE', #46, #170, #17 ) ;
#204 = PERSON_AND_ORGANIZATION_ROLE ( 'creator' ) ;
#205 = DIRECTION ( 'NONE',  ( -0.000000000000000000, 0.000000000000000000, 1.000000000000000000 ) ) ;
#206 = FACE_OUTER_BOUND ( 'NONE', #463, .T. ) ;
#207 = EDGE_CURVE ( 'NONE', #406, #409, #315, .T. ) ;
#208 = CALENDAR_DATE ( 2026, 28, 4 ) ;
#209 = CARTESIAN_POINT ( 'NONE',  ( 0.000000000000000000, 0.000000000000000000, 129.5000000000000000 ) ) ;
#210 = AXIS2_PLACEMENT_3D ( 'NONE', #302, #375, #297 ) ;
#211 = AXIS2_PLACEMENT_3D ( 'NONE', #190, #346, #316 ) ;
#212 = DATE_TIME_ROLE ( 'creation_date' ) ;
#213 = DIRECTION ( 'NONE',  ( 1.000000000000000000, 0.000000000000000000, 0.000000000000000000 ) ) ;
#214 = ORIENTED_EDGE ( 'NONE', *, *, #207, .T. ) ;
#215 = EDGE_CURVE ( 'NONE', #340, #418, #55, .T. ) ;
#216 = DIRECTION ( 'NONE',  ( 1.000000000000000000, 0.000000000000000000, 0.000000000000000000 ) ) ;
#217 = VERTEX_POINT ( 'NONE', #335 ) ;
#218 = PLANE ( 'NONE',  #210 ) ;
#219 = ORIENTED_EDGE ( 'NONE', *, *, #372, .F. ) ;
#220 = UNCERTAINTY_MEASURE_WITH_UNIT (LENGTH_MEASURE( 1.000000000000000082E-05 ), #388, 'distance_accuracy_value', 'NONE');
#221 = APPROVAL ( #424, 'UNSPECIFIED' ) ;
#222 = CARTESIAN_POINT ( 'NONE',  ( 0.000000000000000000, 0.000000000000000000, 119.5000000000000000 ) ) ;
#223 = ORIENTED_EDGE ( 'NONE', *, *, #42, .T. ) ;
#224 = EDGE_LOOP ( 'NONE', ( #168, #369, #111, #153 ) ) ;
#225 = ADVANCED_FACE ( 'NONE', ( #439 ), #405, .F. ) ;
#226 = CYLINDRICAL_SURFACE ( 'NONE', #345, 8.400000000000000355 ) ;
#227 = FACE_OUTER_BOUND ( 'NONE', #82, .T. ) ;
#228 = VERTEX_POINT ( 'NONE', #101 ) ;
#229 = CARTESIAN_POINT ( 'NONE',  ( 0.000000000000000000, 0.000000000000000000, 119.5000000000000000 ) ) ;
#230 = DIRECTION ( 'NONE',  ( 0.000000000000000000, -0.000000000000000000, -1.000000000000000000 ) ) ;
#231 = EDGE_LOOP ( 'NONE', ( #370, #272 ) ) ;
#232 = AXIS2_PLACEMENT_3D ( 'NONE', #100, #64, #483 ) ;
#233 = DIRECTION ( 'NONE',  ( -1.000000000000000000, 0.000000000000000000, 0.000000000000000000 ) ) ;
#234 = LINE ( 'NONE', #195, #289 ) ;
#235 = ORIENTED_EDGE ( 'NONE', *, *, #244, .T. ) ;
#236 =( NAMED_UNIT ( * ) PLANE_ANGLE_UNIT ( ) SI_UNIT ( $, .RADIAN. ) );
#237 = DIRECTION ( 'NONE',  ( -0.000000000000000000, 0.000000000000000000, 1.000000000000000000 ) ) ;
#238 = ADVANCED_FACE ( 'NONE', ( #119 ), #308, .F. ) ;
#239 = AXIS2_PLACEMENT_3D ( 'NONE', #229, #348, #151 ) ;
#240 = DIRECTION ( 'NONE',  ( -0.000000000000000000, -0.000000000000000000, 1.000000000000000000 ) ) ;
#241 = EDGE_CURVE ( 'NONE', #29, #120, #234, .T. ) ;
#242 = PRODUCT_RELATED_PRODUCT_CATEGORY ( 'detail', '', ( #140 ) ) ;
#243 = COORDINATED_UNIVERSAL_TIME_OFFSET ( 8, 0, .BEHIND. ) ;
#244 = EDGE_CURVE ( 'NONE', #120, #148, #294, .T. ) ;
#245 = DIRECTION ( 'NONE',  ( -0.000000000000000000, 0.000000000000000000, 1.000000000000000000 ) ) ;
#246 = CALENDAR_DATE ( 2026, 28, 4 ) ;
#247 = FACE_BOUND ( 'NONE', #199, .T. ) ;
#248 = PERSON_AND_ORGANIZATION ( #265, #116 ) ;
#249 = APPROVAL_PERSON_ORGANIZATION ( #169, #314, #324 ) ;
#250 = DIRECTION ( 'NONE',  ( -0.000000000000000000, -0.000000000000000000, -1.000000000000000000 ) ) ;
#251 = ORIENTED_EDGE ( 'NONE', *, *, #460, .F. ) ;
#252 = DIRECTION ( 'NONE',  ( -1.000000000000000000, 0.000000000000000000, 0.000000000000000000 ) ) ;
#253 = MANIFOLD_SOLID_BREP ( 'Boss-Extrude2', #468 ) ;
#254 = DIRECTION ( 'NONE',  ( -0.000000000000000000, -0.000000000000000000, -1.000000000000000000 ) ) ;
#255 = CARTESIAN_POINT ( 'NONE',  ( 0.000000000000000000, 0.000000000000000000, 116.2999999999999972 ) ) ;
#256 = ORIENTED_EDGE ( 'NONE', *, *, #5, .T. ) ;
#257 = DIRECTION ( 'NONE',  ( -0.000000000000000000, -0.000000000000000000, -1.000000000000000000 ) ) ;
#258 = AXIS2_PLACEMENT_3D ( 'NONE', #86, #89, #252 ) ;
#259 = VECTOR ( 'NONE', #382, 1000.000000000000000 ) ;
#260 = EDGE_CURVE ( 'NONE', #451, #217, #339, .T. ) ;
#261 = CARTESIAN_POINT ( 'NONE',  ( 0.000000000000000000, 0.000000000000000000, 0.000000000000000000 ) ) ;
#262 = DIRECTION ( 'NONE',  ( -0.000000000000000000, -0.000000000000000000, -1.000000000000000000 ) ) ;
#263 = CARTESIAN_POINT ( 'NONE',  ( -20.30000000000000426, 0.000000000000000000, 116.2999999999999972 ) ) ;
#264 = VERTEX_POINT ( 'NONE', #2 ) ;
#265 = PERSON ( 'UNSPECIFIED', 'UNSPECIFIED', 'UNSPECIFIED', ('UNSPECIFIED'), ('UNSPECIFIED'), ('UNSPECIFIED') ) ;
#266 = CYLINDRICAL_SURFACE ( 'NONE', #476, 24.14999999999999858 ) ;
#267 = ORIENTED_EDGE ( 'NONE', *, *, #77, .T. ) ;
#268 = PRODUCT_DEFINITION_FORMATION_WITH_SPECIFIED_SOURCE ( 'ANY', '', #140, .NOT_KNOWN. ) ;
#269 = AXIS2_PLACEMENT_3D ( 'NONE', #292, #205, #432 ) ;
#270 = DIRECTION ( 'NONE',  ( -0.000000000000000000, -0.000000000000000000, -1.000000000000000000 ) ) ;
#271 = ORIENTED_EDGE ( 'NONE', *, *, #13, .F. ) ;
#272 = ORIENTED_EDGE ( 'NONE', *, *, #44, .F. ) ;
#273 = AXIS2_PLACEMENT_3D ( 'NONE', #389, #114, #417 ) ;
#274 = CARTESIAN_POINT ( 'NONE',  ( -24.14999999999999858, 0.000000000000000000, 119.5000000000000000 ) ) ;
#275 = ORIENTED_EDGE ( 'NONE', *, *, #241, .T. ) ;
#276 = EDGE_CURVE ( 'NONE', #18, #26, #87, .T. ) ;
#277 = DIRECTION ( 'NONE',  ( -0.000000000000000000, -0.000000000000000000, 1.000000000000000000 ) ) ;
#278 = AXIS2_PLACEMENT_3D ( 'NONE', #261, #333, #410 ) ;
#279 = APPLICATION_PROTOCOL_DEFINITION ( 'international standard', 'config_control_design', 1994, #431 ) ;
#280 = EDGE_CURVE ( 'NONE', #104, #148, #419, .T. ) ;
#281 = CARTESIAN_POINT ( 'NONE',  ( 0.000000000000000000, 0.000000000000000000, 119.5000000000000000 ) ) ;
#282 = EDGE_CURVE ( 'NONE', #217, #451, #121, .T. ) ;
#283 = ORIENTED_EDGE ( 'NONE', *, *, #172, .F. ) ;
#284 = PERSON_AND_ORGANIZATION ( #265, #116 ) ;
#285 = CIRCLE ( 'NONE', #106, 20.30000000000000426 ) ;
#286 = AXIS2_PLACEMENT_3D ( 'NONE', #188, #415, #233 ) ;
#287 = DATE_AND_TIME ( #202, #176 ) ;
#288 = ORIENTED_EDGE ( 'NONE', *, *, #244, .F. ) ;
#289 = VECTOR ( 'NONE', #277, 1000.000000000000000 ) ;
#290 = CARTESIAN_POINT ( 'NONE',  ( 0.000000000000000000, 0.000000000000000000, 119.5000000000000000 ) ) ;
#291 = VERTEX_POINT ( 'NONE', #349 ) ;
#292 = CARTESIAN_POINT ( 'NONE',  ( 0.000000000000000000, 0.000000000000000000, 116.2999999999999972 ) ) ;
#293 = DIRECTION ( 'NONE',  ( 1.000000000000000000, 0.000000000000000000, -0.000000000000000000 ) ) ;
#294 = CIRCLE ( 'NONE', #407, 21.64999999999999503 ) ;
#295 = DESIGN_CONTEXT ( 'detailed design', #458, 'design' ) ;
#296 = DIRECTION ( 'NONE',  ( 1.000000000000000000, 0.000000000000000000, 0.000000000000000000 ) ) ;
#297 = DIRECTION ( 'NONE',  ( 1.000000000000000000, 0.000000000000000000, -0.000000000000000000 ) ) ;
#298 = DIRECTION ( 'NONE',  ( 1.000000000000000000, 0.000000000000000000, 0.000000000000000000 ) ) ;
#299 = AXIS2_PLACEMENT_3D ( 'NONE', #399, #262, #378 ) ;
#300 = ORIENTED_EDGE ( 'NONE', *, *, #215, .F. ) ;
#301 = CARTESIAN_POINT ( 'NONE',  ( 0.000000000000000000, 0.000000000000000000, 119.5000000000000000 ) ) ;
#302 = CARTESIAN_POINT ( 'NONE',  ( 0.000000000000000000, 0.000000000000000000, 119.5000000000000000 ) ) ;
#303 = ORIENTED_EDGE ( 'NONE', *, *, #444, .T. ) ;
#304 = LINE ( 'NONE', #78, #186 ) ;
#305 = ORIENTED_EDGE ( 'NONE', *, *, #460, .T. ) ;
#306 = CIRCLE ( 'NONE', #135, 24.14999999999999858 ) ;
#307 = CARTESIAN_POINT ( 'NONE',  ( -8.400000000000000355, 0.000000000000000000, 129.5000000000000000 ) ) ;
#308 = CYLINDRICAL_SURFACE ( 'NONE', #112, 20.30000000000000426 ) ;
#309 = EDGE_LOOP ( 'NONE', ( #331, #338, #355, #70 ) ) ;
#310 = APPROVAL ( #161, 'UNSPECIFIED' ) ;
#311 = CIRCLE ( 'NONE', #129, 60.00000000000000000 ) ;
#312 = CARTESIAN_POINT ( 'NONE',  ( 24.14999999999999858, 2.957522019940857141E-15, 119.5000000000000000 ) ) ;
#313 = EDGE_CURVE ( 'NONE', #26, #264, #477, .T. ) ;
#314 = APPROVAL ( #80, 'UNSPECIFIED' ) ;
#315 = CIRCLE ( 'NONE', #478, 8.400000000000000355 ) ;
#316 = DIRECTION ( 'NONE',  ( 1.000000000000000000, 0.000000000000000000, 0.000000000000000000 ) ) ;
#317 = CC_DESIGN_SECURITY_CLASSIFICATION ( #321, ( #268 ) ) ;
#318 = PERSON_AND_ORGANIZATION ( #265, #116 ) ;
#319 = SECURITY_CLASSIFICATION_LEVEL ( 'unclassified' ) ;
#320 = COORDINATED_UNIVERSAL_TIME_OFFSET ( 8, 0, .BEHIND. ) ;
#321 = SECURITY_CLASSIFICATION ( '', '', #319 ) ;
#322 = CARTESIAN_POINT ( 'NONE',  ( 0.000000000000000000, 0.000000000000000000, 119.5000000000000000 ) ) ;
#323 = CIRCLE ( 'NONE', #211, 21.64999999999999503 ) ;
#324 = APPROVAL_ROLE ( '' ) ;
#325 = CARTESIAN_POINT ( 'NONE',  ( 60.00000000000000000, 7.347880794884118356E-15, 129.5000000000000000 ) ) ;
#326 = ORIENTED_EDGE ( 'NONE', *, *, #466, .F. ) ;
#327 = FACE_BOUND ( 'NONE', #65, .T. ) ;
#328 = ORIENTED_EDGE ( 'NONE', *, *, #282, .T. ) ;
#329 = ADVANCED_FACE ( 'NONE', ( #99 ), #24, .F. ) ;
#330 = DIRECTION ( 'NONE',  ( -0.000000000000000000, 0.000000000000000000, 1.000000000000000000 ) ) ;
#331 = ORIENTED_EDGE ( 'NONE', *, *, #276, .F. ) ;
#332 = ADVANCED_FACE ( 'NONE', ( #436 ), #226, .F. ) ;
#333 = DIRECTION ( 'NONE',  ( -0.000000000000000000, 0.000000000000000000, 1.000000000000000000 ) ) ;
#334 = DIRECTION ( 'NONE',  ( 0.000000000000000000, 0.000000000000000000, 1.000000000000000000 ) ) ;
#335 = CARTESIAN_POINT ( 'NONE',  ( 8.400000000000000355, 1.028703311283776783E-15, 119.5000000000000000 ) ) ;
#336 = ORIENTED_EDGE ( 'NONE', *, *, #192, .T. ) ;
#337 = CC_DESIGN_PERSON_AND_ORGANIZATION_ASSIGNMENT ( #352, #9, ( #268 ) ) ;
#338 = ORIENTED_EDGE ( 'NONE', *, *, #165, .T. ) ;
#339 = CIRCLE ( 'NONE', #273, 8.400000000000000355 ) ;
#340 = VERTEX_POINT ( 'NONE', #147 ) ;
#341 = CARTESIAN_POINT ( 'NONE',  ( 0.000000000000000000, 0.000000000000000000, 116.2999999999999972 ) ) ;
#342 = ORIENTED_EDGE ( 'NONE', *, *, #390, .T. ) ;
#343 = AXIS2_PLACEMENT_3D ( 'NONE', #69, #230, #379 ) ;
#344 = DIRECTION ( 'NONE',  ( -0.000000000000000000, -0.000000000000000000, -1.000000000000000000 ) ) ;
#345 = AXIS2_PLACEMENT_3D ( 'NONE', #56, #96, #185 ) ;
#346 = DIRECTION ( 'NONE',  ( -0.000000000000000000, 0.000000000000000000, 1.000000000000000000 ) ) ;
#347 = CARTESIAN_POINT ( 'NONE',  ( 0.000000000000000000, 0.000000000000000000, 119.5000000000000000 ) ) ;
#348 = DIRECTION ( 'NONE',  ( 0.000000000000000000, 0.000000000000000000, 1.000000000000000000 ) ) ;
#349 = CARTESIAN_POINT ( 'NONE',  ( 60.00000000000000000, 7.347880794884118356E-15, 119.5000000000000000 ) ) ;
#350 = CC_DESIGN_PERSON_AND_ORGANIZATION_ASSIGNMENT ( #318, #459, ( #321 ) ) ;
#351 = VECTOR ( 'NONE', #160, 1000.000000000000000 ) ;
#352 = PERSON_AND_ORGANIZATION ( #265, #116 ) ;
#353 = COORDINATED_UNIVERSAL_TIME_OFFSET ( 8, 0, .BEHIND. ) ;
#354 = VECTOR ( 'NONE', #385, 1000.000000000000000 ) ;
#355 = ORIENTED_EDGE ( 'NONE', *, *, #386, .T. ) ;
#356 = PERSON_AND_ORGANIZATION_ROLE ( 'design_owner' ) ;
#357 = LOCAL_TIME ( 0, 56, 16.00000000000000000, #243 ) ;
#358 = CIRCLE ( 'NONE', #83, 21.64999999999999503 ) ;
#359 = CARTESIAN_POINT ( 'NONE',  ( 0.000000000000000000, 0.000000000000000000, 119.5000000000000000 ) ) ;
#360 = EDGE_CURVE ( 'NONE', #264, #291, #311, .T. ) ;
#361 = DIRECTION ( 'NONE',  ( 0.000000000000000000, 0.000000000000000000, 1.000000000000000000 ) ) ;
#362 = ORIENTED_EDGE ( 'NONE', *, *, #390, .F. ) ;
#363 = EDGE_CURVE ( 'NONE', #178, #175, #482, .T. ) ;
#364 = FACE_OUTER_BOUND ( 'NONE', #473, .T. ) ;
#365 = ORIENTED_EDGE ( 'NONE', *, *, #172, .T. ) ;
#366 = VERTEX_POINT ( 'NONE', #403 ) ;
#367 = ADVANCED_FACE ( 'NONE', ( #364 ), #145, .F. ) ;
#368 = DIRECTION ( 'NONE',  ( 1.000000000000000000, 0.000000000000000000, 0.000000000000000000 ) ) ;
#369 = ORIENTED_EDGE ( 'NONE', *, *, #444, .F. ) ;
#370 = ORIENTED_EDGE ( 'NONE', *, *, #184, .F. ) ;
#371 = AXIS2_PLACEMENT_3D ( 'NONE', #453, #197, #35 ) ;
#372 = EDGE_CURVE ( 'NONE', #228, #366, #304, .T. ) ;
#373 = FACE_OUTER_BOUND ( 'NONE', #231, .T. ) ;
#374 = CARTESIAN_POINT ( 'NONE',  ( -60.00000000000000000, 0.000000000000000000, 129.5000000000000000 ) ) ;
#375 = DIRECTION ( 'NONE',  ( 0.000000000000000000, 0.000000000000000000, 1.000000000000000000 ) ) ;
#376 = ORIENTED_EDGE ( 'NONE', *, *, #3, .F. ) ;
#377 = ADVANCED_FACE ( 'NONE', ( #194 ), #115, .F. ) ;
#378 = DIRECTION ( 'NONE',  ( -1.000000000000000000, 0.000000000000000000, 0.000000000000000000 ) ) ;
#379 = DIRECTION ( 'NONE',  ( 1.000000000000000000, 0.000000000000000000, 0.000000000000000000 ) ) ;
#380 = ORIENTED_EDGE ( 'NONE', *, *, #280, .T. ) ;
#381 = PRODUCT_DEFINITION ( 'UNKNOWN', '', #268, #295 ) ;
#382 = DIRECTION ( 'NONE',  ( -0.000000000000000000, -0.000000000000000000, -1.000000000000000000 ) ) ;
#383 = DIRECTION ( 'NONE',  ( -0.000000000000000000, 0.000000000000000000, 1.000000000000000000 ) ) ;
#384 = EDGE_LOOP ( 'NONE', ( #251, #435, #256, #73 ) ) ;
#385 = DIRECTION ( 'NONE',  ( -0.000000000000000000, -0.000000000000000000, 1.000000000000000000 ) ) ;
#386 = EDGE_CURVE ( 'NONE', #291, #264, #157, .T. ) ;
#387 = CARTESIAN_POINT ( 'NONE',  ( 0.000000000000000000, 0.000000000000000000, 0.000000000000000000 ) ) ;
#388 =( LENGTH_UNIT ( ) NAMED_UNIT ( * ) SI_UNIT ( .MILLI., .METRE. ) );
#389 = CARTESIAN_POINT ( 'NONE',  ( 0.000000000000000000, 0.000000000000000000, 119.5000000000000000 ) ) ;
#390 = EDGE_CURVE ( 'NONE', #366, #175, #8, .T. ) ;
#391 = APPROVAL_DATE_TIME ( #393, #310 ) ;
#392 = FACE_BOUND ( 'NONE', #191, .T. ) ;
#393 = DATE_AND_TIME ( #467, #455 ) ;
#394 = AXIS2_PLACEMENT_3D ( 'NONE', #438, #138, #296 ) ;
#395 = DATE_AND_TIME ( #246, #357 ) ;
#396 = PERSON_AND_ORGANIZATION ( #265, #116 ) ;
#397 = CARTESIAN_POINT ( 'NONE',  ( 24.14999999999999858, 2.957522019940857141E-15, 0.000000000000000000 ) ) ;
#398 = ORIENTED_EDGE ( 'NONE', *, *, #215, .T. ) ;
#399 = CARTESIAN_POINT ( 'NONE',  ( 0.000000000000000000, 0.000000000000000000, 119.5000000000000000 ) ) ;
#400 = CARTESIAN_POINT ( 'NONE',  ( 0.000000000000000000, 0.000000000000000000, 0.000000000000000000 ) ) ;
#401 = FACE_BOUND ( 'NONE', #131, .T. ) ;
#402 = EDGE_LOOP ( 'NONE', ( #214, #305, #484, #189 ) ) ;
#403 = CARTESIAN_POINT ( 'NONE',  ( 20.30000000000000426, 2.486033002269127373E-15, 0.000000000000000000 ) ) ;
#404 = CARTESIAN_POINT ( 'NONE',  ( 21.64999999999999503, 0.000000000000000000, 116.2999999999999972 ) ) ;
#405 = CYLINDRICAL_SURFACE ( 'NONE', #232, 8.400000000000000355 ) ;
#406 = VERTEX_POINT ( 'NONE', #307 ) ;
#407 = AXIS2_PLACEMENT_3D ( 'NONE', #281, #383, #487 ) ;
#408 = CARTESIAN_POINT ( 'NONE',  ( 0.000000000000000000, 0.000000000000000000, 129.5000000000000000 ) ) ;
#409 = VERTEX_POINT ( 'NONE', #40 ) ;
#410 = DIRECTION ( 'NONE',  ( 1.000000000000000000, 0.000000000000000000, 0.000000000000000000 ) ) ;
#411 = ORIENTED_EDGE ( 'NONE', *, *, #280, .F. ) ;
#412 = AXIS2_PLACEMENT_3D ( 'NONE', #290, #125, #428 ) ;
#413 = DIRECTION ( 'NONE',  ( 1.000000000000000000, 0.000000000000000000, 0.000000000000000000 ) ) ;
#414 = ORIENTED_EDGE ( 'NONE', *, *, #260, .T. ) ;
#415 = DIRECTION ( 'NONE',  ( -0.000000000000000000, -0.000000000000000000, -1.000000000000000000 ) ) ;
#416 = EDGE_CURVE ( 'NONE', #340, #63, #107, .T. ) ;
#417 = DIRECTION ( 'NONE',  ( 1.000000000000000000, 0.000000000000000000, 0.000000000000000000 ) ) ;
#418 = VERTEX_POINT ( 'NONE', #312 ) ;
#419 = LINE ( 'NONE', #75, #354 ) ;
#420 = AXIS2_PLACEMENT_3D ( 'NONE', #200, #489, #30 ) ;
#421 = FACE_OUTER_BOUND ( 'NONE', #446, .T. ) ;
#422 = CC_DESIGN_DATE_AND_TIME_ASSIGNMENT ( #462, #124, ( #321 ) ) ;
#423 = APPLICATION_PROTOCOL_DEFINITION ( 'international standard', 'config_control_design', 1994, #458 ) ;
#424 = APPROVAL_STATUS ( 'not_yet_approved' ) ;
#425 = FACE_OUTER_BOUND ( 'NONE', #224, .T. ) ;
#426 = PERSON_AND_ORGANIZATION_ROLE ( 'design_supplier' ) ;
#427 = CARTESIAN_POINT ( 'NONE',  ( -8.400000000000000355, 0.000000000000000000, 129.5000000000000000 ) ) ;
#428 = DIRECTION ( 'NONE',  ( 1.000000000000000000, 0.000000000000000000, -0.000000000000000000 ) ) ;
#429 = ORIENTED_EDGE ( 'NONE', *, *, #184, .T. ) ;
#430 = PRODUCT_DEFINITION_SHAPE ( 'NONE', 'NONE',  #381 ) ;
#431 = APPLICATION_CONTEXT ( 'configuration controlled 3d designs of mechanical parts and assemblies' ) ;
#432 = DIRECTION ( 'NONE',  ( 1.000000000000000000, 0.000000000000000000, 0.000000000000000000 ) ) ;
#433 = AXIS2_PLACEMENT_3D ( 'NONE', #447, #237, #43 ) ;
#434 = DIRECTION ( 'NONE',  ( 0.000000000000000000, 0.000000000000000000, 1.000000000000000000 ) ) ;
#435 = ORIENTED_EDGE ( 'NONE', *, *, #3, .T. ) ;
#436 = FACE_OUTER_BOUND ( 'NONE', #384, .T. ) ;
#437 = CARTESIAN_POINT ( 'NONE',  ( 21.64999999999999503, 0.000000000000000000, 119.5000000000000000 ) ) ;
#438 = CARTESIAN_POINT ( 'NONE',  ( 0.000000000000000000, 0.000000000000000000, 116.2999999999999972 ) ) ;
#439 = FACE_OUTER_BOUND ( 'NONE', #402, .T. ) ;
#440 = ADVANCED_FACE ( 'NONE', ( #4 ), #266, .T. ) ;
#441 = DIRECTION ( 'NONE',  ( -0.000000000000000000, -0.000000000000000000, -1.000000000000000000 ) ) ;
#442 = ORIENTED_EDGE ( 'NONE', *, *, #207, .F. ) ;
#443 = CARTESIAN_POINT ( 'NONE',  ( -20.30000000000000426, 0.000000000000000000, 119.5000000000000000 ) ) ;
#444 = EDGE_CURVE ( 'NONE', #26, #18, #469, .T. ) ;
#445 = FACE_BOUND ( 'NONE', #1, .T. ) ;
#446 = EDGE_LOOP ( 'NONE', ( #108, #300, #187, #429 ) ) ;
#447 = CARTESIAN_POINT ( 'NONE',  ( 0.000000000000000000, 0.000000000000000000, 0.000000000000000000 ) ) ;
#448 = ORIENTED_EDGE ( 'NONE', *, *, #466, .T. ) ;
#449 = ADVANCED_FACE ( 'NONE', ( #421 ), #110, .T. ) ;
#450 = CARTESIAN_POINT ( 'NONE',  ( 0.000000000000000000, 0.000000000000000000, 119.5000000000000000 ) ) ;
#451 = VERTEX_POINT ( 'NONE', #74 ) ;
#452 = LINE ( 'NONE', #156, #259 ) ;
#453 = CARTESIAN_POINT ( 'NONE',  ( 0.000000000000000000, 0.000000000000000000, 129.5000000000000000 ) ) ;
#454 = ADVANCED_BREP_SHAPE_REPRESENTATION ( 'EDM Spool B-half', ( #253, #27 ), #7 ) ;
#455 = LOCAL_TIME ( 0, 56, 16.00000000000000000, #320 ) ;
#456 = DIRECTION ( 'NONE',  ( -0.000000000000000000, -0.000000000000000000, -1.000000000000000000 ) ) ;
#457 = ADVANCED_FACE ( 'NONE', ( #37 ), #71, .T. ) ;
#458 = APPLICATION_CONTEXT ( 'configuration controlled 3d designs of mechanical parts and assemblies' ) ;
#459 = PERSON_AND_ORGANIZATION_ROLE ( 'classification_officer' ) ;
#460 = EDGE_CURVE ( 'NONE', #409, #217, #452, .T. ) ;
#461 = DIRECTION ( 'NONE',  ( -0.000000000000000000, 0.000000000000000000, 1.000000000000000000 ) ) ;
#462 = DATE_AND_TIME ( #208, #76 ) ;
#463 = EDGE_LOOP ( 'NONE', ( #171, #167 ) ) ;
#464 = CC_DESIGN_APPROVAL ( #314, ( #268 ) ) ;
#465 = CIRCLE ( 'NONE', #38, 20.30000000000000426 ) ;
#466 = EDGE_CURVE ( 'NONE', #104, #29, #323, .T. ) ;
#467 = CALENDAR_DATE ( 2026, 28, 4 ) ;
#468 = CLOSED_SHELL ( 'NONE', ( #225, #457, #377, #440, #367, #238, #449, #149, #329, #54, #92, #118, #23, #61, #332 ) ) ;
#469 = CIRCLE ( 'NONE', #420, 60.00000000000000000 ) ;
#470 = VECTOR ( 'NONE', #257, 1000.000000000000000 ) ;
#471 = LINE ( 'NONE', #427, #351 ) ;
#472 = FACE_OUTER_BOUND ( 'NONE', #146, .T. ) ;
#473 = EDGE_LOOP ( 'NONE', ( #141, #109, #53, #32 ) ) ;
#474 = LOCAL_TIME ( 0, 56, 16.00000000000000000, #353 ) ;
#475 = DIRECTION ( 'NONE',  ( 0.000000000000000000, -0.000000000000000000, -1.000000000000000000 ) ) ;
#476 = AXIS2_PLACEMENT_3D ( 'NONE', #450, #344, #113 ) ;
#477 = LINE ( 'NONE', #374, #22 ) ;
#478 = AXIS2_PLACEMENT_3D ( 'NONE', #62, #479, #142 ) ;
#479 = DIRECTION ( 'NONE',  ( 0.000000000000000000, 0.000000000000000000, 1.000000000000000000 ) ) ;
#480 = EDGE_LOOP ( 'NONE', ( #59, #326, #380, #150 ) ) ;
#481 = DIRECTION ( 'NONE',  ( 1.000000000000000000, 0.000000000000000000, 0.000000000000000000 ) ) ;
#482 = LINE ( 'NONE', #443, #470 ) ;
#483 = DIRECTION ( 'NONE',  ( -1.000000000000000000, 0.000000000000000000, 0.000000000000000000 ) ) ;
#484 = ORIENTED_EDGE ( 'NONE', *, *, #260, .F. ) ;
#485 = ORIENTED_EDGE ( 'NONE', *, *, #416, .F. ) ;
#486 =( NAMED_UNIT ( * ) SI_UNIT ( $, .STERADIAN. ) SOLID_ANGLE_UNIT ( ) );
#487 = DIRECTION ( 'NONE',  ( 1.000000000000000000, 0.000000000000000000, 0.000000000000000000 ) ) ;
#488 = ORIENTED_EDGE ( 'NONE', *, *, #88, .F. ) ;
#489 = DIRECTION ( 'NONE',  ( 0.000000000000000000, 0.000000000000000000, 1.000000000000000000 ) ) ;
ENDSEC;
END-ISO-10303-21;
