ISO-10303-21;
HEADER;
FILE_DESCRIPTION (( 'STEP AP203' ),
    '1' );
FILE_NAME ('Nozzel 2.STEP',
    '2026-04-19T23:12:31',
    ( '' ),
    ( '' ),
    'SwSTEP 2.0',
    'SolidWorks 2024',
    '' );
FILE_SCHEMA (( 'CONFIG_CONTROL_DESIGN' ));
ENDSEC;

DATA;
#1 = EDGE_LOOP ( 'NONE', ( #562, #966, #63, #98, #714 ) ) ;
#2 = DIRECTION ( 'NONE',  ( 0.000000000000000000, 0.000000000000000000, 1.000000000000000000 ) ) ;
#3 = DIRECTION ( 'NONE',  ( 0.000000000000000000, 0.000000000000000000, 1.000000000000000000 ) ) ;
#4 = DIRECTION ( 'NONE',  ( -0.000000000000000000, 1.000000000000000000, -0.000000000000000000 ) ) ;
#5 = CARTESIAN_POINT ( 'NONE',  ( -6.379029002447190067, 12.12744979406977208, 12.75805800489436592 ) ) ;
#6 = VERTEX_POINT ( 'NONE', #1050 ) ;
#7 = FACE_BOUND ( 'NONE', #520, .T. ) ;
#8 = CARTESIAN_POINT ( 'NONE',  ( -2.220509347646099751, 9.330364972143668112, -2.719339665071573043E-16 ) ) ;
#9 = DIRECTION ( 'NONE',  ( 0.000000000000000000, 0.000000000000000000, 1.000000000000000000 ) ) ;
#10 = CARTESIAN_POINT ( 'NONE',  ( -3.412741165419603817, 15.06298722752012154, -1.931807716134418018E-15 ) ) ;
#11 = ORIENTED_EDGE ( 'NONE', *, *, #572, .F. ) ;
#12 = CYLINDRICAL_SURFACE ( 'NONE', #396, 0.4500000000000000111 ) ;
#13 = CARTESIAN_POINT ( 'NONE',  ( 1.774916445130776479E-15, 4.977342449006188829, -14.49329264867668243 ) ) ;
#14 = DIRECTION ( 'NONE',  ( 0.000000000000000000, 0.000000000000000000, 1.000000000000000000 ) ) ;
#15 = CIRCLE ( 'NONE', #109, 15.45000000000000107 ) ;
#16 = DIRECTION ( 'NONE',  ( -0.000000000000000000, 1.000000000000000000, -0.000000000000000000 ) ) ;
#17 = CIRCLE ( 'NONE', #246, 0.9000000000000002442 ) ;
#18 = VECTOR ( 'NONE', #841, 1000.000000000000000 ) ;
#19 = EDGE_LOOP ( 'NONE', ( #174, #682, #914, #890 ) ) ;
#20 = DIRECTION ( 'NONE',  ( 0.000000000000000000, 0.000000000000000000, 1.000000000000000000 ) ) ;
#21 = CARTESIAN_POINT ( 'NONE',  ( 0.000000000000000000, 1.206680611879042075, 0.000000000000000000 ) ) ;
#22 = CARTESIAN_POINT ( 'NONE',  ( 1.731736804807997760E-15, 3.407479743584886034, -13.78811560738050268 ) ) ;
#23 = ORIENTED_EDGE ( 'NONE', *, *, #871, .F. ) ;
#24 = DIRECTION ( 'NONE',  ( 0.000000000000000000, 0.000000000000000000, 1.000000000000000000 ) ) ;
#25 = DIRECTION ( 'NONE',  ( 0.000000000000000000, 0.000000000000000000, 1.000000000000000000 ) ) ;
#26 = CIRCLE ( 'NONE', #1194, 5.509999999999801723 ) ;
#27 = EDGE_CURVE ( 'NONE', #998, #686, #905, .T. ) ;
#28 = ORIENTED_EDGE ( 'NONE', *, *, #221, .T. ) ;
#29 = LINE ( 'NONE', #297, #827 ) ;
#30 = CARTESIAN_POINT ( 'NONE',  ( 0.000000000000000000, 8.430876594007727931, 2.329018689843614709 ) ) ;
#31 = CARTESIAN_POINT ( 'NONE',  ( 0.000000000000000000, 28.78036468957700222, 0.4500000000000000111 ) ) ;
#32 = EDGE_CURVE ( 'NONE', #934, #667, #381, .T. ) ;
#33 = EDGE_LOOP ( 'NONE', ( #428, #344, #1098, #1167, #1209 ) ) ;
#34 = EDGE_LOOP ( 'NONE', ( #952, #323, #586, #1121 ) ) ;
#35 = PRODUCT_DEFINITION_FORMATION_WITH_SPECIFIED_SOURCE ( 'ANY', '', #347, .NOT_KNOWN. ) ;
#36 = DIRECTION ( 'NONE',  ( 0.000000000000000000, 0.000000000000000000, 1.000000000000000000 ) ) ;
#37 = DIRECTION ( 'NONE',  ( -1.000000000000000000, 0.000000000000000000, 0.000000000000000000 ) ) ;
#38 = ORIENTED_EDGE ( 'NONE', *, *, #677, .T. ) ;
#39 = EDGE_CURVE ( 'NONE', #874, #501, #261, .T. ) ;
#40 = PERSON_AND_ORGANIZATION ( #292, #1164 ) ;
#41 = EDGE_CURVE ( 'NONE', #336, #856, #888, .T. ) ;
#42 = LINE ( 'NONE', #232, #650 ) ;
#43 = VERTEX_POINT ( 'NONE', #774 ) ;
#44 = CALENDAR_DATE ( 2026, 19, 4 ) ;
#45 = CARTESIAN_POINT ( 'NONE',  ( 1.517740617309832234E-15, 4.977342449006187053, -12.39329264867668279 ) ) ;
#46 = CARTESIAN_POINT ( 'NONE',  ( -1.154261749385731894, 13.79674958517674987, -1.396622297818374877E-16 ) ) ;
#47 = CIRCLE ( 'NONE', #210, 2.349999999999999645 ) ;
#48 = VERTEX_POINT ( 'NONE', #1145 ) ;
#49 = VECTOR ( 'NONE', #551, 1000.000000000000000 ) ;
#50 = AXIS2_PLACEMENT_3D ( 'NONE', #140, #591, #1070 ) ;
#51 = DATE_TIME_ROLE ( 'creation_date' ) ;
#52 = DIRECTION ( 'NONE',  ( -0.000000000000000000, 1.000000000000000000, -0.000000000000000000 ) ) ;
#53 = ORIENTED_EDGE ( 'NONE', *, *, #1159, .T. ) ;
#54 = TOROIDAL_SURFACE ( 'NONE', #1088, 13.39380257968220711, 0.5099999999999995648 ) ;
#55 = CALENDAR_DATE ( 2026, 19, 4 ) ;
#56 = CARTESIAN_POINT ( 'NONE',  ( 0.000000000000000000, 8.430876594007155944, 0.000000000000000000 ) ) ;
#57 = CARTESIAN_POINT ( 'NONE',  ( 3.412741165419603817, 15.06298722752012154, -6.825482330839206746 ) ) ;
#58 = DIRECTION ( 'NONE',  ( 0.000000000000000000, 0.000000000000000000, 1.000000000000000000 ) ) ;
#59 = ORIENTED_EDGE ( 'NONE', *, *, #745, .F. ) ;
#60 = CARTESIAN_POINT ( 'NONE',  ( 0.000000000000000000, 3.018967384149487287, 0.000000000000000000 ) ) ;
#61 = CARTESIAN_POINT ( 'NONE',  ( 0.000000000000000000, 28.78036468957700222, 0.000000000000000000 ) ) ;
#62 = EDGE_CURVE ( 'NONE', #965, #43, #1184, .T. ) ;
#63 = ORIENTED_EDGE ( 'NONE', *, *, #27, .T. ) ;
#64 = CC_DESIGN_APPROVAL ( #287, ( #35 ) ) ;
#65 = CC_DESIGN_PERSON_AND_ORGANIZATION_ASSIGNMENT ( #251, #694, ( #35 ) ) ;
#66 = CIRCLE ( 'NONE', #634, 5.509999999999801723 ) ;
#67 = ADVANCED_FACE ( 'NONE', ( #122 ), #1048, .F. ) ;
#68 = VECTOR ( 'NONE', #563, 1000.000000000000000 ) ;
#69 = DIRECTION ( 'NONE',  ( -0.000000000000000000, 1.000000000000000000, -0.000000000000000000 ) ) ;
#70 = LINE ( 'NONE', #627, #302 ) ;
#71 = CARTESIAN_POINT ( 'NONE',  ( 0.000000000000000000, 3.407479743584886034, 13.78811560738050268 ) ) ;
#72 = ORIENTED_EDGE ( 'NONE', *, *, #103, .T. ) ;
#73 = EDGE_CURVE ( 'NONE', #998, #775, #679, .T. ) ;
#74 = VERTEX_POINT ( 'NONE', #483 ) ;
#75 = DIRECTION ( 'NONE',  ( 0.000000000000000000, 0.000000000000000000, 1.000000000000000000 ) ) ;
#76 = LINE ( 'NONE', #264, #68 ) ;
#77 = EDGE_CURVE ( 'NONE', #803, #868, #305, .T. ) ;
#78 = CARTESIAN_POINT ( 'NONE',  ( 0.000000000000000000, 4.977342449006187053, 12.39329264867668279 ) ) ;
#79 = ORIENTED_EDGE ( 'NONE', *, *, #518, .F. ) ;
#80 = ADVANCED_FACE ( 'NONE', ( #972 ), #710, .F. ) ;
#81 = DIRECTION ( 'NONE',  ( -0.000000000000000000, 1.000000000000000000, 0.000000000000000000 ) ) ;
#82 = AXIS2_PLACEMENT_3D ( 'NONE', #931, #549, #939 ) ;
#83 = DIRECTION ( 'NONE',  ( -0.000000000000000000, 1.000000000000000000, -0.000000000000000000 ) ) ;
#84 = DIRECTION ( 'NONE',  ( -0.000000000000000000, 1.000000000000000000, -0.000000000000000000 ) ) ;
#85 = VERTEX_POINT ( 'NONE', #329 ) ;
#86 = CIRCLE ( 'NONE', #788, 15.45000000000000107 ) ;
#87 = CARTESIAN_POINT ( 'NONE',  ( -2.329018689843614265, 8.430876594007727931, -4.658037379687228530 ) ) ;
#88 = AXIS2_PLACEMENT_3D ( 'NONE', #727, #1192, #628 ) ;
#89 = FACE_OUTER_BOUND ( 'NONE', #193, .T. ) ;
#90 = EDGE_CURVE ( 'NONE', #869, #43, #521, .T. ) ;
#91 = CYLINDRICAL_SURFACE ( 'NONE', #1104, 0.9000000000000001332 ) ;
#92 = VERTEX_POINT ( 'NONE', #898 ) ;
#93 = ORIENTED_EDGE ( 'NONE', *, *, #32, .T. ) ;
#94 = DIRECTION ( 'NONE',  ( 0.000000000000000000, 0.000000000000000000, 1.000000000000000000 ) ) ;
#95 = CARTESIAN_POINT ( 'NONE',  ( -2.329018689843615597, 8.430876594007727931, 4.658037379687228530 ) ) ;
#96 = CARTESIAN_POINT ( 'NONE',  ( -4.196605338434304500, 10.96968766700448583, -8.393210676868608999 ) ) ;
#97 = CARTESIAN_POINT ( 'NONE',  ( 0.000000000000000000, 2.920876594007155269, 11.30702757129266800 ) ) ;
#98 = ORIENTED_EDGE ( 'NONE', *, *, #630, .F. ) ;
#99 = DIRECTION ( 'NONE',  ( 0.000000000000000000, 0.000000000000000000, 1.000000000000000000 ) ) ;
#100 = DIRECTION ( 'NONE',  ( 0.000000000000000000, 0.000000000000000000, 1.000000000000000000 ) ) ;
#101 = CARTESIAN_POINT ( 'NONE',  ( 0.000000000000000000, 4.977342449006188829, 0.000000000000000000 ) ) ;
#102 = CARTESIAN_POINT ( 'NONE',  ( 3.412741165419603817, 15.06298722752012154, 8.341864430153966538E-16 ) ) ;
#103 = EDGE_CURVE ( 'NONE', #412, #290, #161, .T. ) ;
#104 = AXIS2_PLACEMENT_3D ( 'NONE', #391, #482, #1150 ) ;
#105 = ORIENTED_EDGE ( 'NONE', *, *, #1036, .T. ) ;
#106 = ADVANCED_FACE ( 'NONE', ( #507, #513 ), #1078, .F. ) ;
#107 = CC_DESIGN_PERSON_AND_ORGANIZATION_ASSIGNMENT ( #115, #291, ( #895 ) ) ;
#108 = DIRECTION ( 'NONE',  ( -1.000000000000000000, 0.000000000000000000, 0.000000000000000000 ) ) ;
#109 = AXIS2_PLACEMENT_3D ( 'NONE', #139, #813, #1188 ) ;
#110 = DIRECTION ( 'NONE',  ( 1.000000000000000000, 0.000000000000000000, 1.224646799147353207E-16 ) ) ;
#111 = CONICAL_SURFACE ( 'NONE', #129, 13.78811560738050268, 0.8443712890484253997 ) ;
#112 = CARTESIAN_POINT ( 'NONE',  ( 1.102182119232618281E-16, 11.27787382859681031, -0.9000000000000003553 ) ) ;
#113 = EDGE_LOOP ( 'NONE', ( #154, #537, #639, #401 ) ) ;
#114 = DIRECTION ( 'NONE',  ( -0.000000000000000000, 1.000000000000000000, -0.000000000000000000 ) ) ;
#115 = PERSON_AND_ORGANIZATION ( #292, #1164 ) ;
#116 = CARTESIAN_POINT ( 'NONE',  ( 0.000000000000000000, 3.903053405511683227, 2.329018689843614709 ) ) ;
#117 = ORIENTED_EDGE ( 'NONE', *, *, #731, .T. ) ;
#118 = ORIENTED_EDGE ( 'NONE', *, *, #688, .F. ) ;
#119 = CARTESIAN_POINT ( 'NONE',  ( -2.509035231634928476, 10.99079439199511121, -3.072681965369653029E-16 ) ) ;
#120 = DIRECTION ( 'NONE',  ( 0.000000000000000000, 0.000000000000000000, 1.000000000000000000 ) ) ;
#121 = FACE_OUTER_BOUND ( 'NONE', #113, .T. ) ;
#122 = FACE_OUTER_BOUND ( 'NONE', #34, .T. ) ;
#123 = EDGE_LOOP ( 'NONE', ( #502, #158, #810, #985 ) ) ;
#124 = DIRECTION ( 'NONE',  ( -0.000000000000000000, 1.000000000000000000, -0.000000000000000000 ) ) ;
#125 = FACE_OUTER_BOUND ( 'NONE', #1037, .T. ) ;
#126 = ADVANCED_FACE ( 'NONE', ( #903 ), #426, .T. ) ;
#127 = CARTESIAN_POINT ( 'NONE',  ( -0.9000000000000002442, 11.27787382859681031, -5.326027894703673742E-16 ) ) ;
#128 = AXIS2_PLACEMENT_3D ( 'NONE', #887, #704, #901 ) ;
#129 = AXIS2_PLACEMENT_3D ( 'NONE', #893, #820, #58 ) ;
#130 = ORIENTED_EDGE ( 'NONE', *, *, #811, .T. ) ;
#131 = CC_DESIGN_APPROVAL ( #1099, ( #895 ) ) ;
#132 = CARTESIAN_POINT ( 'NONE',  ( 3.922502386136577091, 11.44184814882063073, 7.845004772273157734 ) ) ;
#133 = ADVANCED_BREP_SHAPE_REPRESENTATION ( 'Nozzel 2', ( #954, #638 ), #579 ) ;
#134 = FACE_OUTER_BOUND ( 'NONE', #699, .T. ) ;
#135 = DIRECTION ( 'NONE',  ( 0.000000000000000000, -1.000000000000000000, 0.000000000000000000 ) ) ;
#136 = AXIS2_PLACEMENT_3D ( 'NONE', #101, #917, #826 ) ;
#137 = DIRECTION ( 'NONE',  ( -0.000000000000000000, 1.000000000000000000, -0.000000000000000000 ) ) ;
#138 = ORIENTED_EDGE ( 'NONE', *, *, #300, .T. ) ;
#139 = CARTESIAN_POINT ( 'NONE',  ( 0.000000000000000000, 15.42332524233905389, 0.000000000000000000 ) ) ;
#140 = CARTESIAN_POINT ( 'NONE',  ( 0.000000000000000000, 2.920876594007155269, 0.000000000000000000 ) ) ;
#141 = ORIENTED_EDGE ( 'NONE', *, *, #90, .T. ) ;
#142 = CALENDAR_DATE ( 2026, 19, 4 ) ;
#143 = CARTESIAN_POINT ( 'NONE',  ( 0.000000000000000000, 3.407479743584886034, 13.78811560738050268 ) ) ;
#144 = CARTESIAN_POINT ( 'NONE',  ( -6.742013529821075934, 9.221561674157117139, 13.48402705964213588 ) ) ;
#145 = EDGE_CURVE ( 'NONE', #698, #856, #70, .T. ) ;
#146 = CARTESIAN_POINT ( 'NONE',  ( -0.9000000000000000222, 11.27787382859681031, -1.800000000000000488 ) ) ;
#147 = VECTOR ( 'NONE', #1055, 1000.000000000000000 ) ;
#148 = ORIENTED_EDGE ( 'NONE', *, *, #1094, .F. ) ;
#149 = AXIS2_PLACEMENT_3D ( 'NONE', #476, #124, #209 ) ;
#150 = AXIS2_PLACEMENT_3D ( 'NONE', #386, #689, #970 ) ;
#151 = ADVANCED_FACE ( 'NONE', ( #1074 ), #364, .F. ) ;
#152 = CARTESIAN_POINT ( 'NONE',  ( 0.000000000000000000, 10.96968766700448583, 0.000000000000000000 ) ) ;
#153 = DIRECTION ( 'NONE',  ( 0.000000000000000000, -1.000000000000000000, 0.000000000000000000 ) ) ;
#154 = ORIENTED_EDGE ( 'NONE', *, *, #293, .T. ) ;
#155 = PERSON_AND_ORGANIZATION_ROLE ( 'design_supplier' ) ;
#156 = FACE_OUTER_BOUND ( 'NONE', #33, .T. ) ;
#157 = CARTESIAN_POINT ( 'NONE',  ( 7.825729830623396666, 9.039992195038015765, -1.694065894508600486E-18 ) ) ;
#158 = ORIENTED_EDGE ( 'NONE', *, *, #27, .F. ) ;
#159 = EDGE_CURVE ( 'NONE', #43, #869, #983, .T. ) ;
#160 = CARTESIAN_POINT ( 'NONE',  ( 0.000000000000000000, 15.42332524233905389, 0.000000000000000000 ) ) ;
#161 = LINE ( 'NONE', #705, #802 ) ;
#162 = B_SPLINE_CURVE_WITH_KNOTS ( 'NONE', 3,
 ( #795, #880, #339, #500, #1182, #1165, #247, #1089 ),
 .UNSPECIFIED., .F., .F.,
 ( 4, 1, 1, 1, 1, 4 ),
 ( 0.000000000000000000, 0.4408705884492326033, 0.5777595125020710265, 0.7248515205603500711, 0.7833690336294087952, 1.000000000000000000 ),
 .UNSPECIFIED. ) ;
#163 = ADVANCED_FACE ( 'NONE', ( #924 ), #359, .T. ) ;
#164 = EDGE_LOOP ( 'NONE', ( #608, #1086, #821, #1080, #138 ) ) ;
#165 = TOROIDAL_SURFACE ( 'NONE', #128, 9.817375473372631944, 5.100000000000021849 ) ;
#166 = AXIS2_PLACEMENT_3D ( 'NONE', #1175, #332, #708 ) ;
#167 = AXIS2_PLACEMENT_3D ( 'NONE', #1117, #1013, #3 ) ;
#168 = PRODUCT_DEFINITION_SHAPE ( 'NONE', 'NONE',  #895 ) ;
#169 = CARTESIAN_POINT ( 'NONE',  ( 0.000000000000000000, 8.430876594007727931, 0.000000000000000000 ) ) ;
#170 = DIRECTION ( 'NONE',  ( -0.000000000000000000, 1.000000000000000000, -0.000000000000000000 ) ) ;
#171 = DIRECTION ( 'NONE',  ( 0.000000000000000000, -0.000000000000000000, -1.000000000000000000 ) ) ;
#172 = DIRECTION ( 'NONE',  ( 0.000000000000000000, -1.000000000000000000, 0.000000000000000000 ) ) ;
#173 = ORIENTED_EDGE ( 'NONE', *, *, #1138, .T. ) ;
#174 = ORIENTED_EDGE ( 'NONE', *, *, #935, .F. ) ;
#175 = CARTESIAN_POINT ( 'NONE',  ( -4.196605338434304500, 10.96968766700448583, -5.139359294998266560E-16 ) ) ;
#176 = LINE ( 'NONE', #825, #676 ) ;
#177 = DIRECTION ( 'NONE',  ( -1.000000000000000000, 0.000000000000000000, 0.000000000000000000 ) ) ;
#178 = DIRECTION ( 'NONE',  ( -0.000000000000000000, 1.000000000000000000, -0.000000000000000000 ) ) ;
#179 = ORIENTED_EDGE ( 'NONE', *, *, #267, .T. ) ;
#180 = AXIS2_PLACEMENT_3D ( 'NONE', #211, #110, #584 ) ;
#181 = ORIENTED_EDGE ( 'NONE', *, *, #62, .F. ) ;
#182 = DIRECTION ( 'NONE',  ( -0.000000000000000000, 1.000000000000000000, -0.000000000000000000 ) ) ;
#183 = DIRECTION ( 'NONE',  ( 0.000000000000000000, 0.000000000000000000, 1.000000000000000000 ) ) ;
#184 = LINE ( 'NONE', #542, #862 ) ;
#185 = CARTESIAN_POINT ( 'NONE',  ( 0.9000000000000002442, 11.27787382859681031, 2.187423579520150555E-16 ) ) ;
#186 = ORIENTED_EDGE ( 'NONE', *, *, #665, .F. ) ;
#187 = DIRECTION ( 'NONE',  ( -0.000000000000000000, 1.000000000000000000, -0.000000000000000000 ) ) ;
#188 = AXIS2_PLACEMENT_3D ( 'NONE', #1012, #936, #94 ) ;
#189 = DIRECTION ( 'NONE',  ( -0.000000000000000000, 1.000000000000000000, -0.000000000000000000 ) ) ;
#190 = CIRCLE ( 'NONE', #851, 2.329018689843614709 ) ;
#191 = CLOSED_SHELL ( 'NONE', ( #151, #1062, #340, #654, #605, #410, #766, #1189, #80, #574, #224, #1122, #444, #420, #308, #975, #163, #761, #757, #515, #1024, #854, #126, #617, #645, #456, #899, #1020, #322, #315, #67, #791, #971, #844, #492, #106, #527 ) ) ;
#192 = DIRECTION ( 'NONE',  ( 0.000000000000000000, 0.000000000000000000, -1.000000000000000000 ) ) ;
#193 = EDGE_LOOP ( 'NONE', ( #947, #179, #823, #38, #637 ) ) ;
#194 = FACE_OUTER_BOUND ( 'NONE', #673, .T. ) ;
#195 = CARTESIAN_POINT ( 'NONE',  ( -2.220509347646099307, 9.330364972143668112, -4.441018695292198615 ) ) ;
#196 = DESIGN_CONTEXT ( 'detailed design', #812, 'design' ) ;
#197 = DIRECTION ( 'NONE',  ( 0.000000000000000000, 0.000000000000000000, 1.000000000000000000 ) ) ;
#198 = EDGE_CURVE ( 'NONE', #686, #998, #750, .T. ) ;
#199 = CARTESIAN_POINT ( 'NONE',  ( 1.154261749385731450, 13.79674958517675343, 2.308523498771465565 ) ) ;
#200 = CC_DESIGN_DATE_AND_TIME_ASSIGNMENT ( #988, #976, ( #334 ) ) ;
#201 = EDGE_LOOP ( 'NONE', ( #1047, #384 ) ) ;
#202 = EDGE_CURVE ( 'NONE', #388, #868, #1014, .T. ) ;
#203 = DIRECTION ( 'NONE',  ( 0.000000000000000000, 0.000000000000000000, 1.000000000000000000 ) ) ;
#204 =( LENGTH_UNIT ( ) NAMED_UNIT ( * ) SI_UNIT ( .MILLI., .METRE. ) );
#205 = DIRECTION ( 'NONE',  ( -0.000000000000000000, 1.000000000000000000, -0.000000000000000000 ) ) ;
#206 = CARTESIAN_POINT ( 'NONE',  ( 7.825729830623396666, 9.039992195038017542, -1.694065894508600678E-18 ) ) ;
#207 = EDGE_LOOP ( 'NONE', ( #703, #11, #1151, #993 ) ) ;
#208 = LINE ( 'NONE', #576, #147 ) ;
#209 = DIRECTION ( 'NONE',  ( 0.000000000000000000, 0.000000000000000000, 1.000000000000000000 ) ) ;
#210 = AXIS2_PLACEMENT_3D ( 'NONE', #373, #915, #746 ) ;
#211 = CARTESIAN_POINT ( 'NONE',  ( 1.202281744949352532E-15, 8.020876594007440019, -9.817375473372631944 ) ) ;
#212 = AXIS2_PLACEMENT_3D ( 'NONE', #466, #189, #1095 ) ;
#213 = ORIENTED_EDGE ( 'NONE', *, *, #371, .T. ) ;
#214 = EDGE_LOOP ( 'NONE', ( #582, #1135, #894, #411 ) ) ;
#215 = CARTESIAN_POINT ( 'NONE',  ( 3.922502386136578867, 11.44184814882063073, 9.607359983660032568E-16 ) ) ;
#216 = CARTESIAN_POINT ( 'NONE',  ( -2.329018689843614709, 8.430876594007727931, -2.852225283671347574E-16 ) ) ;
#217 = DIRECTION ( 'NONE',  ( -0.000000000000000000, 1.000000000000000000, -0.000000000000000000 ) ) ;
#218 = CARTESIAN_POINT ( 'NONE',  ( 0.000000000000000000, 15.42332524233905389, 0.000000000000000000 ) ) ;
#219 = ORIENTED_EDGE ( 'NONE', *, *, #1205, .T. ) ;
#220 = PERSON_AND_ORGANIZATION_ROLE ( 'design_owner' ) ;
#221 = EDGE_CURVE ( 'NONE', #544, #350, #245, .T. ) ;
#222 = CARTESIAN_POINT ( 'NONE',  ( 0.000000000000000000, 28.78036468957700222, 0.000000000000000000 ) ) ;
#223 = ORIENTED_EDGE ( 'NONE', *, *, #198, .T. ) ;
#224 = ADVANCED_FACE ( 'NONE', ( #443 ), #278, .F. ) ;
#225 = EDGE_LOOP ( 'NONE', ( #141, #445 ) ) ;
#226 = CARTESIAN_POINT ( 'NONE',  ( -4.196605338434304500, 10.96968766700448583, -5.139359294998266560E-16 ) ) ;
#227 = DIRECTION ( 'NONE',  ( 1.224646799147352468E-16, 0.000000000000000000, -1.000000000000000000 ) ) ;
#228 = DIRECTION ( 'NONE',  ( -1.000000000000000000, 0.000000000000000000, 0.000000000000000000 ) ) ;
#229 = DIRECTION ( 'NONE',  ( -0.000000000000000000, 1.000000000000000000, -0.000000000000000000 ) ) ;
#230 = AXIS2_PLACEMENT_3D ( 'NONE', #277, #170, #533 ) ;
#231 = VERTEX_POINT ( 'NONE', #363 ) ;
#232 = CARTESIAN_POINT ( 'NONE',  ( 1.102182119232618034E-16, 28.78036468957700222, -0.9000000000000001332 ) ) ;
#233 = CARTESIAN_POINT ( 'NONE',  ( -6.776722253587649014, 10.54003085110704596, -3.837684286731241726E-15 ) ) ;
#234 = VERTEX_POINT ( 'NONE', #380 ) ;
#235 = VERTEX_POINT ( 'NONE', #1126 ) ;
#236 = DIRECTION ( 'NONE',  ( -0.000000000000000000, 1.000000000000000000, -0.000000000000000000 ) ) ;
#237 = CARTESIAN_POINT ( 'NONE',  ( 6.776722253587649014, 10.54003085110704596, 1.658124177418841841E-15 ) ) ;
#238 = CARTESIAN_POINT ( 'NONE',  ( -3.412741165419603817, 15.06298722752012154, -4.162461885604439772E-16 ) ) ;
#239 = VERTEX_POINT ( 'NONE', #288 ) ;
#240 = EDGE_CURVE ( 'NONE', #803, #239, #768, .T. ) ;
#241 = CARTESIAN_POINT ( 'NONE',  ( 0.000000000000000000, 10.96968766700448583, 0.000000000000000000 ) ) ;
#242 = DIRECTION ( 'NONE',  ( -0.000000000000000000, 1.000000000000000000, -0.000000000000000000 ) ) ;
#243 = CIRCLE ( 'NONE', #987, 2.099999999999996092 ) ;
#244 = ORIENTED_EDGE ( 'NONE', *, *, #587, .F. ) ;
#245 = CIRCLE ( 'NONE', #284, 0.4500000000000000111 ) ;
#246 = AXIS2_PLACEMENT_3D ( 'NONE', #383, #666, #1106 ) ;
#247 = CARTESIAN_POINT ( 'NONE',  ( 6.742013529821067941, 9.221561674157117139, -1.694065894508600678E-18 ) ) ;
#248 = CARTESIAN_POINT ( 'NONE',  ( 0.9000000000000002442, 11.27787382859681031, -1.694065894508600678E-18 ) ) ;
#249 = APPROVAL ( #522, 'UNSPECIFIED' ) ;
#250 = ORIENTED_EDGE ( 'NONE', *, *, #1173, .F. ) ;
#251 = PERSON_AND_ORGANIZATION ( #292, #1164 ) ;
#252 = DIRECTION ( 'NONE',  ( 0.000000000000000000, -1.000000000000000000, 0.000000000000000000 ) ) ;
#253 = CARTESIAN_POINT ( 'NONE',  ( -7.825729830623394001, 9.039992195038015765, -15.65145966124678800 ) ) ;
#254 = ORIENTED_EDGE ( 'NONE', *, *, #312, .T. ) ;
#255 = DIRECTION ( 'NONE',  ( -0.000000000000000000, 1.000000000000000000, -0.000000000000000000 ) ) ;
#256 = CARTESIAN_POINT ( 'NONE',  ( 2.329018689843614709, 8.430876594007726155, 0.000000000000000000 ) ) ;
#257 = CARTESIAN_POINT ( 'NONE',  ( 0.000000000000000000, 9.039992195038017542, 0.000000000000000000 ) ) ;
#258 = ORIENTED_EDGE ( 'NONE', *, *, #964, .F. ) ;
#259 = AXIS2_PLACEMENT_3D ( 'NONE', #169, #187, #75 ) ;
#260 = CIRCLE ( 'NONE', #230, 0.9000000000000000222 ) ;
#261 = CIRCLE ( 'NONE', #50, 11.30702757129266800 ) ;
#262 = AXIS2_PLACEMENT_3D ( 'NONE', #756, #390, #20 ) ;
#263 = DIRECTION ( 'NONE',  ( 0.000000000000000000, 0.000000000000000000, 1.000000000000000000 ) ) ;
#264 = CARTESIAN_POINT ( 'NONE',  ( 0.000000000000000000, 28.78036468957700222, 14.49329264867668243 ) ) ;
#265 = DIRECTION ( 'NONE',  ( 0.000000000000000000, 0.000000000000000000, 1.000000000000000000 ) ) ;
#266 = EDGE_LOOP ( 'NONE', ( #423, #331, #117, #1041 ) ) ;
#267 = EDGE_CURVE ( 'NONE', #698, #85, #184, .T. ) ;
#268 = EDGE_LOOP ( 'NONE', ( #614, #1186, #1017, #93 ) ) ;
#269 = CARTESIAN_POINT ( 'NONE',  ( 1.774916445130776479E-15, 9.039992195038017542, -14.49329264867668243 ) ) ;
#270 = EDGE_CURVE ( 'NONE', #350, #667, #758, .T. ) ;
#271 = CARTESIAN_POINT ( 'NONE',  ( -3.922502386136577535, 11.44184814882063073, -7.845004772273155069 ) ) ;
#272 = DIRECTION ( 'NONE',  ( -0.000000000000000000, 1.000000000000000000, -0.000000000000000000 ) ) ;
#273 = DIRECTION ( 'NONE',  ( 0.000000000000000000, -1.000000000000000000, 0.000000000000000000 ) ) ;
#274 = ORIENTED_EDGE ( 'NONE', *, *, #946, .T. ) ;
#275 = CARTESIAN_POINT ( 'NONE',  ( -2.509035231634928476, 10.99079439199511121, -3.072681965369653029E-16 ) ) ;
#276 = CARTESIAN_POINT ( 'NONE',  ( -2.329018689843614709, 8.430876594007726155, -2.852225283671345109E-16 ) ) ;
#277 = CARTESIAN_POINT ( 'NONE',  ( 0.000000000000000000, 0.4233252423390537755, 0.000000000000000000 ) ) ;
#278 = CYLINDRICAL_SURFACE ( 'NONE', #961, 0.4500000000000000111 ) ;
#279 = DIRECTION ( 'NONE',  ( 0.000000000000000000, 0.000000000000000000, 1.000000000000000000 ) ) ;
#280 = B_SPLINE_CURVE_WITH_KNOTS ( 'NONE', 3,
 ( #175, #447, #275, #1110, #651 ),
 .UNSPECIFIED., .F., .F.,
 ( 4, 1, 4 ),
 ( 0.000000000000000000, 0.2625640720065023914, 1.000000000000000000 ),
 .UNSPECIFIED. ) ;
#281 = ORIENTED_EDGE ( 'NONE', *, *, #198, .F. ) ;
#282 = LOCAL_TIME ( 16, 12, 30.00000000000000000, #950 ) ;
#283 = CARTESIAN_POINT ( 'NONE',  ( 2.852225283671345109E-16, 3.903053405511683227, -2.329018689843614709 ) ) ;
#284 = AXIS2_PLACEMENT_3D ( 'NONE', #557, #272, #9 ) ;
#285 = CARTESIAN_POINT ( 'NONE',  ( 2.329018689843615153, 8.430876594007727931, -4.658037379687228530 ) ) ;
#286 = AXIS2_PLACEMENT_3D ( 'NONE', #1185, #342, #1091 ) ;
#287 = APPROVAL ( #804, 'UNSPECIFIED' ) ;
#288 = CARTESIAN_POINT ( 'NONE',  ( 0.000000000000000000, 4.977342449006188829, 14.49329264867668243 ) ) ;
#289 = DIRECTION ( 'NONE',  ( 0.000000000000000000, 0.000000000000000000, 1.000000000000000000 ) ) ;
#290 = VERTEX_POINT ( 'NONE', #1133 ) ;
#291 = PERSON_AND_ORGANIZATION_ROLE ( 'creator' ) ;
#292 = PERSON ( 'UNSPECIFIED', 'UNSPECIFIED', 'UNSPECIFIED', ('UNSPECIFIED'), ('UNSPECIFIED'), ('UNSPECIFIED') ) ;
#293 = EDGE_CURVE ( 'NONE', #698, #314, #589, .T. ) ;
#294 = DIRECTION ( 'NONE',  ( 0.000000000000000000, 0.000000000000000000, 1.000000000000000000 ) ) ;
#295 = EDGE_CURVE ( 'NONE', #239, #1076, #953, .T. ) ;
#296 = EDGE_LOOP ( 'NONE', ( #1100, #780, #973, #878 ) ) ;
#297 = CARTESIAN_POINT ( 'NONE',  ( 5.851523450950779777E-16, 7.236007046749197258, 4.778131502915647033 ) ) ;
#298 = PERSON_AND_ORGANIZATION ( #292, #1164 ) ;
#299 = DIRECTION ( 'NONE',  ( 0.000000000000000000, 0.000000000000000000, 1.000000000000000000 ) ) ;
#300 = EDGE_CURVE ( 'NONE', #830, #928, #1087, .T. ) ;
#301 = DIRECTION ( 'NONE',  ( 0.000000000000000000, 0.000000000000000000, 1.000000000000000000 ) ) ;
#302 = VECTOR ( 'NONE', #911, 1000.000000000000114 ) ;
#303 = ORIENTED_EDGE ( 'NONE', *, *, #327, .F. ) ;
#304 = DIRECTION ( 'NONE',  ( 0.000000000000000000, 0.000000000000000000, 1.000000000000000000 ) ) ;
#305 = CIRCLE ( 'NONE', #547, 13.78811560738050268 ) ;
#306 = CARTESIAN_POINT ( 'NONE',  ( -6.379029002447182961, 12.12744979406977208, -7.795116790569989404E-16 ) ) ;
#307 = ORIENTED_EDGE ( 'NONE', *, *, #1109, .F. ) ;
#308 = ADVANCED_FACE ( 'NONE', ( #89 ), #1105, .F. ) ;
#309 = CARTESIAN_POINT ( 'NONE',  ( 0.000000000000000000, 3.018967384149487287, 0.000000000000000000 ) ) ;
#310 = CARTESIAN_POINT ( 'NONE',  ( 0.000000000000000000, 8.020876594007440019, 9.817375473372631944 ) ) ;
#311 = ORIENTED_EDGE ( 'NONE', *, *, #295, .F. ) ;
#312 = EDGE_CURVE ( 'NONE', #1053, #450, #951, .T. ) ;
#313 = APPROVAL_ROLE ( '' ) ;
#314 = VERTEX_POINT ( 'NONE', #116 ) ;
#315 = ADVANCED_FACE ( 'NONE', ( #1068 ), #942, .F. ) ;
#316 = COORDINATED_UNIVERSAL_TIME_OFFSET ( 8, 0, .BEHIND. ) ;
#317 = CARTESIAN_POINT ( 'NONE',  ( 5.510910596163088939E-17, 0.4233252423390537755, -0.4500000000000000111 ) ) ;
#318 = CIRCLE ( 'NONE', #1146, 12.34208249942611779 ) ;
#319 = ORIENTED_EDGE ( 'NONE', *, *, #73, .F. ) ;
#320 = CONICAL_SURFACE ( 'NONE', #286, 13.48960621186878939, 1.381823345138919912 ) ;
#321 = CIRCLE ( 'NONE', #752, 0.9000000000000002442 ) ;
#322 = ADVANCED_FACE ( 'NONE', ( #1043, #1049 ), #872, .F. ) ;
#323 = ORIENTED_EDGE ( 'NONE', *, *, #77, .F. ) ;
#324 = DIRECTION ( 'NONE',  ( 0.000000000000000000, 0.000000000000000000, 1.000000000000000000 ) ) ;
#325 = CARTESIAN_POINT ( 'NONE',  ( 6.379029002447182961, 12.12744979406977208, -1.694065894508600486E-18 ) ) ;
#326 = ORIENTED_EDGE ( 'NONE', *, *, #1097, .F. ) ;
#327 = EDGE_CURVE ( 'NONE', #85, #1131, #713, .T. ) ;
#328 = CARTESIAN_POINT ( 'NONE',  ( -4.196605338434304500, 10.96968766700448583, -5.139359294998266560E-16 ) ) ;
#329 = CARTESIAN_POINT ( 'NONE',  ( 2.852225283671345109E-16, 8.430876594007727931, -2.329018689843614709 ) ) ;
#330 = VECTOR ( 'NONE', #1033, 1000.000000000000000 ) ;
#331 = ORIENTED_EDGE ( 'NONE', *, *, #668, .T. ) ;
#332 = DIRECTION ( 'NONE',  ( -0.000000000000000000, 1.000000000000000000, -0.000000000000000000 ) ) ;
#333 = CARTESIAN_POINT ( 'NONE',  ( 6.742013529821067941, 9.221561674157117139, -1.694065894508600486E-18 ) ) ;
#334 = SECURITY_CLASSIFICATION ( '', '', #1168 ) ;
#335 = AXIS2_PLACEMENT_3D ( 'NONE', #454, #539, #99 ) ;
#336 = VERTEX_POINT ( 'NONE', #773 ) ;
#337 = AXIS2_PLACEMENT_3D ( 'NONE', #569, #857, #227 ) ;
#338 = APPROVAL_DATE_TIME ( #999, #287 ) ;
#339 = CARTESIAN_POINT ( 'NONE',  ( 3.412741165419603817, 15.06298722752012154, -1.694065894508600678E-18 ) ) ;
#340 = ADVANCED_FACE ( 'NONE', ( #125 ), #592, .F. ) ;
#341 = CARTESIAN_POINT ( 'NONE',  ( 6.776722253587648126, 10.54003085110704774, -13.55344450717529448 ) ) ;
#342 = DIRECTION ( 'NONE',  ( -0.000000000000000000, 1.000000000000000000, -0.000000000000000000 ) ) ;
#343 = ORIENTED_EDGE ( 'NONE', *, *, #626, .T. ) ;
#344 = ORIENTED_EDGE ( 'NONE', *, *, #355, .T. ) ;
#345 = FACE_OUTER_BOUND ( 'NONE', #296, .T. ) ;
#346 = CARTESIAN_POINT ( 'NONE',  ( 6.379029002447182961, 12.12744979406977208, -12.75805800489436059 ) ) ;
#347 = PRODUCT ( 'Nozzel 2', 'Nozzel 2', '', ( #962 ) ) ;
#348 = PLANE ( 'NONE',  #829 ) ;
#349 = EDGE_LOOP ( 'NONE', ( #148, #258 ) ) ;
#350 = VERTEX_POINT ( 'NONE', #317 ) ;
#351 = PLANE ( 'NONE',  #414 ) ;
#352 = DIRECTION ( 'NONE',  ( 0.000000000000000000, 0.000000000000000000, 1.000000000000000000 ) ) ;
#353 = DIRECTION ( 'NONE',  ( -0.000000000000000000, 1.000000000000000000, -0.000000000000000000 ) ) ;
#354 = DIRECTION ( 'NONE',  ( 0.000000000000000000, 0.000000000000000000, 1.000000000000000000 ) ) ;
#355 = EDGE_CURVE ( 'NONE', #48, #928, #42, .T. ) ;
#356 = EDGE_LOOP ( 'NONE', ( #403, #604, #463, #786, #1200 ) ) ;
#357 = EDGE_CURVE ( 'NONE', #686, #529, #822, .T. ) ;
#358 = AXIS2_PLACEMENT_3D ( 'NONE', #1134, #16, #375 ) ;
#359 = CONICAL_SURFACE ( 'NONE', #509, 4.778131502915647033, 0.1545100349476460910 ) ;
#360 = AXIS2_PLACEMENT_3D ( 'NONE', #882, #137, #478 ) ;
#361 = DIRECTION ( 'NONE',  ( 0.000000000000000000, 0.000000000000000000, 1.000000000000000000 ) ) ;
#362 = DIRECTION ( 'NONE',  ( 0.000000000000000000, 0.000000000000000000, 1.000000000000000000 ) ) ;
#363 = CARTESIAN_POINT ( 'NONE',  ( 0.000000000000000000, 3.238437081008106677, 13.48960621186878939 ) ) ;
#364 =( BOUNDED_SURFACE ( )  B_SPLINE_SURFACE ( 3, 3, ( 
 ( #248, #992, #146, #437 ),
 ( #797, #534, #892, #1007 ),
 ( #807, #57, #1170, #238 ),
 ( #633, #801, #1166, #1191 ),
 ( #325, #346, #1183, #702 ),
 ( #1177, #341, #718, #984 ),
 ( #333, #622, #1090, #997 ),
 ( #157, #1096, #253, #1000 ) ),
 .UNSPECIFIED., .F., .F., .F. ) 
 B_SPLINE_SURFACE_WITH_KNOTS ( ( 4, 1, 1, 1, 1, 4 ),
 ( 4, 4 ),
 ( 0.000000000000000000, 0.4408705884492326033, 0.5777595125020710265, 0.7248515205603500711, 0.7833690336294087952, 1.000000000000000000 ),
 ( 0.000000000000000000, 1.000000000000000000 ),
 .UNSPECIFIED. ) 
 GEOMETRIC_REPRESENTATION_ITEM ( )  RATIONAL_B_SPLINE_SURFACE ( (
 ( 1.000000000000000000, 0.3333333333333334259, 0.3333333333333334259, 1.000000000000000000),
 ( 1.000000000000000000, 0.3333333333333334259, 0.3333333333333334259, 1.000000000000000000),
 ( 1.000000000000000000, 0.3333333333333334259, 0.3333333333333334259, 1.000000000000000000),
 ( 1.000000000000000000, 0.3333333333333334259, 0.3333333333333334259, 1.000000000000000000),
 ( 1.000000000000000000, 0.3333333333333334259, 0.3333333333333334259, 1.000000000000000000),
 ( 1.000000000000000000, 0.3333333333333334259, 0.3333333333333334259, 1.000000000000000000),
 ( 1.000000000000000000, 0.3333333333333334259, 0.3333333333333334259, 1.000000000000000000),
 ( 1.000000000000000000, 0.3333333333333334259, 0.3333333333333334259, 1.000000000000000000) ) ) 
 REPRESENTATION_ITEM ( '' )  SURFACE ( )  );
#365 = DIRECTION ( 'NONE',  ( -0.000000000000000000, 1.000000000000000000, -0.000000000000000000 ) ) ;
#366 = ORIENTED_EDGE ( 'NONE', *, *, #601, .T. ) ;
#367 = DIRECTION ( 'NONE',  ( -0.000000000000000000, 1.000000000000000000, -0.000000000000000000 ) ) ;
#368 = CARTESIAN_POINT ( 'NONE',  ( -2.220509347646099751, 9.330364972143668112, -2.719339665071573043E-16 ) ) ;
#369 = CARTESIAN_POINT ( 'NONE',  ( -2.329018689843614709, 8.430876594007726155, -2.852225283671345109E-16 ) ) ;
#370 = CARTESIAN_POINT ( 'NONE',  ( -1.154261749385733449, 13.79674958517675343, 2.308523498771464233 ) ) ;
#371 = EDGE_CURVE ( 'NONE', #874, #629, #26, .T. ) ;
#372 = ORIENTED_EDGE ( 'NONE', *, *, #559, .F. ) ;
#373 = CARTESIAN_POINT ( 'NONE',  ( 0.000000000000000000, 0.4233252423390537755, 0.000000000000000000 ) ) ;
#374 = CARTESIAN_POINT ( 'NONE',  ( 7.825729830623392225, 9.039992195038013989, 15.65145966124680577 ) ) ;
#375 = DIRECTION ( 'NONE',  ( 0.000000000000000000, 0.000000000000000000, 1.000000000000000000 ) ) ;
#376 = ORIENTED_EDGE ( 'NONE', *, *, #434, .F. ) ;
#377 = CARTESIAN_POINT ( 'NONE',  ( 0.000000000000000000, 3.018967384149487287, 12.34208249942611779 ) ) ;
#378 = CARTESIAN_POINT ( 'NONE',  ( 0.000000000000000000, 3.739357897165568989, 13.39380257968220711 ) ) ;
#379 = CIRCLE ( 'NONE', #1029, 9.817375473372631944 ) ;
#380 = CARTESIAN_POINT ( 'NONE',  ( 1.666876035636997789E-15, 3.238437081008106677, -13.48960621186878939 ) ) ;
#381 = CIRCLE ( 'NONE', #1067, 0.4500000000000000111 ) ;
#382 = EDGE_CURVE ( 'NONE', #1076, #721, #1144, .T. ) ;
#383 = CARTESIAN_POINT ( 'NONE',  ( 0.000000000000000000, 11.27787382859681031, 0.000000000000000000 ) ) ;
#384 = ORIENTED_EDGE ( 'NONE', *, *, #814, .T. ) ;
#385 =( NAMED_UNIT ( * ) SI_UNIT ( $, .STERADIAN. ) SOLID_ANGLE_UNIT ( ) );
#386 = CARTESIAN_POINT ( 'NONE',  ( 0.000000000000000000, 9.039992195038015765, 0.000000000000000000 ) ) ;
#387 = CARTESIAN_POINT ( 'NONE',  ( 0.000000000000000000, 11.27787382859681031, 0.000000000000000000 ) ) ;
#388 = VERTEX_POINT ( 'NONE', #408 ) ;
#389 = ORIENTED_EDGE ( 'NONE', *, *, #974, .T. ) ;
#390 = DIRECTION ( 'NONE',  ( -0.000000000000000000, 1.000000000000000000, -0.000000000000000000 ) ) ;
#391 = CARTESIAN_POINT ( 'NONE',  ( 0.000000000000000000, 8.430876594007727931, 0.000000000000000000 ) ) ;
#392 = CARTESIAN_POINT ( 'NONE',  ( 0.000000000000000000, 7.236007046749197258, 0.000000000000000000 ) ) ;
#393 = ORIENTED_EDGE ( 'NONE', *, *, #881, .F. ) ;
#394 = CARTESIAN_POINT ( 'NONE',  ( 2.509035231634928476, 10.99079439199511121, 6.145363930739306058E-16 ) ) ;
#395 = DIRECTION ( 'NONE',  ( -0.000000000000000000, 1.000000000000000000, -0.000000000000000000 ) ) ;
#396 = AXIS2_PLACEMENT_3D ( 'NONE', #929, #255, #1195 ) ;
#397 = DIRECTION ( 'NONE',  ( 0.000000000000000000, 0.000000000000000000, -1.000000000000000000 ) ) ;
#398 = CIRCLE ( 'NONE', #149, 13.48960621186878939 ) ;
#399 = AXIS2_PLACEMENT_3D ( 'NONE', #671, #599, #963 ) ;
#400 = DIRECTION ( 'NONE',  ( -0.000000000000000000, 1.000000000000000000, -0.000000000000000000 ) ) ;
#401 = ORIENTED_EDGE ( 'NONE', *, *, #145, .F. ) ;
#402 = LINE ( 'NONE', #31, #717 ) ;
#403 = ORIENTED_EDGE ( 'NONE', *, *, #267, .F. ) ;
#404 = B_SPLINE_CURVE_WITH_KNOTS ( 'NONE', 3,
 ( #1009, #1171, #427, #1085, #706 ),
 .UNSPECIFIED., .F., .F.,
 ( 4, 1, 4 ),
 ( 0.000000000000000000, 0.2625640720065023914, 1.000000000000000000 ),
 .UNSPECIFIED. ) ;
#405 = EDGE_LOOP ( 'NONE', ( #1113, #376, #883, #955 ) ) ;
#406 = CARTESIAN_POINT ( 'NONE',  ( -4.196605338434305388, 10.96968766700448583, 8.393210676868608999 ) ) ;
#407 = CALENDAR_DATE ( 2026, 19, 4 ) ;
#408 = CARTESIAN_POINT ( 'NONE',  ( 1.685154464423439278E-15, 3.358105525848850803, -13.73254529822443537 ) ) ;
#409 = CC_DESIGN_PERSON_AND_ORGANIZATION_ASSIGNMENT ( #40, #896, ( #334 ) ) ;
#410 = ADVANCED_FACE ( 'NONE', ( #1158 ), #54, .F. ) ;
#411 = ORIENTED_EDGE ( 'NONE', *, *, #371, .F. ) ;
#412 = VERTEX_POINT ( 'NONE', #853 ) ;
#413 = CARTESIAN_POINT ( 'NONE',  ( 0.000000000000000000, 1.206680611879042075, 0.000000000000000000 ) ) ;
#414 = AXIS2_PLACEMENT_3D ( 'NONE', #641, #81, #555 ) ;
#415 = CARTESIAN_POINT ( 'NONE',  ( 0.000000000000000000, 9.039992195038017542, 0.000000000000000000 ) ) ;
#416 = AXIS2_PLACEMENT_3D ( 'NONE', #449, #1022, #926 ) ;
#417 = EDGE_CURVE ( 'NONE', #544, #934, #402, .T. ) ;
#418 = EDGE_LOOP ( 'NONE', ( #439, #838, #254, #1092, #307 ) ) ;
#419 = DIRECTION ( 'NONE',  ( 0.000000000000000000, 0.6642014089065934046, 0.7475536692482328549 ) ) ;
#420 = ADVANCED_FACE ( 'NONE', ( #121 ), #511, .F. ) ;
#421 = CARTESIAN_POINT ( 'NONE',  ( 6.742013529821067941, 9.221561674157117139, 1.649622991926195422E-15 ) ) ;
#422 = DIRECTION ( 'NONE',  ( -0.000000000000000000, 1.000000000000000000, -0.000000000000000000 ) ) ;
#423 = ORIENTED_EDGE ( 'NONE', *, *, #103, .F. ) ;
#424 = PERSON_AND_ORGANIZATION ( #292, #1164 ) ;
#425 = DIRECTION ( 'NONE',  ( 0.000000000000000000, 0.1878502591893956575, 0.9821976787401183184 ) ) ;
#426 = CYLINDRICAL_SURFACE ( 'NONE', #920, 15.45000000000000107 ) ;
#427 = CARTESIAN_POINT ( 'NONE',  ( 2.509035231634928476, 10.99079439199511121, 0.000000000000000000 ) ) ;
#428 = ORIENTED_EDGE ( 'NONE', *, *, #1094, .T. ) ;
#429 = DIRECTION ( 'NONE',  ( -0.000000000000000000, 1.000000000000000000, -0.000000000000000000 ) ) ;
#430 = DIRECTION ( 'NONE',  ( 0.000000000000000000, 0.000000000000000000, 1.000000000000000000 ) ) ;
#431 = CARTESIAN_POINT ( 'NONE',  ( 0.9000000000000002442, 11.27787382859681031, -1.694065894508600678E-18 ) ) ;
#432 = CONICAL_SURFACE ( 'NONE', #944, 13.48960621186878939, 1.381823345138919912 ) ;
#433 = ORIENTED_EDGE ( 'NONE', *, *, #881, .T. ) ;
#434 = EDGE_CURVE ( 'NONE', #629, #1054, #491, .T. ) ;
#435 = CONICAL_SURFACE ( 'NONE', #927, 4.778131502915647033, 0.1545100349476460910 ) ;
#436 = DIRECTION ( 'NONE',  ( 1.000000000000000000, 0.000000000000000000, 1.224646799147353207E-16 ) ) ;
#437 = CARTESIAN_POINT ( 'NONE',  ( -0.9000000000000002442, 11.27787382859681031, -1.085241460287532274E-16 ) ) ;
#438 = FACE_BOUND ( 'NONE', #859, .T. ) ;
#439 = ORIENTED_EDGE ( 'NONE', *, *, #355, .F. ) ;
#440 = ORIENTED_EDGE ( 'NONE', *, *, #753, .T. ) ;
#441 = FACE_OUTER_BOUND ( 'NONE', #526, .T. ) ;
#442 = CARTESIAN_POINT ( 'NONE',  ( 0.000000000000000000, 9.039992195038017542, 0.000000000000000000 ) ) ;
#443 = FACE_OUTER_BOUND ( 'NONE', #1016, .T. ) ;
#444 = ADVANCED_FACE ( 'NONE', ( #495 ), #1052, .F. ) ;
#445 = ORIENTED_EDGE ( 'NONE', *, *, #159, .T. ) ;
#446 = ORIENTED_EDGE ( 'NONE', *, *, #518, .T. ) ;
#447 = CARTESIAN_POINT ( 'NONE',  ( -3.922502386136578867, 11.44184814882063073, -4.803679991830016284E-16 ) ) ;
#448 = DIRECTION ( 'NONE',  ( 0.000000000000000000, 0.000000000000000000, -1.000000000000000000 ) ) ;
#449 = CARTESIAN_POINT ( 'NONE',  ( 0.000000000000000000, 3.358105525848850803, 0.000000000000000000 ) ) ;
#450 = VERTEX_POINT ( 'NONE', #590 ) ;
#451 = CARTESIAN_POINT ( 'NONE',  ( -6.379029002447182961, 12.12744979406977208, -3.612369628364401075E-15 ) ) ;
#452 = AXIS2_PLACEMENT_3D ( 'NONE', #723, #1077, #606 ) ;
#453 = ORIENTED_EDGE ( 'NONE', *, *, #640, .F. ) ;
#454 = CARTESIAN_POINT ( 'NONE',  ( 0.000000000000000000, 8.430876594007727931, 0.000000000000000000 ) ) ;
#455 = CARTESIAN_POINT ( 'NONE',  ( 2.220509347646099751, 9.330364972143668112, -4.441018695292198615 ) ) ;
#456 = ADVANCED_FACE ( 'NONE', ( #487, #781 ), #1154, .T. ) ;
#457 = DIRECTION ( 'NONE',  ( -0.000000000000000000, 1.000000000000000000, -0.000000000000000000 ) ) ;
#458 = DIRECTION ( 'NONE',  ( -0.000000000000000000, 1.000000000000000000, -0.000000000000000000 ) ) ;
#459 = EDGE_LOOP ( 'NONE', ( #767, #440, #1023, #393 ) ) ;
#460 = DIRECTION ( 'NONE',  ( 0.000000000000000000, -0.9880870530307814814, -0.1538959896584232712 ) ) ;
#461 = CARTESIAN_POINT ( 'NONE',  ( 0.000000000000000000, 28.78036468957700222, 0.000000000000000000 ) ) ;
#462 = FACE_OUTER_BOUND ( 'NONE', #207, .T. ) ;
#463 = ORIENTED_EDGE ( 'NONE', *, *, #1116, .T. ) ;
#464 = CARTESIAN_POINT ( 'NONE',  ( 0.000000000000000000, 15.42332524233905389, 0.000000000000000000 ) ) ;
#465 = CARTESIAN_POINT ( 'NONE',  ( 2.220509347646098419, 9.330364972143668112, 4.441018695292199503 ) ) ;
#466 = CARTESIAN_POINT ( 'NONE',  ( 0.000000000000000000, 3.358105525848850803, 0.000000000000000000 ) ) ;
#467 = CARTESIAN_POINT ( 'NONE',  ( 0.000000000000000000, 28.78036468957700222, 0.000000000000000000 ) ) ;
#468 = CARTESIAN_POINT ( 'NONE',  ( -6.394883752697391621, 13.66464955187664287, -3.621352198789907057E-15 ) ) ;
#469 = ORIENTED_EDGE ( 'NONE', *, *, #986, .F. ) ;
#470 = VECTOR ( 'NONE', #425, 1000.000000000000114 ) ;
#471 = TOROIDAL_SURFACE ( 'NONE', #808, 13.39380257968220711, 0.5099999999999995648 ) ;
#472 = LINE ( 'NONE', #1132, #1082 ) ;
#473 = TOROIDAL_SURFACE ( 'NONE', #262, 12.39329264867668279, 2.099999999999996536 ) ;
#474 = CARTESIAN_POINT ( 'NONE',  ( 0.000000000000000000, 3.739357897165568989, 0.000000000000000000 ) ) ;
#475 = EDGE_LOOP ( 'NONE', ( #1072, #72, #707, #783 ) ) ;
#476 = CARTESIAN_POINT ( 'NONE',  ( 0.000000000000000000, 3.238437081008106677, 0.000000000000000000 ) ) ;
#477 = CARTESIAN_POINT ( 'NONE',  ( 0.000000000000000000, 8.020876594007440019, 0.000000000000000000 ) ) ;
#478 = DIRECTION ( 'NONE',  ( 0.000000000000000000, 0.000000000000000000, 1.000000000000000000 ) ) ;
#479 = EDGE_CURVE ( 'NONE', #868, #1076, #243, .T. ) ;
#480 = ORIENTED_EDGE ( 'NONE', *, *, #159, .F. ) ;
#481 = CARTESIAN_POINT ( 'NONE',  ( -2.509035231634928920, 10.99079439199511121, 5.018070463269856063 ) ) ;
#482 = DIRECTION ( 'NONE',  ( -0.000000000000000000, 1.000000000000000000, -0.000000000000000000 ) ) ;
#483 = CARTESIAN_POINT ( 'NONE',  ( 4.196605338434304500, 10.96968766700448583, 0.000000000000000000 ) ) ;
#484 = ORIENTED_EDGE ( 'NONE', *, *, #986, .T. ) ;
#485 = APPROVAL_PERSON_ORGANIZATION ( #715, #249, #499 ) ;
#486 = AXIS2_PLACEMENT_3D ( 'NONE', #464, #1201, #361 ) ;
#487 = FACE_BOUND ( 'NONE', #619, .T. ) ;
#488 = AXIS2_PLACEMENT_3D ( 'NONE', #387, #748, #1120 ) ;
#489 = EDGE_CURVE ( 'NONE', #1108, #290, #15, .T. ) ;
#490 = ORIENTED_EDGE ( 'NONE', *, *, #240, .F. ) ;
#491 = CIRCLE ( 'NONE', #1071, 12.34208249942611779 ) ;
#492 = ADVANCED_FACE ( 'NONE', ( #891 ), #656, .F. ) ;
#493 = ORIENTED_EDGE ( 'NONE', *, *, #879, .F. ) ;
#494 = APPROVAL_DATE_TIME ( #1056, #1099 ) ;
#495 = FACE_OUTER_BOUND ( 'NONE', #459, .T. ) ;
#496 = DIRECTION ( 'NONE',  ( -0.000000000000000000, 1.000000000000000000, -0.000000000000000000 ) ) ;
#497 = ORIENTED_EDGE ( 'NONE', *, *, #719, .F. ) ;
#498 = EDGE_CURVE ( 'NONE', #830, #869, #162, .T. ) ;
#499 = APPROVAL_ROLE ( '' ) ;
#500 = CARTESIAN_POINT ( 'NONE',  ( 6.394883752697391621, 13.66464955187664287, -1.694065894508600678E-18 ) ) ;
#501 = VERTEX_POINT ( 'NONE', #621 ) ;
#502 = ORIENTED_EDGE ( 'NONE', *, *, #357, .F. ) ;
#503 = EDGE_CURVE ( 'NONE', #74, #92, #693, .T. ) ;
#504 = DIRECTION ( 'NONE',  ( 0.000000000000000000, 0.000000000000000000, 1.000000000000000000 ) ) ;
#505 = CARTESIAN_POINT ( 'NONE',  ( 6.742013529821064388, 9.221561674157117139, 13.48402705964214121 ) ) ;
#506 = VECTOR ( 'NONE', #909, 1000.000000000000114 ) ;
#507 = FACE_BOUND ( 'NONE', #685, .T. ) ;
#508 = CIRCLE ( 'NONE', #416, 13.73254529822443537 ) ;
#509 = AXIS2_PLACEMENT_3D ( 'NONE', #564, #1021, #448 ) ;
#510 = ORIENTED_EDGE ( 'NONE', *, *, #77, .T. ) ;
#511 = CONICAL_SURFACE ( 'NONE', #692, 2.349999999999999645, 0.007781152056247600708 ) ;
#512 = DIRECTION ( 'NONE',  ( 0.000000000000000000, 0.000000000000000000, 1.000000000000000000 ) ) ;
#513 = FACE_OUTER_BOUND ( 'NONE', #201, .T. ) ;
#514 = FACE_OUTER_BOUND ( 'NONE', #516, .T. ) ;
#515 = ADVANCED_FACE ( 'NONE', ( #345 ), #806, .F. ) ;
#516 = EDGE_LOOP ( 'NONE', ( #832, #493, #446, #510 ) ) ;
#517 = CYLINDRICAL_SURFACE ( 'NONE', #1127, 0.9000000000000001332 ) ;
#518 = EDGE_CURVE ( 'NONE', #6, #803, #625, .T. ) ;
#519 = CARTESIAN_POINT ( 'NONE',  ( 0.000000000000000000, 28.78036468957700222, 0.000000000000000000 ) ) ;
#520 = EDGE_LOOP ( 'NONE', ( #573, #497 ) ) ;
#521 = CIRCLE ( 'NONE', #865, 7.825729830623396666 ) ;
#522 = APPROVAL_STATUS ( 'not_yet_approved' ) ;
#523 = DIRECTION ( 'NONE',  ( -0.000000000000000000, 1.000000000000000000, -0.000000000000000000 ) ) ;
#524 = DIRECTION ( 'NONE',  ( -0.000000000000000000, 1.000000000000000000, -0.000000000000000000 ) ) ;
#525 = EDGE_CURVE ( 'NONE', #290, #1108, #86, .T. ) ;
#526 = EDGE_LOOP ( 'NONE', ( #560, #366, #173, #908 ) ) ;
#527 = ADVANCED_FACE ( 'NONE', ( #800 ), #165, .F. ) ;
#528 = AXIS2_PLACEMENT_3D ( 'NONE', #1079, #720, #623 ) ;
#529 = VERTEX_POINT ( 'NONE', #615 ) ;
#530 = CC_DESIGN_PERSON_AND_ORGANIZATION_ASSIGNMENT ( #424, #155, ( #35 ) ) ;
#531 = LINE ( 'NONE', #1101, #506 ) ;
#532 = EDGE_CURVE ( 'NONE', #1054, #629, #318, .T. ) ;
#533 = DIRECTION ( 'NONE',  ( 0.000000000000000000, 0.000000000000000000, 1.000000000000000000 ) ) ;
#534 = CARTESIAN_POINT ( 'NONE',  ( 1.154261749385731894, 13.79674958517674810, -2.308523498771463345 ) ) ;
#535 = DIRECTION ( 'NONE',  ( 0.000000000000000000, -0.000000000000000000, -1.000000000000000000 ) ) ;
#536 =( BOUNDED_SURFACE ( )  B_SPLINE_SURFACE ( 3, 3, ( 
 ( #1035, #558, #842, #185 ),
 ( #836, #370, #199, #932 ),
 ( #10, #566, #940, #102 ),
 ( #468, #610, #596, #994 ),
 ( #451, #5, #1190, #1069 ),
 ( #233, #607, #978, #237 ),
 ( #982, #144, #505, #421 ),
 ( #796, #1005, #374, #725 ) ),
 .UNSPECIFIED., .F., .F., .F. ) 
 B_SPLINE_SURFACE_WITH_KNOTS ( ( 4, 1, 1, 1, 1, 4 ),
 ( 4, 4 ),
 ( 0.000000000000000000, 0.4408705884492326033, 0.5777595125020710265, 0.7248515205603500711, 0.7833690336294087952, 1.000000000000000000 ),
 ( 0.000000000000000000, 1.000000000000000000 ),
 .UNSPECIFIED. ) 
 GEOMETRIC_REPRESENTATION_ITEM ( )  RATIONAL_B_SPLINE_SURFACE ( (
 ( 1.000000000000000000, 0.3333333333333332038, 0.3333333333333332038, 1.000000000000000000),
 ( 1.000000000000000000, 0.3333333333333332038, 0.3333333333333332038, 1.000000000000000000),
 ( 1.000000000000000000, 0.3333333333333332038, 0.3333333333333332038, 1.000000000000000000),
 ( 1.000000000000000000, 0.3333333333333332038, 0.3333333333333332038, 1.000000000000000000),
 ( 1.000000000000000000, 0.3333333333333332038, 0.3333333333333332038, 1.000000000000000000),
 ( 1.000000000000000000, 0.3333333333333332038, 0.3333333333333332038, 1.000000000000000000),
 ( 1.000000000000000000, 0.3333333333333332038, 0.3333333333333332038, 1.000000000000000000),
 ( 1.000000000000000000, 0.3333333333333332038, 0.3333333333333332038, 1.000000000000000000) ) ) 
 REPRESENTATION_ITEM ( '' )  SURFACE ( )  );
#537 = ORIENTED_EDGE ( 'NONE', *, *, #1141, .T. ) ;
#538 = VERTEX_POINT ( 'NONE', #328 ) ;
#539 = DIRECTION ( 'NONE',  ( -0.000000000000000000, 1.000000000000000000, -0.000000000000000000 ) ) ;
#540 = CARTESIAN_POINT ( 'NONE',  ( 4.196605338434304500, 10.96968766700448583, 0.000000000000000000 ) ) ;
#541 = EDGE_CURVE ( 'NONE', #787, #412, #884, .T. ) ;
#542 = CARTESIAN_POINT ( 'NONE',  ( 2.852225283671345109E-16, 28.78036468957700222, -2.329018689843614709 ) ) ;
#543 = CARTESIAN_POINT ( 'NONE',  ( 0.000000000000000000, 3.739357897165568989, 0.000000000000000000 ) ) ;
#544 = VERTEX_POINT ( 'NONE', #990 ) ;
#545 = ORIENTED_EDGE ( 'NONE', *, *, #270, .T. ) ;
#546 = DIRECTION ( 'NONE',  ( -0.000000000000000000, 1.000000000000000000, -0.000000000000000000 ) ) ;
#547 = AXIS2_PLACEMENT_3D ( 'NONE', #779, #229, #602 ) ;
#548 = CARTESIAN_POINT ( 'NONE',  ( 0.000000000000000000, 3.903053405511683227, 0.000000000000000000 ) ) ;
#549 = DIRECTION ( 'NONE',  ( -0.000000000000000000, 1.000000000000000000, -0.000000000000000000 ) ) ;
#550 = CC_DESIGN_DATE_AND_TIME_ASSIGNMENT ( #885, #51, ( #895 ) ) ;
#551 = DIRECTION ( 'NONE',  ( -0.000000000000000000, 1.000000000000000000, -0.000000000000000000 ) ) ;
#552 = ORIENTED_EDGE ( 'NONE', *, *, #382, .F. ) ;
#553 = CIRCLE ( 'NONE', #166, 13.48960621186878939 ) ;
#554 = CIRCLE ( 'NONE', #945, 0.5100000000000000089 ) ;
#555 = DIRECTION ( 'NONE',  ( 0.000000000000000000, 0.000000000000000000, 1.000000000000000000 ) ) ;
#556 = DIRECTION ( 'NONE',  ( 0.000000000000000000, 0.000000000000000000, 1.000000000000000000 ) ) ;
#557 = CARTESIAN_POINT ( 'NONE',  ( 0.000000000000000000, 0.4233252423390537755, 0.000000000000000000 ) ) ;
#558 = CARTESIAN_POINT ( 'NONE',  ( -0.9000000000000013545, 11.27787382859681209, 1.800000000000001377 ) ) ;
#559 = EDGE_CURVE ( 'NONE', #92, #538, #1081, .T. ) ;
#560 = ORIENTED_EDGE ( 'NONE', *, *, #532, .F. ) ;
#561 = DIRECTION ( 'NONE',  ( 1.224646799147352714E-16, 0.000000000000000000, -1.000000000000000000 ) ) ;
#562 = ORIENTED_EDGE ( 'NONE', *, *, #974, .F. ) ;
#563 = DIRECTION ( 'NONE',  ( -0.000000000000000000, 1.000000000000000000, -0.000000000000000000 ) ) ;
#564 = CARTESIAN_POINT ( 'NONE',  ( 0.000000000000000000, 7.236007046749197258, 0.000000000000000000 ) ) ;
#565 = EDGE_CURVE ( 'NONE', #629, #231, #996, .T. ) ;
#566 = CARTESIAN_POINT ( 'NONE',  ( -3.412741165419607370, 15.06298722752012154, 6.825482330839208522 ) ) ;
#567 = ORIENTED_EDGE ( 'NONE', *, *, #41, .T. ) ;
#568 = FACE_OUTER_BOUND ( 'NONE', #1157, .T. ) ;
#569 = CARTESIAN_POINT ( 'NONE',  ( 1.640267745761937614E-15, 3.739357897165568989, -13.39380257968220711 ) ) ;
#570 = DIRECTION ( 'NONE',  ( 0.000000000000000000, 0.000000000000000000, 1.000000000000000000 ) ) ;
#571 = CARTESIAN_POINT ( 'NONE',  ( -0.9000000000000002442, 11.27787382859681031, -5.326027894703673742E-16 ) ) ;
#572 = EDGE_CURVE ( 'NONE', #231, #234, #553, .T. ) ;
#573 = ORIENTED_EDGE ( 'NONE', *, *, #32, .F. ) ;
#574 = ADVANCED_FACE ( 'NONE', ( #156 ), #517, .T. ) ;
#575 = CIRCLE ( 'NONE', #776, 14.49329264867668243 ) ;
#576 = CARTESIAN_POINT ( 'NONE',  ( 2.877919977996279334E-16, 28.78036468957700222, -2.349999999999999645 ) ) ;
#577 = CIRCLE ( 'NONE', #488, 0.9000000000000002442 ) ;
#578 = CARTESIAN_POINT ( 'NONE',  ( 0.000000000000000000, 10.96968766700448583, 0.000000000000000000 ) ) ;
#579 =( GEOMETRIC_REPRESENTATION_CONTEXT ( 3 ) GLOBAL_UNCERTAINTY_ASSIGNED_CONTEXT ( ( #1163 ) ) GLOBAL_UNIT_ASSIGNED_CONTEXT ( ( #204, #597, #385 ) ) REPRESENTATION_CONTEXT ( 'NONE', 'WORKASPACE' ) );
#580 = DIRECTION ( 'NONE',  ( 0.000000000000000000, 0.000000000000000000, 1.000000000000000000 ) ) ;
#581 = ORIENTED_EDGE ( 'NONE', *, *, #503, .T. ) ;
#582 = ORIENTED_EDGE ( 'NONE', *, *, #814, .F. ) ;
#583 = DIRECTION ( 'NONE',  ( -0.000000000000000000, 1.000000000000000000, -0.000000000000000000 ) ) ;
#584 = DIRECTION ( 'NONE',  ( 1.224646799147353207E-16, 0.000000000000000000, -1.000000000000000000 ) ) ;
#585 = CARTESIAN_POINT ( 'NONE',  ( -6.742013529821067941, 9.221561674157117139, -8.239644630158433118E-16 ) ) ;
#586 = ORIENTED_EDGE ( 'NONE', *, *, #240, .T. ) ;
#587 = EDGE_CURVE ( 'NONE', #1161, #960, #616, .T. ) ;
#588 = CALENDAR_DATE ( 2026, 19, 4 ) ;
#589 = CIRCLE ( 'NONE', #82, 2.329018689843614709 ) ;
#590 = CARTESIAN_POINT ( 'NONE',  ( 0.000000000000000000, 11.27787382859681031, 0.9000000000000002442 ) ) ;
#591 = DIRECTION ( 'NONE',  ( -0.000000000000000000, 1.000000000000000000, -0.000000000000000000 ) ) ;
#592 = TOROIDAL_SURFACE ( 'NONE', #867, 9.817375473372631944, 5.100000000000021849 ) ;
#593 = ORIENTED_EDGE ( 'NONE', *, *, #753, .F. ) ;
#594 = CARTESIAN_POINT ( 'NONE',  ( 4.196605338434302723, 10.96968766700448583, 8.393210676868608999 ) ) ;
#595 = LOCAL_TIME ( 16, 12, 30.00000000000000000, #316 ) ;
#596 = CARTESIAN_POINT ( 'NONE',  ( 6.394883752697388068, 13.66464955187664287, 12.78976750539479212 ) ) ;
#597 =( NAMED_UNIT ( * ) PLANE_ANGLE_UNIT ( ) SI_UNIT ( $, .RADIAN. ) );
#598 = AXIS2_PLACEMENT_3D ( 'NONE', #839, #729, #263 ) ;
#599 = DIRECTION ( 'NONE',  ( -0.000000000000000000, 1.000000000000000000, -0.000000000000000000 ) ) ;
#600 = VECTOR ( 'NONE', #778, 1000.000000000000000 ) ;
#601 = EDGE_CURVE ( 'NONE', #1054, #234, #531, .T. ) ;
#602 = DIRECTION ( 'NONE',  ( 0.000000000000000000, 0.000000000000000000, 1.000000000000000000 ) ) ;
#603 = CC_DESIGN_APPROVAL ( #249, ( #334 ) ) ;
#604 = ORIENTED_EDGE ( 'NONE', *, *, #1034, .F. ) ;
#605 = ADVANCED_FACE ( 'NONE', ( #441 ), #432, .F. ) ;
#606 = DIRECTION ( 'NONE',  ( 0.000000000000000000, 0.000000000000000000, 1.000000000000000000 ) ) ;
#607 = CARTESIAN_POINT ( 'NONE',  ( -6.776722253587657008, 10.54003085110704596, 13.55344450717529803 ) ) ;
#608 = ORIENTED_EDGE ( 'NONE', *, *, #1109, .T. ) ;
#609 = ORIENTED_EDGE ( 'NONE', *, *, #1155, .F. ) ;
#610 = CARTESIAN_POINT ( 'NONE',  ( -6.394883752697397838, 13.66464955187664287, 12.78976750539478680 ) ) ;
#611 = COORDINATED_UNIVERSAL_TIME_OFFSET ( 8, 0, .BEHIND. ) ;
#612 = DIRECTION ( 'NONE',  ( 0.000000000000000000, 0.000000000000000000, -1.000000000000000000 ) ) ;
#613 = DIRECTION ( 'NONE',  ( -0.000000000000000000, 1.000000000000000000, -0.000000000000000000 ) ) ;
#614 = ORIENTED_EDGE ( 'NONE', *, *, #270, .F. ) ;
#615 = CARTESIAN_POINT ( 'NONE',  ( 1.202281744949352532E-15, 2.920876594007428828, -9.817375473372631944 ) ) ;
#616 = CIRCLE ( 'NONE', #259, 2.329018689843614709 ) ;
#617 = ADVANCED_FACE ( 'NONE', ( #194, #7 ), #351, .T. ) ;
#618 = AXIS2_PLACEMENT_3D ( 'NONE', #1143, #583, #1039 ) ;
#619 = EDGE_LOOP ( 'NONE', ( #28, #959 ) ) ;
#620 = APPROVAL_ROLE ( '' ) ;
#621 = CARTESIAN_POINT ( 'NONE',  ( 1.448090347539462141E-15, 2.920876594007155269, -11.30702757129266800 ) ) ;
#622 = CARTESIAN_POINT ( 'NONE',  ( 6.742013529821067941, 9.221561674157117139, -13.48402705964213233 ) ) ;
#623 = DIRECTION ( 'NONE',  ( 0.000000000000000000, 0.000000000000000000, 1.000000000000000000 ) ) ;
#624 = ORIENTED_EDGE ( 'NONE', *, *, #846, .T. ) ;
#625 = LINE ( 'NONE', #143, #1102 ) ;
#626 = EDGE_CURVE ( 'NONE', #538, #1131, #280, .T. ) ;
#627 = CARTESIAN_POINT ( 'NONE',  ( 0.000000000000000000, 1.206680611879042075, -2.349999999999999645 ) ) ;
#628 = DIRECTION ( 'NONE',  ( 0.000000000000000000, 0.000000000000000000, 1.000000000000000000 ) ) ;
#629 = VERTEX_POINT ( 'NONE', #377 ) ;
#630 = EDGE_CURVE ( 'NONE', #92, #686, #742, .T. ) ;
#631 = DIRECTION ( 'NONE',  ( 1.000000000000000000, 0.000000000000000000, 1.224646799147353207E-16 ) ) ;
#632 = CARTESIAN_POINT ( 'NONE',  ( -2.509035231634928031, 10.99079439199511121, -5.018070463269856063 ) ) ;
#633 = CARTESIAN_POINT ( 'NONE',  ( 6.394883752697391621, 13.66464955187664287, -1.694065894508600486E-18 ) ) ;
#634 = AXIS2_PLACEMENT_3D ( 'NONE', #1031, #631, #561 ) ;
#635 = CARTESIAN_POINT ( 'NONE',  ( 0.000000000000000000, 0.4233252423390537755, 0.000000000000000000 ) ) ;
#636 = CIRCLE ( 'NONE', #1162, 4.196605338434304500 ) ;
#637 = ORIENTED_EDGE ( 'NONE', *, *, #1116, .F. ) ;
#638 = AXIS2_PLACEMENT_3D ( 'NONE', #1136, #120, #664 ) ;
#639 = ORIENTED_EDGE ( 'NONE', *, *, #724, .F. ) ;
#640 = EDGE_CURVE ( 'NONE', #721, #850, #575, .T. ) ;
#641 = CARTESIAN_POINT ( 'NONE',  ( 0.000000000000000000, 15.42332524233905389, 0.000000000000000000 ) ) ;
#642 = CARTESIAN_POINT ( 'NONE',  ( -4.196605338434304500, 10.96968766700448583, -5.139359294998266560E-16 ) ) ;
#643 = DIRECTION ( 'NONE',  ( -0.000000000000000000, 1.000000000000000000, -0.000000000000000000 ) ) ;
#644 = EDGE_LOOP ( 'NONE', ( #552, #311, #1030, #765 ) ) ;
#645 = ADVANCED_FACE ( 'NONE', ( #646 ), #12, .F. ) ;
#646 = FACE_OUTER_BOUND ( 'NONE', #268, .T. ) ;
#647 = CARTESIAN_POINT ( 'NONE',  ( 3.922502386136578867, 11.44184814882063073, -7.845004772273155069 ) ) ;
#648 = CARTESIAN_POINT ( 'NONE',  ( 0.000000000000000000, 3.407479743584886034, 0.000000000000000000 ) ) ;
#649 = ORIENTED_EDGE ( 'NONE', *, *, #525, .T. ) ;
#650 = VECTOR ( 'NONE', #1058, 1000.000000000000000 ) ;
#651 = CARTESIAN_POINT ( 'NONE',  ( -2.329018689843614709, 8.430876594007727931, -2.852225283671347574E-16 ) ) ;
#652 = CARTESIAN_POINT ( 'NONE',  ( 4.196605338434304500, 10.96968766700448583, -8.393210676868608999 ) ) ;
#653 = CARTESIAN_POINT ( 'NONE',  ( 5.510910596163088939E-17, 28.78036468957700222, -0.4500000000000000111 ) ) ;
#654 = ADVANCED_FACE ( 'NONE', ( #824 ), #733, .F. ) ;
#655 = DIRECTION ( 'NONE',  ( -0.000000000000000000, 1.000000000000000000, -0.000000000000000000 ) ) ;
#656 = TOROIDAL_SURFACE ( 'NONE', #1004, 11.30702757129266800, 5.509999999999799947 ) ;
#657 = CIRCLE ( 'NONE', #849, 14.49329264867668243 ) ;
#658 = DIRECTION ( 'NONE',  ( 0.000000000000000000, 0.000000000000000000, 1.000000000000000000 ) ) ;
#659 = CARTESIAN_POINT ( 'NONE',  ( 2.220509347646099751, 9.330364972143668112, 0.000000000000000000 ) ) ;
#660 = DIRECTION ( 'NONE',  ( -0.000000000000000000, 1.000000000000000000, -0.000000000000000000 ) ) ;
#661 = FACE_OUTER_BOUND ( 'NONE', #794, .T. ) ;
#662 = ORIENTED_EDGE ( 'NONE', *, *, #719, .T. ) ;
#663 = CYLINDRICAL_SURFACE ( 'NONE', #967, 2.329018689843614709 ) ;
#664 = DIRECTION ( 'NONE',  ( 1.000000000000000000, 0.000000000000000000, 0.000000000000000000 ) ) ;
#665 = EDGE_CURVE ( 'NONE', #501, #1054, #66, .T. ) ;
#666 = DIRECTION ( 'NONE',  ( -0.000000000000000000, 1.000000000000000000, -0.000000000000000000 ) ) ;
#667 = VERTEX_POINT ( 'NONE', #1003 ) ;
#668 = EDGE_CURVE ( 'NONE', #412, #787, #902, .T. ) ;
#669 = DIRECTION ( 'NONE',  ( 1.884682311368022446E-17, -0.9880870530307814814, 0.1538959896584232712 ) ) ;
#670 = APPROVAL_STATUS ( 'not_yet_approved' ) ;
#671 = CARTESIAN_POINT ( 'NONE',  ( 0.000000000000000000, 28.78036468957700222, 0.000000000000000000 ) ) ;
#672 = CARTESIAN_POINT ( 'NONE',  ( -6.394883752697391621, 13.66464955187664287, -7.814533259715189857E-16 ) ) ;
#673 = EDGE_LOOP ( 'NONE', ( #913, #649 ) ) ;
#674 = VECTOR ( 'NONE', #367, 1000.000000000000000 ) ;
#675 = CARTESIAN_POINT ( 'NONE',  ( -3.922502386136579755, 11.44184814882063073, 7.845004772273155069 ) ) ;
#676 = VECTOR ( 'NONE', #739, 1000.000000000000000 ) ;
#677 = EDGE_CURVE ( 'NONE', #1131, #1161, #870, .T. ) ;
#678 = CARTESIAN_POINT ( 'NONE',  ( 0.000000000000000000, 2.920876594007439930, 0.000000000000000000 ) ) ;
#679 = CIRCLE ( 'NONE', #831, 5.100000000000020961 ) ;
#680 = LOCAL_TIME ( 16, 12, 30.00000000000000000, #611 ) ;
#681 = CARTESIAN_POINT ( 'NONE',  ( 1.774916445130776479E-15, 28.78036468957700222, -14.49329264867668243 ) ) ;
#682 = ORIENTED_EDGE ( 'NONE', *, *, #382, .T. ) ;
#683 = APPLICATION_PROTOCOL_DEFINITION ( 'international standard', 'config_control_design', 1994, #921 ) ;
#684 = DIRECTION ( 'NONE',  ( -0.000000000000000000, 1.000000000000000000, -0.000000000000000000 ) ) ;
#685 = EDGE_LOOP ( 'NONE', ( #23, #250 ) ) ;
#686 = VERTEX_POINT ( 'NONE', #738 ) ;
#687 = FACE_OUTER_BOUND ( 'NONE', #816, .T. ) ;
#688 = EDGE_CURVE ( 'NONE', #1199, #235, #47, .T. ) ;
#689 = DIRECTION ( 'NONE',  ( -0.000000000000000000, 1.000000000000000000, 0.000000000000000000 ) ) ;
#690 = CARTESIAN_POINT ( 'NONE',  ( 0.000000000000000000, 4.977342449006187053, 0.000000000000000000 ) ) ;
#691 = ORIENTED_EDGE ( 'NONE', *, *, #417, .F. ) ;
#692 = AXIS2_PLACEMENT_3D ( 'NONE', #21, #135, #397 ) ;
#693 = CIRCLE ( 'NONE', #695, 4.196605338434304500 ) ;
#694 = PERSON_AND_ORGANIZATION_ROLE ( 'creator' ) ;
#695 = AXIS2_PLACEMENT_3D ( 'NONE', #241, #236, #981 ) ;
#696 = DIRECTION ( 'NONE',  ( -0.000000000000000000, 1.000000000000000000, -0.000000000000000000 ) ) ;
#697 = CIRCLE ( 'NONE', #212, 13.73254529822443537 ) ;
#698 = VERTEX_POINT ( 'NONE', #283 ) ;
#699 = EDGE_LOOP ( 'NONE', ( #469, #728, #741, #490 ) ) ;
#700 = PERSON_AND_ORGANIZATION ( #292, #1164 ) ;
#701 = DIRECTION ( 'NONE',  ( 1.224646799147353454E-16, 0.000000000000000000, -1.000000000000000000 ) ) ;
#702 = CARTESIAN_POINT ( 'NONE',  ( -6.379029002447182961, 12.12744979406977208, -7.795116790569989404E-16 ) ) ;
#703 = ORIENTED_EDGE ( 'NONE', *, *, #1159, .F. ) ;
#704 = DIRECTION ( 'NONE',  ( -0.000000000000000000, 1.000000000000000000, -0.000000000000000000 ) ) ;
#705 = CARTESIAN_POINT ( 'NONE',  ( 1.892079304682660879E-15, 28.78036468957700222, -15.45000000000000107 ) ) ;
#706 = CARTESIAN_POINT ( 'NONE',  ( 2.329018689843614709, 8.430876594007727931, 0.000000000000000000 ) ) ;
#707 = ORIENTED_EDGE ( 'NONE', *, *, #489, .F. ) ;
#708 = DIRECTION ( 'NONE',  ( 0.000000000000000000, 0.000000000000000000, 1.000000000000000000 ) ) ;
#709 = AXIS2_PLACEMENT_3D ( 'NONE', #716, #1083, #977 ) ;
#710 = CYLINDRICAL_SURFACE ( 'NONE', #1057, 14.49329264867668243 ) ;
#711 = AXIS2_PLACEMENT_3D ( 'NONE', #648, #655, #918 ) ;
#712 = AXIS2_PLACEMENT_3D ( 'NONE', #392, #496, #301 ) ;
#713 = CIRCLE ( 'NONE', #104, 2.329018689843614709 ) ;
#714 = ORIENTED_EDGE ( 'NONE', *, *, #503, .F. ) ;
#715 = PERSON_AND_ORGANIZATION ( #292, #1164 ) ;
#716 = CARTESIAN_POINT ( 'NONE',  ( 0.000000000000000000, 0.4233252423390537755, 0.000000000000000000 ) ) ;
#717 = VECTOR ( 'NONE', #957, 1000.000000000000000 ) ;
#718 = CARTESIAN_POINT ( 'NONE',  ( -6.776722253587647238, 10.54003085110704774, -13.55344450717529448 ) ) ;
#719 = EDGE_CURVE ( 'NONE', #667, #934, #1027, .T. ) ;
#720 = DIRECTION ( 'NONE',  ( -0.000000000000000000, 1.000000000000000000, -0.000000000000000000 ) ) ;
#721 = VERTEX_POINT ( 'NONE', #269 ) ;
#722 = ORIENTED_EDGE ( 'NONE', *, *, #668, .F. ) ;
#723 = CARTESIAN_POINT ( 'NONE',  ( 0.000000000000000000, 0.4233252423390537755, 0.000000000000000000 ) ) ;
#724 = EDGE_CURVE ( 'NONE', #856, #336, #1180, .T. ) ;
#725 = CARTESIAN_POINT ( 'NONE',  ( 7.825729830623396666, 9.039992195038015765, 1.915056931718471717E-15 ) ) ;
#726 = DIRECTION ( 'NONE',  ( 0.000000000000000000, 0.000000000000000000, 1.000000000000000000 ) ) ;
#727 = CARTESIAN_POINT ( 'NONE',  ( 0.000000000000000000, 0.4233252423390537755, 0.000000000000000000 ) ) ;
#728 = ORIENTED_EDGE ( 'NONE', *, *, #479, .T. ) ;
#729 = DIRECTION ( 'NONE',  ( -0.000000000000000000, 1.000000000000000000, -0.000000000000000000 ) ) ;
#730 = DIRECTION ( 'NONE',  ( -0.000000000000000000, 1.000000000000000000, -0.000000000000000000 ) ) ;
#731 = EDGE_CURVE ( 'NONE', #787, #1108, #922, .T. ) ;
#732 = CARTESIAN_POINT ( 'NONE',  ( 0.000000000000000000, 11.27787382859681031, 0.000000000000000000 ) ) ;
#733 = TOROIDAL_SURFACE ( 'NONE', #598, 11.30702757129266800, 5.509999999999799947 ) ;
#734 = CIRCLE ( 'NONE', #1006, 0.9000000000000000222 ) ;
#735 = ORIENTED_EDGE ( 'NONE', *, *, #498, .T. ) ;
#736 = AXIS2_PLACEMENT_3D ( 'NONE', #1206, #835, #866 ) ;
#737 = VERTEX_POINT ( 'NONE', #1114 ) ;
#738 = CARTESIAN_POINT ( 'NONE',  ( 0.000000000000000000, 7.236007046749197258, -4.778131502915647033 ) ) ;
#739 = DIRECTION ( 'NONE',  ( -0.000000000000000000, 1.000000000000000000, -0.000000000000000000 ) ) ;
#740 = CARTESIAN_POINT ( 'NONE',  ( 0.000000000000000000, 15.42332524233905389, 0.4500000000000000111 ) ) ;
#741 = ORIENTED_EDGE ( 'NONE', *, *, #935, .T. ) ;
#742 = LINE ( 'NONE', #845, #1160 ) ;
#743 = DIRECTION ( 'NONE',  ( -0.000000000000000000, 1.000000000000000000, -0.000000000000000000 ) ) ;
#744 = CARTESIAN_POINT ( 'NONE',  ( 0.000000000000000000, 7.236007046749197258, 0.000000000000000000 ) ) ;
#745 = EDGE_CURVE ( 'NONE', #737, #998, #29, .T. ) ;
#746 = DIRECTION ( 'NONE',  ( 0.000000000000000000, 0.000000000000000000, 1.000000000000000000 ) ) ;
#747 = FACE_OUTER_BOUND ( 'NONE', #980, .T. ) ;
#748 = DIRECTION ( 'NONE',  ( -0.000000000000000000, 1.000000000000000000, -0.000000000000000000 ) ) ;
#749 = AXIS2_PLACEMENT_3D ( 'NONE', #222, #1137, #580 ) ;
#750 = CIRCLE ( 'NONE', #991, 4.778131502915647033 ) ;
#751 = ORIENTED_EDGE ( 'NONE', *, *, #630, .T. ) ;
#752 = AXIS2_PLACEMENT_3D ( 'NONE', #818, #1196, #352 ) ;
#753 = EDGE_CURVE ( 'NONE', #235, #856, #208, .T. ) ;
#754 = DIRECTION ( 'NONE',  ( 0.000000000000000000, 0.000000000000000000, 1.000000000000000000 ) ) ;
#755 = CARTESIAN_POINT ( 'NONE',  ( 2.329018689843613821, 8.430876594007727931, 4.658037379687230306 ) ) ;
#756 = CARTESIAN_POINT ( 'NONE',  ( 0.000000000000000000, 4.977342449006187053, 0.000000000000000000 ) ) ;
#757 = ADVANCED_FACE ( 'NONE', ( #949 ), #663, .F. ) ;
#758 = LINE ( 'NONE', #653, #330 ) ;
#759 = PRODUCT_RELATED_PRODUCT_CATEGORY ( 'detail', '', ( #347 ) ) ;
#760 = CARTESIAN_POINT ( 'NONE',  ( 0.000000000000000000, 4.977342449006188829, 0.000000000000000000 ) ) ;
#761 = ADVANCED_FACE ( 'NONE', ( #687 ), #793, .F. ) ;
#762 = ORIENTED_EDGE ( 'NONE', *, *, #559, .T. ) ;
#763 = PERSON_AND_ORGANIZATION ( #292, #1164 ) ;
#764 = DIRECTION ( 'NONE',  ( 0.000000000000000000, 0.000000000000000000, 1.000000000000000000 ) ) ;
#765 = ORIENTED_EDGE ( 'NONE', *, *, #1097, .T. ) ;
#766 = ADVANCED_FACE ( 'NONE', ( #568 ), #1065, .F. ) ;
#767 = ORIENTED_EDGE ( 'NONE', *, *, #846, .F. ) ;
#768 = CIRCLE ( 'NONE', #1119, 2.099999999999996092 ) ;
#769 = CARTESIAN_POINT ( 'NONE',  ( 0.000000000000000000, 2.920876594007428828, 9.817375473372631944 ) ) ;
#770 = CARTESIAN_POINT ( 'NONE',  ( 0.000000000000000000, 28.78036468957700222, 0.000000000000000000 ) ) ;
#771 = DIRECTION ( 'NONE',  ( 0.000000000000000000, 0.000000000000000000, 1.000000000000000000 ) ) ;
#772 = AXIS2_PLACEMENT_3D ( 'NONE', #257, #457, #197 ) ;
#773 = CARTESIAN_POINT ( 'NONE',  ( 2.877919977996279334E-16, 1.206680611879042075, 2.349999999999999645 ) ) ;
#774 = CARTESIAN_POINT ( 'NONE',  ( -7.825729830623396666, 9.039992195038017542, -9.566814329119817552E-16 ) ) ;
#775 = VERTEX_POINT ( 'NONE', #769 ) ;
#776 = AXIS2_PLACEMENT_3D ( 'NONE', #1123, #1025, #754 ) ;
#777 = CIRCLE ( 'NONE', #528, 11.30702757129266800 ) ;
#778 = DIRECTION ( 'NONE',  ( -0.000000000000000000, 1.000000000000000000, -0.000000000000000000 ) ) ;
#779 = CARTESIAN_POINT ( 'NONE',  ( 0.000000000000000000, 3.407479743584886034, 0.000000000000000000 ) ) ;
#780 = ORIENTED_EDGE ( 'NONE', *, *, #1034, .T. ) ;
#781 = FACE_OUTER_BOUND ( 'NONE', #349, .T. ) ;
#782 = DIRECTION ( 'NONE',  ( -0.000000000000000000, 1.000000000000000000, -0.000000000000000000 ) ) ;
#783 = ORIENTED_EDGE ( 'NONE', *, *, #731, .F. ) ;
#784 = COORDINATED_UNIVERSAL_TIME_OFFSET ( 8, 0, .BEHIND. ) ;
#785 = CARTESIAN_POINT ( 'NONE',  ( 0.000000000000000000, 28.78036468957700222, 0.9000000000000001332 ) ) ;
#786 = ORIENTED_EDGE ( 'NONE', *, *, #587, .T. ) ;
#787 = VERTEX_POINT ( 'NONE', #1142 ) ;
#788 = AXIS2_PLACEMENT_3D ( 'NONE', #160, #790, #504 ) ;
#789 = AXIS2_PLACEMENT_3D ( 'NONE', #461, #730, #362 ) ;
#790 = DIRECTION ( 'NONE',  ( -0.000000000000000000, 1.000000000000000000, -0.000000000000000000 ) ) ;
#791 = ADVANCED_FACE ( 'NONE', ( #514 ), #111, .F. ) ;
#792 = APPROVAL_PERSON_ORGANIZATION ( #298, #1099, #313 ) ;
#793 =( BOUNDED_SURFACE ( )  B_SPLINE_SURFACE ( 3, 3, ( 
 ( #226, #406, #594, #1149 ),
 ( #968, #675, #132, #215 ),
 ( #119, #481, #863, #394 ),
 ( #368, #1115, #465, #937 ),
 ( #276, #95, #755, #1038 ) ),
 .UNSPECIFIED., .F., .F., .F. ) 
 B_SPLINE_SURFACE_WITH_KNOTS ( ( 4, 1, 4 ),
 ( 4, 4 ),
 ( 0.000000000000000000, 0.2625640720065023914, 1.000000000000000000 ),
 ( 0.000000000000000000, 1.000000000000000000 ),
 .UNSPECIFIED. ) 
 GEOMETRIC_REPRESENTATION_ITEM ( )  RATIONAL_B_SPLINE_SURFACE ( (
 ( 1.000000000000000000, 0.3333333333333334259, 0.3333333333333334259, 1.000000000000000000),
 ( 1.000000000000000000, 0.3333333333333334259, 0.3333333333333334259, 1.000000000000000000),
 ( 1.000000000000000000, 0.3333333333333334259, 0.3333333333333334259, 1.000000000000000000),
 ( 1.000000000000000000, 0.3333333333333334259, 0.3333333333333334259, 1.000000000000000000),
 ( 1.000000000000000000, 0.3333333333333334259, 0.3333333333333334259, 1.000000000000000000) ) ) 
 REPRESENTATION_ITEM ( '' )  SURFACE ( )  );
#794 = EDGE_LOOP ( 'NONE', ( #181, #1044, #274, #735, #480 ) ) ;
#795 = CARTESIAN_POINT ( 'NONE',  ( 0.9000000000000002442, 11.27787382859681031, -1.694065894508600678E-18 ) ) ;
#796 = CARTESIAN_POINT ( 'NONE',  ( -7.825729830623396666, 9.039992195038015765, -4.432003609893590133E-15 ) ) ;
#797 = CARTESIAN_POINT ( 'NONE',  ( 1.154261749385731894, 13.79674958517674987, -1.694065894508600678E-18 ) ) ;
#798 = ORIENTED_EDGE ( 'NONE', *, *, #1138, .F. ) ;
#799 = SHAPE_DEFINITION_REPRESENTATION ( #168, #133 ) ;
#800 = FACE_OUTER_BOUND ( 'NONE', #123, .T. ) ;
#801 = CARTESIAN_POINT ( 'NONE',  ( 6.394883752697392509, 13.66464955187664287, -12.78976750539478147 ) ) ;
#802 = VECTOR ( 'NONE', #524, 1000.000000000000000 ) ;
#803 = VERTEX_POINT ( 'NONE', #71 ) ;
#804 = APPROVAL_STATUS ( 'not_yet_approved' ) ;
#805 = DIRECTION ( 'NONE',  ( 0.000000000000000000, 0.000000000000000000, 1.000000000000000000 ) ) ;
#806 = CONICAL_SURFACE ( 'NONE', #1045, 2.349999999999999645, 0.007781152056247600708 ) ;
#807 = CARTESIAN_POINT ( 'NONE',  ( 3.412741165419603817, 15.06298722752012154, -1.694065894508600678E-18 ) ) ;
#808 = AXIS2_PLACEMENT_3D ( 'NONE', #543, #4, #265 ) ;
#809 = FACE_OUTER_BOUND ( 'NONE', #405, .T. ) ;
#810 = ORIENTED_EDGE ( 'NONE', *, *, #73, .T. ) ;
#811 = EDGE_CURVE ( 'NONE', #74, #960, #404, .T. ) ;
#812 = APPLICATION_CONTEXT ( 'configuration controlled 3d designs of mechanical parts and assemblies' ) ;
#813 = DIRECTION ( 'NONE',  ( -0.000000000000000000, 1.000000000000000000, -0.000000000000000000 ) ) ;
#814 = EDGE_CURVE ( 'NONE', #501, #874, #777, .T. ) ;
#815 = FACE_OUTER_BOUND ( 'NONE', #843, .T. ) ;
#816 = EDGE_LOOP ( 'NONE', ( #1107, #219, #389, #130, #244, #1140 ) ) ;
#817 = CARTESIAN_POINT ( 'NONE',  ( 0.000000000000000000, 3.238437081008106677, 0.000000000000000000 ) ) ;
#818 = CARTESIAN_POINT ( 'NONE',  ( 0.000000000000000000, 11.27787382859681031, 0.000000000000000000 ) ) ;
#819 = DIRECTION ( 'NONE',  ( 0.000000000000000000, 0.000000000000000000, 1.000000000000000000 ) ) ;
#820 = DIRECTION ( 'NONE',  ( -0.000000000000000000, 1.000000000000000000, -0.000000000000000000 ) ) ;
#821 = ORIENTED_EDGE ( 'NONE', *, *, #90, .F. ) ;
#822 = CIRCLE ( 'NONE', #180, 5.100000000000020961 ) ;
#823 = ORIENTED_EDGE ( 'NONE', *, *, #327, .T. ) ;
#824 = FACE_OUTER_BOUND ( 'NONE', #214, .T. ) ;
#825 = CARTESIAN_POINT ( 'NONE',  ( 0.000000000000000000, 28.78036468957700222, 2.329018689843614709 ) ) ;
#826 = DIRECTION ( 'NONE',  ( 0.000000000000000000, 0.000000000000000000, 1.000000000000000000 ) ) ;
#827 = VECTOR ( 'NONE', #669, 1000.000000000000227 ) ;
#828 = CARTESIAN_POINT ( 'NONE',  ( 0.000000000000000000, 28.78036468957700222, 0.000000000000000000 ) ) ;
#829 = AXIS2_PLACEMENT_3D ( 'NONE', #635, #172, #535 ) ;
#830 = VERTEX_POINT ( 'NONE', #431 ) ;
#831 = AXIS2_PLACEMENT_3D ( 'NONE', #310, #37, #1061 ) ;
#832 = ORIENTED_EDGE ( 'NONE', *, *, #202, .F. ) ;
#833 = CARTESIAN_POINT ( 'NONE',  ( 0.000000000000000000, 28.78036468957700222, 15.45000000000000107 ) ) ;
#834 = CARTESIAN_POINT ( 'NONE',  ( -3.922502386136578867, 11.44184814882063073, -4.803679991830016284E-16 ) ) ;
#835 = DIRECTION ( 'NONE',  ( -0.000000000000000000, 1.000000000000000000, -0.000000000000000000 ) ) ;
#836 = CARTESIAN_POINT ( 'NONE',  ( -1.154261749385731894, 13.79674958517674987, -6.522574180266981137E-16 ) ) ;
#837 = ORIENTED_EDGE ( 'NONE', *, *, #688, .T. ) ;
#838 = ORIENTED_EDGE ( 'NONE', *, *, #964, .T. ) ;
#839 = CARTESIAN_POINT ( 'NONE',  ( 0.000000000000000000, 8.430876594007155944, 0.000000000000000000 ) ) ;
#840 = CARTESIAN_POINT ( 'NONE',  ( 2.509035231634928476, 10.99079439199511121, 0.000000000000000000 ) ) ;
#841 = DIRECTION ( 'NONE',  ( 9.154892082357074889E-17, 0.6642014089065934046, -0.7475536692482328549 ) ) ;
#842 = CARTESIAN_POINT ( 'NONE',  ( 0.9000000000000000222, 11.27787382859681209, 1.800000000000002043 ) ) ;
#843 = EDGE_LOOP ( 'NONE', ( #979, #722 ) ) ;
#844 = ADVANCED_FACE ( 'NONE', ( #809 ), #320, .F. ) ;
#845 = CARTESIAN_POINT ( 'NONE',  ( 0.000000000000000000, 7.236007046749197258, -4.778131502915647033 ) ) ;
#846 = EDGE_CURVE ( 'NONE', #235, #1199, #1066, .T. ) ;
#847 = CARTESIAN_POINT ( 'NONE',  ( 0.000000000000000000, 7.236007046749197258, 0.000000000000000000 ) ) ;
#848 = LINE ( 'NONE', #1208, #49 ) ;
#849 = AXIS2_PLACEMENT_3D ( 'NONE', #760, #458, #294 ) ;
#850 = VERTEX_POINT ( 'NONE', #1001 ) ;
#851 = AXIS2_PLACEMENT_3D ( 'NONE', #910, #1032, #100 ) ;
#852 = DIRECTION ( 'NONE',  ( 0.000000000000000000, 0.000000000000000000, 1.000000000000000000 ) ) ;
#853 = CARTESIAN_POINT ( 'NONE',  ( 1.892079304682660879E-15, 0.4233252423390537755, -15.45000000000000107 ) ) ;
#854 = ADVANCED_FACE ( 'NONE', ( #438, #815 ), #348, .T. ) ;
#855 = FACE_OUTER_BOUND ( 'NONE', #1, .T. ) ;
#856 = VERTEX_POINT ( 'NONE', #912 ) ;
#857 = DIRECTION ( 'NONE',  ( 1.000000000000000000, 0.000000000000000000, 1.224646799147353207E-16 ) ) ;
#858 = CARTESIAN_POINT ( 'NONE',  ( 0.000000000000000000, 8.430876594007155944, 11.30702757129266800 ) ) ;
#859 = EDGE_LOOP ( 'NONE', ( #837, #624 ) ) ;
#860 = VECTOR ( 'NONE', #875, 1000.000000000000000 ) ;
#861 = ORIENTED_EDGE ( 'NONE', *, *, #357, .T. ) ;
#862 = VECTOR ( 'NONE', #660, 1000.000000000000000 ) ;
#863 = CARTESIAN_POINT ( 'NONE',  ( 2.509035231634927143, 10.99079439199511121, 5.018070463269856951 ) ) ;
#864 = DIRECTION ( 'NONE',  ( 9.529066800350297267E-19, -0.9999697269890824858, 0.007781073536455414275 ) ) ;
#865 = AXIS2_PLACEMENT_3D ( 'NONE', #415, #422, #1084 ) ;
#866 = DIRECTION ( 'NONE',  ( 0.000000000000000000, 0.000000000000000000, 1.000000000000000000 ) ) ;
#867 = AXIS2_PLACEMENT_3D ( 'NONE', #477, #696, #304 ) ;
#868 = VERTEX_POINT ( 'NONE', #22 ) ;
#869 = VERTEX_POINT ( 'NONE', #206 ) ;
#870 = CIRCLE ( 'NONE', #335, 2.329018689843614709 ) ;
#871 = EDGE_CURVE ( 'NONE', #775, #529, #969, .T. ) ;
#872 = PLANE ( 'NONE',  #150 ) ;
#873 = DIRECTION ( 'NONE',  ( 0.000000000000000000, 0.000000000000000000, 1.000000000000000000 ) ) ;
#874 = VERTEX_POINT ( 'NONE', #97 ) ;
#875 = DIRECTION ( 'NONE',  ( -0.000000000000000000, 1.000000000000000000, -0.000000000000000000 ) ) ;
#876 = CARTESIAN_POINT ( 'NONE',  ( -6.776722253587649014, 10.54003085110704596, -8.282150557621666203E-16 ) ) ;
#877 = EDGE_CURVE ( 'NONE', #965, #450, #577, .T. ) ;
#878 = ORIENTED_EDGE ( 'NONE', *, *, #41, .F. ) ;
#879 = EDGE_CURVE ( 'NONE', #6, #388, #508, .T. ) ;
#880 = CARTESIAN_POINT ( 'NONE',  ( 1.154261749385731894, 13.79674958517674987, -1.694065894508600678E-18 ) ) ;
#881 = EDGE_CURVE ( 'NONE', #1199, #336, #848, .T. ) ;
#882 = CARTESIAN_POINT ( 'NONE',  ( 0.000000000000000000, 1.206680611879042075, 0.000000000000000000 ) ) ;
#883 = ORIENTED_EDGE ( 'NONE', *, *, #565, .T. ) ;
#884 = CIRCLE ( 'NONE', #452, 15.45000000000000107 ) ;
#885 = DATE_AND_TIME ( #44, #906 ) ;
#886 = CIRCLE ( 'NONE', #1147, 14.49329264867668243 ) ;
#887 = CARTESIAN_POINT ( 'NONE',  ( 0.000000000000000000, 8.020876594007440019, 0.000000000000000000 ) ) ;
#888 = CIRCLE ( 'NONE', #360, 2.349999999999999645 ) ;
#889 = CARTESIAN_POINT ( 'NONE',  ( 5.544293546371187962E-13, 2.920876594007297378, 0.000000000000000000 ) ) ;
#890 = ORIENTED_EDGE ( 'NONE', *, *, #1060, .F. ) ;
#891 = FACE_OUTER_BOUND ( 'NONE', #919, .T. ) ;
#892 = CARTESIAN_POINT ( 'NONE',  ( -1.154261749385731672, 13.79674958517674810, -2.308523498771463345 ) ) ;
#893 = CARTESIAN_POINT ( 'NONE',  ( 0.000000000000000000, 3.407479743584886034, 0.000000000000000000 ) ) ;
#894 = ORIENTED_EDGE ( 'NONE', *, *, #532, .T. ) ;
#895 = PRODUCT_DEFINITION ( 'UNKNOWN', '', #35, #196 ) ;
#896 = PERSON_AND_ORGANIZATION_ROLE ( 'classification_officer' ) ;
#897 = CARTESIAN_POINT ( 'NONE',  ( 0.000000000000000000, 28.78036468957700222, 0.000000000000000000 ) ) ;
#898 = CARTESIAN_POINT ( 'NONE',  ( 0.000000000000000000, 10.96968766700448583, -4.196605338434304500 ) ) ;
#899 = ADVANCED_FACE ( 'NONE', ( #1128 ), #91, .T. ) ;
#900 = ORIENTED_EDGE ( 'NONE', *, *, #1173, .T. ) ;
#901 = DIRECTION ( 'NONE',  ( 0.000000000000000000, 0.000000000000000000, 1.000000000000000000 ) ) ;
#902 = CIRCLE ( 'NONE', #188, 15.45000000000000107 ) ;
#903 = FACE_OUTER_BOUND ( 'NONE', #266, .T. ) ;
#904 = CIRCLE ( 'NONE', #337, 0.5100000000000000089 ) ;
#905 = CIRCLE ( 'NONE', #712, 4.778131502915647033 ) ;
#906 = LOCAL_TIME ( 16, 12, 30.00000000000000000, #995 ) ;
#907 = ORIENTED_EDGE ( 'NONE', *, *, #811, .F. ) ;
#908 = ORIENTED_EDGE ( 'NONE', *, *, #565, .F. ) ;
#909 = DIRECTION ( 'NONE',  ( 1.202845243399046413E-16, 0.1878502591893956575, -0.9821976787401183184 ) ) ;
#910 = CARTESIAN_POINT ( 'NONE',  ( 0.000000000000000000, 8.430876594007727931, 0.000000000000000000 ) ) ;
#911 = DIRECTION ( 'NONE',  ( 0.000000000000000000, -0.9999697269890824858, -0.007781073536455414275 ) ) ;
#912 = CARTESIAN_POINT ( 'NONE',  ( 0.000000000000000000, 1.206680611879042075, -2.349999999999999645 ) ) ;
#913 = ORIENTED_EDGE ( 'NONE', *, *, #489, .T. ) ;
#914 = ORIENTED_EDGE ( 'NONE', *, *, #640, .T. ) ;
#915 = DIRECTION ( 'NONE',  ( -0.000000000000000000, 1.000000000000000000, -0.000000000000000000 ) ) ;
#916 = CARTESIAN_POINT ( 'NONE',  ( 3.922502386136578867, 11.44184814882063073, 0.000000000000000000 ) ) ;
#917 = DIRECTION ( 'NONE',  ( -0.000000000000000000, 1.000000000000000000, -0.000000000000000000 ) ) ;
#918 = DIRECTION ( 'NONE',  ( 0.000000000000000000, 0.000000000000000000, 1.000000000000000000 ) ) ;
#919 = EDGE_LOOP ( 'NONE', ( #186, #1002, #213, #1148 ) ) ;
#920 = AXIS2_PLACEMENT_3D ( 'NONE', #61, #613, #726 ) ;
#921 = APPLICATION_CONTEXT ( 'configuration controlled 3d designs of mechanical parts and assemblies' ) ;
#922 = LINE ( 'NONE', #833, #674 ) ;
#923 = CARTESIAN_POINT ( 'NONE',  ( 2.509035231634928476, 10.99079439199511121, -5.018070463269856063 ) ) ;
#924 = FACE_OUTER_BOUND ( 'NONE', #1193, .T. ) ;
#925 = AXIS2_PLACEMENT_3D ( 'NONE', #152, #69, #512 ) ;
#926 = DIRECTION ( 'NONE',  ( 0.000000000000000000, 0.000000000000000000, 1.000000000000000000 ) ) ;
#927 = AXIS2_PLACEMENT_3D ( 'NONE', #744, #273, #192 ) ;
#928 = VERTEX_POINT ( 'NONE', #112 ) ;
#929 = CARTESIAN_POINT ( 'NONE',  ( 0.000000000000000000, 28.78036468957700222, 0.000000000000000000 ) ) ;
#930 = CARTESIAN_POINT ( 'NONE',  ( 0.000000000000000000, 15.42332524233905389, 15.45000000000000107 ) ) ;
#931 = CARTESIAN_POINT ( 'NONE',  ( 0.000000000000000000, 3.903053405511683227, 0.000000000000000000 ) ) ;
#932 = CARTESIAN_POINT ( 'NONE',  ( 1.154261749385731894, 13.79674958517674987, 2.810185254581835268E-16 ) ) ;
#933 = CC_DESIGN_PERSON_AND_ORGANIZATION_ASSIGNMENT ( #763, #220, ( #347 ) ) ;
#934 = VERTEX_POINT ( 'NONE', #740 ) ;
#935 = EDGE_CURVE ( 'NONE', #1076, #239, #657, .T. ) ;
#936 = DIRECTION ( 'NONE',  ( -0.000000000000000000, 1.000000000000000000, -0.000000000000000000 ) ) ;
#937 = CARTESIAN_POINT ( 'NONE',  ( 2.220509347646099751, 9.330364972143668112, 5.438679330143146086E-16 ) ) ;
#938 = CYLINDRICAL_SURFACE ( 'NONE', #789, 2.349999999999999645 ) ;
#939 = DIRECTION ( 'NONE',  ( 0.000000000000000000, 0.000000000000000000, 1.000000000000000000 ) ) ;
#940 = CARTESIAN_POINT ( 'NONE',  ( 3.412741165419602041, 15.06298722752012154, 6.825482330839211187 ) ) ;
#941 = ORIENTED_EDGE ( 'NONE', *, *, #1205, .F. ) ;
#942 = CYLINDRICAL_SURFACE ( 'NONE', #399, 14.49329264867668243 ) ;
#943 = CARTESIAN_POINT ( 'NONE',  ( 2.329018689843614709, 8.430876594007727931, 0.000000000000000000 ) ) ;
#944 = AXIS2_PLACEMENT_3D ( 'NONE', #817, #546, #658 ) ;
#945 = AXIS2_PLACEMENT_3D ( 'NONE', #378, #108, #36 ) ;
#946 = EDGE_CURVE ( 'NONE', #450, #830, #17, .T. ) ;
#947 = ORIENTED_EDGE ( 'NONE', *, *, #293, .F. ) ;
#948 = CIRCLE ( 'NONE', #1008, 4.196605338434304500 ) ;
#949 = FACE_OUTER_BOUND ( 'NONE', #356, .T. ) ;
#950 = COORDINATED_UNIVERSAL_TIME_OFFSET ( 8, 0, .BEHIND. ) ;
#951 = LINE ( 'NONE', #785, #600 ) ;
#952 = ORIENTED_EDGE ( 'NONE', *, *, #479, .F. ) ;
#953 = CIRCLE ( 'NONE', #136, 14.49329264867668243 ) ;
#954 = MANIFOLD_SOLID_BREP ( 'Revolve1', #191 ) ;
#955 = ORIENTED_EDGE ( 'NONE', *, *, #572, .T. ) ;
#956 = CARTESIAN_POINT ( 'NONE',  ( 0.000000000000000000, 0.4233252423390537755, 2.349999999999999645 ) ) ;
#957 = DIRECTION ( 'NONE',  ( -0.000000000000000000, 1.000000000000000000, -0.000000000000000000 ) ) ;
#958 = CARTESIAN_POINT ( 'NONE',  ( -7.825729830623396666, 9.039992195038017542, -9.566814329119817552E-16 ) ) ;
#959 = ORIENTED_EDGE ( 'NONE', *, *, #1063, .T. ) ;
#960 = VERTEX_POINT ( 'NONE', #943 ) ;
#961 = AXIS2_PLACEMENT_3D ( 'NONE', #467, #84, #570 ) ;
#962 = MECHANICAL_CONTEXT ( 'NONE', #921, 'mechanical' ) ;
#963 = DIRECTION ( 'NONE',  ( 0.000000000000000000, 0.000000000000000000, 1.000000000000000000 ) ) ;
#964 = EDGE_CURVE ( 'NONE', #48, #1053, #734, .T. ) ;
#965 = VERTEX_POINT ( 'NONE', #571 ) ;
#966 = ORIENTED_EDGE ( 'NONE', *, *, #745, .T. ) ;
#967 = AXIS2_PLACEMENT_3D ( 'NONE', #770, #114, #203 ) ;
#968 = CARTESIAN_POINT ( 'NONE',  ( -3.922502386136578867, 11.44184814882063073, -4.803679991830016284E-16 ) ) ;
#969 = CIRCLE ( 'NONE', #358, 9.817375473372631944 ) ;
#970 = DIRECTION ( 'NONE',  ( 0.000000000000000000, 0.000000000000000000, 1.000000000000000000 ) ) ;
#971 = ADVANCED_FACE ( 'NONE', ( #462 ), #471, .F. ) ;
#972 = FACE_OUTER_BOUND ( 'NONE', #19, .T. ) ;
#973 = ORIENTED_EDGE ( 'NONE', *, *, #145, .T. ) ;
#974 = EDGE_CURVE ( 'NONE', #737, #74, #636, .T. ) ;
#975 = ADVANCED_FACE ( 'NONE', ( #855 ), #435, .T. ) ;
#976 = DATE_TIME_ROLE ( 'classification_date' ) ;
#977 = DIRECTION ( 'NONE',  ( 0.000000000000000000, -0.000000000000000000, -1.000000000000000000 ) ) ;
#978 = CARTESIAN_POINT ( 'NONE',  ( 6.776722253587644573, 10.54003085110704596, 13.55344450717530336 ) ) ;
#979 = ORIENTED_EDGE ( 'NONE', *, *, #541, .F. ) ;
#980 = EDGE_LOOP ( 'NONE', ( #593, #118, #433, #567 ) ) ;
#981 = DIRECTION ( 'NONE',  ( 0.000000000000000000, 0.000000000000000000, 1.000000000000000000 ) ) ;
#982 = CARTESIAN_POINT ( 'NONE',  ( -6.742013529821067941, 9.221561674157117139, -3.818019924272513734E-15 ) ) ;
#983 = CIRCLE ( 'NONE', #772, 7.825729830623396666 ) ;
#984 = CARTESIAN_POINT ( 'NONE',  ( -6.776722253587649014, 10.54003085110704596, -8.282150557621666203E-16 ) ) ;
#985 = ORIENTED_EDGE ( 'NONE', *, *, #871, .T. ) ;
#986 = EDGE_CURVE ( 'NONE', #868, #803, #1129, .T. ) ;
#987 = AXIS2_PLACEMENT_3D ( 'NONE', #45, #436, #701 ) ;
#988 = DATE_AND_TIME ( #407, #680 ) ;
#989 = CIRCLE ( 'NONE', #167, 0.4500000000000000111 ) ;
#990 = CARTESIAN_POINT ( 'NONE',  ( 0.000000000000000000, 0.4233252423390537755, 0.4500000000000000111 ) ) ;
#991 = AXIS2_PLACEMENT_3D ( 'NONE', #847, #205, #14 ) ;
#992 = CARTESIAN_POINT ( 'NONE',  ( 0.9000000000000002442, 11.27787382859681031, -1.800000000000000044 ) ) ;
#993 = ORIENTED_EDGE ( 'NONE', *, *, #879, .T. ) ;
#994 = CARTESIAN_POINT ( 'NONE',  ( 6.394883752697391621, 13.66464955187664287, 1.564600717837546375E-15 ) ) ;
#995 = COORDINATED_UNIVERSAL_TIME_OFFSET ( 8, 0, .BEHIND. ) ;
#996 = LINE ( 'NONE', #1093, #470 ) ;
#997 = CARTESIAN_POINT ( 'NONE',  ( -6.742013529821067941, 9.221561674157117139, -8.239644630158433118E-16 ) ) ;
#998 = VERTEX_POINT ( 'NONE', #1015 ) ;
#999 = DATE_AND_TIME ( #55, #595 ) ;
#1000 = CARTESIAN_POINT ( 'NONE',  ( -7.825729830623396666, 9.039992195038015765, -9.566814329119815580E-16 ) ) ;
#1001 = CARTESIAN_POINT ( 'NONE',  ( 0.000000000000000000, 9.039992195038017542, 14.49329264867668243 ) ) ;
#1002 = ORIENTED_EDGE ( 'NONE', *, *, #39, .F. ) ;
#1003 = CARTESIAN_POINT ( 'NONE',  ( 5.510910596163088939E-17, 15.42332524233905389, -0.4500000000000000111 ) ) ;
#1004 = AXIS2_PLACEMENT_3D ( 'NONE', #56, #52, #324 ) ;
#1005 = CARTESIAN_POINT ( 'NONE',  ( -7.825729830623404659, 9.039992195038013989, 15.65145966124679511 ) ) ;
#1006 = AXIS2_PLACEMENT_3D ( 'NONE', #1112, #178, #1040 ) ;
#1007 = CARTESIAN_POINT ( 'NONE',  ( -1.154261749385731894, 13.79674958517674987, -1.396622297818374877E-16 ) ) ;
#1008 = AXIS2_PLACEMENT_3D ( 'NONE', #578, #395, #771 ) ;
#1009 = CARTESIAN_POINT ( 'NONE',  ( 4.196605338434304500, 10.96968766700448583, 0.000000000000000000 ) ) ;
#1010 = EDGE_LOOP ( 'NONE', ( #326, #453 ) ) ;
#1011 = ORIENTED_EDGE ( 'NONE', *, *, #1059, .F. ) ;
#1012 = CARTESIAN_POINT ( 'NONE',  ( 0.000000000000000000, 0.4233252423390537755, 0.000000000000000000 ) ) ;
#1013 = DIRECTION ( 'NONE',  ( -0.000000000000000000, 1.000000000000000000, -0.000000000000000000 ) ) ;
#1014 = LINE ( 'NONE', #1118, #18 ) ;
#1015 = CARTESIAN_POINT ( 'NONE',  ( 5.851523450950779777E-16, 7.236007046749197258, 4.778131502915647033 ) ) ;
#1016 = EDGE_LOOP ( 'NONE', ( #1051, #545, #662, #691 ) ) ;
#1017 = ORIENTED_EDGE ( 'NONE', *, *, #417, .T. ) ;
#1018 = CARTESIAN_POINT ( 'NONE',  ( 0.000000000000000000, 1.206680611879042075, 0.000000000000000000 ) ) ;
#1019 = FACE_OUTER_BOUND ( 'NONE', #1152, .T. ) ;
#1020 = ADVANCED_FACE ( 'NONE', ( #661 ), #536, .F. ) ;
#1021 = DIRECTION ( 'NONE',  ( 0.000000000000000000, -1.000000000000000000, 0.000000000000000000 ) ) ;
#1022 = DIRECTION ( 'NONE',  ( -0.000000000000000000, 1.000000000000000000, -0.000000000000000000 ) ) ;
#1023 = ORIENTED_EDGE ( 'NONE', *, *, #724, .T. ) ;
#1024 = ADVANCED_FACE ( 'NONE', ( #747 ), #938, .F. ) ;
#1025 = DIRECTION ( 'NONE',  ( -0.000000000000000000, 1.000000000000000000, -0.000000000000000000 ) ) ;
#1026 = CARTESIAN_POINT ( 'NONE',  ( -2.509035231634928476, 10.99079439199511121, -3.072681965369653029E-16 ) ) ;
#1027 = CIRCLE ( 'NONE', #486, 0.4500000000000000111 ) ;
#1028 = CARTESIAN_POINT ( 'NONE',  ( 0.000000000000000000, 10.96968766700448583, 0.000000000000000000 ) ) ;
#1029 = AXIS2_PLACEMENT_3D ( 'NONE', #678, #1042, #852 ) ;
#1030 = ORIENTED_EDGE ( 'NONE', *, *, #1060, .T. ) ;
#1031 = CARTESIAN_POINT ( 'NONE',  ( 1.384711512305443724E-15, 8.430876594007155944, -11.30702757129266800 ) ) ;
#1032 = DIRECTION ( 'NONE',  ( -0.000000000000000000, 1.000000000000000000, -0.000000000000000000 ) ) ;
#1033 = DIRECTION ( 'NONE',  ( -0.000000000000000000, 1.000000000000000000, -0.000000000000000000 ) ) ;
#1034 = EDGE_CURVE ( 'NONE', #314, #698, #1181, .T. ) ;
#1035 = CARTESIAN_POINT ( 'NONE',  ( -0.9000000000000002442, 11.27787382859681031, -5.082044348938097028E-16 ) ) ;
#1036 = EDGE_CURVE ( 'NONE', #388, #6, #697, .T. ) ;
#1037 = EDGE_LOOP ( 'NONE', ( #281, #861, #900, #319 ) ) ;
#1038 = CARTESIAN_POINT ( 'NONE',  ( 2.329018689843614709, 8.430876594007726155, 5.704450567342690219E-16 ) ) ;
#1039 = DIRECTION ( 'NONE',  ( 0.000000000000000000, 0.000000000000000000, 1.000000000000000000 ) ) ;
#1040 = DIRECTION ( 'NONE',  ( 0.000000000000000000, 0.000000000000000000, 1.000000000000000000 ) ) ;
#1041 = ORIENTED_EDGE ( 'NONE', *, *, #525, .F. ) ;
#1042 = DIRECTION ( 'NONE',  ( -0.000000000000000000, 1.000000000000000000, -0.000000000000000000 ) ) ;
#1043 = FACE_OUTER_BOUND ( 'NONE', #1010, .T. ) ;
#1044 = ORIENTED_EDGE ( 'NONE', *, *, #877, .T. ) ;
#1045 = AXIS2_PLACEMENT_3D ( 'NONE', #413, #252, #612 ) ;
#1046 = AXIS2_PLACEMENT_3D ( 'NONE', #548, #743, #183 ) ;
#1047 = ORIENTED_EDGE ( 'NONE', *, *, #39, .T. ) ;
#1048 = TOROIDAL_SURFACE ( 'NONE', #1207, 12.39329264867668279, 2.099999999999996536 ) ;
#1049 = FACE_BOUND ( 'NONE', #225, .T. ) ;
#1050 = CARTESIAN_POINT ( 'NONE',  ( 0.000000000000000000, 3.358105525848850803, 13.73254529822443537 ) ) ;
#1051 = ORIENTED_EDGE ( 'NONE', *, *, #1063, .F. ) ;
#1052 = CYLINDRICAL_SURFACE ( 'NONE', #749, 2.349999999999999645 ) ;
#1053 = VERTEX_POINT ( 'NONE', #1103 ) ;
#1054 = VERTEX_POINT ( 'NONE', #1124 ) ;
#1055 = DIRECTION ( 'NONE',  ( -0.000000000000000000, 1.000000000000000000, -0.000000000000000000 ) ) ;
#1056 = DATE_AND_TIME ( #588, #282 ) ;
#1057 = AXIS2_PLACEMENT_3D ( 'NONE', #519, #242, #430 ) ;
#1058 = DIRECTION ( 'NONE',  ( -0.000000000000000000, 1.000000000000000000, -0.000000000000000000 ) ) ;
#1059 = EDGE_CURVE ( 'NONE', #960, #85, #190, .T. ) ;
#1060 = EDGE_CURVE ( 'NONE', #239, #850, #76, .T. ) ;
#1061 = DIRECTION ( 'NONE',  ( 0.000000000000000000, 0.000000000000000000, 1.000000000000000000 ) ) ;
#1062 = ADVANCED_FACE ( 'NONE', ( #1019 ), #1075, .F. ) ;
#1063 = EDGE_CURVE ( 'NONE', #350, #544, #989, .T. ) ;
#1064 = ORIENTED_EDGE ( 'NONE', *, *, #202, .T. ) ;
#1065 = CONICAL_SURFACE ( 'NONE', #1204, 13.78811560738050268, 0.8443712890484253997 ) ;
#1066 = CIRCLE ( 'NONE', #88, 2.349999999999999645 ) ;
#1067 = AXIS2_PLACEMENT_3D ( 'NONE', #218, #782, #1156 ) ;
#1068 = FACE_OUTER_BOUND ( 'NONE', #644, .T. ) ;
#1069 = CARTESIAN_POINT ( 'NONE',  ( 6.379029002447182961, 12.12744979406977208, 1.560717424008506284E-15 ) ) ;
#1070 = DIRECTION ( 'NONE',  ( 0.000000000000000000, 0.000000000000000000, 1.000000000000000000 ) ) ;
#1071 = AXIS2_PLACEMENT_3D ( 'NONE', #309, #684, #764 ) ;
#1072 = ORIENTED_EDGE ( 'NONE', *, *, #541, .T. ) ;
#1073 = APPROVAL_DATE_TIME ( #1174, #249 ) ;
#1074 = FACE_OUTER_BOUND ( 'NONE', #164, .T. ) ;
#1075 =( BOUNDED_SURFACE ( )  B_SPLINE_SURFACE ( 3, 3, ( 
 ( #540, #652, #96, #642 ),
 ( #916, #647, #271, #834 ),
 ( #840, #923, #632, #1026 ),
 ( #659, #455, #195, #8 ),
 ( #256, #285, #87, #369 ) ),
 .UNSPECIFIED., .F., .F., .F. ) 
 B_SPLINE_SURFACE_WITH_KNOTS ( ( 4, 1, 4 ),
 ( 4, 4 ),
 ( 0.000000000000000000, 0.2625640720065023914, 1.000000000000000000 ),
 ( 0.000000000000000000, 1.000000000000000000 ),
 .UNSPECIFIED. ) 
 GEOMETRIC_REPRESENTATION_ITEM ( )  RATIONAL_B_SPLINE_SURFACE ( (
 ( 1.000000000000000000, 0.3333333333333334259, 0.3333333333333334259, 1.000000000000000000),
 ( 1.000000000000000000, 0.3333333333333334259, 0.3333333333333334259, 1.000000000000000000),
 ( 1.000000000000000000, 0.3333333333333334259, 0.3333333333333334259, 1.000000000000000000),
 ( 1.000000000000000000, 0.3333333333333334259, 0.3333333333333334259, 1.000000000000000000),
 ( 1.000000000000000000, 0.3333333333333334259, 0.3333333333333334259, 1.000000000000000000) ) ) 
 REPRESENTATION_ITEM ( '' )  SURFACE ( )  );
#1076 = VERTEX_POINT ( 'NONE', #13 ) ;
#1077 = DIRECTION ( 'NONE',  ( -0.000000000000000000, 1.000000000000000000, -0.000000000000000000 ) ) ;
#1078 = PLANE ( 'NONE',  #1176 ) ;
#1079 = CARTESIAN_POINT ( 'NONE',  ( 0.000000000000000000, 2.920876594007155269, 0.000000000000000000 ) ) ;
#1080 = ORIENTED_EDGE ( 'NONE', *, *, #498, .F. ) ;
#1081 = CIRCLE ( 'NONE', #925, 4.196605338434304500 ) ;
#1082 = VECTOR ( 'NONE', #864, 1000.000000000000114 ) ;
#1083 = DIRECTION ( 'NONE',  ( 0.000000000000000000, -1.000000000000000000, 0.000000000000000000 ) ) ;
#1084 = DIRECTION ( 'NONE',  ( 0.000000000000000000, 0.000000000000000000, 1.000000000000000000 ) ) ;
#1085 = CARTESIAN_POINT ( 'NONE',  ( 2.220509347646099751, 9.330364972143668112, 0.000000000000000000 ) ) ;
#1086 = ORIENTED_EDGE ( 'NONE', *, *, #62, .T. ) ;
#1087 = CIRCLE ( 'NONE', #1187, 0.9000000000000002442 ) ;
#1088 = AXIS2_PLACEMENT_3D ( 'NONE', #474, #217, #299 ) ;
#1089 = CARTESIAN_POINT ( 'NONE',  ( 7.825729830623396666, 9.039992195038017542, -1.694065894508600678E-18 ) ) ;
#1090 = CARTESIAN_POINT ( 'NONE',  ( -6.742013529821066165, 9.221561674157117139, -13.48402705964213233 ) ) ;
#1091 = DIRECTION ( 'NONE',  ( 0.000000000000000000, 0.000000000000000000, 1.000000000000000000 ) ) ;
#1092 = ORIENTED_EDGE ( 'NONE', *, *, #877, .F. ) ;
#1093 = CARTESIAN_POINT ( 'NONE',  ( 0.000000000000000000, 3.238437081008106677, 13.48960621186878939 ) ) ;
#1094 = EDGE_CURVE ( 'NONE', #1053, #48, #260, .T. ) ;
#1095 = DIRECTION ( 'NONE',  ( 0.000000000000000000, 0.000000000000000000, 1.000000000000000000 ) ) ;
#1096 = CARTESIAN_POINT ( 'NONE',  ( 7.825729830623396666, 9.039992195038015765, -15.65145966124678800 ) ) ;
#1097 = EDGE_CURVE ( 'NONE', #850, #721, #886, .T. ) ;
#1098 = ORIENTED_EDGE ( 'NONE', *, *, #300, .F. ) ;
#1099 = APPROVAL ( #670, 'UNSPECIFIED' ) ;
#1100 = ORIENTED_EDGE ( 'NONE', *, *, #1141, .F. ) ;
#1101 = CARTESIAN_POINT ( 'NONE',  ( 1.652000306912336458E-15, 3.238437081008106677, -13.48960621186878939 ) ) ;
#1102 = VECTOR ( 'NONE', #419, 1000.000000000000000 ) ;
#1103 = CARTESIAN_POINT ( 'NONE',  ( 0.000000000000000000, 0.4233252423390537755, 0.9000000000000000222 ) ) ;
#1104 = AXIS2_PLACEMENT_3D ( 'NONE', #828, #365, #289 ) ;
#1105 = CYLINDRICAL_SURFACE ( 'NONE', #736, 2.329018689843614709 ) ;
#1106 = DIRECTION ( 'NONE',  ( 0.000000000000000000, 0.000000000000000000, 1.000000000000000000 ) ) ;
#1107 = ORIENTED_EDGE ( 'NONE', *, *, #626, .F. ) ;
#1108 = VERTEX_POINT ( 'NONE', #930 ) ;
#1109 = EDGE_CURVE ( 'NONE', #928, #965, #321, .T. ) ;
#1110 = CARTESIAN_POINT ( 'NONE',  ( -2.220509347646099751, 9.330364972143668112, -2.719339665071573043E-16 ) ) ;
#1111 = CYLINDRICAL_SURFACE ( 'NONE', #618, 15.45000000000000107 ) ;
#1112 = CARTESIAN_POINT ( 'NONE',  ( 0.000000000000000000, 0.4233252423390537755, 0.000000000000000000 ) ) ;
#1113 = ORIENTED_EDGE ( 'NONE', *, *, #601, .F. ) ;
#1114 = CARTESIAN_POINT ( 'NONE',  ( 5.495441372974522676E-16, 10.96968766700448583, 4.196605338434304500 ) ) ;
#1115 = CARTESIAN_POINT ( 'NONE',  ( -2.220509347646100196, 9.330364972143668112, 4.441018695292198615 ) ) ;
#1116 = EDGE_CURVE ( 'NONE', #314, #1161, #176, .T. ) ;
#1117 = CARTESIAN_POINT ( 'NONE',  ( 0.000000000000000000, 0.4233252423390537755, 0.000000000000000000 ) ) ;
#1118 = CARTESIAN_POINT ( 'NONE',  ( 1.688557164485219633E-15, 3.407479743584886034, -13.78811560738050268 ) ) ;
#1119 = AXIS2_PLACEMENT_3D ( 'NONE', #78, #177, #819 ) ;
#1120 = DIRECTION ( 'NONE',  ( 0.000000000000000000, 0.000000000000000000, 1.000000000000000000 ) ) ;
#1121 = ORIENTED_EDGE ( 'NONE', *, *, #295, .T. ) ;
#1122 = ADVANCED_FACE ( 'NONE', ( #1203 ), #1111, .T. ) ;
#1123 = CARTESIAN_POINT ( 'NONE',  ( 0.000000000000000000, 9.039992195038017542, 0.000000000000000000 ) ) ;
#1124 = CARTESIAN_POINT ( 'NONE',  ( 1.581734744842906141E-15, 3.018967384149487287, -12.34208249942611779 ) ) ;
#1125 = APPROVAL_PERSON_ORGANIZATION ( #700, #287, #620 ) ;
#1126 = CARTESIAN_POINT ( 'NONE',  ( 2.877919977996279334E-16, 0.4233252423390537755, -2.349999999999999645 ) ) ;
#1127 = AXIS2_PLACEMENT_3D ( 'NONE', #897, #429, #805 ) ;
#1128 = FACE_OUTER_BOUND ( 'NONE', #418, .T. ) ;
#1129 = CIRCLE ( 'NONE', #711, 13.78811560738050268 ) ;
#1130 = CC_DESIGN_SECURITY_CLASSIFICATION ( #334, ( #35 ) ) ;
#1131 = VERTEX_POINT ( 'NONE', #216 ) ;
#1132 = CARTESIAN_POINT ( 'NONE',  ( 2.877919977996279334E-16, 1.206680611879042075, 2.349999999999999645 ) ) ;
#1133 = CARTESIAN_POINT ( 'NONE',  ( 1.892079304682660484E-15, 15.42332524233905389, -15.45000000000000107 ) ) ;
#1134 = CARTESIAN_POINT ( 'NONE',  ( 0.000000000000000000, 2.920876594007439930, 0.000000000000000000 ) ) ;
#1135 = ORIENTED_EDGE ( 'NONE', *, *, #665, .T. ) ;
#1136 = CARTESIAN_POINT ( 'NONE',  ( 0.000000000000000000, 0.000000000000000000, 0.000000000000000000 ) ) ;
#1137 = DIRECTION ( 'NONE',  ( -0.000000000000000000, 1.000000000000000000, -0.000000000000000000 ) ) ;
#1138 = EDGE_CURVE ( 'NONE', #234, #231, #398, .T. ) ;
#1139 = CARTESIAN_POINT ( 'NONE',  ( -3.412741165419603817, 15.06298722752012154, -4.162461885604439772E-16 ) ) ;
#1140 = ORIENTED_EDGE ( 'NONE', *, *, #677, .F. ) ;
#1141 = EDGE_CURVE ( 'NONE', #314, #336, #472, .T. ) ;
#1142 = CARTESIAN_POINT ( 'NONE',  ( 0.000000000000000000, 0.4233252423390537755, 15.45000000000000107 ) ) ;
#1143 = CARTESIAN_POINT ( 'NONE',  ( 0.000000000000000000, 28.78036468957700222, 0.000000000000000000 ) ) ;
#1144 = LINE ( 'NONE', #681, #860 ) ;
#1145 = CARTESIAN_POINT ( 'NONE',  ( 1.102182119232618034E-16, 0.4233252423390537755, -0.9000000000000000222 ) ) ;
#1146 = AXIS2_PLACEMENT_3D ( 'NONE', #60, #523, #1169 ) ;
#1147 = AXIS2_PLACEMENT_3D ( 'NONE', #442, #83, #556 ) ;
#1148 = ORIENTED_EDGE ( 'NONE', *, *, #434, .T. ) ;
#1149 = CARTESIAN_POINT ( 'NONE',  ( 4.196605338434304500, 10.96968766700448583, 1.027871858999653312E-15 ) ) ;
#1150 = DIRECTION ( 'NONE',  ( 0.000000000000000000, 0.000000000000000000, 1.000000000000000000 ) ) ;
#1151 = ORIENTED_EDGE ( 'NONE', *, *, #1155, .T. ) ;
#1152 = EDGE_LOOP ( 'NONE', ( #762, #343, #303, #1011, #907, #581 ) ) ;
#1153 = APPLICATION_PROTOCOL_DEFINITION ( 'international standard', 'config_control_design', 1994, #812 ) ;
#1154 = PLANE ( 'NONE',  #709 ) ;
#1155 = EDGE_CURVE ( 'NONE', #231, #6, #554, .T. ) ;
#1156 = DIRECTION ( 'NONE',  ( 0.000000000000000000, 0.000000000000000000, 1.000000000000000000 ) ) ;
#1157 = EDGE_LOOP ( 'NONE', ( #1172, #1064, #484, #79 ) ) ;
#1158 = FACE_OUTER_BOUND ( 'NONE', #1178, .T. ) ;
#1159 = EDGE_CURVE ( 'NONE', #234, #388, #904, .T. ) ;
#1160 = VECTOR ( 'NONE', #460, 1000.000000000000227 ) ;
#1161 = VERTEX_POINT ( 'NONE', #30 ) ;
#1162 = AXIS2_PLACEMENT_3D ( 'NONE', #1028, #643, #279 ) ;
#1163 = UNCERTAINTY_MEASURE_WITH_UNIT (LENGTH_MEASURE( 1.000000000000000082E-05 ), #204, 'distance_accuracy_value', 'NONE');
#1164 = ORGANIZATION ( 'UNSPECIFIED', 'UNSPECIFIED', '' ) ;
#1165 = CARTESIAN_POINT ( 'NONE',  ( 6.776722253587649014, 10.54003085110704596, -1.694065894508600678E-18 ) ) ;
#1166 = CARTESIAN_POINT ( 'NONE',  ( -6.394883752697390733, 13.66464955187664287, -12.78976750539478147 ) ) ;
#1167 = ORIENTED_EDGE ( 'NONE', *, *, #946, .F. ) ;
#1168 = SECURITY_CLASSIFICATION_LEVEL ( 'unclassified' ) ;
#1169 = DIRECTION ( 'NONE',  ( 0.000000000000000000, 0.000000000000000000, 1.000000000000000000 ) ) ;
#1170 = CARTESIAN_POINT ( 'NONE',  ( -3.412741165419603373, 15.06298722752012154, -6.825482330839206746 ) ) ;
#1171 = CARTESIAN_POINT ( 'NONE',  ( 3.922502386136578867, 11.44184814882063073, 0.000000000000000000 ) ) ;
#1172 = ORIENTED_EDGE ( 'NONE', *, *, #1036, .F. ) ;
#1173 = EDGE_CURVE ( 'NONE', #529, #775, #379, .T. ) ;
#1174 = DATE_AND_TIME ( #142, #1179 ) ;
#1175 = CARTESIAN_POINT ( 'NONE',  ( 0.000000000000000000, 3.238437081008106677, 0.000000000000000000 ) ) ;
#1176 = AXIS2_PLACEMENT_3D ( 'NONE', #889, #153, #171 ) ;
#1177 = CARTESIAN_POINT ( 'NONE',  ( 6.776722253587649014, 10.54003085110704596, -1.694065894508600486E-18 ) ) ;
#1178 = EDGE_LOOP ( 'NONE', ( #798, #53, #105, #609 ) ) ;
#1179 = LOCAL_TIME ( 16, 12, 30.00000000000000000, #784 ) ;
#1180 = CIRCLE ( 'NONE', #1202, 2.349999999999999645 ) ;
#1181 = CIRCLE ( 'NONE', #1046, 2.329018689843614709 ) ;
#1182 = CARTESIAN_POINT ( 'NONE',  ( 6.379029002447182961, 12.12744979406977208, -1.694065894508600678E-18 ) ) ;
#1183 = CARTESIAN_POINT ( 'NONE',  ( -6.379029002447180297, 12.12744979406977208, -12.75805800489436059 ) ) ;
#1184 = B_SPLINE_CURVE_WITH_KNOTS ( 'NONE', 3,
 ( #127, #46, #1139, #672, #306, #876, #585, #958 ),
 .UNSPECIFIED., .F., .F.,
 ( 4, 1, 1, 1, 1, 4 ),
 ( 0.000000000000000000, 0.4408705884492326033, 0.5777595125020710265, 0.7248515205603500711, 0.7833690336294087952, 1.000000000000000000 ),
 .UNSPECIFIED. ) ;
#1185 = CARTESIAN_POINT ( 'NONE',  ( 0.000000000000000000, 3.238437081008106677, 0.000000000000000000 ) ) ;
#1186 = ORIENTED_EDGE ( 'NONE', *, *, #221, .F. ) ;
#1187 = AXIS2_PLACEMENT_3D ( 'NONE', #732, #1198, #354 ) ;
#1188 = DIRECTION ( 'NONE',  ( 0.000000000000000000, 0.000000000000000000, 1.000000000000000000 ) ) ;
#1189 = ADVANCED_FACE ( 'NONE', ( #134 ), #473, .F. ) ;
#1190 = CARTESIAN_POINT ( 'NONE',  ( 6.379029002447179408, 12.12744979406977208, 12.75805800489437125 ) ) ;
#1191 = CARTESIAN_POINT ( 'NONE',  ( -6.394883752697391621, 13.66464955187664287, -7.814533259715189857E-16 ) ) ;
#1192 = DIRECTION ( 'NONE',  ( -0.000000000000000000, 1.000000000000000000, -0.000000000000000000 ) ) ;
#1193 = EDGE_LOOP ( 'NONE', ( #59, #941, #372, #751, #223 ) ) ;
#1194 = AXIS2_PLACEMENT_3D ( 'NONE', #858, #228, #25 ) ;
#1195 = DIRECTION ( 'NONE',  ( 0.000000000000000000, 0.000000000000000000, 1.000000000000000000 ) ) ;
#1196 = DIRECTION ( 'NONE',  ( -0.000000000000000000, 1.000000000000000000, -0.000000000000000000 ) ) ;
#1197 = CARTESIAN_POINT ( 'NONE',  ( 0.000000000000000000, 3.407479743584886034, 0.000000000000000000 ) ) ;
#1198 = DIRECTION ( 'NONE',  ( -0.000000000000000000, 1.000000000000000000, -0.000000000000000000 ) ) ;
#1199 = VERTEX_POINT ( 'NONE', #956 ) ;
#1200 = ORIENTED_EDGE ( 'NONE', *, *, #1059, .T. ) ;
#1201 = DIRECTION ( 'NONE',  ( -0.000000000000000000, 1.000000000000000000, -0.000000000000000000 ) ) ;
#1202 = AXIS2_PLACEMENT_3D ( 'NONE', #1018, #182, #2 ) ;
#1203 = FACE_OUTER_BOUND ( 'NONE', #475, .T. ) ;
#1204 = AXIS2_PLACEMENT_3D ( 'NONE', #1197, #353, #24 ) ;
#1205 = EDGE_CURVE ( 'NONE', #538, #737, #948, .T. ) ;
#1206 = CARTESIAN_POINT ( 'NONE',  ( 0.000000000000000000, 28.78036468957700222, 0.000000000000000000 ) ) ;
#1207 = AXIS2_PLACEMENT_3D ( 'NONE', #690, #400, #873 ) ;
#1208 = CARTESIAN_POINT ( 'NONE',  ( 0.000000000000000000, 28.78036468957700222, 2.349999999999999645 ) ) ;
#1209 = ORIENTED_EDGE ( 'NONE', *, *, #312, .F. ) ;
ENDSEC;
END-ISO-10303-21;
