ISO-10303-21;
HEADER;
FILE_DESCRIPTION (( 'STEP AP203' ),
    '1' );
FILE_NAME ('EDM Wire Home Calibration Part 1 of 2.STEP',
    '2026-05-30T22:50:42',
    ( '' ),
    ( '' ),
    'SwSTEP 2.0',
    'SolidWorks 2024',
    '' );
FILE_SCHEMA (( 'CONFIG_CONTROL_DESIGN' ));
ENDSEC;

DATA;
#1 = VERTEX_POINT ( 'NONE', #261 ) ;
#2 = AXIS2_PLACEMENT_3D ( 'NONE', #65, #297, #8 ) ;
#3 = DIRECTION ( 'NONE',  ( 1.000000000000000000, 0.000000000000000000, 0.000000000000000000 ) ) ;
#4 = APPROVAL_PERSON_ORGANIZATION ( #477, #365, #471 ) ;
#5 = AXIS2_PLACEMENT_3D ( 'NONE', #523, #341, #52 ) ;
#6 = LINE ( 'NONE', #547, #110 ) ;
#7 = APPROVAL_DATE_TIME ( #592, #356 ) ;
#8 = DIRECTION ( 'NONE',  ( 0.000000000000000000, 0.000000000000000000, 1.000000000000000000 ) ) ;
#9 = CARTESIAN_POINT ( 'NONE',  ( -40.00000000000000000, 15.00000000000000000, 5.000000000000000000 ) ) ;
#10 = EDGE_CURVE ( 'NONE', #38, #198, #593, .T. ) ;
#11 = FACE_OUTER_BOUND ( 'NONE', #225, .T. ) ;
#12 = ORIENTED_EDGE ( 'NONE', *, *, #460, .T. ) ;
#13 = DIRECTION ( 'NONE',  ( 1.334402673828313955E-17, -1.000000000000000000, 0.000000000000000000 ) ) ;
#14 = ADVANCED_FACE ( 'NONE', ( #443 ), #396, .F. ) ;
#15 = LINE ( 'NONE', #316, #241 ) ;
#16 = EDGE_LOOP ( 'NONE', ( #380, #332, #246, #585 ) ) ;
#17 = PRODUCT ( 'EDM Wire Home Calibration Part 1 of 2', 'EDM Wire Home Calibration Part 1 of 2', '', ( #137 ) ) ;
#18 = CARTESIAN_POINT ( 'NONE',  ( 0.000000000000000000, 20.00000000000000000, 0.000000000000000000 ) ) ;
#19 = AXIS2_PLACEMENT_3D ( 'NONE', #630, #627, #87 ) ;
#20 = LINE ( 'NONE', #407, #572 ) ;
#21 = ORIENTED_EDGE ( 'NONE', *, *, #506, .T. ) ;
#22 = AXIS2_PLACEMENT_3D ( 'NONE', #235, #105, #294 ) ;
#23 = DIRECTION ( 'NONE',  ( 1.000000000000000000, 0.000000000000000000, -0.000000000000000000 ) ) ;
#24 = CARTESIAN_POINT ( 'NONE',  ( -5.404553950302037890, 20.00000000000000000, 5.000000000000000000 ) ) ;
#25 = VERTEX_POINT ( 'NONE', #161 ) ;
#26 = CARTESIAN_POINT ( 'NONE',  ( -40.00000000000000000, 15.00000000000000000, -9.999999999999998224 ) ) ;
#27 = CARTESIAN_POINT ( 'NONE',  ( -5.404553950302037890, 20.00000000000000000, 5.000000000000000000 ) ) ;
#28 = ORIENTED_EDGE ( 'NONE', *, *, #157, .F. ) ;
#29 = LINE ( 'NONE', #131, #92 ) ;
#30 = DIRECTION ( 'NONE',  ( -0.000000000000000000, 1.000000000000000000, -0.000000000000000000 ) ) ;
#31 = EDGE_CURVE ( 'NONE', #375, #179, #6, .T. ) ;
#32 = AXIS2_PLACEMENT_3D ( 'NONE', #469, #619, #184 ) ;
#33 = VERTEX_POINT ( 'NONE', #116 ) ;
#34 = CC_DESIGN_APPROVAL ( #320, ( #467 ) ) ;
#35 = VECTOR ( 'NONE', #459, 1000.000000000000000 ) ;
#36 = LINE ( 'NONE', #74, #142 ) ;
#37 = DIRECTION ( 'NONE',  ( -1.000000000000000000, 0.000000000000000000, -0.000000000000000000 ) ) ;
#38 = VERTEX_POINT ( 'NONE', #446 ) ;
#39 = PERSON_AND_ORGANIZATION_ROLE ( 'design_owner' ) ;
#40 = CARTESIAN_POINT ( 'NONE',  ( -40.00000000000000000, 0.000000000000000000, 5.000000000000000000 ) ) ;
#41 = ORIENTED_EDGE ( 'NONE', *, *, #497, .F. ) ;
#42 = EDGE_CURVE ( 'NONE', #287, #70, #303, .T. ) ;
#43 = APPROVAL_STATUS ( 'not_yet_approved' ) ;
#44 = LINE ( 'NONE', #431, #342 ) ;
#45 = ORIENTED_EDGE ( 'NONE', *, *, #626, .T. ) ;
#46 = VECTOR ( 'NONE', #77, 1000.000000000000000 ) ;
#47 = DATE_AND_TIME ( #426, #91 ) ;
#48 = FACE_OUTER_BOUND ( 'NONE', #109, .T. ) ;
#49 = ORIENTED_EDGE ( 'NONE', *, *, #336, .T. ) ;
#50 = PRODUCT_DEFINITION ( 'UNKNOWN', '', #259, #139 ) ;
#51 = ORIENTED_EDGE ( 'NONE', *, *, #112, .T. ) ;
#52 = DIRECTION ( 'NONE',  ( -1.000000000000000000, -1.387778780781446070E-15, 0.000000000000000000 ) ) ;
#53 = EDGE_CURVE ( 'NONE', #141, #565, #348, .T. ) ;
#54 = CARTESIAN_POINT ( 'NONE',  ( -5.404553950302037890, 20.00000000000000000, 5.000000000000000000 ) ) ;
#55 = APPROVAL_ROLE ( '' ) ;
#56 = VECTOR ( 'NONE', #502, 1000.000000000000000 ) ;
#57 = CARTESIAN_POINT ( 'NONE',  ( 4.999999999999999112, 0.000000000000000000, 5.000000000000000000 ) ) ;
#58 = ORIENTED_EDGE ( 'NONE', *, *, #10, .T. ) ;
#59 = CARTESIAN_POINT ( 'NONE',  ( 4.999999999999999112, 0.000000000000000000, 0.000000000000000000 ) ) ;
#60 = ORIENTED_EDGE ( 'NONE', *, *, #392, .T. ) ;
#61 = EDGE_CURVE ( 'NONE', #344, #145, #393, .T. ) ;
#62 = DIRECTION ( 'NONE',  ( 0.000000000000000000, -1.000000000000000000, 0.000000000000000000 ) ) ;
#63 = PERSON_AND_ORGANIZATION ( #530, #167 ) ;
#64 = VECTOR ( 'NONE', #290, 1000.000000000000000 ) ;
#65 = CARTESIAN_POINT ( 'NONE',  ( -43.00000000000000000, 0.000000000000000000, 0.000000000000000000 ) ) ;
#66 = LOCAL_TIME ( 15, 50, 42.00000000000000000, #195 ) ;
#67 = CC_DESIGN_DATE_AND_TIME_ASSIGNMENT ( #629, #334, ( #50 ) ) ;
#68 = CALENDAR_DATE ( 2026, 30, 5 ) ;
#69 = LINE ( 'NONE', #163, #624 ) ;
#70 = VERTEX_POINT ( 'NONE', #350 ) ;
#71 = DIRECTION ( 'NONE',  ( -1.000000000000000000, -0.000000000000000000, -0.000000000000000000 ) ) ;
#72 = DIRECTION ( 'NONE',  ( 0.000000000000000000, -1.000000000000000000, 0.000000000000000000 ) ) ;
#73 = ORIENTED_EDGE ( 'NONE', *, *, #83, .F. ) ;
#74 = CARTESIAN_POINT ( 'NONE',  ( -40.00000000000000000, 0.000000000000000000, 0.000000000000000000 ) ) ;
#75 = CC_DESIGN_DATE_AND_TIME_ASSIGNMENT ( #349, #354, ( #467 ) ) ;
#76 = VECTOR ( 'NONE', #162, 1000.000000000000000 ) ;
#77 = DIRECTION ( 'NONE',  ( -0.000000000000000000, -0.000000000000000000, -1.000000000000000000 ) ) ;
#78 = ORIENTED_EDGE ( 'NONE', *, *, #497, .T. ) ;
#79 = DIRECTION ( 'NONE',  ( 0.000000000000000000, 0.000000000000000000, 1.000000000000000000 ) ) ;
#80 = CARTESIAN_POINT ( 'NONE',  ( 40.07999999999999829, 10.00000000000000000, 0.000000000000000000 ) ) ;
#81 = ORIENTED_EDGE ( 'NONE', *, *, #197, .F. ) ;
#82 = PLANE ( 'NONE',  #441 ) ;
#83 = EDGE_CURVE ( 'NONE', #291, #409, #107, .T. ) ;
#84 = DIRECTION ( 'NONE',  ( 1.000000000000000000, 0.000000000000000000, 0.000000000000000000 ) ) ;
#85 = ORIENTED_EDGE ( 'NONE', *, *, #538, .T. ) ;
#86 = LINE ( 'NONE', #278, #203 ) ;
#87 = DIRECTION ( 'NONE',  ( 0.000000000000000000, -0.000000000000000000, 1.000000000000000000 ) ) ;
#88 = VECTOR ( 'NONE', #610, 1000.000000000000000 ) ;
#89 = EDGE_LOOP ( 'NONE', ( #99, #612, #488, #481 ) ) ;
#90 = ADVANCED_FACE ( 'NONE', ( #11 ), #111, .T. ) ;
#91 = LOCAL_TIME ( 15, 50, 42.00000000000000000, #429 ) ;
#92 = VECTOR ( 'NONE', #269, 1000.000000000000000 ) ;
#93 =( NAMED_UNIT ( * ) SI_UNIT ( $, .STERADIAN. ) SOLID_ANGLE_UNIT ( ) );
#94 = DIRECTION ( 'NONE',  ( 0.000000000000000000, 0.000000000000000000, -1.000000000000000000 ) ) ;
#95 = EDGE_CURVE ( 'NONE', #513, #581, #398, .T. ) ;
#96 = ORIENTED_EDGE ( 'NONE', *, *, #191, .F. ) ;
#97 = DIRECTION ( 'NONE',  ( 0.000000000000000000, 0.000000000000000000, 1.000000000000000000 ) ) ;
#98 = PLANE ( 'NONE',  #308 ) ;
#99 = ORIENTED_EDGE ( 'NONE', *, *, #594, .F. ) ;
#100 = EDGE_CURVE ( 'NONE', #182, #416, #440, .T. ) ;
#101 = DIRECTION ( 'NONE',  ( -1.000000000000000000, 0.000000000000000000, -0.000000000000000000 ) ) ;
#102 = ORIENTED_EDGE ( 'NONE', *, *, #532, .F. ) ;
#103 =( NAMED_UNIT ( * ) PLANE_ANGLE_UNIT ( ) SI_UNIT ( $, .RADIAN. ) );
#104 = ORIENTED_EDGE ( 'NONE', *, *, #106, .F. ) ;
#105 = DIRECTION ( 'NONE',  ( 0.000000000000000000, 1.000000000000000000, 0.000000000000000000 ) ) ;
#106 = EDGE_CURVE ( 'NONE', #390, #141, #254, .T. ) ;
#107 = LINE ( 'NONE', #54, #228 ) ;
#108 = FACE_OUTER_BOUND ( 'NONE', #623, .T. ) ;
#109 = EDGE_LOOP ( 'NONE', ( #154, #28, #151, #248, #428, #608, #253, #133, #403, #425, #51, #219 ) ) ;
#110 = VECTOR ( 'NONE', #495, 1000.000000000000000 ) ;
#111 = PLANE ( 'NONE',  #484 ) ;
#112 = EDGE_CURVE ( 'NONE', #581, #470, #252, .T. ) ;
#113 = EDGE_LOOP ( 'NONE', ( #230, #242, #465, #371 ) ) ;
#114 = CALENDAR_DATE ( 2026, 30, 5 ) ;
#115 = DIRECTION ( 'NONE',  ( 0.000000000000000000, -1.000000000000000000, 0.000000000000000000 ) ) ;
#116 = CARTESIAN_POINT ( 'NONE',  ( -40.07999999999999829, 0.000000000000000000, -9.999999999999998224 ) ) ;
#117 = VECTOR ( 'NONE', #307, 1000.000000000000000 ) ;
#118 = DIRECTION ( 'NONE',  ( -0.000000000000000000, -0.000000000000000000, -1.000000000000000000 ) ) ;
#119 = CC_DESIGN_APPROVAL ( #356, ( #259 ) ) ;
#120 = VECTOR ( 'NONE', #577, 1000.000000000000000 ) ;
#121 = CARTESIAN_POINT ( 'NONE',  ( -40.07999999999999829, 10.00000000000000000, -9.999999999999998224 ) ) ;
#122 = DIRECTION ( 'NONE',  ( 0.000000000000000000, -0.000000000000000000, -1.000000000000000000 ) ) ;
#123 = ORIENTED_EDGE ( 'NONE', *, *, #311, .T. ) ;
#124 = LINE ( 'NONE', #510, #35 ) ;
#125 = CARTESIAN_POINT ( 'NONE',  ( 4.999999999999997335, 15.00000000000000000, 0.000000000000000000 ) ) ;
#126 = ORIENTED_EDGE ( 'NONE', *, *, #208, .T. ) ;
#127 = CARTESIAN_POINT ( 'NONE',  ( 43.00000000000000000, 15.00000000000000000, 5.000000000000000000 ) ) ;
#128 = FACE_OUTER_BOUND ( 'NONE', #436, .T. ) ;
#129 = ORIENTED_EDGE ( 'NONE', *, *, #112, .F. ) ;
#130 = ADVANCED_FACE ( 'NONE', ( #108 ), #209, .T. ) ;
#131 = CARTESIAN_POINT ( 'NONE',  ( 40.07999999999999829, 10.00000000000000000, -9.999999999999998224 ) ) ;
#132 = CARTESIAN_POINT ( 'NONE',  ( -43.00000000000000000, 0.000000000000000000, -9.999999999999998224 ) ) ;
#133 = ORIENTED_EDGE ( 'NONE', *, *, #260, .F. ) ;
#134 = CARTESIAN_POINT ( 'NONE',  ( 4.999999999999999112, 0.000000000000000000, 5.000000000000000000 ) ) ;
#135 = PLANE ( 'NONE',  #32 ) ;
#136 = VERTEX_POINT ( 'NONE', #205 ) ;
#137 = MECHANICAL_CONTEXT ( 'NONE', #527, 'mechanical' ) ;
#138 = DIRECTION ( 'NONE',  ( -0.000000000000000000, 0.000000000000000000, -1.000000000000000000 ) ) ;
#139 = DESIGN_CONTEXT ( 'detailed design', #238, 'design' ) ;
#140 = VECTOR ( 'NONE', #346, 1000.000000000000000 ) ;
#141 = VERTEX_POINT ( 'NONE', #394 ) ;
#142 = VECTOR ( 'NONE', #405, 1000.000000000000000 ) ;
#143 = CALENDAR_DATE ( 2026, 30, 5 ) ;
#144 = CARTESIAN_POINT ( 'NONE',  ( -40.07999999999999829, 10.00000000000000000, 0.000000000000000000 ) ) ;
#145 = VERTEX_POINT ( 'NONE', #545 ) ;
#146 = CARTESIAN_POINT ( 'NONE',  ( -5.404553950302037890, 20.00000000000000000, 0.000000000000000000 ) ) ;
#147 = EDGE_CURVE ( 'NONE', #185, #156, #305, .T. ) ;
#148 = CARTESIAN_POINT ( 'NONE',  ( -4.999999999999997335, -64.99999999999997158, 0.000000000000000000 ) ) ;
#149 = ORIENTED_EDGE ( 'NONE', *, *, #267, .F. ) ;
#150 = CARTESIAN_POINT ( 'NONE',  ( 0.000000000000000000, 0.000000000000000000, 0.000000000000000000 ) ) ;
#151 = ORIENTED_EDGE ( 'NONE', *, *, #244, .F. ) ;
#152 = AXIS2_PLACEMENT_3D ( 'NONE', #187, #379, #138 ) ;
#153 = EDGE_CURVE ( 'NONE', #387, #409, #445, .T. ) ;
#154 = ORIENTED_EDGE ( 'NONE', *, *, #100, .T. ) ;
#155 = CARTESIAN_POINT ( 'NONE',  ( 4.999999999999997335, 20.00000000000000000, 0.000000000000000000 ) ) ;
#156 = VERTEX_POINT ( 'NONE', #492 ) ;
#157 = EDGE_CURVE ( 'NONE', #136, #416, #257, .T. ) ;
#158 = CARTESIAN_POINT ( 'NONE',  ( -43.00000000000000000, 15.00000000000000000, -9.999999999999998224 ) ) ;
#159 = VECTOR ( 'NONE', #62, 1000.000000000000000 ) ;
#160 = PERSON_AND_ORGANIZATION ( #530, #167 ) ;
#161 = CARTESIAN_POINT ( 'NONE',  ( 43.00000000000000000, 15.00000000000000000, -9.999999999999998224 ) ) ;
#162 = DIRECTION ( 'NONE',  ( 1.000000000000000000, 0.000000000000000000, 0.000000000000000000 ) ) ;
#163 = CARTESIAN_POINT ( 'NONE',  ( -4.999999999999997335, 0.000000000000000000, 0.000000000000000000 ) ) ;
#164 = EDGE_CURVE ( 'NONE', #156, #33, #363, .T. ) ;
#165 = AXIS2_PLACEMENT_3D ( 'NONE', #537, #482, #13 ) ;
#166 = DIRECTION ( 'NONE',  ( -0.000000000000000000, -0.000000000000000000, -1.000000000000000000 ) ) ;
#167 = ORGANIZATION ( 'UNSPECIFIED', 'UNSPECIFIED', '' ) ;
#168 = VECTOR ( 'NONE', #264, 1000.000000000000000 ) ;
#169 = ORIENTED_EDGE ( 'NONE', *, *, #306, .F. ) ;
#170 = CARTESIAN_POINT ( 'NONE',  ( 4.999999999999999112, 0.000000000000000000, 0.000000000000000000 ) ) ;
#171 = DIRECTION ( 'NONE',  ( 1.000000000000000000, 0.000000000000000000, 0.000000000000000000 ) ) ;
#172 = ORIENTED_EDGE ( 'NONE', *, *, #544, .T. ) ;
#173 = CARTESIAN_POINT ( 'NONE',  ( 43.00000000000000000, 0.000000000000000000, -9.999999999999998224 ) ) ;
#174 = LINE ( 'NONE', #80, #249 ) ;
#175 = EDGE_CURVE ( 'NONE', #513, #285, #276, .T. ) ;
#176 = ORIENTED_EDGE ( 'NONE', *, *, #544, .F. ) ;
#177 = LINE ( 'NONE', #127, #301 ) ;
#178 = CARTESIAN_POINT ( 'NONE',  ( -5.404553950302037890, 15.00000000000000000, 0.000000000000000000 ) ) ;
#179 = VERTEX_POINT ( 'NONE', #556 ) ;
#180 = DIRECTION ( 'NONE',  ( 0.000000000000000000, -0.000000000000000000, 1.000000000000000000 ) ) ;
#181 = DIRECTION ( 'NONE',  ( 0.000000000000000000, 0.000000000000000000, 1.000000000000000000 ) ) ;
#182 = VERTEX_POINT ( 'NONE', #414 ) ;
#183 = DIRECTION ( 'NONE',  ( -1.000000000000000000, 0.000000000000000000, 0.000000000000000000 ) ) ;
#184 = DIRECTION ( 'NONE',  ( 0.000000000000000000, -0.000000000000000000, -1.000000000000000000 ) ) ;
#185 = VERTEX_POINT ( 'NONE', #321 ) ;
#186 = PERSON_AND_ORGANIZATION ( #530, #167 ) ;
#187 = CARTESIAN_POINT ( 'NONE',  ( -4.999999999999997335, 0.000000000000000000, 5.000000000000000000 ) ) ;
#188 = UNCERTAINTY_MEASURE_WITH_UNIT (LENGTH_MEASURE( 1.000000000000000082E-05 ), #199, 'distance_accuracy_value', 'NONE');
#189 = VECTOR ( 'NONE', #591, 1000.000000000000000 ) ;
#190 = ORIENTED_EDGE ( 'NONE', *, *, #281, .T. ) ;
#191 = EDGE_CURVE ( 'NONE', #416, #587, #324, .T. ) ;
#192 = FACE_OUTER_BOUND ( 'NONE', #113, .T. ) ;
#193 = DIRECTION ( 'NONE',  ( -0.000000000000000000, -0.000000000000000000, -1.000000000000000000 ) ) ;
#194 = ORIENTED_EDGE ( 'NONE', *, *, #164, .F. ) ;
#195 = COORDINATED_UNIVERSAL_TIME_OFFSET ( 8, 0, .BEHIND. ) ;
#196 = CARTESIAN_POINT ( 'NONE',  ( -5.404553950302037890, 15.00000000000000000, 5.000000000000000000 ) ) ;
#197 = EDGE_CURVE ( 'NONE', #344, #38, #464, .T. ) ;
#198 = VERTEX_POINT ( 'NONE', #125 ) ;
#199 =( LENGTH_UNIT ( ) NAMED_UNIT ( * ) SI_UNIT ( .MILLI., .METRE. ) );
#200 = ORIENTED_EDGE ( 'NONE', *, *, #267, .T. ) ;
#201 = VECTOR ( 'NONE', #224, 1000.000000000000000 ) ;
#202 = PERSON_AND_ORGANIZATION ( #530, #167 ) ;
#203 = VECTOR ( 'NONE', #601, 1000.000000000000000 ) ;
#204 = DIRECTION ( 'NONE',  ( 1.000000000000000000, 0.000000000000000000, 0.000000000000000000 ) ) ;
#205 = CARTESIAN_POINT ( 'NONE',  ( 43.00000000000000000, 15.00000000000000000, 5.000000000000000000 ) ) ;
#206 = ORIENTED_EDGE ( 'NONE', *, *, #598, .T. ) ;
#207 = CARTESIAN_POINT ( 'NONE',  ( 43.00000000000000000, 15.00000000000000000, 5.000000000000000000 ) ) ;
#208 = EDGE_CURVE ( 'NONE', #531, #1, #15, .T. ) ;
#209 = PLANE ( 'NONE',  #2 ) ;
#210 = CARTESIAN_POINT ( 'NONE',  ( -5.404553950302037890, 20.00000000000000000, 0.000000000000000000 ) ) ;
#211 = EDGE_CURVE ( 'NONE', #304, #589, #457, .T. ) ;
#212 = LINE ( 'NONE', #217, #549 ) ;
#213 = VERTEX_POINT ( 'NONE', #508 ) ;
#214 = PRODUCT_DEFINITION_SHAPE ( 'NONE', 'NONE',  #50 ) ;
#215 = VECTOR ( 'NONE', #453, 1000.000000000000000 ) ;
#216 = DIRECTION ( 'NONE',  ( -1.000000000000000000, -0.000000000000000000, -0.000000000000000000 ) ) ;
#217 = CARTESIAN_POINT ( 'NONE',  ( -43.00000000000000000, 15.00000000000000000, 5.000000000000000000 ) ) ;
#218 = VECTOR ( 'NONE', #71, 1000.000000000000000 ) ;
#219 = ORIENTED_EDGE ( 'NONE', *, *, #557, .T. ) ;
#220 = CARTESIAN_POINT ( 'NONE',  ( 40.07999999999999829, 10.00000000000000000, 0.000000000000000000 ) ) ;
#221 = CARTESIAN_POINT ( 'NONE',  ( -40.00000000000000000, 15.00000000000000000, 5.000000000000000000 ) ) ;
#222 = ORIENTED_EDGE ( 'NONE', *, *, #306, .T. ) ;
#223 = CARTESIAN_POINT ( 'NONE',  ( -5.404553950302037890, 20.00000000000000000, 0.000000000000000000 ) ) ;
#224 = DIRECTION ( 'NONE',  ( 0.000000000000000000, 0.000000000000000000, -1.000000000000000000 ) ) ;
#225 = EDGE_LOOP ( 'NONE', ( #576, #234, #126, #616 ) ) ;
#226 = EDGE_CURVE ( 'NONE', #291, #344, #500, .T. ) ;
#227 = LINE ( 'NONE', #323, #168 ) ;
#228 = VECTOR ( 'NONE', #489, 1000.000000000000000 ) ;
#229 = DIRECTION ( 'NONE',  ( 0.000000000000000000, 0.000000000000000000, 1.000000000000000000 ) ) ;
#230 = ORIENTED_EDGE ( 'NONE', *, *, #157, .T. ) ;
#231 = CC_DESIGN_SECURITY_CLASSIFICATION ( #467, ( #259 ) ) ;
#232 = FACE_OUTER_BOUND ( 'NONE', #476, .T. ) ;
#233 = FACE_OUTER_BOUND ( 'NONE', #458, .T. ) ;
#234 = ORIENTED_EDGE ( 'NONE', *, *, #281, .F. ) ;
#235 = CARTESIAN_POINT ( 'NONE',  ( -40.00000000000000000, 0.000000000000000000, 5.000000000000000000 ) ) ;
#236 = LINE ( 'NONE', #40, #397 ) ;
#237 = ORIENTED_EDGE ( 'NONE', *, *, #302, .F. ) ;
#238 = APPLICATION_CONTEXT ( 'configuration controlled 3d designs of mechanical parts and assemblies' ) ;
#239 = CARTESIAN_POINT ( 'NONE',  ( -5.404553950302037890, 20.00000000000000000, 0.000000000000000000 ) ) ;
#240 = CARTESIAN_POINT ( 'NONE',  ( 43.00000000000000000, 15.00000000000000000, -9.999999999999998224 ) ) ;
#241 = VECTOR ( 'NONE', #313, 1000.000000000000000 ) ;
#242 = ORIENTED_EDGE ( 'NONE', *, *, #191, .T. ) ;
#243 = PLANE ( 'NONE',  #309 ) ;
#244 = EDGE_CURVE ( 'NONE', #145, #136, #560, .T. ) ;
#245 = CARTESIAN_POINT ( 'NONE',  ( 4.999999999999997335, 20.00000000000000000, 5.000000000000000000 ) ) ;
#246 = ORIENTED_EDGE ( 'NONE', *, *, #211, .F. ) ;
#247 = ORIENTED_EDGE ( 'NONE', *, *, #175, .F. ) ;
#248 = ORIENTED_EDGE ( 'NONE', *, *, #61, .F. ) ;
#249 = VECTOR ( 'NONE', #402, 1000.000000000000000 ) ;
#250 = CALENDAR_DATE ( 2026, 30, 5 ) ;
#251 = AXIS2_PLACEMENT_3D ( 'NONE', #150, #97, #3 ) ;
#252 = LINE ( 'NONE', #539, #117 ) ;
#253 = ORIENTED_EDGE ( 'NONE', *, *, #153, .F. ) ;
#254 = LINE ( 'NONE', #586, #318 ) ;
#255 = ORIENTED_EDGE ( 'NONE', *, *, #153, .T. ) ;
#256 = COORDINATED_UNIVERSAL_TIME_OFFSET ( 8, 0, .BEHIND. ) ;
#257 = LINE ( 'NONE', #207, #159 ) ;
#258 = APPROVAL_STATUS ( 'not_yet_approved' ) ;
#259 = PRODUCT_DEFINITION_FORMATION_WITH_SPECIFIED_SOURCE ( 'ANY', '', #17, .NOT_KNOWN. ) ;
#260 = EDGE_CURVE ( 'NONE', #213, #387, #212, .T. ) ;
#261 = CARTESIAN_POINT ( 'NONE',  ( 40.07999999999999829, 10.00000000000000000, -9.999999999999998224 ) ) ;
#262 = LINE ( 'NONE', #550, #597 ) ;
#263 = ORIENTED_EDGE ( 'NONE', *, *, #95, .F. ) ;
#264 = DIRECTION ( 'NONE',  ( -1.000000000000000000, -0.000000000000000000, -0.000000000000000000 ) ) ;
#265 = CARTESIAN_POINT ( 'NONE',  ( 5.000000000000000000, -64.99999999999995737, 5.000000000000000000 ) ) ;
#266 = EDGE_LOOP ( 'NONE', ( #364, #337, #96, #274, #620, #60 ) ) ;
#267 = EDGE_CURVE ( 'NONE', #145, #198, #411, .T. ) ;
#268 = VECTOR ( 'NONE', #204, 1000.000000000000000 ) ;
#269 = DIRECTION ( 'NONE',  ( -0.000000000000000000, -1.000000000000000000, -0.000000000000000000 ) ) ;
#270 = CARTESIAN_POINT ( 'NONE',  ( 4.999999999999997335, 15.00000000000000000, 0.000000000000000000 ) ) ;
#271 = ORIENTED_EDGE ( 'NONE', *, *, #557, .F. ) ;
#272 = PLANE ( 'NONE',  #406 ) ;
#273 = PLANE ( 'NONE',  #590 ) ;
#274 = ORIENTED_EDGE ( 'NONE', *, *, #100, .F. ) ;
#275 = LINE ( 'NONE', #326, #56 ) ;
#276 = LINE ( 'NONE', #603, #351 ) ;
#277 = ORIENTED_EDGE ( 'NONE', *, *, #164, .T. ) ;
#278 = CARTESIAN_POINT ( 'NONE',  ( -40.07999999999999829, 10.00000000000000000, 0.000000000000000000 ) ) ;
#279 = VECTOR ( 'NONE', #449, 1000.000000000000000 ) ;
#280 = LINE ( 'NONE', #339, #64 ) ;
#281 = EDGE_CURVE ( 'NONE', #531, #375, #174, .T. ) ;
#282 = ORIENTED_EDGE ( 'NONE', *, *, #106, .T. ) ;
#283 = APPROVAL_STATUS ( 'not_yet_approved' ) ;
#284 = DIRECTION ( 'NONE',  ( 1.000000000000000000, 0.000000000000000000, 0.000000000000000000 ) ) ;
#285 = VERTEX_POINT ( 'NONE', #367 ) ;
#286 = DIRECTION ( 'NONE',  ( 0.000000000000000000, 0.000000000000000000, -1.000000000000000000 ) ) ;
#287 = VERTEX_POINT ( 'NONE', #553 ) ;
#288 = ADVANCED_FACE ( 'NONE', ( #128 ), #273, .F. ) ;
#289 = FACE_OUTER_BOUND ( 'NONE', #317, .T. ) ;
#290 = DIRECTION ( 'NONE',  ( -1.000000000000000000, -0.000000000000000000, -0.000000000000000000 ) ) ;
#291 = VERTEX_POINT ( 'NONE', #27 ) ;
#292 = ORIENTED_EDGE ( 'NONE', *, *, #311, .F. ) ;
#293 = CC_DESIGN_PERSON_AND_ORGANIZATION_ASSIGNMENT ( #63, #543, ( #467 ) ) ;
#294 = DIRECTION ( 'NONE',  ( 0.000000000000000000, -0.000000000000000000, 1.000000000000000000 ) ) ;
#295 = CARTESIAN_POINT ( 'NONE',  ( -4.999999999999997335, 0.000000000000000000, 5.000000000000000000 ) ) ;
#296 = SHAPE_DEFINITION_REPRESENTATION ( #214, #386 ) ;
#297 = DIRECTION ( 'NONE',  ( -1.000000000000000000, 0.000000000000000000, 0.000000000000000000 ) ) ;
#298 = AXIS2_PLACEMENT_3D ( 'NONE', #578, #472, #101 ) ;
#299 = ORIENTED_EDGE ( 'NONE', *, *, #327, .F. ) ;
#300 = DATE_AND_TIME ( #68, #496 ) ;
#301 = VECTOR ( 'NONE', #366, 1000.000000000000000 ) ;
#302 = EDGE_CURVE ( 'NONE', #70, #409, #370, .T. ) ;
#303 = LINE ( 'NONE', #210, #140 ) ;
#304 = VERTEX_POINT ( 'NONE', #420 ) ;
#305 = LINE ( 'NONE', #158, #404 ) ;
#306 = EDGE_CURVE ( 'NONE', #285, #390, #69, .T. ) ;
#307 = DIRECTION ( 'NONE',  ( 1.000000000000000000, 1.387778780781445873E-15, 0.000000000000000000 ) ) ;
#308 = AXIS2_PLACEMENT_3D ( 'NONE', #331, #94, #37 ) ;
#309 = AXIS2_PLACEMENT_3D ( 'NONE', #518, #632, #583 ) ;
#310 = LINE ( 'NONE', #599, #582 ) ;
#311 = EDGE_CURVE ( 'NONE', #387, #185, #262, .T. ) ;
#312 = LINE ( 'NONE', #499, #218 ) ;
#313 = DIRECTION ( 'NONE',  ( 0.000000000000000000, 0.000000000000000000, -1.000000000000000000 ) ) ;
#314 = ORIENTED_EDGE ( 'NONE', *, *, #42, .T. ) ;
#315 = DIRECTION ( 'NONE',  ( 1.000000000000000000, 0.000000000000000000, -0.000000000000000000 ) ) ;
#316 = CARTESIAN_POINT ( 'NONE',  ( 40.07999999999999829, 10.00000000000000000, 0.000000000000000000 ) ) ;
#317 = EDGE_LOOP ( 'NONE', ( #282, #628, #129, #542 ) ) ;
#318 = VECTOR ( 'NONE', #352, 1000.000000000000000 ) ;
#319 = LINE ( 'NONE', #463, #517 ) ;
#320 = APPROVAL ( #258, 'UNSPECIFIED' ) ;
#321 = CARTESIAN_POINT ( 'NONE',  ( -43.00000000000000000, 15.00000000000000000, -9.999999999999998224 ) ) ;
#322 = EDGE_LOOP ( 'NONE', ( #526, #78, #247, #501, #631, #277 ) ) ;
#323 = CARTESIAN_POINT ( 'NONE',  ( 43.00000000000000000, 0.000000000000000000, -9.999999999999998224 ) ) ;
#324 = LINE ( 'NONE', #607, #505 ) ;
#325 = ORIENTED_EDGE ( 'NONE', *, *, #460, .F. ) ;
#326 = CARTESIAN_POINT ( 'NONE',  ( -43.00000000000000000, 0.000000000000000000, -9.999999999999998224 ) ) ;
#327 = EDGE_CURVE ( 'NONE', #182, #565, #310, .T. ) ;
#328 = CARTESIAN_POINT ( 'NONE',  ( -43.00000000000000000, 15.00000000000000000, 5.000000000000000000 ) ) ;
#329 = ORIENTED_EDGE ( 'NONE', *, *, #353, .F. ) ;
#330 = VECTOR ( 'NONE', #229, 1000.000000000000000 ) ;
#331 = CARTESIAN_POINT ( 'NONE',  ( 0.000000000000000000, 0.000000000000000000, 0.000000000000000000 ) ) ;
#332 = ORIENTED_EDGE ( 'NONE', *, *, #506, .F. ) ;
#333 =( GEOMETRIC_REPRESENTATION_CONTEXT ( 3 ) GLOBAL_UNCERTAINTY_ASSIGNED_CONTEXT ( ( #188 ) ) GLOBAL_UNIT_ASSIGNED_CONTEXT ( ( #199, #103, #93 ) ) REPRESENTATION_CONTEXT ( 'NONE', 'WORKASPACE' ) );
#334 = DATE_TIME_ROLE ( 'creation_date' ) ;
#335 = CARTESIAN_POINT ( 'NONE',  ( 43.00000000000000000, 0.000000000000000000, 5.000000000000000000 ) ) ;
#336 = EDGE_CURVE ( 'NONE', #470, #141, #360, .T. ) ;
#337 = ORIENTED_EDGE ( 'NONE', *, *, #538, .F. ) ;
#338 = PLANE ( 'NONE',  #22 ) ;
#339 = CARTESIAN_POINT ( 'NONE',  ( -40.00000000000000000, 10.00000000000000000, 0.000000000000000000 ) ) ;
#340 = ORIENTED_EDGE ( 'NONE', *, *, #408, .F. ) ;
#341 = DIRECTION ( 'NONE',  ( -1.387778780781446070E-15, 1.000000000000000000, 0.000000000000000000 ) ) ;
#342 = VECTOR ( 'NONE', #529, 1000.000000000000000 ) ;
#343 = EDGE_CURVE ( 'NONE', #581, #390, #20, .T. ) ;
#344 = VERTEX_POINT ( 'NONE', #245 ) ;
#345 = DIRECTION ( 'NONE',  ( 0.000000000000000000, 0.000000000000000000, 1.000000000000000000 ) ) ;
#346 = DIRECTION ( 'NONE',  ( -0.000000000000000000, -1.000000000000000000, -0.000000000000000000 ) ) ;
#347 = PERSON_AND_ORGANIZATION_ROLE ( 'creator' ) ;
#348 = LINE ( 'NONE', #59, #430 ) ;
#349 = DATE_AND_TIME ( #250, #613 ) ;
#350 = CARTESIAN_POINT ( 'NONE',  ( -5.404553950302037890, 15.00000000000000000, 0.000000000000000000 ) ) ;
#351 = VECTOR ( 'NONE', #498, 1000.000000000000000 ) ;
#352 = DIRECTION ( 'NONE',  ( 1.000000000000000000, 1.387778780781445873E-15, 0.000000000000000000 ) ) ;
#353 = EDGE_CURVE ( 'NONE', #587, #25, #435, .T. ) ;
#354 = DATE_TIME_ROLE ( 'classification_date' ) ;
#355 = DIRECTION ( 'NONE',  ( -1.334402673828313955E-17, 1.000000000000000000, -0.000000000000000000 ) ) ;
#356 = APPROVAL ( #43, 'UNSPECIFIED' ) ;
#357 = DIRECTION ( 'NONE',  ( 0.000000000000000000, -1.000000000000000000, 0.000000000000000000 ) ) ;
#358 = VECTOR ( 'NONE', #84, 1000.000000000000000 ) ;
#359 = CC_DESIGN_APPROVAL ( #365, ( #50 ) ) ;
#360 = LINE ( 'NONE', #265, #215 ) ;
#361 = ORIENTED_EDGE ( 'NONE', *, *, #392, .F. ) ;
#362 = CARTESIAN_POINT ( 'NONE',  ( -40.07999999999999829, 0.000000000000000000, 0.000000000000000000 ) ) ;
#363 = LINE ( 'NONE', #132, #439 ) ;
#364 = ORIENTED_EDGE ( 'NONE', *, *, #31, .T. ) ;
#365 = APPROVAL ( #283, 'UNSPECIFIED' ) ;
#366 = DIRECTION ( 'NONE',  ( -0.000000000000000000, -0.000000000000000000, 1.000000000000000000 ) ) ;
#367 = CARTESIAN_POINT ( 'NONE',  ( -4.999999999999997335, 0.000000000000000000, 0.000000000000000000 ) ) ;
#368 = ORIENTED_EDGE ( 'NONE', *, *, #244, .T. ) ;
#369 = FACE_OUTER_BOUND ( 'NONE', #605, .T. ) ;
#370 = LINE ( 'NONE', #178, #330 ) ;
#371 = ORIENTED_EDGE ( 'NONE', *, *, #524, .T. ) ;
#372 = ADVANCED_FACE ( 'NONE', ( #48 ), #382, .F. ) ;
#373 = LINE ( 'NONE', #134, #391 ) ;
#374 = DIRECTION ( 'NONE',  ( -0.000000000000000000, 1.000000000000000000, -0.000000000000000000 ) ) ;
#375 = VERTEX_POINT ( 'NONE', #475 ) ;
#376 = PLANE ( 'NONE',  #389 ) ;
#377 = ORIENTED_EDGE ( 'NONE', *, *, #175, .T. ) ;
#378 = EDGE_CURVE ( 'NONE', #213, #513, #236, .T. ) ;
#379 = DIRECTION ( 'NONE',  ( 1.000000000000000000, 0.000000000000000000, -0.000000000000000000 ) ) ;
#380 = ORIENTED_EDGE ( 'NONE', *, *, #480, .T. ) ;
#381 = PERSON_AND_ORGANIZATION_ROLE ( 'creator' ) ;
#382 = PLANE ( 'NONE',  #298 ) ;
#383 = ORIENTED_EDGE ( 'NONE', *, *, #197, .T. ) ;
#384 = FACE_OUTER_BOUND ( 'NONE', #322, .T. ) ;
#385 = CC_DESIGN_PERSON_AND_ORGANIZATION_ASSIGNMENT ( #186, #381, ( #50 ) ) ;
#386 = ADVANCED_BREP_SHAPE_REPRESENTATION ( 'EDM Wire Home Calibration Part 1 of 2', ( #604, #251 ), #333 ) ;
#387 = VERTEX_POINT ( 'NONE', #328 ) ;
#388 = PERSON_AND_ORGANIZATION ( #530, #167 ) ;
#389 = AXIS2_PLACEMENT_3D ( 'NONE', #570, #521, #286 ) ;
#390 = VERTEX_POINT ( 'NONE', #148 ) ;
#391 = VECTOR ( 'NONE', #514, 1000.000000000000000 ) ;
#392 = EDGE_CURVE ( 'NONE', #565, #375, #44, .T. ) ;
#393 = LINE ( 'NONE', #588, #540 ) ;
#394 = CARTESIAN_POINT ( 'NONE',  ( 5.000000000000000000, -64.99999999999995737, 0.000000000000000000 ) ) ;
#395 = ADVANCED_FACE ( 'NONE', ( #515 ), #427, .F. ) ;
#396 = PLANE ( 'NONE',  #165 ) ;
#397 = VECTOR ( 'NONE', #284, 1000.000000000000000 ) ;
#398 = LINE ( 'NONE', #295, #279 ) ;
#399 = SECURITY_CLASSIFICATION_LEVEL ( 'unclassified' ) ;
#400 = CC_DESIGN_PERSON_AND_ORGANIZATION_ASSIGNMENT ( #160, #493, ( #259 ) ) ;
#401 = DIRECTION ( 'NONE',  ( 0.000000000000000000, 0.000000000000000000, 1.000000000000000000 ) ) ;
#402 = DIRECTION ( 'NONE',  ( -0.000000000000000000, -1.000000000000000000, -0.000000000000000000 ) ) ;
#403 = ORIENTED_EDGE ( 'NONE', *, *, #378, .T. ) ;
#404 = VECTOR ( 'NONE', #115, 1000.000000000000000 ) ;
#405 = DIRECTION ( 'NONE',  ( 1.000000000000000000, 0.000000000000000000, 0.000000000000000000 ) ) ;
#406 = AXIS2_PLACEMENT_3D ( 'NONE', #223, #413, #23 ) ;
#407 = CARTESIAN_POINT ( 'NONE',  ( -4.999999999999997335, -64.99999999999997158, 5.000000000000000000 ) ) ;
#408 = EDGE_CURVE ( 'NONE', #531, #304, #280, .T. ) ;
#409 = VERTEX_POINT ( 'NONE', #196 ) ;
#410 = PLANE ( 'NONE',  #551 ) ;
#411 = LINE ( 'NONE', #270, #88 ) ;
#412 = ORIENTED_EDGE ( 'NONE', *, *, #61, .T. ) ;
#413 = DIRECTION ( 'NONE',  ( 0.000000000000000000, 0.000000000000000000, 1.000000000000000000 ) ) ;
#414 = CARTESIAN_POINT ( 'NONE',  ( 4.999999999999999112, 0.000000000000000000, 5.000000000000000000 ) ) ;
#415 = ADVANCED_FACE ( 'NONE', ( #478 ), #622, .F. ) ;
#416 = VERTEX_POINT ( 'NONE', #335 ) ;
#417 = VECTOR ( 'NONE', #171, 1000.000000000000000 ) ;
#418 = FACE_OUTER_BOUND ( 'NONE', #462, .T. ) ;
#419 = APPROVAL_PERSON_ORGANIZATION ( #595, #320, #55 ) ;
#420 = CARTESIAN_POINT ( 'NONE',  ( -40.07999999999999829, 10.00000000000000000, 0.000000000000000000 ) ) ;
#421 = ORIENTED_EDGE ( 'NONE', *, *, #10, .F. ) ;
#422 = CARTESIAN_POINT ( 'NONE',  ( 4.999999999999997335, 20.00000000000000000, 0.000000000000000000 ) ) ;
#423 = ADVANCED_FACE ( 'NONE', ( #525 ), #575, .F. ) ;
#424 = FACE_OUTER_BOUND ( 'NONE', #432, .T. ) ;
#425 = ORIENTED_EDGE ( 'NONE', *, *, #95, .T. ) ;
#426 = CALENDAR_DATE ( 2026, 30, 5 ) ;
#427 = PLANE ( 'NONE',  #19 ) ;
#428 = ORIENTED_EDGE ( 'NONE', *, *, #226, .F. ) ;
#429 = COORDINATED_UNIVERSAL_TIME_OFFSET ( 8, 0, .BEHIND. ) ;
#430 = VECTOR ( 'NONE', #355, 1000.000000000000000 ) ;
#431 = CARTESIAN_POINT ( 'NONE',  ( 4.999999999999999112, 0.000000000000000000, 0.000000000000000000 ) ) ;
#432 = EDGE_LOOP ( 'NONE', ( #361, #473, #104, #169, #41, #479, #340, #190 ) ) ;
#433 = CC_DESIGN_PERSON_AND_ORGANIZATION_ASSIGNMENT ( #388, #39, ( #17 ) ) ;
#434 = APPLICATION_PROTOCOL_DEFINITION ( 'international standard', 'config_control_design', 1994, #238 ) ;
#435 = LINE ( 'NONE', #240, #611 ) ;
#436 = EDGE_LOOP ( 'NONE', ( #149, #368, #451, #12, #292, #255, #237, #176 ) ) ;
#437 = ADVANCED_FACE ( 'NONE', ( #424 ), #98, .T. ) ;
#438 = ORIENTED_EDGE ( 'NONE', *, *, #53, .T. ) ;
#439 = VECTOR ( 'NONE', #450, 1000.000000000000000 ) ;
#440 = LINE ( 'NONE', #57, #268 ) ;
#441 = AXIS2_PLACEMENT_3D ( 'NONE', #18, #456, #180 ) ;
#442 = APPROVAL_DATE_TIME ( #300, #320 ) ;
#443 = FACE_OUTER_BOUND ( 'NONE', #580, .T. ) ;
#444 = ADVANCED_FACE ( 'NONE', ( #567 ), #135, .T. ) ;
#445 = LINE ( 'NONE', #9, #76 ) ;
#446 = CARTESIAN_POINT ( 'NONE',  ( 4.999999999999997335, 20.00000000000000000, 0.000000000000000000 ) ) ;
#447 = EDGE_LOOP ( 'NONE', ( #222, #568, #263, #377 ) ) ;
#448 = ADVANCED_FACE ( 'NONE', ( #233 ), #376, .F. ) ;
#449 = DIRECTION ( 'NONE',  ( 0.000000000000000000, -1.000000000000000000, 0.000000000000000000 ) ) ;
#450 = DIRECTION ( 'NONE',  ( 1.000000000000000000, -0.000000000000000000, -0.000000000000000000 ) ) ;
#451 = ORIENTED_EDGE ( 'NONE', *, *, #524, .F. ) ;
#452 = CARTESIAN_POINT ( 'NONE',  ( -5.404553950302037890, 15.00000000000000000, 0.000000000000000000 ) ) ;
#453 = DIRECTION ( 'NONE',  ( -0.000000000000000000, -0.000000000000000000, -1.000000000000000000 ) ) ;
#454 = ORIENTED_EDGE ( 'NONE', *, *, #147, .F. ) ;
#455 = CLOSED_SHELL ( 'NONE', ( #288, #395, #483, #617, #415, #633, #14, #372, #437, #444, #602, #130, #423, #90, #579, #486, #448, #548 ) ) ;
#456 = DIRECTION ( 'NONE',  ( 0.000000000000000000, 1.000000000000000000, 0.000000000000000000 ) ) ;
#457 = LINE ( 'NONE', #503, #201 ) ;
#458 = EDGE_LOOP ( 'NONE', ( #490, #73, #600, #314 ) ) ;
#459 = DIRECTION ( 'NONE',  ( 0.000000000000000000, 0.000000000000000000, -1.000000000000000000 ) ) ;
#460 = EDGE_CURVE ( 'NONE', #25, #185, #319, .T. ) ;
#461 = CARTESIAN_POINT ( 'NONE',  ( 0.000000000000000000, 15.00000000000000000, 0.000000000000000000 ) ) ;
#462 = EDGE_LOOP ( 'NONE', ( #172, #554, #571, #58 ) ) ;
#463 = CARTESIAN_POINT ( 'NONE',  ( -40.00000000000000000, 15.00000000000000000, -9.999999999999998224 ) ) ;
#464 = LINE ( 'NONE', #511, #46 ) ;
#465 = ORIENTED_EDGE ( 'NONE', *, *, #353, .T. ) ;
#466 = DIRECTION ( 'NONE',  ( -0.000000000000000000, -1.000000000000000000, -0.000000000000000000 ) ) ;
#467 = SECURITY_CLASSIFICATION ( '', '', #399 ) ;
#468 = VECTOR ( 'NONE', #466, 1000.000000000000000 ) ;
#469 = CARTESIAN_POINT ( 'NONE',  ( 0.000000000000000000, 10.00000000000000000, 0.000000000000000000 ) ) ;
#470 = VERTEX_POINT ( 'NONE', #507 ) ;
#471 = APPROVAL_ROLE ( '' ) ;
#472 = DIRECTION ( 'NONE',  ( 0.000000000000000000, 0.000000000000000000, -1.000000000000000000 ) ) ;
#473 = ORIENTED_EDGE ( 'NONE', *, *, #53, .F. ) ;
#474 = PERSON_AND_ORGANIZATION ( #530, #167 ) ;
#475 = CARTESIAN_POINT ( 'NONE',  ( 40.07999999999999829, 0.000000000000000000, 0.000000000000000000 ) ) ;
#476 = EDGE_LOOP ( 'NONE', ( #200, #421, #81, #412 ) ) ;
#477 = PERSON_AND_ORGANIZATION ( #530, #167 ) ;
#478 = FACE_OUTER_BOUND ( 'NONE', #447, .T. ) ;
#479 = ORIENTED_EDGE ( 'NONE', *, *, #563, .F. ) ;
#480 = EDGE_CURVE ( 'NONE', #522, #33, #124, .T. ) ;
#481 = ORIENTED_EDGE ( 'NONE', *, *, #211, .T. ) ;
#482 = DIRECTION ( 'NONE',  ( -1.000000000000000000, -1.334402673828313955E-17, 0.000000000000000000 ) ) ;
#483 = ADVANCED_FACE ( 'NONE', ( #369 ), #555, .F. ) ;
#484 = AXIS2_PLACEMENT_3D ( 'NONE', #596, #541, #401 ) ;
#485 = DIRECTION ( 'NONE',  ( -0.000000000000000000, -1.000000000000000000, -0.000000000000000000 ) ) ;
#486 = ADVANCED_FACE ( 'NONE', ( #418 ), #272, .F. ) ;
#487 = AXIS2_PLACEMENT_3D ( 'NONE', #26, #79, #315 ) ;
#488 = ORIENTED_EDGE ( 'NONE', *, *, #408, .T. ) ;
#489 = DIRECTION ( 'NONE',  ( -0.000000000000000000, -1.000000000000000000, -0.000000000000000000 ) ) ;
#490 = ORIENTED_EDGE ( 'NONE', *, *, #302, .T. ) ;
#491 = EDGE_CURVE ( 'NONE', #156, #213, #275, .T. ) ;
#492 = CARTESIAN_POINT ( 'NONE',  ( -43.00000000000000000, 0.000000000000000000, -9.999999999999998224 ) ) ;
#493 = PERSON_AND_ORGANIZATION_ROLE ( 'design_supplier' ) ;
#494 = AXIS2_PLACEMENT_3D ( 'NONE', #144, #615, #181 ) ;
#495 = DIRECTION ( 'NONE',  ( 0.000000000000000000, 0.000000000000000000, -1.000000000000000000 ) ) ;
#496 = LOCAL_TIME ( 15, 50, 42.00000000000000000, #256 ) ;
#497 = EDGE_CURVE ( 'NONE', #522, #285, #36, .T. ) ;
#498 = DIRECTION ( 'NONE',  ( -0.000000000000000000, -0.000000000000000000, -1.000000000000000000 ) ) ;
#499 = CARTESIAN_POINT ( 'NONE',  ( -40.00000000000000000, 10.00000000000000000, -9.999999999999998224 ) ) ;
#500 = LINE ( 'NONE', #24, #358 ) ;
#501 = ORIENTED_EDGE ( 'NONE', *, *, #378, .F. ) ;
#502 = DIRECTION ( 'NONE',  ( 0.000000000000000000, 0.000000000000000000, 1.000000000000000000 ) ) ;
#503 = CARTESIAN_POINT ( 'NONE',  ( -40.07999999999999829, 10.00000000000000000, 0.000000000000000000 ) ) ;
#504 = ORIENTED_EDGE ( 'NONE', *, *, #491, .T. ) ;
#505 = VECTOR ( 'NONE', #564, 1000.000000000000000 ) ;
#506 = EDGE_CURVE ( 'NONE', #589, #33, #562, .T. ) ;
#507 = CARTESIAN_POINT ( 'NONE',  ( 5.000000000000000000, -64.99999999999995737, 5.000000000000000000 ) ) ;
#508 = CARTESIAN_POINT ( 'NONE',  ( -43.00000000000000000, 0.000000000000000000, 5.000000000000000000 ) ) ;
#509 = EDGE_LOOP ( 'NONE', ( #383, #45, #206, #535 ) ) ;
#510 = CARTESIAN_POINT ( 'NONE',  ( -40.07999999999999829, 0.000000000000000000, -0.000000000000000000 ) ) ;
#511 = CARTESIAN_POINT ( 'NONE',  ( 4.999999999999997335, 20.00000000000000000, 0.000000000000000000 ) ) ;
#512 = CC_DESIGN_PERSON_AND_ORGANIZATION_ASSIGNMENT ( #202, #347, ( #259 ) ) ;
#513 = VERTEX_POINT ( 'NONE', #618 ) ;
#514 = DIRECTION ( 'NONE',  ( -1.334402673828313955E-17, 1.000000000000000000, -0.000000000000000000 ) ) ;
#515 = FACE_OUTER_BOUND ( 'NONE', #266, .T. ) ;
#516 = ORIENTED_EDGE ( 'NONE', *, *, #594, .T. ) ;
#517 = VECTOR ( 'NONE', #216, 1000.000000000000000 ) ;
#518 = CARTESIAN_POINT ( 'NONE',  ( 43.00000000000000000, 0.000000000000000000, 0.000000000000000000 ) ) ;
#519 = LOCAL_TIME ( 15, 50, 42.00000000000000000, #573 ) ;
#520 = VECTOR ( 'NONE', #614, 1000.000000000000000 ) ;
#521 = DIRECTION ( 'NONE',  ( 1.000000000000000000, 0.000000000000000000, 0.000000000000000000 ) ) ;
#522 = VERTEX_POINT ( 'NONE', #362 ) ;
#523 = CARTESIAN_POINT ( 'NONE',  ( -4.999999999999997335, -64.99999999999997158, 5.000000000000000000 ) ) ;
#524 = EDGE_CURVE ( 'NONE', #25, #136, #177, .T. ) ;
#525 = FACE_OUTER_BOUND ( 'NONE', #16, .T. ) ;
#526 = ORIENTED_EDGE ( 'NONE', *, *, #480, .F. ) ;
#527 = APPLICATION_CONTEXT ( 'configuration controlled 3d designs of mechanical parts and assemblies' ) ;
#528 = PLANE ( 'NONE',  #5 ) ;
#529 = DIRECTION ( 'NONE',  ( 1.000000000000000000, 0.000000000000000000, 0.000000000000000000 ) ) ;
#530 = PERSON ( 'UNSPECIFIED', 'UNSPECIFIED', 'UNSPECIFIED', ('UNSPECIFIED'), ('UNSPECIFIED'), ('UNSPECIFIED') ) ;
#531 = VERTEX_POINT ( 'NONE', #220 ) ;
#532 = EDGE_CURVE ( 'NONE', #1, #179, #29, .T. ) ;
#533 = LINE ( 'NONE', #239, #120 ) ;
#534 = APPROVAL_PERSON_ORGANIZATION ( #474, #356, #625 ) ;
#535 = ORIENTED_EDGE ( 'NONE', *, *, #226, .T. ) ;
#536 = LINE ( 'NONE', #146, #574 ) ;
#537 = CARTESIAN_POINT ( 'NONE',  ( 4.999999999999999112, 0.000000000000000000, 5.000000000000000000 ) ) ;
#538 = EDGE_CURVE ( 'NONE', #587, #179, #227, .T. ) ;
#539 = CARTESIAN_POINT ( 'NONE',  ( -4.999999999999997335, -64.99999999999997158, 5.000000000000000000 ) ) ;
#540 = VECTOR ( 'NONE', #485, 1000.000000000000000 ) ;
#541 = DIRECTION ( 'NONE',  ( -1.000000000000000000, 0.000000000000000000, 0.000000000000000000 ) ) ;
#542 = ORIENTED_EDGE ( 'NONE', *, *, #343, .T. ) ;
#543 = PERSON_AND_ORGANIZATION_ROLE ( 'classification_officer' ) ;
#544 = EDGE_CURVE ( 'NONE', #198, #70, #566, .T. ) ;
#545 = CARTESIAN_POINT ( 'NONE',  ( 4.999999999999997335, 15.00000000000000000, 5.000000000000000000 ) ) ;
#546 = COORDINATED_UNIVERSAL_TIME_OFFSET ( 8, 0, .BEHIND. ) ;
#547 = CARTESIAN_POINT ( 'NONE',  ( 40.07999999999999829, 0.000000000000000000, 0.000000000000000000 ) ) ;
#548 = ADVANCED_FACE ( 'NONE', ( #559 ), #82, .T. ) ;
#549 = VECTOR ( 'NONE', #30, 1000.000000000000000 ) ;
#550 = CARTESIAN_POINT ( 'NONE',  ( -43.00000000000000000, 15.00000000000000000, -9.999999999999998224 ) ) ;
#551 = AXIS2_PLACEMENT_3D ( 'NONE', #422, #183, #552 ) ;
#552 = DIRECTION ( 'NONE',  ( 0.000000000000000000, 0.000000000000000000, 1.000000000000000000 ) ) ;
#553 = CARTESIAN_POINT ( 'NONE',  ( -5.404553950302037890, 20.00000000000000000, 0.000000000000000000 ) ) ;
#554 = ORIENTED_EDGE ( 'NONE', *, *, #42, .F. ) ;
#555 = PLANE ( 'NONE',  #487 ) ;
#556 = CARTESIAN_POINT ( 'NONE',  ( 40.07999999999999829, 0.000000000000000000, -9.999999999999998224 ) ) ;
#557 = EDGE_CURVE ( 'NONE', #470, #182, #373, .T. ) ;
#558 = ORIENTED_EDGE ( 'NONE', *, *, #260, .T. ) ;
#559 = FACE_OUTER_BOUND ( 'NONE', #509, .T. ) ;
#560 = LINE ( 'NONE', #221, #417 ) ;
#561 = ORIENTED_EDGE ( 'NONE', *, *, #147, .T. ) ;
#562 = LINE ( 'NONE', #609, #468 ) ;
#563 = EDGE_CURVE ( 'NONE', #304, #522, #86, .T. ) ;
#564 = DIRECTION ( 'NONE',  ( 0.000000000000000000, 0.000000000000000000, -1.000000000000000000 ) ) ;
#565 = VERTEX_POINT ( 'NONE', #170 ) ;
#566 = LINE ( 'NONE', #452, #520 ) ;
#567 = FACE_OUTER_BOUND ( 'NONE', #89, .T. ) ;
#568 = ORIENTED_EDGE ( 'NONE', *, *, #343, .F. ) ;
#569 = APPLICATION_PROTOCOL_DEFINITION ( 'international standard', 'config_control_design', 1994, #527 ) ;
#570 = CARTESIAN_POINT ( 'NONE',  ( -5.404553950302037890, 20.00000000000000000, 0.000000000000000000 ) ) ;
#571 = ORIENTED_EDGE ( 'NONE', *, *, #626, .F. ) ;
#572 = VECTOR ( 'NONE', #193, 1000.000000000000000 ) ;
#573 = COORDINATED_UNIVERSAL_TIME_OFFSET ( 8, 0, .BEHIND. ) ;
#574 = VECTOR ( 'NONE', #345, 1000.000000000000000 ) ;
#575 = PLANE ( 'NONE',  #494 ) ;
#576 = ORIENTED_EDGE ( 'NONE', *, *, #31, .F. ) ;
#577 = DIRECTION ( 'NONE',  ( -1.000000000000000000, -0.000000000000000000, -0.000000000000000000 ) ) ;
#578 = CARTESIAN_POINT ( 'NONE',  ( 0.000000000000000000, 0.000000000000000000, 5.000000000000000000 ) ) ;
#579 = ADVANCED_FACE ( 'NONE', ( #232 ), #410, .F. ) ;
#580 = EDGE_LOOP ( 'NONE', ( #438, #299, #271, #49 ) ) ;
#581 = VERTEX_POINT ( 'NONE', #606 ) ;
#582 = VECTOR ( 'NONE', #166, 1000.000000000000000 ) ;
#583 = DIRECTION ( 'NONE',  ( 0.000000000000000000, 0.000000000000000000, -1.000000000000000000 ) ) ;
#584 = PRODUCT_RELATED_PRODUCT_CATEGORY ( 'detail', '', ( #17 ) ) ;
#585 = ORIENTED_EDGE ( 'NONE', *, *, #563, .T. ) ;
#586 = CARTESIAN_POINT ( 'NONE',  ( -4.999999999999997335, -64.99999999999997158, 0.000000000000000000 ) ) ;
#587 = VERTEX_POINT ( 'NONE', #173 ) ;
#588 = CARTESIAN_POINT ( 'NONE',  ( 4.999999999999997335, 20.00000000000000000, 5.000000000000000000 ) ) ;
#589 = VERTEX_POINT ( 'NONE', #121 ) ;
#590 = AXIS2_PLACEMENT_3D ( 'NONE', #461, #72, #122 ) ;
#591 = DIRECTION ( 'NONE',  ( -0.000000000000000000, -1.000000000000000000, -0.000000000000000000 ) ) ;
#592 = DATE_AND_TIME ( #114, #66 ) ;
#593 = LINE ( 'NONE', #155, #189 ) ;
#594 = EDGE_CURVE ( 'NONE', #1, #589, #312, .T. ) ;
#595 = PERSON_AND_ORGANIZATION ( #530, #167 ) ;
#596 = CARTESIAN_POINT ( 'NONE',  ( 40.07999999999999829, 10.00000000000000000, 0.000000000000000000 ) ) ;
#597 = VECTOR ( 'NONE', #118, 1000.000000000000000 ) ;
#598 = EDGE_CURVE ( 'NONE', #287, #291, #536, .T. ) ;
#599 = CARTESIAN_POINT ( 'NONE',  ( 4.999999999999999112, 0.000000000000000000, 5.000000000000000000 ) ) ;
#600 = ORIENTED_EDGE ( 'NONE', *, *, #598, .F. ) ;
#601 = DIRECTION ( 'NONE',  ( -0.000000000000000000, -1.000000000000000000, -0.000000000000000000 ) ) ;
#602 = ADVANCED_FACE ( 'NONE', ( #192 ), #243, .T. ) ;
#603 = CARTESIAN_POINT ( 'NONE',  ( -4.999999999999997335, 0.000000000000000000, 5.000000000000000000 ) ) ;
#604 = MANIFOLD_SOLID_BREP ( 'Boss-Extrude5', #455 ) ;
#605 = EDGE_LOOP ( 'NONE', ( #516, #21, #194, #454, #325, #329, #85, #102 ) ) ;
#606 = CARTESIAN_POINT ( 'NONE',  ( -4.999999999999997335, -64.99999999999997158, 5.000000000000000000 ) ) ;
#607 = CARTESIAN_POINT ( 'NONE',  ( 43.00000000000000000, 0.000000000000000000, 5.000000000000000000 ) ) ;
#608 = ORIENTED_EDGE ( 'NONE', *, *, #83, .T. ) ;
#609 = CARTESIAN_POINT ( 'NONE',  ( -40.07999999999999829, 10.00000000000000000, -9.999999999999998224 ) ) ;
#610 = DIRECTION ( 'NONE',  ( -0.000000000000000000, -0.000000000000000000, -1.000000000000000000 ) ) ;
#611 = VECTOR ( 'NONE', #374, 1000.000000000000000 ) ;
#612 = ORIENTED_EDGE ( 'NONE', *, *, #208, .F. ) ;
#613 = LOCAL_TIME ( 15, 50, 42.00000000000000000, #546 ) ;
#614 = DIRECTION ( 'NONE',  ( -1.000000000000000000, -0.000000000000000000, -0.000000000000000000 ) ) ;
#615 = DIRECTION ( 'NONE',  ( -1.000000000000000000, 0.000000000000000000, 0.000000000000000000 ) ) ;
#616 = ORIENTED_EDGE ( 'NONE', *, *, #532, .T. ) ;
#617 = ADVANCED_FACE ( 'NONE', ( #384 ), #338, .F. ) ;
#618 = CARTESIAN_POINT ( 'NONE',  ( -4.999999999999997335, 0.000000000000000000, 5.000000000000000000 ) ) ;
#619 = DIRECTION ( 'NONE',  ( 0.000000000000000000, -1.000000000000000000, 0.000000000000000000 ) ) ;
#620 = ORIENTED_EDGE ( 'NONE', *, *, #327, .T. ) ;
#621 = APPROVAL_DATE_TIME ( #47, #365 ) ;
#622 = PLANE ( 'NONE',  #152 ) ;
#623 = EDGE_LOOP ( 'NONE', ( #561, #504, #558, #123 ) ) ;
#624 = VECTOR ( 'NONE', #357, 1000.000000000000000 ) ;
#625 = APPROVAL_ROLE ( '' ) ;
#626 = EDGE_CURVE ( 'NONE', #38, #287, #533, .T. ) ;
#627 = DIRECTION ( 'NONE',  ( 0.000000000000000000, 1.000000000000000000, 0.000000000000000000 ) ) ;
#628 = ORIENTED_EDGE ( 'NONE', *, *, #336, .F. ) ;
#629 = DATE_AND_TIME ( #143, #519 ) ;
#630 = CARTESIAN_POINT ( 'NONE',  ( 4.999999999999999112, 0.000000000000000000, 5.000000000000000000 ) ) ;
#631 = ORIENTED_EDGE ( 'NONE', *, *, #491, .F. ) ;
#632 = DIRECTION ( 'NONE',  ( 1.000000000000000000, 0.000000000000000000, 0.000000000000000000 ) ) ;
#633 = ADVANCED_FACE ( 'NONE', ( #289 ), #528, .F. ) ;
ENDSEC;
END-ISO-10303-21;
