ISO-10303-21;
HEADER;
FILE_DESCRIPTION (( 'STEP AP203' ),
    '1' );
FILE_NAME ('EDM Threading Tool.STEP',
    '2026-05-30T22:44:44',
    ( '' ),
    ( '' ),
    'SwSTEP 2.0',
    'SolidWorks 2024',
    '' );
FILE_SCHEMA (( 'CONFIG_CONTROL_DESIGN' ));
ENDSEC;

DATA;
#1 = DIRECTION ( 'NONE',  ( 0.000000000000000000, 1.000000000000000000, 0.000000000000000000 ) ) ;
#2 = EDGE_CURVE ( 'NONE', #184, #1231, #391, .T. ) ;
#3 = DATE_AND_TIME ( #212, #1180 ) ;
#4 = LINE ( 'NONE', #956, #155 ) ;
#5 = VERTEX_POINT ( 'NONE', #1224 ) ;
#6 = ORIENTED_EDGE ( 'NONE', *, *, #770, .F. ) ;
#7 = VECTOR ( 'NONE', #319, 1000.000000000000114 ) ;
#8 = ADVANCED_FACE ( 'NONE', ( #295 ), #708, .F. ) ;
#9 = DIRECTION ( 'NONE',  ( 0.2244866927916704391, 0.9744771545600534601, -0.000000000000000000 ) ) ;
#10 = ADVANCED_FACE ( 'NONE', ( #1026 ), #100, .T. ) ;
#11 = FACE_OUTER_BOUND ( 'NONE', #1056, .T. ) ;
#12 = PLANE ( 'NONE',  #1267 ) ;
#13 = ORIENTED_EDGE ( 'NONE', *, *, #604, .F. ) ;
#14 = LINE ( 'NONE', #1143, #1115 ) ;
#15 = CALENDAR_DATE ( 2026, 30, 5 ) ;
#16 = CARTESIAN_POINT ( 'NONE',  ( 18.53804061842373230, -68.62738531220730920, 7.500000000000000000 ) ) ;
#17 = CYLINDRICAL_SURFACE ( 'NONE', #433, 15.09999999999999787 ) ;
#18 = ORIENTED_EDGE ( 'NONE', *, *, #1072, .F. ) ;
#19 = CARTESIAN_POINT ( 'NONE',  ( -21.79271949222383142, -66.17862234232600827, -1.630176532720475802 ) ) ;
#20 = CARTESIAN_POINT ( 'NONE',  ( -23.25690829581957786, -65.84132259075801130, 15.45312288227607844 ) ) ;
#21 = CARTESIAN_POINT ( 'NONE',  ( 3.687593803477953625, 3.579371238945708633, 15.00000000000000000 ) ) ;
#22 = ADVANCED_FACE ( 'NONE', ( #532 ), #1252, .F. ) ;
#23 = ORIENTED_EDGE ( 'NONE', *, *, #68, .F. ) ;
#24 = LINE ( 'NONE', #425, #7 ) ;
#25 = AXIS2_PLACEMENT_3D ( 'NONE', #337, #41, #874 ) ;
#26 = DIRECTION ( 'NONE',  ( 0.9744771545600533491, 0.2244866927916707999, 0.000000000000000000 ) ) ;
#27 = ADVANCED_FACE ( 'NONE', ( #223, #434 ), #12, .F. ) ;
#28 = LINE ( 'NONE', #640, #293 ) ;
#29 = ORIENTED_EDGE ( 'NONE', *, *, #1018, .T. ) ;
#30 = VECTOR ( 'NONE', #626, 999.9999999999998863 ) ;
#31 = DIRECTION ( 'NONE',  ( -0.000000000000000000, -0.000000000000000000, -1.000000000000000000 ) ) ;
#32 = EDGE_LOOP ( 'NONE', ( #742, #1125, #850, #589 ) ) ;
#33 = DIRECTION ( 'NONE',  ( 1.000000000000000000, 0.000000000000000000, 0.000000000000000000 ) ) ;
#34 = DIRECTION ( 'NONE',  ( 1.000000000000000000, 0.000000000000000000, 0.000000000000000000 ) ) ;
#35 = ORIENTED_EDGE ( 'NONE', *, *, #892, .T. ) ;
#36 = CARTESIAN_POINT ( 'NONE',  ( -19.88960790394451905, -51.22416527235720451, -0.4531228822760809960 ) ) ;
#37 = CARTESIAN_POINT ( 'NONE',  ( 0.000000000000000000, 0.000000000000000000, 15.00000000000000000 ) ) ;
#38 = CARTESIAN_POINT ( 'NONE',  ( 27.55494100642112087, -51.15732552920565723, 15.00000000000000000 ) ) ;
#39 = CARTESIAN_POINT ( 'NONE',  ( -21.68575265096560756, -50.81039405961295330, -3.469446951953614189E-15 ) ) ;
#40 = VERTEX_POINT ( 'NONE', #958 ) ;
#41 = DIRECTION ( 'NONE',  ( -0.000000000000000000, 0.000000000000000000, 1.000000000000000000 ) ) ;
#42 = EDGE_CURVE ( 'NONE', #1175, #922, #521, .T. ) ;
#43 = DIRECTION ( 'NONE',  ( -1.000000000000000000, 0.000000000000000000, 0.000000000000000000 ) ) ;
#44 = VECTOR ( 'NONE', #1003, 1000.000000000000000 ) ;
#45 = ADVANCED_FACE ( 'NONE', ( #115 ), #537, .T. ) ;
#46 = PRODUCT_DEFINITION_FORMATION_WITH_SPECIFIED_SOURCE ( 'ANY', '', #414, .NOT_KNOWN. ) ;
#47 = CARTESIAN_POINT ( 'NONE',  ( -9.477777683864950120, 2.183360540890417312, 15.00000000000000000 ) ) ;
#48 = ORIENTED_EDGE ( 'NONE', *, *, #1033, .T. ) ;
#49 = AXIS2_PLACEMENT_3D ( 'NONE', #305, #717, #1112 ) ;
#50 = VECTOR ( 'NONE', #1181, 1000.000000000000000 ) ;
#51 = DIRECTION ( 'NONE',  ( 0.2244866927916705501, -0.9744771545600533491, -6.938893903907228378E-17 ) ) ;
#52 = CARTESIAN_POINT ( 'NONE',  ( -25.05305304284065926, -65.42755137801374588, 15.00000000000000355 ) ) ;
#53 = CARTESIAN_POINT ( 'NONE',  ( -11.16285301146807107, -68.62738531220725235, 7.500000000000103917 ) ) ;
#54 = EDGE_LOOP ( 'NONE', ( #1162, #1129, #225, #1134 ) ) ;
#55 = ORIENTED_EDGE ( 'NONE', *, *, #259, .T. ) ;
#56 = LINE ( 'NONE', #983, #285 ) ;
#57 = CARTESIAN_POINT ( 'NONE',  ( 30.63209590277519467, -65.84132259075808236, -0.4531228822760745012 ) ) ;
#58 = DIRECTION ( 'NONE',  ( 0.2244866927916705779, -0.9744771545600534601, -6.938893903907228378E-17 ) ) ;
#59 = DIRECTION ( 'NONE',  ( 0.2244866927916704114, 0.9744771545600533491, -0.000000000000000000 ) ) ;
#60 = EDGE_CURVE ( 'NONE', #215, #843, #740, .T. ) ;
#61 = ORIENTED_EDGE ( 'NONE', *, *, #553, .T. ) ;
#62 = ADVANCED_FACE ( 'NONE', ( #1167 ), #17, .T. ) ;
#63 = ORIENTED_EDGE ( 'NONE', *, *, #825, .F. ) ;
#64 = DIRECTION ( 'NONE',  ( -0.9744771545600534601, 0.2244866927916701616, 0.000000000000000000 ) ) ;
#65 = DATE_AND_TIME ( #453, #988 ) ;
#66 = CARTESIAN_POINT ( 'NONE',  ( -11.41240619652204380, 3.579371238945708633, 15.00000000000000000 ) ) ;
#67 = CARTESIAN_POINT ( 'NONE',  ( -11.16285301146807107, -68.62738531220725235, 7.500000000000103917 ) ) ;
#68 = EDGE_CURVE ( 'NONE', #1321, #946, #28, .T. ) ;
#69 = VECTOR ( 'NONE', #993, 1000.000000000000000 ) ;
#70 = ORIENTED_EDGE ( 'NONE', *, *, #143, .T. ) ;
#71 = EDGE_LOOP ( 'NONE', ( #13, #1093, #1109, #1059, #1045, #1063, #449, #188 ) ) ;
#72 = DIRECTION ( 'NONE',  ( -0.2244866927916704114, -0.9744771545600533491, 0.000000000000000000 ) ) ;
#73 = CARTESIAN_POINT ( 'NONE',  ( -21.79271949222383142, -66.17862234232600827, -1.630176532720475802 ) ) ;
#74 = DIRECTION ( 'NONE',  ( 1.000000000000000000, 0.000000000000000000, 0.000000000000000000 ) ) ;
#75 = ORIENTED_EDGE ( 'NONE', *, *, #338, .T. ) ;
#76 = ORIENTED_EDGE ( 'NONE', *, *, #1131, .T. ) ;
#77 = CARTESIAN_POINT ( 'NONE',  ( -9.477777683864950120, 2.183360540890417312, 15.00000000000000000 ) ) ;
#78 = DATE_TIME_ROLE ( 'classification_date' ) ;
#79 = ADVANCED_FACE ( 'NONE', ( #734 ), #313, .T. ) ;
#80 = DIRECTION ( 'NONE',  ( 0.2244866927916704114, 0.9744771545600533491, -0.000000000000000000 ) ) ;
#81 = LINE ( 'NONE', #389, #1051 ) ;
#82 = ORIENTED_EDGE ( 'NONE', *, *, #487, .T. ) ;
#83 = ORIENTED_EDGE ( 'NONE', *, *, #1276, .F. ) ;
#84 = FACE_OUTER_BOUND ( 'NONE', #1001, .T. ) ;
#85 = EDGE_CURVE ( 'NONE', #646, #907, #748, .T. ) ;
#86 = CARTESIAN_POINT ( 'NONE',  ( 32.42824064979662069, -65.42755137801373166, 15.00000000000000000 ) ) ;
#87 = DIRECTION ( 'NONE',  ( 0.000000000000000000, -0.000000000000000000, 1.000000000000000000 ) ) ;
#88 = ORIENTED_EDGE ( 'NONE', *, *, #1332, .F. ) ;
#89 = VECTOR ( 'NONE', #817, 999.9999999999998863 ) ;
#90 = ORIENTED_EDGE ( 'NONE', *, *, #383, .F. ) ;
#91 = DIRECTION ( 'NONE',  ( -1.000000000000000000, 0.000000000000000000, 0.000000000000000000 ) ) ;
#92 = CIRCLE ( 'NONE', #412, 14.22500000000000320 ) ;
#93 = VECTOR ( 'NONE', #1191, 1000.000000000000000 ) ;
#94 = CARTESIAN_POINT ( 'NONE',  ( -15.69176929572418544, -67.58407564216987851, 4.598292425847317448E-15 ) ) ;
#95 = VERTEX_POINT ( 'NONE', #847 ) ;
#96 = ORIENTED_EDGE ( 'NONE', *, *, #973, .T. ) ;
#97 = CYLINDRICAL_SURFACE ( 'NONE', #1179, 14.22499999999982734 ) ;
#98 = DIRECTION ( 'NONE',  ( 0.9744771545600522389, -0.2244866927916756849, 0.000000000000000000 ) ) ;
#99 = EDGE_CURVE ( 'NONE', #203, #147, #214, .T. ) ;
#100 = CYLINDRICAL_SURFACE ( 'NONE', #837, 14.22499999999992504 ) ;
#101 = EDGE_LOOP ( 'NONE', ( #1076, #1015, #749, #575 ) ) ;
#102 = PRODUCT_DEFINITION_SHAPE ( 'NONE', 'NONE',  #1160 ) ;
#103 = EDGE_CURVE ( 'NONE', #946, #667, #122, .T. ) ;
#104 = CARTESIAN_POINT ( 'NONE',  ( 29.16790709917948021, -66.17862234232607932, 16.63017653272070362 ) ) ;
#105 = APPROVAL_ROLE ( '' ) ;
#106 = CARTESIAN_POINT ( 'NONE',  ( 29.06094025792156543, -50.81039405961291777, 15.00000000000000000 ) ) ;
#107 = PLANE ( 'NONE',  #394 ) ;
#108 = ORIENTED_EDGE ( 'NONE', *, *, #787, .T. ) ;
#109 = AXIS2_PLACEMENT_3D ( 'NONE', #1221, #706, #277 ) ;
#110 = CC_DESIGN_APPROVAL ( #619, ( #763 ) ) ;
#111 = CARTESIAN_POINT ( 'NONE',  ( 82.69149356667026041, -35.45783905583409279, 0.000000000000000000 ) ) ;
#112 = COORDINATED_UNIVERSAL_TIME_OFFSET ( 8, 0, .BEHIND. ) ;
#113 = DIRECTION ( 'NONE',  ( -0.000000000000000000, -0.000000000000000000, -1.000000000000000000 ) ) ;
#114 = AXIS2_PLACEMENT_3D ( 'NONE', #150, #271, #454 ) ;
#115 = FACE_OUTER_BOUND ( 'NONE', #688, .T. ) ;
#116 = ORIENTED_EDGE ( 'NONE', *, *, #877, .F. ) ;
#117 = CARTESIAN_POINT ( 'NONE',  ( 29.06094025792130608, -50.81039405961298883, 15.00000000000000000 ) ) ;
#118 = EDGE_CURVE ( 'NONE', #230, #1283, #767, .T. ) ;
#119 = ORIENTED_EDGE ( 'NONE', *, *, #160, .F. ) ;
#120 = CARTESIAN_POINT ( 'NONE',  ( -21.68575265096565730, -50.81039405961292488, 15.00000000000000000 ) ) ;
#121 = DIRECTION ( 'NONE',  ( -1.000000000000000000, 0.000000000000000000, 0.000000000000000000 ) ) ;
#122 = B_SPLINE_CURVE_WITH_KNOTS ( 'NONE', 2,
 ( #1258, #1069, #322 ),
 .UNSPECIFIED., .F., .F.,
 ( 3, 3 ),
 ( 0.000000000000000000, 1.000000000000000000 ),
 .UNSPECIFIED. ) ;
#123 = VERTEX_POINT ( 'NONE', #442 ) ;
#124 = DIRECTION ( 'NONE',  ( -0.2244866927916703836, -0.9744771545600534601, 2.775557561562891351E-17 ) ) ;
#125 = DIRECTION ( 'NONE',  ( 0.000000000000000000, -1.000000000000000000, 0.000000000000000000 ) ) ;
#126 = DIRECTION ( 'NONE',  ( -0.000000000000000000, -0.000000000000000000, -1.000000000000000000 ) ) ;
#127 = ORIENTED_EDGE ( 'NONE', *, *, #1052, .T. ) ;
#128 = AXIS2_PLACEMENT_3D ( 'NONE', #630, #1150, #1241 ) ;
#129 = DIRECTION ( 'NONE',  ( -0.000000000000000000, -0.000000000000000000, -1.000000000000000000 ) ) ;
#130 = AXIS2_PLACEMENT_3D ( 'NONE', #366, #1313, #795 ) ;
#131 = ORIENTED_EDGE ( 'NONE', *, *, #830, .T. ) ;
#132 = CARTESIAN_POINT ( 'NONE',  ( 23.06695690267986620, -67.58407564216994956, 20.94436860632012554 ) ) ;
#133 = DIRECTION ( 'NONE',  ( 1.000000000000000000, 0.000000000000000000, 0.000000000000000000 ) ) ;
#134 = ORIENTED_EDGE ( 'NONE', *, *, #705, .T. ) ;
#135 = VECTOR ( 'NONE', #234, 1000.000000000000114 ) ;
#136 = LINE ( 'NONE', #976, #1156 ) ;
#137 = ORIENTED_EDGE ( 'NONE', *, *, #898, .F. ) ;
#138 = DIRECTION ( 'NONE',  ( 1.000000000000000000, 0.000000000000000000, 0.000000000000000000 ) ) ;
#139 = CARTESIAN_POINT ( 'NONE',  ( 81.49149353743736413, -2.257839055834095721, 15.00000000000000000 ) ) ;
#140 = CARTESIAN_POINT ( 'NONE',  ( 54.99149353743737834, -34.25783905583409705, 15.00000000000000000 ) ) ;
#141 = VERTEX_POINT ( 'NONE', #864 ) ;
#142 = LINE ( 'NONE', #1176, #216 ) ;
#143 = EDGE_CURVE ( 'NONE', #201, #291, #1317, .T. ) ;
#144 = DIRECTION ( 'NONE',  ( -0.000000000000000000, 1.000000000000000000, -0.000000000000000000 ) ) ;
#145 = DIRECTION ( 'NONE',  ( -1.000000000000000000, 0.000000000000000000, 0.000000000000000000 ) ) ;
#146 = CARTESIAN_POINT ( 'NONE',  ( 17.78047381030560814, -1.842873048538704372, 0.000000000000000000 ) ) ;
#147 = VERTEX_POINT ( 'NONE', #871 ) ;
#148 = EDGE_CURVE ( 'NONE', #201, #751, #727, .T. ) ;
#149 = DIRECTION ( 'NONE',  ( 0.9744771545600533491, 0.2244866927916705501, 0.000000000000000000 ) ) ;
#150 = CARTESIAN_POINT ( 'NONE',  ( -12.20797496710040697, -52.99375460050335818, 1.509396250171105427E-15 ) ) ;
#151 = CIRCLE ( 'NONE', #388, 14.00000000000000178 ) ;
#152 = CARTESIAN_POINT ( 'NONE',  ( -15.69176929572429735, -67.58407564216985008, 19.31907027742069616 ) ) ;
#153 = DIRECTION ( 'NONE',  ( 1.557689344120416449E-17, -6.761793587273616314E-17, 1.000000000000000000 ) ) ;
#154 = ORIENTED_EDGE ( 'NONE', *, *, #1010, .F. ) ;
#155 = VECTOR ( 'NONE', #125, 1000.000000000000000 ) ;
#156 = ADVANCED_BREP_SHAPE_REPRESENTATION ( 'EDM Threading Tool', ( #647, #1098, #593 ), #697 ) ;
#157 = CARTESIAN_POINT ( 'NONE',  ( 29.16790709917948021, -66.17862234232607932, -1.630176532720710059 ) ) ;
#158 = ADVANCED_FACE ( 'NONE', ( #1044 ), #107, .F. ) ;
#159 = LINE ( 'NONE', #990, #858 ) ;
#160 = EDGE_CURVE ( 'NONE', #1331, #162, #1107, .T. ) ;
#161 = FACE_OUTER_BOUND ( 'NONE', #101, .T. ) ;
#162 = VERTEX_POINT ( 'NONE', #1195 ) ;
#163 = EDGE_LOOP ( 'NONE', ( #6, #510, #108, #785 ) ) ;
#164 = LINE ( 'NONE', #880, #390 ) ;
#165 = LINE ( 'NONE', #1132, #44 ) ;
#166 = CARTESIAN_POINT ( 'NONE',  ( -19.88960790394452616, -51.22416527235722583, 15.45312288227607844 ) ) ;
#167 = ORIENTED_EDGE ( 'NONE', *, *, #627, .T. ) ;
#168 = ORIENTED_EDGE ( 'NONE', *, *, #284, .F. ) ;
#169 = FACE_OUTER_BOUND ( 'NONE', #1259, .T. ) ;
#170 = PLANE ( 'NONE',  #109 ) ;
#171 = VECTOR ( 'NONE', #895, 1000.000000000000000 ) ;
#172 = FACE_OUTER_BOUND ( 'NONE', #514, .T. ) ;
#173 = LOCAL_TIME ( 15, 44, 44.00000000000000000, #1029 ) ;
#174 = ORIENTED_EDGE ( 'NONE', *, *, #997, .F. ) ;
#175 = EDGE_CURVE ( 'NONE', #826, #872, #658, .T. ) ;
#176 = VERTEX_POINT ( 'NONE', #1090 ) ;
#177 = CIRCLE ( 'NONE', #945, 14.22500000000000320 ) ;
#178 = CARTESIAN_POINT ( 'NONE',  ( 53.83254604501916418, -35.45783905583409279, 15.00000000000000000 ) ) ;
#179 = LINE ( 'NONE', #605, #739 ) ;
#180 = CARTESIAN_POINT ( 'NONE',  ( -15.69176929572476453, -67.58407564216975061, 4.483720181663284999E-15 ) ) ;
#181 = PERSON_AND_ORGANIZATION_ROLE ( 'design_owner' ) ;
#183 = EDGE_CURVE ( 'NONE', #378, #1254, #792, .T. ) ;
#182 = ORIENTED_EDGE ( 'NONE', *, *, #398, .F. ) ;
#184 = VERTEX_POINT ( 'NONE', #461 ) ;
#185 = PLANE ( 'NONE',  #238 ) ;
#186 = LINE ( 'NONE', #1229, #546 ) ;
#187 = CARTESIAN_POINT ( 'NONE',  ( 25.80060670730442141, -51.56146502392527964, -1.630176532720704952 ) ) ;
#188 = ORIENTED_EDGE ( 'NONE', *, *, #396, .T. ) ;
#189 = PRODUCT_RELATED_PRODUCT_CATEGORY ( 'detail', '', ( #414 ) ) ;
#190 = ORIENTED_EDGE ( 'NONE', *, *, #848, .T. ) ;
#191 = CARTESIAN_POINT ( 'NONE',  ( 29.16790709917948021, -66.17862234232607932, -1.630176532720710059 ) ) ;
#192 = DIRECTION ( 'NONE',  ( -0.9744771545600534601, -0.2244866927916701060, 0.000000000000000000 ) ) ;
#193 = VERTEX_POINT ( 'NONE', #664 ) ;
#194 = VECTOR ( 'NONE', #582, 1000.000000000000000 ) ;
#195 = ORIENTED_EDGE ( 'NONE', *, *, #705, .F. ) ;
#196 = PLANE ( 'NONE',  #406 ) ;
#197 = VECTOR ( 'NONE', #758, 1000.000000000000000 ) ;
#198 = CIRCLE ( 'NONE', #969, 12.70000000000000462 ) ;
#199 = LINE ( 'NONE', #620, #432 ) ;
#200 = EDGE_CURVE ( 'NONE', #308, #751, #1186, .T. ) ;
#201 = VERTEX_POINT ( 'NONE', #1083 ) ;
#202 = EDGE_CURVE ( 'NONE', #602, #365, #506, .T. ) ;
#203 = VERTEX_POINT ( 'NONE', #152 ) ;
#204 = LINE ( 'NONE', #518, #1196 ) ;
#205 = APPROVAL_ROLE ( '' ) ;
#206 = ORIENTED_EDGE ( 'NONE', *, *, #898, .T. ) ;
#207 = CARTESIAN_POINT ( 'NONE',  ( 23.06695690267986620, -67.58407564216994956, -3.888373136890206123E-15 ) ) ;
#208 = DIRECTION ( 'NONE',  ( -0.2244866927916704391, 0.9744771545600534601, -0.000000000000000000 ) ) ;
#209 = ORIENTED_EDGE ( 'NONE', *, *, #444, .T. ) ;
#210 = COORDINATED_UNIVERSAL_TIME_OFFSET ( 8, 0, .BEHIND. ) ;
#211 = CARTESIAN_POINT ( 'NONE',  ( 29.16790709917948021, -66.17862234232609353, 16.63017653272070362 ) ) ;
#212 = CALENDAR_DATE ( 2026, 30, 5 ) ;
#213 = DIRECTION ( 'NONE',  ( -0.2244866927916704391, 0.9744771545600534601, -0.000000000000000000 ) ) ;
#214 = LINE ( 'NONE', #633, #135 ) ;
#215 = VERTEX_POINT ( 'NONE', #478 ) ;
#216 = VECTOR ( 'NONE', #563, 1000.000000000000000 ) ;
#217 = CIRCLE ( 'NONE', #346, 12.70000000000006146 ) ;
#218 = CARTESIAN_POINT ( 'NONE',  ( 29.06094025792156543, -50.81039405961291777, 0.000000000000000000 ) ) ;
#219 = ORIENTED_EDGE ( 'NONE', *, *, #1113, .T. ) ;
#220 = CYLINDRICAL_SURFACE ( 'NONE', #221, 15.09999999999999787 ) ;
#221 = AXIS2_PLACEMENT_3D ( 'NONE', #846, #113, #1066 ) ;
#222 = VECTOR ( 'NONE', #133, 1000.000000000000000 ) ;
#223 = FACE_OUTER_BOUND ( 'NONE', #496, .T. ) ;
#224 = ADVANCED_FACE ( 'NONE', ( #161 ), #890, .T. ) ;
#225 = ORIENTED_EDGE ( 'NONE', *, *, #584, .F. ) ;
#226 = DIRECTION ( 'NONE',  ( -0.000000000000000000, -0.000000000000000000, -1.000000000000000000 ) ) ;
#227 = ORIENTED_EDGE ( 'NONE', *, *, #263, .T. ) ;
#228 = PLANE ( 'NONE',  #699 ) ;
#229 = CARTESIAN_POINT ( 'NONE',  ( 3.687593803477953625, 3.579371238945708633, 15.00000000000000000 ) ) ;
#230 = VERTEX_POINT ( 'NONE', #357 ) ;
#231 = CARTESIAN_POINT ( 'NONE',  ( 32.42824064979662069, -65.42755137801373166, 15.00000000000000000 ) ) ;
#232 = ORIENTED_EDGE ( 'NONE', *, *, #838, .F. ) ;
#233 = CARTESIAN_POINT ( 'NONE',  ( 25.80060670730442496, -51.56146502392527964, 16.63017653272070362 ) ) ;
#234 = DIRECTION ( 'NONE',  ( 0.2244866927916704114, 0.9744771545600533491, -0.000000000000000000 ) ) ;
#235 = ORIENTED_EDGE ( 'NONE', *, *, #825, .T. ) ;
#236 = AXIS2_PLACEMENT_3D ( 'NONE', #373, #806, #379 ) ;
#237 = DIRECTION ( 'NONE',  ( 0.9744771545600534601, -0.2244866927916701616, 0.000000000000000000 ) ) ;
#238 = AXIS2_PLACEMENT_3D ( 'NONE', #800, #282, #386 ) ;
#239 = ADVANCED_FACE ( 'NONE', ( #1004 ), #733, .T. ) ;
#240 = ORIENTED_EDGE ( 'NONE', *, *, #1033, .F. ) ;
#241 = CARTESIAN_POINT ( 'NONE',  ( 23.06695690267986620, -67.58407564216994956, -3.888373136890206123E-15 ) ) ;
#242 = DIRECTION ( 'NONE',  ( 0.2244866927916705779, -0.9744771545600534601, -6.938893903907228378E-17 ) ) ;
#243 = EDGE_CURVE ( 'NONE', #123, #899, #1289, .T. ) ;
#244 = AXIS2_PLACEMENT_3D ( 'NONE', #37, #549, #33 ) ;
#245 = EDGE_LOOP ( 'NONE', ( #724, #219, #1142, #580 ) ) ;
#246 = AXIS2_PLACEMENT_3D ( 'NONE', #508, #802, #74 ) ;
#247 = EDGE_CURVE ( 'NONE', #868, #1212, #760, .T. ) ;
#248 = FACE_OUTER_BOUND ( 'NONE', #318, .T. ) ;
#249 = FACE_OUTER_BOUND ( 'NONE', #987, .T. ) ;
#250 = EDGE_CURVE ( 'NONE', #872, #703, #1297, .T. ) ;
#251 = CARTESIAN_POINT ( 'NONE',  ( 23.06695690267986620, -67.58407564216994956, -5.944368606320124648 ) ) ;
#252 = FACE_OUTER_BOUND ( 'NONE', #269, .T. ) ;
#253 = ORIENTED_EDGE ( 'NONE', *, *, #99, .T. ) ;
#254 = DIRECTION ( 'NONE',  ( 0.9744771545600522389, 0.2244866927916756849, -0.000000000000000000 ) ) ;
#255 = DIRECTION ( 'NONE',  ( -0.000000000000000000, 0.000000000000000000, 1.000000000000000000 ) ) ;
#256 = LINE ( 'NONE', #768, #1293 ) ;
#257 = LINE ( 'NONE', #358, #1068 ) ;
#259 = EDGE_CURVE ( 'NONE', #465, #687, #198, .T. ) ;
#258 = VERTEX_POINT ( 'NONE', #980 ) ;
#260 = PLANE ( 'NONE',  #429 ) ;
#261 = EDGE_CURVE ( 'NONE', #535, #176, #265, .T. ) ;
#262 = DIRECTION ( 'NONE',  ( -0.2244866927916704114, 0.9744771545600533491, -0.000000000000000000 ) ) ;
#263 = EDGE_CURVE ( 'NONE', #465, #5, #256, .T. ) ;
#264 = VECTOR ( 'NONE', #1054, 1000.000000000000000 ) ;
#265 = LINE ( 'NONE', #878, #93 ) ;
#266 = DIRECTION ( 'NONE',  ( 0.9744771545600534601, -0.2244866927916701616, 0.000000000000000000 ) ) ;
#267 = VERTEX_POINT ( 'NONE', #897 ) ;
#268 = VECTOR ( 'NONE', #671, 1000.000000000000114 ) ;
#269 = EDGE_LOOP ( 'NONE', ( #1227, #353, #833, #182, #862, #55, #83, #1216, #1000, #1189 ) ) ;
#270 = DIRECTION ( 'NONE',  ( -0.9744771545600534601, 0.2244866927916701616, 0.000000000000000000 ) ) ;
#271 = DIRECTION ( 'NONE',  ( -0.2244866927916703836, -0.9744771545600534601, 2.775557561562891043E-17 ) ) ;
#272 = CARTESIAN_POINT ( 'NONE',  ( 82.69149356667026041, -35.45783905583409279, 15.00000000000000000 ) ) ;
#273 = ORIENTED_EDGE ( 'NONE', *, *, #1211, .T. ) ;
#274 = VERTEX_POINT ( 'NONE', #251 ) ;
#275 = CYLINDRICAL_SURFACE ( 'NONE', #1240, 12.70000000000006146 ) ;
#276 = CC_DESIGN_DATE_AND_TIME_ASSIGNMENT ( #3, #1242, ( #1160 ) ) ;
#277 = DIRECTION ( 'NONE',  ( -0.001193385998514590604, 0.9999992879146757385, 0.000000000000000000 ) ) ;
#278 = CARTESIAN_POINT ( 'NONE',  ( 27.55494100642112087, -51.15732552920565723, 15.00000000000000000 ) ) ;
#279 = EDGE_LOOP ( 'NONE', ( #1320, #385, #548, #167 ) ) ;
#280 = EDGE_CURVE ( 'NONE', #636, #646, #992, .T. ) ;
#281 = ORIENTED_EDGE ( 'NONE', *, *, #601, .T. ) ;
#282 = DIRECTION ( 'NONE',  ( -0.000000000000000000, 0.000000000000000000, 1.000000000000000000 ) ) ;
#283 = DIRECTION ( 'NONE',  ( 1.000000000000000000, 0.000000000000000000, 0.000000000000000000 ) ) ;
#284 = EDGE_CURVE ( 'NONE', #484, #907, #1308, .T. ) ;
#285 = VECTOR ( 'NONE', #750, 1000.000000000000000 ) ;
#286 = DIRECTION ( 'NONE',  ( -0.2244866927916704391, 0.9744771545600534601, -0.000000000000000000 ) ) ;
#287 = VECTOR ( 'NONE', #1290, 1000.000000000000000 ) ;
#288 = EDGE_CURVE ( 'NONE', #491, #544, #1246, .T. ) ;
#289 = ORIENTED_EDGE ( 'NONE', *, *, #487, .F. ) ;
#290 = ADVANCED_FACE ( 'NONE', ( #172 ), #488, .T. ) ;
#291 = VERTEX_POINT ( 'NONE', #797 ) ;
#292 = LINE ( 'NONE', #603, #1117 ) ;
#293 = VECTOR ( 'NONE', #965, 999.9999999999998863 ) ;
#294 = CARTESIAN_POINT ( 'NONE',  ( -21.79271949222375326, -66.17862234232603669, 16.63017653272062191 ) ) ;
#295 = FACE_OUTER_BOUND ( 'NONE', #54, .T. ) ;
#296 = EDGE_LOOP ( 'NONE', ( #399, #729, #505, #336 ) ) ;
#297 = CARTESIAN_POINT ( 'NONE',  ( 23.06695690267986620, -67.58407564216994956, 20.94436860632012554 ) ) ;
#298 = PLANE ( 'NONE',  #1161 ) ;
#299 = ORIENTED_EDGE ( 'NONE', *, *, #42, .F. ) ;
#300 = ADVANCED_FACE ( 'NONE', ( #613 ), #1210, .F. ) ;
#301 = ORIENTED_EDGE ( 'NONE', *, *, #920, .F. ) ;
#302 = ADVANCED_FACE ( 'NONE', ( #931 ), #811, .T. ) ;
#303 = CARTESIAN_POINT ( 'NONE',  ( -7.971778432364509115, 1.836429071297675186, 15.00000000000000000 ) ) ;
#304 = DESIGN_CONTEXT ( 'detailed design', #522, 'design' ) ;
#305 = CARTESIAN_POINT ( 'NONE',  ( -11.16285301146807107, -68.62738531220725235, 7.500000000000103917 ) ) ;
#306 = VECTOR ( 'NONE', #400, 1000.000000000000000 ) ;
#307 = ORIENTED_EDGE ( 'NONE', *, *, #606, .T. ) ;
#308 = VERTEX_POINT ( 'NONE', #278 ) ;
#309 = CARTESIAN_POINT ( 'NONE',  ( 81.49149353743736413, -34.25783905583409705, 15.00000000000000000 ) ) ;
#310 = VECTOR ( 'NONE', #1088, 1000.000000000000000 ) ;
#311 = VECTOR ( 'NONE', #1058, 1000.000000000000114 ) ;
#312 = CARTESIAN_POINT ( 'NONE',  ( -25.05305304284071610, -65.42755137801373166, 15.00000000000000000 ) ) ;
#313 = CYLINDRICAL_SURFACE ( 'NONE', #1100, 15.09999999999999787 ) ;
#314 = ORIENTED_EDGE ( 'NONE', *, *, #1270, .F. ) ;
#315 = CARTESIAN_POINT ( 'NONE',  ( 54.99149353743737834, -34.25783905583409705, 15.00000000000000000 ) ) ;
#316 = CARTESIAN_POINT ( 'NONE',  ( 19.69965651080481095, -52.96691832376914277, -4.319070277420562043 ) ) ;
#317 = DIRECTION ( 'NONE',  ( 0.2244866927916704391, 0.9744771545600534601, -0.000000000000000000 ) ) ;
#318 = EDGE_LOOP ( 'NONE', ( #793, #933, #1071, #61 ) ) ;
#319 = DIRECTION ( 'NONE',  ( -0.2244866927916704114, 0.9744771545600533491, -0.000000000000000000 ) ) ;
#320 = ORIENTED_EDGE ( 'NONE', *, *, #284, .T. ) ;
#321 = CARTESIAN_POINT ( 'NONE',  ( -20.17975339946521629, -51.15732552920566434, 15.00000000000000000 ) ) ;
#322 = CARTESIAN_POINT ( 'NONE',  ( 25.80060670730442496, -51.56146502392527964, -1.630176532720710059 ) ) ;
#323 = ORIENTED_EDGE ( 'NONE', *, *, #838, .T. ) ;
#324 = VECTOR ( 'NONE', #1164, 1000.000000000000114 ) ;
#325 = CARTESIAN_POINT ( 'NONE',  ( 3.687593803477953625, 3.579371238945708633, 15.00000000000000000 ) ) ;
#326 = CARTESIAN_POINT ( 'NONE',  ( 16.33060636683733691, -2.433467801203039294, 15.00000000000000000 ) ) ;
#327 = VECTOR ( 'NONE', #541, 1000.000000000000000 ) ;
#328 = AXIS2_PLACEMENT_3D ( 'NONE', #608, #1140, #504 ) ;
#329 = CARTESIAN_POINT ( 'NONE',  ( 3.687593803477953625, 3.579371238945708633, 15.00000000000000000 ) ) ;
#330 = APPROVAL ( #950, 'UNSPECIFIED' ) ;
#331 = ORIENTED_EDGE ( 'NONE', *, *, #787, .F. ) ;
#332 = LINE ( 'NONE', #437, #450 ) ;
#333 = ORIENTED_EDGE ( 'NONE', *, *, #952, .F. ) ;
#334 = CARTESIAN_POINT ( 'NONE',  ( -21.79271949222375326, -66.17862234232603669, 16.63017653272062191 ) ) ;
#335 = DIRECTION ( 'NONE',  ( 1.000000000000000000, 0.000000000000000000, 0.000000000000000000 ) ) ;
#336 = ORIENTED_EDGE ( 'NONE', *, *, #1170, .T. ) ;
#337 = CARTESIAN_POINT ( 'NONE',  ( 3.687593803477953625, 3.579371238945708633, 15.00000000000000000 ) ) ;
#338 = EDGE_CURVE ( 'NONE', #1212, #193, #905, .T. ) ;
#339 = ORIENTED_EDGE ( 'NONE', *, *, #991, .F. ) ;
#340 = CARTESIAN_POINT ( 'NONE',  ( 3.687593803477953625, 3.579371238945708633, 15.00000000000000000 ) ) ;
#341 = ADVANCED_FACE ( 'NONE', ( #1215 ), #861, .T. ) ;
#342 = DIRECTION ( 'NONE',  ( 0.9744771545600534601, 0.2244866927916701060, 0.000000000000000000 ) ) ;
#343 = EDGE_LOOP ( 'NONE', ( #881, #609, #119, #975 ) ) ;
#344 = VECTOR ( 'NONE', #283, 1000.000000000000000 ) ;
#345 = CARTESIAN_POINT ( 'NONE',  ( 17.78047381030560814, -1.842873048538704372, 15.00000000000000000 ) ) ;
#346 = AXIS2_PLACEMENT_3D ( 'NONE', #53, #1303, #266 ) ;
#347 = CARTESIAN_POINT ( 'NONE',  ( 3.687593803477953625, 3.579371238945708633, 0.000000000000000000 ) ) ;
#348 = B_SPLINE_CURVE_WITH_KNOTS ( 'NONE', 2,
 ( #312, #20, #1151 ),
 .UNSPECIFIED., .F., .F.,
 ( 3, 3 ),
 ( 0.000000000000000000, 1.000000000000000000 ),
 .UNSPECIFIED. ) ;
#349 = VECTOR ( 'NONE', #841, 1000.000000000000000 ) ;
#350 = DIRECTION ( 'NONE',  ( -0.000000000000000000, -0.000000000000000000, -1.000000000000000000 ) ) ;
#351 = AXIS2_PLACEMENT_3D ( 'NONE', #67, #1078, #448 ) ;
#352 = LINE ( 'NONE', #1092, #809 ) ;
#353 = ORIENTED_EDGE ( 'NONE', *, *, #1149, .T. ) ;
#354 = VECTOR ( 'NONE', #1329, 1000.000000000000114 ) ;
#355 = CARTESIAN_POINT ( 'NONE',  ( 14.97529880510482947, 3.449804119669536817, 15.00000000000000000 ) ) ;
#356 = FACE_OUTER_BOUND ( 'NONE', #783, .T. ) ;
#357 = CARTESIAN_POINT ( 'NONE',  ( 16.33060636683733691, -2.433467801203039294, 15.00000000000000000 ) ) ;
#358 = CARTESIAN_POINT ( 'NONE',  ( 19.69965651080481095, -52.96691832376914277, -3.888373136890206123E-15 ) ) ;
#359 = ADVANCED_FACE ( 'NONE', ( #1139 ), #1323, .F. ) ;
#360 = ORIENTED_EDGE ( 'NONE', *, *, #250, .T. ) ;
#361 = CARTESIAN_POINT ( 'NONE',  ( -7.795552619593014931, -54.01022799380644557, 7.500000000000103917 ) ) ;
#362 = CARTESIAN_POINT ( 'NONE',  ( 29.16790709917948021, -66.17862234232607932, -1.630176532720710059 ) ) ;
#363 = CARTESIAN_POINT ( 'NONE',  ( 54.99149353743737834, -34.25783905583409705, 0.000000000000000000 ) ) ;
#364 = ORIENTED_EDGE ( 'NONE', *, *, #85, .T. ) ;
#365 = VERTEX_POINT ( 'NONE', #294 ) ;
#366 = CARTESIAN_POINT ( 'NONE',  ( 3.687593803477953625, 3.579371238945708633, 15.00000000000000000 ) ) ;
#367 = LINE ( 'NONE', #788, #550 ) ;
#368 = CIRCLE ( 'NONE', #130, 14.00000000000000178 ) ;
#369 = CARTESIAN_POINT ( 'NONE',  ( 54.99149353743737834, -2.257839055834095721, 15.00000000000000000 ) ) ;
#370 = ORIENTED_EDGE ( 'NONE', *, *, #288, .T. ) ;
#371 = AXIS2_PLACEMENT_3D ( 'NONE', #707, #1019, #502 ) ;
#372 = VERTEX_POINT ( 'NONE', #1128 ) ;
#373 = CARTESIAN_POINT ( 'NONE',  ( -15.57527535897546400, -67.61091191890415075, 1.509396250171105427E-15 ) ) ;
#374 = CARTESIAN_POINT ( 'NONE',  ( 54.99149353743737834, -34.25783905583409705, 15.00000000000000000 ) ) ;
#375 = EDGE_CURVE ( 'NONE', #1245, #681, #1133, .T. ) ;
#376 = LINE ( 'NONE', #180, #1201 ) ;
#377 = ORIENTED_EDGE ( 'NONE', *, *, #288, .F. ) ;
#378 = VERTEX_POINT ( 'NONE', #1236 ) ;
#379 = DIRECTION ( 'NONE',  ( 0.9744771545600533491, -0.2244866927916703558, 0.000000000000000000 ) ) ;
#380 = CARTESIAN_POINT ( 'NONE',  ( 0.000000000000000000, 0.000000000000000000, 15.00000000000000000 ) ) ;
#381 = EDGE_CURVE ( 'NONE', #203, #602, #376, .T. ) ;
#382 = CARTESIAN_POINT ( 'NONE',  ( -15.69176929572429735, -67.58407564216985008, -4.319070277420487436 ) ) ;
#383 = EDGE_CURVE ( 'NONE', #701, #1104, #199, .T. ) ;
#384 = ORIENTED_EDGE ( 'NONE', *, *, #551, .F. ) ;
#385 = ORIENTED_EDGE ( 'NONE', *, *, #1268, .F. ) ;
#386 = DIRECTION ( 'NONE',  ( 1.000000000000000000, 0.000000000000000000, 0.000000000000000000 ) ) ;
#387 = DIRECTION ( 'NONE',  ( 1.000000000000000000, 0.000000000000000000, 0.000000000000000000 ) ) ;
#388 = AXIS2_PLACEMENT_3D ( 'NONE', #637, #948, #960 ) ;
#389 = CARTESIAN_POINT ( 'NONE',  ( -12.20797496710041052, -52.99375460050335107, 0.000000000000000000 ) ) ;
#390 = VECTOR ( 'NONE', #886, 1000.000000000000000 ) ;
#391 = LINE ( 'NONE', #1237, #617 ) ;
#392 = ORIENTED_EDGE ( 'NONE', *, *, #543, .F. ) ;
#393 = LINE ( 'NONE', #1105, #964 ) ;
#394 = AXIS2_PLACEMENT_3D ( 'NONE', #944, #1302, #579 ) ;
#395 = DIRECTION ( 'NONE',  ( 0.9744771545600534601, -0.2244866927916704669, 0.000000000000000000 ) ) ;
#396 = EDGE_CURVE ( 'NONE', #274, #799, #1244, .T. ) ;
#397 = ORIENTED_EDGE ( 'NONE', *, *, #1339, .F. ) ;
#398 = EDGE_CURVE ( 'NONE', #5, #667, #92, .T. ) ;
#399 = ORIENTED_EDGE ( 'NONE', *, *, #499, .T. ) ;
#400 = DIRECTION ( 'NONE',  ( -0.000000000000000000, 1.000000000000000000, -0.000000000000000000 ) ) ;
#401 = DIRECTION ( 'NONE',  ( -0.9744771545600533491, 0.2244866927916704114, 2.583875899478811235E-14 ) ) ;
#402 = ORIENTED_EDGE ( 'NONE', *, *, #503, .T. ) ;
#403 = ORIENTED_EDGE ( 'NONE', *, *, #1188, .T. ) ;
#404 = LINE ( 'NONE', #714, #807 ) ;
#405 = DIRECTION ( 'NONE',  ( 0.9744771545600522389, 0.2244866927916756572, -0.000000000000000000 ) ) ;
#406 = AXIS2_PLACEMENT_3D ( 'NONE', #315, #1, #511 ) ;
#407 = ORIENTED_EDGE ( 'NONE', *, *, #1149, .F. ) ;
#408 = VECTOR ( 'NONE', #59, 1000.000000000000114 ) ;
#409 = CC_DESIGN_DATE_AND_TIME_ASSIGNMENT ( #1023, #78, ( #763 ) ) ;
#410 = ORIENTED_EDGE ( 'NONE', *, *, #1031, .F. ) ;
#411 = CYLINDRICAL_SURFACE ( 'NONE', #761, 14.00000000000000178 ) ;
#412 = AXIS2_PLACEMENT_3D ( 'NONE', #1319, #1032, #1340 ) ;
#413 = B_SPLINE_CURVE_WITH_KNOTS ( 'NONE', 2,
 ( #231, #764, #1081 ),
 .UNSPECIFIED., .F., .F.,
 ( 3, 3 ),
 ( 0.000000000000000000, 1.000000000000000000 ),
 .UNSPECIFIED. ) ;
#414 = PRODUCT ( 'EDM Threading Tool', 'EDM Threading Tool', '', ( #1042 ) ) ;
#415 = EDGE_CURVE ( 'NONE', #1104, #176, #81, .T. ) ;
#416 = VECTOR ( 'NONE', #885, 1000.000000000000000 ) ;
#417 = DIRECTION ( 'NONE',  ( 0.001193385998514590604, -0.9999992879146757385, 0.000000000000000000 ) ) ;
#418 = DIRECTION ( 'NONE',  ( 0.000000000000000000, -0.000000000000000000, -1.000000000000000000 ) ) ;
#419 = ORIENTED_EDGE ( 'NONE', *, *, #148, .F. ) ;
#420 = DIRECTION ( 'NONE',  ( 0.9744771545600534601, -0.2244866927916701616, 0.000000000000000000 ) ) ;
#421 = PLANE ( 'NONE',  #525 ) ;
#422 = ADVANCED_FACE ( 'NONE', ( #1230 ), #298, .F. ) ;
#423 = CARTESIAN_POINT ( 'NONE',  ( 53.83254604501916418, -35.45783905583409279, 0.000000000000000000 ) ) ;
#424 = ORIENTED_EDGE ( 'NONE', *, *, #601, .F. ) ;
#425 = CARTESIAN_POINT ( 'NONE',  ( 29.16790709917948021, -66.17862234232607932, 16.63017653272070362 ) ) ;
#426 = CARTESIAN_POINT ( 'NONE',  ( 53.79149356667026183, -1.057863551569251159, 0.000000000000000000 ) ) ;
#427 = CARTESIAN_POINT ( 'NONE',  ( 53.79149356667026183, -1.057863551569251159, 15.00000000000000000 ) ) ;
#428 = ORIENTED_EDGE ( 'NONE', *, *, #1209, .F. ) ;
#429 = AXIS2_PLACEMENT_3D ( 'NONE', #676, #51, #149 ) ;
#430 = CARTESIAN_POINT ( 'NONE',  ( -7.795552619593014931, -54.01022799380644557, 7.500000000000103917 ) ) ;
#431 = LINE ( 'NONE', #853, #349 ) ;
#432 = VECTOR ( 'NONE', #1025, 999.9999999999998863 ) ;
#433 = AXIS2_PLACEMENT_3D ( 'NONE', #21, #651, #121 ) ;
#434 = FACE_BOUND ( 'NONE', #1247, .T. ) ;
#435 = ORIENTED_EDGE ( 'NONE', *, *, #247, .F. ) ;
#436 = EDGE_CURVE ( 'NONE', #372, #215, #1222, .T. ) ;
#437 = CARTESIAN_POINT ( 'NONE',  ( -10.40528620334970000, -1.842873048538709480, 15.00000000000000000 ) ) ;
#438 = ADVANCED_FACE ( 'NONE', ( #11 ), #421, .F. ) ;
#439 = ORIENTED_EDGE ( 'NONE', *, *, #60, .F. ) ;
#440 = DIRECTION ( 'NONE',  ( 0.2244866927916756849, -0.9744771545600522389, 0.000000000000000000 ) ) ;
#441 = B_SPLINE_CURVE_WITH_KNOTS ( 'NONE', 2,
 ( #120, #863, #625 ),
 .UNSPECIFIED., .F., .F.,
 ( 3, 3 ),
 ( 0.000000000000000000, 1.000000000000000000 ),
 .UNSPECIFIED. ) ;
#442 = CARTESIAN_POINT ( 'NONE',  ( -10.40528620334970000, -1.842873048538709480, 15.00000000000000000 ) ) ;
#443 = CARTESIAN_POINT ( 'NONE',  ( 17.68759380347795584, 3.579371238945710409, 15.00000000000000000 ) ) ;
#444 = EDGE_CURVE ( 'NONE', #1005, #267, #743, .T. ) ;
#445 = ORIENTED_EDGE ( 'NONE', *, *, #473, .T. ) ;
#446 = LINE ( 'NONE', #1184, #1261 ) ;
#447 = CARTESIAN_POINT ( 'NONE',  ( 53.79149356667026183, -1.057863551569251159, 0.000000000000000000 ) ) ;
#448 = DIRECTION ( 'NONE',  ( 0.9744771545600533491, -0.2244866927916706056, 0.000000000000000000 ) ) ;
#449 = ORIENTED_EDGE ( 'NONE', *, *, #1270, .T. ) ;
#450 = VECTOR ( 'NONE', #459, 1000.000000000000000 ) ;
#451 = DIRECTION ( 'NONE',  ( 0.9744771545600534601, -0.2244866927916704669, 0.000000000000000000 ) ) ;
#452 = AXIS2_PLACEMENT_3D ( 'NONE', #1200, #1009, #270 ) ;
#453 = CALENDAR_DATE ( 2026, 30, 5 ) ;
#454 = DIRECTION ( 'NONE',  ( 0.9744771545600533491, -0.2244866927916703558, 0.000000000000000000 ) ) ;
#455 = CARTESIAN_POINT ( 'NONE',  ( -18.42541910034876196, -51.56146502392522990, 16.63017653272046914 ) ) ;
#456 = ADVANCED_FACE ( 'NONE', ( #963 ), #1057, .T. ) ;
#457 = EDGE_LOOP ( 'NONE', ( #693, #1324, #954, #978 ) ) ;
#458 = AXIS2_PLACEMENT_3D ( 'NONE', #1122, #286, #192 ) ;
#459 = DIRECTION ( 'NONE',  ( -0.000000000000000000, -0.000000000000000000, -1.000000000000000000 ) ) ;
#460 = CARTESIAN_POINT ( 'NONE',  ( 19.69965651080481095, -52.96691832376914277, 19.31907027742056115 ) ) ;
#461 = CARTESIAN_POINT ( 'NONE',  ( -10.31240619652204771, 3.579371238945708633, 15.00000000000000000 ) ) ;
#462 = ADVANCED_FACE ( 'NONE', ( #752 ), #220, .T. ) ;
#463 = CARTESIAN_POINT ( 'NONE',  ( -23.25690829581958141, -65.84132259075802551, -0.4531228822760809960 ) ) ;
#464 = ORIENTED_EDGE ( 'NONE', *, *, #1052, .F. ) ;
#465 = VERTEX_POINT ( 'NONE', #316 ) ;
#466 = LINE ( 'NONE', #345, #501 ) ;
#467 = DIRECTION ( 'NONE',  ( -0.000000000000000000, 0.000000000000000000, 1.000000000000000000 ) ) ;
#468 = DIRECTION ( 'NONE',  ( -1.557689344120416449E-17, 6.761793587273616314E-17, -1.000000000000000000 ) ) ;
#469 = CARTESIAN_POINT ( 'NONE',  ( -8.955418759881428770, -2.433467801203039738, 0.000000000000000000 ) ) ;
#470 = ORIENTED_EDGE ( 'NONE', *, *, #247, .T. ) ;
#471 = ORIENTED_EDGE ( 'NONE', *, *, #759, .T. ) ;
#472 = DIRECTION ( 'NONE',  ( 0.9744771545600534601, 0.2244866927916704669, 0.000000000000000000 ) ) ;
#473 = EDGE_CURVE ( 'NONE', #899, #141, #441, .T. ) ;
#474 = CIRCLE ( 'NONE', #568, 14.00000000000000178 ) ;
#475 = APPROVAL_DATE_TIME ( #65, #330 ) ;
#476 = DIRECTION ( 'NONE',  ( -0.2244866927916704114, 0.9744771545600533491, -0.000000000000000000 ) ) ;
#477 = ORGANIZATION ( 'UNSPECIFIED', 'UNSPECIFIED', '' ) ;
#478 = CARTESIAN_POINT ( 'NONE',  ( -15.69176929572433465, -67.58407564216985008, -5.944368606319913262 ) ) ;
#479 = DATE_AND_TIME ( #15, #654 ) ;
#481 = ADVANCED_FACE ( 'NONE', ( #1049 ), #1257, .T. ) ;
#480 = ORIENTED_EDGE ( 'NONE', *, *, #660, .T. ) ;
#482 = VECTOR ( 'NONE', #1194, 999.9999999999998863 ) ;
#483 = VECTOR ( 'NONE', #1101, 1000.000000000000000 ) ;
#484 = VERTEX_POINT ( 'NONE', #530 ) ;
#485 = CARTESIAN_POINT ( 'NONE',  ( -11.16285301146807107, -68.62738531220725235, 7.500000000000103917 ) ) ;
#486 = PLANE ( 'NONE',  #986 ) ;
#487 = EDGE_CURVE ( 'NONE', #40, #868, #4, .T. ) ;
#488 = PLANE ( 'NONE',  #531 ) ;
#489 = PERSON_AND_ORGANIZATION ( #777, #477 ) ;
#490 = ORIENTED_EDGE ( 'NONE', *, *, #1010, .T. ) ;
#491 = VERTEX_POINT ( 'NONE', #1145 ) ;
#492 = CARTESIAN_POINT ( 'NONE',  ( 23.06695690267986620, -67.58407564216994956, 19.31907027742056115 ) ) ;
#493 = CARTESIAN_POINT ( 'NONE',  ( -25.05305304284071610, -65.42755137801373166, 15.00000000000000000 ) ) ;
#494 = CARTESIAN_POINT ( 'NONE',  ( -7.971778432364509115, 1.836429071297675186, 15.00000000000000000 ) ) ;
#495 = ORIENTED_EDGE ( 'NONE', *, *, #526, .F. ) ;
#496 = EDGE_LOOP ( 'NONE', ( #154, #1065, #1053, #737 ) ) ;
#497 = FACE_OUTER_BOUND ( 'NONE', #769, .T. ) ;
#498 = DIRECTION ( 'NONE',  ( -0.2244866927916704114, 0.9744771545600533491, -0.000000000000000000 ) ) ;
#499 = EDGE_CURVE ( 'NONE', #914, #703, #1172, .T. ) ;
#500 = B_SPLINE_CURVE_WITH_KNOTS ( 'NONE', 2,
 ( #989, #36, #882 ),
 .UNSPECIFIED., .F., .F.,
 ( 3, 3 ),
 ( 0.000000000000000000, 1.000000000000000000 ),
 .UNSPECIFIED. ) ;
#501 = VECTOR ( 'NONE', #129, 1000.000000000000000 ) ;
#502 = DIRECTION ( 'NONE',  ( 0.9744771545600533491, 0.2244866927916707999, 0.000000000000000000 ) ) ;
#503 = EDGE_CURVE ( 'NONE', #365, #141, #1243, .T. ) ;
#504 = DIRECTION ( 'NONE',  ( -0.2244866927916704114, 0.9744771545600533491, 0.000000000000000000 ) ) ;
#505 = ORIENTED_EDGE ( 'NONE', *, *, #175, .F. ) ;
#506 = CIRCLE ( 'NONE', #351, 14.22499999999982911 ) ;
#507 = LINE ( 'NONE', #1343, #306 ) ;
#508 = CARTESIAN_POINT ( 'NONE',  ( 3.687593803477953625, 3.579371238945708633, 0.000000000000000000 ) ) ;
#509 = ORIENTED_EDGE ( 'NONE', *, *, #398, .T. ) ;
#510 = ORIENTED_EDGE ( 'NONE', *, *, #973, .F. ) ;
#511 = DIRECTION ( 'NONE',  ( 0.000000000000000000, -0.000000000000000000, 1.000000000000000000 ) ) ;
#512 = CARTESIAN_POINT ( 'NONE',  ( 16.48129805660527580, 3.796735589262279387, 15.00000000000000000 ) ) ;
#513 = B_SPLINE_SURFACE_WITH_KNOTS ( 'NONE', 2, 1, ( 
 ( #1187, #39 ),
 ( #463, #1182 ),
 ( #1282, #891 ) ),
 .UNSPECIFIED., .F., .F., .F.,
 ( 3, 3 ),
 ( 2, 2 ),
 ( 0.000000000000000000, 1.000000000000000000 ),
 ( 0.000000000000000000, 1.000000000000000000 ),
 .UNSPECIFIED. ) ;
#514 = EDGE_LOOP ( 'NONE', ( #289, #1206, #596, #994 ) ) ;
#515 = ORIENTED_EDGE ( 'NONE', *, *, #202, .T. ) ;
#516 = EDGE_CURVE ( 'NONE', #921, #709, #177, .T. ) ;
#517 = CALENDAR_DATE ( 2026, 30, 5 ) ;
#518 = CARTESIAN_POINT ( 'NONE',  ( 23.06695690267986620, -67.58407564216994956, -5.944368606320124648 ) ) ;
#519 = APPROVAL_STATUS ( 'not_yet_approved' ) ;
#520 = CARTESIAN_POINT ( 'NONE',  ( -11.41240619652204380, 3.579371238945708633, 0.000000000000000000 ) ) ;
#521 = LINE ( 'NONE', #842, #552 ) ;
#522 = APPLICATION_CONTEXT ( 'configuration controlled 3d designs of mechanical parts and assemblies' ) ;
#523 = LOCAL_TIME ( 15, 44, 44.00000000000000000, #210 ) ;
#524 = ORIENTED_EDGE ( 'NONE', *, *, #1070, .T. ) ;
#525 = AXIS2_PLACEMENT_3D ( 'NONE', #207, #832, #644 ) ;
#526 = EDGE_CURVE ( 'NONE', #820, #365, #348, .T. ) ;
#527 = CARTESIAN_POINT ( 'NONE',  ( -11.16285301146807107, -68.62738531220725235, 7.500000000000103917 ) ) ;
#528 = AXIS2_PLACEMENT_3D ( 'NONE', #139, #145, #560 ) ;
#529 = PERSON_AND_ORGANIZATION ( #777, #477 ) ;
#530 = CARTESIAN_POINT ( 'NONE',  ( 82.69149356667026041, -35.45783905583409279, 15.00000000000000000 ) ) ;
#531 = AXIS2_PLACEMENT_3D ( 'NONE', #927, #1038, #1223 ) ;
#532 = FACE_OUTER_BOUND ( 'NONE', #296, .T. ) ;
#533 = ORIENTED_EDGE ( 'NONE', *, *, #545, .T. ) ;
#534 = CARTESIAN_POINT ( 'NONE',  ( 54.99149353743737834, -34.25783905583409705, 0.000000000000000000 ) ) ;
#535 = VERTEX_POINT ( 'NONE', #321 ) ;
#536 = DIRECTION ( 'NONE',  ( 0.2244866927916705779, -0.9744771545600534601, -6.938893903907228378E-17 ) ) ;
#537 = CYLINDRICAL_SURFACE ( 'NONE', #745, 14.22500000000000320 ) ;
#538 = ORIENTED_EDGE ( 'NONE', *, *, #1014, .F. ) ;
#539 = CARTESIAN_POINT ( 'NONE',  ( -25.05305304284071610, -65.42755137801373166, 15.00000000000000000 ) ) ;
#540 = EDGE_CURVE ( 'NONE', #258, #1005, #775, .T. ) ;
#541 = DIRECTION ( 'NONE',  ( -1.000000000000000000, -0.000000000000000000, -0.000000000000000000 ) ) ;
#542 = CARTESIAN_POINT ( 'NONE',  ( -11.16285301146807107, -68.62738531220725235, 7.500000000000103917 ) ) ;
#543 = EDGE_CURVE ( 'NONE', #1118, #843, #678, .T. ) ;
#544 = VERTEX_POINT ( 'NONE', #520 ) ;
#545 = EDGE_CURVE ( 'NONE', #703, #646, #943, .T. ) ;
#546 = VECTOR ( 'NONE', #476, 1000.000000000000114 ) ;
#547 = CARTESIAN_POINT ( 'NONE',  ( -25.05305304284071610, -65.42755137801373166, 1.509396250171105427E-15 ) ) ;
#548 = ORIENTED_EDGE ( 'NONE', *, *, #183, .T. ) ;
#549 = DIRECTION ( 'NONE',  ( -0.000000000000000000, 0.000000000000000000, 1.000000000000000000 ) ) ;
#550 = VECTOR ( 'NONE', #773, 1000.000000000000000 ) ;
#551 = EDGE_CURVE ( 'NONE', #215, #1245, #431, .T. ) ;
#552 = VECTOR ( 'NONE', #1274, 1000.000000000000114 ) ;
#553 = EDGE_CURVE ( 'NONE', #230, #201, #1263, .T. ) ;
#554 = CARTESIAN_POINT ( 'NONE',  ( 18.53804061842373230, -68.62738531220730920, 7.500000000000000000 ) ) ;
#555 = CARTESIAN_POINT ( 'NONE',  ( 12.57964220131598765, -54.60712964887519405, -3.888373136890206123E-15 ) ) ;
#556 = EDGE_LOOP ( 'NONE', ( #1124, #407, #419, #70, #524, #1108, #1262, #798, #90, #63, #377, #1034 ) ) ;
#557 = DIRECTION ( 'NONE',  ( -6.230757376481666258E-18, -2.704717434909446156E-17, -1.000000000000000000 ) ) ;
#558 = ORIENTED_EDGE ( 'NONE', *, *, #920, .T. ) ;
#559 = CARTESIAN_POINT ( 'NONE',  ( 16.48129805660527580, 3.796735589262279387, 15.00000000000000000 ) ) ;
#560 = DIRECTION ( 'NONE',  ( 0.000000000000000000, 0.000000000000000000, 1.000000000000000000 ) ) ;
#561 = DIRECTION ( 'NONE',  ( 0.9744771545600533491, -0.2244866927916706056, 0.000000000000000000 ) ) ;
#562 = ORIENTED_EDGE ( 'NONE', *, *, #396, .F. ) ;
#563 = DIRECTION ( 'NONE',  ( -0.000000000000000000, -0.000000000000000000, -1.000000000000000000 ) ) ;
#564 = ADVANCED_FACE ( 'NONE', ( #1166 ), #228, .T. ) ;
#565 = CARTESIAN_POINT ( 'NONE',  ( 14.97529880510482947, 3.449804119669536817, 15.00000000000000000 ) ) ;
#566 = CARTESIAN_POINT ( 'NONE',  ( 53.79149356667026183, -1.057863551569251159, 15.00000000000000000 ) ) ;
#567 = ORIENTED_EDGE ( 'NONE', *, *, #1113, .F. ) ;
#568 = AXIS2_PLACEMENT_3D ( 'NONE', #1294, #1299, #779 ) ;
#569 = CARTESIAN_POINT ( 'NONE',  ( 12.57964220131597877, -54.60712964887517273, 0.000000000000000000 ) ) ;
#570 = DIRECTION ( 'NONE',  ( 0.000000000000000000, -0.000000000000000000, -1.000000000000000000 ) ) ;
#571 = VECTOR ( 'NONE', #747, 1000.000000000000000 ) ;
#572 = CARTESIAN_POINT ( 'NONE',  ( -21.79271949222381721, -66.17862234232602248, 16.63017653272046914 ) ) ;
#573 = AXIS2_PLACEMENT_3D ( 'NONE', #427, #1264, #418 ) ;
#574 = LINE ( 'NONE', #999, #69 ) ;
#575 = ORIENTED_EDGE ( 'NONE', *, *, #1330, .T. ) ;
#576 = PLANE ( 'NONE',  #612 ) ;
#577 = CC_DESIGN_PERSON_AND_ORGANIZATION_ASSIGNMENT ( #730, #1220, ( #763 ) ) ;
#578 = DIRECTION ( 'NONE',  ( 0.2244866927916704114, 0.9744771545600533491, -0.000000000000000000 ) ) ;
#579 = DIRECTION ( 'NONE',  ( 0.000000000000000000, 0.000000000000000000, 1.000000000000000000 ) ) ;
#580 = ORIENTED_EDGE ( 'NONE', *, *, #553, .F. ) ;
#581 = ORIENTED_EDGE ( 'NONE', *, *, #473, .F. ) ;
#582 = DIRECTION ( 'NONE',  ( -0.000000000000000000, -0.000000000000000000, -1.000000000000000000 ) ) ;
#583 = CARTESIAN_POINT ( 'NONE',  ( 17.78047381030560814, -1.842873048538704372, 15.00000000000000000 ) ) ;
#584 = EDGE_CURVE ( 'NONE', #709, #1254, #971, .T. ) ;
#585 = CARTESIAN_POINT ( 'NONE',  ( 18.53804061842373230, -68.62738531220730920, 7.500000000000000000 ) ) ;
#586 = EDGE_CURVE ( 'NONE', #147, #95, #367, .T. ) ;
#587 = ORIENTED_EDGE ( 'NONE', *, *, #1268, .T. ) ;
#588 = EDGE_CURVE ( 'NONE', #709, #267, #1178, .T. ) ;
#589 = ORIENTED_EDGE ( 'NONE', *, *, #1072, .T. ) ;
#590 = CYLINDRICAL_SURFACE ( 'NONE', #452, 12.70000000000006146 ) ;
#591 = VECTOR ( 'NONE', #498, 1000.000000000000114 ) ;
#592 = FACE_OUTER_BOUND ( 'NONE', #622, .T. ) ;
#593 = AXIS2_PLACEMENT_3D ( 'NONE', #723, #840, #829 ) ;
#594 = CARTESIAN_POINT ( 'NONE',  ( 53.83254604501916418, -35.45783905583409279, 15.00000000000000000 ) ) ;
#595 = ORIENTED_EDGE ( 'NONE', *, *, #1314, .F. ) ;
#596 = ORIENTED_EDGE ( 'NONE', *, *, #669, .T. ) ;
#597 = PLANE ( 'NONE',  #652 ) ;
#598 = DIRECTION ( 'NONE',  ( 0.9744771545600534601, 0.2244866927916704669, 0.000000000000000000 ) ) ;
#599 = DIRECTION ( 'NONE',  ( 2.425157014111030174E-14, -5.558261858701842781E-15, 1.000000000000000000 ) ) ;
#600 = ORIENTED_EDGE ( 'NONE', *, *, #375, .F. ) ;
#601 = EDGE_CURVE ( 'NONE', #1177, #1104, #159, .T. ) ;
#602 = VERTEX_POINT ( 'NONE', #1099 ) ;
#603 = CARTESIAN_POINT ( 'NONE',  ( 23.06695690267986620, -67.58407564216994956, -4.319070277420562043 ) ) ;
#604 = EDGE_CURVE ( 'NONE', #961, #799, #624, .T. ) ;
#605 = CARTESIAN_POINT ( 'NONE',  ( 12.57964220131597877, -54.60712964887517273, 15.00000000000000000 ) ) ;
#606 = EDGE_CURVE ( 'NONE', #1321, #491, #1315, .T. ) ;
#607 = CARTESIAN_POINT ( 'NONE',  ( 27.26479551090013587, -51.22416527235727557, -0.4531228822760745012 ) ) ;
#608 = CARTESIAN_POINT ( 'NONE',  ( 23.06695690267986620, -67.58407564216994956, -3.888373136890206123E-15 ) ) ;
#609 = ORIENTED_EDGE ( 'NONE', *, *, #669, .F. ) ;
#610 = SECURITY_CLASSIFICATION_LEVEL ( 'unclassified' ) ;
#611 = DIRECTION ( 'NONE',  ( -0.000000000000000000, -0.000000000000000000, -1.000000000000000000 ) ) ;
#612 = AXIS2_PLACEMENT_3D ( 'NONE', #355, #254, #668 ) ;
#613 = FACE_OUTER_BOUND ( 'NONE', #279, .T. ) ;
#614 = ORIENTED_EDGE ( 'NONE', *, *, #160, .T. ) ;
#615 = EDGE_LOOP ( 'NONE', ( #490, #1013, #232, #320 ) ) ;
#616 = VECTOR ( 'NONE', #417, 1000.000000000000000 ) ;
#617 = VECTOR ( 'NONE', #1039, 1000.000000000000000 ) ;
#618 = DIRECTION ( 'NONE',  ( 0.9744771545600534601, -0.2244866927916701616, 0.000000000000000000 ) ) ;
#619 = APPROVAL ( #816, 'UNSPECIFIED' ) ;
#620 = CARTESIAN_POINT ( 'NONE',  ( -9.477777683864950120, 2.183360540890417312, 0.000000000000000000 ) ) ;
#621 = ORIENTED_EDGE ( 'NONE', *, *, #118, .F. ) ;
#622 = EDGE_LOOP ( 'NONE', ( #1085, #206, #96, #852 ) ) ;
#623 = FACE_OUTER_BOUND ( 'NONE', #1021, .T. ) ;
#624 = B_SPLINE_CURVE_WITH_KNOTS ( 'NONE', 2,
 ( #1301, #57, #362 ),
 .UNSPECIFIED., .F., .F.,
 ( 3, 3 ),
 ( 0.000000000000000000, 1.000000000000000000 ),
 .UNSPECIFIED. ) ;
#625 = CARTESIAN_POINT ( 'NONE',  ( -18.42541910034869801, -51.56146502392522990, 16.63017653272062191 ) ) ;
#626 = DIRECTION ( 'NONE',  ( 0.2244866927916757127, -0.9744771545600522389, 0.000000000000000000 ) ) ;
#627 = EDGE_CURVE ( 'NONE', #1254, #687, #869, .T. ) ;
#628 = EDGE_LOOP ( 'NONE', ( #813, #1198, #48, #815, #643, #76, #331, #137, #428, #621, #480, #1325 ) ) ;
#629 = EDGE_CURVE ( 'NONE', #715, #258, #1280, .T. ) ;
#630 = CARTESIAN_POINT ( 'NONE',  ( 3.687593803477953625, 3.579371238945708633, 15.00000000000000000 ) ) ;
#631 = CARTESIAN_POINT ( 'NONE',  ( 27.26479551090013942, -51.22416527235728267, 15.45312288227607134 ) ) ;
#632 = VECTOR ( 'NONE', #80, 1000.000000000000114 ) ;
#633 = CARTESIAN_POINT ( 'NONE',  ( -15.69176929572429735, -67.58407564216985008, 19.31907027742069616 ) ) ;
#634 = EDGE_CURVE ( 'NONE', #735, #123, #904, .T. ) ;
#635 = CC_DESIGN_APPROVAL ( #755, ( #1160 ) ) ;
#636 = VERTEX_POINT ( 'NONE', #896 ) ;
#637 = CARTESIAN_POINT ( 'NONE',  ( 3.687593803477953625, 3.579371238945708633, 0.000000000000000000 ) ) ;
#638 = ORIENTED_EDGE ( 'NONE', *, *, #856, .T. ) ;
#639 = DIRECTION ( 'NONE',  ( -0.9744771545600533491, -0.2244866927916707999, 0.000000000000000000 ) ) ;
#640 = CARTESIAN_POINT ( 'NONE',  ( 16.48129805660527580, 3.796735589262279387, 0.000000000000000000 ) ) ;
#641 = ORIENTED_EDGE ( 'NONE', *, *, #1116, .F. ) ;
#642 = FACE_OUTER_BOUND ( 'NONE', #1298, .T. ) ;
#643 = ORIENTED_EDGE ( 'NONE', *, *, #243, .T. ) ;
#644 = DIRECTION ( 'NONE',  ( -0.2244866927916704114, 0.9744771545600533491, 0.000000000000000000 ) ) ;
#645 = DIRECTION ( 'NONE',  ( -0.000000000000000000, 0.000000000000000000, 1.000000000000000000 ) ) ;
#646 = VERTEX_POINT ( 'NONE', #1285 ) ;
#647 = MANIFOLD_SOLID_BREP ( 'Boss-Extrude3', #814 ) ;
#648 = LINE ( 'NONE', #547, #1136 ) ;
#649 = ORIENTED_EDGE ( 'NONE', *, *, #175, .T. ) ;
#650 = DIRECTION ( 'NONE',  ( 0.9744771545600533491, 0.2244866927916707999, 0.000000000000000000 ) ) ;
#651 = DIRECTION ( 'NONE',  ( -0.000000000000000000, -0.000000000000000000, -1.000000000000000000 ) ) ;
#652 = AXIS2_PLACEMENT_3D ( 'NONE', #77, #689, #704 ) ;
#653 = EDGE_LOOP ( 'NONE', ( #29, #887, #966, #281 ) ) ;
#654 = LOCAL_TIME ( 15, 44, 44.00000000000000000, #112 ) ;
#655 = LINE ( 'NONE', #1064, #1091 ) ;
#656 = ORIENTED_EDGE ( 'NONE', *, *, #280, .T. ) ;
#657 = PLANE ( 'NONE',  #114 ) ;
#658 = LINE ( 'NONE', #566, #884 ) ;
#659 = FACE_OUTER_BOUND ( 'NONE', #653, .T. ) ;
#660 = EDGE_CURVE ( 'NONE', #230, #308, #780, .T. ) ;
#661 = ORIENTED_EDGE ( 'NONE', *, *, #991, .T. ) ;
#662 = DIRECTION ( 'NONE',  ( -0.2244866927916703836, -0.9744771545600534601, 2.775557561562891351E-17 ) ) ;
#663 = CARTESIAN_POINT ( 'NONE',  ( 23.06695690267986620, -67.58407564216994956, 19.31907027742056115 ) ) ;
#664 = CARTESIAN_POINT ( 'NONE',  ( 81.49149353743736413, -2.257839055834095721, 0.000000000000000000 ) ) ;
#665 = ADVANCED_FACE ( 'NONE', ( #249 ), #657, .F. ) ;
#666 = PLANE ( 'NONE',  #1288 ) ;
#667 = VERTEX_POINT ( 'NONE', #1296 ) ;
#668 = DIRECTION ( 'NONE',  ( -0.2244866927916756572, 0.9744771545600521279, 0.000000000000000000 ) ) ;
#669 = EDGE_CURVE ( 'NONE', #162, #754, #984, .T. ) ;
#670 = PERSON_AND_ORGANIZATION ( #777, #477 ) ;
#671 = DIRECTION ( 'NONE',  ( -0.2244866927916704114, 0.9744771545600533491, -0.000000000000000000 ) ) ;
#672 = DIRECTION ( 'NONE',  ( 0.9744771545600533491, 0.2244866927916706612, 0.000000000000000000 ) ) ;
#673 = DIRECTION ( 'NONE',  ( -1.557689344120416449E-17, 6.761793587273616314E-17, -1.000000000000000000 ) ) ;
#674 = ORIENTED_EDGE ( 'NONE', *, *, #877, .T. ) ;
#675 = VECTOR ( 'NONE', #472, 999.9999999999998863 ) ;
#676 = CARTESIAN_POINT ( 'NONE',  ( 15.94694259319104290, -69.22428696727598663, -3.888373136890206123E-15 ) ) ;
#677 = CYLINDRICAL_SURFACE ( 'NONE', #1011, 14.00000000000000178 ) ;
#678 = CIRCLE ( 'NONE', #790, 14.22499999999992681 ) ;
#679 = CARTESIAN_POINT ( 'NONE',  ( 53.83254604501916418, -35.45783905583409279, 15.00000000000000000 ) ) ;
#680 = LINE ( 'NONE', #1102, #408 ) ;
#681 = VERTEX_POINT ( 'NONE', #1082 ) ;
#682 = ORIENTED_EDGE ( 'NONE', *, *, #586, .T. ) ;
#683 = CARTESIAN_POINT ( 'NONE',  ( -23.53871287438080984, -65.77640431375301944, 7.500000000000103917 ) ) ;
#684 = EDGE_CURVE ( 'NONE', #857, #1331, #979, .T. ) ;
#685 = FACE_BOUND ( 'NONE', #343, .T. ) ;
#686 = DIRECTION ( 'NONE',  ( -0.000000000000000000, -0.000000000000000000, -1.000000000000000000 ) ) ;
#687 = VERTEX_POINT ( 'NONE', #460 ) ;
#688 = EDGE_LOOP ( 'NONE', ( #209, #1040, #1130, #35 ) ) ;
#689 = DIRECTION ( 'NONE',  ( 0.9744771545600522389, -0.2244866927916756572, 0.000000000000000000 ) ) ;
#690 = ADVANCED_FACE ( 'NONE', ( #1202 ), #677, .F. ) ;
#691 = CARTESIAN_POINT ( 'NONE',  ( 30.63209590277519467, -65.84132259075808236, -0.4531228822760745012 ) ) ;
#692 =( NAMED_UNIT ( * ) PLANE_ANGLE_UNIT ( ) SI_UNIT ( $, .RADIAN. ) );
#693 = ORIENTED_EDGE ( 'NONE', *, *, #1287, .T. ) ;
#694 = ORIENTED_EDGE ( 'NONE', *, *, #1087, .T. ) ;
#695 = CARTESIAN_POINT ( 'NONE',  ( -15.69176929572476453, -67.58407564216975061, 4.483720181663284999E-15 ) ) ;
#696 = CYLINDRICAL_SURFACE ( 'NONE', #854, 14.00000000000000178 ) ;
#697 =( GEOMETRIC_REPRESENTATION_CONTEXT ( 3 ) GLOBAL_UNCERTAINTY_ASSIGNED_CONTEXT ( ( #822 ) ) GLOBAL_UNIT_ASSIGNED_CONTEXT ( ( #1174, #692, #913 ) ) REPRESENTATION_CONTEXT ( 'NONE', 'WORKASPACE' ) );
#698 = CARTESIAN_POINT ( 'NONE',  ( 32.42824064979636489, -65.42755137801380272, 0.000000000000000000 ) ) ;
#699 = AXIS2_PLACEMENT_3D ( 'NONE', #1272, #996, #570 ) ;
#700 = APPLICATION_PROTOCOL_DEFINITION ( 'international standard', 'config_control_design', 1994, #1273 ) ;
#701 = VERTEX_POINT ( 'NONE', #1077 ) ;
#702 = ADVANCED_FACE ( 'NONE', ( #356, #685 ), #889, .T. ) ;
#703 = VERTEX_POINT ( 'NONE', #447 ) ;
#704 = DIRECTION ( 'NONE',  ( 0.2244866927916756572, 0.9744771545600522389, 0.000000000000000000 ) ) ;
#705 = EDGE_CURVE ( 'NONE', #1165, #491, #165, .T. ) ;
#706 = DIRECTION ( 'NONE',  ( 0.9999992879146757385, 0.001193385998514590604, -0.000000000000000000 ) ) ;
#707 = CARTESIAN_POINT ( 'NONE',  ( 18.53804061842373230, -68.62738531220730920, 7.500000000000000000 ) ) ;
#708 = PLANE ( 'NONE',  #328 ) ;
#709 = VERTEX_POINT ( 'NONE', #297 ) ;
#710 = FACE_OUTER_BOUND ( 'NONE', #628, .T. ) ;
#711 = CARTESIAN_POINT ( 'NONE',  ( 29.16790709917948021, -66.17862234232609353, -1.630176532720704952 ) ) ;
#712 = ORIENTED_EDGE ( 'NONE', *, *, #1094, .T. ) ;
#713 = ORIENTED_EDGE ( 'NONE', *, *, #2, .T. ) ;
#714 = CARTESIAN_POINT ( 'NONE',  ( 54.99149353743737834, -2.257839055834095721, 0.000000000000000000 ) ) ;
#715 = VERTEX_POINT ( 'NONE', #583 ) ;
#716 = CIRCLE ( 'NONE', #879, 12.70000000000006146 ) ;
#717 = DIRECTION ( 'NONE',  ( -0.2244866927916703836, -0.9744771545600534601, 2.775557561562891351E-17 ) ) ;
#718 = VERTEX_POINT ( 'NONE', #1234 ) ;
#719 = ORIENTED_EDGE ( 'NONE', *, *, #436, .F. ) ;
#720 = VECTOR ( 'NONE', #440, 999.9999999999998863 ) ;
#721 = FACE_OUTER_BOUND ( 'NONE', #457, .T. ) ;
#722 = EDGE_CURVE ( 'NONE', #372, #1118, #1111, .T. ) ;
#723 = CARTESIAN_POINT ( 'NONE',  ( 0.000000000000000000, 0.000000000000000000, 0.000000000000000000 ) ) ;
#724 = ORIENTED_EDGE ( 'NONE', *, *, #118, .T. ) ;
#725 = CARTESIAN_POINT ( 'NONE',  ( -7.795552619593014931, -54.01022799380644557, 7.500000000000103917 ) ) ;
#726 = ADVANCED_FACE ( 'NONE', ( #710 ), #486, .T. ) ;
#727 = LINE ( 'NONE', #1146, #30 ) ;
#728 = ADVANCED_FACE ( 'NONE', ( #801 ), #170, .F. ) ;
#729 = ORIENTED_EDGE ( 'NONE', *, *, #250, .F. ) ;
#730 = PERSON_AND_ORGANIZATION ( #777, #477 ) ;
#731 = CARTESIAN_POINT ( 'NONE',  ( 27.26479551090013587, -51.22416527235727557, 15.45312288227607134 ) ) ;
#732 = DIRECTION ( 'NONE',  ( 0.2244866927916705779, -0.9744771545600534601, -6.938893903907228378E-17 ) ) ;
#733 = B_SPLINE_SURFACE_WITH_KNOTS ( 'NONE', 2, 1, ( 
 ( #52, #985 ),
 ( #1281, #166 ),
 ( #572, #455 ) ),
 .UNSPECIFIED., .F., .F., .F.,
 ( 3, 3 ),
 ( 2, 2 ),
 ( 0.000000000000000000, 1.000000000000000000 ),
 ( 0.000000000000000000, 1.000000000000000000 ),
 .UNSPECIFIED. ) ;
#734 = FACE_OUTER_BOUND ( 'NONE', #1199, .T. ) ;
#735 = VERTEX_POINT ( 'NONE', #66 ) ;
#736 = CARTESIAN_POINT ( 'NONE',  ( -23.25690829581957786, -65.84132259075801130, -0.4531228822760809960 ) ) ;
#737 = ORIENTED_EDGE ( 'NONE', *, *, #499, .F. ) ;
#738 = DIRECTION ( 'NONE',  ( -0.2244866927916703836, -0.9744771545600534601, 2.775557561562891351E-17 ) ) ;
#739 = VECTOR ( 'NONE', #598, 999.9999999999998863 ) ;
#740 = LINE ( 'NONE', #1173, #311 ) ;
#741 = CC_DESIGN_APPROVAL ( #330, ( #46 ) ) ;
#742 = ORIENTED_EDGE ( 'NONE', *, *, #103, .F. ) ;
#743 = CIRCLE ( 'NONE', #967, 14.22500000000000320 ) ;
#744 = DIRECTION ( 'NONE',  ( -1.000000000000000000, 0.000000000000000000, 0.000000000000000000 ) ) ;
#745 = AXIS2_PLACEMENT_3D ( 'NONE', #554, #208, #953 ) ;
#746 = EDGE_LOOP ( 'NONE', ( #23, #174, #1304, #805, #595, #959 ) ) ;
#747 = DIRECTION ( 'NONE',  ( -0.000000000000000000, -0.000000000000000000, -1.000000000000000000 ) ) ;
#748 = LINE ( 'NONE', #423, #222 ) ;
#749 = ORIENTED_EDGE ( 'NONE', *, *, #684, .T. ) ;
#750 = DIRECTION ( 'NONE',  ( -0.000000000000000000, 1.000000000000000000, -0.000000000000000000 ) ) ;
#751 = VERTEX_POINT ( 'NONE', #903 ) ;
#752 = FACE_OUTER_BOUND ( 'NONE', #894, .T. ) ;
#753 = CARTESIAN_POINT ( 'NONE',  ( 0.000000000000000000, 0.000000000000000000, 0.000000000000000000 ) ) ;
#754 = VERTEX_POINT ( 'NONE', #926 ) ;
#755 = APPROVAL ( #519, 'UNSPECIFIED' ) ;
#756 = CARTESIAN_POINT ( 'NONE',  ( -21.68575265096565730, -50.81039405961292488, -3.226946256830167545E-21 ) ) ;
#757 = ORIENTED_EDGE ( 'NONE', *, *, #1131, .F. ) ;
#758 = DIRECTION ( 'NONE',  ( -1.557689344120416449E-17, 6.761793587273616314E-17, -1.000000000000000000 ) ) ;
#759 = EDGE_CURVE ( 'NONE', #754, #857, #1127, .T. ) ;
#760 = LINE ( 'NONE', #363, #416 ) ;
#761 = AXIS2_PLACEMENT_3D ( 'NONE', #325, #226, #744 ) ;
#762 = ORIENTED_EDGE ( 'NONE', *, *, #722, .T. ) ;
#763 = SECURITY_CLASSIFICATION ( '', '', #610 ) ;
#764 = CARTESIAN_POINT ( 'NONE',  ( 30.63209590277519467, -65.84132259075808236, 15.45312288227607134 ) ) ;
#765 = AXIS2_PLACEMENT_3D ( 'NONE', #512, #405, #936 ) ;
#766 = CARTESIAN_POINT ( 'NONE',  ( 81.49149353743736413, -2.257839055834095721, 15.00000000000000000 ) ) ;
#767 = CIRCLE ( 'NONE', #1203, 14.00000000000000178 ) ;
#768 = CARTESIAN_POINT ( 'NONE',  ( 19.69965651080481095, -52.96691832376914277, -3.888373136890206123E-15 ) ) ;
#769 = EDGE_LOOP ( 'NONE', ( #299, #190, #1027, #339 ) ) ;
#770 = EDGE_CURVE ( 'NONE', #1342, #176, #1030, .T. ) ;
#771 = DIRECTION ( 'NONE',  ( -0.000000000000000000, 0.000000000000000000, 1.000000000000000000 ) ) ;
#772 = COORDINATED_UNIVERSAL_TIME_OFFSET ( 8, 0, .BEHIND. ) ;
#773 = DIRECTION ( 'NONE',  ( 2.425157014111030174E-14, -5.558261858701842781E-15, 1.000000000000000000 ) ) ;
#774 = CC_DESIGN_PERSON_AND_ORGANIZATION_ASSIGNMENT ( #1048, #181, ( #414 ) ) ;
#775 = B_SPLINE_CURVE_WITH_KNOTS ( 'NONE', 2,
 ( #106, #631, #233 ),
 .UNSPECIFIED., .F., .F.,
 ( 3, 3 ),
 ( 0.000000000000000000, 1.000000000000000000 ),
 .UNSPECIFIED. ) ;
#776 = CARTESIAN_POINT ( 'NONE',  ( 15.17074022654867349, -54.01022799380651662, 7.500000000000000000 ) ) ;
#777 = PERSON ( 'UNSPECIFIED', 'UNSPECIFIED', 'UNSPECIFIED', ('UNSPECIFIED'), ('UNSPECIFIED'), ('UNSPECIFIED') ) ;
#778 = EDGE_LOOP ( 'NONE', ( #533, #1192, #410, #360 ) ) ;
#779 = DIRECTION ( 'NONE',  ( 1.000000000000000000, 0.000000000000000000, 0.000000000000000000 ) ) ;
#780 = LINE ( 'NONE', #565, #482 ) ;
#781 = CARTESIAN_POINT ( 'NONE',  ( 53.79149356667026183, -1.057863551569251159, 15.00000000000000000 ) ) ;
#782 = DIRECTION ( 'NONE',  ( -0.2244866927916703836, -0.9744771545600534601, 2.775557561562891351E-17 ) ) ;
#783 = EDGE_LOOP ( 'NONE', ( #323, #649, #1135, #273 ) ) ;
#784 = AXIS2_PLACEMENT_3D ( 'NONE', #695, #1219, #72 ) ;
#785 = ORIENTED_EDGE ( 'NONE', *, *, #261, .T. ) ;
#786 = PLANE ( 'NONE',  #236 ) ;
#787 = EDGE_CURVE ( 'NONE', #718, #535, #1017, .T. ) ;
#788 = CARTESIAN_POINT ( 'NONE',  ( -12.32446890384970928, -52.96691832376895093, 4.483720181663284999E-15 ) ) ;
#789 = EDGE_CURVE ( 'NONE', #961, #946, #186, .T. ) ;
#790 = AXIS2_PLACEMENT_3D ( 'NONE', #725, #738, #1158 ) ;
#791 = DIRECTION ( 'NONE',  ( -0.000000000000000000, -0.000000000000000000, -1.000000000000000000 ) ) ;
#792 = CIRCLE ( 'NONE', #1163, 12.70000000000000284 ) ;
#793 = ORIENTED_EDGE ( 'NONE', *, *, #148, .T. ) ;
#794 = ORIENTED_EDGE ( 'NONE', *, *, #383, .T. ) ;
#795 = DIRECTION ( 'NONE',  ( 1.000000000000000000, 0.000000000000000000, 0.000000000000000000 ) ) ;
#796 = CARTESIAN_POINT ( 'NONE',  ( 32.42824064979662069, -65.42755137801373166, 15.00000000000000000 ) ) ;
#797 = CARTESIAN_POINT ( 'NONE',  ( 17.68759380347795584, 3.579371238945710409, 0.000000000000000000 ) ) ;
#798 = ORIENTED_EDGE ( 'NONE', *, *, #415, .F. ) ;
#799 = VERTEX_POINT ( 'NONE', #191 ) ;
#800 = CARTESIAN_POINT ( 'NONE',  ( 0.000000000000000000, 0.000000000000000000, 0.000000000000000000 ) ) ;
#801 = FACE_OUTER_BOUND ( 'NONE', #778, .T. ) ;
#802 = DIRECTION ( 'NONE',  ( -0.000000000000000000, 0.000000000000000000, 1.000000000000000000 ) ) ;
#803 = PERSON_AND_ORGANIZATION_ROLE ( 'creator' ) ;
#804 = VERTEX_POINT ( 'NONE', #796 ) ;
#805 = ORIENTED_EDGE ( 'NONE', *, *, #830, .F. ) ;
#806 = DIRECTION ( 'NONE',  ( -0.2244866927916703836, -0.9744771545600534601, 2.775557561562891043E-17 ) ) ;
#807 = VECTOR ( 'NONE', #851, 1000.000000000000000 ) ;
#808 = CARTESIAN_POINT ( 'NONE',  ( 82.69149356667026041, -1.057863551569251159, 15.00000000000000000 ) ) ;
#809 = VECTOR ( 'NONE', #153, 1000.000000000000000 ) ;
#810 = ADVANCED_FACE ( 'NONE', ( #592 ), #696, .F. ) ;
#811 = PLANE ( 'NONE',  #1055 ) ;
#812 = EDGE_CURVE ( 'NONE', #308, #258, #179, .T. ) ;
#813 = ORIENTED_EDGE ( 'NONE', *, *, #629, .F. ) ;
#814 = CLOSED_SHELL ( 'NONE', ( #1256, #690, #957, #62, #79, #481, #462, #1226, #302, #810, #1147, #726, #1265, #1318, #341, #977, #45, #8, #300, #438, #456, #1089, #665, #1295, #10, #422, #1232, #1154, #870, #239, #1253 ) ) ;
#815 = ORIENTED_EDGE ( 'NONE', *, *, #634, .T. ) ;
#816 = APPROVAL_STATUS ( 'not_yet_approved' ) ;
#817 = DIRECTION ( 'NONE',  ( -0.2244866927916757127, -0.9744771545600522389, 0.000000000000000000 ) ) ;
#818 = CARTESIAN_POINT ( 'NONE',  ( 81.49149353743736413, -2.257839055834095721, 0.000000000000000000 ) ) ;
#819 = ORIENTED_EDGE ( 'NONE', *, *, #42, .T. ) ;
#820 = VERTEX_POINT ( 'NONE', #493 ) ;
#821 = CARTESIAN_POINT ( 'NONE',  ( -12.32446890384927940, -52.96691832376905040, -5.944368606319913262 ) ) ;
#822 = UNCERTAINTY_MEASURE_WITH_UNIT (LENGTH_MEASURE( 1.000000000000000082E-05 ), #1174, 'distance_accuracy_value', 'NONE');
#823 = DIRECTION ( 'NONE',  ( -0.2244866927916704114, -0.9744771545600533491, 0.000000000000000000 ) ) ;
#824 = ORIENTED_EDGE ( 'NONE', *, *, #634, .F. ) ;
#825 = EDGE_CURVE ( 'NONE', #544, #701, #828, .T. ) ;
#826 = VERTEX_POINT ( 'NONE', #808 ) ;
#827 = DIRECTION ( 'NONE',  ( -0.9744771545600533491, 0.2244866927916706334, 0.000000000000000000 ) ) ;
#828 = CIRCLE ( 'NONE', #1217, 15.09999999999999609 ) ;
#829 = DIRECTION ( 'NONE',  ( 1.000000000000000000, 0.000000000000000000, 0.000000000000000000 ) ) ;
#830 = EDGE_CURVE ( 'NONE', #804, #258, #1024, .T. ) ;
#831 = CIRCLE ( 'NONE', #1007, 14.22499999999982911 ) ;
#832 = DIRECTION ( 'NONE',  ( 0.9744771545600533491, 0.2244866927916704114, 0.000000000000000000 ) ) ;
#833 = ORIENTED_EDGE ( 'NONE', *, *, #103, .T. ) ;
#834 = EDGE_LOOP ( 'NONE', ( #937, #439, #719, #762 ) ) ;
#835 = AXIS2_PLACEMENT_3D ( 'NONE', #347, #467, #138 ) ;
#836 = B_SPLINE_SURFACE_WITH_KNOTS ( 'NONE', 2, 1, ( 
 ( #859, #117 ),
 ( #1269, #731 ),
 ( #211, #1284 ) ),
 .UNSPECIFIED., .F., .F., .F.,
 ( 3, 3 ),
 ( 2, 2 ),
 ( 0.000000000000000000, 1.000000000000000000 ),
 ( 0.000000000000000000, 1.000000000000000000 ),
 .UNSPECIFIED. ) ;
#837 = AXIS2_PLACEMENT_3D ( 'NONE', #542, #317, #1050 ) ;
#838 = EDGE_CURVE ( 'NONE', #484, #826, #507, .T. ) ;
#839 = CARTESIAN_POINT ( 'NONE',  ( 82.69149356667026041, -1.057863551569251159, 0.000000000000000000 ) ) ;
#840 = DIRECTION ( 'NONE',  ( 0.000000000000000000, 0.000000000000000000, 1.000000000000000000 ) ) ;
#841 = DIRECTION ( 'NONE',  ( 2.518551109998058919E-14, -5.773410378231915013E-15, 1.000000000000000000 ) ) ;
#842 = CARTESIAN_POINT ( 'NONE',  ( -23.53871287438080984, -65.77640431375301944, 7.500000000000103917 ) ) ;
#843 = VERTEX_POINT ( 'NONE', #821 ) ;
#844 = CARTESIAN_POINT ( 'NONE',  ( -11.16285301146807107, -68.62738531220725235, 7.500000000000103917 ) ) ;
#845 = EDGE_CURVE ( 'NONE', #1231, #1342, #151, .T. ) ;
#846 = CARTESIAN_POINT ( 'NONE',  ( 3.687593803477953625, 3.579371238945708633, 15.00000000000000000 ) ) ;
#847 = CARTESIAN_POINT ( 'NONE',  ( -12.32446890384919946, -52.96691832376907172, 20.94436860631994080 ) ) ;
#848 = EDGE_CURVE ( 'NONE', #1175, #1245, #924, .T. ) ;
#849 = B_SPLINE_CURVE_WITH_KNOTS ( 'NONE', 2,
 ( #1255, #736, #19 ),
 .UNSPECIFIED., .F., .F.,
 ( 3, 3 ),
 ( 0.000000000000000000, 1.000000000000000000 ),
 .UNSPECIFIED. ) ;
#850 = ORIENTED_EDGE ( 'NONE', *, *, #604, .T. ) ;
#851 = DIRECTION ( 'NONE',  ( -1.000000000000000000, -0.000000000000000000, -0.000000000000000000 ) ) ;
#852 = ORIENTED_EDGE ( 'NONE', *, *, #845, .F. ) ;
#853 = CARTESIAN_POINT ( 'NONE',  ( -15.69176929572418544, -67.58407564216987851, 4.598292425847317448E-15 ) ) ;
#854 = AXIS2_PLACEMENT_3D ( 'NONE', #1120, #611, #91 ) ;
#855 = DIRECTION ( 'NONE',  ( -0.000000000000000000, 0.000000000000000000, 1.000000000000000000 ) ) ;
#856 = EDGE_CURVE ( 'NONE', #193, #40, #404, .T. ) ;
#857 = VERTEX_POINT ( 'NONE', #309 ) ;
#858 = VECTOR ( 'NONE', #578, 1000.000000000000114 ) ;
#859 = CARTESIAN_POINT ( 'NONE',  ( 32.42824064979636489, -65.42755137801380272, 15.00000000000000000 ) ) ;
#860 = VECTOR ( 'NONE', #350, 1000.000000000000000 ) ;
#861 = B_SPLINE_SURFACE_WITH_KNOTS ( 'NONE', 2, 1, ( 
 ( #698, #919 ),
 ( #691, #607 ),
 ( #711, #187 ) ),
 .UNSPECIFIED., .F., .F., .F.,
 ( 3, 3 ),
 ( 2, 2 ),
 ( 0.000000000000000000, 1.000000000000000000 ),
 ( 0.000000000000000000, 1.000000000000000000 ),
 .UNSPECIFIED. ) ;
#862 = ORIENTED_EDGE ( 'NONE', *, *, #263, .F. ) ;
#863 = CARTESIAN_POINT ( 'NONE',  ( -19.88960790394451905, -51.22416527235720451, 15.45312288227607844 ) ) ;
#864 = CARTESIAN_POINT ( 'NONE',  ( -18.42541910034869801, -51.56146502392522990, 16.63017653272062191 ) ) ;
#865 = CC_DESIGN_PERSON_AND_ORGANIZATION_ASSIGNMENT ( #489, #803, ( #1160 ) ) ;
#866 = ORIENTED_EDGE ( 'NONE', *, *, #1311, .F. ) ;
#867 = LINE ( 'NONE', #1277, #171 ) ;
#868 = VERTEX_POINT ( 'NONE', #534 ) ;
#869 = LINE ( 'NONE', #663, #268 ) ;
#870 = ADVANCED_FACE ( 'NONE', ( #721 ), #97, .T. ) ;
#871 = CARTESIAN_POINT ( 'NONE',  ( -12.32446890384924032, -52.96691832376905751, 19.31907027742069616 ) ) ;
#872 = VERTEX_POINT ( 'NONE', #955 ) ;
#873 = EDGE_CURVE ( 'NONE', #857, #1212, #14, .T. ) ;
#874 = DIRECTION ( 'NONE',  ( 1.000000000000000000, 0.000000000000000000, 0.000000000000000000 ) ) ;
#875 = EDGE_CURVE ( 'NONE', #1177, #372, #849, .T. ) ;
#876 = CARTESIAN_POINT ( 'NONE',  ( 54.99149353743737834, -2.257839055834095721, 15.00000000000000000 ) ) ;
#877 = EDGE_CURVE ( 'NONE', #820, #899, #1260, .T. ) ;
#878 = CARTESIAN_POINT ( 'NONE',  ( -20.17975339946521629, -51.15732552920566434, 15.00000000000000000 ) ) ;
#879 = AXIS2_PLACEMENT_3D ( 'NONE', #430, #1041, #420 ) ;
#880 = CARTESIAN_POINT ( 'NONE',  ( 23.06695690267986620, -67.58407564216994956, -3.888373136890206123E-15 ) ) ;
#881 = ORIENTED_EDGE ( 'NONE', *, *, #759, .F. ) ;
#882 = CARTESIAN_POINT ( 'NONE',  ( -18.42541910034877617, -51.56146502392520858, -1.630176532720475802 ) ) ;
#883 = DIRECTION ( 'NONE',  ( 1.000000000000000000, 0.000000000000000000, 0.000000000000000000 ) ) ;
#884 = VECTOR ( 'NONE', #998, 1000.000000000000000 ) ;
#885 = DIRECTION ( 'NONE',  ( 1.000000000000000000, 0.000000000000000000, 0.000000000000000000 ) ) ;
#886 = DIRECTION ( 'NONE',  ( -1.557689344120416449E-17, 6.761793587273616314E-17, -1.000000000000000000 ) ) ;
#887 = ORIENTED_EDGE ( 'NONE', *, *, #722, .F. ) ;
#888 = CARTESIAN_POINT ( 'NONE',  ( -18.42541910034877617, -51.56146502392520858, -1.630176532720475802 ) ) ;
#889 = PLANE ( 'NONE',  #244 ) ;
#890 = PLANE ( 'NONE',  #528 ) ;
#891 = CARTESIAN_POINT ( 'NONE',  ( -18.42541910034876196, -51.56146502392522990, -1.630176532720468918 ) ) ;
#892 = EDGE_CURVE ( 'NONE', #921, #1005, #24, .T. ) ;
#893 = EDGE_LOOP ( 'NONE', ( #364, #168, #928, #656 ) ) ;
#894 = EDGE_LOOP ( 'NONE', ( #195, #538, #1020, #307 ) ) ;
#895 = DIRECTION ( 'NONE',  ( 0.001193385998514590604, -0.9999992879146757385, 0.000000000000000000 ) ) ;
#896 = CARTESIAN_POINT ( 'NONE',  ( 53.83254604501916418, -35.45783905583409279, 15.00000000000000000 ) ) ;
#897 = CARTESIAN_POINT ( 'NONE',  ( 19.69965651080481095, -52.96691832376914277, 20.94436860632012554 ) ) ;
#898 = EDGE_CURVE ( 'NONE', #184, #718, #940, .T. ) ;
#899 = VERTEX_POINT ( 'NONE', #1138 ) ;
#900 = VECTOR ( 'NONE', #1002, 1000.000000000000000 ) ;
#901 = ORIENTED_EDGE ( 'NONE', *, *, #1097, .F. ) ;
#902 = CARTESIAN_POINT ( 'NONE',  ( 81.49149353743736413, -34.25783905583409705, 0.000000000000000000 ) ) ;
#903 = CARTESIAN_POINT ( 'NONE',  ( 27.55494100642112087, -51.15732552920565723, 0.000000000000000000 ) ) ;
#904 = CIRCLE ( 'NONE', #1338, 15.09999999999999609 ) ;
#905 = LINE ( 'NONE', #818, #1225 ) ;
#906 = VECTOR ( 'NONE', #791, 1000.000000000000000 ) ;
#907 = VERTEX_POINT ( 'NONE', #111 ) ;
#908 = CC_DESIGN_PERSON_AND_ORGANIZATION_ASSIGNMENT ( #670, #1300, ( #46 ) ) ;
#909 = ORIENTED_EDGE ( 'NONE', *, *, #1209, .T. ) ;
#910 = CARTESIAN_POINT ( 'NONE',  ( 18.78759380347795371, 3.579371238945710409, 15.00000000000000000 ) ) ;
#911 = PERSON_AND_ORGANIZATION_ROLE ( 'creator' ) ;
#912 = DIRECTION ( 'NONE',  ( 0.2244866927916756572, 0.9744771545600521279, 0.000000000000000000 ) ) ;
#913 =( NAMED_UNIT ( * ) SI_UNIT ( $, .STERADIAN. ) SOLID_ANGLE_UNIT ( ) );
#914 = VERTEX_POINT ( 'NONE', #839 ) ;
#915 = ORIENTED_EDGE ( 'NONE', *, *, #540, .T. ) ;
#916 = LINE ( 'NONE', #178, #900 ) ;
#917 = DATE_AND_TIME ( #517, #523 ) ;
#918 = CARTESIAN_POINT ( 'NONE',  ( 3.687593803477953625, 3.579371238945708633, 0.000000000000000000 ) ) ;
#919 = CARTESIAN_POINT ( 'NONE',  ( 29.06094025792130608, -50.81039405961298883, 0.000000000000000000 ) ) ;
#920 = EDGE_CURVE ( 'NONE', #274, #5, #204, .T. ) ;
#921 = VERTEX_POINT ( 'NONE', #104 ) ;
#922 = VERTEX_POINT ( 'NONE', #939 ) ;
#923 = CARTESIAN_POINT ( 'NONE',  ( -15.69176929572429735, -67.58407564216985008, -4.319070277420487436 ) ) ;
#924 = CIRCLE ( 'NONE', #1006, 12.70000000000006146 ) ;
#925 = PERSON_AND_ORGANIZATION ( #777, #477 ) ;
#926 = CARTESIAN_POINT ( 'NONE',  ( 54.99149353743737834, -34.25783905583409705, 15.00000000000000000 ) ) ;
#927 = CARTESIAN_POINT ( 'NONE',  ( 54.99149353743737834, -2.257839055834095721, 15.00000000000000000 ) ) ;
#928 = ORIENTED_EDGE ( 'NONE', *, *, #1211, .F. ) ;
#929 = ORIENTED_EDGE ( 'NONE', *, *, #1116, .T. ) ;
#930 = DIRECTION ( 'NONE',  ( -0.000000000000000000, 0.000000000000000000, 1.000000000000000000 ) ) ;
#931 = FACE_OUTER_BOUND ( 'NONE', #163, .T. ) ;
#932 = EDGE_LOOP ( 'NONE', ( #581, #116, #982, #402 ) ) ;
#933 = ORIENTED_EDGE ( 'NONE', *, *, #200, .F. ) ;
#934 = ADVANCED_FACE ( 'NONE', ( #623 ), #196, .T. ) ;
#935 = CARTESIAN_POINT ( 'NONE',  ( -8.955418759881428770, -2.433467801203039738, 15.00000000000000000 ) ) ;
#936 = DIRECTION ( 'NONE',  ( -0.2244866927916756572, 0.9744771545600522389, 0.000000000000000000 ) ) ;
#937 = ORIENTED_EDGE ( 'NONE', *, *, #543, .T. ) ;
#938 = ORIENTED_EDGE ( 'NONE', *, *, #1330, .F. ) ;
#939 = CARTESIAN_POINT ( 'NONE',  ( -20.17141248250575458, -51.15924699535221976, 7.500000000000103917 ) ) ;
#940 = CIRCLE ( 'NONE', #128, 14.00000000000000178 ) ;
#941 = APPROVAL_DATE_TIME ( #479, #755 ) ;
#942 = APPROVAL_PERSON_ORGANIZATION ( #925, #619, #1228 ) ;
#943 = LINE ( 'NONE', #426, #616 ) ;
#944 = CARTESIAN_POINT ( 'NONE',  ( 82.69149356667026041, -1.057863551569251159, 15.00000000000000000 ) ) ;
#945 = AXIS2_PLACEMENT_3D ( 'NONE', #1061, #732, #26 ) ;
#946 = VERTEX_POINT ( 'NONE', #218 ) ;
#947 = AXIS2_PLACEMENT_3D ( 'NONE', #1159, #645, #1062 ) ;
#948 = DIRECTION ( 'NONE',  ( -0.000000000000000000, 0.000000000000000000, 1.000000000000000000 ) ) ;
#949 = AXIS2_PLACEMENT_3D ( 'NONE', #594, #1344, #87 ) ;
#950 = APPROVAL_STATUS ( 'not_yet_approved' ) ;
#951 = CARTESIAN_POINT ( 'NONE',  ( 53.79149356667026183, -1.057863551569251159, 0.000000000000000000 ) ) ;
#952 = EDGE_CURVE ( 'NONE', #147, #922, #716, .T. ) ;
#953 = DIRECTION ( 'NONE',  ( -0.9744771545600533491, -0.2244866927916707999, 0.000000000000000000 ) ) ;
#954 = ORIENTED_EDGE ( 'NONE', *, *, #202, .F. ) ;
#955 = CARTESIAN_POINT ( 'NONE',  ( 53.79149356667026183, -1.057863551569251159, 15.00000000000000000 ) ) ;
#956 = CARTESIAN_POINT ( 'NONE',  ( 54.99149353743737834, -2.257839055834095721, 0.000000000000000000 ) ) ;
#957 = ADVANCED_FACE ( 'NONE', ( #1155 ), #411, .F. ) ;
#958 = CARTESIAN_POINT ( 'NONE',  ( 54.99149353743737834, -2.257839055834095721, 0.000000000000000000 ) ) ;
#959 = ORIENTED_EDGE ( 'NONE', *, *, #789, .T. ) ;
#960 = DIRECTION ( 'NONE',  ( 1.000000000000000000, 0.000000000000000000, 0.000000000000000000 ) ) ;
#961 = VERTEX_POINT ( 'NONE', #1060 ) ;
#962 = CC_DESIGN_PERSON_AND_ORGANIZATION_ASSIGNMENT ( #1106, #911, ( #46 ) ) ;
#963 = FACE_OUTER_BOUND ( 'NONE', #1008, .T. ) ;
#964 = VECTOR ( 'NONE', #1119, 1000.000000000000000 ) ;
#965 = DIRECTION ( 'NONE',  ( 0.2244866927916756849, -0.9744771545600522389, 0.000000000000000000 ) ) ;
#966 = ORIENTED_EDGE ( 'NONE', *, *, #875, .F. ) ;
#967 = AXIS2_PLACEMENT_3D ( 'NONE', #1043, #536, #650 ) ;
#968 = CARTESIAN_POINT ( 'NONE',  ( 25.80060670730442496, -51.56146502392527964, 16.63017653272070362 ) ) ;
#969 = AXIS2_PLACEMENT_3D ( 'NONE', #776, #58, #672 ) ;
#970 = ORIENTED_EDGE ( 'NONE', *, *, #243, .F. ) ;
#971 = LINE ( 'NONE', #241, #197 ) ;
#972 = DIRECTION ( 'NONE',  ( -0.000000000000000000, 0.000000000000000000, 1.000000000000000000 ) ) ;
#973 = EDGE_CURVE ( 'NONE', #718, #1342, #1037, .T. ) ;
#974 = CARTESIAN_POINT ( 'NONE',  ( 81.49149353743736413, -2.257839055834095721, 15.00000000000000000 ) ) ;
#975 = ORIENTED_EDGE ( 'NONE', *, *, #684, .F. ) ;
#976 = CARTESIAN_POINT ( 'NONE',  ( -12.32446890384913019, -52.96691832376908593, 4.598292425847317448E-15 ) ) ;
#977 = ADVANCED_FACE ( 'NONE', ( #642 ), #836, .F. ) ;
#978 = ORIENTED_EDGE ( 'NONE', *, *, #1339, .T. ) ;
#979 = LINE ( 'NONE', #766, #1073 ) ;
#980 = CARTESIAN_POINT ( 'NONE',  ( 29.06094025792156543, -50.81039405961291777, 15.00000000000000000 ) ) ;
#981 = CARTESIAN_POINT ( 'NONE',  ( -7.795552619593014931, -54.01022799380644557, 7.500000000000103917 ) ) ;
#982 = ORIENTED_EDGE ( 'NONE', *, *, #526, .T. ) ;
#983 = CARTESIAN_POINT ( 'NONE',  ( 82.69149356667026041, -1.057863551569251159, 0.000000000000000000 ) ) ;
#984 = LINE ( 'NONE', #876, #310 ) ;
#985 = CARTESIAN_POINT ( 'NONE',  ( -21.68575265096560756, -50.81039405961295330, 15.00000000000000355 ) ) ;
#986 = AXIS2_PLACEMENT_3D ( 'NONE', #380, #930, #1208 ) ;
#987 = EDGE_LOOP ( 'NONE', ( #1080, #1312, #1205, #757, #445, #1183, #1291, #1345, #661, #641, #392 ) ) ;
#988 = LOCAL_TIME ( 15, 44, 44.00000000000000000, #772 ) ;
#989 = CARTESIAN_POINT ( 'NONE',  ( -21.68575265096565730, -50.81039405961292488, -3.226946256830167545E-21 ) ) ;
#990 = CARTESIAN_POINT ( 'NONE',  ( -25.05305304284071610, -65.42755137801373166, -3.226946256830167545E-21 ) ) ;
#991 = EDGE_CURVE ( 'NONE', #922, #681, #1239, .T. ) ;
#992 = LINE ( 'NONE', #679, #483 ) ;
#993 = DIRECTION ( 'NONE',  ( -0.000000000000000000, -0.000000000000000000, -1.000000000000000000 ) ) ;
#994 = ORIENTED_EDGE ( 'NONE', *, *, #1311, .T. ) ;
#995 = DIRECTION ( 'NONE',  ( 1.000000000000000000, 0.000000000000000000, 0.000000000000000000 ) ) ;
#996 = DIRECTION ( 'NONE',  ( 0.000000000000000000, -1.000000000000000000, 0.000000000000000000 ) ) ;
#997 = EDGE_CURVE ( 'NONE', #715, #1321, #466, .T. ) ;
#998 = DIRECTION ( 'NONE',  ( -1.000000000000000000, -0.000000000000000000, -0.000000000000000000 ) ) ;
#999 = CARTESIAN_POINT ( 'NONE',  ( 81.49149353743736413, -2.257839055834095721, 15.00000000000000000 ) ) ;
#1000 = ORIENTED_EDGE ( 'NONE', *, *, #540, .F. ) ;
#1001 = EDGE_LOOP ( 'NONE', ( #682, #397, #1271, #253 ) ) ;
#1002 = DIRECTION ( 'NONE',  ( 1.000000000000000000, 0.000000000000000000, 0.000000000000000000 ) ) ;
#1003 = DIRECTION ( 'NONE',  ( -0.000000000000000000, -0.000000000000000000, -1.000000000000000000 ) ) ;
#1004 = FACE_OUTER_BOUND ( 'NONE', #932, .T. ) ;
#1005 = VERTEX_POINT ( 'NONE', #968 ) ;
#1006 = AXIS2_PLACEMENT_3D ( 'NONE', #527, #124, #618 ) ;
#1007 = AXIS2_PLACEMENT_3D ( 'NONE', #981, #782, #561 ) ;
#1008 = EDGE_LOOP ( 'NONE', ( #509, #18, #562, #558 ) ) ;
#1009 = DIRECTION ( 'NONE',  ( 0.2244866927916704391, 0.9744771545600534601, -0.000000000000000000 ) ) ;
#1010 = EDGE_CURVE ( 'NONE', #907, #914, #56, .T. ) ;
#1011 = AXIS2_PLACEMENT_3D ( 'NONE', #340, #1307, #43 ) ;
#1012 = DIRECTION ( 'NONE',  ( -0.000000000000000000, 1.000000000000000000, -0.000000000000000000 ) ) ;
#1014 = EDGE_CURVE ( 'NONE', #715, #1165, #1286, .T. ) ;
#1013 = ORIENTED_EDGE ( 'NONE', *, *, #1170, .F. ) ;
#1015 = ORIENTED_EDGE ( 'NONE', *, *, #873, .F. ) ;
#1016 = CARTESIAN_POINT ( 'NONE',  ( 82.69149356667026041, -1.057863551569251159, 15.00000000000000000 ) ) ;
#1017 = LINE ( 'NONE', #303, #89 ) ;
#1018 = EDGE_CURVE ( 'NONE', #1104, #1118, #500, .T. ) ;
#1019 = DIRECTION ( 'NONE',  ( 0.2244866927916705779, -0.9744771545600534601, -6.938893903907228378E-17 ) ) ;
#1020 = ORIENTED_EDGE ( 'NONE', *, *, #997, .T. ) ;
#1021 = EDGE_LOOP ( 'NONE', ( #435, #866, #471, #1235 ) ) ;
#1022 = DIRECTION ( 'NONE',  ( -0.2244866927916704114, 0.9744771545600533491, -0.000000000000000000 ) ) ;
#1023 = DATE_AND_TIME ( #1137, #173 ) ;
#1024 = LINE ( 'NONE', #86, #591 ) ;
#1025 = DIRECTION ( 'NONE',  ( -0.2244866927916756849, -0.9744771545600522389, 0.000000000000000000 ) ) ;
#1026 = FACE_OUTER_BOUND ( 'NONE', #834, .T. ) ;
#1027 = ORIENTED_EDGE ( 'NONE', *, *, #375, .T. ) ;
#1028 = AXIS2_PLACEMENT_3D ( 'NONE', #1193, #771, #995 ) ;
#1029 = COORDINATED_UNIVERSAL_TIME_OFFSET ( 8, 0, .BEHIND. ) ;
#1030 = LINE ( 'NONE', #1337, #1333 ) ;
#1031 = EDGE_CURVE ( 'NONE', #872, #636, #867, .T. ) ;
#1032 = DIRECTION ( 'NONE',  ( 0.2244866927916705779, -0.9744771545600534601, -6.938893903907228378E-17 ) ) ;
#1033 = EDGE_CURVE ( 'NONE', #1165, #735, #1309, .T. ) ;
#1034 = ORIENTED_EDGE ( 'NONE', *, *, #606, .F. ) ;
#1035 = CLOSED_SHELL ( 'NONE', ( #702, #27, #158, #22, #728, #359, #290, #934, #224, #564 ) ) ;
#1036 = ORIENTED_EDGE ( 'NONE', *, *, #1070, .F. ) ;
#1037 = LINE ( 'NONE', #935, #264 ) ;
#1038 = DIRECTION ( 'NONE',  ( 1.000000000000000000, 0.000000000000000000, -0.000000000000000000 ) ) ;
#1039 = DIRECTION ( 'NONE',  ( -0.000000000000000000, -0.000000000000000000, -1.000000000000000000 ) ) ;
#1040 = ORIENTED_EDGE ( 'NONE', *, *, #588, .F. ) ;
#1041 = DIRECTION ( 'NONE',  ( -0.2244866927916703836, -0.9744771545600534601, 2.775557561562891351E-17 ) ) ;
#1042 = MECHANICAL_CONTEXT ( 'NONE', #1273, 'mechanical' ) ;
#1043 = CARTESIAN_POINT ( 'NONE',  ( 15.17074022654867349, -54.01022799380651662, 7.500000000000000000 ) ) ;
#1044 = FACE_OUTER_BOUND ( 'NONE', #615, .T. ) ;
#1045 = ORIENTED_EDGE ( 'NONE', *, *, #584, .T. ) ;
#1046 = DIRECTION ( 'NONE',  ( -0.000000000000000000, -0.000000000000000000, -1.000000000000000000 ) ) ;
#1047 = VECTOR ( 'NONE', #1074, 1000.000000000000114 ) ;
#1048 = PERSON_AND_ORGANIZATION ( #777, #477 ) ;
#1049 = FACE_OUTER_BOUND ( 'NONE', #746, .T. ) ;
#1050 = DIRECTION ( 'NONE',  ( -0.9744771545600534601, 0.2244866927916700783, 0.000000000000000000 ) ) ;
#1051 = VECTOR ( 'NONE', #395, 999.9999999999998863 ) ;
#1052 = EDGE_CURVE ( 'NONE', #820, #1177, #648, .T. ) ;
#1053 = ORIENTED_EDGE ( 'NONE', *, *, #545, .F. ) ;
#1054 = DIRECTION ( 'NONE',  ( -0.000000000000000000, -0.000000000000000000, -1.000000000000000000 ) ) ;
#1055 = AXIS2_PLACEMENT_3D ( 'NONE', #494, #98, #912 ) ;
#1056 = EDGE_LOOP ( 'NONE', ( #227, #301, #314, #587 ) ) ;
#1057 = CYLINDRICAL_SURFACE ( 'NONE', #1121, 14.22500000000000320 ) ;
#1058 = DIRECTION ( 'NONE',  ( 0.2244866927916704114, 0.9744771545600533491, -0.000000000000000000 ) ) ;
#1059 = ORIENTED_EDGE ( 'NONE', *, *, #516, .T. ) ;
#1060 = CARTESIAN_POINT ( 'NONE',  ( 32.42824064979662069, -65.42755137801373166, -2.218070336457968887E-21 ) ) ;
#1061 = CARTESIAN_POINT ( 'NONE',  ( 18.53804061842373230, -68.62738531220730920, 7.500000000000000000 ) ) ;
#1062 = DIRECTION ( 'NONE',  ( 1.000000000000000000, 0.000000000000000000, 0.000000000000000000 ) ) ;
#1063 = ORIENTED_EDGE ( 'NONE', *, *, #183, .F. ) ;
#1064 = CARTESIAN_POINT ( 'NONE',  ( -11.41240619652204380, 3.579371238945708633, 15.00000000000000000 ) ) ;
#1065 = ORIENTED_EDGE ( 'NONE', *, *, #85, .F. ) ;
#1066 = DIRECTION ( 'NONE',  ( -1.000000000000000000, 0.000000000000000000, 0.000000000000000000 ) ) ;
#1067 = AXIS2_PLACEMENT_3D ( 'NONE', #361, #662, #237 ) ;
#1068 = VECTOR ( 'NONE', #673, 1000.000000000000000 ) ;
#1069 = CARTESIAN_POINT ( 'NONE',  ( 27.26479551090013942, -51.22416527235728267, -0.4531228822760745012 ) ) ;
#1070 = EDGE_CURVE ( 'NONE', #291, #1231, #474, .T. ) ;
#1071 = ORIENTED_EDGE ( 'NONE', *, *, #660, .F. ) ;
#1072 = EDGE_CURVE ( 'NONE', #799, #667, #1169, .T. ) ;
#1073 = VECTOR ( 'NONE', #144, 1000.000000000000000 ) ;
#1074 = DIRECTION ( 'NONE',  ( -0.2244866927916704114, 0.9744771545600533491, -0.000000000000000000 ) ) ;
#1075 = VECTOR ( 'NONE', #1204, 999.9999999999998863 ) ;
#1076 = ORIENTED_EDGE ( 'NONE', *, *, #338, .F. ) ;
#1077 = CARTESIAN_POINT ( 'NONE',  ( -10.40528620334970000, -1.842873048538709480, 0.000000000000000000 ) ) ;
#1078 = DIRECTION ( 'NONE',  ( -0.2244866927916703836, -0.9744771545600534601, 2.775557561562891351E-17 ) ) ;
#1079 = LINE ( 'NONE', #140, #287 ) ;
#1080 = ORIENTED_EDGE ( 'NONE', *, *, #1018, .F. ) ;
#1081 = CARTESIAN_POINT ( 'NONE',  ( 29.16790709917948021, -66.17862234232607932, 16.63017653272070362 ) ) ;
#1082 = CARTESIAN_POINT ( 'NONE',  ( -12.32446890384924032, -52.96691832376905751, -4.319070277420487436 ) ) ;
#1083 = CARTESIAN_POINT ( 'NONE',  ( 16.33060636683733691, -2.433467801203039294, 0.000000000000000000 ) ) ;
#1084 = DIRECTION ( 'NONE',  ( 0.9744771545600533491, 0.2244866927916705501, 0.000000000000000000 ) ) ;
#1085 = ORIENTED_EDGE ( 'NONE', *, *, #2, .F. ) ;
#1086 = LINE ( 'NONE', #569, #675 ) ;
#1087 = EDGE_CURVE ( 'NONE', #735, #544, #655, .T. ) ;
#1088 = DIRECTION ( 'NONE',  ( 0.000000000000000000, -1.000000000000000000, 0.000000000000000000 ) ) ;
#1089 = ADVANCED_FACE ( 'NONE', ( #1190 ), #260, .T. ) ;
#1090 = CARTESIAN_POINT ( 'NONE',  ( -20.17975339946521629, -51.15732552920566434, 0.000000000000000000 ) ) ;
#1091 = VECTOR ( 'NONE', #31, 1000.000000000000000 ) ;
#1092 = CARTESIAN_POINT ( 'NONE',  ( 32.42824064979662069, -65.42755137801373166, -3.888373136890206123E-15 ) ) ;
#1093 = ORIENTED_EDGE ( 'NONE', *, *, #1314, .T. ) ;
#1094 = EDGE_CURVE ( 'NONE', #123, #701, #332, .T. ) ;
#1095 = DIRECTION ( 'NONE',  ( 2.518551109998058919E-14, -5.773410378231915013E-15, 1.000000000000000000 ) ) ;
#1096 = VECTOR ( 'NONE', #262, 1000.000000000000114 ) ;
#1097 = EDGE_CURVE ( 'NONE', #804, #921, #413, .T. ) ;
#1098 = MANIFOLD_SOLID_BREP ( 'Boss-Extrude4', #1035 ) ;
#1099 = CARTESIAN_POINT ( 'NONE',  ( -15.69176929572425472, -67.58407564216986430, 20.94436860631994080 ) ) ;
#1100 = AXIS2_PLACEMENT_3D ( 'NONE', #329, #126, #1152 ) ;
#1101 = DIRECTION ( 'NONE',  ( -0.000000000000000000, -0.000000000000000000, -1.000000000000000000 ) ) ;
#1102 = CARTESIAN_POINT ( 'NONE',  ( -15.69176929572425472, -67.58407564216986430, 20.94436860631994080 ) ) ;
#1103 = EDGE_LOOP ( 'NONE', ( #794, #424, #464, #674, #970, #712 ) ) ;
#1104 = VERTEX_POINT ( 'NONE', #756 ) ;
#1105 = CARTESIAN_POINT ( 'NONE',  ( 54.99149353743737834, -2.257839055834095721, 15.00000000000000000 ) ) ;
#1106 = PERSON_AND_ORGANIZATION ( #777, #477 ) ;
#1107 = LINE ( 'NONE', #369, #50 ) ;
#1108 = ORIENTED_EDGE ( 'NONE', *, *, #845, .T. ) ;
#1109 = ORIENTED_EDGE ( 'NONE', *, *, #1097, .T. ) ;
#1110 = CARTESIAN_POINT ( 'NONE',  ( -10.31240619652204771, 3.579371238945708633, 0.000000000000000000 ) ) ;
#1111 = LINE ( 'NONE', #73, #632 ) ;
#1112 = DIRECTION ( 'NONE',  ( 0.9744771545600534601, -0.2244866927916700505, 0.000000000000000000 ) ) ;
#1113 = EDGE_CURVE ( 'NONE', #1283, #291, #142, .T. ) ;
#1114 = EDGE_LOOP ( 'NONE', ( #929, #600, #384, #1305 ) ) ;
#1115 = VECTOR ( 'NONE', #1046, 1000.000000000000000 ) ;
#1116 = EDGE_CURVE ( 'NONE', #843, #681, #136, .T. ) ;
#1117 = VECTOR ( 'NONE', #1022, 1000.000000000000114 ) ;
#1118 = VERTEX_POINT ( 'NONE', #888 ) ;
#1119 = DIRECTION ( 'NONE',  ( -0.000000000000000000, -0.000000000000000000, -1.000000000000000000 ) ) ;
#1120 = CARTESIAN_POINT ( 'NONE',  ( 3.687593803477953625, 3.579371238945708633, 15.00000000000000000 ) ) ;
#1121 = AXIS2_PLACEMENT_3D ( 'NONE', #16, #213, #639 ) ;
#1122 = CARTESIAN_POINT ( 'NONE',  ( 18.53804061842373230, -68.62738531220730920, 7.500000000000000000 ) ) ;
#1123 = COORDINATED_UNIVERSAL_TIME_OFFSET ( 8, 0, .BEHIND. ) ;
#1124 = ORIENTED_EDGE ( 'NONE', *, *, #68, .T. ) ;
#1125 = ORIENTED_EDGE ( 'NONE', *, *, #789, .F. ) ;
#1126 = DIRECTION ( 'NONE',  ( 0.2244866927916704391, 0.9744771545600534601, -0.000000000000000000 ) ) ;
#1127 = LINE ( 'NONE', #374, #344 ) ;
#1128 = CARTESIAN_POINT ( 'NONE',  ( -21.79271949222383142, -66.17862234232600827, -1.630176532720475802 ) ) ;
#1129 = ORIENTED_EDGE ( 'NONE', *, *, #627, .F. ) ;
#1130 = ORIENTED_EDGE ( 'NONE', *, *, #516, .F. ) ;
#1131 = EDGE_CURVE ( 'NONE', #899, #535, #446, .T. ) ;
#1132 = CARTESIAN_POINT ( 'NONE',  ( 18.78759380347795016, 3.579371238945710409, 15.00000000000000000 ) ) ;
#1133 = LINE ( 'NONE', #382, #354 ) ;
#1134 = ORIENTED_EDGE ( 'NONE', *, *, #588, .T. ) ;
#1135 = ORIENTED_EDGE ( 'NONE', *, *, #1031, .T. ) ;
#1136 = VECTOR ( 'NONE', #557, 1000.000000000000000 ) ;
#1137 = CALENDAR_DATE ( 2026, 30, 5 ) ;
#1138 = CARTESIAN_POINT ( 'NONE',  ( -21.68575265096565730, -50.81039405961292488, 15.00000000000000000 ) ) ;
#1139 = FACE_OUTER_BOUND ( 'NONE', #893, .T. ) ;
#1140 = DIRECTION ( 'NONE',  ( 0.9744771545600533491, 0.2244866927916704114, 0.000000000000000000 ) ) ;
#1141 = VECTOR ( 'NONE', #686, 1000.000000000000000 ) ;
#1142 = ORIENTED_EDGE ( 'NONE', *, *, #143, .F. ) ;
#1143 = CARTESIAN_POINT ( 'NONE',  ( 81.49149353743736413, -34.25783905583409705, 15.00000000000000000 ) ) ;
#1144 = APPLICATION_PROTOCOL_DEFINITION ( 'international standard', 'config_control_design', 1994, #522 ) ;
#1145 = CARTESIAN_POINT ( 'NONE',  ( 18.78759380347795371, 3.579371238945710409, 0.000000000000000000 ) ) ;
#1146 = CARTESIAN_POINT ( 'NONE',  ( 14.97529880510482947, 3.449804119669536817, 0.000000000000000000 ) ) ;
#1147 = ADVANCED_FACE ( 'NONE', ( #248 ), #576, .F. ) ;
#1148 = ORIENTED_EDGE ( 'NONE', *, *, #856, .F. ) ;
#1149 = EDGE_CURVE ( 'NONE', #751, #946, #1086, .T. ) ;
#1150 = DIRECTION ( 'NONE',  ( -0.000000000000000000, 0.000000000000000000, 1.000000000000000000 ) ) ;
#1151 = CARTESIAN_POINT ( 'NONE',  ( -21.79271949222375326, -66.17862234232603669, 16.63017653272062191 ) ) ;
#1152 = DIRECTION ( 'NONE',  ( -1.000000000000000000, 0.000000000000000000, 0.000000000000000000 ) ) ;
#1153 = EDGE_LOOP ( 'NONE', ( #240, #134, #370, #1218 ) ) ;
#1154 = ADVANCED_FACE ( 'NONE', ( #84 ), #1322, .F. ) ;
#1155 = FACE_OUTER_BOUND ( 'NONE', #1266, .T. ) ;
#1156 = VECTOR ( 'NONE', #1095, 1000.000000000000000 ) ;
#1157 = APPROVAL_PERSON_ORGANIZATION ( #529, #330, #205 ) ;
#1158 = DIRECTION ( 'NONE',  ( 0.9744771545600534601, -0.2244866927916705501, 0.000000000000000000 ) ) ;
#1159 = CARTESIAN_POINT ( 'NONE',  ( 3.687593803477953625, 3.579371238945708633, 0.000000000000000000 ) ) ;
#1160 = PRODUCT_DEFINITION ( 'UNKNOWN', '', #46, #304 ) ;
#1161 = AXIS2_PLACEMENT_3D ( 'NONE', #94, #401, #823 ) ;
#1162 = ORIENTED_EDGE ( 'NONE', *, *, #1276, .T. ) ;
#1163 = AXIS2_PLACEMENT_3D ( 'NONE', #585, #242, #342 ) ;
#1164 = DIRECTION ( 'NONE',  ( 0.2244866927916704114, 0.9744771545600533491, -0.000000000000000000 ) ) ;
#1165 = VERTEX_POINT ( 'NONE', #910 ) ;
#1166 = FACE_OUTER_BOUND ( 'NONE', #1238, .T. ) ;
#1167 = FACE_OUTER_BOUND ( 'NONE', #1153, .T. ) ;
#1168 = ORIENTED_EDGE ( 'NONE', *, *, #99, .F. ) ;
#1169 = LINE ( 'NONE', #157, #1047 ) ;
#1170 = EDGE_CURVE ( 'NONE', #826, #914, #1336, .T. ) ;
#1171 = ORIENTED_EDGE ( 'NONE', *, *, #848, .F. ) ;
#1172 = LINE ( 'NONE', #951, #327 ) ;
#1173 = CARTESIAN_POINT ( 'NONE',  ( -15.69176929572433465, -67.58407564216985008, -5.944368606319913262 ) ) ;
#1174 =( LENGTH_UNIT ( ) NAMED_UNIT ( * ) SI_UNIT ( .MILLI., .METRE. ) );
#1175 = VERTEX_POINT ( 'NONE', #683 ) ;
#1176 = CARTESIAN_POINT ( 'NONE',  ( 17.68759380347795584, 3.579371238945710409, 15.00000000000000000 ) ) ;
#1177 = VERTEX_POINT ( 'NONE', #1214 ) ;
#1178 = LINE ( 'NONE', #132, #1096 ) ;
#1179 = AXIS2_PLACEMENT_3D ( 'NONE', #844, #9, #827 ) ;
#1180 = LOCAL_TIME ( 15, 44, 44.00000000000000000, #1123 ) ;
#1181 = DIRECTION ( 'NONE',  ( -1.000000000000000000, -0.000000000000000000, -0.000000000000000000 ) ) ;
#1182 = CARTESIAN_POINT ( 'NONE',  ( -19.88960790394452616, -51.22416527235722583, -0.4531228822760809960 ) ) ;
#1183 = ORIENTED_EDGE ( 'NONE', *, *, #1287, .F. ) ;
#1184 = CARTESIAN_POINT ( 'NONE',  ( -12.20797496710041052, -52.99375460050335107, 15.00000000000000000 ) ) ;
#1185 = CARTESIAN_POINT ( 'NONE',  ( 3.687593803477953625, 3.579371238945708633, 15.00000000000000000 ) ) ;
#1186 = LINE ( 'NONE', #38, #906 ) ;
#1187 = CARTESIAN_POINT ( 'NONE',  ( -25.05305304284065926, -65.42755137801374588, -3.469446951953614189E-15 ) ) ;
#1188 = EDGE_CURVE ( 'NONE', #162, #40, #393, .T. ) ;
#1189 = ORIENTED_EDGE ( 'NONE', *, *, #812, .F. ) ;
#1190 = FACE_OUTER_BOUND ( 'NONE', #71, .T. ) ;
#1191 = DIRECTION ( 'NONE',  ( -0.000000000000000000, -0.000000000000000000, -1.000000000000000000 ) ) ;
#1192 = ORIENTED_EDGE ( 'NONE', *, *, #280, .F. ) ;
#1193 = CARTESIAN_POINT ( 'NONE',  ( 3.687593803477953625, 3.579371238945708633, 15.00000000000000000 ) ) ;
#1194 = DIRECTION ( 'NONE',  ( 0.2244866927916757127, -0.9744771545600522389, 0.000000000000000000 ) ) ;
#1195 = CARTESIAN_POINT ( 'NONE',  ( 54.99149353743737834, -2.257839055834095721, 15.00000000000000000 ) ) ;
#1196 = VECTOR ( 'NONE', #1249, 1000.000000000000114 ) ;
#1197 = DIRECTION ( 'NONE',  ( 0.2244866927916705501, -0.9744771545600533491, -6.938893903907228378E-17 ) ) ;
#1198 = ORIENTED_EDGE ( 'NONE', *, *, #1014, .T. ) ;
#1199 = EDGE_LOOP ( 'NONE', ( #824, #694, #235, #1275 ) ) ;
#1200 = CARTESIAN_POINT ( 'NONE',  ( -11.16285301146807107, -68.62738531220725235, 7.500000000000103917 ) ) ;
#1201 = VECTOR ( 'NONE', #599, 1000.000000000000000 ) ;
#1202 = FACE_OUTER_BOUND ( 'NONE', #245, .T. ) ;
#1203 = AXIS2_PLACEMENT_3D ( 'NONE', #229, #972, #34 ) ;
#1204 = DIRECTION ( 'NONE',  ( -0.2244866927916756849, -0.9744771545600522389, 0.000000000000000000 ) ) ;
#1205 = ORIENTED_EDGE ( 'NONE', *, *, #261, .F. ) ;
#1206 = ORIENTED_EDGE ( 'NONE', *, *, #1188, .F. ) ;
#1207 = FACE_OUTER_BOUND ( 'NONE', #1103, .T. ) ;
#1208 = DIRECTION ( 'NONE',  ( 1.000000000000000000, 0.000000000000000000, 0.000000000000000000 ) ) ;
#1209 = EDGE_CURVE ( 'NONE', #1283, #184, #368, .T. ) ;
#1210 = CYLINDRICAL_SURFACE ( 'NONE', #458, 12.70000000000000284 ) ;
#1211 = EDGE_CURVE ( 'NONE', #636, #484, #916, .T. ) ;
#1212 = VERTEX_POINT ( 'NONE', #902 ) ;
#1213 = ORIENTED_EDGE ( 'NONE', *, *, #1332, .T. ) ;
#1214 = CARTESIAN_POINT ( 'NONE',  ( -25.05305304284071610, -65.42755137801373166, -3.226946256830167545E-21 ) ) ;
#1215 = FACE_OUTER_BOUND ( 'NONE', #32, .T. ) ;
#1216 = ORIENTED_EDGE ( 'NONE', *, *, #444, .F. ) ;
#1217 = AXIS2_PLACEMENT_3D ( 'NONE', #918, #1328, #387 ) ;
#1218 = ORIENTED_EDGE ( 'NONE', *, *, #1087, .F. ) ;
#1219 = DIRECTION ( 'NONE',  ( -0.9744771545600533491, 0.2244866927916704114, 2.488035688705277546E-14 ) ) ;
#1220 = PERSON_AND_ORGANIZATION_ROLE ( 'classification_officer' ) ;
#1221 = CARTESIAN_POINT ( 'NONE',  ( 53.79149356667026183, -1.057863551569251159, 15.00000000000000000 ) ) ;
#1222 = CIRCLE ( 'NONE', #49, 14.22499999999992681 ) ;
#1223 = DIRECTION ( 'NONE',  ( -0.000000000000000000, 0.000000000000000000, -1.000000000000000000 ) ) ;
#1224 = CARTESIAN_POINT ( 'NONE',  ( 19.69965651080481095, -52.96691832376914277, -5.944368606320124648 ) ) ;
#1225 = VECTOR ( 'NONE', #1012, 1000.000000000000000 ) ;
#1226 = ADVANCED_FACE ( 'NONE', ( #1207 ), #597, .F. ) ;
#1227 = ORIENTED_EDGE ( 'NONE', *, *, #200, .T. ) ;
#1228 = APPROVAL_ROLE ( '' ) ;
#1229 = CARTESIAN_POINT ( 'NONE',  ( 32.42824064979662069, -65.42755137801373166, -2.218070336457968887E-21 ) ) ;
#1230 = FACE_OUTER_BOUND ( 'NONE', #1114, .T. ) ;
#1232 = ADVANCED_FACE ( 'NONE', ( #497 ), #275, .F. ) ;
#1231 = VERTEX_POINT ( 'NONE', #1110 ) ;
#1233 = ORIENTED_EDGE ( 'NONE', *, *, #436, .T. ) ;
#1234 = CARTESIAN_POINT ( 'NONE',  ( -8.955418759881428770, -2.433467801203039738, 15.00000000000000000 ) ) ;
#1235 = ORIENTED_EDGE ( 'NONE', *, *, #873, .T. ) ;
#1236 = CARTESIAN_POINT ( 'NONE',  ( 23.06695690267986620, -67.58407564216994956, -4.319070277420562043 ) ) ;
#1237 = CARTESIAN_POINT ( 'NONE',  ( -10.31240619652204771, 3.579371238945708633, 15.00000000000000000 ) ) ;
#1238 = EDGE_LOOP ( 'NONE', ( #1148, #938, #614, #403 ) ) ;
#1239 = CIRCLE ( 'NONE', #1067, 12.70000000000006146 ) ;
#1240 = AXIS2_PLACEMENT_3D ( 'NONE', #485, #1126, #64 ) ;
#1241 = DIRECTION ( 'NONE',  ( 1.000000000000000000, 0.000000000000000000, 0.000000000000000000 ) ) ;
#1242 = DATE_TIME_ROLE ( 'creation_date' ) ;
#1243 = LINE ( 'NONE', #334, #1292 ) ;
#1244 = CIRCLE ( 'NONE', #371, 14.22500000000000320 ) ;
#1245 = VERTEX_POINT ( 'NONE', #923 ) ;
#1246 = CIRCLE ( 'NONE', #246, 15.09999999999999609 ) ;
#1247 = EDGE_LOOP ( 'NONE', ( #82, #470, #75, #638 ) ) ;
#1248 = APPROVAL_DATE_TIME ( #917, #619 ) ;
#1249 = DIRECTION ( 'NONE',  ( -0.2244866927916704114, 0.9744771545600533491, -0.000000000000000000 ) ) ;
#1250 = PERSON_AND_ORGANIZATION ( #777, #477 ) ;
#1251 = DIRECTION ( 'NONE',  ( 0.2244866927916704114, 0.9744771545600533491, -0.000000000000000000 ) ) ;
#1252 = PLANE ( 'NONE',  #573 ) ;
#1253 = ADVANCED_FACE ( 'NONE', ( #1306 ), #786, .T. ) ;
#1254 = VERTEX_POINT ( 'NONE', #492 ) ;
#1255 = CARTESIAN_POINT ( 'NONE',  ( -25.05305304284071610, -65.42755137801373166, -3.226946256830167545E-21 ) ) ;
#1256 = ADVANCED_FACE ( 'NONE', ( #169 ), #590, .F. ) ;
#1257 = PLANE ( 'NONE',  #765 ) ;
#1258 = CARTESIAN_POINT ( 'NONE',  ( 29.06094025792156543, -50.81039405961291777, 0.000000000000000000 ) ) ;
#1259 = EDGE_LOOP ( 'NONE', ( #1213, #819, #333, #1168 ) ) ;
#1260 = LINE ( 'NONE', #539, #324 ) ;
#1261 = VECTOR ( 'NONE', #451, 999.9999999999998863 ) ;
#1262 = ORIENTED_EDGE ( 'NONE', *, *, #770, .T. ) ;
#1263 = LINE ( 'NONE', #326, #571 ) ;
#1264 = DIRECTION ( 'NONE',  ( 0.000000000000000000, -1.000000000000000000, 0.000000000000000000 ) ) ;
#1265 = ADVANCED_FACE ( 'NONE', ( #1326 ), #185, .F. ) ;
#1266 = EDGE_LOOP ( 'NONE', ( #567, #909, #713, #1036 ) ) ;
#1267 = AXIS2_PLACEMENT_3D ( 'NONE', #753, #855, #335 ) ;
#1268 = EDGE_CURVE ( 'NONE', #378, #465, #292, .T. ) ;
#1269 = CARTESIAN_POINT ( 'NONE',  ( 30.63209590277519467, -65.84132259075808236, 15.45312288227607134 ) ) ;
#1270 = EDGE_CURVE ( 'NONE', #378, #274, #164, .T. ) ;
#1271 = ORIENTED_EDGE ( 'NONE', *, *, #381, .F. ) ;
#1272 = CARTESIAN_POINT ( 'NONE',  ( 54.99149353743737834, -2.257839055834095721, 15.00000000000000000 ) ) ;
#1273 = APPLICATION_CONTEXT ( 'configuration controlled 3d designs of mechanical parts and assemblies' ) ;
#1274 = DIRECTION ( 'NONE',  ( 0.2244866927916704114, 0.9744771545600533491, -0.000000000000000000 ) ) ;
#1275 = ORIENTED_EDGE ( 'NONE', *, *, #1094, .F. ) ;
#1276 = EDGE_CURVE ( 'NONE', #267, #687, #257, .T. ) ;
#1277 = CARTESIAN_POINT ( 'NONE',  ( 53.79149356667026183, -1.057863551569251159, 15.00000000000000000 ) ) ;
#1278 = CC_DESIGN_SECURITY_CLASSIFICATION ( #763, ( #46 ) ) ;
#1279 = ORIENTED_EDGE ( 'NONE', *, *, #381, .T. ) ;
#1280 = LINE ( 'NONE', #559, #720 ) ;
#1281 = CARTESIAN_POINT ( 'NONE',  ( -23.25690829581958141, -65.84132259075802551, 15.45312288227607844 ) ) ;
#1282 = CARTESIAN_POINT ( 'NONE',  ( -21.79271949222381721, -66.17862234232602248, -1.630176532720468918 ) ) ;
#1283 = VERTEX_POINT ( 'NONE', #443 ) ;
#1284 = CARTESIAN_POINT ( 'NONE',  ( 25.80060670730442141, -51.56146502392527964, 16.63017653272070362 ) ) ;
#1285 = CARTESIAN_POINT ( 'NONE',  ( 53.83254604501916418, -35.45783905583409279, 0.000000000000000000 ) ) ;
#1286 = CIRCLE ( 'NONE', #1028, 15.09999999999999609 ) ;
#1287 = EDGE_CURVE ( 'NONE', #95, #141, #831, .T. ) ;
#1288 = AXIS2_PLACEMENT_3D ( 'NONE', #555, #1197, #1084 ) ;
#1289 = LINE ( 'NONE', #47, #1075 ) ;
#1290 = DIRECTION ( 'NONE',  ( -0.000000000000000000, -0.000000000000000000, -1.000000000000000000 ) ) ;
#1291 = ORIENTED_EDGE ( 'NONE', *, *, #586, .F. ) ;
#1292 = VECTOR ( 'NONE', #1251, 1000.000000000000114 ) ;
#1293 = VECTOR ( 'NONE', #468, 1000.000000000000000 ) ;
#1294 = CARTESIAN_POINT ( 'NONE',  ( 3.687593803477953625, 3.579371238945708633, 0.000000000000000000 ) ) ;
#1295 = ADVANCED_FACE ( 'NONE', ( #659 ), #513, .F. ) ;
#1296 = CARTESIAN_POINT ( 'NONE',  ( 25.80060670730442496, -51.56146502392527964, -1.630176532720710059 ) ) ;
#1297 = LINE ( 'NONE', #781, #860 ) ;
#1298 = EDGE_LOOP ( 'NONE', ( #915, #1335, #901, #131 ) ) ;
#1299 = DIRECTION ( 'NONE',  ( -0.000000000000000000, 0.000000000000000000, 1.000000000000000000 ) ) ;
#1300 = PERSON_AND_ORGANIZATION_ROLE ( 'design_supplier' ) ;
#1301 = CARTESIAN_POINT ( 'NONE',  ( 32.42824064979662069, -65.42755137801373166, -2.218070336457968887E-21 ) ) ;
#1302 = DIRECTION ( 'NONE',  ( -1.000000000000000000, 0.000000000000000000, 0.000000000000000000 ) ) ;
#1303 = DIRECTION ( 'NONE',  ( -0.2244866927916703836, -0.9744771545600534601, 2.775557561562891351E-17 ) ) ;
#1304 = ORIENTED_EDGE ( 'NONE', *, *, #629, .T. ) ;
#1305 = ORIENTED_EDGE ( 'NONE', *, *, #60, .T. ) ;
#1306 = FACE_OUTER_BOUND ( 'NONE', #1341, .T. ) ;
#1307 = DIRECTION ( 'NONE',  ( -0.000000000000000000, -0.000000000000000000, -1.000000000000000000 ) ) ;
#1308 = LINE ( 'NONE', #272, #1141 ) ;
#1309 = CIRCLE ( 'NONE', #25, 15.09999999999999609 ) ;
#1311 = EDGE_CURVE ( 'NONE', #754, #868, #1079, .T. ) ;
#1310 = ORIENTED_EDGE ( 'NONE', *, *, #551, .T. ) ;
#1312 = ORIENTED_EDGE ( 'NONE', *, *, #415, .T. ) ;
#1313 = DIRECTION ( 'NONE',  ( -0.000000000000000000, 0.000000000000000000, 1.000000000000000000 ) ) ;
#1314 = EDGE_CURVE ( 'NONE', #961, #804, #352, .T. ) ;
#1315 = CIRCLE ( 'NONE', #835, 15.09999999999999609 ) ;
#1316 = DIRECTION ( 'NONE',  ( -0.2244866927916757127, -0.9744771545600522389, 0.000000000000000000 ) ) ;
#1317 = CIRCLE ( 'NONE', #947, 14.00000000000000178 ) ;
#1318 = ADVANCED_FACE ( 'NONE', ( #252 ), #666, .F. ) ;
#1319 = CARTESIAN_POINT ( 'NONE',  ( 15.17074022654867349, -54.01022799380651662, 7.500000000000000000 ) ) ;
#1320 = ORIENTED_EDGE ( 'NONE', *, *, #259, .F. ) ;
#1321 = VERTEX_POINT ( 'NONE', #146 ) ;
#1322 = PLANE ( 'NONE',  #784 ) ;
#1323 = PLANE ( 'NONE',  #949 ) ;
#1324 = ORIENTED_EDGE ( 'NONE', *, *, #503, .F. ) ;
#1325 = ORIENTED_EDGE ( 'NONE', *, *, #812, .T. ) ;
#1326 = FACE_OUTER_BOUND ( 'NONE', #556, .T. ) ;
#1327 = SHAPE_DEFINITION_REPRESENTATION ( #102, #156 ) ;
#1328 = DIRECTION ( 'NONE',  ( -0.000000000000000000, 0.000000000000000000, 1.000000000000000000 ) ) ;
#1329 = DIRECTION ( 'NONE',  ( 0.2244866927916704114, 0.9744771545600533491, -0.000000000000000000 ) ) ;
#1330 = EDGE_CURVE ( 'NONE', #1331, #193, #574, .T. ) ;
#1331 = VERTEX_POINT ( 'NONE', #974 ) ;
#1332 = EDGE_CURVE ( 'NONE', #203, #1175, #217, .T. ) ;
#1333 = VECTOR ( 'NONE', #1316, 999.9999999999998863 ) ;
#1334 = APPROVAL_PERSON_ORGANIZATION ( #1250, #755, #105 ) ;
#1335 = ORIENTED_EDGE ( 'NONE', *, *, #892, .F. ) ;
#1336 = LINE ( 'NONE', #1016, #194 ) ;
#1337 = CARTESIAN_POINT ( 'NONE',  ( -7.971778432364509115, 1.836429071297675186, 0.000000000000000000 ) ) ;
#1338 = AXIS2_PLACEMENT_3D ( 'NONE', #1185, #255, #883 ) ;
#1339 = EDGE_CURVE ( 'NONE', #602, #95, #680, .T. ) ;
#1340 = DIRECTION ( 'NONE',  ( 0.9744771545600533491, 0.2244866927916707999, 0.000000000000000000 ) ) ;
#1341 = EDGE_LOOP ( 'NONE', ( #127, #1346, #1233, #1310, #1171, #88, #1279, #515, #495 ) ) ;
#1342 = VERTEX_POINT ( 'NONE', #469 ) ;
#1343 = CARTESIAN_POINT ( 'NONE',  ( 82.69149356667026041, -1.057863551569251159, 15.00000000000000000 ) ) ;
#1344 = DIRECTION ( 'NONE',  ( 0.000000000000000000, 1.000000000000000000, 0.000000000000000000 ) ) ;
#1345 = ORIENTED_EDGE ( 'NONE', *, *, #952, .T. ) ;
#1346 = ORIENTED_EDGE ( 'NONE', *, *, #875, .T. ) ;
ENDSEC;
END-ISO-10303-21;
