ISO-10303-21;
HEADER;
FILE_DESCRIPTION (( 'STEP AP203' ),
    '1' );
FILE_NAME ('EDM Wire Home Calibration Part 2 of 2.STEP',
    '2026-05-30T22:50:09',
    ( '' ),
    ( '' ),
    'SwSTEP 2.0',
    'SolidWorks 2024',
    '' );
FILE_SCHEMA (( 'CONFIG_CONTROL_DESIGN' ));
ENDSEC;

DATA;
#1 = PERSON_AND_ORGANIZATION ( #125, #506 ) ;
#2 = DIRECTION ( 'NONE',  ( -0.000000000000000000, -0.000000000000000000, -1.000000000000000000 ) ) ;
#3 = VERTEX_POINT ( 'NONE', #478 ) ;
#4 = CC_DESIGN_APPROVAL ( #355, ( #536 ) ) ;
#5 = ADVANCED_FACE ( 'NONE', ( #558 ), #113, .F. ) ;
#6 = AXIS2_PLACEMENT_3D ( 'NONE', #352, #211, #255 ) ;
#7 =( NAMED_UNIT ( * ) PLANE_ANGLE_UNIT ( ) SI_UNIT ( $, .RADIAN. ) );
#8 = VECTOR ( 'NONE', #181, 1000.000000000000000 ) ;
#9 = LINE ( 'NONE', #450, #495 ) ;
#10 = ORIENTED_EDGE ( 'NONE', *, *, #503, .F. ) ;
#11 = PERSON_AND_ORGANIZATION ( #125, #506 ) ;
#12 = DIRECTION ( 'NONE',  ( -0.000000000000000000, -0.000000000000000000, -1.000000000000000000 ) ) ;
#13 = ORIENTED_EDGE ( 'NONE', *, *, #404, .F. ) ;
#14 = PERSON_AND_ORGANIZATION ( #125, #506 ) ;
#15 = EDGE_CURVE ( 'NONE', #216, #175, #73, .T. ) ;
#16 = DIRECTION ( 'NONE',  ( -0.000000000000000000, -0.000000000000000000, -1.000000000000000000 ) ) ;
#17 = VERTEX_POINT ( 'NONE', #529 ) ;
#18 = PERSON_AND_ORGANIZATION_ROLE ( 'creator' ) ;
#19 = AXIS2_PLACEMENT_3D ( 'NONE', #391, #438, #260 ) ;
#20 = CARTESIAN_POINT ( 'NONE',  ( -0.004999999999999796274, 5.575000000000000178, 7.000000000000000000 ) ) ;
#21 = EDGE_LOOP ( 'NONE', ( #249, #58, #10, #200 ) ) ;
#22 = CARTESIAN_POINT ( 'NONE',  ( -5.080000000000000071, 2.574999999999999734, 0.000000000000000000 ) ) ;
#23 = CARTESIAN_POINT ( 'NONE',  ( -5.080000000000000071, -2.575000000000000622, 7.000000000000000000 ) ) ;
#24 = EDGE_LOOP ( 'NONE', ( #31, #535, #221, #455 ) ) ;
#25 = CARTESIAN_POINT ( 'NONE',  ( -6.580000000000000959, 4.074999999999999289, 7.000000000000000000 ) ) ;
#26 = PLANE ( 'NONE',  #376 ) ;
#27 = ORIENTED_EDGE ( 'NONE', *, *, #171, .T. ) ;
#28 = ADVANCED_FACE ( 'NONE', ( #253 ), #399, .F. ) ;
#29 = PLANE ( 'NONE',  #36 ) ;
#30 = VECTOR ( 'NONE', #37, 1000.000000000000000 ) ;
#31 = ORIENTED_EDGE ( 'NONE', *, *, #33, .T. ) ;
#32 = DIRECTION ( 'NONE',  ( 1.000000000000000000, 0.000000000000000000, 0.000000000000000000 ) ) ;
#33 = EDGE_CURVE ( 'NONE', #175, #131, #390, .T. ) ;
#34 = CARTESIAN_POINT ( 'NONE',  ( -0.004999999999999796274, 5.575000000000000178, 7.000000000000000000 ) ) ;
#35 = DIRECTION ( 'NONE',  ( 1.000000000000000000, 0.000000000000000000, 0.000000000000000000 ) ) ;
#36 = AXIS2_PLACEMENT_3D ( 'NONE', #23, #513, #332 ) ;
#37 = DIRECTION ( 'NONE',  ( -0.000000000000000000, 1.000000000000000000, -0.000000000000000000 ) ) ;
#38 = CARTESIAN_POINT ( 'NONE',  ( -0.004999999999999796274, 5.575000000000000178, 7.000000000000000000 ) ) ;
#39 = CARTESIAN_POINT ( 'NONE',  ( 5.070000000000000284, 2.574999999999999734, 0.000000000000000000 ) ) ;
#40 = ADVANCED_FACE ( 'NONE', ( #118 ), #116, .T. ) ;
#41 = DIRECTION ( 'NONE',  ( 0.000000000000000000, -0.000000000000000000, 1.000000000000000000 ) ) ;
#42 = VECTOR ( 'NONE', #48, 1000.000000000000000 ) ;
#43 = EDGE_LOOP ( 'NONE', ( #13, #138, #539, #65 ) ) ;
#44 = FACE_OUTER_BOUND ( 'NONE', #581, .T. ) ;
#45 = ORIENTED_EDGE ( 'NONE', *, *, #271, .F. ) ;
#46 = CARTESIAN_POINT ( 'NONE',  ( -5.080000000000000071, 2.574999999999999734, 5.000000000000000000 ) ) ;
#47 = EDGE_CURVE ( 'NONE', #3, #182, #209, .T. ) ;
#48 = DIRECTION ( 'NONE',  ( -1.000000000000000000, -0.000000000000000000, -0.000000000000000000 ) ) ;
#49 = ORIENTED_EDGE ( 'NONE', *, *, #167, .T. ) ;
#50 = APPROVAL_STATUS ( 'not_yet_approved' ) ;
#51 = DIRECTION ( 'NONE',  ( -0.000000000000000000, -0.000000000000000000, -1.000000000000000000 ) ) ;
#52 = PRODUCT_DEFINITION_FORMATION_WITH_SPECIFIED_SOURCE ( 'ANY', '', #366, .NOT_KNOWN. ) ;
#53 = VERTEX_POINT ( 'NONE', #307 ) ;
#54 = VECTOR ( 'NONE', #35, 1000.000000000000000 ) ;
#55 = APPROVAL_STATUS ( 'not_yet_approved' ) ;
#56 = AXIS2_PLACEMENT_3D ( 'NONE', #364, #318, #87 ) ;
#57 = DIRECTION ( 'NONE',  ( -0.000000000000000000, 0.000000000000000000, 1.000000000000000000 ) ) ;
#58 = ORIENTED_EDGE ( 'NONE', *, *, #121, .T. ) ;
#59 = APPROVAL_DATE_TIME ( #97, #355 ) ;
#60 = DIRECTION ( 'NONE',  ( 1.000000000000000000, 0.000000000000000000, 0.000000000000000000 ) ) ;
#61 = ORIENTED_EDGE ( 'NONE', *, *, #404, .T. ) ;
#62 = DIRECTION ( 'NONE',  ( -0.000000000000000000, -0.000000000000000000, -1.000000000000000000 ) ) ;
#63 = FACE_OUTER_BOUND ( 'NONE', #382, .T. ) ;
#64 = CARTESIAN_POINT ( 'NONE',  ( -6.580000000000000959, -4.075000000000000178, 0.000000000000000000 ) ) ;
#65 = ORIENTED_EDGE ( 'NONE', *, *, #33, .F. ) ;
#66 = LINE ( 'NONE', #151, #339 ) ;
#67 = ORIENTED_EDGE ( 'NONE', *, *, #167, .F. ) ;
#68 = DIRECTION ( 'NONE',  ( -0.000000000000000000, -0.000000000000000000, -1.000000000000000000 ) ) ;
#69 = CARTESIAN_POINT ( 'NONE',  ( 5.070000000000000284, 2.574999999999999734, 5.000000000000000000 ) ) ;
#70 = ADVANCED_FACE ( 'NONE', ( #527, #571, #164 ), #484, .F. ) ;
#71 = EDGE_LOOP ( 'NONE', ( #542, #567, #326, #86 ) ) ;
#72 = DIRECTION ( 'NONE',  ( 0.000000000000000000, 0.000000000000000000, 1.000000000000000000 ) ) ;
#73 = LINE ( 'NONE', #122, #54 ) ;
#74 = DIRECTION ( 'NONE',  ( 1.000000000000000000, 0.000000000000000000, 0.000000000000000000 ) ) ;
#75 = EDGE_CURVE ( 'NONE', #402, #469, #525, .T. ) ;
#76 = DIRECTION ( 'NONE',  ( -0.000000000000000000, -0.000000000000000000, -1.000000000000000000 ) ) ;
#77 = UNCERTAINTY_MEASURE_WITH_UNIT (LENGTH_MEASURE( 1.000000000000000082E-05 ), #498, 'distance_accuracy_value', 'NONE');
#78 = VECTOR ( 'NONE', #165, 1000.000000000000000 ) ;
#79 = DIRECTION ( 'NONE',  ( 0.000000000000000000, 1.000000000000000000, 0.000000000000000000 ) ) ;
#80 = VECTOR ( 'NONE', #560, 1000.000000000000000 ) ;
#81 = CARTESIAN_POINT ( 'NONE',  ( 1.495000000000000551, 4.074999999999999289, 0.000000000000000000 ) ) ;
#82 = EDGE_CURVE ( 'NONE', #334, #246, #411, .T. ) ;
#83 = CARTESIAN_POINT ( 'NONE',  ( 1.495000000000000551, 4.074999999999999289, 7.000000000000000000 ) ) ;
#84 = CARTESIAN_POINT ( 'NONE',  ( 1.495000000000000551, 5.575000000000000178, 7.000000000000000000 ) ) ;
#85 = AXIS2_PLACEMENT_3D ( 'NONE', #446, #358, #41 ) ;
#86 = ORIENTED_EDGE ( 'NONE', *, *, #150, .T. ) ;
#87 = DIRECTION ( 'NONE',  ( 1.000000000000000000, 0.000000000000000000, -0.000000000000000000 ) ) ;
#88 = EDGE_CURVE ( 'NONE', #202, #53, #441, .T. ) ;
#89 = CARTESIAN_POINT ( 'NONE',  ( -1.505000000000000115, 5.575000000000000178, 0.000000000000000000 ) ) ;
#90 = ORIENTED_EDGE ( 'NONE', *, *, #512, .F. ) ;
#91 = CARTESIAN_POINT ( 'NONE',  ( -5.080000000000000071, 2.574999999999999734, 0.000000000000000000 ) ) ;
#92 = APPROVAL_STATUS ( 'not_yet_approved' ) ;
#93 = ORIENTED_EDGE ( 'NONE', *, *, #88, .F. ) ;
#94 = FACE_OUTER_BOUND ( 'NONE', #21, .T. ) ;
#95 = PERSON_AND_ORGANIZATION ( #125, #506 ) ;
#96 = ORIENTED_EDGE ( 'NONE', *, *, #544, .F. ) ;
#97 = DATE_AND_TIME ( #463, #223 ) ;
#98 = DIRECTION ( 'NONE',  ( 0.000000000000000000, -0.000000000000000000, -1.000000000000000000 ) ) ;
#99 = PERSON_AND_ORGANIZATION ( #125, #506 ) ;
#100 = VERTEX_POINT ( 'NONE', #570 ) ;
#101 = EDGE_CURVE ( 'NONE', #205, #235, #161, .T. ) ;
#102 = DIRECTION ( 'NONE',  ( -0.000000000000000000, -0.000000000000000000, -1.000000000000000000 ) ) ;
#103 = MANIFOLD_SOLID_BREP ( 'Boss-Extrude2', #264 ) ;
#104 = ORIENTED_EDGE ( 'NONE', *, *, #101, .T. ) ;
#105 = LINE ( 'NONE', #554, #308 ) ;
#106 = ORIENTED_EDGE ( 'NONE', *, *, #150, .F. ) ;
#107 = AXIS2_PLACEMENT_3D ( 'NONE', #548, #418, #369 ) ;
#108 = EDGE_CURVE ( 'NONE', #334, #202, #206, .T. ) ;
#109 = LINE ( 'NONE', #471, #365 ) ;
#110 = ORIENTED_EDGE ( 'NONE', *, *, #462, .F. ) ;
#111 = CARTESIAN_POINT ( 'NONE',  ( 5.070000000000000284, 2.574999999999999734, 7.000000000000000000 ) ) ;
#112 = FACE_OUTER_BOUND ( 'NONE', #43, .T. ) ;
#113 = CYLINDRICAL_SURFACE ( 'NONE', #423, 0.7500000000000000000 ) ;
#114 = ORIENTED_EDGE ( 'NONE', *, *, #128, .F. ) ;
#115 = AXIS2_PLACEMENT_3D ( 'NONE', #299, #480, #74 ) ;
#116 = CYLINDRICAL_SURFACE ( 'NONE', #19, 1.500000000000000222 ) ;
#117 = ORIENTED_EDGE ( 'NONE', *, *, #171, .F. ) ;
#118 = FACE_OUTER_BOUND ( 'NONE', #575, .T. ) ;
#119 = DIRECTION ( 'NONE',  ( 0.000000000000000000, -0.000000000000000000, -1.000000000000000000 ) ) ;
#120 = APPROVAL_PERSON_ORGANIZATION ( #145, #217, #314 ) ;
#121 = EDGE_CURVE ( 'NONE', #343, #17, #169, .T. ) ;
#122 = CARTESIAN_POINT ( 'NONE',  ( -5.080000000000000071, -2.575000000000000622, 0.000000000000000000 ) ) ;
#123 = AXIS2_PLACEMENT_3D ( 'NONE', #132, #502, #192 ) ;
#124 = CARTESIAN_POINT ( 'NONE',  ( -5.080000000000000071, 2.574999999999999734, 7.000000000000000000 ) ) ;
#125 = PERSON ( 'UNSPECIFIED', 'UNSPECIFIED', 'UNSPECIFIED', ('UNSPECIFIED'), ('UNSPECIFIED'), ('UNSPECIFIED') ) ;
#126 = CARTESIAN_POINT ( 'NONE',  ( -1.505000000000000115, 5.575000000000000178, 0.000000000000000000 ) ) ;
#127 = VERTEX_POINT ( 'NONE', #531 ) ;
#128 = EDGE_CURVE ( 'NONE', #342, #425, #440, .T. ) ;
#129 = DIRECTION ( 'NONE',  ( 0.000000000000000000, -1.000000000000000000, 0.000000000000000000 ) ) ;
#130 = VECTOR ( 'NONE', #413, 1000.000000000000000 ) ;
#131 = VERTEX_POINT ( 'NONE', #39 ) ;
#132 = CARTESIAN_POINT ( 'NONE',  ( -5.080000000000000071, 2.574999999999999734, 7.000000000000000000 ) ) ;
#133 = CARTESIAN_POINT ( 'NONE',  ( 6.570000000000001172, -4.075000000000000178, 0.000000000000000000 ) ) ;
#134 = DATE_AND_TIME ( #137, #515 ) ;
#135 = ORIENTED_EDGE ( 'NONE', *, *, #384, .T. ) ;
#136 = CARTESIAN_POINT ( 'NONE',  ( -1.505000000000000338, 4.074999999999999289, 7.000000000000000000 ) ) ;
#137 = CALENDAR_DATE ( 2026, 30, 5 ) ;
#138 = ORIENTED_EDGE ( 'NONE', *, *, #75, .T. ) ;
#139 = EDGE_CURVE ( 'NONE', #235, #100, #213, .T. ) ;
#140 = LINE ( 'NONE', #341, #178 ) ;
#141 = CC_DESIGN_PERSON_AND_ORGANIZATION_ASSIGNMENT ( #1, #176, ( #52 ) ) ;
#142 = ORIENTED_EDGE ( 'NONE', *, *, #229, .F. ) ;
#143 = VECTOR ( 'NONE', #258, 1000.000000000000000 ) ;
#144 = VECTOR ( 'NONE', #51, 1000.000000000000000 ) ;
#145 = PERSON_AND_ORGANIZATION ( #125, #506 ) ;
#146 = DIRECTION ( 'NONE',  ( -1.000000000000000000, -0.000000000000000000, -0.000000000000000000 ) ) ;
#147 = ORIENTED_EDGE ( 'NONE', *, *, #47, .F. ) ;
#148 = CARTESIAN_POINT ( 'NONE',  ( -6.580000000000000959, 4.074999999999999289, 7.000000000000000000 ) ) ;
#149 = EDGE_LOOP ( 'NONE', ( #505, #96, #114, #296 ) ) ;
#150 = EDGE_CURVE ( 'NONE', #100, #280, #170, .T. ) ;
#151 = CARTESIAN_POINT ( 'NONE',  ( 5.070000000000000284, -2.575000000000000622, 7.000000000000000000 ) ) ;
#152 = ORIENTED_EDGE ( 'NONE', *, *, #229, .T. ) ;
#153 = CC_DESIGN_APPROVAL ( #523, ( #433 ) ) ;
#154 = VECTOR ( 'NONE', #577, 1000.000000000000000 ) ;
#155 = VECTOR ( 'NONE', #251, 1000.000000000000000 ) ;
#156 = LINE ( 'NONE', #426, #347 ) ;
#157 = VERTEX_POINT ( 'NONE', #532 ) ;
#158 = EDGE_LOOP ( 'NONE', ( #473, #317, #110, #374 ) ) ;
#159 = LINE ( 'NONE', #466, #486 ) ;
#160 = APPLICATION_CONTEXT ( 'configuration controlled 3d designs of mechanical parts and assemblies' ) ;
#161 = LINE ( 'NONE', #445, #524 ) ;
#162 = CC_DESIGN_PERSON_AND_ORGANIZATION_ASSIGNMENT ( #11, #331, ( #366 ) ) ;
#163 = AXIS2_PLACEMENT_3D ( 'NONE', #309, #344, #32 ) ;
#164 = FACE_BOUND ( 'NONE', #488, .T. ) ;
#165 = DIRECTION ( 'NONE',  ( -0.000000000000000000, 1.000000000000000000, -0.000000000000000000 ) ) ;
#166 = EDGE_LOOP ( 'NONE', ( #414, #377, #61, #173 ) ) ;
#167 = EDGE_CURVE ( 'NONE', #53, #202, #485, .T. ) ;
#168 = CARTESIAN_POINT ( 'NONE',  ( -6.580000000000000959, 4.074999999999999289, 7.000000000000000000 ) ) ;
#169 = LINE ( 'NONE', #81, #143 ) ;
#170 = LINE ( 'NONE', #356, #493 ) ;
#171 = EDGE_CURVE ( 'NONE', #157, #3, #320, .T. ) ;
#172 = DIRECTION ( 'NONE',  ( 0.000000000000000000, 0.000000000000000000, 1.000000000000000000 ) ) ;
#173 = ORIENTED_EDGE ( 'NONE', *, *, #15, .F. ) ;
#174 = LINE ( 'NONE', #126, #392 ) ;
#175 = VERTEX_POINT ( 'NONE', #408 ) ;
#176 = PERSON_AND_ORGANIZATION_ROLE ( 'design_supplier' ) ;
#177 = PLANE ( 'NONE',  #572 ) ;
#178 = VECTOR ( 'NONE', #337, 1000.000000000000000 ) ;
#179 = CALENDAR_DATE ( 2026, 30, 5 ) ;
#180 = ORIENTED_EDGE ( 'NONE', *, *, #108, .T. ) ;
#181 = DIRECTION ( 'NONE',  ( -1.445602896647338917E-16, -1.000000000000000000, 0.000000000000000000 ) ) ;
#182 = VERTEX_POINT ( 'NONE', #316 ) ;
#183 = APPROVAL_ROLE ( '' ) ;
#184 = ADVANCED_FACE ( 'NONE', ( #491 ), #499, .F. ) ;
#185 = CARTESIAN_POINT ( 'NONE',  ( 6.570000000000001172, -4.075000000000000178, 7.000000000000000000 ) ) ;
#186 = ORIENTED_EDGE ( 'NONE', *, *, #444, .T. ) ;
#187 = CALENDAR_DATE ( 2026, 30, 5 ) ;
#188 = FACE_OUTER_BOUND ( 'NONE', #71, .T. ) ;
#189 = ORIENTED_EDGE ( 'NONE', *, *, #555, .T. ) ;
#190 = VECTOR ( 'NONE', #457, 1000.000000000000000 ) ;
#191 = CIRCLE ( 'NONE', #526, 0.7500000000000000000 ) ;
#192 = DIRECTION ( 'NONE',  ( -0.000000000000000000, 0.000000000000000000, -1.000000000000000000 ) ) ;
#193 = PLANE ( 'NONE',  #208 ) ;
#194 = ADVANCED_FACE ( 'NONE', ( #44 ), #231, .F. ) ;
#195 = EDGE_LOOP ( 'NONE', ( #135, #180, #67, #514 ) ) ;
#196 = LINE ( 'NONE', #381, #80 ) ;
#197 = ORIENTED_EDGE ( 'NONE', *, *, #340, .F. ) ;
#198 = DIRECTION ( 'NONE',  ( 1.000000000000000000, 0.000000000000000000, -0.000000000000000000 ) ) ;
#199 = FACE_OUTER_BOUND ( 'NONE', #406, .T. ) ;
#200 = ORIENTED_EDGE ( 'NONE', *, *, #319, .F. ) ;
#201 = DIRECTION ( 'NONE',  ( 0.000000000000000000, 0.000000000000000000, 1.000000000000000000 ) ) ;
#202 = VERTEX_POINT ( 'NONE', #310 ) ;
#203 = EDGE_CURVE ( 'NONE', #100, #228, #266, .T. ) ;
#204 = DIRECTION ( 'NONE',  ( -0.000000000000000000, 1.000000000000000000, -0.000000000000000000 ) ) ;
#205 = VERTEX_POINT ( 'NONE', #538 ) ;
#206 = LINE ( 'NONE', #487, #154 ) ;
#207 = LINE ( 'NONE', #393, #30 ) ;
#208 = AXIS2_PLACEMENT_3D ( 'NONE', #424, #385, #98 ) ;
#209 = LINE ( 'NONE', #482, #277 ) ;
#210 = EDGE_CURVE ( 'NONE', #280, #127, #174, .T. ) ;
#211 = DIRECTION ( 'NONE',  ( 0.000000000000000000, 0.000000000000000000, 1.000000000000000000 ) ) ;
#212 = CARTESIAN_POINT ( 'NONE',  ( -0.004999999999999796274, 5.575000000000000178, 7.000000000000000000 ) ) ;
#213 = CIRCLE ( 'NONE', #552, 1.500000000000000222 ) ;
#214 = VECTOR ( 'NONE', #361, 1000.000000000000000 ) ;
#215 = DIRECTION ( 'NONE',  ( 1.000000000000000000, 0.000000000000000000, 0.000000000000000000 ) ) ;
#216 = VERTEX_POINT ( 'NONE', #460 ) ;
#217 = APPROVAL ( #50, 'UNSPECIFIED' ) ;
#218 = DIRECTION ( 'NONE',  ( -0.000000000000000000, -0.000000000000000000, -1.000000000000000000 ) ) ;
#219 = ORIENTED_EDGE ( 'NONE', *, *, #462, .T. ) ;
#220 = CARTESIAN_POINT ( 'NONE',  ( 0.7450000000000002176, 5.575000000000000178, 7.000000000000000000 ) ) ;
#221 = ORIENTED_EDGE ( 'NONE', *, *, #252, .T. ) ;
#222 = COORDINATED_UNIVERSAL_TIME_OFFSET ( 8, 0, .BEHIND. ) ;
#223 = LOCAL_TIME ( 15, 50, 9.000000000000000000, #286 ) ;
#224 = VECTOR ( 'NONE', #300, 1000.000000000000000 ) ;
#225 = DIRECTION ( 'NONE',  ( 0.000000000000000000, 0.000000000000000000, 1.000000000000000000 ) ) ;
#226 = VECTOR ( 'NONE', #585, 1000.000000000000000 ) ;
#227 = VECTOR ( 'NONE', #562, 1000.000000000000000 ) ;
#228 = VERTEX_POINT ( 'NONE', #136 ) ;
#229 = EDGE_CURVE ( 'NONE', #235, #518, #367, .T. ) ;
#230 = APPLICATION_PROTOCOL_DEFINITION ( 'international standard', 'config_control_design', 1994, #160 ) ;
#231 = PLANE ( 'NONE',  #563 ) ;
#232 = ORIENTED_EDGE ( 'NONE', *, *, #128, .T. ) ;
#233 = CARTESIAN_POINT ( 'NONE',  ( 6.570000000000001172, 4.074999999999999289, 7.000000000000000000 ) ) ;
#234 = DATE_AND_TIME ( #179, #479 ) ;
#235 = VERTEX_POINT ( 'NONE', #84 ) ;
#236 = CARTESIAN_POINT ( 'NONE',  ( 1.495000000000000551, 5.575000000000000178, 0.000000000000000000 ) ) ;
#237 = EDGE_CURVE ( 'NONE', #518, #280, #553, .T. ) ;
#238 = FACE_OUTER_BOUND ( 'NONE', #561, .T. ) ;
#239 = ORIENTED_EDGE ( 'NONE', *, *, #257, .T. ) ;
#240 = AXIS2_PLACEMENT_3D ( 'NONE', #373, #57, #215 ) ;
#241 = CARTESIAN_POINT ( 'NONE',  ( -1.505000000000000115, 5.575000000000000178, 7.000000000000000000 ) ) ;
#242 = CC_DESIGN_PERSON_AND_ORGANIZATION_ASSIGNMENT ( #99, #371, ( #433 ) ) ;
#243 = CARTESIAN_POINT ( 'NONE',  ( -0.004999999999999796274, 5.575000000000000178, 7.000000000000000000 ) ) ;
#244 = CARTESIAN_POINT ( 'NONE',  ( -6.580000000000000959, -4.075000000000000178, 0.000000000000000000 ) ) ;
#245 = DIRECTION ( 'NONE',  ( -1.000000000000000000, 0.000000000000000000, 0.000000000000000000 ) ) ;
#246 = VERTEX_POINT ( 'NONE', #504 ) ;
#247 = LINE ( 'NONE', #432, #155 ) ;
#248 = PLANE ( 'NONE',  #265 ) ;
#249 = ORIENTED_EDGE ( 'NONE', *, *, #285, .T. ) ;
#250 = APPROVAL_PERSON_ORGANIZATION ( #456, #355, #183 ) ;
#251 = DIRECTION ( 'NONE',  ( -0.000000000000000000, -0.000000000000000000, -1.000000000000000000 ) ) ;
#252 = EDGE_CURVE ( 'NONE', #547, #216, #312, .T. ) ;
#253 = FACE_OUTER_BOUND ( 'NONE', #465, .T. ) ;
#254 = APPLICATION_CONTEXT ( 'configuration controlled 3d designs of mechanical parts and assemblies' ) ;
#255 = DIRECTION ( 'NONE',  ( 1.000000000000000000, 0.000000000000000000, -0.000000000000000000 ) ) ;
#256 = ORIENTED_EDGE ( 'NONE', *, *, #345, .T. ) ;
#257 = EDGE_CURVE ( 'NONE', #3, #288, #272, .T. ) ;
#258 = DIRECTION ( 'NONE',  ( -1.000000000000000000, -0.000000000000000000, -0.000000000000000000 ) ) ;
#259 = PRODUCT_DEFINITION_SHAPE ( 'NONE', 'NONE',  #536 ) ;
#260 = DIRECTION ( 'NONE',  ( -1.000000000000000000, 0.000000000000000000, 0.000000000000000000 ) ) ;
#261 = CARTESIAN_POINT ( 'NONE',  ( -5.080000000000000071, 2.574999999999999734, 5.000000000000000000 ) ) ;
#262 = CARTESIAN_POINT ( 'NONE',  ( 1.495000000000000551, 5.575000000000000178, 7.000000000000000000 ) ) ;
#263 = CC_DESIGN_PERSON_AND_ORGANIZATION_ASSIGNMENT ( #14, #18, ( #536 ) ) ;
#264 = CLOSED_SHELL ( 'NONE', ( #5, #470, #419, #582, #398, #568, #70, #521, #311, #387, #301, #194, #40, #354, #559, #28, #184 ) ) ;
#265 = AXIS2_PLACEMENT_3D ( 'NONE', #233, #245, #201 ) ;
#266 = LINE ( 'NONE', #416, #8 ) ;
#267 = ORIENTED_EDGE ( 'NONE', *, *, #363, .F. ) ;
#268 = CARTESIAN_POINT ( 'NONE',  ( -6.580000000000000959, 4.074999999999999289, 0.000000000000000000 ) ) ;
#269 = ORIENTED_EDGE ( 'NONE', *, *, #210, .F. ) ;
#270 = APPLICATION_PROTOCOL_DEFINITION ( 'international standard', 'config_control_design', 1994, #254 ) ;
#271 = EDGE_CURVE ( 'NONE', #342, #547, #370, .T. ) ;
#272 = LINE ( 'NONE', #185, #144 ) ;
#273 = COORDINATED_UNIVERSAL_TIME_OFFSET ( 8, 0, .BEHIND. ) ;
#274 = ORIENTED_EDGE ( 'NONE', *, *, #483, .F. ) ;
#275 =( NAMED_UNIT ( * ) SI_UNIT ( $, .STERADIAN. ) SOLID_ANGLE_UNIT ( ) );
#276 = CC_DESIGN_SECURITY_CLASSIFICATION ( #433, ( #52 ) ) ;
#277 = VECTOR ( 'NONE', #204, 1000.000000000000000 ) ;
#278 = CARTESIAN_POINT ( 'NONE',  ( -6.580000000000000959, -4.075000000000000178, 7.000000000000000000 ) ) ;
#279 =( GEOMETRIC_REPRESENTATION_CONTEXT ( 3 ) GLOBAL_UNCERTAINTY_ASSIGNED_CONTEXT ( ( #77 ) ) GLOBAL_UNIT_ASSIGNED_CONTEXT ( ( #498, #7, #275 ) ) REPRESENTATION_CONTEXT ( 'NONE', 'WORKASPACE' ) );
#280 = VERTEX_POINT ( 'NONE', #89 ) ;
#281 = CARTESIAN_POINT ( 'NONE',  ( 5.070000000000000284, 2.574999999999999734, 7.000000000000000000 ) ) ;
#282 = DATE_TIME_ROLE ( 'classification_date' ) ;
#283 = ORIENTED_EDGE ( 'NONE', *, *, #389, .F. ) ;
#284 = LINE ( 'NONE', #111, #412 ) ;
#285 = EDGE_CURVE ( 'NONE', #182, #343, #9, .T. ) ;
#286 = COORDINATED_UNIVERSAL_TIME_OFFSET ( 8, 0, .BEHIND. ) ;
#287 = CARTESIAN_POINT ( 'NONE',  ( -5.080000000000000071, -2.575000000000000622, 5.000000000000000000 ) ) ;
#288 = VERTEX_POINT ( 'NONE', #133 ) ;
#289 = LINE ( 'NONE', #508, #293 ) ;
#290 = LOCAL_TIME ( 15, 50, 9.000000000000000000, #222 ) ;
#291 = ORIENTED_EDGE ( 'NONE', *, *, #490, .T. ) ;
#292 = AXIS2_PLACEMENT_3D ( 'NONE', #38, #574, #303 ) ;
#293 = VECTOR ( 'NONE', #468, 1000.000000000000000 ) ;
#294 = DIRECTION ( 'NONE',  ( 0.000000000000000000, 0.000000000000000000, 1.000000000000000000 ) ) ;
#295 = DIRECTION ( 'NONE',  ( 0.000000000000000000, -1.000000000000000000, 0.000000000000000000 ) ) ;
#296 = ORIENTED_EDGE ( 'NONE', *, *, #573, .F. ) ;
#297 = DIRECTION ( 'NONE',  ( 1.445602896647339163E-16, 1.000000000000000000, 0.000000000000000000 ) ) ;
#298 = DIRECTION ( 'NONE',  ( -1.000000000000000000, 0.000000000000000000, 0.000000000000000000 ) ) ;
#299 = CARTESIAN_POINT ( 'NONE',  ( -0.004999999999999796274, 5.575000000000000178, 0.000000000000000000 ) ) ;
#300 = DIRECTION ( 'NONE',  ( 0.000000000000000000, -1.000000000000000000, 0.000000000000000000 ) ) ;
#301 = ADVANCED_FACE ( 'NONE', ( #94 ), #177, .F. ) ;
#302 = LINE ( 'NONE', #439, #564 ) ;
#303 = DIRECTION ( 'NONE',  ( -1.000000000000000000, 0.000000000000000000, 0.000000000000000000 ) ) ;
#304 = DESIGN_CONTEXT ( 'detailed design', #254, 'design' ) ;
#305 = CARTESIAN_POINT ( 'NONE',  ( -5.080000000000000071, 2.574999999999999734, 0.000000000000000000 ) ) ;
#306 = CC_DESIGN_DATE_AND_TIME_ASSIGNMENT ( #134, #282, ( #433 ) ) ;
#307 = CARTESIAN_POINT ( 'NONE',  ( -0.7549999999999997824, 5.575000000000000178, 0.000000000000000000 ) ) ;
#308 = VECTOR ( 'NONE', #519, 1000.000000000000000 ) ;
#309 = CARTESIAN_POINT ( 'NONE',  ( -0.004999999999999796274, 5.575000000000000178, 0.000000000000000000 ) ) ;
#310 = CARTESIAN_POINT ( 'NONE',  ( 0.7450000000000002176, 5.575000000000000178, 0.000000000000000000 ) ) ;
#311 = ADVANCED_FACE ( 'NONE', ( #546 ), #489, .F. ) ;
#312 = LINE ( 'NONE', #91, #130 ) ;
#313 = ORIENTED_EDGE ( 'NONE', *, *, #324, .T. ) ;
#314 = APPROVAL_ROLE ( '' ) ;
#315 = VECTOR ( 'NONE', #2, 1000.000000000000000 ) ;
#316 = CARTESIAN_POINT ( 'NONE',  ( 6.570000000000001172, 4.074999999999999289, 7.000000000000000000 ) ) ;
#317 = ORIENTED_EDGE ( 'NONE', *, *, #528, .T. ) ;
#318 = DIRECTION ( 'NONE',  ( 0.000000000000000000, 0.000000000000000000, 1.000000000000000000 ) ) ;
#319 = EDGE_CURVE ( 'NONE', #182, #205, #405, .T. ) ;
#320 = LINE ( 'NONE', #278, #190 ) ;
#321 = APPROVAL_ROLE ( '' ) ;
#322 = ORIENTED_EDGE ( 'NONE', *, *, #449, .T. ) ;
#323 = DIRECTION ( 'NONE',  ( -1.000000000000000000, 0.000000000000000000, 0.000000000000000000 ) ) ;
#324 = EDGE_CURVE ( 'NONE', #127, #522, #496, .T. ) ;
#325 = DIRECTION ( 'NONE',  ( 1.000000000000000000, 0.000000000000000000, 0.000000000000000000 ) ) ;
#326 = ORIENTED_EDGE ( 'NONE', *, *, #203, .F. ) ;
#327 = FACE_OUTER_BOUND ( 'NONE', #351, .T. ) ;
#328 = DIRECTION ( 'NONE',  ( 1.000000000000000000, -1.445602896647339163E-16, 0.000000000000000000 ) ) ;
#329 = SECURITY_CLASSIFICATION_LEVEL ( 'unclassified' ) ;
#330 = ORIENTED_EDGE ( 'NONE', *, *, #252, .F. ) ;
#331 = PERSON_AND_ORGANIZATION_ROLE ( 'design_owner' ) ;
#332 = DIRECTION ( 'NONE',  ( 0.000000000000000000, -0.000000000000000000, 1.000000000000000000 ) ) ;
#333 = COORDINATED_UNIVERSAL_TIME_OFFSET ( 8, 0, .BEHIND. ) ;
#334 = VERTEX_POINT ( 'NONE', #220 ) ;
#335 = FACE_OUTER_BOUND ( 'NONE', #166, .T. ) ;
#336 = ORIENTED_EDGE ( 'NONE', *, *, #573, .T. ) ;
#337 = DIRECTION ( 'NONE',  ( -0.000000000000000000, -0.000000000000000000, -1.000000000000000000 ) ) ;
#338 = VERTEX_POINT ( 'NONE', #148 ) ;
#339 = VECTOR ( 'NONE', #102, 1000.000000000000000 ) ;
#340 = EDGE_CURVE ( 'NONE', #509, #288, #516, .T. ) ;
#341 = CARTESIAN_POINT ( 'NONE',  ( -6.580000000000000959, -4.075000000000000178, 7.000000000000000000 ) ) ;
#342 = VERTEX_POINT ( 'NONE', #375 ) ;
#343 = VERTEX_POINT ( 'NONE', #565 ) ;
#344 = DIRECTION ( 'NONE',  ( 0.000000000000000000, 0.000000000000000000, 1.000000000000000000 ) ) ;
#345 = EDGE_CURVE ( 'NONE', #228, #127, #105, .T. ) ;
#346 = VECTOR ( 'NONE', #79, 1000.000000000000000 ) ;
#347 = VECTOR ( 'NONE', #16, 1000.000000000000000 ) ;
#348 = CARTESIAN_POINT ( 'NONE',  ( 5.070000000000000284, 2.574999999999999734, 0.000000000000000000 ) ) ;
#349 = LINE ( 'NONE', #403, #226 ) ;
#350 = CARTESIAN_POINT ( 'NONE',  ( 5.070000000000000284, 2.574999999999999734, 5.000000000000000000 ) ) ;
#351 = EDGE_LOOP ( 'NONE', ( #45, #232, #291, #330 ) ) ;
#352 = CARTESIAN_POINT ( 'NONE',  ( -0.004999999999999796274, 5.575000000000000178, 0.000000000000000000 ) ) ;
#353 = VECTOR ( 'NONE', #323, 1000.000000000000000 ) ;
#354 = ADVANCED_FACE ( 'NONE', ( #188 ), #26, .F. ) ;
#355 = APPROVAL ( #55, 'UNSPECIFIED' ) ;
#356 = CARTESIAN_POINT ( 'NONE',  ( -1.505000000000000115, 5.575000000000000178, 7.000000000000000000 ) ) ;
#357 = ORIENTED_EDGE ( 'NONE', *, *, #319, .T. ) ;
#358 = DIRECTION ( 'NONE',  ( 0.000000000000000000, 1.000000000000000000, 0.000000000000000000 ) ) ;
#359 = ORIENTED_EDGE ( 'NONE', *, *, #503, .T. ) ;
#360 = CARTESIAN_POINT ( 'NONE',  ( -6.580000000000000959, 4.074999999999999289, 0.000000000000000000 ) ) ;
#361 = DIRECTION ( 'NONE',  ( -1.000000000000000000, -0.000000000000000000, -0.000000000000000000 ) ) ;
#362 = ORIENTED_EDGE ( 'NONE', *, *, #555, .F. ) ;
#363 = EDGE_CURVE ( 'NONE', #228, #338, #477, .T. ) ;
#364 = CARTESIAN_POINT ( 'NONE',  ( -0.004999999999999796274, 5.575000000000000178, 7.000000000000000000 ) ) ;
#365 = VECTOR ( 'NONE', #295, 1000.000000000000000 ) ;
#366 = PRODUCT ( 'EDM Wire Home Calibration Part 2 of 2', 'EDM Wire Home Calibration Part 2 of 2', '', ( #415 ) ) ;
#367 = LINE ( 'NONE', #262, #436 ) ;
#368 = ORIENTED_EDGE ( 'NONE', *, *, #47, .T. ) ;
#369 = DIRECTION ( 'NONE',  ( 1.000000000000000000, 0.000000000000000000, 0.000000000000000000 ) ) ;
#370 = LINE ( 'NONE', #124, #315 ) ;
#371 = PERSON_AND_ORGANIZATION_ROLE ( 'classification_officer' ) ;
#372 = EDGE_LOOP ( 'NONE', ( #388, #587, #269, #533, #431, #409, #362, #197 ) ) ;
#373 = CARTESIAN_POINT ( 'NONE',  ( 0.000000000000000000, 0.000000000000000000, 5.000000000000000000 ) ) ;
#374 = ORIENTED_EDGE ( 'NONE', *, *, #444, .F. ) ;
#375 = CARTESIAN_POINT ( 'NONE',  ( -5.080000000000000071, 2.574999999999999734, 5.000000000000000000 ) ) ;
#376 = AXIS2_PLACEMENT_3D ( 'NONE', #241, #328, #297 ) ;
#377 = ORIENTED_EDGE ( 'NONE', *, *, #544, .T. ) ;
#378 = FACE_OUTER_BOUND ( 'NONE', #158, .T. ) ;
#379 = ORIENTED_EDGE ( 'NONE', *, *, #101, .F. ) ;
#380 = PLANE ( 'NONE',  #566 ) ;
#381 = CARTESIAN_POINT ( 'NONE',  ( 1.495000000000000551, 5.575000000000000178, 0.000000000000000000 ) ) ;
#382 = EDGE_LOOP ( 'NONE', ( #501, #461, #186, #27, #368, #357, #104, #520 ) ) ;
#383 = DIRECTION ( 'NONE',  ( -0.000000000000000000, 0.000000000000000000, -1.000000000000000000 ) ) ;
#384 = EDGE_CURVE ( 'NONE', #246, #334, #191, .T. ) ;
#385 = DIRECTION ( 'NONE',  ( 0.000000000000000000, -1.000000000000000000, 0.000000000000000000 ) ) ;
#386 = ORIENTED_EDGE ( 'NONE', *, *, #257, .F. ) ;
#387 = ADVANCED_FACE ( 'NONE', ( #238 ), #248, .F. ) ;
#388 = ORIENTED_EDGE ( 'NONE', *, *, #528, .F. ) ;
#389 = EDGE_CURVE ( 'NONE', #338, #522, #156, .T. ) ;
#390 = LINE ( 'NONE', #348, #78 ) ;
#391 = CARTESIAN_POINT ( 'NONE',  ( -0.004999999999999796274, 5.575000000000000178, 7.000000000000000000 ) ) ;
#392 = VECTOR ( 'NONE', #401, 1000.000000000000000 ) ;
#393 = CARTESIAN_POINT ( 'NONE',  ( 6.570000000000001172, 4.074999999999999289, 0.000000000000000000 ) ) ;
#394 = DIRECTION ( 'NONE',  ( 0.000000000000000000, 0.000000000000000000, 1.000000000000000000 ) ) ;
#395 = ORIENTED_EDGE ( 'NONE', *, *, #340, .T. ) ;
#396 = FACE_OUTER_BOUND ( 'NONE', #497, .T. ) ;
#397 = DIRECTION ( 'NONE',  ( -0.000000000000000000, 1.000000000000000000, -0.000000000000000000 ) ) ;
#398 = ADVANCED_FACE ( 'NONE', ( #335 ), #29, .T. ) ;
#399 = CYLINDRICAL_SURFACE ( 'NONE', #292, 0.7500000000000000000 ) ;
#400 = ORIENTED_EDGE ( 'NONE', *, *, #82, .F. ) ;
#401 = DIRECTION ( 'NONE',  ( -1.445602896647338917E-16, -1.000000000000000000, 0.000000000000000000 ) ) ;
#402 = VERTEX_POINT ( 'NONE', #474 ) ;
#403 = CARTESIAN_POINT ( 'NONE',  ( -6.580000000000000959, 4.074999999999999289, 0.000000000000000000 ) ) ;
#404 = EDGE_CURVE ( 'NONE', #402, #175, #66, .T. ) ;
#405 = LINE ( 'NONE', #586, #214 ) ;
#406 = EDGE_LOOP ( 'NONE', ( #274, #336, #420, #90 ) ) ;
#407 = PERSON_AND_ORGANIZATION_ROLE ( 'creator' ) ;
#408 = CARTESIAN_POINT ( 'NONE',  ( 5.070000000000000284, -2.575000000000001066, 0.000000000000000000 ) ) ;
#409 = ORIENTED_EDGE ( 'NONE', *, *, #121, .F. ) ;
#410 = PERSON_AND_ORGANIZATION ( #125, #506 ) ;
#411 = CIRCLE ( 'NONE', #580, 0.7500000000000000000 ) ;
#412 = VECTOR ( 'NONE', #68, 1000.000000000000000 ) ;
#413 = DIRECTION ( 'NONE',  ( 0.000000000000000000, -1.000000000000000000, 0.000000000000000000 ) ) ;
#414 = ORIENTED_EDGE ( 'NONE', *, *, #490, .F. ) ;
#415 = MECHANICAL_CONTEXT ( 'NONE', #160, 'mechanical' ) ;
#416 = CARTESIAN_POINT ( 'NONE',  ( -1.505000000000000115, 5.575000000000000178, 7.000000000000000000 ) ) ;
#417 = ORIENTED_EDGE ( 'NONE', *, *, #139, .F. ) ;
#418 = DIRECTION ( 'NONE',  ( 0.000000000000000000, 0.000000000000000000, 1.000000000000000000 ) ) ;
#419 = ADVANCED_FACE ( 'NONE', ( #199 ), #193, .T. ) ;
#420 = ORIENTED_EDGE ( 'NONE', *, *, #271, .T. ) ;
#421 = LINE ( 'NONE', #46, #353 ) ;
#422 = APPROVAL_PERSON_ORGANIZATION ( #95, #523, #321 ) ;
#423 = AXIS2_PLACEMENT_3D ( 'NONE', #243, #435, #298 ) ;
#424 = CARTESIAN_POINT ( 'NONE',  ( -5.080000000000000071, 2.574999999999999734, 7.000000000000000000 ) ) ;
#425 = VERTEX_POINT ( 'NONE', #287 ) ;
#426 = CARTESIAN_POINT ( 'NONE',  ( -6.580000000000000959, 4.074999999999999289, 7.000000000000000000 ) ) ;
#427 = EDGE_CURVE ( 'NONE', #246, #53, #289, .T. ) ;
#428 = ORIENTED_EDGE ( 'NONE', *, *, #285, .F. ) ;
#429 = LINE ( 'NONE', #22, #227 ) ;
#430 = DIRECTION ( 'NONE',  ( 1.000000000000000000, 0.000000000000000000, 0.000000000000000000 ) ) ;
#431 = ORIENTED_EDGE ( 'NONE', *, *, #449, .F. ) ;
#432 = CARTESIAN_POINT ( 'NONE',  ( -5.080000000000000071, -2.575000000000000622, 7.000000000000000000 ) ) ;
#433 = SECURITY_CLASSIFICATION ( '', '', #329 ) ;
#434 = CARTESIAN_POINT ( 'NONE',  ( -6.580000000000000959, 4.074999999999999289, 7.000000000000000000 ) ) ;
#435 = DIRECTION ( 'NONE',  ( -0.000000000000000000, -0.000000000000000000, -1.000000000000000000 ) ) ;
#436 = VECTOR ( 'NONE', #12, 1000.000000000000000 ) ;
#437 = AXIS2_PLACEMENT_3D ( 'NONE', #168, #530, #119 ) ;
#438 = DIRECTION ( 'NONE',  ( -0.000000000000000000, -0.000000000000000000, -1.000000000000000000 ) ) ;
#439 = CARTESIAN_POINT ( 'NONE',  ( -5.080000000000000071, -2.575000000000000622, 5.000000000000000000 ) ) ;
#440 = LINE ( 'NONE', #261, #224 ) ;
#441 = CIRCLE ( 'NONE', #163, 0.7500000000000000000 ) ;
#442 = DIRECTION ( 'NONE',  ( 1.000000000000000000, -0.000000000000000000, 0.000000000000000000 ) ) ;
#443 = DIRECTION ( 'NONE',  ( 1.000000000000000000, 0.000000000000000000, 0.000000000000000000 ) ) ;
#444 = EDGE_CURVE ( 'NONE', #338, #157, #109, .T. ) ;
#445 = CARTESIAN_POINT ( 'NONE',  ( 1.495000000000000551, 5.575000000000000178, 7.000000000000000000 ) ) ;
#446 = CARTESIAN_POINT ( 'NONE',  ( -6.580000000000000959, -4.075000000000000178, 7.000000000000000000 ) ) ;
#447 = CC_DESIGN_APPROVAL ( #217, ( #52 ) ) ;
#448 = VECTOR ( 'NONE', #146, 1000.000000000000000 ) ;
#449 = EDGE_CURVE ( 'NONE', #17, #518, #196, .T. ) ;
#450 = CARTESIAN_POINT ( 'NONE',  ( 6.570000000000001172, 4.074999999999999289, 7.000000000000000000 ) ) ;
#451 = EDGE_LOOP ( 'NONE', ( #550, #400 ) ) ;
#452 = APPROVAL_DATE_TIME ( #494, #217 ) ;
#453 = PRODUCT_RELATED_PRODUCT_CATEGORY ( 'detail', '', ( #366 ) ) ;
#454 = CARTESIAN_POINT ( 'NONE',  ( -0.004999999999999796274, 5.575000000000000178, 0.000000000000000000 ) ) ;
#455 = ORIENTED_EDGE ( 'NONE', *, *, #15, .T. ) ;
#456 = PERSON_AND_ORGANIZATION ( #125, #506 ) ;
#457 = DIRECTION ( 'NONE',  ( 1.000000000000000000, 0.000000000000000000, 0.000000000000000000 ) ) ;
#458 = ORIENTED_EDGE ( 'NONE', *, *, #88, .T. ) ;
#459 = PLANE ( 'NONE',  #123 ) ;
#460 = CARTESIAN_POINT ( 'NONE',  ( -5.080000000000000071, -2.575000000000000622, 0.000000000000000000 ) ) ;
#461 = ORIENTED_EDGE ( 'NONE', *, *, #363, .T. ) ;
#462 = EDGE_CURVE ( 'NONE', #157, #509, #140, .T. ) ;
#463 = CALENDAR_DATE ( 2026, 30, 5 ) ;
#464 = DIRECTION ( 'NONE',  ( -1.000000000000000000, 0.000000000000000000, 0.000000000000000000 ) ) ;
#465 = EDGE_LOOP ( 'NONE', ( #569, #511, #556, #93 ) ) ;
#466 = CARTESIAN_POINT ( 'NONE',  ( 1.495000000000000551, 4.074999999999999289, 7.000000000000000000 ) ) ;
#467 = COORDINATED_UNIVERSAL_TIME_OFFSET ( 8, 0, .BEHIND. ) ;
#468 = DIRECTION ( 'NONE',  ( -0.000000000000000000, -0.000000000000000000, -1.000000000000000000 ) ) ;
#469 = VERTEX_POINT ( 'NONE', #69 ) ;
#470 = ADVANCED_FACE ( 'NONE', ( #112 ), #549, .T. ) ;
#471 = CARTESIAN_POINT ( 'NONE',  ( -6.580000000000000959, 4.074999999999999289, 7.000000000000000000 ) ) ;
#472 = VECTOR ( 'NONE', #430, 1000.000000000000000 ) ;
#473 = ORIENTED_EDGE ( 'NONE', *, *, #389, .T. ) ;
#474 = CARTESIAN_POINT ( 'NONE',  ( 5.070000000000000284, -2.575000000000000622, 5.000000000000000000 ) ) ;
#475 = ADVANCED_BREP_SHAPE_REPRESENTATION ( 'EDM Wire Home Calibration Part 2 of 2', ( #103, #107 ), #279 ) ;
#476 = ORIENTED_EDGE ( 'NONE', *, *, #237, .T. ) ;
#477 = LINE ( 'NONE', #434, #448 ) ;
#478 = CARTESIAN_POINT ( 'NONE',  ( 6.570000000000001172, -4.075000000000000178, 7.000000000000000000 ) ) ;
#479 = LOCAL_TIME ( 15, 50, 9.000000000000000000, #273 ) ;
#480 = DIRECTION ( 'NONE',  ( 0.000000000000000000, 0.000000000000000000, 1.000000000000000000 ) ) ;
#481 = DIRECTION ( 'NONE',  ( 0.000000000000000000, 0.000000000000000000, 1.000000000000000000 ) ) ;
#482 = CARTESIAN_POINT ( 'NONE',  ( 6.570000000000001172, 4.074999999999999289, 7.000000000000000000 ) ) ;
#483 = EDGE_CURVE ( 'NONE', #469, #131, #284, .T. ) ;
#484 = PLANE ( 'NONE',  #6 ) ;
#485 = CIRCLE ( 'NONE', #115, 0.7500000000000000000 ) ;
#486 = VECTOR ( 'NONE', #62, 1000.000000000000000 ) ;
#487 = CARTESIAN_POINT ( 'NONE',  ( 0.7450000000000002176, 5.575000000000000178, 7.000000000000000000 ) ) ;
#488 = EDGE_LOOP ( 'NONE', ( #49, #458 ) ) ;
#489 = PLANE ( 'NONE',  #85 ) ;
#490 = EDGE_CURVE ( 'NONE', #425, #216, #247, .T. ) ;
#491 = FACE_OUTER_BOUND ( 'NONE', #149, .T. ) ;
#492 = EDGE_LOOP ( 'NONE', ( #219, #395, #386, #117 ) ) ;
#493 = VECTOR ( 'NONE', #76, 1000.000000000000000 ) ;
#494 = DATE_AND_TIME ( #510, #290 ) ;
#495 = VECTOR ( 'NONE', #218, 1000.000000000000000 ) ;
#496 = LINE ( 'NONE', #268, #42 ) ;
#497 = EDGE_LOOP ( 'NONE', ( #256, #313, #283, #267 ) ) ;
#498 =( LENGTH_UNIT ( ) NAMED_UNIT ( * ) SI_UNIT ( .MILLI., .METRE. ) );
#499 = PLANE ( 'NONE',  #240 ) ;
#500 = SHAPE_DEFINITION_REPRESENTATION ( #259, #475 ) ;
#501 = ORIENTED_EDGE ( 'NONE', *, *, #203, .T. ) ;
#502 = DIRECTION ( 'NONE',  ( 1.000000000000000000, 0.000000000000000000, -0.000000000000000000 ) ) ;
#503 = EDGE_CURVE ( 'NONE', #205, #17, #159, .T. ) ;
#504 = CARTESIAN_POINT ( 'NONE',  ( -0.7549999999999997824, 5.575000000000000178, 7.000000000000000000 ) ) ;
#505 = ORIENTED_EDGE ( 'NONE', *, *, #75, .F. ) ;
#506 = ORGANIZATION ( 'UNSPECIFIED', 'UNSPECIFIED', '' ) ;
#507 = AXIS2_PLACEMENT_3D ( 'NONE', #454, #172, #325 ) ;
#508 = CARTESIAN_POINT ( 'NONE',  ( -0.7549999999999997824, 5.575000000000000178, 7.000000000000000000 ) ) ;
#509 = VERTEX_POINT ( 'NONE', #244 ) ;
#510 = CALENDAR_DATE ( 2026, 30, 5 ) ;
#511 = ORIENTED_EDGE ( 'NONE', *, *, #82, .T. ) ;
#512 = EDGE_CURVE ( 'NONE', #131, #547, #429, .T. ) ;
#513 = DIRECTION ( 'NONE',  ( 0.000000000000000000, 1.000000000000000000, 0.000000000000000000 ) ) ;
#514 = ORIENTED_EDGE ( 'NONE', *, *, #427, .F. ) ;
#515 = LOCAL_TIME ( 15, 50, 9.000000000000000000, #333 ) ;
#516 = LINE ( 'NONE', #64, #472 ) ;
#517 = AXIS2_PLACEMENT_3D ( 'NONE', #281, #464, #294 ) ;
#518 = VERTEX_POINT ( 'NONE', #236 ) ;
#519 = DIRECTION ( 'NONE',  ( -0.000000000000000000, -0.000000000000000000, -1.000000000000000000 ) ) ;
#520 = ORIENTED_EDGE ( 'NONE', *, *, #139, .T. ) ;
#521 = ADVANCED_FACE ( 'NONE', ( #378 ), #380, .F. ) ;
#522 = VERTEX_POINT ( 'NONE', #360 ) ;
#523 = APPROVAL ( #92, 'UNSPECIFIED' ) ;
#524 = VECTOR ( 'NONE', #397, 1000.000000000000000 ) ;
#525 = LINE ( 'NONE', #350, #346 ) ;
#526 = AXIS2_PLACEMENT_3D ( 'NONE', #20, #72, #60 ) ;
#527 = FACE_OUTER_BOUND ( 'NONE', #372, .T. ) ;
#528 = EDGE_CURVE ( 'NONE', #522, #509, #349, .T. ) ;
#529 = CARTESIAN_POINT ( 'NONE',  ( 1.495000000000000551, 4.074999999999999289, 0.000000000000000000 ) ) ;
#530 = DIRECTION ( 'NONE',  ( 0.000000000000000000, -1.000000000000000000, 0.000000000000000000 ) ) ;
#531 = CARTESIAN_POINT ( 'NONE',  ( -1.505000000000000338, 4.074999999999999289, 0.000000000000000000 ) ) ;
#532 = CARTESIAN_POINT ( 'NONE',  ( -6.580000000000000959, -4.075000000000000178, 7.000000000000000000 ) ) ;
#533 = ORIENTED_EDGE ( 'NONE', *, *, #237, .F. ) ;
#534 = CARTESIAN_POINT ( 'NONE',  ( 1.495000000000000551, 5.575000000000000178, 7.000000000000000000 ) ) ;
#535 = ORIENTED_EDGE ( 'NONE', *, *, #512, .T. ) ;
#536 = PRODUCT_DEFINITION ( 'UNKNOWN', '', #52, #304 ) ;
#537 = DATE_TIME_ROLE ( 'creation_date' ) ;
#538 = CARTESIAN_POINT ( 'NONE',  ( 1.495000000000000551, 4.074999999999999289, 7.000000000000000000 ) ) ;
#539 = ORIENTED_EDGE ( 'NONE', *, *, #483, .T. ) ;
#540 = FACE_BOUND ( 'NONE', #451, .T. ) ;
#541 = DIRECTION ( 'NONE',  ( 0.000000000000000000, -0.000000000000000000, -1.000000000000000000 ) ) ;
#542 = ORIENTED_EDGE ( 'NONE', *, *, #210, .T. ) ;
#543 = PLANE ( 'NONE',  #56 ) ;
#544 = EDGE_CURVE ( 'NONE', #425, #402, #302, .T. ) ;
#545 = CC_DESIGN_PERSON_AND_ORGANIZATION_ASSIGNMENT ( #410, #407, ( #52 ) ) ;
#546 = FACE_OUTER_BOUND ( 'NONE', #492, .T. ) ;
#547 = VERTEX_POINT ( 'NONE', #305 ) ;
#548 = CARTESIAN_POINT ( 'NONE',  ( 0.000000000000000000, 0.000000000000000000, 0.000000000000000000 ) ) ;
#549 = PLANE ( 'NONE',  #517 ) ;
#550 = ORIENTED_EDGE ( 'NONE', *, *, #384, .F. ) ;
#551 = DATE_AND_TIME ( #187, #578 ) ;
#552 = AXIS2_PLACEMENT_3D ( 'NONE', #212, #481, #579 ) ;
#553 = CIRCLE ( 'NONE', #507, 1.500000000000000222 ) ;
#554 = CARTESIAN_POINT ( 'NONE',  ( -1.505000000000000338, 4.074999999999999289, 7.000000000000000000 ) ) ;
#555 = EDGE_CURVE ( 'NONE', #288, #343, #207, .T. ) ;
#556 = ORIENTED_EDGE ( 'NONE', *, *, #427, .T. ) ;
#557 = APPROVAL_DATE_TIME ( #234, #523 ) ;
#558 = FACE_OUTER_BOUND ( 'NONE', #195, .T. ) ;
#559 = ADVANCED_FACE ( 'NONE', ( #396 ), #576, .F. ) ;
#560 = DIRECTION ( 'NONE',  ( -0.000000000000000000, 1.000000000000000000, -0.000000000000000000 ) ) ;
#561 = EDGE_LOOP ( 'NONE', ( #239, #189, #428, #147 ) ) ;
#562 = DIRECTION ( 'NONE',  ( -1.000000000000000000, -0.000000000000000000, -0.000000000000000000 ) ) ;
#563 = AXIS2_PLACEMENT_3D ( 'NONE', #534, #584, #225 ) ;
#564 = VECTOR ( 'NONE', #442, 1000.000000000000000 ) ;
#565 = CARTESIAN_POINT ( 'NONE',  ( 6.570000000000001172, 4.074999999999999289, 0.000000000000000000 ) ) ;
#566 = AXIS2_PLACEMENT_3D ( 'NONE', #25, #198, #383 ) ;
#567 = ORIENTED_EDGE ( 'NONE', *, *, #345, .F. ) ;
#568 = ADVANCED_FACE ( 'NONE', ( #63, #540 ), #543, .T. ) ;
#569 = ORIENTED_EDGE ( 'NONE', *, *, #108, .F. ) ;
#570 = CARTESIAN_POINT ( 'NONE',  ( -1.505000000000000115, 5.575000000000000178, 7.000000000000000000 ) ) ;
#571 = FACE_BOUND ( 'NONE', #24, .T. ) ;
#572 = AXIS2_PLACEMENT_3D ( 'NONE', #83, #129, #541 ) ;
#573 = EDGE_CURVE ( 'NONE', #469, #342, #421, .T. ) ;
#574 = DIRECTION ( 'NONE',  ( -0.000000000000000000, -0.000000000000000000, -1.000000000000000000 ) ) ;
#575 = EDGE_LOOP ( 'NONE', ( #476, #106, #417, #152 ) ) ;
#576 = PLANE ( 'NONE',  #437 ) ;
#577 = DIRECTION ( 'NONE',  ( -0.000000000000000000, -0.000000000000000000, -1.000000000000000000 ) ) ;
#578 = LOCAL_TIME ( 15, 50, 9.000000000000000000, #467 ) ;
#579 = DIRECTION ( 'NONE',  ( 1.000000000000000000, 0.000000000000000000, 0.000000000000000000 ) ) ;
#580 = AXIS2_PLACEMENT_3D ( 'NONE', #34, #394, #443 ) ;
#581 = EDGE_LOOP ( 'NONE', ( #322, #142, #379, #359 ) ) ;
#582 = ADVANCED_FACE ( 'NONE', ( #327 ), #459, .T. ) ;
#583 = CC_DESIGN_DATE_AND_TIME_ASSIGNMENT ( #551, #537, ( #536 ) ) ;
#584 = DIRECTION ( 'NONE',  ( -1.000000000000000000, 0.000000000000000000, 0.000000000000000000 ) ) ;
#585 = DIRECTION ( 'NONE',  ( 0.000000000000000000, -1.000000000000000000, 0.000000000000000000 ) ) ;
#586 = CARTESIAN_POINT ( 'NONE',  ( 1.495000000000000551, 4.074999999999999289, 7.000000000000000000 ) ) ;
#587 = ORIENTED_EDGE ( 'NONE', *, *, #324, .F. ) ;
ENDSEC;
END-ISO-10303-21;
