ISO-10303-21;
HEADER;
FILE_DESCRIPTION (( 'STEP AP203' ),
    '1' );
FILE_NAME ('EDM Pulley-Spacer.STEP',
    '2026-05-30T22:49:00',
    ( '' ),
    ( '' ),
    'SwSTEP 2.0',
    'SolidWorks 2024',
    '' );
FILE_SCHEMA (( 'CONFIG_CONTROL_DESIGN' ));
ENDSEC;

DATA;
#1 = ORIENTED_EDGE ( 'NONE', *, *, #119, .F. ) ;
#2 =( GEOMETRIC_REPRESENTATION_CONTEXT ( 3 ) GLOBAL_UNCERTAINTY_ASSIGNED_CONTEXT ( ( #13 ) ) GLOBAL_UNIT_ASSIGNED_CONTEXT ( ( #170, #96, #226 ) ) REPRESENTATION_CONTEXT ( 'NONE', 'WORKASPACE' ) );
#3 = EDGE_LOOP ( 'NONE', ( #143, #214, #179, #83 ) ) ;
#4 = CARTESIAN_POINT ( 'NONE',  ( -4.110000000000001208, 0.000000000000000000, 0.000000000000000000 ) ) ;
#5 = PRODUCT_DEFINITION_SHAPE ( 'NONE', 'NONE',  #127 ) ;
#6 = DIRECTION ( 'NONE',  ( 0.000000000000000000, 0.000000000000000000, 1.000000000000000000 ) ) ;
#7 = EDGE_LOOP ( 'NONE', ( #47, #232 ) ) ;
#8 = LOCAL_TIME ( 15, 49, 0.000000000000000000, #156 ) ;
#9 = CARTESIAN_POINT ( 'NONE',  ( 0.000000000000000000, 0.000000000000000000, 43.00000000000000000 ) ) ;
#10 = DIRECTION ( 'NONE',  ( -0.000000000000000000, -0.000000000000000000, -1.000000000000000000 ) ) ;
#11 = APPROVAL_ROLE ( '' ) ;
#12 = CARTESIAN_POINT ( 'NONE',  ( 0.000000000000000000, 0.000000000000000000, 43.00000000000000000 ) ) ;
#13 = UNCERTAINTY_MEASURE_WITH_UNIT (LENGTH_MEASURE( 1.000000000000000082E-05 ), #170, 'distance_accuracy_value', 'NONE');
#14 = PERSON_AND_ORGANIZATION ( #31, #121 ) ;
#15 = DIRECTION ( 'NONE',  ( 0.000000000000000000, 0.000000000000000000, 1.000000000000000000 ) ) ;
#16 = AXIS2_PLACEMENT_3D ( 'NONE', #153, #190, #94 ) ;
#17 = CALENDAR_DATE ( 2026, 30, 5 ) ;
#18 = VERTEX_POINT ( 'NONE', #54 ) ;
#19 = CC_DESIGN_PERSON_AND_ORGANIZATION_ASSIGNMENT ( #64, #177, ( #139 ) ) ;
#20 = APPROVAL_ROLE ( '' ) ;
#21 = EDGE_LOOP ( 'NONE', ( #73, #167, #169, #87 ) ) ;
#22 = APPROVAL_DATE_TIME ( #233, #185 ) ;
#23 = PRODUCT ( 'EDM Pulley-Spacer', 'EDM Pulley-Spacer', '', ( #116 ) ) ;
#24 = EDGE_LOOP ( 'NONE', ( #234, #137 ) ) ;
#25 = DIRECTION ( 'NONE',  ( 0.000000000000000000, 0.000000000000000000, 1.000000000000000000 ) ) ;
#26 = CYLINDRICAL_SURFACE ( 'NONE', #239, 4.110000000000001208 ) ;
#27 = EDGE_CURVE ( 'NONE', #219, #176, #220, .T. ) ;
#28 = DIRECTION ( 'NONE',  ( 1.000000000000000000, 0.000000000000000000, 0.000000000000000000 ) ) ;
#29 = CC_DESIGN_APPROVAL ( #57, ( #139 ) ) ;
#30 = CYLINDRICAL_SURFACE ( 'NONE', #196, 4.110000000000001208 ) ;
#31 = PERSON ( 'UNSPECIFIED', 'UNSPECIFIED', 'UNSPECIFIED', ('UNSPECIFIED'), ('UNSPECIFIED'), ('UNSPECIFIED') ) ;
#32 = CC_DESIGN_PERSON_AND_ORGANIZATION_ASSIGNMENT ( #162, #213, ( #139 ) ) ;
#33 = FACE_OUTER_BOUND ( 'NONE', #3, .T. ) ;
#34 = DIRECTION ( 'NONE',  ( 1.000000000000000000, 0.000000000000000000, 0.000000000000000000 ) ) ;
#35 = APPLICATION_CONTEXT ( 'configuration controlled 3d designs of mechanical parts and assemblies' ) ;
#36 = CYLINDRICAL_SURFACE ( 'NONE', #216, 26.50000000000000355 ) ;
#37 = DESIGN_CONTEXT ( 'detailed design', #117, 'design' ) ;
#38 = DIRECTION ( 'NONE',  ( -0.000000000000000000, -0.000000000000000000, -1.000000000000000000 ) ) ;
#39 = SHAPE_DEFINITION_REPRESENTATION ( #5, #62 ) ;
#40 = COORDINATED_UNIVERSAL_TIME_OFFSET ( 8, 0, .BEHIND. ) ;
#41 = ORIENTED_EDGE ( 'NONE', *, *, #97, .T. ) ;
#42 = ORIENTED_EDGE ( 'NONE', *, *, #172, .F. ) ;
#43 = CIRCLE ( 'NONE', #191, 4.110000000000001208 ) ;
#44 = CIRCLE ( 'NONE', #184, 26.50000000000000355 ) ;
#45 = EDGE_LOOP ( 'NONE', ( #46, #159, #178, #101 ) ) ;
#46 = ORIENTED_EDGE ( 'NONE', *, *, #97, .F. ) ;
#47 = ORIENTED_EDGE ( 'NONE', *, *, #95, .T. ) ;
#48 = SECURITY_CLASSIFICATION ( '', '', #63 ) ;
#49 = DIRECTION ( 'NONE',  ( -1.000000000000000000, 0.000000000000000000, 0.000000000000000000 ) ) ;
#50 = FACE_OUTER_BOUND ( 'NONE', #7, .T. ) ;
#51 = PLANE ( 'NONE',  #141 ) ;
#52 = CC_DESIGN_PERSON_AND_ORGANIZATION_ASSIGNMENT ( #65, #118, ( #48 ) ) ;
#53 = FACE_OUTER_BOUND ( 'NONE', #24, .T. ) ;
#54 = CARTESIAN_POINT ( 'NONE',  ( -26.50000000000000355, 0.000000000000000000, 43.00000000000000000 ) ) ;
#55 = DIRECTION ( 'NONE',  ( 0.000000000000000000, 0.000000000000000000, 1.000000000000000000 ) ) ;
#56 = PERSON_AND_ORGANIZATION_ROLE ( 'design_owner' ) ;
#57 = APPROVAL ( #188, 'UNSPECIFIED' ) ;
#58 = VECTOR ( 'NONE', #107, 1000.000000000000000 ) ;
#59 = CARTESIAN_POINT ( 'NONE',  ( 0.000000000000000000, 0.000000000000000000, 0.000000000000000000 ) ) ;
#60 = DATE_AND_TIME ( #115, #206 ) ;
#61 = EDGE_CURVE ( 'NONE', #142, #248, #244, .T. ) ;
#62 = ADVANCED_BREP_SHAPE_REPRESENTATION ( 'EDM Pulley-Spacer', ( #77, #212 ), #2 ) ;
#63 = SECURITY_CLASSIFICATION_LEVEL ( 'unclassified' ) ;
#64 = PERSON_AND_ORGANIZATION ( #31, #121 ) ;
#65 = PERSON_AND_ORGANIZATION ( #31, #121 ) ;
#66 = APPROVAL_PERSON_ORGANIZATION ( #173, #235, #211 ) ;
#67 = DATE_TIME_ROLE ( 'classification_date' ) ;
#68 = CIRCLE ( 'NONE', #122, 4.110000000000001208 ) ;
#69 = ORIENTED_EDGE ( 'NONE', *, *, #197, .F. ) ;
#70 = DIRECTION ( 'NONE',  ( 0.000000000000000000, 0.000000000000000000, 1.000000000000000000 ) ) ;
#71 = FACE_OUTER_BOUND ( 'NONE', #120, .T. ) ;
#72 = EDGE_LOOP ( 'NONE', ( #1, #69 ) ) ;
#73 = ORIENTED_EDGE ( 'NONE', *, *, #119, .T. ) ;
#74 = CIRCLE ( 'NONE', #16, 4.110000000000001208 ) ;
#75 = DIRECTION ( 'NONE',  ( 1.000000000000000000, 0.000000000000000000, 0.000000000000000000 ) ) ;
#76 = CC_DESIGN_DATE_AND_TIME_ASSIGNMENT ( #231, #67, ( #48 ) ) ;
#77 = MANIFOLD_SOLID_BREP ( 'Boss-Extrude1', #166 ) ;
#78 = FACE_BOUND ( 'NONE', #72, .T. ) ;
#79 = AXIS2_PLACEMENT_3D ( 'NONE', #229, #55, #34 ) ;
#80 = VECTOR ( 'NONE', #144, 1000.000000000000000 ) ;
#81 = DIRECTION ( 'NONE',  ( 1.000000000000000000, 0.000000000000000000, -0.000000000000000000 ) ) ;
#82 = DIRECTION ( 'NONE',  ( -1.000000000000000000, 0.000000000000000000, 0.000000000000000000 ) ) ;
#83 = ORIENTED_EDGE ( 'NONE', *, *, #215, .F. ) ;
#84 = APPROVAL_PERSON_ORGANIZATION ( #86, #185, #20 ) ;
#85 = VERTEX_POINT ( 'NONE', #236 ) ;
#86 = PERSON_AND_ORGANIZATION ( #31, #121 ) ;
#87 = ORIENTED_EDGE ( 'NONE', *, *, #140, .F. ) ;
#88 = CARTESIAN_POINT ( 'NONE',  ( 0.000000000000000000, 0.000000000000000000, 43.00000000000000000 ) ) ;
#89 = LINE ( 'NONE', #147, #133 ) ;
#90 = ADVANCED_FACE ( 'NONE', ( #53, #222 ), #51, .F. ) ;
#91 = EDGE_LOOP ( 'NONE', ( #103, #124 ) ) ;
#92 = CARTESIAN_POINT ( 'NONE',  ( 26.50000000000000355, 3.245314017740486554E-15, 43.00000000000000000 ) ) ;
#93 = CARTESIAN_POINT ( 'NONE',  ( 0.000000000000000000, 0.000000000000000000, 43.00000000000000000 ) ) ;
#94 = DIRECTION ( 'NONE',  ( 1.000000000000000000, 0.000000000000000000, 0.000000000000000000 ) ) ;
#95 = EDGE_CURVE ( 'NONE', #18, #164, #227, .T. ) ;
#96 =( NAMED_UNIT ( * ) PLANE_ANGLE_UNIT ( ) SI_UNIT ( $, .RADIAN. ) );
#97 = EDGE_CURVE ( 'NONE', #164, #142, #224, .T. ) ;
#98 = DATE_AND_TIME ( #17, #8 ) ;
#99 = ORIENTED_EDGE ( 'NONE', *, *, #180, .F. ) ;
#100 = ADVANCED_FACE ( 'NONE', ( #241 ), #30, .F. ) ;
#101 = ORIENTED_EDGE ( 'NONE', *, *, #218, .T. ) ;
#102 = COORDINATED_UNIVERSAL_TIME_OFFSET ( 8, 0, .BEHIND. ) ;
#103 = ORIENTED_EDGE ( 'NONE', *, *, #243, .T. ) ;
#104 = AXIS2_PLACEMENT_3D ( 'NONE', #59, #134, #209 ) ;
#105 = DIRECTION ( 'NONE',  ( 1.000000000000000000, 0.000000000000000000, 0.000000000000000000 ) ) ;
#106 = DIRECTION ( 'NONE',  ( -0.000000000000000000, -0.000000000000000000, -1.000000000000000000 ) ) ;
#107 = DIRECTION ( 'NONE',  ( -0.000000000000000000, -0.000000000000000000, -1.000000000000000000 ) ) ;
#108 = CC_DESIGN_APPROVAL ( #235, ( #127 ) ) ;
#109 = DIRECTION ( 'NONE',  ( 1.000000000000000000, 0.000000000000000000, 0.000000000000000000 ) ) ;
#110 = AXIS2_PLACEMENT_3D ( 'NONE', #148, #151, #109 ) ;
#111 = DIRECTION ( 'NONE',  ( 0.000000000000000000, 0.000000000000000000, 1.000000000000000000 ) ) ;
#112 = CARTESIAN_POINT ( 'NONE',  ( -26.50000000000000355, 0.000000000000000000, 0.000000000000000000 ) ) ;
#113 = CARTESIAN_POINT ( 'NONE',  ( 0.000000000000000000, 0.000000000000000000, 0.000000000000000000 ) ) ;
#114 = CC_DESIGN_PERSON_AND_ORGANIZATION_ASSIGNMENT ( #14, #56, ( #23 ) ) ;
#115 = CALENDAR_DATE ( 2026, 30, 5 ) ;
#116 = MECHANICAL_CONTEXT ( 'NONE', #35, 'mechanical' ) ;
#117 = APPLICATION_CONTEXT ( 'configuration controlled 3d designs of mechanical parts and assemblies' ) ;
#118 = PERSON_AND_ORGANIZATION_ROLE ( 'classification_officer' ) ;
#119 = EDGE_CURVE ( 'NONE', #85, #219, #68, .T. ) ;
#120 = EDGE_LOOP ( 'NONE', ( #99, #41, #163, #42 ) ) ;
#121 = ORGANIZATION ( 'UNSPECIFIED', 'UNSPECIFIED', '' ) ;
#122 = AXIS2_PLACEMENT_3D ( 'NONE', #237, #126, #199 ) ;
#123 = ADVANCED_FACE ( 'NONE', ( #71 ), #186, .T. ) ;
#124 = ORIENTED_EDGE ( 'NONE', *, *, #215, .T. ) ;
#125 = CARTESIAN_POINT ( 'NONE',  ( 26.50000000000000355, 3.245314017740486554E-15, 0.000000000000000000 ) ) ;
#126 = DIRECTION ( 'NONE',  ( 0.000000000000000000, 0.000000000000000000, 1.000000000000000000 ) ) ;
#127 = PRODUCT_DEFINITION ( 'UNKNOWN', '', #139, #37 ) ;
#128 = DIRECTION ( 'NONE',  ( 1.000000000000000000, 0.000000000000000000, -0.000000000000000000 ) ) ;
#129 = DIRECTION ( 'NONE',  ( -0.000000000000000000, -0.000000000000000000, -1.000000000000000000 ) ) ;
#130 = PERSON_AND_ORGANIZATION ( #31, #121 ) ;
#131 = CC_DESIGN_APPROVAL ( #185, ( #48 ) ) ;
#132 = APPROVAL_STATUS ( 'not_yet_approved' ) ;
#133 = VECTOR ( 'NONE', #181, 1000.000000000000000 ) ;
#134 = DIRECTION ( 'NONE',  ( 0.000000000000000000, 0.000000000000000000, 1.000000000000000000 ) ) ;
#135 = DIRECTION ( 'NONE',  ( 0.000000000000000000, 0.000000000000000000, 1.000000000000000000 ) ) ;
#136 = AXIS2_PLACEMENT_3D ( 'NONE', #12, #135, #81 ) ;
#137 = ORIENTED_EDGE ( 'NONE', *, *, #61, .F. ) ;
#138 = APPROVAL_DATE_TIME ( #194, #57 ) ;
#139 = PRODUCT_DEFINITION_FORMATION_WITH_SPECIFIED_SOURCE ( 'ANY', '', #23, .NOT_KNOWN. ) ;
#140 = EDGE_CURVE ( 'NONE', #85, #182, #149, .T. ) ;
#141 = AXIS2_PLACEMENT_3D ( 'NONE', #242, #70, #128 ) ;
#142 = VERTEX_POINT ( 'NONE', #125 ) ;
#143 = ORIENTED_EDGE ( 'NONE', *, *, #27, .F. ) ;
#144 = DIRECTION ( 'NONE',  ( -0.000000000000000000, -0.000000000000000000, -1.000000000000000000 ) ) ;
#145 = LOCAL_TIME ( 15, 49, 0.000000000000000000, #40 ) ;
#146 = ADVANCED_FACE ( 'NONE', ( #33 ), #26, .F. ) ;
#147 = CARTESIAN_POINT ( 'NONE',  ( -26.50000000000000355, 0.000000000000000000, 43.00000000000000000 ) ) ;
#148 = CARTESIAN_POINT ( 'NONE',  ( 0.000000000000000000, 0.000000000000000000, 0.000000000000000000 ) ) ;
#149 = LINE ( 'NONE', #223, #217 ) ;
#150 = CC_DESIGN_PERSON_AND_ORGANIZATION_ASSIGNMENT ( #208, #192, ( #127 ) ) ;
#151 = DIRECTION ( 'NONE',  ( 0.000000000000000000, 0.000000000000000000, 1.000000000000000000 ) ) ;
#152 = APPROVAL_DATE_TIME ( #60, #235 ) ;
#153 = CARTESIAN_POINT ( 'NONE',  ( 0.000000000000000000, 0.000000000000000000, 0.000000000000000000 ) ) ;
#154 = CARTESIAN_POINT ( 'NONE',  ( 0.000000000000000000, 0.000000000000000000, 43.00000000000000000 ) ) ;
#155 = AXIS2_PLACEMENT_3D ( 'NONE', #9, #168, #187 ) ;
#156 = COORDINATED_UNIVERSAL_TIME_OFFSET ( 8, 0, .BEHIND. ) ;
#157 = PRODUCT_RELATED_PRODUCT_CATEGORY ( 'detail', '', ( #23 ) ) ;
#158 = LOCAL_TIME ( 15, 49, 0.000000000000000000, #205 ) ;
#159 = ORIENTED_EDGE ( 'NONE', *, *, #95, .F. ) ;
#160 = CALENDAR_DATE ( 2026, 30, 5 ) ;
#161 = CIRCLE ( 'NONE', #79, 4.110000000000001208 ) ;
#162 = PERSON_AND_ORGANIZATION ( #31, #121 ) ;
#163 = ORIENTED_EDGE ( 'NONE', *, *, #61, .T. ) ;
#164 = VERTEX_POINT ( 'NONE', #203 ) ;
#165 = DIRECTION ( 'NONE',  ( -1.000000000000000000, 0.000000000000000000, 0.000000000000000000 ) ) ;
#166 = CLOSED_SHELL ( 'NONE', ( #100, #123, #210, #90, #247, #146 ) ) ;
#167 = ORIENTED_EDGE ( 'NONE', *, *, #27, .T. ) ;
#168 = DIRECTION ( 'NONE',  ( -0.000000000000000000, -0.000000000000000000, -1.000000000000000000 ) ) ;
#169 = ORIENTED_EDGE ( 'NONE', *, *, #243, .F. ) ;
#170 =( LENGTH_UNIT ( ) NAMED_UNIT ( * ) SI_UNIT ( .MILLI., .METRE. ) );
#171 = FACE_OUTER_BOUND ( 'NONE', #45, .T. ) ;
#172 = EDGE_CURVE ( 'NONE', #18, #248, #89, .T. ) ;
#173 = PERSON_AND_ORGANIZATION ( #31, #121 ) ;
#174 = DIRECTION ( 'NONE',  ( 1.000000000000000000, 0.000000000000000000, 0.000000000000000000 ) ) ;
#175 = DATE_TIME_ROLE ( 'creation_date' ) ;
#176 = VERTEX_POINT ( 'NONE', #221 ) ;
#177 = PERSON_AND_ORGANIZATION_ROLE ( 'creator' ) ;
#178 = ORIENTED_EDGE ( 'NONE', *, *, #172, .T. ) ;
#179 = ORIENTED_EDGE ( 'NONE', *, *, #140, .T. ) ;
#180 = EDGE_CURVE ( 'NONE', #164, #18, #44, .T. ) ;
#181 = DIRECTION ( 'NONE',  ( -0.000000000000000000, -0.000000000000000000, -1.000000000000000000 ) ) ;
#182 = VERTEX_POINT ( 'NONE', #4 ) ;
#183 = CC_DESIGN_SECURITY_CLASSIFICATION ( #48, ( #139 ) ) ;
#184 = AXIS2_PLACEMENT_3D ( 'NONE', #198, #25, #105 ) ;
#185 = APPROVAL ( #230, 'UNSPECIFIED' ) ;
#186 = CYLINDRICAL_SURFACE ( 'NONE', #155, 26.50000000000000355 ) ;
#187 = DIRECTION ( 'NONE',  ( -1.000000000000000000, 0.000000000000000000, 0.000000000000000000 ) ) ;
#188 = APPROVAL_STATUS ( 'not_yet_approved' ) ;
#189 = LOCAL_TIME ( 15, 49, 0.000000000000000000, #102 ) ;
#190 = DIRECTION ( 'NONE',  ( 0.000000000000000000, 0.000000000000000000, 1.000000000000000000 ) ) ;
#191 = AXIS2_PLACEMENT_3D ( 'NONE', #200, #6, #28 ) ;
#192 = PERSON_AND_ORGANIZATION_ROLE ( 'creator' ) ;
#193 = CALENDAR_DATE ( 2026, 30, 5 ) ;
#194 = DATE_AND_TIME ( #160, #158 ) ;
#195 = CIRCLE ( 'NONE', #104, 26.50000000000000355 ) ;
#196 = AXIS2_PLACEMENT_3D ( 'NONE', #88, #10, #49 ) ;
#197 = EDGE_CURVE ( 'NONE', #219, #85, #43, .T. ) ;
#198 = CARTESIAN_POINT ( 'NONE',  ( 0.000000000000000000, 0.000000000000000000, 43.00000000000000000 ) ) ;
#199 = DIRECTION ( 'NONE',  ( 1.000000000000000000, 0.000000000000000000, 0.000000000000000000 ) ) ;
#200 = CARTESIAN_POINT ( 'NONE',  ( 0.000000000000000000, 0.000000000000000000, 43.00000000000000000 ) ) ;
#201 = CC_DESIGN_DATE_AND_TIME_ASSIGNMENT ( #98, #175, ( #127 ) ) ;
#202 = CARTESIAN_POINT ( 'NONE',  ( 0.000000000000000000, 0.000000000000000000, 43.00000000000000000 ) ) ;
#203 = CARTESIAN_POINT ( 'NONE',  ( 26.50000000000000355, 3.245314017740486554E-15, 43.00000000000000000 ) ) ;
#204 = APPLICATION_PROTOCOL_DEFINITION ( 'international standard', 'config_control_design', 1994, #117 ) ;
#205 = COORDINATED_UNIVERSAL_TIME_OFFSET ( 8, 0, .BEHIND. ) ;
#206 = LOCAL_TIME ( 15, 49, 0.000000000000000000, #228 ) ;
#207 = AXIS2_PLACEMENT_3D ( 'NONE', #202, #111, #75 ) ;
#208 = PERSON_AND_ORGANIZATION ( #31, #121 ) ;
#209 = DIRECTION ( 'NONE',  ( 1.000000000000000000, 0.000000000000000000, 0.000000000000000000 ) ) ;
#210 = ADVANCED_FACE ( 'NONE', ( #50, #78 ), #246, .T. ) ;
#211 = APPROVAL_ROLE ( '' ) ;
#212 = AXIS2_PLACEMENT_3D ( 'NONE', #113, #15, #174 ) ;
#213 = PERSON_AND_ORGANIZATION_ROLE ( 'design_supplier' ) ;
#214 = ORIENTED_EDGE ( 'NONE', *, *, #197, .T. ) ;
#215 = EDGE_CURVE ( 'NONE', #176, #182, #74, .T. ) ;
#216 = AXIS2_PLACEMENT_3D ( 'NONE', #154, #38, #82 ) ;
#217 = VECTOR ( 'NONE', #129, 1000.000000000000000 ) ;
#218 = EDGE_CURVE ( 'NONE', #248, #142, #195, .T. ) ;
#219 = VERTEX_POINT ( 'NONE', #245 ) ;
#220 = LINE ( 'NONE', #240, #58 ) ;
#221 = CARTESIAN_POINT ( 'NONE',  ( 4.110000000000001208, 5.033298344495623109E-16, 0.000000000000000000 ) ) ;
#222 = FACE_BOUND ( 'NONE', #91, .T. ) ;
#223 = CARTESIAN_POINT ( 'NONE',  ( -4.110000000000001208, 0.000000000000000000, 43.00000000000000000 ) ) ;
#224 = LINE ( 'NONE', #92, #80 ) ;
#225 = APPLICATION_PROTOCOL_DEFINITION ( 'international standard', 'config_control_design', 1994, #35 ) ;
#226 =( NAMED_UNIT ( * ) SI_UNIT ( $, .STERADIAN. ) SOLID_ANGLE_UNIT ( ) );
#227 = CIRCLE ( 'NONE', #207, 26.50000000000000355 ) ;
#228 = COORDINATED_UNIVERSAL_TIME_OFFSET ( 8, 0, .BEHIND. ) ;
#229 = CARTESIAN_POINT ( 'NONE',  ( 0.000000000000000000, 0.000000000000000000, 0.000000000000000000 ) ) ;
#230 = APPROVAL_STATUS ( 'not_yet_approved' ) ;
#231 = DATE_AND_TIME ( #249, #189 ) ;
#232 = ORIENTED_EDGE ( 'NONE', *, *, #180, .T. ) ;
#233 = DATE_AND_TIME ( #193, #145 ) ;
#234 = ORIENTED_EDGE ( 'NONE', *, *, #218, .F. ) ;
#235 = APPROVAL ( #132, 'UNSPECIFIED' ) ;
#236 = CARTESIAN_POINT ( 'NONE',  ( -4.110000000000001208, 0.000000000000000000, 43.00000000000000000 ) ) ;
#237 = CARTESIAN_POINT ( 'NONE',  ( 0.000000000000000000, 0.000000000000000000, 43.00000000000000000 ) ) ;
#238 = APPROVAL_PERSON_ORGANIZATION ( #130, #57, #11 ) ;
#239 = AXIS2_PLACEMENT_3D ( 'NONE', #93, #106, #165 ) ;
#240 = CARTESIAN_POINT ( 'NONE',  ( 4.110000000000001208, 5.033298344495623109E-16, 43.00000000000000000 ) ) ;
#241 = FACE_OUTER_BOUND ( 'NONE', #21, .T. ) ;
#242 = CARTESIAN_POINT ( 'NONE',  ( 0.000000000000000000, 0.000000000000000000, 0.000000000000000000 ) ) ;
#243 = EDGE_CURVE ( 'NONE', #182, #176, #161, .T. ) ;
#244 = CIRCLE ( 'NONE', #110, 26.50000000000000355 ) ;
#245 = CARTESIAN_POINT ( 'NONE',  ( 4.110000000000001208, 5.033298344495623109E-16, 43.00000000000000000 ) ) ;
#246 = PLANE ( 'NONE',  #136 ) ;
#247 = ADVANCED_FACE ( 'NONE', ( #171 ), #36, .T. ) ;
#248 = VERTEX_POINT ( 'NONE', #112 ) ;
#249 = CALENDAR_DATE ( 2026, 30, 5 ) ;
ENDSEC;
END-ISO-10303-21;
