ISO-10303-21;
HEADER;
FILE_DESCRIPTION (( 'STEP AP203' ),
    '1' );
FILE_NAME ('EDM inner spool.STEP',
    '2026-05-30T22:45:53',
    ( '' ),
    ( '' ),
    'SwSTEP 2.0',
    'SolidWorks 2024',
    '' );
FILE_SCHEMA (( 'CONFIG_CONTROL_DESIGN' ));
ENDSEC;

DATA;
#1 = EDGE_CURVE ( 'NONE', #138, #446, #543, .T. ) ;
#2 = ORIENTED_EDGE ( 'NONE', *, *, #469, .T. ) ;
#3 = MANIFOLD_SOLID_BREP ( 'Cut-Extrude1[1]', #429 ) ;
#4 = ADVANCED_FACE ( 'NONE', ( #383 ), #161, .T. ) ;
#5 = APPROVAL_PERSON_ORGANIZATION ( #495, #204, #192 ) ;
#6 = ORIENTED_EDGE ( 'NONE', *, *, #106, .T. ) ;
#7 = APPLICATION_CONTEXT ( 'configuration controlled 3d designs of mechanical parts and assemblies' ) ;
#8 = CALENDAR_DATE ( 2026, 30, 5 ) ;
#9 = EDGE_LOOP ( 'NONE', ( #15, #85, #141, #203 ) ) ;
#10 = AXIS2_PLACEMENT_3D ( 'NONE', #168, #39, #347 ) ;
#11 = DIRECTION ( 'NONE',  ( -0.000000000000000000, -0.000000000000000000, -1.000000000000000000 ) ) ;
#12 = ORIENTED_EDGE ( 'NONE', *, *, #53, .F. ) ;
#13 = CARTESIAN_POINT ( 'NONE',  ( 0.000000000000000000, 0.000000000000000000, 105.0000000000000000 ) ) ;
#14 = APPROVAL_STATUS ( 'not_yet_approved' ) ;
#15 = ORIENTED_EDGE ( 'NONE', *, *, #179, .F. ) ;
#16 = LOCAL_TIME ( 15, 45, 53.00000000000000000, #137 ) ;
#17 = DIRECTION ( 'NONE',  ( 1.000000000000000000, 0.000000000000000000, -0.000000000000000000 ) ) ;
#18 = CARTESIAN_POINT ( 'NONE',  ( 0.000000000000000000, 0.000000000000000000, 120.0000000000000000 ) ) ;
#19 = PLANE ( 'NONE',  #324 ) ;
#20 = AXIS2_PLACEMENT_3D ( 'NONE', #508, #248, #26 ) ;
#21 = AXIS2_PLACEMENT_3D ( 'NONE', #510, #556, #202 ) ;
#22 = PERSON_AND_ORGANIZATION_ROLE ( 'design_supplier' ) ;
#23 = ORIENTED_EDGE ( 'NONE', *, *, #115, .F. ) ;
#24 = CARTESIAN_POINT ( 'NONE',  ( -16.00000000000000000, 0.000000000000000000, 56.50000000000000000 ) ) ;
#25 = ADVANCED_FACE ( 'NONE', ( #65 ), #554, .T. ) ;
#26 = DIRECTION ( 'NONE',  ( -1.000000000000000000, 0.000000000000000000, 0.000000000000000000 ) ) ;
#27 = ORIENTED_EDGE ( 'NONE', *, *, #238, .F. ) ;
#28 = DIRECTION ( 'NONE',  ( -0.000000000000000000, -0.000000000000000000, -1.000000000000000000 ) ) ;
#29 = VERTEX_POINT ( 'NONE', #104 ) ;
#30 = CARTESIAN_POINT ( 'NONE',  ( -4.275000000000000355, 0.000000000000000000, 48.50000000000000000 ) ) ;
#31 = DIRECTION ( 'NONE',  ( 1.000000000000000000, 0.000000000000000000, 0.000000000000000000 ) ) ;
#32 = AXIS2_PLACEMENT_3D ( 'NONE', #82, #218, #395 ) ;
#33 = EDGE_CURVE ( 'NONE', #257, #530, #191, .T. ) ;
#34 = DIRECTION ( 'NONE',  ( -0.000000000000000000, -0.000000000000000000, -1.000000000000000000 ) ) ;
#35 = CC_DESIGN_PERSON_AND_ORGANIZATION_ASSIGNMENT ( #97, #282, ( #133 ) ) ;
#36 = DIRECTION ( 'NONE',  ( 0.000000000000000000, 0.000000000000000000, -1.000000000000000000 ) ) ;
#37 = PLANE ( 'NONE',  #167 ) ;
#38 = EDGE_LOOP ( 'NONE', ( #355, #407 ) ) ;
#39 = DIRECTION ( 'NONE',  ( 0.000000000000000000, 0.000000000000000000, 1.000000000000000000 ) ) ;
#40 = VECTOR ( 'NONE', #470, 1000.000000000000000 ) ;
#41 = CIRCLE ( 'NONE', #293, 16.00000000000000000 ) ;
#42 = ORIENTED_EDGE ( 'NONE', *, *, #267, .F. ) ;
#43 = DIRECTION ( 'NONE',  ( 1.000000000000000000, 0.000000000000000000, 0.000000000000000000 ) ) ;
#44 = EDGE_LOOP ( 'NONE', ( #60, #136 ) ) ;
#45 = CARTESIAN_POINT ( 'NONE',  ( -4.274999999999999467, 0.000000000000000000, -15.00000000000000000 ) ) ;
#46 = EDGE_LOOP ( 'NONE', ( #504, #381 ) ) ;
#47 = DIRECTION ( 'NONE',  ( 0.000000000000000000, 0.000000000000000000, -1.000000000000000000 ) ) ;
#48 = VERTEX_POINT ( 'NONE', #368 ) ;
#49 = ORIENTED_EDGE ( 'NONE', *, *, #559, .F. ) ;
#50 = AXIS2_PLACEMENT_3D ( 'NONE', #319, #51, #200 ) ;
#51 = DIRECTION ( 'NONE',  ( 0.000000000000000000, 0.000000000000000000, 1.000000000000000000 ) ) ;
#52 = EDGE_LOOP ( 'NONE', ( #80, #354, #519, #499 ) ) ;
#53 = EDGE_CURVE ( 'NONE', #48, #91, #453, .T. ) ;
#54 = COORDINATED_UNIVERSAL_TIME_OFFSET ( 8, 0, .BEHIND. ) ;
#55 = ORIENTED_EDGE ( 'NONE', *, *, #305, .F. ) ;
#56 = AXIS2_PLACEMENT_3D ( 'NONE', #18, #148, #108 ) ;
#57 = CARTESIAN_POINT ( 'NONE',  ( 0.000000000000000000, 0.000000000000000000, 105.0000000000000000 ) ) ;
#58 = DIRECTION ( 'NONE',  ( -0.000000000000000000, -0.000000000000000000, 1.000000000000000000 ) ) ;
#59 = PERSON_AND_ORGANIZATION ( #206, #537 ) ;
#60 = ORIENTED_EDGE ( 'NONE', *, *, #230, .T. ) ;
#61 = FACE_OUTER_BOUND ( 'NONE', #150, .T. ) ;
#62 = CARTESIAN_POINT ( 'NONE',  ( -4.275000000000000355, 0.000000000000000000, 56.50000000000000000 ) ) ;
#63 = COORDINATED_UNIVERSAL_TIME_OFFSET ( 8, 0, .BEHIND. ) ;
#64 = CARTESIAN_POINT ( 'NONE',  ( -4.275000000000000355, 0.000000000000000000, 105.0000000000000000 ) ) ;
#65 = FACE_OUTER_BOUND ( 'NONE', #448, .T. ) ;
#66 = DIRECTION ( 'NONE',  ( 1.000000000000000000, 0.000000000000000000, 0.000000000000000000 ) ) ;
#67 = CIRCLE ( 'NONE', #32, 14.94999999999999929 ) ;
#68 = AXIS2_PLACEMENT_3D ( 'NONE', #114, #296, #162 ) ;
#69 = DIRECTION ( 'NONE',  ( 1.000000000000000000, 0.000000000000000000, -0.000000000000000000 ) ) ;
#70 = ORIENTED_EDGE ( 'NONE', *, *, #106, .F. ) ;
#71 = DIRECTION ( 'NONE',  ( -0.000000000000000000, -0.000000000000000000, -1.000000000000000000 ) ) ;
#72 = DIRECTION ( 'NONE',  ( 1.000000000000000000, 0.000000000000000000, 0.000000000000000000 ) ) ;
#73 = CARTESIAN_POINT ( 'NONE',  ( -16.00000000000000000, 0.000000000000000000, 0.000000000000000000 ) ) ;
#74 = DIRECTION ( 'NONE',  ( 1.000000000000000000, 0.000000000000000000, -0.000000000000000000 ) ) ;
#75 = FACE_OUTER_BOUND ( 'NONE', #509, .T. ) ;
#76 = AXIS2_PLACEMENT_3D ( 'NONE', #13, #440, #486 ) ;
#77 = FACE_BOUND ( 'NONE', #185, .T. ) ;
#78 = AXIS2_PLACEMENT_3D ( 'NONE', #309, #187, #485 ) ;
#79 = DIRECTION ( 'NONE',  ( -1.000000000000000000, 0.000000000000000000, 0.000000000000000000 ) ) ;
#80 = ORIENTED_EDGE ( 'NONE', *, *, #540, .T. ) ;
#81 = ADVANCED_FACE ( 'NONE', ( #101, #457 ), #464, .F. ) ;
#82 = CARTESIAN_POINT ( 'NONE',  ( 0.000000000000000000, 0.000000000000000000, 105.0000000000000000 ) ) ;
#83 = LINE ( 'NONE', #173, #111 ) ;
#84 = CIRCLE ( 'NONE', #323, 4.275000000000000355 ) ;
#85 = ORIENTED_EDGE ( 'NONE', *, *, #130, .T. ) ;
#86 = DIRECTION ( 'NONE',  ( 0.000000000000000000, 0.000000000000000000, 1.000000000000000000 ) ) ;
#87 = CARTESIAN_POINT ( 'NONE',  ( 0.000000000000000000, 0.000000000000000000, -15.00000000000000000 ) ) ;
#88 = ORIENTED_EDGE ( 'NONE', *, *, #502, .F. ) ;
#89 = EDGE_LOOP ( 'NONE', ( #270, #275, #496, #252 ) ) ;
#90 = AXIS2_PLACEMENT_3D ( 'NONE', #468, #151, #254 ) ;
#91 = VERTEX_POINT ( 'NONE', #62 ) ;
#92 = ADVANCED_BREP_SHAPE_REPRESENTATION ( 'EDM inner spool', ( #3, #561, #50 ), #155 ) ;
#93 = APPROVAL_DATE_TIME ( #377, #371 ) ;
#94 = EDGE_LOOP ( 'NONE', ( #494, #23 ) ) ;
#95 = PRODUCT_DEFINITION_SHAPE ( 'NONE', 'NONE',  #306 ) ;
#96 = CYLINDRICAL_SURFACE ( 'NONE', #465, 16.00000000000000000 ) ;
#97 = PERSON_AND_ORGANIZATION ( #206, #537 ) ;
#98 = EDGE_LOOP ( 'NONE', ( #214, #564, #317, #12 ) ) ;
#99 = VECTOR ( 'NONE', #11, 1000.000000000000000 ) ;
#100 = LINE ( 'NONE', #272, #301 ) ;
#101 = FACE_BOUND ( 'NONE', #481, .T. ) ;
#102 = DATE_AND_TIME ( #325, #264 ) ;
#103 = FACE_OUTER_BOUND ( 'NONE', #434, .T. ) ;
#104 = CARTESIAN_POINT ( 'NONE',  ( 14.95000000000000107, 0.000000000000000000, 0.000000000000000000 ) ) ;
#105 = CALENDAR_DATE ( 2026, 30, 5 ) ;
#106 = EDGE_CURVE ( 'NONE', #177, #420, #225, .T. ) ;
#107 = DIRECTION ( 'NONE',  ( -0.000000000000000000, -0.000000000000000000, -1.000000000000000000 ) ) ;
#108 = DIRECTION ( 'NONE',  ( 1.000000000000000000, 0.000000000000000000, 0.000000000000000000 ) ) ;
#109 = EDGE_LOOP ( 'NONE', ( #283, #132, #523, #409 ) ) ;
#110 = FACE_OUTER_BOUND ( 'NONE', #450, .T. ) ;
#111 = VECTOR ( 'NONE', #341, 1000.000000000000000 ) ;
#112 = CIRCLE ( 'NONE', #78, 16.00000000000000000 ) ;
#113 = DIRECTION ( 'NONE',  ( -1.000000000000000000, 0.000000000000000000, 0.000000000000000000 ) ) ;
#114 = CARTESIAN_POINT ( 'NONE',  ( 0.000000000000000000, 0.000000000000000000, 105.0000000000000000 ) ) ;
#115 = EDGE_CURVE ( 'NONE', #154, #529, #437, .T. ) ;
#116 = EDGE_CURVE ( 'NONE', #467, #311, #531, .T. ) ;
#117 = CARTESIAN_POINT ( 'NONE',  ( 0.000000000000000000, 0.000000000000000000, 105.0000000000000000 ) ) ;
#118 = DIRECTION ( 'NONE',  ( 0.000000000000000000, 0.000000000000000000, 1.000000000000000000 ) ) ;
#119 = AXIS2_PLACEMENT_3D ( 'NONE', #415, #331, #72 ) ;
#120 = CARTESIAN_POINT ( 'NONE',  ( 0.000000000000000000, 0.000000000000000000, 105.0000000000000000 ) ) ;
#121 = AXIS2_PLACEMENT_3D ( 'NONE', #375, #47, #353 ) ;
#122 = CC_DESIGN_DATE_AND_TIME_ASSIGNMENT ( #419, #184, ( #306 ) ) ;
#123 = FACE_OUTER_BOUND ( 'NONE', #329, .T. ) ;
#124 = EDGE_CURVE ( 'NONE', #420, #177, #452, .T. ) ;
#125 = CC_DESIGN_SECURITY_CLASSIFICATION ( #253, ( #133 ) ) ;
#126 = CARTESIAN_POINT ( 'NONE',  ( 4.275000000000000355, 5.235365066354935078E-16, 105.0000000000000000 ) ) ;
#127 = VERTEX_POINT ( 'NONE', #291 ) ;
#128 = LINE ( 'NONE', #64, #99 ) ;
#129 = AXIS2_PLACEMENT_3D ( 'NONE', #433, #215, #562 ) ;
#130 = EDGE_CURVE ( 'NONE', #392, #396, #422, .T. ) ;
#131 = FACE_OUTER_BOUND ( 'NONE', #9, .T. ) ;
#132 = ORIENTED_EDGE ( 'NONE', *, *, #350, .T. ) ;
#133 = PRODUCT_DEFINITION_FORMATION_WITH_SPECIFIED_SOURCE ( 'ANY', '', #367, .NOT_KNOWN. ) ;
#134 = EDGE_LOOP ( 'NONE', ( #549, #55, #533, #201 ) ) ;
#135 = CIRCLE ( 'NONE', #399, 16.00000000000000000 ) ;
#136 = ORIENTED_EDGE ( 'NONE', *, *, #267, .T. ) ;
#137 = COORDINATED_UNIVERSAL_TIME_OFFSET ( 8, 0, .BEHIND. ) ;
#138 = VERTEX_POINT ( 'NONE', #334 ) ;
#139 = CARTESIAN_POINT ( 'NONE',  ( -14.94999999999999929, 0.000000000000000000, 120.0000000000000000 ) ) ;
#140 =( LENGTH_UNIT ( ) NAMED_UNIT ( * ) SI_UNIT ( .MILLI., .METRE. ) );
#141 = ORIENTED_EDGE ( 'NONE', *, *, #247, .T. ) ;
#142 = CARTESIAN_POINT ( 'NONE',  ( 4.275000000000000355, 5.235365066354935078E-16, 56.50000000000000000 ) ) ;
#143 = CARTESIAN_POINT ( 'NONE',  ( -4.275000000000000355, 0.000000000000000000, 105.0000000000000000 ) ) ;
#144 = APPROVAL_ROLE ( '' ) ;
#145 = AXIS2_PLACEMENT_3D ( 'NONE', #87, #442, #362 ) ;
#146 = DIRECTION ( 'NONE',  ( 1.000000000000000000, 0.000000000000000000, 0.000000000000000000 ) ) ;
#147 = EDGE_CURVE ( 'NONE', #193, #29, #511, .T. ) ;
#148 = DIRECTION ( 'NONE',  ( 0.000000000000000000, 0.000000000000000000, 1.000000000000000000 ) ) ;
#149 = PERSON_AND_ORGANIZATION ( #206, #537 ) ;
#150 = EDGE_LOOP ( 'NONE', ( #292, #403 ) ) ;
#151 = DIRECTION ( 'NONE',  ( -0.000000000000000000, -0.000000000000000000, -1.000000000000000000 ) ) ;
#152 = DIRECTION ( 'NONE',  ( 1.000000000000000000, 0.000000000000000000, 0.000000000000000000 ) ) ;
#153 = CALENDAR_DATE ( 2026, 30, 5 ) ;
#154 = VERTEX_POINT ( 'NONE', #251 ) ;
#155 =( GEOMETRIC_REPRESENTATION_CONTEXT ( 3 ) GLOBAL_UNCERTAINTY_ASSIGNED_CONTEXT ( ( #178 ) ) GLOBAL_UNIT_ASSIGNED_CONTEXT ( ( #140, #449, #548 ) ) REPRESENTATION_CONTEXT ( 'NONE', 'WORKASPACE' ) );
#156 = CARTESIAN_POINT ( 'NONE',  ( 0.000000000000000000, 0.000000000000000000, 105.0000000000000000 ) ) ;
#157 = DIRECTION ( 'NONE',  ( 0.000000000000000000, 0.000000000000000000, 1.000000000000000000 ) ) ;
#158 = EDGE_CURVE ( 'NONE', #364, #467, #171, .T. ) ;
#159 = CYLINDRICAL_SURFACE ( 'NONE', #438, 14.94999999999999929 ) ;
#160 = AXIS2_PLACEMENT_3D ( 'NONE', #268, #520, #525 ) ;
#161 = CYLINDRICAL_SURFACE ( 'NONE', #444, 14.94999999999999929 ) ;
#162 = DIRECTION ( 'NONE',  ( -1.000000000000000000, 0.000000000000000000, 0.000000000000000000 ) ) ;
#163 = DIRECTION ( 'NONE',  ( -1.000000000000000000, 0.000000000000000000, 0.000000000000000000 ) ) ;
#164 = CARTESIAN_POINT ( 'NONE',  ( 0.000000000000000000, 0.000000000000000000, 105.0000000000000000 ) ) ;
#165 = CARTESIAN_POINT ( 'NONE',  ( 14.95000000000000107, 0.000000000000000000, -15.00000000000000000 ) ) ;
#166 = EDGE_CURVE ( 'NONE', #257, #361, #217, .T. ) ;
#167 = AXIS2_PLACEMENT_3D ( 'NONE', #389, #261, #74 ) ;
#168 = CARTESIAN_POINT ( 'NONE',  ( 0.000000000000000000, 0.000000000000000000, 56.50000000000000000 ) ) ;
#169 = AXIS2_PLACEMENT_3D ( 'NONE', #117, #512, #550 ) ;
#170 = ADVANCED_FACE ( 'NONE', ( #439 ), #307, .T. ) ;
#171 = LINE ( 'NONE', #515, #260 ) ;
#172 = ORIENTED_EDGE ( 'NONE', *, *, #166, .T. ) ;
#173 = CARTESIAN_POINT ( 'NONE',  ( 16.00000000000000000, 1.959434878635765131E-15, 105.0000000000000000 ) ) ;
#174 = ADVANCED_FACE ( 'NONE', ( #123 ), #431, .T. ) ;
#175 = FACE_BOUND ( 'NONE', #46, .T. ) ;
#176 = EDGE_LOOP ( 'NONE', ( #172, #357 ) ) ;
#177 = VERTEX_POINT ( 'NONE', #304 ) ;
#178 = UNCERTAINTY_MEASURE_WITH_UNIT (LENGTH_MEASURE( 1.000000000000000082E-05 ), #140, 'distance_accuracy_value', 'NONE');
#179 = EDGE_CURVE ( 'NONE', #392, #193, #274, .T. ) ;
#180 = APPROVAL_PERSON_ORGANIZATION ( #188, #371, #144 ) ;
#181 = EDGE_LOOP ( 'NONE', ( #229, #374 ) ) ;
#182 = EDGE_CURVE ( 'NONE', #426, #154, #83, .T. ) ;
#183 = AXIS2_PLACEMENT_3D ( 'NONE', #299, #36, #391 ) ;
#184 = DATE_TIME_ROLE ( 'creation_date' ) ;
#185 = EDGE_LOOP ( 'NONE', ( #300, #249 ) ) ;
#186 = AXIS2_PLACEMENT_3D ( 'NONE', #290, #463, #66 ) ;
#187 = DIRECTION ( 'NONE',  ( 0.000000000000000000, 0.000000000000000000, 1.000000000000000000 ) ) ;
#188 = PERSON_AND_ORGANIZATION ( #206, #537 ) ;
#189 = ORIENTED_EDGE ( 'NONE', *, *, #524, .T. ) ;
#190 = DIRECTION ( 'NONE',  ( -1.000000000000000000, 0.000000000000000000, 0.000000000000000000 ) ) ;
#191 = LINE ( 'NONE', #236, #492 ) ;
#192 = APPROVAL_ROLE ( '' ) ;
#193 = VERTEX_POINT ( 'NONE', #165 ) ;
#194 = DIRECTION ( 'NONE',  ( 0.000000000000000000, 0.000000000000000000, 1.000000000000000000 ) ) ;
#195 = DIRECTION ( 'NONE',  ( -0.000000000000000000, -0.000000000000000000, -1.000000000000000000 ) ) ;
#196 = CLOSED_SHELL ( 'NONE', ( #365, #405, #174, #81, #170, #25, #385, #566, #376 ) ) ;
#197 = AXIS2_PLACEMENT_3D ( 'NONE', #164, #34, #246 ) ;
#198 = DIRECTION ( 'NONE',  ( -0.000000000000000000, -0.000000000000000000, -1.000000000000000000 ) ) ;
#199 = DIRECTION ( 'NONE',  ( 0.000000000000000000, 0.000000000000000000, 1.000000000000000000 ) ) ;
#200 = DIRECTION ( 'NONE',  ( 1.000000000000000000, 0.000000000000000000, 0.000000000000000000 ) ) ;
#201 = ORIENTED_EDGE ( 'NONE', *, *, #441, .T. ) ;
#202 = DIRECTION ( 'NONE',  ( 1.000000000000000000, 0.000000000000000000, 0.000000000000000000 ) ) ;
#203 = ORIENTED_EDGE ( 'NONE', *, *, #147, .F. ) ;
#204 = APPROVAL ( #14, 'UNSPECIFIED' ) ;
#205 = DIRECTION ( 'NONE',  ( 0.000000000000000000, 0.000000000000000000, 1.000000000000000000 ) ) ;
#206 = PERSON ( 'UNSPECIFIED', 'UNSPECIFIED', 'UNSPECIFIED', ('UNSPECIFIED'), ('UNSPECIFIED'), ('UNSPECIFIED') ) ;
#207 = ADVANCED_FACE ( 'NONE', ( #473, #255 ), #343, .F. ) ;
#208 = DIRECTION ( 'NONE',  ( 0.000000000000000000, 0.000000000000000000, 1.000000000000000000 ) ) ;
#209 = CYLINDRICAL_SURFACE ( 'NONE', #197, 4.275000000000000355 ) ;
#210 = CIRCLE ( 'NONE', #183, 14.95000000000000107 ) ;
#211 = DIRECTION ( 'NONE',  ( 1.000000000000000000, 0.000000000000000000, -0.000000000000000000 ) ) ;
#212 = CC_DESIGN_PERSON_AND_ORGANIZATION_ASSIGNMENT ( #506, #412, ( #253 ) ) ;
#213 = CARTESIAN_POINT ( 'NONE',  ( 0.000000000000000000, 0.000000000000000000, 0.000000000000000000 ) ) ;
#214 = ORIENTED_EDGE ( 'NONE', *, *, #228, .T. ) ;
#215 = DIRECTION ( 'NONE',  ( 0.000000000000000000, 0.000000000000000000, 1.000000000000000000 ) ) ;
#216 = ORIENTED_EDGE ( 'NONE', *, *, #182, .T. ) ;
#217 = CIRCLE ( 'NONE', #266, 16.00000000000000000 ) ;
#218 = DIRECTION ( 'NONE',  ( 0.000000000000000000, 0.000000000000000000, 1.000000000000000000 ) ) ;
#219 = CIRCLE ( 'NONE', #186, 4.275000000000000355 ) ;
#220 = ORIENTED_EDGE ( 'NONE', *, *, #425, .F. ) ;
#221 = ADVANCED_FACE ( 'NONE', ( #77, #303 ), #37, .T. ) ;
#222 = EDGE_LOOP ( 'NONE', ( #443, #332 ) ) ;
#223 = CARTESIAN_POINT ( 'NONE',  ( 4.275000000000000355, 5.235365066354935078E-16, 48.50000000000000000 ) ) ;
#224 = FACE_OUTER_BOUND ( 'NONE', #52, .T. ) ;
#225 = CIRCLE ( 'NONE', #563, 14.94999999999999929 ) ;
#226 = VECTOR ( 'NONE', #71, 1000.000000000000000 ) ;
#227 = EDGE_LOOP ( 'NONE', ( #344, #70, #273, #234 ) ) ;
#228 = EDGE_CURVE ( 'NONE', #48, #127, #372, .T. ) ;
#229 = ORIENTED_EDGE ( 'NONE', *, *, #305, .T. ) ;
#230 = EDGE_CURVE ( 'NONE', #91, #413, #84, .T. ) ;
#231 = CC_DESIGN_APPROVAL ( #371, ( #306 ) ) ;
#232 = APPLICATION_PROTOCOL_DEFINITION ( 'international standard', 'config_control_design', 1994, #521 ) ;
#233 = ORIENTED_EDGE ( 'NONE', *, *, #33, .F. ) ;
#234 = ORIENTED_EDGE ( 'NONE', *, *, #276, .T. ) ;
#235 = DIRECTION ( 'NONE',  ( -0.000000000000000000, -0.000000000000000000, -1.000000000000000000 ) ) ;
#236 = CARTESIAN_POINT ( 'NONE',  ( -16.00000000000000000, 0.000000000000000000, 105.0000000000000000 ) ) ;
#237 = SECURITY_CLASSIFICATION_LEVEL ( 'unclassified' ) ;
#238 = EDGE_CURVE ( 'NONE', #29, #396, #210, .T. ) ;
#239 = ORIENTED_EDGE ( 'NONE', *, *, #327, .F. ) ;
#240 = CC_DESIGN_PERSON_AND_ORGANIZATION_ASSIGNMENT ( #498, #544, ( #367 ) ) ;
#241 = FACE_BOUND ( 'NONE', #38, .T. ) ;
#242 = APPROVAL_STATUS ( 'not_yet_approved' ) ;
#243 = DIRECTION ( 'NONE',  ( 1.000000000000000000, 0.000000000000000000, 0.000000000000000000 ) ) ;
#244 = CARTESIAN_POINT ( 'NONE',  ( 0.000000000000000000, 0.000000000000000000, 120.0000000000000000 ) ) ;
#245 = CALENDAR_DATE ( 2026, 30, 5 ) ;
#246 = DIRECTION ( 'NONE',  ( -1.000000000000000000, 0.000000000000000000, 0.000000000000000000 ) ) ;
#247 = EDGE_CURVE ( 'NONE', #396, #29, #384, .T. ) ;
#248 = DIRECTION ( 'NONE',  ( 0.000000000000000000, 0.000000000000000000, -1.000000000000000000 ) ) ;
#249 = ORIENTED_EDGE ( 'NONE', *, *, #1, .F. ) ;
#250 = DIRECTION ( 'NONE',  ( 0.000000000000000000, 0.000000000000000000, 1.000000000000000000 ) ) ;
#251 = CARTESIAN_POINT ( 'NONE',  ( 16.00000000000000000, 1.959434878635765131E-15, 56.50000000000000000 ) ) ;
#252 = ORIENTED_EDGE ( 'NONE', *, *, #262, .T. ) ;
#253 = SECURITY_CLASSIFICATION ( '', '', #237 ) ;
#254 = DIRECTION ( 'NONE',  ( -1.000000000000000000, 0.000000000000000000, 0.000000000000000000 ) ) ;
#255 = FACE_OUTER_BOUND ( 'NONE', #94, .T. ) ;
#256 = SHAPE_DEFINITION_REPRESENTATION ( #95, #92 ) ;
#257 = VERTEX_POINT ( 'NONE', #263 ) ;
#258 = CARTESIAN_POINT ( 'NONE',  ( 16.00000000000000000, 1.959434878635765131E-15, 0.000000000000000000 ) ) ;
#259 = AXIS2_PLACEMENT_3D ( 'NONE', #428, #118, #31 ) ;
#260 = VECTOR ( 'NONE', #482, 1000.000000000000000 ) ;
#261 = DIRECTION ( 'NONE',  ( 0.000000000000000000, 0.000000000000000000, 1.000000000000000000 ) ) ;
#262 = EDGE_CURVE ( 'NONE', #530, #568, #313, .T. ) ;
#263 = CARTESIAN_POINT ( 'NONE',  ( -16.00000000000000000, 0.000000000000000000, 48.50000000000000000 ) ) ;
#264 = LOCAL_TIME ( 15, 45, 53.00000000000000000, #369 ) ;
#265 = ORIENTED_EDGE ( 'NONE', *, *, #158, .F. ) ;
#266 = AXIS2_PLACEMENT_3D ( 'NONE', #475, #565, #43 ) ;
#267 = EDGE_CURVE ( 'NONE', #413, #91, #526, .T. ) ;
#268 = CARTESIAN_POINT ( 'NONE',  ( 0.000000000000000000, 0.000000000000000000, 56.50000000000000000 ) ) ;
#269 = CC_DESIGN_DATE_AND_TIME_ASSIGNMENT ( #287, #316, ( #253 ) ) ;
#270 = ORIENTED_EDGE ( 'NONE', *, *, #469, .F. ) ;
#271 = PLANE ( 'NONE',  #121 ) ;
#272 = CARTESIAN_POINT ( 'NONE',  ( 14.94999999999999929, 1.830846964725293305E-15, 120.0000000000000000 ) ) ;
#273 = ORIENTED_EDGE ( 'NONE', *, *, #408, .T. ) ;
#274 = CIRCLE ( 'NONE', #417, 14.95000000000000107 ) ;
#275 = ORIENTED_EDGE ( 'NONE', *, *, #166, .F. ) ;
#276 = EDGE_CURVE ( 'NONE', #446, #138, #67, .T. ) ;
#277 = MECHANICAL_CONTEXT ( 'NONE', #521, 'mechanical' ) ;
#278 = EDGE_LOOP ( 'NONE', ( #455, #88 ) ) ;
#279 = VERTEX_POINT ( 'NONE', #349 ) ;
#280 = CARTESIAN_POINT ( 'NONE',  ( 14.94999999999999929, 1.830846964725293305E-15, 120.0000000000000000 ) ) ;
#281 = VECTOR ( 'NONE', #503, 1000.000000000000000 ) ;
#282 = PERSON_AND_ORGANIZATION_ROLE ( 'creator' ) ;
#283 = ORIENTED_EDGE ( 'NONE', *, *, #124, .F. ) ;
#284 = DIRECTION ( 'NONE',  ( -1.000000000000000000, 0.000000000000000000, 0.000000000000000000 ) ) ;
#285 = APPROVAL_DATE_TIME ( #102, #204 ) ;
#286 = CARTESIAN_POINT ( 'NONE',  ( 0.000000000000000000, 0.000000000000000000, 48.50000000000000000 ) ) ;
#287 = DATE_AND_TIME ( #105, #16 ) ;
#288 = ORIENTED_EDGE ( 'NONE', *, *, #502, .T. ) ;
#289 = EDGE_CURVE ( 'NONE', #127, #413, #522, .T. ) ;
#290 = CARTESIAN_POINT ( 'NONE',  ( 0.000000000000000000, 0.000000000000000000, 48.50000000000000000 ) ) ;
#291 = CARTESIAN_POINT ( 'NONE',  ( 4.275000000000000355, 5.235365066354935078E-16, 120.0000000000000000 ) ) ;
#292 = ORIENTED_EDGE ( 'NONE', *, *, #425, .T. ) ;
#293 = AXIS2_PLACEMENT_3D ( 'NONE', #500, #194, #146 ) ;
#294 = CYLINDRICAL_SURFACE ( 'NONE', #169, 4.275000000000000355 ) ;
#295 = CARTESIAN_POINT ( 'NONE',  ( 14.95000000000000107, 0.000000000000000000, -15.00000000000000000 ) ) ;
#296 = DIRECTION ( 'NONE',  ( -0.000000000000000000, -0.000000000000000000, -1.000000000000000000 ) ) ;
#297 = DIRECTION ( 'NONE',  ( -1.000000000000000000, 0.000000000000000000, 0.000000000000000000 ) ) ;
#298 = DIRECTION ( 'NONE',  ( 1.000000000000000000, 0.000000000000000000, 0.000000000000000000 ) ) ;
#299 = CARTESIAN_POINT ( 'NONE',  ( 0.000000000000000000, 0.000000000000000000, 0.000000000000000000 ) ) ;
#300 = ORIENTED_EDGE ( 'NONE', *, *, #276, .F. ) ;
#301 = VECTOR ( 'NONE', #538, 1000.000000000000000 ) ;
#302 = CIRCLE ( 'NONE', #418, 16.00000000000000000 ) ;
#303 = FACE_OUTER_BOUND ( 'NONE', #181, .T. ) ;
#304 = CARTESIAN_POINT ( 'NONE',  ( -14.94999999999999929, 0.000000000000000000, 120.0000000000000000 ) ) ;
#305 = EDGE_CURVE ( 'NONE', #279, #426, #335, .T. ) ;
#306 = PRODUCT_DEFINITION ( 'UNKNOWN', '', #133, #489 ) ;
#307 = CYLINDRICAL_SURFACE ( 'NONE', #501, 16.00000000000000000 ) ;
#308 = ORIENTED_EDGE ( 'NONE', *, *, #339, .T. ) ;
#309 = CARTESIAN_POINT ( 'NONE',  ( 0.000000000000000000, 0.000000000000000000, 0.000000000000000000 ) ) ;
#310 = CYLINDRICAL_SURFACE ( 'NONE', #145, 14.95000000000000107 ) ;
#311 = VERTEX_POINT ( 'NONE', #45 ) ;
#312 = ORIENTED_EDGE ( 'NONE', *, *, #147, .T. ) ;
#313 = CIRCLE ( 'NONE', #129, 16.00000000000000000 ) ;
#314 = CIRCLE ( 'NONE', #518, 4.275000000000000355 ) ;
#315 = ORIENTED_EDGE ( 'NONE', *, *, #247, .F. ) ;
#316 = DATE_TIME_ROLE ( 'classification_date' ) ;
#317 = ORIENTED_EDGE ( 'NONE', *, *, #230, .F. ) ;
#318 = DIRECTION ( 'NONE',  ( -0.000000000000000000, -0.000000000000000000, -1.000000000000000000 ) ) ;
#319 = CARTESIAN_POINT ( 'NONE',  ( 0.000000000000000000, 0.000000000000000000, 0.000000000000000000 ) ) ;
#320 = ORIENTED_EDGE ( 'NONE', *, *, #360, .T. ) ;
#321 = DIRECTION ( 'NONE',  ( -1.000000000000000000, 0.000000000000000000, 0.000000000000000000 ) ) ;
#322 = DIRECTION ( 'NONE',  ( -0.000000000000000000, -0.000000000000000000, -1.000000000000000000 ) ) ;
#323 = AXIS2_PLACEMENT_3D ( 'NONE', #480, #435, #387 ) ;
#324 = AXIS2_PLACEMENT_3D ( 'NONE', #402, #86, #17 ) ;
#325 = CALENDAR_DATE ( 2026, 30, 5 ) ;
#326 = FACE_BOUND ( 'NONE', #278, .T. ) ;
#327 = EDGE_CURVE ( 'NONE', #361, #257, #135, .T. ) ;
#328 = PERSON_AND_ORGANIZATION ( #206, #537 ) ;
#329 = EDGE_LOOP ( 'NONE', ( #239, #2, #320, #233 ) ) ;
#330 = DIRECTION ( 'NONE',  ( 0.000000000000000000, 0.000000000000000000, -1.000000000000000000 ) ) ;
#331 = DIRECTION ( 'NONE',  ( 0.000000000000000000, 0.000000000000000000, 1.000000000000000000 ) ) ;
#332 = ORIENTED_EDGE ( 'NONE', *, *, #360, .F. ) ;
#333 = DIRECTION ( 'NONE',  ( -1.000000000000000000, 0.000000000000000000, 0.000000000000000000 ) ) ;
#334 = CARTESIAN_POINT ( 'NONE',  ( 14.94999999999999929, 1.830846964725293305E-15, 105.0000000000000000 ) ) ;
#335 = CIRCLE ( 'NONE', #76, 16.00000000000000000 ) ;
#336 = LINE ( 'NONE', #471, #226 ) ;
#337 = DIRECTION ( 'NONE',  ( 1.000000000000000000, 0.000000000000000000, 0.000000000000000000 ) ) ;
#338 = CYLINDRICAL_SURFACE ( 'NONE', #90, 16.00000000000000000 ) ;
#339 = EDGE_CURVE ( 'NONE', #477, #311, #128, .T. ) ;
#340 = ADVANCED_FACE ( 'NONE', ( #460 ), #96, .T. ) ;
#341 = DIRECTION ( 'NONE',  ( -0.000000000000000000, -0.000000000000000000, -1.000000000000000000 ) ) ;
#342 = APPROVAL_PERSON_ORGANIZATION ( #328, #491, #454 ) ;
#343 = PLANE ( 'NONE',  #160 ) ;
#344 = ORIENTED_EDGE ( 'NONE', *, *, #350, .F. ) ;
#345 = VECTOR ( 'NONE', #551, 1000.000000000000000 ) ;
#346 = CIRCLE ( 'NONE', #373, 14.95000000000000107 ) ;
#347 = DIRECTION ( 'NONE',  ( 1.000000000000000000, 0.000000000000000000, 0.000000000000000000 ) ) ;
#348 = ORIENTED_EDGE ( 'NONE', *, *, #238, .T. ) ;
#349 = CARTESIAN_POINT ( 'NONE',  ( -16.00000000000000000, 0.000000000000000000, 105.0000000000000000 ) ) ;
#350 = EDGE_CURVE ( 'NONE', #420, #138, #100, .T. ) ;
#351 = CC_DESIGN_APPROVAL ( #491, ( #133 ) ) ;
#352 = DIRECTION ( 'NONE',  ( -1.000000000000000000, 0.000000000000000000, 0.000000000000000000 ) ) ;
#353 = DIRECTION ( 'NONE',  ( -1.000000000000000000, 0.000000000000000000, -0.000000000000000000 ) ) ;
#354 = ORIENTED_EDGE ( 'NONE', *, *, #158, .T. ) ;
#355 = ORIENTED_EDGE ( 'NONE', *, *, #484, .F. ) ;
#356 = LOCAL_TIME ( 15, 45, 53.00000000000000000, #63 ) ;
#357 = ORIENTED_EDGE ( 'NONE', *, *, #327, .T. ) ;
#358 = AXIS2_PLACEMENT_3D ( 'NONE', #213, #560, #79 ) ;
#359 = AXIS2_PLACEMENT_3D ( 'NONE', #410, #456, #190 ) ;
#360 = EDGE_CURVE ( 'NONE', #568, #530, #112, .T. ) ;
#361 = VERTEX_POINT ( 'NONE', #416 ) ;
#362 = DIRECTION ( 'NONE',  ( 1.000000000000000000, 0.000000000000000000, 0.000000000000000000 ) ) ;
#363 = APPROVAL_STATUS ( 'not_yet_approved' ) ;
#364 = VERTEX_POINT ( 'NONE', #223 ) ;
#365 = ADVANCED_FACE ( 'NONE', ( #224 ), #398, .F. ) ;
#366 = CARTESIAN_POINT ( 'NONE',  ( 16.00000000000000000, 1.959434878635765131E-15, 105.0000000000000000 ) ) ;
#367 = PRODUCT ( 'EDM inner spool', 'EDM inner spool', '', ( #277 ) ) ;
#368 = CARTESIAN_POINT ( 'NONE',  ( -4.275000000000000355, 0.000000000000000000, 120.0000000000000000 ) ) ;
#369 = COORDINATED_UNIVERSAL_TIME_OFFSET ( 8, 0, .BEHIND. ) ;
#370 = CARTESIAN_POINT ( 'NONE',  ( -14.94999999999999929, 0.000000000000000000, 105.0000000000000000 ) ) ;
#371 = APPROVAL ( #242, 'UNSPECIFIED' ) ;
#372 = CIRCLE ( 'NONE', #259, 4.275000000000000355 ) ;
#373 = AXIS2_PLACEMENT_3D ( 'NONE', #497, #451, #284 ) ;
#374 = ORIENTED_EDGE ( 'NONE', *, *, #559, .T. ) ;
#375 = CARTESIAN_POINT ( 'NONE',  ( 0.000000000000000000, 0.000000000000000000, -15.00000000000000000 ) ) ;
#376 = ADVANCED_FACE ( 'NONE', ( #175, #542 ), #19, .T. ) ;
#377 = DATE_AND_TIME ( #245, #356 ) ;
#378 = CARTESIAN_POINT ( 'NONE',  ( 4.274999999999999467, 5.235365066354935078E-16, -15.00000000000000000 ) ) ;
#379 = LOCAL_TIME ( 15, 45, 53.00000000000000000, #54 ) ;
#380 = CARTESIAN_POINT ( 'NONE',  ( -14.95000000000000107, 1.830846964725293305E-15, -15.00000000000000000 ) ) ;
#381 = ORIENTED_EDGE ( 'NONE', *, *, #524, .F. ) ;
#382 = FACE_OUTER_BOUND ( 'NONE', #98, .T. ) ;
#383 = FACE_OUTER_BOUND ( 'NONE', #227, .T. ) ;
#384 = CIRCLE ( 'NONE', #358, 14.95000000000000107 ) ;
#385 = ADVANCED_FACE ( 'NONE', ( #61, #241 ), #271, .T. ) ;
#386 = CARTESIAN_POINT ( 'NONE',  ( 0.000000000000000000, 0.000000000000000000, -15.00000000000000000 ) ) ;
#387 = DIRECTION ( 'NONE',  ( 1.000000000000000000, 0.000000000000000000, 0.000000000000000000 ) ) ;
#388 = LINE ( 'NONE', #558, #445 ) ;
#389 = CARTESIAN_POINT ( 'NONE',  ( 0.000000000000000000, 0.000000000000000000, 105.0000000000000000 ) ) ;
#390 = ORIENTED_EDGE ( 'NONE', *, *, #130, .F. ) ;
#391 = DIRECTION ( 'NONE',  ( -1.000000000000000000, 0.000000000000000000, 0.000000000000000000 ) ) ;
#392 = VERTEX_POINT ( 'NONE', #527 ) ;
#393 = VECTOR ( 'NONE', #198, 1000.000000000000000 ) ;
#394 = AXIS2_PLACEMENT_3D ( 'NONE', #386, #330, #333 ) ;
#395 = DIRECTION ( 'NONE',  ( 1.000000000000000000, 0.000000000000000000, 0.000000000000000000 ) ) ;
#396 = VERTEX_POINT ( 'NONE', #414 ) ;
#397 = DIRECTION ( 'NONE',  ( -0.000000000000000000, -0.000000000000000000, -1.000000000000000000 ) ) ;
#398 = CYLINDRICAL_SURFACE ( 'NONE', #359, 4.275000000000000355 ) ;
#399 = AXIS2_PLACEMENT_3D ( 'NONE', #286, #570, #243 ) ;
#400 = CC_DESIGN_PERSON_AND_ORGANIZATION_ASSIGNMENT ( #59, #22, ( #133 ) ) ;
#401 = VECTOR ( 'NONE', #318, 1000.000000000000000 ) ;
#402 = CARTESIAN_POINT ( 'NONE',  ( 0.000000000000000000, 0.000000000000000000, 48.50000000000000000 ) ) ;
#403 = ORIENTED_EDGE ( 'NONE', *, *, #179, .T. ) ;
#404 = ORIENTED_EDGE ( 'NONE', *, *, #539, .F. ) ;
#405 = ADVANCED_FACE ( 'NONE', ( #131 ), #310, .T. ) ;
#406 = APPLICATION_PROTOCOL_DEFINITION ( 'international standard', 'config_control_design', 1994, #7 ) ;
#407 = ORIENTED_EDGE ( 'NONE', *, *, #116, .F. ) ;
#408 = EDGE_CURVE ( 'NONE', #177, #446, #534, .T. ) ;
#409 = ORIENTED_EDGE ( 'NONE', *, *, #408, .F. ) ;
#410 = CARTESIAN_POINT ( 'NONE',  ( 0.000000000000000000, 0.000000000000000000, 105.0000000000000000 ) ) ;
#411 = CARTESIAN_POINT ( 'NONE',  ( 0.000000000000000000, 0.000000000000000000, -15.00000000000000000 ) ) ;
#412 = PERSON_AND_ORGANIZATION_ROLE ( 'classification_officer' ) ;
#413 = VERTEX_POINT ( 'NONE', #142 ) ;
#414 = CARTESIAN_POINT ( 'NONE',  ( -14.95000000000000107, 1.830846964725293305E-15, 0.000000000000000000 ) ) ;
#415 = CARTESIAN_POINT ( 'NONE',  ( 0.000000000000000000, 0.000000000000000000, 56.50000000000000000 ) ) ;
#416 = CARTESIAN_POINT ( 'NONE',  ( 16.00000000000000000, 1.959434878635765131E-15, 48.50000000000000000 ) ) ;
#417 = AXIS2_PLACEMENT_3D ( 'NONE', #514, #569, #163 ) ;
#418 = AXIS2_PLACEMENT_3D ( 'NONE', #156, #250, #298 ) ;
#419 = DATE_AND_TIME ( #153, #379 ) ;
#420 = VERTEX_POINT ( 'NONE', #280 ) ;
#421 = DIRECTION ( 'NONE',  ( 1.000000000000000000, 0.000000000000000000, 0.000000000000000000 ) ) ;
#422 = LINE ( 'NONE', #380, #345 ) ;
#423 = CYLINDRICAL_SURFACE ( 'NONE', #68, 4.275000000000000355 ) ;
#424 = LOCAL_TIME ( 15, 45, 53.00000000000000000, #447 ) ;
#425 = EDGE_CURVE ( 'NONE', #193, #392, #346, .T. ) ;
#426 = VERTEX_POINT ( 'NONE', #366 ) ;
#427 = DIRECTION ( 'NONE',  ( 0.000000000000000000, 0.000000000000000000, 1.000000000000000000 ) ) ;
#428 = CARTESIAN_POINT ( 'NONE',  ( 0.000000000000000000, 0.000000000000000000, 120.0000000000000000 ) ) ;
#429 = CLOSED_SHELL ( 'NONE', ( #516, #479, #472, #221, #340, #547, #459, #4, #207 ) ) ;
#430 = CARTESIAN_POINT ( 'NONE',  ( 0.000000000000000000, 0.000000000000000000, 120.0000000000000000 ) ) ;
#431 = CYLINDRICAL_SURFACE ( 'NONE', #483, 16.00000000000000000 ) ;
#432 = CC_DESIGN_PERSON_AND_ORGANIZATION_ASSIGNMENT ( #149, #458, ( #306 ) ) ;
#433 = CARTESIAN_POINT ( 'NONE',  ( 0.000000000000000000, 0.000000000000000000, 0.000000000000000000 ) ) ;
#434 = EDGE_LOOP ( 'NONE', ( #6, #528 ) ) ;
#435 = DIRECTION ( 'NONE',  ( 0.000000000000000000, 0.000000000000000000, 1.000000000000000000 ) ) ;
#436 = ORIENTED_EDGE ( 'NONE', *, *, #289, .F. ) ;
#437 = CIRCLE ( 'NONE', #119, 16.00000000000000000 ) ;
#438 = AXIS2_PLACEMENT_3D ( 'NONE', #507, #107, #474 ) ;
#439 = FACE_OUTER_BOUND ( 'NONE', #89, .T. ) ;
#440 = DIRECTION ( 'NONE',  ( 0.000000000000000000, 0.000000000000000000, 1.000000000000000000 ) ) ;
#441 = EDGE_CURVE ( 'NONE', #529, #154, #41, .T. ) ;
#442 = DIRECTION ( 'NONE',  ( -0.000000000000000000, -0.000000000000000000, 1.000000000000000000 ) ) ;
#443 = ORIENTED_EDGE ( 'NONE', *, *, #262, .F. ) ;
#444 = AXIS2_PLACEMENT_3D ( 'NONE', #541, #322, #113 ) ;
#445 = VECTOR ( 'NONE', #28, 1000.000000000000000 ) ;
#446 = VERTEX_POINT ( 'NONE', #370 ) ;
#447 = COORDINATED_UNIVERSAL_TIME_OFFSET ( 8, 0, .BEHIND. ) ;
#448 = EDGE_LOOP ( 'NONE', ( #390, #220, #312, #348 ) ) ;
#449 =( NAMED_UNIT ( * ) PLANE_ANGLE_UNIT ( ) SI_UNIT ( $, .RADIAN. ) );
#450 = EDGE_LOOP ( 'NONE', ( #436, #288, #545, #42 ) ) ;
#451 = DIRECTION ( 'NONE',  ( 0.000000000000000000, 0.000000000000000000, -1.000000000000000000 ) ) ;
#452 = CIRCLE ( 'NONE', #56, 14.94999999999999929 ) ;
#453 = LINE ( 'NONE', #143, #281 ) ;
#454 = APPROVAL_ROLE ( '' ) ;
#455 = ORIENTED_EDGE ( 'NONE', *, *, #228, .F. ) ;
#456 = DIRECTION ( 'NONE',  ( -0.000000000000000000, -0.000000000000000000, -1.000000000000000000 ) ) ;
#457 = FACE_OUTER_BOUND ( 'NONE', #222, .T. ) ;
#458 = PERSON_AND_ORGANIZATION_ROLE ( 'creator' ) ;
#459 = ADVANCED_FACE ( 'NONE', ( #103, #326 ), #505, .T. ) ;
#460 = FACE_OUTER_BOUND ( 'NONE', #134, .T. ) ;
#461 = CC_DESIGN_APPROVAL ( #204, ( #253 ) ) ;
#462 = CARTESIAN_POINT ( 'NONE',  ( 0.000000000000000000, 0.000000000000000000, 0.000000000000000000 ) ) ;
#463 = DIRECTION ( 'NONE',  ( 0.000000000000000000, 0.000000000000000000, 1.000000000000000000 ) ) ;
#464 = PLANE ( 'NONE',  #517 ) ;
#465 = AXIS2_PLACEMENT_3D ( 'NONE', #57, #235, #321 ) ;
#466 = AXIS2_PLACEMENT_3D ( 'NONE', #430, #205, #211 ) ;
#467 = VERTEX_POINT ( 'NONE', #378 ) ;
#468 = CARTESIAN_POINT ( 'NONE',  ( 0.000000000000000000, 0.000000000000000000, 105.0000000000000000 ) ) ;
#469 = EDGE_CURVE ( 'NONE', #361, #568, #388, .T. ) ;
#470 = DIRECTION ( 'NONE',  ( -0.000000000000000000, -0.000000000000000000, 1.000000000000000000 ) ) ;
#471 = CARTESIAN_POINT ( 'NONE',  ( -16.00000000000000000, 0.000000000000000000, 105.0000000000000000 ) ) ;
#472 = ADVANCED_FACE ( 'NONE', ( #546 ), #338, .T. ) ;
#473 = FACE_BOUND ( 'NONE', #44, .T. ) ;
#474 = DIRECTION ( 'NONE',  ( -1.000000000000000000, 0.000000000000000000, 0.000000000000000000 ) ) ;
#475 = CARTESIAN_POINT ( 'NONE',  ( 0.000000000000000000, 0.000000000000000000, 48.50000000000000000 ) ) ;
#476 = AXIS2_PLACEMENT_3D ( 'NONE', #552, #208, #487 ) ;
#477 = VERTEX_POINT ( 'NONE', #30 ) ;
#478 = CARTESIAN_POINT ( 'NONE',  ( 0.000000000000000000, 0.000000000000000000, 105.0000000000000000 ) ) ;
#479 = ADVANCED_FACE ( 'NONE', ( #382 ), #209, .F. ) ;
#480 = CARTESIAN_POINT ( 'NONE',  ( 0.000000000000000000, 0.000000000000000000, 56.50000000000000000 ) ) ;
#481 = EDGE_LOOP ( 'NONE', ( #27, #315 ) ) ;
#482 = DIRECTION ( 'NONE',  ( -0.000000000000000000, -0.000000000000000000, -1.000000000000000000 ) ) ;
#483 = AXIS2_PLACEMENT_3D ( 'NONE', #120, #397, #297 ) ;
#484 = EDGE_CURVE ( 'NONE', #311, #467, #493, .T. ) ;
#485 = DIRECTION ( 'NONE',  ( 1.000000000000000000, 0.000000000000000000, 0.000000000000000000 ) ) ;
#486 = DIRECTION ( 'NONE',  ( 1.000000000000000000, 0.000000000000000000, 0.000000000000000000 ) ) ;
#487 = DIRECTION ( 'NONE',  ( 1.000000000000000000, 0.000000000000000000, 0.000000000000000000 ) ) ;
#488 = EDGE_LOOP ( 'NONE', ( #49, #216, #536, #404 ) ) ;
#489 = DESIGN_CONTEXT ( 'detailed design', #7, 'design' ) ;
#490 = ORIENTED_EDGE ( 'NONE', *, *, #484, .T. ) ;
#491 = APPROVAL ( #363, 'UNSPECIFIED' ) ;
#492 = VECTOR ( 'NONE', #195, 1000.000000000000000 ) ;
#493 = CIRCLE ( 'NONE', #394, 4.274999999999999467 ) ;
#494 = ORIENTED_EDGE ( 'NONE', *, *, #441, .F. ) ;
#495 = PERSON_AND_ORGANIZATION ( #206, #537 ) ;
#496 = ORIENTED_EDGE ( 'NONE', *, *, #33, .T. ) ;
#497 = CARTESIAN_POINT ( 'NONE',  ( 0.000000000000000000, 0.000000000000000000, -15.00000000000000000 ) ) ;
#498 = PERSON_AND_ORGANIZATION ( #206, #537 ) ;
#499 = ORIENTED_EDGE ( 'NONE', *, *, #339, .F. ) ;
#500 = CARTESIAN_POINT ( 'NONE',  ( 0.000000000000000000, 0.000000000000000000, 56.50000000000000000 ) ) ;
#501 = AXIS2_PLACEMENT_3D ( 'NONE', #478, #557, #352 ) ;
#502 = EDGE_CURVE ( 'NONE', #127, #48, #314, .T. ) ;
#503 = DIRECTION ( 'NONE',  ( -0.000000000000000000, -0.000000000000000000, -1.000000000000000000 ) ) ;
#504 = ORIENTED_EDGE ( 'NONE', *, *, #540, .F. ) ;
#505 = PLANE ( 'NONE',  #466 ) ;
#506 = PERSON_AND_ORGANIZATION ( #206, #537 ) ;
#507 = CARTESIAN_POINT ( 'NONE',  ( 0.000000000000000000, 0.000000000000000000, 120.0000000000000000 ) ) ;
#508 = CARTESIAN_POINT ( 'NONE',  ( 0.000000000000000000, 0.000000000000000000, -15.00000000000000000 ) ) ;
#509 = EDGE_LOOP ( 'NONE', ( #265, #189, #308, #490 ) ) ;
#510 = CARTESIAN_POINT ( 'NONE',  ( 0.000000000000000000, 0.000000000000000000, 48.50000000000000000 ) ) ;
#511 = LINE ( 'NONE', #295, #40 ) ;
#512 = DIRECTION ( 'NONE',  ( -0.000000000000000000, -0.000000000000000000, -1.000000000000000000 ) ) ;
#513 = FACE_OUTER_BOUND ( 'NONE', #109, .T. ) ;
#514 = CARTESIAN_POINT ( 'NONE',  ( 0.000000000000000000, 0.000000000000000000, -15.00000000000000000 ) ) ;
#515 = CARTESIAN_POINT ( 'NONE',  ( 4.275000000000000355, 5.235365066354935078E-16, 105.0000000000000000 ) ) ;
#516 = ADVANCED_FACE ( 'NONE', ( #513 ), #159, .T. ) ;
#517 = AXIS2_PLACEMENT_3D ( 'NONE', #462, #157, #69 ) ;
#518 = AXIS2_PLACEMENT_3D ( 'NONE', #553, #427, #421 ) ;
#519 = ORIENTED_EDGE ( 'NONE', *, *, #116, .T. ) ;
#520 = DIRECTION ( 'NONE',  ( 0.000000000000000000, 0.000000000000000000, 1.000000000000000000 ) ) ;
#521 = APPLICATION_CONTEXT ( 'configuration controlled 3d designs of mechanical parts and assemblies' ) ;
#522 = LINE ( 'NONE', #126, #393 ) ;
#523 = ORIENTED_EDGE ( 'NONE', *, *, #1, .T. ) ;
#524 = EDGE_CURVE ( 'NONE', #364, #477, #219, .T. ) ;
#525 = DIRECTION ( 'NONE',  ( 1.000000000000000000, 0.000000000000000000, -0.000000000000000000 ) ) ;
#526 = CIRCLE ( 'NONE', #10, 4.275000000000000355 ) ;
#527 = CARTESIAN_POINT ( 'NONE',  ( -14.95000000000000107, 1.830846964725293305E-15, -15.00000000000000000 ) ) ;
#528 = ORIENTED_EDGE ( 'NONE', *, *, #124, .T. ) ;
#529 = VERTEX_POINT ( 'NONE', #24 ) ;
#530 = VERTEX_POINT ( 'NONE', #73 ) ;
#531 = CIRCLE ( 'NONE', #20, 4.274999999999999467 ) ;
#532 = DATE_AND_TIME ( #8, #424 ) ;
#533 = ORIENTED_EDGE ( 'NONE', *, *, #539, .T. ) ;
#534 = LINE ( 'NONE', #139, #401 ) ;
#535 = APPROVAL_DATE_TIME ( #532, #491 ) ;
#536 = ORIENTED_EDGE ( 'NONE', *, *, #115, .T. ) ;
#537 = ORGANIZATION ( 'UNSPECIFIED', 'UNSPECIFIED', '' ) ;
#538 = DIRECTION ( 'NONE',  ( -0.000000000000000000, -0.000000000000000000, -1.000000000000000000 ) ) ;
#539 = EDGE_CURVE ( 'NONE', #279, #529, #336, .T. ) ;
#540 = EDGE_CURVE ( 'NONE', #477, #364, #571, .T. ) ;
#541 = CARTESIAN_POINT ( 'NONE',  ( 0.000000000000000000, 0.000000000000000000, 120.0000000000000000 ) ) ;
#542 = FACE_OUTER_BOUND ( 'NONE', #176, .T. ) ;
#543 = CIRCLE ( 'NONE', #476, 14.94999999999999929 ) ;
#544 = PERSON_AND_ORGANIZATION_ROLE ( 'design_owner' ) ;
#545 = ORIENTED_EDGE ( 'NONE', *, *, #53, .T. ) ;
#546 = FACE_OUTER_BOUND ( 'NONE', #488, .T. ) ;
#547 = ADVANCED_FACE ( 'NONE', ( #110 ), #294, .F. ) ;
#548 =( NAMED_UNIT ( * ) SI_UNIT ( $, .STERADIAN. ) SOLID_ANGLE_UNIT ( ) );
#549 = ORIENTED_EDGE ( 'NONE', *, *, #182, .F. ) ;
#550 = DIRECTION ( 'NONE',  ( -1.000000000000000000, 0.000000000000000000, 0.000000000000000000 ) ) ;
#551 = DIRECTION ( 'NONE',  ( -0.000000000000000000, -0.000000000000000000, 1.000000000000000000 ) ) ;
#552 = CARTESIAN_POINT ( 'NONE',  ( 0.000000000000000000, 0.000000000000000000, 105.0000000000000000 ) ) ;
#553 = CARTESIAN_POINT ( 'NONE',  ( 0.000000000000000000, 0.000000000000000000, 120.0000000000000000 ) ) ;
#554 = CYLINDRICAL_SURFACE ( 'NONE', #555, 14.95000000000000107 ) ;
#555 = AXIS2_PLACEMENT_3D ( 'NONE', #411, #58, #337 ) ;
#556 = DIRECTION ( 'NONE',  ( 0.000000000000000000, 0.000000000000000000, 1.000000000000000000 ) ) ;
#557 = DIRECTION ( 'NONE',  ( -0.000000000000000000, -0.000000000000000000, -1.000000000000000000 ) ) ;
#558 = CARTESIAN_POINT ( 'NONE',  ( 16.00000000000000000, 1.959434878635765131E-15, 105.0000000000000000 ) ) ;
#559 = EDGE_CURVE ( 'NONE', #426, #279, #302, .T. ) ;
#560 = DIRECTION ( 'NONE',  ( 0.000000000000000000, 0.000000000000000000, -1.000000000000000000 ) ) ;
#561 = MANIFOLD_SOLID_BREP ( 'Cut-Extrude1[2]', #196 ) ;
#562 = DIRECTION ( 'NONE',  ( 1.000000000000000000, 0.000000000000000000, 0.000000000000000000 ) ) ;
#563 = AXIS2_PLACEMENT_3D ( 'NONE', #244, #199, #152 ) ;
#564 = ORIENTED_EDGE ( 'NONE', *, *, #289, .T. ) ;
#565 = DIRECTION ( 'NONE',  ( 0.000000000000000000, 0.000000000000000000, 1.000000000000000000 ) ) ;
#566 = ADVANCED_FACE ( 'NONE', ( #75 ), #423, .F. ) ;
#567 = PRODUCT_RELATED_PRODUCT_CATEGORY ( 'detail', '', ( #367 ) ) ;
#568 = VERTEX_POINT ( 'NONE', #258 ) ;
#569 = DIRECTION ( 'NONE',  ( 0.000000000000000000, 0.000000000000000000, -1.000000000000000000 ) ) ;
#570 = DIRECTION ( 'NONE',  ( 0.000000000000000000, 0.000000000000000000, 1.000000000000000000 ) ) ;
#571 = CIRCLE ( 'NONE', #21, 4.275000000000000355 ) ;
ENDSEC;
END-ISO-10303-21;
