ISO-10303-21;
HEADER;
FILE_DESCRIPTION (( 'STEP AP203' ),
    '1' );
FILE_NAME ('EDM Bambu Inner Spool With Bearings.STEP',
    '2026-05-30T22:47:41',
    ( '' ),
    ( '' ),
    'SwSTEP 2.0',
    'SolidWorks 2024',
    '' );
FILE_SCHEMA (( 'CONFIG_CONTROL_DESIGN' ));
ENDSEC;

DATA;
#1 = EDGE_CURVE ( 'NONE', #337, #113, #452, .T. ) ;
#2 = EDGE_CURVE ( 'NONE', #238, #465, #187, .T. ) ;
#3 = VERTEX_POINT ( 'NONE', #232 ) ;
#4 = DIRECTION ( 'NONE',  ( -0.000000000000000000, -0.000000000000000000, 1.000000000000000000 ) ) ;
#5 = ORIENTED_EDGE ( 'NONE', *, *, #359, .T. ) ;
#6 = FACE_OUTER_BOUND ( 'NONE', #468, .T. ) ;
#7 = ORIENTED_EDGE ( 'NONE', *, *, #35, .F. ) ;
#8 =( NAMED_UNIT ( * ) SI_UNIT ( $, .STERADIAN. ) SOLID_ANGLE_UNIT ( ) );
#9 = AXIS2_PLACEMENT_3D ( 'NONE', #120, #515, #551 ) ;
#10 = DIRECTION ( 'NONE',  ( 1.000000000000000000, 0.000000000000000000, 0.000000000000000000 ) ) ;
#11 = DIRECTION ( 'NONE',  ( -0.000000000000000000, -0.000000000000000000, 1.000000000000000000 ) ) ;
#12 = DIRECTION ( 'NONE',  ( -0.000000000000000000, -0.000000000000000000, 1.000000000000000000 ) ) ;
#13 = DIRECTION ( 'NONE',  ( -0.000000000000000000, -0.000000000000000000, -1.000000000000000000 ) ) ;
#14 = AXIS2_PLACEMENT_3D ( 'NONE', #250, #412, #159 ) ;
#15 = DIRECTION ( 'NONE',  ( -1.000000000000000000, 0.000000000000000000, 0.000000000000000000 ) ) ;
#16 = EDGE_CURVE ( 'NONE', #259, #383, #427, .T. ) ;
#17 = DIRECTION ( 'NONE',  ( 0.000000000000000000, 0.000000000000000000, 1.000000000000000000 ) ) ;
#18 = CARTESIAN_POINT ( 'NONE',  ( 0.000000000000000000, 0.000000000000000000, 100.0000000000000000 ) ) ;
#19 = APPROVAL_DATE_TIME ( #553, #143 ) ;
#20 = EDGE_LOOP ( 'NONE', ( #475, #146, #439, #168 ) ) ;
#21 = FACE_OUTER_BOUND ( 'NONE', #209, .T. ) ;
#22 = EDGE_CURVE ( 'NONE', #383, #257, #399, .T. ) ;
#23 = DIRECTION ( 'NONE',  ( -0.000000000000000000, -0.000000000000000000, 1.000000000000000000 ) ) ;
#24 = COORDINATED_UNIVERSAL_TIME_OFFSET ( 8, 0, .BEHIND. ) ;
#25 = VECTOR ( 'NONE', #13, 1000.000000000000000 ) ;
#26 = CARTESIAN_POINT ( 'NONE',  ( 0.000000000000000000, 0.000000000000000000, 7.150000000000000355 ) ) ;
#27 = CARTESIAN_POINT ( 'NONE',  ( -11.25000000000000178, 1.377727649040772586E-15, 92.00000000000000000 ) ) ;
#28 = VERTEX_POINT ( 'NONE', #98 ) ;
#29 = CARTESIAN_POINT ( 'NONE',  ( 11.24999999999999822, 1.377727649040771994E-15, 8.000000000000000000 ) ) ;
#30 = CYLINDRICAL_SURFACE ( 'NONE', #14, 11.25000000000000178 ) ;
#31 = PERSON_AND_ORGANIZATION ( #271, #518 ) ;
#32 = VERTEX_POINT ( 'NONE', #276 ) ;
#33 = DIRECTION ( 'NONE',  ( 0.000000000000000000, 0.000000000000000000, -1.000000000000000000 ) ) ;
#34 = CARTESIAN_POINT ( 'NONE',  ( 5.000000000000000000, 6.123233995736766282E-16, 92.85000000000000853 ) ) ;
#35 = EDGE_CURVE ( 'NONE', #337, #530, #93, .T. ) ;
#36 = AXIS2_PLACEMENT_3D ( 'NONE', #517, #109, #555 ) ;
#37 = LINE ( 'NONE', #474, #550 ) ;
#38 = ORIENTED_EDGE ( 'NONE', *, *, #83, .F. ) ;
#39 = PLANE ( 'NONE',  #532 ) ;
#40 = ORIENTED_EDGE ( 'NONE', *, *, #485, .T. ) ;
#41 = DIRECTION ( 'NONE',  ( 1.000000000000000000, 0.000000000000000000, 0.000000000000000000 ) ) ;
#42 = CC_DESIGN_PERSON_AND_ORGANIZATION_ASSIGNMENT ( #67, #334, ( #241 ) ) ;
#43 = ADVANCED_FACE ( 'NONE', ( #536, #490 ), #58, .T. ) ;
#44 = APPROVAL_PERSON_ORGANIZATION ( #562, #128, #331 ) ;
#45 = EDGE_LOOP ( 'NONE', ( #245, #211, #394, #179 ) ) ;
#46 = CIRCLE ( 'NONE', #144, 7.000000000000000000 ) ;
#47 = ORIENTED_EDGE ( 'NONE', *, *, #478, .F. ) ;
#48 = AXIS2_PLACEMENT_3D ( 'NONE', #249, #77, #424 ) ;
#49 = ORIENTED_EDGE ( 'NONE', *, *, #492, .F. ) ;
#50 =( LENGTH_UNIT ( ) NAMED_UNIT ( * ) SI_UNIT ( .MILLI., .METRE. ) );
#51 = DIRECTION ( 'NONE',  ( -0.000000000000000000, -0.000000000000000000, -1.000000000000000000 ) ) ;
#52 = AXIS2_PLACEMENT_3D ( 'NONE', #315, #60, #90 ) ;
#53 = FACE_OUTER_BOUND ( 'NONE', #403, .T. ) ;
#54 = CIRCLE ( 'NONE', #252, 11.25000000000000178 ) ;
#55 = LINE ( 'NONE', #312, #569 ) ;
#56 = ADVANCED_FACE ( 'NONE', ( #544 ), #405, .F. ) ;
#57 = EDGE_CURVE ( 'NONE', #505, #524, #46, .T. ) ;
#58 = PLANE ( 'NONE',  #52 ) ;
#59 = CIRCLE ( 'NONE', #379, 7.000000000000000000 ) ;
#60 = DIRECTION ( 'NONE',  ( 0.000000000000000000, 0.000000000000000000, 1.000000000000000000 ) ) ;
#61 = DIRECTION ( 'NONE',  ( -0.000000000000000000, -0.000000000000000000, 1.000000000000000000 ) ) ;
#62 = VERTEX_POINT ( 'NONE', #227 ) ;
#63 = DIRECTION ( 'NONE',  ( 1.000000000000000000, 0.000000000000000000, 0.000000000000000000 ) ) ;
#64 = DIRECTION ( 'NONE',  ( 0.000000000000000000, 0.000000000000000000, -1.000000000000000000 ) ) ;
#65 = APPROVAL_PERSON_ORGANIZATION ( #299, #314, #497 ) ;
#66 = DIRECTION ( 'NONE',  ( 0.000000000000000000, 0.000000000000000000, 1.000000000000000000 ) ) ;
#67 = PERSON_AND_ORGANIZATION ( #271, #518 ) ;
#68 = CARTESIAN_POINT ( 'NONE',  ( 0.000000000000000000, 0.000000000000000000, 7.150000000000003908 ) ) ;
#69 = DIRECTION ( 'NONE',  ( 0.000000000000000000, 0.000000000000000000, -1.000000000000000000 ) ) ;
#70 = PERSON_AND_ORGANIZATION ( #271, #518 ) ;
#71 = ORIENTED_EDGE ( 'NONE', *, *, #57, .T. ) ;
#72 = DIRECTION ( 'NONE',  ( -1.000000000000000000, 0.000000000000000000, 0.000000000000000000 ) ) ;
#73 = EDGE_CURVE ( 'NONE', #343, #153, #494, .T. ) ;
#74 = LINE ( 'NONE', #205, #428 ) ;
#75 = PERSON_AND_ORGANIZATION_ROLE ( 'classification_officer' ) ;
#76 = EDGE_LOOP ( 'NONE', ( #40, #369, #429, #38 ) ) ;
#77 = DIRECTION ( 'NONE',  ( -0.000000000000000000, -0.000000000000000000, -1.000000000000000000 ) ) ;
#78 = EDGE_LOOP ( 'NONE', ( #307, #391 ) ) ;
#79 = VECTOR ( 'NONE', #506, 1000.000000000000000 ) ;
#80 = CARTESIAN_POINT ( 'NONE',  ( -11.25000000000000178, 1.377727649040772586E-15, 100.0000000000000000 ) ) ;
#81 = ORIENTED_EDGE ( 'NONE', *, *, #523, .T. ) ;
#82 = CIRCLE ( 'NONE', #432, 5.000000000000000000 ) ;
#83 = EDGE_CURVE ( 'NONE', #524, #248, #362, .T. ) ;
#84 =( NAMED_UNIT ( * ) PLANE_ANGLE_UNIT ( ) SI_UNIT ( $, .RADIAN. ) );
#85 = ORIENTED_EDGE ( 'NONE', *, *, #461, .T. ) ;
#86 = DIRECTION ( 'NONE',  ( -1.000000000000000000, 0.000000000000000000, 0.000000000000000000 ) ) ;
#87 = ORIENTED_EDGE ( 'NONE', *, *, #430, .T. ) ;
#88 = EDGE_LOOP ( 'NONE', ( #265, #516 ) ) ;
#89 = DIRECTION ( 'NONE',  ( 1.000000000000000000, 0.000000000000000000, 0.000000000000000000 ) ) ;
#90 = DIRECTION ( 'NONE',  ( 1.000000000000000000, 0.000000000000000000, -0.000000000000000000 ) ) ;
#91 = AXIS2_PLACEMENT_3D ( 'NONE', #258, #434, #388 ) ;
#92 = DIRECTION ( 'NONE',  ( -0.000000000000000000, -0.000000000000000000, -1.000000000000000000 ) ) ;
#93 = LINE ( 'NONE', #361, #230 ) ;
#94 = EDGE_CURVE ( 'NONE', #259, #219, #55, .T. ) ;
#95 = ADVANCED_FACE ( 'NONE', ( #482 ), #268, .T. ) ;
#96 = CIRCLE ( 'NONE', #266, 7.000000000000000000 ) ;
#97 = CARTESIAN_POINT ( 'NONE',  ( 0.000000000000000000, 0.000000000000000000, 8.000000000000000000 ) ) ;
#98 = CARTESIAN_POINT ( 'NONE',  ( -27.10000000000000142, 0.000000000000000000, 0.000000000000000000 ) ) ;
#99 = CIRCLE ( 'NONE', #212, 11.24999999999999822 ) ;
#100 = CIRCLE ( 'NONE', #135, 27.10000000000000142 ) ;
#101 = CARTESIAN_POINT ( 'NONE',  ( 0.000000000000000000, 0.000000000000000000, 8.000000000000000000 ) ) ;
#102 = AXIS2_PLACEMENT_3D ( 'NONE', #348, #316, #525 ) ;
#103 = CYLINDRICAL_SURFACE ( 'NONE', #206, 27.10000000000000142 ) ;
#104 = CALENDAR_DATE ( 2026, 30, 5 ) ;
#105 = ORIENTED_EDGE ( 'NONE', *, *, #35, .T. ) ;
#106 = DIRECTION ( 'NONE',  ( -1.000000000000000000, 0.000000000000000000, 0.000000000000000000 ) ) ;
#107 = DATE_AND_TIME ( #104, #228 ) ;
#108 = ORIENTED_EDGE ( 'NONE', *, *, #1, .T. ) ;
#109 = DIRECTION ( 'NONE',  ( 0.000000000000000000, 0.000000000000000000, -1.000000000000000000 ) ) ;
#110 = DIRECTION ( 'NONE',  ( -0.000000000000000000, 0.000000000000000000, 1.000000000000000000 ) ) ;
#111 = COORDINATED_UNIVERSAL_TIME_OFFSET ( 8, 0, .BEHIND. ) ;
#112 = CIRCLE ( 'NONE', #353, 5.000000000000000000 ) ;
#113 = VERTEX_POINT ( 'NONE', #223 ) ;
#114 = FACE_OUTER_BOUND ( 'NONE', #320, .T. ) ;
#115 = ADVANCED_FACE ( 'NONE', ( #533, #272 ), #139, .T. ) ;
#116 = CARTESIAN_POINT ( 'NONE',  ( -11.24999999999999822, 0.000000000000000000, 8.000000000000000000 ) ) ;
#117 = PERSON_AND_ORGANIZATION_ROLE ( 'creator' ) ;
#118 = AXIS2_PLACEMENT_3D ( 'NONE', #419, #297, #466 ) ;
#119 = ORIENTED_EDGE ( 'NONE', *, *, #73, .T. ) ;
#120 = CARTESIAN_POINT ( 'NONE',  ( 0.000000000000000000, 0.000000000000000000, 8.000000000000000000 ) ) ;
#121 = PERSON_AND_ORGANIZATION_ROLE ( 'design_owner' ) ;
#122 = ORIENTED_EDGE ( 'NONE', *, *, #224, .T. ) ;
#123 = FACE_BOUND ( 'NONE', #203, .T. ) ;
#124 = ADVANCED_FACE ( 'NONE', ( #53 ), #401, .F. ) ;
#125 = ORIENTED_EDGE ( 'NONE', *, *, #218, .T. ) ;
#126 = AXIS2_PLACEMENT_3D ( 'NONE', #449, #270, #446 ) ;
#127 = DIRECTION ( 'NONE',  ( 0.000000000000000000, 0.000000000000000000, -1.000000000000000000 ) ) ;
#128 = APPROVAL ( #549, 'UNSPECIFIED' ) ;
#129 = ORIENTED_EDGE ( 'NONE', *, *, #182, .T. ) ;
#130 = VECTOR ( 'NONE', #344, 1000.000000000000000 ) ;
#131 = APPLICATION_PROTOCOL_DEFINITION ( 'international standard', 'config_control_design', 1994, #217 ) ;
#132 = EDGE_LOOP ( 'NONE', ( #565, #456 ) ) ;
#133 = ORIENTED_EDGE ( 'NONE', *, *, #357, .T. ) ;
#134 = DIRECTION ( 'NONE',  ( 0.000000000000000000, -0.000000000000000000, -1.000000000000000000 ) ) ;
#135 = AXIS2_PLACEMENT_3D ( 'NONE', #18, #151, #327 ) ;
#136 = EDGE_CURVE ( 'NONE', #257, #219, #145, .T. ) ;
#137 = EDGE_LOOP ( 'NONE', ( #251, #349, #87, #173 ) ) ;
#138 = MANIFOLD_SOLID_BREP ( 'Cut-Extrude4', #437 ) ;
#139 = PLANE ( 'NONE',  #126 ) ;
#140 = LINE ( 'NONE', #351, #280 ) ;
#141 = EDGE_CURVE ( 'NONE', #329, #221, #213, .T. ) ;
#142 = CARTESIAN_POINT ( 'NONE',  ( 0.000000000000000000, 0.000000000000000000, 8.000000000000000000 ) ) ;
#143 = APPROVAL ( #407, 'UNSPECIFIED' ) ;
#144 = AXIS2_PLACEMENT_3D ( 'NONE', #450, #17, #10 ) ;
#145 = CIRCLE ( 'NONE', #460, 11.24999999999999822 ) ;
#146 = ORIENTED_EDGE ( 'NONE', *, *, #523, .F. ) ;
#147 = ORIENTED_EDGE ( 'NONE', *, *, #218, .F. ) ;
#148 = PRODUCT_DEFINITION_SHAPE ( 'NONE', 'NONE',  #241 ) ;
#149 = DIRECTION ( 'NONE',  ( -0.000000000000000000, -0.000000000000000000, -1.000000000000000000 ) ) ;
#150 = VECTOR ( 'NONE', #185, 1000.000000000000000 ) ;
#151 = DIRECTION ( 'NONE',  ( 0.000000000000000000, 0.000000000000000000, 1.000000000000000000 ) ) ;
#152 = CALENDAR_DATE ( 2026, 30, 5 ) ;
#153 = VERTEX_POINT ( 'NONE', #376 ) ;
#154 = AXIS2_PLACEMENT_3D ( 'NONE', #445, #4, #89 ) ;
#155 = CARTESIAN_POINT ( 'NONE',  ( 7.000000000000000000, 8.572527594031473190E-16, 8.000000000000000000 ) ) ;
#156 = COORDINATED_UNIVERSAL_TIME_OFFSET ( 8, 0, .BEHIND. ) ;
#157 = ORIENTED_EDGE ( 'NONE', *, *, #160, .F. ) ;
#158 = PLANE ( 'NONE',  #9 ) ;
#159 = DIRECTION ( 'NONE',  ( 1.000000000000000000, 0.000000000000000000, 0.000000000000000000 ) ) ;
#160 = EDGE_CURVE ( 'NONE', #113, #350, #459, .T. ) ;
#161 = EDGE_CURVE ( 'NONE', #32, #62, #511, .T. ) ;
#162 = ORIENTED_EDGE ( 'NONE', *, *, #160, .T. ) ;
#163 = DIRECTION ( 'NONE',  ( 1.000000000000000000, 0.000000000000000000, 0.000000000000000000 ) ) ;
#164 = CARTESIAN_POINT ( 'NONE',  ( 0.000000000000000000, 0.000000000000000000, 100.0000000000000000 ) ) ;
#165 = AXIS2_PLACEMENT_3D ( 'NONE', #363, #61, #290 ) ;
#166 = EDGE_LOOP ( 'NONE', ( #108, #476 ) ) ;
#167 = LINE ( 'NONE', #332, #79 ) ;
#168 = ORIENTED_EDGE ( 'NONE', *, *, #305, .T. ) ;
#169 = DIRECTION ( 'NONE',  ( -1.000000000000000000, 0.000000000000000000, 0.000000000000000000 ) ) ;
#170 = ORIENTED_EDGE ( 'NONE', *, *, #2, .F. ) ;
#171 = CARTESIAN_POINT ( 'NONE',  ( 0.000000000000000000, 0.000000000000000000, 8.000000000000000000 ) ) ;
#172 = CC_DESIGN_DATE_AND_TIME_ASSIGNMENT ( #191, #514, ( #458 ) ) ;
#173 = ORIENTED_EDGE ( 'NONE', *, *, #346, .T. ) ;
#174 = DIRECTION ( 'NONE',  ( 1.000000000000000000, 0.000000000000000000, 0.000000000000000000 ) ) ;
#175 = EDGE_LOOP ( 'NONE', ( #47, #125, #381, #480 ) ) ;
#176 = ORIENTED_EDGE ( 'NONE', *, *, #141, .F. ) ;
#177 = ADVANCED_FACE ( 'NONE', ( #507 ), #287, .F. ) ;
#178 = DIRECTION ( 'NONE',  ( -0.000000000000000000, 0.000000000000000000, 1.000000000000000000 ) ) ;
#179 = ORIENTED_EDGE ( 'NONE', *, *, #420, .F. ) ;
#180 = AXIS2_PLACEMENT_3D ( 'NONE', #68, #33, #566 ) ;
#181 = DIRECTION ( 'NONE',  ( -0.000000000000000000, -0.000000000000000000, -1.000000000000000000 ) ) ;
#182 = EDGE_CURVE ( 'NONE', #3, #248, #186, .T. ) ;
#183 = CARTESIAN_POINT ( 'NONE',  ( 0.000000000000000000, 0.000000000000000000, 92.00000000000000000 ) ) ;
#184 = DIRECTION ( 'NONE',  ( 1.000000000000000000, 0.000000000000000000, 0.000000000000000000 ) ) ;
#185 = DIRECTION ( 'NONE',  ( -0.000000000000000000, -0.000000000000000000, -1.000000000000000000 ) ) ;
#186 = CIRCLE ( 'NONE', #539, 7.000000000000000000 ) ;
#187 = LINE ( 'NONE', #489, #25 ) ;
#188 = DIRECTION ( 'NONE',  ( 0.000000000000000000, 0.000000000000000000, 1.000000000000000000 ) ) ;
#189 = ADVANCED_FACE ( 'NONE', ( #493 ), #30, .F. ) ;
#190 = DIRECTION ( 'NONE',  ( 1.000000000000000000, 0.000000000000000000, 0.000000000000000000 ) ) ;
#191 = DATE_AND_TIME ( #283, #537 ) ;
#192 =( GEOMETRIC_REPRESENTATION_CONTEXT ( 3 ) GLOBAL_UNCERTAINTY_ASSIGNED_CONTEXT ( ( #535 ) ) GLOBAL_UNIT_ASSIGNED_CONTEXT ( ( #50, #84, #8 ) ) REPRESENTATION_CONTEXT ( 'NONE', 'WORKASPACE' ) );
#193 = ORIENTED_EDGE ( 'NONE', *, *, #261, .T. ) ;
#194 = AXIS2_PLACEMENT_3D ( 'NONE', #545, #501, #467 ) ;
#195 = CARTESIAN_POINT ( 'NONE',  ( 0.000000000000000000, 0.000000000000000000, 100.0000000000000000 ) ) ;
#196 = PERSON_AND_ORGANIZATION_ROLE ( 'design_supplier' ) ;
#197 = DIRECTION ( 'NONE',  ( -1.000000000000000000, 0.000000000000000000, -0.000000000000000000 ) ) ;
#198 = AXIS2_PLACEMENT_3D ( 'NONE', #564, #127, #169 ) ;
#199 = DIRECTION ( 'NONE',  ( 1.000000000000000000, 0.000000000000000000, -0.000000000000000000 ) ) ;
#200 = FACE_OUTER_BOUND ( 'NONE', #45, .T. ) ;
#201 = CARTESIAN_POINT ( 'NONE',  ( 0.000000000000000000, 0.000000000000000000, 0.000000000000000000 ) ) ;
#202 = COORDINATED_UNIVERSAL_TIME_OFFSET ( 8, 0, .BEHIND. ) ;
#203 = EDGE_LOOP ( 'NONE', ( #176, #147 ) ) ;
#204 = CARTESIAN_POINT ( 'NONE',  ( 5.000000000000000000, 6.123233995736766282E-16, 100.0000000000000000 ) ) ;
#205 = CARTESIAN_POINT ( 'NONE',  ( -7.000000000000000000, 8.572527594031473190E-16, 92.00000000000000000 ) ) ;
#206 = AXIS2_PLACEMENT_3D ( 'NONE', #282, #455, #281 ) ;
#207 = ORIENTED_EDGE ( 'NONE', *, *, #543, .F. ) ;
#208 = FACE_OUTER_BOUND ( 'NONE', #175, .T. ) ;
#209 = EDGE_LOOP ( 'NONE', ( #157, #274, #105, #122 ) ) ;
#210 = DIRECTION ( 'NONE',  ( 0.000000000000000000, 0.000000000000000000, -1.000000000000000000 ) ) ;
#211 = ORIENTED_EDGE ( 'NONE', *, *, #478, .T. ) ;
#212 = AXIS2_PLACEMENT_3D ( 'NONE', #443, #222, #86 ) ;
#213 = CIRCLE ( 'NONE', #538, 7.000000000000000000 ) ;
#214 = VERTEX_POINT ( 'NONE', #34 ) ;
#215 = CIRCLE ( 'NONE', #529, 11.25000000000000178 ) ;
#216 = DIRECTION ( 'NONE',  ( -0.000000000000000000, -0.000000000000000000, -1.000000000000000000 ) ) ;
#217 = APPLICATION_CONTEXT ( 'configuration controlled 3d designs of mechanical parts and assemblies' ) ;
#218 = EDGE_CURVE ( 'NONE', #221, #329, #59, .T. ) ;
#219 = VERTEX_POINT ( 'NONE', #454 ) ;
#220 = FACE_BOUND ( 'NONE', #499, .T. ) ;
#221 = VERTEX_POINT ( 'NONE', #155 ) ;
#222 = DIRECTION ( 'NONE',  ( 0.000000000000000000, 0.000000000000000000, -1.000000000000000000 ) ) ;
#223 = CARTESIAN_POINT ( 'NONE',  ( -11.25000000000000178, 1.377727649040772586E-15, 92.00000000000000000 ) ) ;
#224 = EDGE_CURVE ( 'NONE', #530, #350, #215, .T. ) ;
#225 = CARTESIAN_POINT ( 'NONE',  ( 7.000000000000000000, 0.000000000000000000, 92.00000000000000000 ) ) ;
#226 = AXIS2_PLACEMENT_3D ( 'NONE', #392, #178, #531 ) ;
#227 = CARTESIAN_POINT ( 'NONE',  ( 7.000000000000000000, 8.572527594031473190E-16, 7.150000000000000355 ) ) ;
#228 = LOCAL_TIME ( 15, 47, 41.00000000000000000, #156 ) ;
#229 = ORIENTED_EDGE ( 'NONE', *, *, #441, .T. ) ;
#230 = VECTOR ( 'NONE', #451, 1000.000000000000000 ) ;
#231 = CIRCLE ( 'NONE', #438, 27.10000000000000142 ) ;
#232 = CARTESIAN_POINT ( 'NONE',  ( -7.000000000000000000, 8.572527594031473190E-16, 92.85000000000000853 ) ) ;
#233 = ADVANCED_FACE ( 'NONE', ( #243 ), #333, .T. ) ;
#234 = CARTESIAN_POINT ( 'NONE',  ( 0.000000000000000000, 0.000000000000000000, 8.000000000000000000 ) ) ;
#235 = VERTEX_POINT ( 'NONE', #416 ) ;
#236 = DIRECTION ( 'NONE',  ( -1.000000000000000000, 0.000000000000000000, 0.000000000000000000 ) ) ;
#237 = COORDINATED_UNIVERSAL_TIME_OFFSET ( 8, 0, .BEHIND. ) ;
#238 = VERTEX_POINT ( 'NONE', #247 ) ;
#239 = ADVANCED_FACE ( 'NONE', ( #421, #425 ), #294, .F. ) ;
#240 = FACE_BOUND ( 'NONE', #78, .T. ) ;
#241 = PRODUCT_DEFINITION ( 'UNKNOWN', '', #411, #448 ) ;
#242 = AXIS2_PLACEMENT_3D ( 'NONE', #142, #356, #15 ) ;
#243 = FACE_OUTER_BOUND ( 'NONE', #76, .T. ) ;
#244 = APPROVAL_DATE_TIME ( #422, #314 ) ;
#245 = ORIENTED_EDGE ( 'NONE', *, *, #141, .T. ) ;
#246 = CARTESIAN_POINT ( 'NONE',  ( 0.000000000000000000, 0.000000000000000000, 0.000000000000000000 ) ) ;
#247 = CARTESIAN_POINT ( 'NONE',  ( -5.000000000000000000, 0.000000000000000000, 92.85000000000000853 ) ) ;
#248 = VERTEX_POINT ( 'NONE', #371 ) ;
#249 = CARTESIAN_POINT ( 'NONE',  ( 0.000000000000000000, 0.000000000000000000, 8.000000000000000000 ) ) ;
#250 = CARTESIAN_POINT ( 'NONE',  ( 0.000000000000000000, 0.000000000000000000, 92.00000000000000000 ) ) ;
#251 = ORIENTED_EDGE ( 'NONE', *, *, #359, .F. ) ;
#252 = AXIS2_PLACEMENT_3D ( 'NONE', #313, #481, #174 ) ;
#253 = LINE ( 'NONE', #415, #130 ) ;
#254 = CIRCLE ( 'NONE', #36, 11.24999999999999822 ) ;
#255 = EDGE_LOOP ( 'NONE', ( #559, #5, #509, #301 ) ) ;
#256 = DIRECTION ( 'NONE',  ( 1.000000000000000000, 0.000000000000000000, 0.000000000000000000 ) ) ;
#257 = VERTEX_POINT ( 'NONE', #336 ) ;
#258 = CARTESIAN_POINT ( 'NONE',  ( 0.000000000000000000, 0.000000000000000000, 0.000000000000000000 ) ) ;
#259 = VERTEX_POINT ( 'NONE', #116 ) ;
#260 = EDGE_CURVE ( 'NONE', #505, #3, #74, .T. ) ;
#261 = EDGE_CURVE ( 'NONE', #153, #343, #100, .T. ) ;
#262 = ORIENTED_EDGE ( 'NONE', *, *, #136, .F. ) ;
#263 = AXIS2_PLACEMENT_3D ( 'NONE', #557, #380, #236 ) ;
#264 = PERSON_AND_ORGANIZATION ( #271, #518 ) ;
#265 = ORIENTED_EDGE ( 'NONE', *, *, #346, .F. ) ;
#266 = AXIS2_PLACEMENT_3D ( 'NONE', #374, #335, #512 ) ;
#267 = PLANE ( 'NONE',  #226 ) ;
#268 = CYLINDRICAL_SURFACE ( 'NONE', #390, 27.10000000000000142 ) ;
#269 = LOCAL_TIME ( 15, 47, 41.00000000000000000, #111 ) ;
#270 = DIRECTION ( 'NONE',  ( 0.000000000000000000, 0.000000000000000000, 1.000000000000000000 ) ) ;
#271 = PERSON ( 'UNSPECIFIED', 'UNSPECIFIED', 'UNSPECIFIED', ('UNSPECIFIED'), ('UNSPECIFIED'), ('UNSPECIFIED') ) ;
#272 = FACE_OUTER_BOUND ( 'NONE', #166, .T. ) ;
#273 = DIRECTION ( 'NONE',  ( 0.000000000000000000, 0.000000000000000000, -1.000000000000000000 ) ) ;
#274 = ORIENTED_EDGE ( 'NONE', *, *, #1, .F. ) ;
#275 = ADVANCED_FACE ( 'NONE', ( #496 ), #103, .T. ) ;
#276 = CARTESIAN_POINT ( 'NONE',  ( -7.000000000000000000, 0.000000000000000000, 7.150000000000000355 ) ) ;
#277 = AXIS2_PLACEMENT_3D ( 'NONE', #355, #188, #444 ) ;
#278 = AXIS2_PLACEMENT_3D ( 'NONE', #457, #12, #184 ) ;
#279 = DIRECTION ( 'NONE',  ( -1.000000000000000000, 0.000000000000000000, 0.000000000000000000 ) ) ;
#280 = VECTOR ( 'NONE', #216, 1000.000000000000000 ) ;
#281 = DIRECTION ( 'NONE',  ( -1.000000000000000000, 0.000000000000000000, 0.000000000000000000 ) ) ;
#282 = CARTESIAN_POINT ( 'NONE',  ( 0.000000000000000000, 0.000000000000000000, 100.0000000000000000 ) ) ;
#283 = CALENDAR_DATE ( 2026, 30, 5 ) ;
#284 = EDGE_CURVE ( 'NONE', #519, #28, #495, .T. ) ;
#285 = ORIENTED_EDGE ( 'NONE', *, *, #485, .F. ) ;
#286 = CARTESIAN_POINT ( 'NONE',  ( 0.000000000000000000, 0.000000000000000000, 0.000000000000000000 ) ) ;
#287 = CYLINDRICAL_SURFACE ( 'NONE', #360, 5.000000000000000000 ) ;
#288 = ORIENTED_EDGE ( 'NONE', *, *, #22, .F. ) ;
#289 = CARTESIAN_POINT ( 'NONE',  ( -7.000000000000000000, 0.000000000000000000, 8.000000000000000000 ) ) ;
#290 = DIRECTION ( 'NONE',  ( 1.000000000000000000, 0.000000000000000000, 0.000000000000000000 ) ) ;
#291 = PERSON_AND_ORGANIZATION ( #271, #518 ) ;
#292 = ORIENTED_EDGE ( 'NONE', *, *, #22, .T. ) ;
#293 = CYLINDRICAL_SURFACE ( 'NONE', #488, 11.24999999999999822 ) ;
#294 = PLANE ( 'NONE',  #453 ) ;
#295 = SECURITY_CLASSIFICATION_LEVEL ( 'unclassified' ) ;
#296 = EDGE_LOOP ( 'NONE', ( #193, #119 ) ) ;
#297 = DIRECTION ( 'NONE',  ( -0.000000000000000000, -0.000000000000000000, -1.000000000000000000 ) ) ;
#298 = ADVANCED_FACE ( 'NONE', ( #21 ), #365, .F. ) ;
#299 = PERSON_AND_ORGANIZATION ( #271, #518 ) ;
#300 = DIRECTION ( 'NONE',  ( 0.000000000000000000, 0.000000000000000000, 1.000000000000000000 ) ) ;
#301 = ORIENTED_EDGE ( 'NONE', *, *, #430, .F. ) ;
#302 = FACE_OUTER_BOUND ( 'NONE', #132, .T. ) ;
#303 = CIRCLE ( 'NONE', #498, 5.000000000000000000 ) ;
#304 = ORIENTED_EDGE ( 'NONE', *, *, #57, .F. ) ;
#305 = EDGE_CURVE ( 'NONE', #465, #235, #112, .T. ) ;
#306 = MECHANICAL_CONTEXT ( 'NONE', #217, 'mechanical' ) ;
#307 = ORIENTED_EDGE ( 'NONE', *, *, #305, .F. ) ;
#308 = CC_DESIGN_APPROVAL ( #128, ( #458 ) ) ;
#309 = ORIENTED_EDGE ( 'NONE', *, *, #385, .T. ) ;
#310 = VECTOR ( 'NONE', #23, 1000.000000000000000 ) ;
#311 = DIRECTION ( 'NONE',  ( 1.000000000000000000, 0.000000000000000000, 0.000000000000000000 ) ) ;
#312 = CARTESIAN_POINT ( 'NONE',  ( -11.24999999999999822, 0.000000000000000000, 8.000000000000000000 ) ) ;
#313 = CARTESIAN_POINT ( 'NONE',  ( 0.000000000000000000, 0.000000000000000000, 92.00000000000000000 ) ) ;
#314 = APPROVAL ( #413, 'UNSPECIFIED' ) ;
#315 = CARTESIAN_POINT ( 'NONE',  ( 0.000000000000000000, 0.000000000000000000, 100.0000000000000000 ) ) ;
#316 = DIRECTION ( 'NONE',  ( 0.000000000000000000, 0.000000000000000000, 1.000000000000000000 ) ) ;
#317 = APPROVAL_PERSON_ORGANIZATION ( #372, #143, #340 ) ;
#318 = CARTESIAN_POINT ( 'NONE',  ( 0.000000000000000000, 0.000000000000000000, 100.0000000000000000 ) ) ;
#319 = CARTESIAN_POINT ( 'NONE',  ( 0.000000000000000000, 0.000000000000000000, 7.150000000000003908 ) ) ;
#320 = EDGE_LOOP ( 'NONE', ( #288, #408, #554, #358 ) ) ;
#321 = EDGE_CURVE ( 'NONE', #219, #257, #254, .T. ) ;
#322 = CARTESIAN_POINT ( 'NONE',  ( 11.24999999999999822, 1.377727649040771994E-15, 8.000000000000000000 ) ) ;
#323 = LOCAL_TIME ( 15, 47, 41.00000000000000000, #237 ) ;
#324 = CARTESIAN_POINT ( 'NONE',  ( 0.000000000000000000, 0.000000000000000000, 0.000000000000000000 ) ) ;
#325 = VECTOR ( 'NONE', #520, 1000.000000000000000 ) ;
#326 = EDGE_CURVE ( 'NONE', #235, #465, #479, .T. ) ;
#327 = DIRECTION ( 'NONE',  ( 1.000000000000000000, 0.000000000000000000, 0.000000000000000000 ) ) ;
#328 = DATE_TIME_ROLE ( 'creation_date' ) ;
#329 = VERTEX_POINT ( 'NONE', #289 ) ;
#330 = DIRECTION ( 'NONE',  ( 0.000000000000000000, 0.000000000000000000, 1.000000000000000000 ) ) ;
#331 = APPROVAL_ROLE ( '' ) ;
#332 = CARTESIAN_POINT ( 'NONE',  ( 27.10000000000000142, 3.318792825689327485E-15, 100.0000000000000000 ) ) ;
#333 = CYLINDRICAL_SURFACE ( 'NONE', #165, 7.000000000000000000 ) ;
#334 = PERSON_AND_ORGANIZATION_ROLE ( 'creator' ) ;
#335 = DIRECTION ( 'NONE',  ( -0.000000000000000000, 0.000000000000000000, 1.000000000000000000 ) ) ;
#336 = CARTESIAN_POINT ( 'NONE',  ( 11.24999999999999822, 1.377727649040771994E-15, 0.000000000000000000 ) ) ;
#337 = VERTEX_POINT ( 'NONE', #378 ) ;
#338 = LINE ( 'NONE', #204, #325 ) ;
#339 = ADVANCED_FACE ( 'NONE', ( #123, #302 ), #158, .T. ) ;
#340 = APPROVAL_ROLE ( '' ) ;
#341 = ORIENTED_EDGE ( 'NONE', *, *, #136, .T. ) ;
#342 = CARTESIAN_POINT ( 'NONE',  ( 0.000000000000000000, 0.000000000000000000, 100.0000000000000000 ) ) ;
#343 = VERTEX_POINT ( 'NONE', #561 ) ;
#344 = DIRECTION ( 'NONE',  ( -0.000000000000000000, -0.000000000000000000, -1.000000000000000000 ) ) ;
#345 = CC_DESIGN_PERSON_AND_ORGANIZATION_ASSIGNMENT ( #264, #121, ( #491 ) ) ;
#346 = EDGE_CURVE ( 'NONE', #28, #519, #231, .T. ) ;
#347 = ORIENTED_EDGE ( 'NONE', *, *, #224, .F. ) ;
#348 = CARTESIAN_POINT ( 'NONE',  ( 0.000000000000000000, 0.000000000000000000, 92.00000000000000000 ) ) ;
#349 = ORIENTED_EDGE ( 'NONE', *, *, #261, .F. ) ;
#350 = VERTEX_POINT ( 'NONE', #80 ) ;
#351 = CARTESIAN_POINT ( 'NONE',  ( 7.000000000000000000, 8.572527594031473190E-16, 8.000000000000000000 ) ) ;
#352 = ORIENTED_EDGE ( 'NONE', *, *, #260, .F. ) ;
#353 = AXIS2_PLACEMENT_3D ( 'NONE', #319, #273, #471 ) ;
#354 = CIRCLE ( 'NONE', #102, 7.000000000000000000 ) ;
#355 = CARTESIAN_POINT ( 'NONE',  ( 0.000000000000000000, 0.000000000000000000, 100.0000000000000000 ) ) ;
#356 = DIRECTION ( 'NONE',  ( 0.000000000000000000, 0.000000000000000000, -1.000000000000000000 ) ) ;
#357 = EDGE_CURVE ( 'NONE', #214, #235, #338, .T. ) ;
#358 = ORIENTED_EDGE ( 'NONE', *, *, #321, .T. ) ;
#359 = EDGE_CURVE ( 'NONE', #343, #519, #167, .T. ) ;
#360 = AXIS2_PLACEMENT_3D ( 'NONE', #164, #149, #513 ) ;
#361 = CARTESIAN_POINT ( 'NONE',  ( 11.25000000000000178, 0.000000000000000000, 92.00000000000000000 ) ) ;
#362 = LINE ( 'NONE', #225, #364 ) ;
#363 = CARTESIAN_POINT ( 'NONE',  ( 0.000000000000000000, 0.000000000000000000, 92.00000000000000000 ) ) ;
#364 = VECTOR ( 'NONE', #11, 1000.000000000000000 ) ;
#365 = CYLINDRICAL_SURFACE ( 'NONE', #278, 11.25000000000000178 ) ;
#366 = CC_DESIGN_PERSON_AND_ORGANIZATION_ASSIGNMENT ( #31, #75, ( #458 ) ) ;
#367 = DIRECTION ( 'NONE',  ( 0.000000000000000000, 0.000000000000000000, -1.000000000000000000 ) ) ;
#368 = DATE_AND_TIME ( #152, #269 ) ;
#369 = ORIENTED_EDGE ( 'NONE', *, *, #260, .T. ) ;
#370 = CARTESIAN_POINT ( 'NONE',  ( -5.000000000000000000, 0.000000000000000000, 7.150000000000003908 ) ) ;
#371 = CARTESIAN_POINT ( 'NONE',  ( 7.000000000000000000, 0.000000000000000000, 92.85000000000000853 ) ) ;
#372 = PERSON_AND_ORGANIZATION ( #271, #518 ) ;
#373 = ORIENTED_EDGE ( 'NONE', *, *, #182, .F. ) ;
#374 = CARTESIAN_POINT ( 'NONE',  ( 0.000000000000000000, 0.000000000000000000, 92.85000000000000853 ) ) ;
#375 = CC_DESIGN_SECURITY_CLASSIFICATION ( #458, ( #411 ) ) ;
#376 = CARTESIAN_POINT ( 'NONE',  ( -27.10000000000000142, 0.000000000000000000, 100.0000000000000000 ) ) ;
#377 = ADVANCED_FACE ( 'NONE', ( #200 ), #462, .T. ) ;
#378 = CARTESIAN_POINT ( 'NONE',  ( 11.25000000000000178, 0.000000000000000000, 92.00000000000000000 ) ) ;
#379 = AXIS2_PLACEMENT_3D ( 'NONE', #234, #69, #279 ) ;
#380 = DIRECTION ( 'NONE',  ( 0.000000000000000000, 0.000000000000000000, -1.000000000000000000 ) ) ;
#381 = ORIENTED_EDGE ( 'NONE', *, *, #420, .T. ) ;
#382 = DIRECTION ( 'NONE',  ( -0.000000000000000000, -0.000000000000000000, -1.000000000000000000 ) ) ;
#383 = VERTEX_POINT ( 'NONE', #29 ) ;
#384 = DIRECTION ( 'NONE',  ( 0.000000000000000000, 0.000000000000000000, 1.000000000000000000 ) ) ;
#385 = EDGE_CURVE ( 'NONE', #248, #3, #96, .T. ) ;
#386 = ORIENTED_EDGE ( 'NONE', *, *, #83, .T. ) ;
#387 = LOCAL_TIME ( 15, 47, 41.00000000000000000, #24 ) ;
#388 = DIRECTION ( 'NONE',  ( 1.000000000000000000, 0.000000000000000000, 0.000000000000000000 ) ) ;
#389 = CC_DESIGN_PERSON_AND_ORGANIZATION_ASSIGNMENT ( #70, #196, ( #411 ) ) ;
#390 = AXIS2_PLACEMENT_3D ( 'NONE', #318, #51, #486 ) ;
#391 = ORIENTED_EDGE ( 'NONE', *, *, #326, .F. ) ;
#392 = CARTESIAN_POINT ( 'NONE',  ( 0.000000000000000000, 0.000000000000000000, 92.85000000000000853 ) ) ;
#393 = APPLICATION_CONTEXT ( 'configuration controlled 3d designs of mechanical parts and assemblies' ) ;
#394 = ORIENTED_EDGE ( 'NONE', *, *, #161, .F. ) ;
#395 = DIRECTION ( 'NONE',  ( 0.000000000000000000, -0.000000000000000000, -1.000000000000000000 ) ) ;
#396 = EDGE_LOOP ( 'NONE', ( #423, #262 ) ) ;
#397 = ADVANCED_FACE ( 'NONE', ( #114 ), #293, .F. ) ;
#398 = CC_DESIGN_APPROVAL ( #143, ( #241 ) ) ;
#399 = LINE ( 'NONE', #322, #150 ) ;
#400 = CYLINDRICAL_SURFACE ( 'NONE', #154, 7.000000000000000000 ) ;
#401 = CYLINDRICAL_SURFACE ( 'NONE', #194, 5.000000000000000000 ) ;
#402 = ADVANCED_FACE ( 'NONE', ( #208 ), #426, .T. ) ;
#403 = EDGE_LOOP ( 'NONE', ( #49, #133, #521, #170 ) ) ;
#404 = DIRECTION ( 'NONE',  ( 0.000000000000000000, 0.000000000000000000, 1.000000000000000000 ) ) ;
#405 = CYLINDRICAL_SURFACE ( 'NONE', #510, 11.24999999999999822 ) ;
#406 = DIRECTION ( 'NONE',  ( -0.000000000000000000, -0.000000000000000000, 1.000000000000000000 ) ) ;
#407 = APPROVAL_STATUS ( 'not_yet_approved' ) ;
#408 = ORIENTED_EDGE ( 'NONE', *, *, #16, .F. ) ;
#409 = PRODUCT_RELATED_PRODUCT_CATEGORY ( 'detail', '', ( #491 ) ) ;
#410 = DIRECTION ( 'NONE',  ( 0.000000000000000000, 0.000000000000000000, 1.000000000000000000 ) ) ;
#411 = PRODUCT_DEFINITION_FORMATION_WITH_SPECIFIED_SOURCE ( 'ANY', '', #491, .NOT_KNOWN. ) ;
#412 = DIRECTION ( 'NONE',  ( -0.000000000000000000, -0.000000000000000000, 1.000000000000000000 ) ) ;
#413 = APPROVAL_STATUS ( 'not_yet_approved' ) ;
#414 = ORIENTED_EDGE ( 'NONE', *, *, #547, .F. ) ;
#415 = CARTESIAN_POINT ( 'NONE',  ( -7.000000000000000000, 0.000000000000000000, 8.000000000000000000 ) ) ;
#416 = CARTESIAN_POINT ( 'NONE',  ( 5.000000000000000000, 6.123233995736766282E-16, 7.150000000000003908 ) ) ;
#417 = APPROVAL_DATE_TIME ( #107, #128 ) ;
#418 = EDGE_LOOP ( 'NONE', ( #470, #229 ) ) ;
#419 = CARTESIAN_POINT ( 'NONE',  ( 0.000000000000000000, 0.000000000000000000, 8.000000000000000000 ) ) ;
#420 = EDGE_CURVE ( 'NONE', #329, #32, #253, .T. ) ;
#421 = FACE_BOUND ( 'NONE', #396, .T. ) ;
#422 = DATE_AND_TIME ( #508, #387 ) ;
#423 = ORIENTED_EDGE ( 'NONE', *, *, #321, .F. ) ;
#424 = DIRECTION ( 'NONE',  ( -1.000000000000000000, 0.000000000000000000, 0.000000000000000000 ) ) ;
#425 = FACE_OUTER_BOUND ( 'NONE', #88, .T. ) ;
#426 = CYLINDRICAL_SURFACE ( 'NONE', #48, 7.000000000000000000 ) ;
#427 = CIRCLE ( 'NONE', #242, 11.24999999999999822 ) ;
#428 = VECTOR ( 'NONE', #406, 1000.000000000000000 ) ;
#429 = ORIENTED_EDGE ( 'NONE', *, *, #385, .F. ) ;
#430 = EDGE_CURVE ( 'NONE', #153, #28, #37, .T. ) ;
#431 = FACE_OUTER_BOUND ( 'NONE', #418, .T. ) ;
#432 = AXIS2_PLACEMENT_3D ( 'NONE', #483, #395, #41 ) ;
#433 = ORIENTED_EDGE ( 'NONE', *, *, #94, .F. ) ;
#434 = DIRECTION ( 'NONE',  ( 0.000000000000000000, 0.000000000000000000, 1.000000000000000000 ) ) ;
#435 = ORIENTED_EDGE ( 'NONE', *, *, #461, .F. ) ;
#436 = CARTESIAN_POINT ( 'NONE',  ( 11.25000000000000178, 0.000000000000000000, 100.0000000000000000 ) ) ;
#437 = CLOSED_SHELL ( 'NONE', ( #377, #56, #233, #189, #275, #124, #177, #43, #239, #95, #504, #298, #115, #502, #463, #397, #339, #402 ) ) ;
#438 = AXIS2_PLACEMENT_3D ( 'NONE', #246, #384, #163 ) ;
#439 = ORIENTED_EDGE ( 'NONE', *, *, #2, .T. ) ;
#440 = CARTESIAN_POINT ( 'NONE',  ( 7.000000000000000000, 0.000000000000000000, 92.00000000000000000 ) ) ;
#441 = EDGE_CURVE ( 'NONE', #62, #32, #541, .T. ) ;
#442 = EDGE_LOOP ( 'NONE', ( #207, #162, #85, #7 ) ) ;
#443 = CARTESIAN_POINT ( 'NONE',  ( 0.000000000000000000, 0.000000000000000000, 8.000000000000000000 ) ) ;
#444 = DIRECTION ( 'NONE',  ( 1.000000000000000000, 0.000000000000000000, 0.000000000000000000 ) ) ;
#445 = CARTESIAN_POINT ( 'NONE',  ( 0.000000000000000000, 0.000000000000000000, 92.00000000000000000 ) ) ;
#446 = DIRECTION ( 'NONE',  ( 1.000000000000000000, 0.000000000000000000, -0.000000000000000000 ) ) ;
#447 = CIRCLE ( 'NONE', #522, 11.25000000000000178 ) ;
#448 = DESIGN_CONTEXT ( 'detailed design', #393, 'design' ) ;
#449 = CARTESIAN_POINT ( 'NONE',  ( 0.000000000000000000, 0.000000000000000000, 92.00000000000000000 ) ) ;
#450 = CARTESIAN_POINT ( 'NONE',  ( 0.000000000000000000, 0.000000000000000000, 92.00000000000000000 ) ) ;
#451 = DIRECTION ( 'NONE',  ( -0.000000000000000000, -0.000000000000000000, 1.000000000000000000 ) ) ;
#452 = CIRCLE ( 'NONE', #528, 11.25000000000000178 ) ;
#453 = AXIS2_PLACEMENT_3D ( 'NONE', #201, #330, #199 ) ;
#454 = CARTESIAN_POINT ( 'NONE',  ( -11.24999999999999822, 0.000000000000000000, 0.000000000000000000 ) ) ;
#455 = DIRECTION ( 'NONE',  ( -0.000000000000000000, -0.000000000000000000, -1.000000000000000000 ) ) ;
#456 = ORIENTED_EDGE ( 'NONE', *, *, #547, .T. ) ;
#457 = CARTESIAN_POINT ( 'NONE',  ( 0.000000000000000000, 0.000000000000000000, 92.00000000000000000 ) ) ;
#458 = SECURITY_CLASSIFICATION ( '', '', #295 ) ;
#459 = LINE ( 'NONE', #27, #310 ) ;
#460 = AXIS2_PLACEMENT_3D ( 'NONE', #324, #64, #106 ) ;
#461 = EDGE_CURVE ( 'NONE', #350, #530, #447, .T. ) ;
#462 = CYLINDRICAL_SURFACE ( 'NONE', #118, 7.000000000000000000 ) ;
#463 = ADVANCED_FACE ( 'NONE', ( #240, #431 ), #39, .T. ) ;
#464 = DIRECTION ( 'NONE',  ( 1.000000000000000000, 0.000000000000000000, 0.000000000000000000 ) ) ;
#465 = VERTEX_POINT ( 'NONE', #370 ) ;
#466 = DIRECTION ( 'NONE',  ( -1.000000000000000000, 0.000000000000000000, 0.000000000000000000 ) ) ;
#467 = DIRECTION ( 'NONE',  ( -1.000000000000000000, 0.000000000000000000, 0.000000000000000000 ) ) ;
#468 = EDGE_LOOP ( 'NONE', ( #309, #129 ) ) ;
#469 = DIRECTION ( 'NONE',  ( -0.000000000000000000, -0.000000000000000000, -1.000000000000000000 ) ) ;
#470 = ORIENTED_EDGE ( 'NONE', *, *, #161, .T. ) ;
#471 = DIRECTION ( 'NONE',  ( -1.000000000000000000, 0.000000000000000000, 0.000000000000000000 ) ) ;
#472 = CC_DESIGN_PERSON_AND_ORGANIZATION_ASSIGNMENT ( #291, #117, ( #411 ) ) ;
#473 = EDGE_LOOP ( 'NONE', ( #352, #71, #386, #373 ) ) ;
#474 = CARTESIAN_POINT ( 'NONE',  ( -27.10000000000000142, 0.000000000000000000, 100.0000000000000000 ) ) ;
#475 = ORIENTED_EDGE ( 'NONE', *, *, #357, .F. ) ;
#476 = ORIENTED_EDGE ( 'NONE', *, *, #543, .T. ) ;
#477 = CARTESIAN_POINT ( 'NONE',  ( 0.000000000000000000, 0.000000000000000000, 92.85000000000000853 ) ) ;
#478 = EDGE_CURVE ( 'NONE', #221, #62, #140, .T. ) ;
#479 = CIRCLE ( 'NONE', #180, 5.000000000000000000 ) ;
#480 = ORIENTED_EDGE ( 'NONE', *, *, #441, .F. ) ;
#481 = DIRECTION ( 'NONE',  ( 0.000000000000000000, 0.000000000000000000, 1.000000000000000000 ) ) ;
#482 = FACE_OUTER_BOUND ( 'NONE', #137, .T. ) ;
#483 = CARTESIAN_POINT ( 'NONE',  ( 0.000000000000000000, 0.000000000000000000, 92.85000000000000853 ) ) ;
#484 = EDGE_LOOP ( 'NONE', ( #347, #435 ) ) ;
#485 = EDGE_CURVE ( 'NONE', #524, #505, #354, .T. ) ;
#486 = DIRECTION ( 'NONE',  ( -1.000000000000000000, 0.000000000000000000, 0.000000000000000000 ) ) ;
#487 = CC_DESIGN_DATE_AND_TIME_ASSIGNMENT ( #368, #328, ( #241 ) ) ;
#488 = AXIS2_PLACEMENT_3D ( 'NONE', #171, #469, #72 ) ;
#489 = CARTESIAN_POINT ( 'NONE',  ( -5.000000000000000000, 0.000000000000000000, 100.0000000000000000 ) ) ;
#490 = FACE_OUTER_BOUND ( 'NONE', #296, .T. ) ;
#491 = PRODUCT ( 'EDM Bambu Inner Spool With Bearings', 'EDM Bambu Inner Spool With Bearings', '', ( #306 ) ) ;
#492 = EDGE_CURVE ( 'NONE', #214, #238, #82, .T. ) ;
#493 = FACE_OUTER_BOUND ( 'NONE', #442, .T. ) ;
#494 = CIRCLE ( 'NONE', #277, 27.10000000000000142 ) ;
#495 = CIRCLE ( 'NONE', #560, 27.10000000000000142 ) ;
#496 = FACE_OUTER_BOUND ( 'NONE', #255, .T. ) ;
#497 = APPROVAL_ROLE ( '' ) ;
#498 = AXIS2_PLACEMENT_3D ( 'NONE', #477, #134, #311 ) ;
#499 = EDGE_LOOP ( 'NONE', ( #81, #567 ) ) ;
#500 = ADVANCED_BREP_SHAPE_REPRESENTATION ( 'EDM Bambu Inner Spool With Bearings', ( #138, #91 ), #192 ) ;
#501 = DIRECTION ( 'NONE',  ( -0.000000000000000000, -0.000000000000000000, -1.000000000000000000 ) ) ;
#502 = ADVANCED_FACE ( 'NONE', ( #534 ), #400, .T. ) ;
#503 = APPLICATION_PROTOCOL_DEFINITION ( 'international standard', 'config_control_design', 1994, #393 ) ;
#504 = ADVANCED_FACE ( 'NONE', ( #220, #6 ), #267, .T. ) ;
#505 = VERTEX_POINT ( 'NONE', #527 ) ;
#506 = DIRECTION ( 'NONE',  ( -0.000000000000000000, -0.000000000000000000, -1.000000000000000000 ) ) ;
#507 = FACE_OUTER_BOUND ( 'NONE', #20, .T. ) ;
#508 = CALENDAR_DATE ( 2026, 30, 5 ) ;
#509 = ORIENTED_EDGE ( 'NONE', *, *, #284, .T. ) ;
#510 = AXIS2_PLACEMENT_3D ( 'NONE', #97, #181, #542 ) ;
#511 = CIRCLE ( 'NONE', #263, 7.000000000000000000 ) ;
#512 = DIRECTION ( 'NONE',  ( 1.000000000000000000, 0.000000000000000000, 0.000000000000000000 ) ) ;
#513 = DIRECTION ( 'NONE',  ( -1.000000000000000000, 0.000000000000000000, 0.000000000000000000 ) ) ;
#514 = DATE_TIME_ROLE ( 'classification_date' ) ;
#515 = DIRECTION ( 'NONE',  ( 0.000000000000000000, 0.000000000000000000, -1.000000000000000000 ) ) ;
#516 = ORIENTED_EDGE ( 'NONE', *, *, #284, .F. ) ;
#517 = CARTESIAN_POINT ( 'NONE',  ( 0.000000000000000000, 0.000000000000000000, 0.000000000000000000 ) ) ;
#518 = ORGANIZATION ( 'UNSPECIFIED', 'UNSPECIFIED', '' ) ;
#519 = VERTEX_POINT ( 'NONE', #568 ) ;
#520 = DIRECTION ( 'NONE',  ( -0.000000000000000000, -0.000000000000000000, -1.000000000000000000 ) ) ;
#521 = ORIENTED_EDGE ( 'NONE', *, *, #326, .T. ) ;
#522 = AXIS2_PLACEMENT_3D ( 'NONE', #342, #300, #256 ) ;
#523 = EDGE_CURVE ( 'NONE', #238, #214, #303, .T. ) ;
#524 = VERTEX_POINT ( 'NONE', #440 ) ;
#525 = DIRECTION ( 'NONE',  ( 1.000000000000000000, 0.000000000000000000, 0.000000000000000000 ) ) ;
#526 = EDGE_LOOP ( 'NONE', ( #285, #304 ) ) ;
#527 = CARTESIAN_POINT ( 'NONE',  ( -7.000000000000000000, 8.572527594031473190E-16, 92.00000000000000000 ) ) ;
#528 = AXIS2_PLACEMENT_3D ( 'NONE', #183, #404, #540 ) ;
#529 = AXIS2_PLACEMENT_3D ( 'NONE', #195, #66, #190 ) ;
#530 = VERTEX_POINT ( 'NONE', #436 ) ;
#531 = DIRECTION ( 'NONE',  ( 1.000000000000000000, 0.000000000000000000, 0.000000000000000000 ) ) ;
#532 = AXIS2_PLACEMENT_3D ( 'NONE', #26, #210, #197 ) ;
#533 = FACE_BOUND ( 'NONE', #526, .T. ) ;
#534 = FACE_OUTER_BOUND ( 'NONE', #473, .T. ) ;
#535 = UNCERTAINTY_MEASURE_WITH_UNIT (LENGTH_MEASURE( 1.000000000000000082E-05 ), #50, 'distance_accuracy_value', 'NONE');
#536 = FACE_BOUND ( 'NONE', #484, .T. ) ;
#537 = LOCAL_TIME ( 15, 47, 41.00000000000000000, #202 ) ;
#538 = AXIS2_PLACEMENT_3D ( 'NONE', #101, #367, #548 ) ;
#539 = AXIS2_PLACEMENT_3D ( 'NONE', #552, #110, #464 ) ;
#540 = DIRECTION ( 'NONE',  ( 1.000000000000000000, 0.000000000000000000, 0.000000000000000000 ) ) ;
#541 = CIRCLE ( 'NONE', #198, 7.000000000000000000 ) ;
#542 = DIRECTION ( 'NONE',  ( -1.000000000000000000, 0.000000000000000000, 0.000000000000000000 ) ) ;
#543 = EDGE_CURVE ( 'NONE', #113, #337, #54, .T. ) ;
#544 = FACE_OUTER_BOUND ( 'NONE', #563, .T. ) ;
#545 = CARTESIAN_POINT ( 'NONE',  ( 0.000000000000000000, 0.000000000000000000, 100.0000000000000000 ) ) ;
#546 = CALENDAR_DATE ( 2026, 30, 5 ) ;
#547 = EDGE_CURVE ( 'NONE', #383, #259, #99, .T. ) ;
#548 = DIRECTION ( 'NONE',  ( -1.000000000000000000, 0.000000000000000000, 0.000000000000000000 ) ) ;
#549 = APPROVAL_STATUS ( 'not_yet_approved' ) ;
#550 = VECTOR ( 'NONE', #382, 1000.000000000000000 ) ;
#551 = DIRECTION ( 'NONE',  ( -1.000000000000000000, 0.000000000000000000, -0.000000000000000000 ) ) ;
#552 = CARTESIAN_POINT ( 'NONE',  ( 0.000000000000000000, 0.000000000000000000, 92.85000000000000853 ) ) ;
#553 = DATE_AND_TIME ( #546, #323 ) ;
#554 = ORIENTED_EDGE ( 'NONE', *, *, #94, .T. ) ;
#555 = DIRECTION ( 'NONE',  ( -1.000000000000000000, 0.000000000000000000, 0.000000000000000000 ) ) ;
#556 = CC_DESIGN_APPROVAL ( #314, ( #411 ) ) ;
#557 = CARTESIAN_POINT ( 'NONE',  ( 0.000000000000000000, 0.000000000000000000, 7.150000000000000355 ) ) ;
#558 = SHAPE_DEFINITION_REPRESENTATION ( #148, #500 ) ;
#559 = ORIENTED_EDGE ( 'NONE', *, *, #73, .F. ) ;
#560 = AXIS2_PLACEMENT_3D ( 'NONE', #286, #410, #63 ) ;
#561 = CARTESIAN_POINT ( 'NONE',  ( 27.10000000000000142, 3.318792825689327485E-15, 100.0000000000000000 ) ) ;
#562 = PERSON_AND_ORGANIZATION ( #271, #518 ) ;
#563 = EDGE_LOOP ( 'NONE', ( #414, #292, #341, #433 ) ) ;
#564 = CARTESIAN_POINT ( 'NONE',  ( 0.000000000000000000, 0.000000000000000000, 7.150000000000000355 ) ) ;
#565 = ORIENTED_EDGE ( 'NONE', *, *, #16, .T. ) ;
#566 = DIRECTION ( 'NONE',  ( -1.000000000000000000, 0.000000000000000000, 0.000000000000000000 ) ) ;
#567 = ORIENTED_EDGE ( 'NONE', *, *, #492, .T. ) ;
#568 = CARTESIAN_POINT ( 'NONE',  ( 27.10000000000000142, 3.318792825689327485E-15, 0.000000000000000000 ) ) ;
#569 = VECTOR ( 'NONE', #92, 1000.000000000000000 ) ;
ENDSEC;
END-ISO-10303-21;
