ISO-10303-21;
HEADER;
FILE_DESCRIPTION (( 'STEP AP203' ),
    '1' );
FILE_NAME ('EDM Spool B-half.STEP',
    '2026-05-30T22:41:08',
    ( '' ),
    ( '' ),
    'SwSTEP 2.0',
    'SolidWorks 2024',
    '' );
FILE_SCHEMA (( 'CONFIG_CONTROL_DESIGN' ));
ENDSEC;

DATA;
#1 = CARTESIAN_POINT ( 'NONE',  ( -21.64999999999999503, 2.651360320154018876E-15, 66.80000000000001137 ) ) ;
#2 = DIRECTION ( 'NONE',  ( -0.000000000000000000, 0.000000000000000000, 1.000000000000000000 ) ) ;
#3 = ORIENTED_EDGE ( 'NONE', *, *, #368, .T. ) ;
#4 = VECTOR ( 'NONE', #230, 1000.000000000000000 ) ;
#5 = EDGE_CURVE ( 'NONE', #157, #197, #104, .T. ) ;
#6 = DIRECTION ( 'NONE',  ( -0.000000000000000000, 0.000000000000000000, 1.000000000000000000 ) ) ;
#7 = ORIENTED_EDGE ( 'NONE', *, *, #185, .T. ) ;
#8 = DIRECTION ( 'NONE',  ( 1.000000000000000000, 0.000000000000000000, 0.000000000000000000 ) ) ;
#9 = CC_DESIGN_APPROVAL ( #463, ( #410 ) ) ;
#10 = EDGE_LOOP ( 'NONE', ( #427, #7 ) ) ;
#11 = FACE_OUTER_BOUND ( 'NONE', #195, .T. ) ;
#12 = ORIENTED_EDGE ( 'NONE', *, *, #5, .F. ) ;
#13 = CIRCLE ( 'NONE', #461, 60.00000000000000000 ) ;
#14 = CARTESIAN_POINT ( 'NONE',  ( 60.00000000000000000, 7.347880794884118356E-15, 80.00000000000000000 ) ) ;
#15 = ORIENTED_EDGE ( 'NONE', *, *, #434, .T. ) ;
#16 = ADVANCED_FACE ( 'NONE', ( #168 ), #136, .F. ) ;
#17 = CARTESIAN_POINT ( 'NONE',  ( 0.000000000000000000, 0.000000000000000000, 70.00000000000000000 ) ) ;
#18 = LOCAL_TIME ( 15, 41, 8.000000000000000000, #435 ) ;
#19 = VECTOR ( 'NONE', #105, 1000.000000000000000 ) ;
#20 = ORIENTED_EDGE ( 'NONE', *, *, #207, .T. ) ;
#21 = DATE_AND_TIME ( #64, #18 ) ;
#22 = ADVANCED_FACE ( 'NONE', ( #293 ), #431, .F. ) ;
#23 = CARTESIAN_POINT ( 'NONE',  ( 24.14999999999999858, 2.957522019940857930E-15, 70.00000000000000000 ) ) ;
#24 = PLANE ( 'NONE',  #223 ) ;
#25 = DIRECTION ( 'NONE',  ( -1.000000000000000000, 0.000000000000000000, 0.000000000000000000 ) ) ;
#26 = DATE_AND_TIME ( #99, #483 ) ;
#27 = CARTESIAN_POINT ( 'NONE',  ( 24.14999999999999858, 2.957522019940857930E-15, 70.00000000000000000 ) ) ;
#28 = CARTESIAN_POINT ( 'NONE',  ( 8.400000000000000355, 1.028703311283776783E-15, 80.00000000000000000 ) ) ;
#29 = CIRCLE ( 'NONE', #123, 8.400000000000000355 ) ;
#30 = VERTEX_POINT ( 'NONE', #360 ) ;
#31 = DIRECTION ( 'NONE',  ( 0.000000000000000000, 0.000000000000000000, 1.000000000000000000 ) ) ;
#32 = AXIS2_PLACEMENT_3D ( 'NONE', #300, #484, #218 ) ;
#33 = APPROVAL ( #211, 'UNSPECIFIED' ) ;
#34 = CC_DESIGN_SECURITY_CLASSIFICATION ( #317, ( #410 ) ) ;
#35 = APPROVAL_STATUS ( 'not_yet_approved' ) ;
#36 = DIRECTION ( 'NONE',  ( 1.000000000000000000, 0.000000000000000000, 0.000000000000000000 ) ) ;
#37 = DATE_AND_TIME ( #181, #250 ) ;
#38 = EDGE_CURVE ( 'NONE', #30, #226, #280, .T. ) ;
#39 = CARTESIAN_POINT ( 'NONE',  ( 0.000000000000000000, 0.000000000000000000, 66.80000000000001137 ) ) ;
#40 = DIRECTION ( 'NONE',  ( 0.000000000000000000, 0.000000000000000000, 1.000000000000000000 ) ) ;
#41 = LINE ( 'NONE', #234, #274 ) ;
#42 = AXIS2_PLACEMENT_3D ( 'NONE', #17, #103, #25 ) ;
#43 = FACE_OUTER_BOUND ( 'NONE', #57, .T. ) ;
#44 = ORIENTED_EDGE ( 'NONE', *, *, #193, .F. ) ;
#45 = VECTOR ( 'NONE', #109, 1000.000000000000000 ) ;
#46 = DIRECTION ( 'NONE',  ( 0.000000000000000000, 0.000000000000000000, 1.000000000000000000 ) ) ;
#47 = VERTEX_POINT ( 'NONE', #202 ) ;
#48 = CC_DESIGN_DATE_AND_TIME_ASSIGNMENT ( #26, #440, ( #212 ) ) ;
#49 = DIRECTION ( 'NONE',  ( -0.000000000000000000, 0.000000000000000000, 1.000000000000000000 ) ) ;
#50 = VERTEX_POINT ( 'NONE', #358 ) ;
#51 = AXIS2_PLACEMENT_3D ( 'NONE', #323, #65, #365 ) ;
#52 = DIRECTION ( 'NONE',  ( -1.000000000000000000, 0.000000000000000000, 0.000000000000000000 ) ) ;
#53 = EDGE_CURVE ( 'NONE', #54, #399, #166, .T. ) ;
#54 = VERTEX_POINT ( 'NONE', #23 ) ;
#55 = AXIS2_PLACEMENT_3D ( 'NONE', #84, #164, #228 ) ;
#56 = FACE_BOUND ( 'NONE', #289, .T. ) ;
#57 = EDGE_LOOP ( 'NONE', ( #319, #329, #467, #383 ) ) ;
#58 = DIRECTION ( 'NONE',  ( 0.000000000000000000, 0.000000000000000000, 1.000000000000000000 ) ) ;
#59 = CARTESIAN_POINT ( 'NONE',  ( 8.400000000000000355, 1.028703311283776783E-15, 80.00000000000000000 ) ) ;
#60 = EDGE_CURVE ( 'NONE', #131, #30, #208, .T. ) ;
#61 = APPROVAL_ROLE ( '' ) ;
#62 = DIRECTION ( 'NONE',  ( 0.000000000000000000, 0.000000000000000000, 1.000000000000000000 ) ) ;
#63 = CARTESIAN_POINT ( 'NONE',  ( 0.000000000000000000, 0.000000000000000000, 70.00000000000000000 ) ) ;
#64 = CALENDAR_DATE ( 2026, 30, 5 ) ;
#65 = DIRECTION ( 'NONE',  ( -0.000000000000000000, -0.000000000000000000, -1.000000000000000000 ) ) ;
#66 =( GEOMETRIC_REPRESENTATION_CONTEXT ( 3 ) GLOBAL_UNCERTAINTY_ASSIGNED_CONTEXT ( ( #268 ) ) GLOBAL_UNIT_ASSIGNED_CONTEXT ( ( #327, #321, #247 ) ) REPRESENTATION_CONTEXT ( 'NONE', 'WORKASPACE' ) );
#67 = CARTESIAN_POINT ( 'NONE',  ( 21.64999999999999503, 0.000000000000000000, 66.80000000000001137 ) ) ;
#68 = APPROVAL_DATE_TIME ( #37, #463 ) ;
#69 = DIRECTION ( 'NONE',  ( 0.000000000000000000, -0.000000000000000000, -1.000000000000000000 ) ) ;
#70 = AXIS2_PLACEMENT_3D ( 'NONE', #303, #415, #466 ) ;
#71 = CARTESIAN_POINT ( 'NONE',  ( -8.400000000000000355, 0.000000000000000000, 70.00000000000000000 ) ) ;
#72 = CIRCLE ( 'NONE', #32, 60.00000000000000000 ) ;
#73 = EDGE_CURVE ( 'NONE', #54, #90, #129, .T. ) ;
#74 = CARTESIAN_POINT ( 'NONE',  ( 0.000000000000000000, 0.000000000000000000, 80.00000000000000000 ) ) ;
#75 = DIRECTION ( 'NONE',  ( 0.000000000000000000, 0.000000000000000000, 1.000000000000000000 ) ) ;
#76 = CIRCLE ( 'NONE', #70, 21.64999999999999503 ) ;
#77 = CYLINDRICAL_SURFACE ( 'NONE', #176, 8.400000000000000355 ) ;
#78 = CC_DESIGN_APPROVAL ( #33, ( #317 ) ) ;
#79 = DIRECTION ( 'NONE',  ( 1.000000000000000000, 0.000000000000000000, 0.000000000000000000 ) ) ;
#80 = ORIENTED_EDGE ( 'NONE', *, *, #173, .T. ) ;
#81 = CARTESIAN_POINT ( 'NONE',  ( -20.30000000000000426, 0.000000000000000000, 70.00000000000000000 ) ) ;
#82 = CC_DESIGN_DATE_AND_TIME_ASSIGNMENT ( #214, #146, ( #317 ) ) ;
#83 = VERTEX_POINT ( 'NONE', #433 ) ;
#84 = CARTESIAN_POINT ( 'NONE',  ( 0.000000000000000000, 0.000000000000000000, 70.00000000000000000 ) ) ;
#85 = ORIENTED_EDGE ( 'NONE', *, *, #353, .F. ) ;
#86 = ADVANCED_FACE ( 'NONE', ( #98 ), #476, .T. ) ;
#87 = DIRECTION ( 'NONE',  ( -1.000000000000000000, 0.000000000000000000, 0.000000000000000000 ) ) ;
#88 = ORIENTED_EDGE ( 'NONE', *, *, #193, .T. ) ;
#89 = DIRECTION ( 'NONE',  ( 1.000000000000000000, 0.000000000000000000, 0.000000000000000000 ) ) ;
#90 = VERTEX_POINT ( 'NONE', #367 ) ;
#91 = AXIS2_PLACEMENT_3D ( 'NONE', #409, #40, #370 ) ;
#92 = FACE_OUTER_BOUND ( 'NONE', #240, .T. ) ;
#93 = DIRECTION ( 'NONE',  ( -0.000000000000000000, -0.000000000000000000, -1.000000000000000000 ) ) ;
#94 = ADVANCED_FACE ( 'NONE', ( #341, #113 ), #254, .F. ) ;
#95 = DIRECTION ( 'NONE',  ( 0.000000000000000000, 0.000000000000000000, 1.000000000000000000 ) ) ;
#96 = EDGE_LOOP ( 'NONE', ( #119, #20, #392, #121 ) ) ;
#97 = CARTESIAN_POINT ( 'NONE',  ( 0.000000000000000000, 0.000000000000000000, 0.000000000000000000 ) ) ;
#98 = FACE_OUTER_BOUND ( 'NONE', #204, .T. ) ;
#99 = CALENDAR_DATE ( 2026, 30, 5 ) ;
#100 = AXIS2_PLACEMENT_3D ( 'NONE', #190, #120, #345 ) ;
#101 = EDGE_LOOP ( 'NONE', ( #251, #160 ) ) ;
#102 = APPROVAL_ROLE ( '' ) ;
#103 = DIRECTION ( 'NONE',  ( -0.000000000000000000, -0.000000000000000000, -1.000000000000000000 ) ) ;
#104 = CIRCLE ( 'NONE', #361, 60.00000000000000000 ) ;
#105 = DIRECTION ( 'NONE',  ( -0.000000000000000000, -0.000000000000000000, -1.000000000000000000 ) ) ;
#106 = PLANE ( 'NONE',  #346 ) ;
#107 = EDGE_CURVE ( 'NONE', #313, #47, #412, .T. ) ;
#108 = PERSON_AND_ORGANIZATION ( #271, #277 ) ;
#109 = DIRECTION ( 'NONE',  ( -0.000000000000000000, -0.000000000000000000, 1.000000000000000000 ) ) ;
#110 = DIRECTION ( 'NONE',  ( 1.000000000000000000, 0.000000000000000000, 0.000000000000000000 ) ) ;
#111 = CLOSED_SHELL ( 'NONE', ( #335, #374, #314, #414, #16, #22, #243, #441, #474, #221, #450, #159, #94, #86, #259 ) ) ;
#112 = ORIENTED_EDGE ( 'NONE', *, *, #359, .T. ) ;
#113 = FACE_OUTER_BOUND ( 'NONE', #344, .T. ) ;
#114 = AXIS2_PLACEMENT_3D ( 'NONE', #315, #2, #350 ) ;
#115 = FACE_OUTER_BOUND ( 'NONE', #96, .T. ) ;
#116 = EDGE_LOOP ( 'NONE', ( #458, #479 ) ) ;
#117 = CC_DESIGN_PERSON_AND_ORGANIZATION_ASSIGNMENT ( #426, #127, ( #349 ) ) ;
#118 = CYLINDRICAL_SURFACE ( 'NONE', #238, 60.00000000000000000 ) ;
#119 = ORIENTED_EDGE ( 'NONE', *, *, #185, .F. ) ;
#120 = DIRECTION ( 'NONE',  ( -0.000000000000000000, -0.000000000000000000, -1.000000000000000000 ) ) ;
#121 = ORIENTED_EDGE ( 'NONE', *, *, #173, .F. ) ;
#122 = EDGE_CURVE ( 'NONE', #313, #242, #264, .T. ) ;
#123 = AXIS2_PLACEMENT_3D ( 'NONE', #376, #75, #296 ) ;
#124 = CARTESIAN_POINT ( 'NONE',  ( 24.14999999999999858, 2.957522019940857930E-15, 0.000000000000000000 ) ) ;
#125 = ORIENTED_EDGE ( 'NONE', *, *, #421, .F. ) ;
#126 = APPROVAL_PERSON_ORGANIZATION ( #130, #364, #61 ) ;
#127 = PERSON_AND_ORGANIZATION_ROLE ( 'design_owner' ) ;
#128 = EDGE_LOOP ( 'NONE', ( #15, #371 ) ) ;
#129 = CIRCLE ( 'NONE', #188, 24.14999999999999858 ) ;
#130 = PERSON_AND_ORGANIZATION ( #271, #277 ) ;
#131 = VERTEX_POINT ( 'NONE', #28 ) ;
#132 = CIRCLE ( 'NONE', #304, 20.30000000000000426 ) ;
#133 = APPROVAL_STATUS ( 'not_yet_approved' ) ;
#134 = EDGE_LOOP ( 'NONE', ( #286, #237, #85, #270 ) ) ;
#135 = PERSON_AND_ORGANIZATION_ROLE ( 'creator' ) ;
#136 = CYLINDRICAL_SURFACE ( 'NONE', #51, 20.30000000000000426 ) ;
#137 = CARTESIAN_POINT ( 'NONE',  ( 0.000000000000000000, 0.000000000000000000, 80.00000000000000000 ) ) ;
#138 = EDGE_CURVE ( 'NONE', #50, #279, #72, .T. ) ;
#139 = CALENDAR_DATE ( 2026, 30, 5 ) ;
#140 = CIRCLE ( 'NONE', #246, 21.64999999999999503 ) ;
#141 = ORIENTED_EDGE ( 'NONE', *, *, #457, .F. ) ;
#142 = APPROVAL_ROLE ( '' ) ;
#143 = CARTESIAN_POINT ( 'NONE',  ( 60.00000000000000000, 7.347880794884118356E-15, 70.00000000000000000 ) ) ;
#144 = EDGE_CURVE ( 'NONE', #429, #356, #477, .T. ) ;
#145 = DIRECTION ( 'NONE',  ( -0.000000000000000000, 0.000000000000000000, 1.000000000000000000 ) ) ;
#146 = DATE_TIME_ROLE ( 'classification_date' ) ;
#147 = CYLINDRICAL_SURFACE ( 'NONE', #292, 24.14999999999999858 ) ;
#148 = PERSON_AND_ORGANIZATION_ROLE ( 'creator' ) ;
#149 = CC_DESIGN_PERSON_AND_ORGANIZATION_ASSIGNMENT ( #446, #481, ( #410 ) ) ;
#150 = CYLINDRICAL_SURFACE ( 'NONE', #430, 8.400000000000000355 ) ;
#151 = DESIGN_CONTEXT ( 'detailed design', #284, 'design' ) ;
#152 = DIRECTION ( 'NONE',  ( -0.000000000000000000, -0.000000000000000000, 1.000000000000000000 ) ) ;
#153 = CARTESIAN_POINT ( 'NONE',  ( 0.000000000000000000, 0.000000000000000000, 0.000000000000000000 ) ) ;
#154 = EDGE_LOOP ( 'NONE', ( #316, #439, #165, #44 ) ) ;
#155 = CIRCLE ( 'NONE', #330, 8.400000000000000355 ) ;
#156 = CYLINDRICAL_SURFACE ( 'NONE', #283, 21.64999999999999503 ) ;
#157 = VERTEX_POINT ( 'NONE', #451 ) ;
#158 = CYLINDRICAL_SURFACE ( 'NONE', #100, 24.14999999999999858 ) ;
#159 = ADVANCED_FACE ( 'NONE', ( #260, #373 ), #403, .T. ) ;
#160 = ORIENTED_EDGE ( 'NONE', *, *, #73, .T. ) ;
#161 = DIRECTION ( 'NONE',  ( -0.000000000000000000, -0.000000000000000000, -1.000000000000000000 ) ) ;
#162 = ORIENTED_EDGE ( 'NONE', *, *, #266, .F. ) ;
#163 = CIRCLE ( 'NONE', #437, 20.30000000000000426 ) ;
#164 = DIRECTION ( 'NONE',  ( 0.000000000000000000, 0.000000000000000000, 1.000000000000000000 ) ) ;
#165 = ORIENTED_EDGE ( 'NONE', *, *, #386, .T. ) ;
#166 = LINE ( 'NONE', #27, #404 ) ;
#167 = DIRECTION ( 'NONE',  ( 1.000000000000000000, 0.000000000000000000, 0.000000000000000000 ) ) ;
#168 = FACE_OUTER_BOUND ( 'NONE', #134, .T. ) ;
#169 = APPROVAL_DATE_TIME ( #21, #364 ) ;
#170 = DIRECTION ( 'NONE',  ( -0.000000000000000000, -0.000000000000000000, -1.000000000000000000 ) ) ;
#171 = DIRECTION ( 'NONE',  ( 1.000000000000000000, 0.000000000000000000, 0.000000000000000000 ) ) ;
#172 = ORIENTED_EDGE ( 'NONE', *, *, #38, .T. ) ;
#173 = EDGE_CURVE ( 'NONE', #354, #429, #302, .T. ) ;
#174 = PLANE ( 'NONE',  #413 ) ;
#175 = DIRECTION ( 'NONE',  ( 1.000000000000000000, 0.000000000000000000, 0.000000000000000000 ) ) ;
#176 = AXIS2_PLACEMENT_3D ( 'NONE', #343, #262, #52 ) ;
#177 = DIRECTION ( 'NONE',  ( -0.000000000000000000, 0.000000000000000000, 1.000000000000000000 ) ) ;
#178 = EDGE_CURVE ( 'NONE', #131, #83, #29, .T. ) ;
#179 = CALENDAR_DATE ( 2026, 30, 5 ) ;
#180 = DIRECTION ( 'NONE',  ( 1.000000000000000000, 0.000000000000000000, 0.000000000000000000 ) ) ;
#181 = CALENDAR_DATE ( 2026, 30, 5 ) ;
#182 = CARTESIAN_POINT ( 'NONE',  ( -21.64999999999999503, 2.651360320154018876E-15, 66.80000000000001137 ) ) ;
#183 = CARTESIAN_POINT ( 'NONE',  ( 0.000000000000000000, 0.000000000000000000, 70.00000000000000000 ) ) ;
#184 = CARTESIAN_POINT ( 'NONE',  ( 0.000000000000000000, 0.000000000000000000, 66.80000000000001137 ) ) ;
#185 = EDGE_CURVE ( 'NONE', #232, #354, #400, .T. ) ;
#186 = AXIS2_PLACEMENT_3D ( 'NONE', #362, #95, #241 ) ;
#187 = DIRECTION ( 'NONE',  ( -0.000000000000000000, -0.000000000000000000, -1.000000000000000000 ) ) ;
#188 = AXIS2_PLACEMENT_3D ( 'NONE', #328, #325, #175 ) ;
#189 = EDGE_LOOP ( 'NONE', ( #248, #464 ) ) ;
#190 = CARTESIAN_POINT ( 'NONE',  ( 0.000000000000000000, 0.000000000000000000, 70.00000000000000000 ) ) ;
#191 = VERTEX_POINT ( 'NONE', #332 ) ;
#192 = CIRCLE ( 'NONE', #472, 24.14999999999999858 ) ;
#193 = EDGE_CURVE ( 'NONE', #47, #191, #132, .T. ) ;
#194 = DIRECTION ( 'NONE',  ( 1.000000000000000000, 0.000000000000000000, 0.000000000000000000 ) ) ;
#195 = EDGE_LOOP ( 'NONE', ( #425, #420, #347, #423 ) ) ;
#196 = DIRECTION ( 'NONE',  ( -0.000000000000000000, -0.000000000000000000, -1.000000000000000000 ) ) ;
#197 = VERTEX_POINT ( 'NONE', #143 ) ;
#198 = DIRECTION ( 'NONE',  ( 1.000000000000000000, 0.000000000000000000, 0.000000000000000000 ) ) ;
#199 = ORIENTED_EDGE ( 'NONE', *, *, #178, .T. ) ;
#200 = CIRCLE ( 'NONE', #375, 24.14999999999999858 ) ;
#201 = CYLINDRICAL_SURFACE ( 'NONE', #294, 21.64999999999999503 ) ;
#202 = CARTESIAN_POINT ( 'NONE',  ( 20.30000000000000426, 2.486033002269127767E-15, 0.000000000000000000 ) ) ;
#203 = CARTESIAN_POINT ( 'NONE',  ( -24.14999999999999858, 0.000000000000000000, 70.00000000000000000 ) ) ;
#204 = EDGE_LOOP ( 'NONE', ( #301, #229, #3, #460 ) ) ;
#205 = CARTESIAN_POINT ( 'NONE',  ( 0.000000000000000000, 0.000000000000000000, 70.00000000000000000 ) ) ;
#206 = DIRECTION ( 'NONE',  ( 1.000000000000000000, 0.000000000000000000, 0.000000000000000000 ) ) ;
#207 = EDGE_CURVE ( 'NONE', #232, #356, #222, .T. ) ;
#208 = LINE ( 'NONE', #59, #342 ) ;
#209 = COORDINATED_UNIVERSAL_TIME_OFFSET ( 8, 0, .BEHIND. ) ;
#210 = DIRECTION ( 'NONE',  ( -1.000000000000000000, 0.000000000000000000, 0.000000000000000000 ) ) ;
#211 = APPROVAL_STATUS ( 'not_yet_approved' ) ;
#212 = PRODUCT_DEFINITION ( 'UNKNOWN', '', #410, #151 ) ;
#213 = CARTESIAN_POINT ( 'NONE',  ( 20.30000000000000426, 2.486033002269127767E-15, 70.00000000000000000 ) ) ;
#214 = DATE_AND_TIME ( #179, #456 ) ;
#215 = CIRCLE ( 'NONE', #55, 60.00000000000000000 ) ;
#216 = FACE_BOUND ( 'NONE', #128, .T. ) ;
#217 = AXIS2_PLACEMENT_3D ( 'NONE', #39, #69, #110 ) ;
#218 = DIRECTION ( 'NONE',  ( 1.000000000000000000, 0.000000000000000000, 0.000000000000000000 ) ) ;
#219 = DATE_AND_TIME ( #139, #381 ) ;
#220 = DIRECTION ( 'NONE',  ( -0.000000000000000000, -0.000000000000000000, -1.000000000000000000 ) ) ;
#221 = ADVANCED_FACE ( 'NONE', ( #216, #445 ), #106, .T. ) ;
#222 = LINE ( 'NONE', #1, #408 ) ;
#223 = AXIS2_PLACEMENT_3D ( 'NONE', #97, #244, #171 ) ;
#224 = CARTESIAN_POINT ( 'NONE',  ( 21.64999999999999503, 0.000000000000000000, 66.80000000000001137 ) ) ;
#225 = DIRECTION ( 'NONE',  ( 1.000000000000000000, 0.000000000000000000, 0.000000000000000000 ) ) ;
#226 = VERTEX_POINT ( 'NONE', #71 ) ;
#227 = EDGE_CURVE ( 'NONE', #226, #30, #155, .T. ) ;
#228 = DIRECTION ( 'NONE',  ( 1.000000000000000000, 0.000000000000000000, 0.000000000000000000 ) ) ;
#229 = ORIENTED_EDGE ( 'NONE', *, *, #138, .F. ) ;
#230 = DIRECTION ( 'NONE',  ( -0.000000000000000000, -0.000000000000000000, -1.000000000000000000 ) ) ;
#231 = PRODUCT_DEFINITION_SHAPE ( 'NONE', 'NONE',  #212 ) ;
#232 = VERTEX_POINT ( 'NONE', #182 ) ;
#233 = CC_DESIGN_PERSON_AND_ORGANIZATION_ASSIGNMENT ( #337, #148, ( #410 ) ) ;
#234 = CARTESIAN_POINT ( 'NONE',  ( -8.400000000000000355, 0.000000000000000000, 80.00000000000000000 ) ) ;
#235 = EDGE_LOOP ( 'NONE', ( #276, #397, #305, #395 ) ) ;
#236 = DIRECTION ( 'NONE',  ( 1.000000000000000000, 0.000000000000000000, -0.000000000000000000 ) ) ;
#237 = ORIENTED_EDGE ( 'NONE', *, *, #107, .T. ) ;
#238 = AXIS2_PLACEMENT_3D ( 'NONE', #387, #161, #87 ) ;
#239 = FACE_OUTER_BOUND ( 'NONE', #245, .T. ) ;
#240 = EDGE_LOOP ( 'NONE', ( #311, #162 ) ) ;
#241 = DIRECTION ( 'NONE',  ( 1.000000000000000000, 0.000000000000000000, 0.000000000000000000 ) ) ;
#242 = VERTEX_POINT ( 'NONE', #336 ) ;
#243 = ADVANCED_FACE ( 'NONE', ( #485 ), #147, .T. ) ;
#244 = DIRECTION ( 'NONE',  ( -0.000000000000000000, 0.000000000000000000, 1.000000000000000000 ) ) ;
#245 = EDGE_LOOP ( 'NONE', ( #454, #282, #80, #388 ) ) ;
#246 = AXIS2_PLACEMENT_3D ( 'NONE', #389, #6, #225 ) ;
#247 =( NAMED_UNIT ( * ) SI_UNIT ( $, .STERADIAN. ) SOLID_ANGLE_UNIT ( ) );
#248 = ORIENTED_EDGE ( 'NONE', *, *, #138, .T. ) ;
#249 = SHAPE_DEFINITION_REPRESENTATION ( #231, #372 ) ;
#250 = LOCAL_TIME ( 15, 41, 8.000000000000000000, #369 ) ;
#251 = ORIENTED_EDGE ( 'NONE', *, *, #457, .T. ) ;
#252 = AXIS2_PLACEMENT_3D ( 'NONE', #377, #31, #379 ) ;
#253 = SECURITY_CLASSIFICATION_LEVEL ( 'unclassified' ) ;
#254 = PLANE ( 'NONE',  #252 ) ;
#255 = AXIS2_PLACEMENT_3D ( 'NONE', #184, #177, #258 ) ;
#256 = CC_DESIGN_PERSON_AND_ORGANIZATION_ASSIGNMENT ( #324, #135, ( #212 ) ) ;
#257 = DIRECTION ( 'NONE',  ( 1.000000000000000000, 0.000000000000000000, 0.000000000000000000 ) ) ;
#258 = DIRECTION ( 'NONE',  ( 1.000000000000000000, 0.000000000000000000, 0.000000000000000000 ) ) ;
#259 = ADVANCED_FACE ( 'NONE', ( #411 ), #150, .F. ) ;
#260 = FACE_OUTER_BOUND ( 'NONE', #189, .T. ) ;
#261 = ORIENTED_EDGE ( 'NONE', *, *, #489, .T. ) ;
#262 = DIRECTION ( 'NONE',  ( -0.000000000000000000, -0.000000000000000000, -1.000000000000000000 ) ) ;
#263 = VECTOR ( 'NONE', #196, 1000.000000000000000 ) ;
#264 = CIRCLE ( 'NONE', #217, 20.30000000000000426 ) ;
#265 = LINE ( 'NONE', #81, #263 ) ;
#266 = EDGE_CURVE ( 'NONE', #399, #390, #192, .T. ) ;
#267 = ORIENTED_EDGE ( 'NONE', *, *, #38, .F. ) ;
#268 = UNCERTAINTY_MEASURE_WITH_UNIT (LENGTH_MEASURE( 1.000000000000000082E-05 ), #327, 'distance_accuracy_value', 'NONE');
#269 = DIRECTION ( 'NONE',  ( -0.000000000000000000, -0.000000000000000000, -1.000000000000000000 ) ) ;
#270 = ORIENTED_EDGE ( 'NONE', *, *, #386, .F. ) ;
#271 = PERSON ( 'UNSPECIFIED', 'UNSPECIFIED', 'UNSPECIFIED', ('UNSPECIFIED'), ('UNSPECIFIED'), ('UNSPECIFIED') ) ;
#272 = DIRECTION ( 'NONE',  ( 1.000000000000000000, 0.000000000000000000, 0.000000000000000000 ) ) ;
#273 = EDGE_LOOP ( 'NONE', ( #307, #88 ) ) ;
#274 = VECTOR ( 'NONE', #187, 1000.000000000000000 ) ;
#275 = CARTESIAN_POINT ( 'NONE',  ( 0.000000000000000000, 0.000000000000000000, 80.00000000000000000 ) ) ;
#276 = ORIENTED_EDGE ( 'NONE', *, *, #401, .F. ) ;
#277 = ORGANIZATION ( 'UNSPECIFIED', 'UNSPECIFIED', '' ) ;
#278 = EDGE_CURVE ( 'NONE', #83, #226, #41, .T. ) ;
#279 = VERTEX_POINT ( 'NONE', #14 ) ;
#280 = CIRCLE ( 'NONE', #320, 8.400000000000000355 ) ;
#281 = CARTESIAN_POINT ( 'NONE',  ( 0.000000000000000000, 0.000000000000000000, 66.80000000000001137 ) ) ;
#282 = ORIENTED_EDGE ( 'NONE', *, *, #407, .F. ) ;
#283 = AXIS2_PLACEMENT_3D ( 'NONE', #382, #424, #198 ) ;
#284 = APPLICATION_CONTEXT ( 'configuration controlled 3d designs of mechanical parts and assemblies' ) ;
#285 = DIRECTION ( 'NONE',  ( -0.000000000000000000, 0.000000000000000000, 1.000000000000000000 ) ) ;
#286 = ORIENTED_EDGE ( 'NONE', *, *, #122, .F. ) ;
#287 = EDGE_CURVE ( 'NONE', #197, #157, #215, .T. ) ;
#288 = LINE ( 'NONE', #203, #333 ) ;
#289 = EDGE_LOOP ( 'NONE', ( #473, #172 ) ) ;
#290 = MECHANICAL_CONTEXT ( 'NONE', #310, 'mechanical' ) ;
#291 = ORIENTED_EDGE ( 'NONE', *, *, #178, .F. ) ;
#292 = AXIS2_PLACEMENT_3D ( 'NONE', #487, #298, #447 ) ;
#293 = FACE_OUTER_BOUND ( 'NONE', #154, .T. ) ;
#294 = AXIS2_PLACEMENT_3D ( 'NONE', #318, #398, #167 ) ;
#295 = DIRECTION ( 'NONE',  ( -0.000000000000000000, 0.000000000000000000, 1.000000000000000000 ) ) ;
#296 = DIRECTION ( 'NONE',  ( 1.000000000000000000, 0.000000000000000000, 0.000000000000000000 ) ) ;
#297 = APPROVAL_DATE_TIME ( #219, #33 ) ;
#298 = DIRECTION ( 'NONE',  ( -0.000000000000000000, -0.000000000000000000, -1.000000000000000000 ) ) ;
#299 = EDGE_CURVE ( 'NONE', #279, #197, #419, .T. ) ;
#300 = CARTESIAN_POINT ( 'NONE',  ( 0.000000000000000000, 0.000000000000000000, 80.00000000000000000 ) ) ;
#301 = ORIENTED_EDGE ( 'NONE', *, *, #299, .F. ) ;
#302 = LINE ( 'NONE', #67, #45 ) ;
#303 = CARTESIAN_POINT ( 'NONE',  ( 0.000000000000000000, 0.000000000000000000, 70.00000000000000000 ) ) ;
#304 = AXIS2_PLACEMENT_3D ( 'NONE', #482, #295, #180 ) ;
#305 = ORIENTED_EDGE ( 'NONE', *, *, #287, .T. ) ;
#306 = CARTESIAN_POINT ( 'NONE',  ( 0.000000000000000000, 0.000000000000000000, 80.00000000000000000 ) ) ;
#307 = ORIENTED_EDGE ( 'NONE', *, *, #353, .T. ) ;
#308 = CC_DESIGN_PERSON_AND_ORGANIZATION_ASSIGNMENT ( #108, #478, ( #317 ) ) ;
#309 = CARTESIAN_POINT ( 'NONE',  ( -60.00000000000000000, 0.000000000000000000, 80.00000000000000000 ) ) ;
#310 = APPLICATION_CONTEXT ( 'configuration controlled 3d designs of mechanical parts and assemblies' ) ;
#311 = ORIENTED_EDGE ( 'NONE', *, *, #359, .F. ) ;
#312 = CARTESIAN_POINT ( 'NONE',  ( 60.00000000000000000, 7.347880794884118356E-15, 80.00000000000000000 ) ) ;
#313 = VERTEX_POINT ( 'NONE', #355 ) ;
#314 = ADVANCED_FACE ( 'NONE', ( #115 ), #156, .F. ) ;
#315 = CARTESIAN_POINT ( 'NONE',  ( 0.000000000000000000, 0.000000000000000000, 0.000000000000000000 ) ) ;
#316 = ORIENTED_EDGE ( 'NONE', *, *, #107, .F. ) ;
#317 = SECURITY_CLASSIFICATION ( '', '', #253 ) ;
#318 = CARTESIAN_POINT ( 'NONE',  ( 0.000000000000000000, 0.000000000000000000, 66.80000000000001137 ) ) ;
#319 = ORIENTED_EDGE ( 'NONE', *, *, #73, .F. ) ;
#320 = AXIS2_PLACEMENT_3D ( 'NONE', #205, #363, #471 ) ;
#321 =( NAMED_UNIT ( * ) PLANE_ANGLE_UNIT ( ) SI_UNIT ( $, .RADIAN. ) );
#322 = EDGE_CURVE ( 'NONE', #356, #429, #76, .T. ) ;
#323 = CARTESIAN_POINT ( 'NONE',  ( 0.000000000000000000, 0.000000000000000000, 70.00000000000000000 ) ) ;
#324 = PERSON_AND_ORGANIZATION ( #271, #277 ) ;
#325 = DIRECTION ( 'NONE',  ( -0.000000000000000000, 0.000000000000000000, 1.000000000000000000 ) ) ;
#326 = APPROVAL_PERSON_ORGANIZATION ( #405, #33, #142 ) ;
#327 =( LENGTH_UNIT ( ) NAMED_UNIT ( * ) SI_UNIT ( .MILLI., .METRE. ) );
#328 = CARTESIAN_POINT ( 'NONE',  ( 0.000000000000000000, 0.000000000000000000, 70.00000000000000000 ) ) ;
#329 = ORIENTED_EDGE ( 'NONE', *, *, #53, .T. ) ;
#330 = AXIS2_PLACEMENT_3D ( 'NONE', #183, #339, #36 ) ;
#331 = PERSON_AND_ORGANIZATION ( #271, #277 ) ;
#332 = CARTESIAN_POINT ( 'NONE',  ( -20.30000000000000426, 0.000000000000000000, 0.000000000000000000 ) ) ;
#333 = VECTOR ( 'NONE', #432, 1000.000000000000000 ) ;
#334 = CARTESIAN_POINT ( 'NONE',  ( 0.000000000000000000, 0.000000000000000000, 66.80000000000001137 ) ) ;
#335 = ADVANCED_FACE ( 'NONE', ( #11 ), #77, .F. ) ;
#336 = CARTESIAN_POINT ( 'NONE',  ( -20.30000000000000426, 0.000000000000000000, 66.80000000000001137 ) ) ;
#337 = PERSON_AND_ORGANIZATION ( #271, #277 ) ;
#338 = VECTOR ( 'NONE', #269, 1000.000000000000000 ) ;
#339 = DIRECTION ( 'NONE',  ( 0.000000000000000000, 0.000000000000000000, 1.000000000000000000 ) ) ;
#340 = EDGE_LOOP ( 'NONE', ( #470, #141, #261, #112 ) ) ;
#341 = FACE_BOUND ( 'NONE', #101, .T. ) ;
#342 = VECTOR ( 'NONE', #170, 1000.000000000000000 ) ;
#343 = CARTESIAN_POINT ( 'NONE',  ( 0.000000000000000000, 0.000000000000000000, 80.00000000000000000 ) ) ;
#344 = EDGE_LOOP ( 'NONE', ( #12, #351 ) ) ;
#345 = DIRECTION ( 'NONE',  ( -1.000000000000000000, 0.000000000000000000, 0.000000000000000000 ) ) ;
#346 = AXIS2_PLACEMENT_3D ( 'NONE', #334, #145, #257 ) ;
#347 = ORIENTED_EDGE ( 'NONE', *, *, #227, .F. ) ;
#348 = PRODUCT_RELATED_PRODUCT_CATEGORY ( 'detail', '', ( #349 ) ) ;
#349 = PRODUCT ( 'EDM Spool B-half', 'EDM Spool B-half', '', ( #290 ) ) ;
#350 = DIRECTION ( 'NONE',  ( 1.000000000000000000, 0.000000000000000000, 0.000000000000000000 ) ) ;
#351 = ORIENTED_EDGE ( 'NONE', *, *, #287, .F. ) ;
#352 = DIRECTION ( 'NONE',  ( -0.000000000000000000, 0.000000000000000000, 1.000000000000000000 ) ) ;
#353 = EDGE_CURVE ( 'NONE', #191, #47, #480, .T. ) ;
#354 = VERTEX_POINT ( 'NONE', #224 ) ;
#355 = CARTESIAN_POINT ( 'NONE',  ( 20.30000000000000426, 2.486033002269127767E-15, 66.80000000000001137 ) ) ;
#356 = VERTEX_POINT ( 'NONE', #455 ) ;
#357 = AXIS2_PLACEMENT_3D ( 'NONE', #406, #442, #448 ) ;
#358 = CARTESIAN_POINT ( 'NONE',  ( -60.00000000000000000, 0.000000000000000000, 80.00000000000000000 ) ) ;
#359 = EDGE_CURVE ( 'NONE', #390, #399, #452, .T. ) ;
#360 = CARTESIAN_POINT ( 'NONE',  ( 8.400000000000000355, 1.028703311283776783E-15, 70.00000000000000000 ) ) ;
#361 = AXIS2_PLACEMENT_3D ( 'NONE', #63, #62, #402 ) ;
#362 = CARTESIAN_POINT ( 'NONE',  ( 0.000000000000000000, 0.000000000000000000, 0.000000000000000000 ) ) ;
#363 = DIRECTION ( 'NONE',  ( 0.000000000000000000, 0.000000000000000000, 1.000000000000000000 ) ) ;
#364 = APPROVAL ( #133, 'UNSPECIFIED' ) ;
#365 = DIRECTION ( 'NONE',  ( -1.000000000000000000, 0.000000000000000000, 0.000000000000000000 ) ) ;
#366 = FACE_BOUND ( 'NONE', #273, .T. ) ;
#367 = CARTESIAN_POINT ( 'NONE',  ( -24.14999999999999858, 0.000000000000000000, 70.00000000000000000 ) ) ;
#368 = EDGE_CURVE ( 'NONE', #50, #157, #453, .T. ) ;
#369 = COORDINATED_UNIVERSAL_TIME_OFFSET ( 8, 0, .BEHIND. ) ;
#370 = DIRECTION ( 'NONE',  ( 1.000000000000000000, 0.000000000000000000, -0.000000000000000000 ) ) ;
#371 = ORIENTED_EDGE ( 'NONE', *, *, #122, .T. ) ;
#372 = ADVANCED_BREP_SHAPE_REPRESENTATION ( 'EDM Spool B-half', ( #465, #186 ), #66 ) ;
#373 = FACE_BOUND ( 'NONE', #418, .T. ) ;
#374 = ADVANCED_FACE ( 'NONE', ( #462 ), #118, .T. ) ;
#375 = AXIS2_PLACEMENT_3D ( 'NONE', #391, #285, #206 ) ;
#376 = CARTESIAN_POINT ( 'NONE',  ( 0.000000000000000000, 0.000000000000000000, 80.00000000000000000 ) ) ;
#377 = CARTESIAN_POINT ( 'NONE',  ( 0.000000000000000000, 0.000000000000000000, 70.00000000000000000 ) ) ;
#378 = AXIS2_PLACEMENT_3D ( 'NONE', #306, #46, #8 ) ;
#379 = DIRECTION ( 'NONE',  ( 1.000000000000000000, 0.000000000000000000, -0.000000000000000000 ) ) ;
#380 = DIRECTION ( 'NONE',  ( -1.000000000000000000, 0.000000000000000000, 0.000000000000000000 ) ) ;
#381 = LOCAL_TIME ( 15, 41, 8.000000000000000000, #444 ) ;
#382 = CARTESIAN_POINT ( 'NONE',  ( 0.000000000000000000, 0.000000000000000000, 66.80000000000001137 ) ) ;
#383 = ORIENTED_EDGE ( 'NONE', *, *, #489, .F. ) ;
#384 = CARTESIAN_POINT ( 'NONE',  ( -24.14999999999999858, 0.000000000000000000, 0.000000000000000000 ) ) ;
#385 = ORIENTED_EDGE ( 'NONE', *, *, #278, .T. ) ;
#386 = EDGE_CURVE ( 'NONE', #242, #191, #265, .T. ) ;
#387 = CARTESIAN_POINT ( 'NONE',  ( 0.000000000000000000, 0.000000000000000000, 80.00000000000000000 ) ) ;
#388 = ORIENTED_EDGE ( 'NONE', *, *, #144, .T. ) ;
#389 = CARTESIAN_POINT ( 'NONE',  ( 0.000000000000000000, 0.000000000000000000, 66.80000000000001137 ) ) ;
#390 = VERTEX_POINT ( 'NONE', #384 ) ;
#391 = CARTESIAN_POINT ( 'NONE',  ( 0.000000000000000000, 0.000000000000000000, 70.00000000000000000 ) ) ;
#392 = ORIENTED_EDGE ( 'NONE', *, *, #322, .T. ) ;
#393 = CIRCLE ( 'NONE', #378, 8.400000000000000355 ) ;
#394 = DIRECTION ( 'NONE',  ( 0.000000000000000000, -0.000000000000000000, -1.000000000000000000 ) ) ;
#395 = ORIENTED_EDGE ( 'NONE', *, *, #368, .F. ) ;
#396 = APPLICATION_PROTOCOL_DEFINITION ( 'international standard', 'config_control_design', 1994, #310 ) ;
#397 = ORIENTED_EDGE ( 'NONE', *, *, #299, .T. ) ;
#398 = DIRECTION ( 'NONE',  ( -0.000000000000000000, -0.000000000000000000, 1.000000000000000000 ) ) ;
#399 = VERTEX_POINT ( 'NONE', #124 ) ;
#400 = CIRCLE ( 'NONE', #255, 21.64999999999999503 ) ;
#401 = EDGE_CURVE ( 'NONE', #279, #50, #13, .T. ) ;
#402 = DIRECTION ( 'NONE',  ( 1.000000000000000000, 0.000000000000000000, 0.000000000000000000 ) ) ;
#403 = PLANE ( 'NONE',  #91 ) ;
#404 = VECTOR ( 'NONE', #93, 1000.000000000000000 ) ;
#405 = PERSON_AND_ORGANIZATION ( #271, #277 ) ;
#406 = CARTESIAN_POINT ( 'NONE',  ( 0.000000000000000000, 0.000000000000000000, 70.00000000000000000 ) ) ;
#407 = EDGE_CURVE ( 'NONE', #354, #232, #140, .T. ) ;
#408 = VECTOR ( 'NONE', #152, 1000.000000000000000 ) ;
#409 = CARTESIAN_POINT ( 'NONE',  ( 0.000000000000000000, 0.000000000000000000, 80.00000000000000000 ) ) ;
#410 = PRODUCT_DEFINITION_FORMATION_WITH_SPECIFIED_SOURCE ( 'ANY', '', #349, .NOT_KNOWN. ) ;
#411 = FACE_OUTER_BOUND ( 'NONE', #488, .T. ) ;
#412 = LINE ( 'NONE', #213, #19 ) ;
#413 = AXIS2_PLACEMENT_3D ( 'NONE', #428, #58, #236 ) ;
#414 = ADVANCED_FACE ( 'NONE', ( #43 ), #158, .T. ) ;
#415 = DIRECTION ( 'NONE',  ( -0.000000000000000000, 0.000000000000000000, 1.000000000000000000 ) ) ;
#416 = DIRECTION ( 'NONE',  ( 0.000000000000000000, 0.000000000000000000, 1.000000000000000000 ) ) ;
#417 = APPROVAL_PERSON_ORGANIZATION ( #331, #463, #102 ) ;
#418 = EDGE_LOOP ( 'NONE', ( #125, #291 ) ) ;
#419 = LINE ( 'NONE', #312, #4 ) ;
#420 = ORIENTED_EDGE ( 'NONE', *, *, #60, .T. ) ;
#421 = EDGE_CURVE ( 'NONE', #83, #131, #393, .T. ) ;
#422 = CARTESIAN_POINT ( 'NONE',  ( 0.000000000000000000, 0.000000000000000000, 0.000000000000000000 ) ) ;
#423 = ORIENTED_EDGE ( 'NONE', *, *, #278, .F. ) ;
#424 = DIRECTION ( 'NONE',  ( -0.000000000000000000, -0.000000000000000000, 1.000000000000000000 ) ) ;
#425 = ORIENTED_EDGE ( 'NONE', *, *, #421, .T. ) ;
#426 = PERSON_AND_ORGANIZATION ( #271, #277 ) ;
#427 = ORIENTED_EDGE ( 'NONE', *, *, #407, .T. ) ;
#428 = CARTESIAN_POINT ( 'NONE',  ( 0.000000000000000000, 0.000000000000000000, 70.00000000000000000 ) ) ;
#429 = VERTEX_POINT ( 'NONE', #459 ) ;
#430 = AXIS2_PLACEMENT_3D ( 'NONE', #74, #220, #380 ) ;
#431 = CYLINDRICAL_SURFACE ( 'NONE', #42, 20.30000000000000426 ) ;
#432 = DIRECTION ( 'NONE',  ( -0.000000000000000000, -0.000000000000000000, -1.000000000000000000 ) ) ;
#433 = CARTESIAN_POINT ( 'NONE',  ( -8.400000000000000355, 0.000000000000000000, 80.00000000000000000 ) ) ;
#434 = EDGE_CURVE ( 'NONE', #242, #313, #163, .T. ) ;
#435 = COORDINATED_UNIVERSAL_TIME_OFFSET ( 8, 0, .BEHIND. ) ;
#436 = DIRECTION ( 'NONE',  ( -0.000000000000000000, -0.000000000000000000, -1.000000000000000000 ) ) ;
#437 = AXIS2_PLACEMENT_3D ( 'NONE', #281, #394, #89 ) ;
#438 = COORDINATED_UNIVERSAL_TIME_OFFSET ( 8, 0, .BEHIND. ) ;
#439 = ORIENTED_EDGE ( 'NONE', *, *, #434, .F. ) ;
#440 = DATE_TIME_ROLE ( 'creation_date' ) ;
#441 = ADVANCED_FACE ( 'NONE', ( #366, #92 ), #24, .F. ) ;
#442 = DIRECTION ( 'NONE',  ( -0.000000000000000000, 0.000000000000000000, 1.000000000000000000 ) ) ;
#443 = AXIS2_PLACEMENT_3D ( 'NONE', #137, #436, #210 ) ;
#444 = COORDINATED_UNIVERSAL_TIME_OFFSET ( 8, 0, .BEHIND. ) ;
#445 = FACE_OUTER_BOUND ( 'NONE', #10, .T. ) ;
#446 = PERSON_AND_ORGANIZATION ( #271, #277 ) ;
#447 = DIRECTION ( 'NONE',  ( -1.000000000000000000, 0.000000000000000000, 0.000000000000000000 ) ) ;
#448 = DIRECTION ( 'NONE',  ( 1.000000000000000000, 0.000000000000000000, 0.000000000000000000 ) ) ;
#449 = ORIENTED_EDGE ( 'NONE', *, *, #60, .F. ) ;
#450 = ADVANCED_FACE ( 'NONE', ( #56, #475 ), #174, .F. ) ;
#451 = CARTESIAN_POINT ( 'NONE',  ( -60.00000000000000000, 0.000000000000000000, 70.00000000000000000 ) ) ;
#452 = CIRCLE ( 'NONE', #486, 24.14999999999999858 ) ;
#453 = LINE ( 'NONE', #309, #338 ) ;
#454 = ORIENTED_EDGE ( 'NONE', *, *, #207, .F. ) ;
#455 = CARTESIAN_POINT ( 'NONE',  ( -21.64999999999999503, 2.651360320154018876E-15, 70.00000000000000000 ) ) ;
#456 = LOCAL_TIME ( 15, 41, 8.000000000000000000, #438 ) ;
#457 = EDGE_CURVE ( 'NONE', #90, #54, #200, .T. ) ;
#458 = ORIENTED_EDGE ( 'NONE', *, *, #144, .F. ) ;
#459 = CARTESIAN_POINT ( 'NONE',  ( 21.64999999999999503, 0.000000000000000000, 70.00000000000000000 ) ) ;
#460 = ORIENTED_EDGE ( 'NONE', *, *, #5, .T. ) ;
#461 = AXIS2_PLACEMENT_3D ( 'NONE', #275, #416, #79 ) ;
#462 = FACE_OUTER_BOUND ( 'NONE', #235, .T. ) ;
#463 = APPROVAL ( #35, 'UNSPECIFIED' ) ;
#464 = ORIENTED_EDGE ( 'NONE', *, *, #401, .T. ) ;
#465 = MANIFOLD_SOLID_BREP ( 'Boss-Extrude2', #111 ) ;
#466 = DIRECTION ( 'NONE',  ( 1.000000000000000000, 0.000000000000000000, 0.000000000000000000 ) ) ;
#467 = ORIENTED_EDGE ( 'NONE', *, *, #266, .T. ) ;
#468 = CC_DESIGN_APPROVAL ( #364, ( #212 ) ) ;
#469 = APPLICATION_PROTOCOL_DEFINITION ( 'international standard', 'config_control_design', 1994, #284 ) ;
#470 = ORIENTED_EDGE ( 'NONE', *, *, #53, .F. ) ;
#471 = DIRECTION ( 'NONE',  ( 1.000000000000000000, 0.000000000000000000, 0.000000000000000000 ) ) ;
#472 = AXIS2_PLACEMENT_3D ( 'NONE', #422, #49, #272 ) ;
#473 = ORIENTED_EDGE ( 'NONE', *, *, #227, .T. ) ;
#474 = ADVANCED_FACE ( 'NONE', ( #239 ), #201, .F. ) ;
#475 = FACE_OUTER_BOUND ( 'NONE', #116, .T. ) ;
#476 = CYLINDRICAL_SURFACE ( 'NONE', #443, 60.00000000000000000 ) ;
#477 = CIRCLE ( 'NONE', #357, 21.64999999999999503 ) ;
#478 = PERSON_AND_ORGANIZATION_ROLE ( 'classification_officer' ) ;
#479 = ORIENTED_EDGE ( 'NONE', *, *, #322, .F. ) ;
#480 = CIRCLE ( 'NONE', #114, 20.30000000000000426 ) ;
#481 = PERSON_AND_ORGANIZATION_ROLE ( 'design_supplier' ) ;
#482 = CARTESIAN_POINT ( 'NONE',  ( 0.000000000000000000, 0.000000000000000000, 0.000000000000000000 ) ) ;
#483 = LOCAL_TIME ( 15, 41, 8.000000000000000000, #209 ) ;
#484 = DIRECTION ( 'NONE',  ( 0.000000000000000000, 0.000000000000000000, 1.000000000000000000 ) ) ;
#485 = FACE_OUTER_BOUND ( 'NONE', #340, .T. ) ;
#486 = AXIS2_PLACEMENT_3D ( 'NONE', #153, #352, #194 ) ;
#487 = CARTESIAN_POINT ( 'NONE',  ( 0.000000000000000000, 0.000000000000000000, 70.00000000000000000 ) ) ;
#488 = EDGE_LOOP ( 'NONE', ( #449, #199, #385, #267 ) ) ;
#489 = EDGE_CURVE ( 'NONE', #90, #390, #288, .T. ) ;
ENDSEC;
END-ISO-10303-21;
